<svg width="35" height="36" viewBox="0 0 35 36" fill="none" xmlns="http://www.w3.org/2000/svg">
<path fill-rule="evenodd" clip-rule="evenodd" d="M4.10927 29.7225C4.10927 29.7225 3.97668 29.1009 4.20071 28.5069L11.5284 8.33538C11.5284 8.33538 11.7197 7.80896 12.1411 7.43995C12.1411 7.43995 12.5624 7.07095 13.1095 6.95076C13.1095 6.95076 13.6565 6.83057 14.1938 6.98898C14.1938 6.98898 14.731 7.14738 15.1221 7.54181L27.9535 20.3733C27.9535 20.3733 28.3512 20.7676 28.5096 21.3048C28.5096 21.3048 28.668 21.8421 28.5479 22.3891C28.5479 22.3891 28.4277 22.9362 28.0587 23.3576C28.0587 23.3576 27.6897 23.7789 27.1631 23.9703L7.00151 31.2942C7.00151 31.2942 6.40288 31.523 5.77609 31.3894C5.77609 31.3894 5.14931 31.2557 4.69613 30.8025C4.69613 30.8025 4.24296 30.3493 4.10927 29.7225ZM26.4186 21.9214L6.25094 29.2478L13.5773 9.07998L13.5806 9.0833L26.4186 21.9214Z" fill="#1C1C1C"/>
<path d="M30.0549 5.95249C30.5787 4.90484 30.5787 3.83002 30.5787 3.83002C30.5787 3.22803 30.0907 2.74002 29.4887 2.74002C28.8867 2.74002 28.3987 3.22803 28.3987 3.83002C28.3987 4.39021 28.105 4.97756 28.105 4.97756C27.5888 6.01002 26.2187 6.01002 26.2187 6.01002C23.5013 6.01002 22.3825 8.24756 22.3825 8.24756C21.8587 9.29521 21.8587 10.37 21.8587 10.37C21.8587 10.972 22.3467 11.46 22.9487 11.46C23.5507 11.46 24.0387 10.972 24.0387 10.37C24.0387 9.80984 24.3324 9.22249 24.3324 9.22249C24.8486 8.19002 26.2187 8.19002 26.2187 8.19002C28.9361 8.19002 30.0549 5.95249 30.0549 5.95249Z" fill="#1C1C1C"/>
<path d="M8.67744 20.7172C8.47302 20.5128 8.19578 20.398 7.90669 20.398C7.61761 20.398 7.34036 20.5128 7.13595 20.7172C6.93153 20.9216 6.81669 21.1989 6.81669 21.488C6.81669 21.7771 6.93153 22.0543 7.13595 22.2587L13.2399 28.3627C13.4444 28.5671 13.7216 28.682 14.0107 28.682C14.2998 28.682 14.577 28.5671 14.7814 28.3627C14.9859 28.1583 15.1007 27.8811 15.1007 27.592C15.1007 27.3029 14.9859 27.0256 14.7814 26.8212L8.67744 20.7172Z" fill="#1C1C1C"/>
<path d="M18.5887 2.74002V6.01002C18.5887 6.61201 19.0767 7.10002 19.6787 7.10002C20.2807 7.10002 20.7687 6.61201 20.7687 6.01002V2.74002C20.7687 2.13803 20.2807 1.65002 19.6787 1.65002C19.0767 1.65002 18.5887 2.13803 18.5887 2.74002Z" fill="#1C1C1C"/>
<path d="M28.7181 16.5909L30.8979 18.7708C31.1024 18.9752 31.3796 19.09 31.6687 19.09C31.9578 19.09 32.235 18.9752 32.4394 18.7708C32.6439 18.5664 32.7587 18.2891 32.7587 18C32.7587 17.7109 32.6439 17.4337 32.4394 17.2293L30.2596 15.0494C30.055 14.8449 29.7778 14.73 29.4887 14.73C29.1996 14.73 28.9224 14.8449 28.7179 15.0493C28.5135 15.2537 28.3987 15.5309 28.3987 15.82C28.3987 16.1091 28.5135 16.3864 28.7181 16.5909Z" fill="#1C1C1C"/>
<path d="M33.1034 11.4041C33.3776 11.3127 33.6043 11.1161 33.7336 10.8575C33.8093 10.7061 33.8487 10.5392 33.8487 10.37L33.8487 10.3661C33.8483 10.2503 33.8294 10.1352 33.7928 10.0253C33.7013 9.75109 33.5047 9.52438 33.2462 9.3951C33.0948 9.31942 32.9279 9.28003 32.7587 9.28002L32.7548 9.28003C32.6389 9.28045 32.5239 9.29933 32.414 9.33596L29.144 10.426C28.6989 10.5743 28.3987 10.9909 28.3987 11.46L28.3989 11.4804C28.4009 11.5907 28.4197 11.7 28.4546 11.8047C28.546 12.079 28.7427 12.3057 29.0012 12.435C29.1526 12.5106 29.3195 12.55 29.4887 12.55L29.4926 12.55C29.6085 12.5496 29.7235 12.5307 29.8334 12.4941L33.1034 11.4041Z" fill="#1C1C1C"/>
<path d="M20.4334 25.7463C20.6378 25.9507 20.9156 26.0661 21.2047 26.0661C21.4938 26.0661 21.771 25.9513 21.9754 25.7469C22.1799 25.5425 22.2947 25.2652 22.2947 24.9761C22.2947 24.687 22.1799 24.4098 21.9754 24.2054L11.2934 13.5234C11.089 13.319 10.8118 13.2041 10.5227 13.2041C10.2336 13.2041 9.95636 13.319 9.75194 13.5234C9.54753 13.7278 9.43269 14.005 9.43269 14.2941C9.43269 14.5832 9.54753 14.8605 9.75194 15.0649L20.4334 25.7463Z" fill="#1C1C1C"/>
</svg>
