<svg width="164" height="124" viewBox="0 0 164 124" fill="none" xmlns="http://www.w3.org/2000/svg">
<path d="M61.1523 109.978C61.1523 110.085 61.2385 110.171 61.3457 110.171H103.41C103.517 110.171 103.603 110.085 103.603 109.978C103.603 109.871 103.517 109.784 103.41 109.784H61.3457C61.2385 109.784 61.1523 109.871 61.1523 109.978Z" fill="#484565"/>
<path d="M83.2732 24.7736C83.2732 24.7736 79.7126 23.91 77.5578 29.1274C75.762 33.4762 74.488 35.7986 75.9457 37.3762C76.4673 37.9405 77.2116 38.2447 77.9787 38.2707L86.1854 38.5407C86.1854 38.5407 89.1983 30.6334 87.3668 27.7742C85.5353 24.9135 83.2732 24.7736 83.2732 24.7736Z" fill="#2F2E41"/>
<path d="M84.9727 37.8837L81.0254 39.1832V33.4958H84.6071L84.9727 37.8837Z" fill="#F6A6A9"/>
<path d="M81.9438 106.8H78.2451L76.1016 87.0269H81.817L81.9438 106.8Z" fill="#F6A6A9"/>
<path d="M74.6442 109.978C74.2558 109.978 73.9096 109.968 73.648 109.944C72.6648 109.854 71.7288 109.129 71.2575 108.705C71.0462 108.514 70.978 108.21 71.0885 107.948C71.1681 107.76 71.3257 107.62 71.5207 107.564L74.116 106.823L78.3185 103.985L78.3656 104.069C78.3835 104.1 78.7963 104.845 78.9344 105.348C78.9864 105.54 78.9734 105.699 78.8938 105.821C78.8385 105.907 78.7622 105.956 78.6988 105.984C78.7752 106.063 79.014 106.224 79.747 106.341C80.8195 106.512 81.0438 105.4 81.0535 105.353L81.06 105.315L81.0925 105.294C81.6028 104.966 81.9164 104.816 82.0253 104.847C82.0936 104.866 82.2057 104.9 82.5096 107.929C82.5405 108.023 82.7534 108.721 82.6087 109.386C82.4511 110.111 79.2871 109.861 78.6533 109.804C78.6354 109.806 76.266 109.975 74.6425 109.975V109.978H74.6442Z" fill="#2F2E41"/>
<path d="M90.2973 106.8H86.6002L84.4551 87.0269H90.1705L90.2973 106.8Z" fill="#F6A6A9"/>
<path d="M82.9987 109.978C82.6103 109.978 82.2641 109.968 82.0025 109.944C81.0193 109.854 80.0833 109.129 79.612 108.705C79.4007 108.514 79.3325 108.21 79.443 107.948C79.5226 107.76 79.6802 107.62 79.8752 107.564L82.4705 106.823L86.673 103.985L86.7201 104.069C86.738 104.1 87.1508 104.845 87.2889 105.348C87.3409 105.54 87.3279 105.699 87.2483 105.821C87.193 105.907 87.1166 105.956 87.0533 105.984C87.1296 106.063 87.3685 106.224 88.1014 106.341C89.174 106.512 89.3983 105.4 89.408 105.353L89.4145 105.315L89.447 105.294C89.9573 104.966 90.2709 104.816 90.3798 104.847C90.4481 104.866 90.5602 104.9 90.8641 107.929C90.895 108.023 91.1079 108.721 90.9632 109.386C90.8056 110.111 87.6415 109.861 87.0078 109.804C86.9899 109.806 84.6205 109.975 82.997 109.975V109.978H82.9987Z" fill="#2F2E41"/>
<path d="M91.3615 58.2341H73.3945L79.8526 36.9631H87.016L91.3615 58.2341Z" fill="#DDDEDF"/>
<path d="M72.9054 70.1698C72.6909 71.4725 71.8231 72.4077 70.9666 72.2564C70.1102 72.1052 69.5886 70.9277 69.8031 69.625C69.8811 69.1029 70.0875 68.6102 70.4044 68.1857L71.3827 62.6772L74.0462 63.2351L72.7981 68.6053C72.9623 69.1127 72.9996 69.6494 72.907 70.1698H72.9054Z" fill="#F6A6A9"/>
<path d="M80.9841 36.9664C80.9841 36.9664 76.5216 36.8493 76.0519 38.0235C75.5823 39.1993 70.0635 67.1693 70.0635 67.1693H73.7037L80.9841 36.9664Z" fill="#DDDEDF"/>
<path d="M81.9314 34.8391C84.1043 34.8391 85.8658 33.0763 85.8658 30.9017C85.8658 28.7272 84.1043 26.9644 81.9314 26.9644C79.7585 26.9644 77.9971 28.7272 77.9971 30.9017C77.9971 33.0763 79.7585 34.8391 81.9314 34.8391Z" fill="#F6A6A9"/>
<path d="M82.5482 26.0732C82.5482 26.0732 77.4974 33.5918 78.3473 38.2821L75.4092 36.4395C75.4092 36.4395 77.4779 26.9449 80.5607 26.2081L82.5482 26.0715V26.0732Z" fill="#2F2E41"/>
<path d="M87.6276 58.2341H75.8376L69.386 84.7322C69.2673 85.8511 69.9759 86.8952 71.0631 87.1863C74.6025 88.1345 83.0952 89.4795 95.9513 85.7357C97.188 85.3762 97.8901 84.0703 97.5017 82.8408L87.6276 58.2358V58.2341Z" fill="#2F2E41"/>
<path d="M71.7254 40.7363L71.6441 40.655L71.5629 40.7363C67.609 36.7827 61.2013 36.7875 57.2507 40.7444C53.3001 44.703 53.2205 51.1953 57.1743 55.149L71.6539 69.6251L86.1237 55.1311C90.0743 51.1726 89.9914 44.6802 86.0392 40.7266C82.0853 36.7729 75.6776 36.7778 71.727 40.7347L71.7254 40.7363Z" fill="#C7C7C7"/>
<path d="M82.418 38.9538L85.6844 37.2771C87.1779 36.7241 88.8436 36.9095 90.1794 37.7796C94.2421 40.4241 102.251 46.2545 98.8086 49.1364C94.273 52.9355 88.1415 46.1976 88.1415 46.1976L82.418 38.9538Z" fill="#DDDEDF"/>
<path d="M82.3465 41.8194C81.2105 41.1494 80.6531 40.0012 81.1033 39.2547C81.5534 38.5098 82.8389 38.4496 83.9764 39.1197C84.4347 39.3815 84.8198 39.7523 85.0994 40.2012L89.8771 43.1059L88.395 45.3892L83.8415 42.2829C83.3085 42.252 82.795 42.0926 82.3448 41.8178H82.3465V41.8194Z" fill="#F6A6A9"/>
<path d="M85.5938 44.4524L86.9523 41.2046L93.5908 43.4034L90.6218 48.3491L85.5938 44.4524Z" fill="#DDDEDF"/>
</svg>
