<svg width="164" height="124" viewBox="0 0 164 124" fill="none" xmlns="http://www.w3.org/2000/svg">
<g clip-path="url(#clip0_1304_24778)">
<path d="M76.9865 104.095C76.9865 104.095 79.0716 100.669 81.7485 102.695C84.4255 104.721 89.383 108.139 89.383 108.139C89.383 108.139 90.3984 110.325 87.7703 109.504C85.1422 108.683 76.563 107.361 76.563 107.361L76.9865 104.095Z" fill="#FEB8B8"/>
<path d="M18.7162 82.3358C19.3807 76.9843 22.6919 71.7116 27.7875 69.9701C25.7779 75.4782 25.7784 81.5208 27.7887 87.0287C28.5717 89.15 29.6631 91.4278 28.9266 93.5658C28.4684 94.8961 27.3473 95.9139 26.0942 96.5503C24.8411 97.1867 23.4503 97.49 22.077 97.7873L21.8067 98.0112C19.6265 93.0804 18.0517 87.6873 18.7162 82.3358Z" fill="#F0F0F0"/>
<path d="M27.8379 70.0713C24.8705 73.4014 23.0262 77.5835 22.5669 82.0233C22.4511 82.9773 22.4861 83.9437 22.6707 84.8868C22.8802 85.7997 23.33 86.6397 23.9732 87.3197C24.5603 87.9657 25.2355 88.5584 25.6555 89.3361C25.8646 89.7374 25.9867 90.1784 26.0137 90.6303C26.0407 91.0821 25.972 91.5346 25.8122 91.958C25.4413 93.0234 24.7104 93.8917 23.9661 94.7161C23.1398 95.6313 22.267 96.5688 21.9157 97.7822C21.8731 97.9292 21.6479 97.8545 21.6904 97.7077C22.3015 95.5966 24.3475 94.3975 25.3233 92.4961C25.7786 91.6089 25.9697 90.5789 25.5428 89.6423C25.1696 88.8233 24.4739 88.2115 23.8738 87.5625C23.2366 86.9085 22.7689 86.1081 22.5118 85.2313C22.2798 84.3006 22.2076 83.3372 22.2984 82.3823C22.4684 80.2293 22.9754 78.1164 23.8007 76.1211C24.7301 73.8386 26.0424 71.7322 27.6809 69.893C27.7824 69.7792 27.9387 69.9582 27.8379 70.0713Z" fill="white"/>
<path d="M22.6308 80.585C21.8976 80.4067 21.2514 79.9731 20.8079 79.3617C20.3643 78.7503 20.1522 78.0009 20.2093 77.2473C20.2214 77.0949 20.4585 77.1065 20.4464 77.2592C20.3919 77.9608 20.5896 78.6589 21.0038 79.2274C21.418 79.7959 22.0214 80.1973 22.7052 80.3593C22.8538 80.3947 22.7785 80.6202 22.6308 80.585Z" fill="white"/>
<path d="M23.6325 87.0313C24.9569 86.2393 25.9346 84.9764 26.3706 83.4944C26.4136 83.3476 26.6389 83.4223 26.5959 83.569C26.1393 85.1102 25.1192 86.4224 23.7393 87.2436C23.6077 87.3218 23.5017 87.109 23.6325 87.0313Z" fill="white"/>
<path d="M24.9503 74.0637C25.2197 74.1919 25.5166 74.2511 25.8144 74.236C26.1123 74.2208 26.4017 74.1318 26.6567 73.977C26.7872 73.8972 26.8931 74.11 26.7634 74.1892C26.4809 74.359 26.1611 74.4569 25.8321 74.4744C25.5031 74.4918 25.1748 74.4283 24.8759 74.2894C24.8466 74.2787 24.8225 74.2572 24.8085 74.2293C24.7945 74.2014 24.7916 74.1692 24.8004 74.1393C24.8104 74.1095 24.8318 74.0848 24.8598 74.0706C24.8879 74.0565 24.9204 74.054 24.9503 74.0637Z" fill="white"/>
<path d="M43.3196 79.5284C43.2395 79.5805 43.1594 79.6327 43.0793 79.6868C42.0061 80.3936 40.9921 81.1866 40.0472 82.0578C39.973 82.124 39.8989 82.1922 39.8268 82.2604C37.5726 84.3838 35.7316 86.9079 34.3974 89.7045C33.8675 90.8178 33.423 91.9698 33.0676 93.1507C32.5769 94.7815 32.1743 96.5888 31.203 97.9228C31.1032 98.0631 30.9949 98.1971 30.8785 98.324H22.1005C22.0805 98.3139 22.0605 98.3059 22.0404 98.2959L21.6899 98.3119C21.704 98.2498 21.72 98.1856 21.734 98.1234C21.7421 98.0873 21.752 98.0512 21.7601 98.0151C21.766 97.991 21.7721 97.9669 21.7761 97.9448C21.7781 97.9368 21.7801 97.9288 21.7821 97.9228C21.7861 97.9007 21.7921 97.8807 21.7961 97.8606C21.8843 97.5015 21.975 97.1425 22.0685 96.7834C22.0685 96.7814 22.0685 96.7814 22.0704 96.7794C22.7895 94.0453 23.7428 91.3473 25.0746 88.88C25.1147 88.8058 25.1547 88.7296 25.1988 88.6554C25.8052 87.5466 26.5012 86.4892 27.2796 85.494C27.7077 84.9504 28.1629 84.4289 28.6435 83.9314C29.888 82.6483 31.3261 81.5693 32.9053 80.7339C36.0537 79.069 39.6986 78.4311 43.0633 79.4481C43.1494 79.4742 43.2336 79.5003 43.3196 79.5284Z" fill="#F0F0F0"/>
<path d="M43.2996 79.64C38.9285 80.5095 34.942 82.7364 31.9065 86.0044C31.2405 86.6963 30.6876 87.4891 30.2681 88.3534C29.8866 89.2086 29.7408 90.1506 29.8456 91.0813C29.926 91.9512 30.1089 92.8316 29.9767 93.7058C29.9025 94.1523 29.7348 94.5781 29.4848 94.9551C29.2347 95.3322 28.9079 95.6521 28.5258 95.8937C27.5893 96.5207 26.4837 96.7733 25.3939 96.9827C24.184 97.2151 22.9235 97.4374 21.9137 98.1943C21.7913 98.2861 21.6564 98.0905 21.7785 97.999C23.5355 96.6819 25.8899 96.9583 27.8119 96.0286C28.7088 95.5947 29.4805 94.8875 29.7027 93.8823C29.897 93.0034 29.7093 92.0953 29.6203 91.2153C29.5046 90.3088 29.6124 89.3877 29.9341 88.5326C30.3083 87.6496 30.8298 86.8369 31.4763 86.1292C32.9063 84.5126 34.5811 83.1313 36.4395 82.0359C38.5536 80.7739 40.8676 79.8834 43.2814 79.403C43.4308 79.3733 43.4481 79.6105 43.2996 79.64Z" fill="white"/>
<path d="M32.8223 84.8946C32.344 84.31 32.0887 83.5743 32.1021 82.8186C32.1154 82.063 32.3965 81.3367 32.8952 80.7695C32.9964 80.655 33.1787 80.8073 33.0773 80.9219C32.612 81.4492 32.3502 82.1258 32.3392 82.8295C32.3282 83.5331 32.5687 84.2176 33.0173 84.7592C33.1147 84.8771 32.919 85.0117 32.8223 84.8946Z" fill="white"/>
<path d="M29.747 90.6457C31.2806 90.8119 32.8203 90.3931 34.0592 89.4728C34.1819 89.3815 34.3169 89.577 34.1943 89.6682C32.9033 90.6235 31.3001 91.056 29.7046 90.8795C29.5526 90.8626 29.5958 90.6288 29.747 90.6457Z" fill="white"/>
<path d="M38.5941 81.0865C38.7321 81.3513 38.9336 81.5776 39.1805 81.7451C39.4275 81.9126 39.712 82.0161 40.0087 82.0462C40.1609 82.0612 40.1176 82.2949 39.9664 82.2801C39.6387 82.2452 39.3245 82.1306 39.0513 81.9461C38.7781 81.7616 38.5542 81.513 38.399 81.2218C38.3821 81.1956 38.3758 81.1639 38.3814 81.1332C38.3869 81.1025 38.404 81.075 38.429 81.0564C38.4549 81.0386 38.4868 81.0318 38.5177 81.0374C38.5486 81.0431 38.5761 81.0607 38.5941 81.0865Z" fill="white"/>
<path d="M89.5117 117.804C89.7692 115.73 91.0525 113.686 93.0273 113.011C92.2485 115.146 92.2487 117.488 93.0278 119.622C93.3312 120.445 93.7542 121.327 93.4688 122.156C93.2644 122.668 92.8714 123.082 92.3711 123.313C91.8747 123.538 91.3515 123.699 90.8142 123.792L90.7094 123.879C89.8645 121.968 89.2542 119.878 89.5117 117.804Z" fill="#F0F0F0"/>
<path d="M93.0471 113.05C91.8971 114.341 91.1823 115.962 91.0043 117.683C90.9594 118.052 90.973 118.427 91.0446 118.792C91.1258 119.146 91.3001 119.472 91.5494 119.735C91.7975 119.968 92.0164 120.231 92.2013 120.517C92.2824 120.672 92.3297 120.843 92.3401 121.018C92.3506 121.193 92.324 121.369 92.2621 121.533C92.0975 121.933 91.8542 122.297 91.5466 122.602C91.2264 122.956 90.8881 123.32 90.752 123.79C90.7355 123.847 90.6482 123.818 90.6647 123.761C90.9015 122.943 91.6944 122.478 92.0726 121.741C92.17 121.576 92.2284 121.39 92.2431 121.198C92.2579 121.006 92.2286 120.814 92.1577 120.635C91.9862 120.334 91.7678 120.062 91.5108 119.829C91.2639 119.576 91.0827 119.266 90.983 118.926C90.8931 118.565 90.8651 118.192 90.9003 117.822C90.9662 116.987 91.1627 116.168 91.4825 115.395C91.8427 114.511 92.3513 113.694 92.9863 112.981C93.0256 112.937 93.0862 113.007 93.0471 113.05Z" fill="white"/>
<path d="M91.0289 117.125C90.7447 117.056 90.4943 116.888 90.3224 116.651C90.1505 116.414 90.0683 116.124 90.0905 115.832C90.0951 115.773 90.187 115.777 90.1823 115.836C90.1612 116.108 90.2378 116.379 90.3983 116.599C90.5589 116.819 90.7927 116.975 91.0577 117.038C91.1153 117.051 91.0862 117.139 91.0289 117.125Z" fill="white"/>
<path d="M91.4172 119.624C91.9305 119.317 92.3094 118.827 92.4783 118.253C92.495 118.196 92.5824 118.225 92.5657 118.282C92.3887 118.879 91.9934 119.388 91.4586 119.706C91.4076 119.736 91.3665 119.654 91.4172 119.624Z" fill="white"/>
<path d="M91.9282 114.598C92.0326 114.648 92.1477 114.67 92.2631 114.665C92.3785 114.659 92.4907 114.624 92.5895 114.564C92.6401 114.533 92.6811 114.616 92.6309 114.646C92.5214 114.712 92.3975 114.75 92.2699 114.757C92.1424 114.764 92.0152 114.739 91.8993 114.685C91.888 114.681 91.8787 114.673 91.8732 114.662C91.8678 114.651 91.8667 114.639 91.8701 114.627C91.874 114.616 91.8823 114.606 91.8931 114.601C91.904 114.595 91.9166 114.594 91.9282 114.598Z" fill="white"/>
<path d="M99.0472 116.716C99.0162 116.736 98.9851 116.756 98.9541 116.777C98.5382 117.051 98.1452 117.358 97.779 117.696C97.7502 117.722 97.7215 117.748 97.6936 117.774C96.82 118.597 96.1065 119.576 95.5894 120.659C95.384 121.091 95.2117 121.537 95.074 121.995C94.8838 122.627 94.7278 123.327 94.3514 123.844C94.3127 123.899 94.2707 123.951 94.2256 124H90.8237C90.8159 123.996 90.8082 123.993 90.8004 123.989L90.6646 123.995C90.67 123.971 90.6762 123.946 90.6816 123.922C90.6847 123.908 90.6886 123.894 90.6917 123.88C90.694 123.871 90.6964 123.862 90.6979 123.853C90.6987 123.85 90.6995 123.847 90.7002 123.844C90.7018 123.836 90.7042 123.828 90.7057 123.82C90.7399 123.681 90.775 123.542 90.8112 123.403L90.812 123.401C91.0779 122.338 91.4687 121.311 91.9763 120.34C91.9918 120.311 92.0073 120.282 92.0244 120.253C92.2594 119.823 92.5291 119.413 92.8308 119.028C92.9967 118.817 93.1731 118.615 93.3594 118.422C93.8417 117.925 94.3991 117.507 95.0111 117.183C96.2312 116.538 97.6439 116.29 98.9478 116.685C98.9812 116.695 99.0138 116.705 99.0472 116.716Z" fill="#F0F0F0"/>
<path d="M99.0394 116.759C97.3453 117.096 95.8004 117.959 94.6239 119.226C94.3658 119.494 94.1515 119.801 93.989 120.136C93.8411 120.467 93.7846 120.832 93.8252 121.193C93.8832 121.529 93.9003 121.87 93.876 122.21C93.8473 122.383 93.7823 122.548 93.6854 122.694C93.5885 122.841 93.4618 122.965 93.3137 123.058C92.9414 123.279 92.5287 123.422 92.1 123.48C91.631 123.57 91.1425 123.656 90.7512 123.95C90.7038 123.985 90.6515 123.91 90.6988 123.874C91.3797 123.364 92.2922 123.471 93.0371 123.11C93.2145 123.037 93.3727 122.924 93.4997 122.78C93.6267 122.635 93.7191 122.464 93.7699 122.279C93.8141 121.935 93.8033 121.586 93.7379 121.245C93.6931 120.894 93.7348 120.537 93.8595 120.205C94.0046 119.863 94.2067 119.548 94.4572 119.274C95.0114 118.647 95.6605 118.112 96.3807 117.688C97.2 117.198 98.0968 116.853 99.0323 116.667C99.0902 116.656 99.0969 116.748 99.0394 116.759Z" fill="white"/>
<path d="M94.9785 118.795C94.7932 118.569 94.6942 118.284 94.6994 117.991C94.7046 117.698 94.8135 117.416 95.0068 117.197C95.046 117.152 95.1167 117.211 95.0774 117.256C94.897 117.46 94.7956 117.722 94.7913 117.995C94.7871 118.268 94.8803 118.533 95.0541 118.743C95.0919 118.789 95.016 118.841 94.9785 118.795Z" fill="white"/>
<path d="M93.787 121.024C94.3814 121.089 94.9781 120.926 95.4582 120.57C95.5058 120.534 95.5581 120.61 95.5106 120.645C95.0103 121.016 94.3889 121.183 93.7706 121.115C93.7117 121.108 93.7284 121.018 93.787 121.024Z" fill="white"/>
<path d="M97.2155 117.32C97.269 117.422 97.3471 117.51 97.4428 117.575C97.5385 117.64 97.6488 117.68 97.7638 117.692C97.8228 117.697 97.806 117.788 97.7474 117.782C97.6204 117.769 97.4986 117.724 97.3927 117.653C97.2868 117.581 97.2001 117.485 97.1399 117.372C97.1334 117.362 97.1309 117.35 97.1331 117.338C97.1352 117.326 97.1419 117.315 97.1516 117.308C97.1616 117.301 97.1739 117.298 97.1859 117.301C97.1979 117.303 97.2086 117.31 97.2155 117.32Z" fill="white"/>
<path d="M147.961 73.7494C146.939 65.5239 141.85 57.4195 134.018 54.7427C137.107 63.209 137.106 72.4967 134.016 80.9625C132.812 84.2231 131.135 87.7241 132.267 91.0103C132.971 93.0551 134.694 94.6195 136.62 95.5977C138.547 96.5759 140.684 97.0421 142.795 97.499L143.211 97.8432C146.562 90.2643 148.982 81.9748 147.961 73.7494Z" fill="#F0F0F0"/>
<path d="M133.94 54.8982C138.501 60.0169 141.336 66.4448 142.042 73.2691C142.184 74.732 142.202 76.2284 141.882 77.6704C141.56 79.0736 140.869 80.3647 139.88 81.4098C138.978 82.4028 137.94 83.3138 137.295 84.5092C136.614 85.7692 136.588 87.2008 137.054 88.5392C137.624 90.1767 138.747 91.5114 139.891 92.7784C141.161 94.1852 142.503 95.6262 143.043 97.4912C143.108 97.7172 143.455 97.6023 143.389 97.3767C142.45 94.1319 139.305 92.2888 137.805 89.3663C137.105 88.0026 136.812 86.4194 137.468 84.9798C138.042 83.721 139.111 82.7806 140.033 81.7831C141.002 80.7357 141.744 79.5866 142.127 78.1998C142.518 76.7813 142.559 75.2811 142.455 73.8209C142.193 70.5116 141.414 67.264 140.146 64.1971C138.717 60.6889 136.7 57.4512 134.181 54.6242C134.026 54.4493 133.785 54.7244 133.94 54.8982Z" fill="white"/>
<path d="M141.943 71.0582C143.071 70.7842 144.064 70.1178 144.745 69.178C145.427 68.2383 145.753 67.0864 145.665 65.9281C145.647 65.6938 145.282 65.7117 145.301 65.9463C145.385 67.0248 145.081 68.0977 144.444 68.9715C143.808 69.8453 142.88 70.4624 141.829 70.7113C141.601 70.7657 141.716 71.1123 141.943 71.0582Z" fill="white"/>
<path d="M140.404 80.9667C138.368 79.7493 136.866 77.8082 136.196 75.5304C136.129 75.3047 135.783 75.4195 135.849 75.6449C136.551 78.0139 138.119 80.0308 140.24 81.293C140.442 81.4131 140.605 81.0862 140.404 80.9667Z" fill="white"/>
<path d="M138.379 61.0348C137.965 61.2319 137.508 61.3228 137.05 61.2996C136.593 61.2763 136.148 61.1395 135.756 60.9015C135.555 60.7788 135.392 61.1059 135.592 61.2277C136.026 61.4887 136.518 61.6392 137.023 61.666C137.529 61.6929 138.034 61.5953 138.493 61.3817C138.538 61.3652 138.575 61.3322 138.597 61.2893C138.618 61.2465 138.623 61.197 138.609 61.151C138.594 61.1051 138.561 61.0672 138.518 61.0455C138.475 61.0237 138.425 61.0199 138.379 61.0348Z" fill="white"/>
<path d="M110.144 69.4343C110.267 69.5144 110.39 69.5946 110.514 69.6779C112.163 70.7642 113.722 71.983 115.174 73.3222C115.288 73.424 115.402 73.5288 115.513 73.6336C118.977 76.8974 121.807 80.777 123.858 85.0754C124.672 86.7866 125.356 88.5574 125.902 90.3724C126.656 92.8791 127.275 95.657 128.768 97.7074C128.921 97.923 129.088 98.129 129.267 98.324H142.759C142.79 98.3086 142.82 98.2963 142.851 98.2808L143.39 98.3055C143.368 98.2099 143.344 98.1113 143.322 98.0157C143.31 97.9602 143.294 97.9047 143.282 97.8492C143.273 97.8122 143.264 97.7752 143.257 97.7413C143.254 97.729 143.251 97.7166 143.248 97.7074C143.242 97.6735 143.233 97.6426 143.227 97.6118C143.091 97.0599 142.952 96.508 142.808 95.9561C142.808 95.953 142.808 95.953 142.805 95.9499C141.7 91.7475 140.235 87.6006 138.188 83.8082C138.126 83.6942 138.064 83.577 137.997 83.4629C137.064 81.7586 135.995 80.1335 134.798 78.6038C134.14 77.7682 133.441 76.9666 132.702 76.2019C130.789 74.2298 128.579 72.5714 126.151 71.2873C121.312 68.7282 115.71 67.7478 110.538 69.311C110.406 69.351 110.276 69.3911 110.144 69.4343Z" fill="#F0F0F0"/>
<path d="M110.174 69.6058C116.893 70.9423 123.02 74.3652 127.686 79.3883C128.679 80.4705 129.593 81.6549 130.204 82.9988C130.791 84.3133 131.015 85.7611 130.854 87.1917C130.73 88.5287 130.449 89.8819 130.652 91.2257C130.866 92.6421 131.706 93.8009 132.883 94.5886C134.322 95.5523 136.021 95.9405 137.696 96.2623C139.556 96.6196 141.493 96.9612 143.046 98.1247C143.234 98.2657 143.441 97.9652 143.253 97.8244C140.553 95.8001 136.934 96.2249 133.98 94.7958C132.601 94.129 131.415 93.042 131.073 91.497C130.775 90.146 131.063 88.7502 131.2 87.3976C131.344 85.9773 131.246 84.612 130.718 83.2741C130.178 81.9055 129.309 80.6829 128.347 79.58C126.15 77.0953 123.575 74.9722 120.719 73.2884C117.469 71.3487 113.913 69.98 110.202 69.2415C109.973 69.1959 109.946 69.5605 110.174 69.6058Z" fill="white"/>
<path d="M126.279 77.6823C127.014 76.7838 127.407 75.6529 127.386 74.4914C127.365 73.33 126.933 72.2136 126.167 71.3418C126.011 71.1659 125.731 71.3999 125.887 71.5761C126.602 72.3866 127.005 73.4265 127.021 74.5081C127.038 75.5897 126.669 76.6417 125.979 77.4743C125.83 77.6554 126.13 77.8624 126.279 77.6823Z" fill="white"/>
<path d="M131.006 86.522C128.649 86.7776 126.282 86.1339 124.378 84.7193C124.189 84.579 123.982 84.8795 124.17 85.0196C126.154 86.4879 128.619 87.1528 131.071 86.8815C131.305 86.8555 131.238 86.4962 131.006 86.522Z" fill="white"/>
<path d="M117.408 71.829C117.195 72.236 116.886 72.5839 116.506 72.8414C116.127 73.0989 115.689 73.2579 115.233 73.3042C114.999 73.3273 115.066 73.6865 115.298 73.6637C115.802 73.6101 116.285 73.4339 116.705 73.1504C117.125 72.8668 117.469 72.4846 117.707 72.037C117.733 71.9967 117.743 71.948 117.735 71.9008C117.726 71.8536 117.7 71.8114 117.661 71.7829C117.621 71.7555 117.572 71.745 117.525 71.7537C117.477 71.7623 117.435 71.7894 117.408 71.829Z" fill="white"/>
<path d="M163.69 98.5246H0.200275C0.147159 98.5246 0.0962178 98.5035 0.058659 98.4659C0.0211002 98.4282 0 98.3772 0 98.324C0 98.2708 0.0211002 98.2198 0.058659 98.1822C0.0962178 98.1445 0.147159 98.1234 0.200275 98.1234H163.625C163.678 98.1234 163.729 98.1445 163.766 98.1822C163.804 98.2198 163.825 98.2708 163.825 98.324C163.825 98.4348 163.801 98.5246 163.69 98.5246Z" fill="#CACACA"/>
<path d="M57.344 116.177H21.2291C21.176 116.177 21.125 116.156 21.0875 116.118C21.0499 116.08 21.0288 116.029 21.0288 115.976C21.0288 115.923 21.0499 115.872 21.0875 115.834C21.125 115.797 21.176 115.776 21.2291 115.776H57.2786C57.3317 115.776 57.3826 115.797 57.4202 115.834C57.4577 115.872 57.4788 115.923 57.4788 115.976C57.4788 116.087 57.4546 116.177 57.344 116.177Z" fill="#CACACA"/>
<path d="M114.022 124H77.9068C77.8537 124 77.8028 123.979 77.7652 123.941C77.7276 123.904 77.7065 123.853 77.7065 123.799C77.7065 123.746 77.7276 123.695 77.7652 123.658C77.8028 123.62 77.8537 123.599 77.9068 123.599H113.956C114.009 123.599 114.06 123.62 114.098 123.658C114.135 123.695 114.157 123.746 114.157 123.799C114.157 123.91 114.132 124 114.022 124Z" fill="#CACACA"/>
<path d="M148.069 115.976H111.954C111.901 115.976 111.85 115.955 111.812 115.918C111.775 115.88 111.753 115.829 111.753 115.776C111.753 115.722 111.775 115.671 111.812 115.634C111.85 115.596 111.901 115.575 111.954 115.575H148.003C148.056 115.575 148.107 115.596 148.145 115.634C148.182 115.671 148.203 115.722 148.203 115.776C148.203 115.886 148.179 115.976 148.069 115.976Z" fill="#CACACA"/>
<path d="M66.7435 108.354C64.5 108.354 62.4462 108.138 60.8143 107.629C58.8746 107.025 57.6567 106.046 57.194 104.72C56.9766 104.156 56.9117 103.546 57.0058 102.949C57.1 102.353 57.3499 101.792 57.7302 101.323C60.5996 97.5782 70.5571 96.522 71.8931 96.3972L74.6037 91.2565C74.7771 90.0299 73.9565 89.1014 75.3742 89.0782L92.1442 88.8501C93.5365 88.8208 93.1413 89.6843 93.3797 90.8802L95.9347 95.4486L84.9384 100.097L86.6009 104.155L86.4924 104.218C83.2741 106.088 74.0188 108.353 66.7435 108.354Z" fill="#2F2E41"/>
<path d="M94.412 95.6436C94.412 95.6436 109.769 93.8833 108.768 100.924C107.766 107.965 96.0813 112.953 78.3872 100.924L80.3903 97.4038C80.3903 97.4038 86.9839 97.0753 90.9901 95.3151L94.412 95.6436Z" fill="#2F2E41"/>
<path d="M72.6704 63.7452C72.6704 63.7452 69.7516 63.2137 68.9555 67.7318C68.1595 72.2498 66.8843 82.9521 66.8843 82.9521L62.9251 96.6995C62.4581 96.9478 62.0713 97.324 61.8099 97.7843C61.5484 98.2445 61.4231 98.7698 61.4485 99.2987C61.474 99.8276 61.6492 100.338 61.9536 100.771C62.2581 101.204 62.6792 101.541 63.1679 101.744C63.6565 101.946 64.1925 102.004 64.7132 101.913C65.234 101.821 65.7179 101.583 66.1086 101.226C66.4993 100.87 66.7806 100.409 66.9196 99.898C67.0586 99.3871 67.0496 98.8471 66.8936 98.3412L72.1913 83.7504L73.2011 71.1878V64.6053C73.2011 64.4267 73.1514 64.2517 73.0577 64.0998C72.964 63.9479 72.8299 63.8251 72.6704 63.7452Z" fill="#FEB8B8"/>
<path d="M93.2153 63.7452C93.2153 63.7452 96.1341 63.2137 96.9301 67.7318C97.7262 72.2498 99.0013 82.9521 99.0013 82.9521L102.961 96.6995C103.428 96.9478 103.814 97.324 104.076 97.7843C104.337 98.2445 104.463 98.7698 104.437 99.2987C104.412 99.8276 104.236 100.338 103.932 100.771C103.628 101.204 103.206 101.541 102.718 101.744C102.229 101.946 101.693 102.004 101.172 101.913C100.652 101.821 100.168 101.583 99.777 101.226C99.3863 100.87 99.1051 100.409 98.9661 99.898C98.8271 99.3871 98.8361 98.8471 98.992 98.3412L93.6944 83.7504L92.6846 71.1878V64.6053C92.6846 64.4267 92.7342 64.2517 92.8279 64.0998C92.9217 63.9479 93.0558 63.8251 93.2153 63.7452Z" fill="#FEB8B8"/>
<path d="M92.9931 60.0106L87.4721 57.9424L76.7709 57.8041L72.1646 60.0106L73.4583 67.4579C73.4583 67.4579 70.8462 71.8879 73.7222 76.3185L74.3676 92.1056C74.3676 92.1056 84.685 98.098 93.3937 90.902L91.4254 76.2238C91.4254 76.2238 94.7176 69.4137 92.1658 66.8836L92.9931 60.0106Z" fill="#C7C7C7"/>
<path d="M90.7441 62.3249L92.9928 60.0106C92.9928 60.0106 97.9005 62.5962 97.7994 71.2439L91.6086 69.3329L90.7441 62.3249Z" fill="#C7C7C7"/>
<path d="M74.6627 62.3249L72.2735 59.932C72.2735 59.932 68.0579 63.198 68.159 71.8457L73.7982 69.333L74.6627 62.3249Z" fill="#C7C7C7"/>
<path d="M90.2364 102.385C90.2364 102.385 88.5167 98.7604 85.6447 100.498C82.7728 102.235 77.4885 105.121 77.4885 105.121C77.4885 105.121 76.2526 107.19 78.9514 106.646C81.6502 106.101 90.32 105.677 90.32 105.677L90.2364 102.385Z" fill="#FEB8B8"/>
<path d="M85.4588 37.6011C85.4831 37.5777 85.5085 37.5567 85.5325 37.5327C87.0692 35.9935 87.3807 33.8099 86.228 32.6555C85.1389 31.5645 83.1327 31.7847 81.6183 33.1111C80.3199 31.873 78.5789 31.5278 77.452 32.3825C76.1525 33.3681 76.1626 35.5739 77.4747 37.3093C77.5645 37.4281 77.6588 37.5405 77.7556 37.6486C76.0096 38.2887 74.5021 39.4506 73.437 40.977C72.3719 42.5035 71.8008 44.3208 71.8008 46.1831V54.8327C71.8008 55.0863 71.8507 55.3375 71.9476 55.5718C72.0445 55.8062 72.1865 56.0191 72.3656 56.1984C72.5447 56.3778 72.7572 56.52 72.9912 56.6171C73.2252 56.7141 73.4759 56.7641 73.7291 56.7641H89.6901C90.1844 56.7641 90.6584 56.5674 91.0079 56.2174C91.3575 55.8673 91.5538 55.3926 91.5538 54.8975V46.1831C91.5535 44.2958 90.9665 42.4554 89.8743 40.9174C88.782 39.3795 87.2388 38.2204 85.4588 37.6011Z" fill="#2F2E41"/>
<path d="M87.2851 53.6792C90.2429 50.7167 90.2429 45.9135 87.2851 42.9509C84.3273 39.9884 79.5317 39.9884 76.5739 42.9509C73.616 45.9135 73.616 50.7167 76.5739 53.6792C79.5317 56.6417 84.3273 56.6417 87.2851 53.6792Z" fill="#FFB6B6"/>
<path d="M73.9712 43.5435C75.702 44.7383 77.7562 45.3742 79.8582 45.3657C79.1084 45.8865 78.2548 46.2382 77.3562 46.3967C80.151 46.9972 83.0394 47.0134 85.8408 46.4445C86.4635 46.3445 87.0643 46.1378 87.617 45.8335C87.8923 45.6794 88.1323 45.4691 88.3212 45.216C88.51 44.963 88.6436 44.673 88.7133 44.3649C88.8994 43.2998 88.0708 42.3321 87.2097 41.6799C85.8912 40.6966 84.371 40.0192 82.7591 39.6966C81.1471 39.3739 79.4837 39.4142 77.8892 39.8145C76.8481 40.084 75.8051 40.5395 75.1288 41.3769C74.4526 42.2144 74.2523 43.5055 74.8966 44.3678L73.9712 43.5435Z" fill="#2F2E41"/>
<path d="M33.4597 28.4053L33.6984 28.083L40.0569 32.807C39.7113 31.7522 38.4882 28.4082 36.4832 27.074C34.0879 25.48 32.4026 25.9759 31.4845 27.36C30.5663 28.7441 30.7629 30.4923 33.1583 32.0863C35.1887 33.4375 38.8058 33.2497 39.8611 33.1611L33.4597 28.4053Z" fill="#F2F2F2"/>
<path d="M129.13 2.54194L129.426 2.81323L124.073 8.65601C125.157 8.42149 128.605 7.55089 130.138 5.69235C131.97 3.47201 131.653 1.74166 130.374 0.683072C129.095 -0.375512 127.339 -0.361493 125.507 1.85885C123.954 3.74094 123.764 7.36367 123.742 8.42411L129.13 2.54194Z" fill="#F2F2F2"/>
<path d="M42.8121 64.9266L43.1073 65.1979L37.7551 71.0407C38.8384 70.8061 42.2862 69.9355 43.8196 68.077C45.6515 65.8567 45.3345 64.1263 44.0555 63.0677C42.7766 62.0091 41.0202 62.0232 39.1882 64.2435C37.6353 66.1256 37.4456 69.7483 37.4238 70.8088L42.8121 64.9266Z" fill="#F2F2F2"/>
<path d="M88.0699 9.23734L88.4167 9.43832L84.4517 16.3016C85.4589 15.8381 88.6373 14.2418 89.7334 12.0952C91.0429 9.53078 90.36 7.90996 88.8828 7.15324C87.4057 6.39652 85.6939 6.79041 84.3843 9.35486C83.2742 11.5286 83.8707 15.1068 84.0782 16.1469L88.0699 9.23734Z" fill="#F2F2F2"/>
<path d="M125.121 52.1643L125.467 52.3653L121.502 59.2286C122.51 58.7651 125.688 57.1688 126.784 55.0222C128.094 52.4578 127.411 50.837 125.934 50.0802C124.456 49.3235 122.745 49.7174 121.435 52.2819C120.325 54.4556 120.921 58.0338 121.129 59.0739L125.121 52.1643Z" fill="#F2F2F2"/>
</g>
<defs>
<clipPath id="clip0_1304_24778">
<rect width="163.825" height="124" fill="white"/>
</clipPath>
</defs>
</svg>
