<svg width="160" height="123" viewBox="0 0 160 123" fill="none" xmlns="http://www.w3.org/2000/svg">
<path opacity="0.1" d="M92.3549 27.6519C84.1469 27.3158 76.3296 24.1932 68.8648 20.7761C61.4001 17.359 54.0013 13.5729 45.9937 11.762C40.8409 10.5982 34.9487 10.4339 30.7928 13.6892C26.7979 16.8232 25.5068 22.2319 24.8131 27.2513C24.2906 31.0273 23.9837 35.0017 25.4142 38.5363C26.4072 40.9904 28.1713 43.054 29.3914 45.4045C33.6361 53.5845 30.6355 63.6702 26.0369 71.6581C23.8809 75.4037 21.3762 78.9788 19.711 82.967C18.0458 86.9553 17.276 91.5248 18.7332 95.5927C20.1765 99.6252 23.6172 102.654 27.3445 104.785C34.9145 109.112 43.8314 110.345 52.5326 111.052C71.7868 112.604 91.145 111.936 110.451 111.259C117.595 111.006 124.772 110.753 131.8 109.454C135.704 108.732 139.733 107.584 142.566 104.813C146.164 101.296 147.056 95.3349 144.645 90.9296C140.602 83.5319 129.426 81.6945 126.597 73.7546C125.042 69.3847 126.639 64.5169 128.9 60.4641C133.748 51.7698 141.878 44.1421 142.305 34.2043C142.599 27.3802 138.692 20.5436 132.65 17.3148C126.318 13.9293 117.535 14.3552 112.866 19.9585C108.057 25.7286 99.6028 27.9489 92.3549 27.6519Z" fill="#F9A826"/>
<path d="M68.0122 44.0511L61.2551 45.1063L57.7928 45.4348L56.8696 45.5233C56.8696 45.5233 55.2209 45.7836 55.0598 45.5233C54.8988 45.263 51.7219 45.5233 51.7219 45.5233C51.7219 45.5233 49.7916 43.2309 45.2057 44.4415C44.7427 44.7148 44.221 44.8742 43.6839 44.9066C43.6832 44.8973 43.6832 44.888 43.6839 44.8788C43.7003 44.3518 43.6344 42.5346 42.025 41.5401C41.5673 41.5872 41.1231 41.7229 40.7175 41.9394L40.6807 41.9596L40.5716 42.0228L40.5577 42.038C40.6051 41.83 40.6373 41.6188 40.6541 41.4061C40.6541 41.3265 40.6541 41.2469 40.6629 41.1673C40.8475 41.1163 41.0091 41.0039 41.1208 40.8488C41.1667 40.7569 41.1864 40.6542 41.1778 40.5518C41.1778 40.5152 41.1778 40.4773 41.1778 40.4406C41.1772 40.4326 41.1772 40.4246 41.1778 40.4166C41.1778 40.4166 41.1778 40.4166 41.1778 40.4242C41.1513 40.0499 41.0961 39.6781 41.013 39.3121L41.5101 39.6407C41.6293 39.7191 41.779 39.8025 41.921 39.7582C41.9667 39.742 42.0078 39.7154 42.0413 39.6805C42.0748 39.6457 42.0996 39.6035 42.1138 39.5573C42.2026 39.3172 42.1379 39.0303 42.3256 38.8319C42.37 38.7852 42.4258 38.7473 42.4638 38.698C42.5156 38.6305 42.5404 38.5463 42.5336 38.4617C42.534 38.4126 42.5302 38.3635 42.5222 38.3151V38.3252C42.4893 38.2015 42.4841 38.072 42.5069 37.9461C42.5732 37.9718 42.6461 37.9755 42.7147 37.9566C42.7832 37.9377 42.8438 37.8972 42.8874 37.8412C42.9556 37.7347 42.9893 37.6098 42.9838 37.4836C42.9952 37.27 43.0041 37.0514 42.999 36.834C42.9996 36.8298 42.9996 36.8256 42.999 36.8214C42.9863 36.307 42.8887 35.8003 42.5336 35.3896C42.6262 34.8007 41.9832 34.1587 41.2654 34.0779C41.0891 34.0589 40.8722 34.0488 40.7936 33.9161C40.767 33.853 40.7553 33.7847 40.7593 33.7164C40.7416 33.4928 40.5869 33.2944 40.4385 33.1061C40.3781 33.0238 40.3054 32.9514 40.2229 32.8912C39.987 32.7396 39.6522 32.78 39.3605 32.8318C38.8261 32.9254 38.2952 33.0298 37.7676 33.1452C37.7042 32.8908 37.7082 32.6243 37.779 32.3719C37.828 32.2455 37.858 32.1127 37.8678 31.9776C37.8702 31.935 37.8655 31.8923 37.8538 31.8512V31.8676C37.8465 31.8466 37.838 31.8259 37.8285 31.8057C37.8032 31.7595 37.7668 31.7203 37.7225 31.6916C37.6782 31.6629 37.6275 31.6457 37.5748 31.6414C37.506 31.6392 37.438 31.6568 37.379 31.6923C37.3201 31.7277 37.2726 31.7794 37.2425 31.8411C36.9408 32.279 36.7315 32.7734 36.6275 33.2944C36.4262 33.1545 36.1931 33.0669 35.9493 33.0395C35.7054 33.0121 35.4586 33.0459 35.2311 33.1377C35.1166 33.1992 34.9928 33.2418 34.8646 33.264C34.7579 33.2643 34.653 33.2368 34.5603 33.1843C34.4675 33.1318 34.3901 33.056 34.3358 32.9645C34.1899 32.7484 34.1253 32.4906 33.8437 32.3478C33.7809 32.3158 33.7114 32.2991 33.6408 32.2991C33.5702 32.2991 33.5007 32.3158 33.4379 32.3478C33.405 32.365 33.3759 32.3887 33.3523 32.4173C33.3288 32.446 33.3113 32.4791 33.3009 32.5147C33.3015 32.5083 33.3015 32.502 33.3009 32.4957C33.299 32.5142 33.299 32.5328 33.3009 32.5513C33.3009 32.5589 33.3009 32.5665 33.3009 32.574C33.3009 32.5816 33.3009 32.593 33.3009 32.6018C33.2908 32.8457 33.462 33.1617 33.2679 33.3538C33.19 33.4186 33.0993 33.4664 33.0016 33.494L32.3117 33.7405C31.9433 33.8929 31.5537 33.9883 31.1563 34.0235C30.7949 34.0362 30.4297 33.9565 30.0733 33.9654C30.0565 33.9569 30.0404 33.9472 30.0251 33.9363C29.9455 33.9405 29.8663 33.9498 29.7879 33.9641C29.7957 33.974 29.8042 33.9833 29.8133 33.9919H29.7879C29.9696 34.1931 30.2092 34.3335 30.474 34.3938C30.6376 34.4342 30.8101 34.4469 30.9686 34.4974C31.1272 34.548 31.2781 34.6491 31.306 34.7881C31.3089 34.9045 31.2809 35.0195 31.2248 35.1217L31.2185 35.1116C31.2019 35.1565 31.1937 35.204 31.1944 35.2518C31.1913 35.2745 31.1913 35.2974 31.1944 35.3201C31.2222 35.3996 31.278 35.4664 31.3515 35.508C31.4249 35.5496 31.5111 35.5632 31.5939 35.5463L30.7784 36.0581C30.7176 36.0944 30.6607 36.1368 30.6085 36.1845L30.5856 36.1781C30.5624 36.2008 30.5442 36.228 30.532 36.258C30.5197 36.288 30.5138 36.3202 30.5146 36.3525C30.512 36.3773 30.515 36.4024 30.5235 36.4258L30.786 36.5004L30.0695 37.4886C30.0258 37.546 29.9876 37.6074 29.9553 37.6719L29.9477 37.6592C29.9314 37.6994 29.9228 37.7423 29.9224 37.7856C29.9198 37.807 29.9198 37.8286 29.9224 37.85C29.9285 37.8856 29.9422 37.9194 29.9625 37.9492C29.9828 37.979 30.0093 38.0042 30.0401 38.023C30.071 38.0418 30.1055 38.0538 30.1414 38.0581C30.1773 38.0625 30.2138 38.0592 30.2483 38.0484C30.0913 38.2054 29.9648 38.3901 29.8754 38.5931L29.864 38.5855L29.8526 38.6121C29.8347 38.6518 29.8256 38.6949 29.826 38.7384C29.8207 38.7717 29.8274 38.8057 29.845 38.8345C29.8772 38.8682 29.917 38.8937 29.9612 38.9088C30.0053 38.924 30.0524 38.9284 30.0986 38.9217C30.4791 38.9217 30.8329 38.6626 30.8926 38.353C31.0092 38.4794 30.8837 38.6297 30.7733 38.7599C30.3244 39.2831 29.8678 39.8151 29.6319 40.4255C29.549 40.6348 29.4986 40.8556 29.4823 41.0801C29.4823 41.0801 29.4823 41.07 29.4823 41.0649C29.4823 41.0813 29.4823 41.0978 29.4823 41.1142C29.4505 41.5333 29.5833 41.9483 29.8526 42.2718C29.9523 42.3725 30.0416 42.483 30.1189 42.6016C30.261 42.8644 30.1798 43.2018 30.4005 43.4243C30.5786 42.9514 30.794 42.4933 31.0447 42.0544C31.0408 42.1732 31.0229 42.2911 30.9915 42.4057V42.3956C30.9915 42.4259 30.9813 42.455 30.9788 42.4841C30.9775 42.5055 30.9775 42.527 30.9788 42.5485C30.9729 42.6247 30.9915 42.7008 31.0318 42.7657C31.0722 42.8307 31.1322 42.8812 31.2033 42.9099C31.4277 42.9895 31.6598 42.8278 31.812 42.666C31.8336 42.7216 31.8551 42.776 31.8792 42.8303C32.3513 43.8767 33.2043 44.7055 34.266 45.1492L34.2863 45.1909C33.4303 45.6964 31.4404 46.926 31.3111 47.3974C31.1449 47.9989 31.2045 49.5811 32.3967 49.902C32.6547 49.9721 32.9223 50.0003 33.1893 49.9854C33.1386 50.0651 33.0891 50.1459 33.0409 50.2243C32.7112 50.7576 32.4347 51.2517 32.351 51.5171C32.11 52.2917 29.8577 53.2294 29.8577 53.2294C29.8577 53.2294 27.8057 54.8722 27.3644 58.0315C27.3644 58.0315 25.1919 60.8445 23.9858 61.4309C22.7797 62.0172 20.6884 65.6112 20.6884 65.6112C20.6884 65.6112 18.6174 67.0594 18.1773 68.471C17.7373 69.8825 16.6555 70.2301 16.6555 70.2301C16.6555 70.2301 16.7544 70.2781 16.9091 70.3741C16.8597 70.4007 16.8077 70.431 16.7493 70.4664C15.7652 71.0502 13.5927 72.6488 14.0734 75.1421C14.5401 77.5432 17.2642 75.2066 18.5882 73.8999L18.7075 73.7811C18.6872 73.9157 18.6593 74.049 18.6238 74.1804C18.9102 73.735 19.2654 73.3375 19.6764 73.0026C20.1186 72.6466 20.4818 72.203 20.743 71.6998C20.9433 71.3206 21.2642 70.9415 21.7575 70.8152C22.8431 70.5422 28.3523 66.3227 29.5609 64.1339C30.7695 61.9452 33.3009 61.101 33.3009 61.101L34.4626 64.7216C34.6398 65.2751 34.6708 65.8649 34.5526 66.4339C34.299 67.6673 33.9807 70.0506 34.7492 71.9045C34.7492 71.9045 34.7847 71.8716 34.8494 71.8173C34.9547 72.2874 35.0891 72.9053 35.2109 73.5132C35.24 73.6623 35.2679 73.8114 35.2946 73.958C35.3719 74.3712 35.4366 74.7592 35.4734 75.0688C35.6344 76.3982 36.077 79.4463 36.4385 79.7584C36.7999 80.0706 38.8481 86.4005 38.8481 86.4005C38.8481 86.4005 40.6579 90.5429 40.3776 92.3791C40.3521 92.604 40.3559 92.8313 40.389 93.0552C40.4514 93.5119 40.5437 93.964 40.6655 94.4086C40.701 94.5426 40.7365 94.6791 40.7771 94.8181C40.8101 94.9381 40.8456 95.0607 40.8811 95.1833C41.7574 98.1467 43.434 102.108 43.434 102.108C43.434 102.108 43.5735 102.469 43.7549 102.95C43.8145 103.112 43.8817 103.287 43.9464 103.468C44.2444 104.277 44.5589 105.184 44.5589 105.39C44.5589 105.437 44.6223 105.489 44.7327 105.542C44.4454 106.018 44.1912 106.513 43.9717 107.023C43.6192 107.852 42.6046 108.673 42.6046 108.673C42.6046 108.673 41.3972 109.015 41.3972 110.063V110.865C41.3972 110.865 43.9616 110.815 44.8062 111.05C45.6509 111.285 46.7771 110.884 46.7771 110.884L47.018 110.573C47.018 110.573 49.9438 110.699 50.1252 109.975C50.1784 109.763 50.1759 109.31 50.1328 108.771C50.0775 108.113 49.9801 107.459 49.8411 106.813C50.0338 106.806 50.1657 106.793 50.1657 106.793C50.1657 106.793 51.5037 107.652 51.6432 108.503C51.686 108.753 51.7828 108.99 51.9269 109.2C52.0709 109.409 52.2589 109.584 52.4777 109.713C52.4777 109.713 53.8664 110.345 56.5297 110.056C57.9247 109.908 58.1873 109.2 58.0592 108.571C57.9425 107.995 57.4961 107.484 57.2843 107.526C56.8429 107.614 55.0624 105.064 55.0624 105.064L54.1581 103.169C54.2393 102.158 54.0009 101.679 53.666 101.475C53.8956 99.3434 53.926 96.4862 53.926 96.4862C53.926 96.4862 54.1277 93.0476 53.926 89.9604C53.7244 86.8731 53.7244 80.8174 53.0383 78.7854C52.7212 77.8401 52.2621 75.1926 51.8639 72.6324C51.8335 72.4403 51.803 72.2533 51.7751 72.0599C51.6787 71.4369 51.5887 70.8278 51.505 70.2566C51.5443 70.2376 51.5849 70.2187 51.6204 70.1985L51.4048 68.3231L51.3744 68.0641C51.382 68.0717 51.3921 68.0767 51.3997 68.083C52.1239 68.7465 51.1588 65.0741 51.1588 65.0741C51.1588 65.0741 50.7238 60.8508 50.7529 58.422C50.7557 57.5578 50.7095 56.6941 50.6147 55.8351C50.5411 55.1123 50.7123 54.1734 51.8081 53.5124C52.096 53.3314 52.366 53.1236 52.6147 52.892C52.9203 52.6152 53.5874 52.2601 55.0243 52.2184C57.4339 52.1413 59.8436 50.8903 59.8436 50.8903C59.8436 50.8903 62.6197 51.047 63.9019 49.4054C65.184 47.7638 68.4066 47.3746 68.4066 47.3746L68.0122 44.0511ZM18.3232 71.7756L17.9668 71.2777C18.0992 71.4336 18.2184 71.6001 18.3232 71.7756ZM48.6553 92.1023C48.635 92.3551 48.6198 92.6521 48.6172 92.9869C48.6071 94.0333 48.7111 95.4284 49.1841 96.7616L48.9825 102.012H48.966C48.7961 101.995 48.6375 102.53 48.5145 103.237C48.4139 102.945 48.2892 102.663 48.1417 102.391C47.9007 102.04 48.1023 100.088 48.1023 100.088C48.1023 100.088 47.0954 98.4853 47.0167 98.1328C46.9381 97.7802 45.7282 92.0758 45.7282 92.0758C45.7282 92.0758 45.6483 87.6225 45.2057 86.4902C44.7631 85.3579 44.6426 80.4333 44.6426 80.4333C44.6426 80.4333 46.8544 83.9881 47.0167 85.7863L48.7453 91.2961C48.7453 91.2961 48.6921 91.5969 48.6553 92.1023Z" fill="url(#paint0_linear_1304_23451)"/>
<path d="M53.4933 96.3232C53.4933 96.3232 53.4274 102.575 52.7666 103.425C52.1059 104.276 48.65 103.464 48.65 103.464L48.9036 96.5936C48.4458 95.2743 48.3443 93.8918 48.3557 92.8555C48.3557 92.5244 48.3722 92.2237 48.3912 91.9798C48.428 91.4743 48.4788 91.1761 48.4788 91.1761L46.8085 85.7194C46.6525 83.9375 44.5168 80.4118 44.5168 80.4118C44.5168 80.4118 44.6335 85.2884 45.0609 86.4106C45.4883 87.5328 45.5682 91.9444 45.5682 91.9444C45.5682 91.9444 46.7337 97.5957 46.811 97.9445C46.8884 98.2933 47.8599 99.8792 47.8599 99.8792C47.8599 99.8792 47.6658 101.814 47.8992 102.163C48.1325 102.512 49.1027 105.221 48.8694 105.724C48.636 106.227 44.442 105.529 44.442 105.143C44.442 104.939 44.1376 104.039 43.8497 103.238L43.6646 102.725C43.4896 102.249 43.3539 101.892 43.3539 101.892C43.3539 101.892 41.7356 97.9672 40.8897 95.0316C40.8542 94.9053 40.8212 94.789 40.7882 94.6715C40.7502 94.5325 40.7147 94.3973 40.6817 94.2646C40.5644 93.8241 40.475 93.3767 40.4141 92.925C40.3823 92.7031 40.3785 92.4781 40.4027 92.2553C40.6741 90.4355 38.9265 86.3335 38.9265 86.3335C38.9265 86.3335 36.9455 80.063 36.5955 79.7534C36.2455 79.4438 35.8181 76.426 35.6634 75.1093C35.6278 74.8009 35.5657 74.4167 35.4909 74.0086C35.4655 73.8632 35.4376 73.7154 35.4097 73.5663C35.1726 72.3468 34.8809 71.0843 34.8809 71.0843L39.2372 68.2195L50.6956 66.9811C50.6956 66.9811 51.0152 69.4276 51.4172 72.1244C51.4451 72.3114 51.4743 72.5035 51.5035 72.6918C51.8839 75.2268 52.3316 77.8502 52.6373 78.7854C53.2967 80.7985 53.2967 86.7973 53.492 89.8542C53.6873 92.9111 53.4933 96.3232 53.4933 96.3232Z" fill="#63667E"/>
<path opacity="0.1" d="M42.2227 70.556L43.6646 77.8919H44.3495L42.9798 70.3008L42.2227 70.556Z" fill="black"/>
<path opacity="0.1" d="M35.4962 74.0098C35.4708 73.8645 35.4429 73.7167 35.415 73.5675C36.0859 73.4311 37.604 72.8738 37.3681 70.6395H37.8335C37.8335 70.6395 38.2749 73.5827 35.4962 74.0098Z" fill="black"/>
<path opacity="0.1" d="M51.5089 72.6969C50.6389 72.8561 47.9198 73.3224 47.3504 73.0141C46.6719 72.6463 46.001 70.6535 46.001 70.6535L46.6224 70.5562C46.6224 70.5562 46.0745 73.4791 51.4226 72.1295C51.4505 72.3165 51.4797 72.5061 51.5089 72.6969Z" fill="black"/>
<path d="M51.275 70.2857C50.4913 70.7394 48.6511 70.958 46.5091 71.0439C46.3137 71.0515 46.1172 71.0591 45.9168 71.0641C42.4444 71.1728 38.3899 70.977 36.7742 70.8847C36.3189 70.8594 36.0576 70.8417 36.0576 70.8417L37.4755 69.8649L39.8065 69.0131L44.7094 68.0553L50.9922 67.8809L51.0556 68.4179L51.275 70.2857Z" fill="#33363D"/>
<path d="M46.508 71.049C46.3127 71.0566 46.1161 71.0641 45.9157 71.0692C45.6697 70.0304 44.8936 68.3699 44.8936 68.3699L45.553 68.2827L46.508 71.049Z" fill="#63667E"/>
<path d="M20.0549 73.2037C20.0549 73.2037 19.781 73.5196 19.3599 73.9467C18.0815 75.242 15.45 77.5559 15.001 75.1776C14.5356 72.7121 16.6345 71.1337 17.5844 70.5499C17.8533 70.3843 18.0295 70.2971 18.0295 70.2971L20.0549 73.2037Z" fill="#FFA2A2"/>
<path d="M43.5927 45.3514C43.5927 45.3514 42.1076 44.4226 41.8312 44.5098C41.5547 44.597 41.8312 45.843 41.8312 45.843C41.473 46.5239 40.9067 47.0736 40.2142 47.4125C39.4203 47.8261 38.6517 48.286 37.9123 48.79C37.34 48.7343 36.7622 48.7986 36.2162 48.9786C35.6702 49.1585 35.168 49.4503 34.7418 49.8351C34.4438 50.0347 34.1067 50.169 33.7527 50.2292C33.3988 50.2893 33.0361 50.2738 32.6885 50.1838C31.537 49.8654 31.4799 48.2984 31.6397 47.7032C31.7665 47.2356 33.6866 46.0225 34.5135 45.517C34.7418 45.378 34.8864 45.2933 34.8864 45.2933C34.8864 45.2933 38.6175 45.1669 39.4596 43.581C39.7187 43.0908 40.1049 42.6788 40.5782 42.388L40.5997 42.3766L40.7062 42.3135L40.7405 42.2945C41.1324 42.0793 41.5636 41.9444 42.0087 41.8977C43.8311 43.0578 43.5927 45.3514 43.5927 45.3514Z" fill="#CED7E7"/>
<path opacity="0.1" d="M43.5927 45.3514C43.5927 45.3514 42.1076 44.4226 41.8312 44.5098C41.5547 44.597 41.8312 45.843 41.8312 45.843C41.473 46.5239 40.9067 47.0736 40.2142 47.4125C39.4203 47.8261 38.6517 48.286 37.9123 48.79C37.34 48.7343 36.7622 48.7986 36.2162 48.9786C35.6702 49.1585 35.168 49.4503 34.7418 49.8351C34.4438 50.0347 34.1067 50.169 33.7527 50.2292C33.3988 50.2893 33.0361 50.2738 32.6885 50.1838C31.537 49.8654 31.4799 48.2984 31.6397 47.7032C31.7665 47.2356 33.6866 46.0225 34.5135 45.517C34.7418 45.378 34.8864 45.2933 34.8864 45.2933C34.8864 45.2933 38.6175 45.1669 39.4596 43.581C39.7187 43.0908 40.1049 42.6788 40.5782 42.388L40.5997 42.3766L40.7062 42.3135L40.7405 42.2945C41.1324 42.0793 41.5636 41.9444 42.0087 41.8977C43.8311 43.0578 43.5927 45.3514 43.5927 45.3514Z" fill="black"/>
<path opacity="0.1" d="M51.0554 68.423C50.3566 67.7646 46.0066 68.9639 46.0066 68.9639C46.0066 68.9639 43.0111 69.8207 40.7258 69.9597C40.4146 69.9803 40.1026 69.9841 39.7911 69.971C38.831 69.9218 37.8304 70.3085 36.9908 70.7722L36.779 70.8986C36.3238 70.8733 36.0625 70.8556 36.0625 70.8556L37.4804 69.8788L39.8114 69.0271L44.7143 68.0692L50.9971 67.8948L51.0554 68.423Z" fill="black"/>
<path opacity="0.1" d="M19.3595 73.9467C19.6499 72.0183 18.1483 70.8974 17.584 70.5499C17.8528 70.3843 18.0291 70.2971 18.0291 70.2971L20.0583 73.2037C20.0583 73.2037 19.7805 73.5196 19.3595 73.9467Z" fill="black"/>
<path d="M67.4805 47.6741C67.4805 47.6741 64.3721 48.0532 63.1305 49.6859C61.8889 51.3186 59.2066 51.1569 59.2066 51.1569C59.2066 51.1569 56.8756 52.3953 54.5459 52.4724C53.1622 52.5179 52.5167 52.8641 52.2225 53.1384C51.9832 53.3678 51.7225 53.5739 51.4438 53.7538C50.3861 54.4084 50.22 55.3372 50.2923 56.0537C50.3829 56.905 50.4273 57.7605 50.4254 58.6165C50.3975 61.0176 50.8173 65.2055 50.8173 65.2055C50.8173 65.2055 51.7494 68.8437 51.0494 68.1866C50.3493 67.5295 46.0006 68.7275 46.0006 68.7275C46.0006 68.7275 43.005 69.5843 40.7197 69.7246C40.4086 69.7448 40.0965 69.7481 39.785 69.7347C38.825 69.6854 37.8243 70.0721 36.9848 70.5371C36.2623 70.9432 35.5866 71.4267 34.9696 71.979C34.2264 70.1428 34.5358 67.781 34.7793 66.5602C34.8931 65.9966 34.8635 65.4136 34.6931 64.8643L33.5707 61.2779C33.5707 61.2779 31.1243 62.1094 29.9588 64.2767C28.7933 66.444 23.4719 70.6243 22.4218 70.896C21.9411 71.0224 21.6317 71.3952 21.4376 71.7667C21.1881 72.2635 20.8379 72.7032 20.4091 73.0582C20.0116 73.3916 19.6693 73.7852 19.3945 74.2246C20.0946 71.5923 17.4922 70.3147 17.4922 70.3147C17.4922 70.3147 18.5397 69.9659 18.9671 68.5758C19.3945 67.1858 21.3768 65.7514 21.3768 65.7514C21.3768 65.7514 23.397 62.1903 24.5625 61.609C25.728 61.0277 27.8257 58.2425 27.8257 58.2425C28.2518 55.1072 30.2353 53.4821 30.2353 53.4821C30.2353 53.4821 32.4116 52.5533 32.6449 51.7862C32.7261 51.5233 32.9924 51.0343 33.3107 50.5061C33.6075 50.0082 33.9449 49.4787 34.2175 49.0654C34.4902 48.6522 34.7045 48.3337 34.7045 48.3337L38.1921 48.3009L38.8262 48.2946L40.6842 44.8092C40.6842 44.8092 41.3449 44.1521 42.4901 44.9255C42.8194 45.1446 43.2108 45.2518 43.6062 45.2313C44.1253 45.1979 44.6287 45.0401 45.0735 44.7713C49.5021 43.5708 51.3664 45.843 51.3664 45.843C51.3664 45.843 54.4343 45.5839 54.589 45.843C54.7437 46.102 56.3366 45.843 56.3366 45.843L60.5712 45.4285L67.0975 44.3846L67.4805 47.6741Z" fill="#CED7E7"/>
<path d="M42.0001 46.5128L40.0191 49.7631C40.0191 49.7631 34.6203 53.673 35.3977 50.6148C35.5237 50.1004 35.5686 49.5697 35.5309 49.0415C35.5195 48.8355 35.4954 48.6295 35.4649 48.4261C35.3241 47.5828 35.0752 46.7609 34.7243 45.9808C34.685 45.8873 34.6444 45.7976 34.5975 45.7091C34.5366 45.5827 34.477 45.4564 34.4174 45.3376C34.1674 44.8331 33.883 44.3463 33.5664 43.8805C33.5664 43.8805 39.4319 39.1201 39.626 42.1C39.6685 42.7731 39.8228 43.4346 40.0825 44.0574L40.1282 44.1623C40.4546 44.8969 40.9241 45.5597 41.5093 46.1122C41.6623 46.2581 41.8264 46.392 42.0001 46.5128Z" fill="#FFA2A2"/>
<path d="M34.1543 49.5317L35.0674 52.2399L38.782 52.8401L40.9127 50.5048C40.9127 50.5048 42.1365 48.7634 42.2139 48.7242C42.2912 48.6851 42.4853 47.022 42.4853 47.022L42.7135 46.0818L41.2766 45.6003L39.2564 47.7866L38.4307 48.292L37.5138 48.5145L34.4701 49.3991L34.1543 49.5317Z" fill="#CED7E7"/>
<path opacity="0.1" d="M43.5935 45.5839C43.5935 45.5839 42.5789 45.5738 42.3088 45.661C42.0387 45.7482 41.8319 46.0742 41.8319 46.0742C41.4741 46.7557 40.9077 47.3059 40.2149 47.645C39.4211 48.0586 38.6525 48.5185 37.9131 49.0225C37.3407 48.9665 36.7629 49.0306 36.2168 49.2106C35.6708 49.3906 35.1686 49.6825 34.7426 50.0676C34.3176 50.3518 33.8175 50.504 33.3057 50.5048C33.6024 50.0069 33.9398 49.4774 34.2124 49.0642C35.4655 48.9277 38.1173 48.4437 38.1173 48.4437L38.1871 48.2996C38.4331 47.7942 39.2663 46.0869 39.5732 45.5713C39.9309 44.9698 41.052 43.0906 41.0875 43.0312L39.9867 44.0346L40.5751 42.6218L40.5967 42.6104L40.7032 42.5472L40.7375 42.5283C41.1294 42.313 41.5606 42.1781 42.0057 42.1315C43.3944 43.0161 43.5922 44.5452 43.6074 45.2339C43.6094 45.3507 43.6048 45.4676 43.5935 45.5839Z" fill="black"/>
<path opacity="0.1" d="M34.5099 45.2857L34.7978 45.9176C34.7978 45.9176 34.7737 45.9378 34.7229 45.9757C34.6836 45.8822 34.643 45.7924 34.5961 45.704C34.5352 45.5776 34.4756 45.4512 34.416 45.3325C34.4465 45.3148 34.4744 45.2958 34.5023 45.2806L34.5099 45.2857Z" fill="black"/>
<path opacity="0.1" d="M41.5143 46.1121C41.1648 46.5588 40.721 46.9234 40.2143 47.18C39.4203 47.5937 38.6517 48.0541 37.9125 48.5587C37.088 48.4774 36.258 48.6456 35.5308 49.0414C35.5194 48.8354 35.4953 48.6294 35.4648 48.426C36.7128 48.2339 38.1167 47.9774 38.1167 47.9774C38.1167 47.9774 39.2099 45.7141 39.5726 45.105C39.6994 44.9002 39.9074 44.5426 40.1332 44.1622C40.4596 44.8968 40.929 45.5596 41.5143 46.1121Z" fill="black"/>
<path d="M43.5927 45.3515C43.5927 45.3515 42.5781 45.3413 42.3067 45.4285C42.0353 45.5157 41.8312 45.843 41.8312 45.843C41.473 46.524 40.9067 47.0736 40.2142 47.4126C39.4203 47.8261 38.6517 48.2861 37.9123 48.79C37.34 48.7344 36.7622 48.7986 36.2162 48.9786C35.6702 49.1586 35.168 49.4503 34.7418 49.8351C34.4438 50.0347 34.1067 50.1691 33.7527 50.2292C33.3988 50.2893 33.0361 50.2739 32.6885 50.1839C31.537 49.8654 31.4799 48.2984 31.6397 47.7032C31.7665 47.2356 33.6866 46.0225 34.5135 45.517L34.8014 46.1552C34.2016 46.6133 33.5734 47.0332 32.9206 47.4126C31.6816 48.1518 32.3081 48.9505 32.3081 48.9505C32.7539 48.8735 33.2066 48.8439 33.6587 48.862C34.3004 48.905 38.1165 48.2087 38.1165 48.2087C38.1165 48.2087 39.2097 45.9441 39.5725 45.3363C39.9352 44.7284 41.0512 42.8556 41.0867 42.7962L39.9859 43.8072L40.5743 42.3944L40.5959 42.383L40.7024 42.3198L40.7367 42.3009C41.1286 42.0856 41.5598 41.9507 42.0049 41.9041C43.8311 43.0578 43.5927 45.3515 43.5927 45.3515Z" fill="#CED7E7"/>
<path opacity="0.1" d="M40.0876 44.06C39.5171 44.9386 38.6519 45.5867 37.6463 45.8887C36.6408 46.1907 35.5603 46.1271 34.5975 45.7091C34.3045 45.0726 33.9596 44.461 33.5664 43.8805C33.5664 43.8805 39.4319 39.1201 39.626 42.1C39.6698 42.7743 39.8258 43.4366 40.0876 44.06Z" fill="black"/>
<path d="M40.6852 41.4302C40.6852 41.5405 40.6814 41.6492 40.6738 41.7562C40.5904 42.9121 40.055 43.9893 39.1828 44.756C38.3106 45.5226 37.1713 45.9176 36.0099 45.8558C34.8485 45.794 33.7578 45.2805 32.9724 44.4257C32.1871 43.5709 31.7698 42.4431 31.8103 41.2849C31.8509 40.1267 32.346 39.0306 33.1892 38.2324C34.0325 37.4342 35.1564 36.9977 36.3193 37.0167C37.4822 37.0357 38.5912 37.5088 39.4076 38.3342C40.2241 39.1596 40.6828 40.2713 40.6852 41.4302Z" fill="#FFA2A2"/>
<path opacity="0.1" d="M29.1836 55.6469C29.1836 55.6469 30.1589 57.4653 31.3586 58.4662C32.5583 59.467 33.2609 61.0214 33.2609 61.0214C33.2609 61.0214 32.9122 58.0075 29.1836 55.6469Z" fill="black"/>
<path opacity="0.1" d="M27.668 60.2139C27.668 60.2139 31.0922 59.3621 32.8157 60.2139H27.668Z" fill="black"/>
<path opacity="0.1" d="M26.4248 65.2902L30.109 64.0265C30.109 64.0265 27.7488 65.7098 26.4248 65.2902Z" fill="black"/>
<path opacity="0.1" d="M20.0547 70.2376C20.0547 70.2376 21.6476 70.1606 22.1523 70.6635C22.1523 70.6635 20.5988 70.7798 20.0547 70.2376Z" fill="black"/>
<path opacity="0.1" d="M57.223 45.7545C57.223 45.7545 53.6517 47.8674 53.4932 51.2731L57.223 45.7545Z" fill="black"/>
<path opacity="0.1" d="M61.5375 48.9504C61.5375 48.9504 57.1088 49.8414 56.3707 50.3051C55.6326 50.7689 54.041 51.0014 54.041 51.0014C54.041 51.0014 60.4493 50.151 61.5375 48.9504Z" fill="black"/>
<path opacity="0.1" d="M48.548 67.6293C48.2259 67.9629 44.25 68.9031 40.6965 69.6892C40.3739 69.7104 40.0505 69.7142 39.7275 69.7005C38.732 69.65 37.6984 70.0481 36.8233 70.5257C35.7504 70.7532 35.0567 70.896 35.0567 70.896C35.0567 70.896 33.8886 69.9786 35.4993 67.9073C37.1099 65.8361 37.3927 62.5682 37.3927 62.5682L44.5633 60.7408C44.5633 60.7408 46.4973 63.3946 47.4231 63.8205C48.3489 64.2464 49.1441 67.0152 48.548 67.6293Z" fill="black"/>
<path d="M48.2941 67.7216C47.9821 68.0477 44.1483 68.9601 40.7215 69.7246C40.4104 69.7448 40.0984 69.7482 39.7869 69.7347C38.8268 69.6854 37.8262 70.0721 36.9866 70.5372C35.9517 70.7571 35.2821 70.8961 35.2821 70.8961C35.2821 70.8961 34.1559 70.0051 35.7095 67.9895C37.2631 65.9739 37.5345 62.802 37.5345 62.802L44.4488 61.0227C44.4488 61.0227 46.3131 63.6007 47.206 64.0152C48.0988 64.4297 48.8648 67.1264 48.2941 67.7216Z" fill="#CED7E7"/>
<path opacity="0.1" d="M42.6808 93.0918L40.6846 94.2696C40.5673 93.8291 40.4779 93.3817 40.417 92.9301C40.7074 93.1714 42.6808 93.0918 42.6808 93.0918Z" fill="black"/>
<path opacity="0.1" d="M40.7939 94.6765C41.4991 94.5425 43.1731 94.2089 44.0913 93.8955C43.2594 94.2999 41.754 94.976 40.8992 95.0328C40.8599 94.9153 40.8269 94.794 40.7939 94.6765Z" fill="black"/>
<path opacity="0.1" d="M44.679 93.5973C44.6054 93.687 44.3898 93.7881 44.0918 93.8905C44.4482 93.7237 44.679 93.5973 44.679 93.5973Z" fill="black"/>
<path opacity="0.1" d="M45.8842 103.328C45.3186 103.375 44.3991 103.299 43.8551 103.243L43.6699 102.73C44.252 102.792 45.4074 102.889 45.8842 102.748C46.5348 102.556 46.7301 103.261 45.8842 103.328Z" fill="black"/>
<path opacity="0.1" d="M50.9388 93.0425C50.8449 93.0299 49.3357 92.8605 48.3643 92.8555C48.3643 92.5244 48.3807 92.2236 48.3998 91.9797C49.0694 92.2615 50.8386 93.0084 50.9388 93.0425Z" fill="black"/>
<path d="M49.8272 109.686C49.6522 110.405 46.8266 110.278 46.8266 110.278L46.5933 110.587C46.5933 110.587 45.5064 110.983 44.6909 110.751C43.8755 110.518 41.3936 110.568 41.3936 110.568V109.773C41.3936 108.738 42.5591 108.399 42.5591 108.399C42.5591 108.399 43.5394 107.587 43.8793 106.764C44.0912 106.255 44.3374 105.76 44.6161 105.284C44.6161 105.284 43.7043 104.181 46.1507 103.894C48.5603 103.616 47.6155 105.796 47.5888 105.857C47.6281 105.821 48.5324 105.011 49.0346 105.266C49.3973 105.452 49.7258 107.211 49.8285 108.485C49.8754 109.026 49.878 109.475 49.8272 109.686Z" fill="#CED7E7"/>
<path opacity="0.1" d="M49.8272 109.686C49.6522 110.405 46.8266 110.278 46.8266 110.278L46.5933 110.587C46.5933 110.587 45.5064 110.983 44.6909 110.751C43.8755 110.518 41.3936 110.568 41.3936 110.568V109.809C42.8875 109.883 45.878 109.981 46.5502 109.636C46.5502 109.636 47.3555 109.433 47.5406 109.298C47.6966 109.183 49.3377 108.648 49.8234 108.49C49.8754 109.026 49.878 109.475 49.8272 109.686Z" fill="black"/>
<path d="M56.0122 109.765C53.4389 110.046 52.0984 109.425 52.0984 109.425C51.8853 109.295 51.703 109.121 51.564 108.914C51.425 108.707 51.3326 108.472 51.2931 108.226C51.1574 107.384 49.8651 106.534 49.8651 106.534C49.8651 106.534 48.2735 106.688 48.0782 106.223C48.0312 106.026 48.0133 105.823 48.0249 105.62C48.0249 104.373 48.3382 101.753 48.6996 101.791C49.1257 101.838 50.4434 103.577 50.5753 103.751C50.4599 103.564 49.3134 101.617 51.8562 101.386C51.8562 101.386 53.9336 100.215 53.7205 102.944L54.5943 104.82C54.5943 104.82 56.314 107.348 56.7401 107.259C56.9443 107.218 57.3742 107.723 57.4884 108.294C57.6114 108.917 57.3565 109.619 56.0122 109.765Z" fill="#CED7E7"/>
<path opacity="0.1" d="M40.6841 41.4301C40.6841 41.5404 40.6803 41.6491 40.6727 41.7561L40.5649 41.7965L40.1477 41.9482C40.0773 41.9782 40.0021 41.9954 39.9257 41.9987C39.8661 41.9963 39.8078 41.9803 39.7553 41.9521C39.7028 41.9238 39.6574 41.884 39.6226 41.8357C39.5626 41.7443 39.5196 41.6429 39.4958 41.5362L39.18 40.3269C39.1166 40.0868 39.0189 39.81 38.7488 39.7203C38.6699 39.7031 38.5924 39.6803 38.5167 39.652C38.348 39.5724 38.3125 39.3854 38.2555 39.2287C38.1286 38.8635 37.79 38.5716 37.4235 38.3441C37.1757 38.1712 36.8813 38.077 36.5789 38.0737C36.4169 38.0762 36.2603 38.1322 36.1337 38.2329C35.8687 38.4566 35.9054 38.7586 35.9372 39.077C35.9689 39.3955 36.0538 39.7354 35.96 40.0539C35.8966 40.2611 35.7609 40.4545 35.7368 40.6693C35.7165 40.8425 35.7736 41.0181 35.7634 41.1912C35.7614 41.2847 35.7278 41.3748 35.6679 41.4469C35.6081 41.5189 35.5255 41.5687 35.4337 41.588C35.4172 41.4832 35.2637 41.449 35.161 41.3922C34.9289 41.2658 34.9162 40.9903 34.9264 40.7603C34.9441 40.4166 34.9606 40.0716 34.9771 39.7279C34.8746 40.4967 34.7157 41.2569 34.5015 42.0025C34.4752 42.1322 34.4148 42.2525 34.3265 42.3513C34.2745 42.4029 34.2082 42.4379 34.1361 42.4516C34.064 42.4653 33.9894 42.4573 33.9219 42.4284C33.8435 42.3791 33.7854 42.3033 33.7583 42.2148C33.5963 41.8145 33.5404 41.3793 33.596 40.9511C33.4552 41.511 33.3145 42.0771 33.0431 42.6028C32.9353 42.8113 32.7717 43.0375 32.5066 43.0792C32.4257 43.0818 32.3456 43.0949 32.2682 43.1184C32.2373 43.133 32.2094 43.1531 32.1857 43.1778C31.9273 42.5766 31.8063 41.9256 31.8314 41.2721C31.8565 40.6185 32.0271 39.9787 32.3309 39.3989C32.6347 38.8191 33.0641 38.3139 33.5879 37.9198C34.1118 37.5258 34.717 37.2527 35.3599 37.1204C36.0027 36.9881 36.667 36.9998 37.3046 37.1548C37.9423 37.3098 38.5374 37.6041 39.0469 38.0165C39.5564 38.4289 39.9675 38.949 40.2504 39.5391C40.5334 40.1293 40.6811 40.7748 40.6828 41.4288L40.6841 41.4301Z" fill="black"/>
<path d="M36.1343 38.0067C36.2606 37.9053 36.4172 37.8488 36.5794 37.8462C36.8818 37.8499 37.1761 37.9441 37.424 38.1166C37.7906 38.339 38.1241 38.6297 38.256 39.0012C38.3131 39.1579 38.3473 39.3462 38.5096 39.4258C38.5856 39.4527 38.6631 39.4751 38.7417 39.4928C39.0131 39.5825 39.1108 39.8593 39.1729 40.0994L39.4912 41.3088C39.5119 41.4153 39.5528 41.517 39.6117 41.6083C39.6464 41.6568 39.6917 41.6968 39.7442 41.7253C39.7968 41.7538 39.8551 41.7699 39.9148 41.7725C39.9918 41.7691 40.0675 41.7516 40.138 41.7207L40.5553 41.5691C40.7747 41.4895 41.0131 41.3947 41.1133 41.2102C41.1659 41.0911 41.1835 40.9597 41.164 40.8311C41.1397 40.445 41.0854 40.0614 41.0017 39.6836L41.4811 40.0084C41.5965 40.0855 41.7411 40.1676 41.878 40.1247C41.9226 40.1081 41.9626 40.0814 41.9949 40.0468C42.0273 40.0121 42.0511 39.9704 42.0645 39.925C42.1507 39.6874 42.0886 39.4031 42.2687 39.2072C42.3118 39.1617 42.365 39.1225 42.4031 39.0745C42.5667 38.8647 42.3727 38.5804 42.4399 38.3352C42.5046 38.3607 42.5759 38.3642 42.6428 38.3452C42.7098 38.3263 42.7686 38.2859 42.8102 38.2304C42.8761 38.1244 42.9084 38.0011 42.9028 37.8765C42.9408 37.1625 42.9586 36.3891 42.4678 35.8078C42.5578 35.224 41.9364 34.5883 41.249 34.5087C41.0778 34.4885 40.8685 34.4784 40.7937 34.3482C40.7671 34.2856 40.7554 34.2177 40.7595 34.1498C40.7417 33.9287 40.5933 33.7315 40.45 33.5458C40.3928 33.4638 40.3225 33.3917 40.242 33.3322C40.015 33.1831 39.6916 33.2235 39.4101 33.2741C38.8935 33.3659 38.3803 33.4691 37.8705 33.5837C37.8106 33.334 37.8146 33.0733 37.8819 32.8255C37.9339 32.6384 38.0226 32.4464 37.9263 32.2593C37.9018 32.2126 37.8655 32.173 37.821 32.1444C37.7766 32.1159 37.7254 32.0993 37.6726 32.0963C37.6055 32.0946 37.5394 32.1124 37.4824 32.1477C37.4254 32.1829 37.38 32.234 37.3518 32.2947C37.0597 32.7299 36.8579 33.2188 36.7582 33.7328C36.5666 33.5977 36.3439 33.513 36.1107 33.4865C35.8774 33.46 35.6413 33.4926 35.4241 33.5812C35.3144 33.6426 35.1953 33.6853 35.0715 33.7075C34.9683 33.7061 34.8673 33.678 34.7784 33.6259C34.6895 33.5739 34.6157 33.4996 34.5642 33.4106C34.4247 33.1957 34.3613 32.9405 34.0899 32.8002C34.0295 32.7684 33.9622 32.7518 33.8939 32.7518C33.8257 32.7518 33.7584 32.7684 33.698 32.8002C33.3391 33.0087 33.7868 33.5256 33.5205 33.7973C33.4465 33.8607 33.3601 33.908 33.2668 33.9363L32.601 34.1802C32.2461 34.3313 31.8694 34.4255 31.485 34.4594C31.0436 34.4771 30.5972 34.3419 30.1635 34.4329C30.3379 34.6308 30.5696 34.7699 30.8267 34.831C30.984 34.8702 31.1501 34.8828 31.3036 34.9333C31.378 34.9498 31.447 34.985 31.504 35.0354C31.561 35.0858 31.6042 35.1498 31.6295 35.2215C31.6638 35.3996 31.4913 35.5715 31.5255 35.7497C31.5516 35.8262 31.6043 35.8908 31.6741 35.9319C31.7439 35.9729 31.8262 35.9876 31.906 35.9734L31.1184 36.4789C30.9764 36.5698 30.8179 36.7025 30.8711 36.8466L31.1248 36.9199L30.4412 37.8967C30.3524 37.9958 30.3016 38.1229 30.2979 38.2556C30.3045 38.2897 30.3181 38.322 30.3378 38.3505C30.3575 38.3791 30.3829 38.4033 30.4124 38.4217C30.4419 38.44 30.4749 38.4522 30.5093 38.4573C30.5437 38.4624 30.5788 38.4605 30.6124 38.4515C30.4486 38.6215 30.3194 38.8215 30.2319 39.0404C30.216 39.069 30.2072 39.101 30.2061 39.1338C30.205 39.1665 30.2117 39.199 30.2256 39.2287C30.2557 39.2612 30.2932 39.286 30.3349 39.3012C30.3766 39.3164 30.4213 39.3214 30.4653 39.3159C30.8331 39.3159 31.1742 39.0631 31.2262 38.751C31.3391 38.8774 31.2186 39.0265 31.1108 39.1541C30.6784 39.6722 30.237 40.2005 30.0075 40.8045C29.7779 41.4086 29.7881 42.1137 30.218 42.6331C30.3132 42.7336 30.3981 42.8433 30.4716 42.9604C30.6086 43.2207 30.53 43.5544 30.743 43.7755C30.9144 43.3076 31.1221 42.8539 31.3645 42.4183C31.3508 42.5715 31.3283 42.7238 31.2973 42.8745C31.287 42.9543 31.3025 43.0352 31.3415 43.1056C31.3805 43.1761 31.4409 43.2323 31.5141 43.2662C31.7373 43.3471 31.9694 43.174 32.1153 43.0135C32.1515 42.9658 32.1979 42.9265 32.251 42.8985C32.328 42.8756 32.4077 42.8624 32.4881 42.8593C32.7532 42.8176 32.9155 42.5927 33.0246 42.3829C33.296 41.8585 33.438 41.2923 33.5775 40.73C33.5215 41.1582 33.5779 41.5936 33.7411 41.9937C33.7673 42.0822 33.8251 42.1581 33.9035 42.2072C33.9711 42.2356 34.0457 42.2433 34.1177 42.2293C34.1897 42.2154 34.256 42.1804 34.308 42.1289C34.3965 42.0303 34.457 41.9098 34.483 41.7801C34.6967 41.0344 34.8557 40.2742 34.9586 39.5054L34.9079 40.5379C34.8965 40.7704 34.9079 41.0434 35.1412 41.1697C35.2465 41.2266 35.3949 41.2607 35.4152 41.3644C35.5071 41.3458 35.5899 41.2965 35.6496 41.2245C35.7094 41.1525 35.7426 41.0622 35.7436 40.9688C35.7551 40.7944 35.698 40.62 35.7183 40.4456C35.7424 40.2321 35.8793 40.0387 35.9415 39.8302C36.0353 39.513 35.9529 39.1807 35.9187 38.8546C35.8844 38.5286 35.8654 38.2291 36.1343 38.0067Z" fill="#896363"/>
<path opacity="0.1" d="M56.0122 109.765C53.4389 110.046 52.0984 109.425 52.0984 109.425C51.8853 109.295 51.703 109.121 51.564 108.914C51.425 108.706 51.3326 108.472 51.2931 108.226C51.1574 107.384 49.8651 106.534 49.8651 106.534C49.8651 106.534 48.2735 106.688 48.0782 106.223C48.0312 106.026 48.0133 105.823 48.0249 105.62C48.6134 105.761 49.9691 106.083 50.3889 106.203C50.9342 106.357 52.5271 108.931 52.5271 108.931C54.0604 109.735 56.5981 108.704 57.4884 108.299C57.6114 108.917 57.3565 109.619 56.0122 109.765Z" fill="black"/>
<path opacity="0.1" d="M44.6158 105.284C44.6158 105.284 43.832 106.482 47.5885 105.863L44.6158 105.284Z" fill="black"/>
<path opacity="0.1" d="M50.5771 103.751C50.5771 103.751 54.5391 104.609 53.7223 102.944L50.5771 103.751Z" fill="black"/>
<g opacity="0.1">
<path d="M31.5531 35.5349C31.5313 35.5908 31.5243 35.6513 31.5328 35.7106C31.5494 35.7788 31.5922 35.8378 31.652 35.8749L31.9196 35.703C31.8486 35.7155 31.7754 35.7061 31.7099 35.6761C31.6444 35.6461 31.5897 35.5968 31.5531 35.5349Z" fill="black"/>
<path d="M30.828 34.7931C30.9866 34.8322 31.1527 34.8449 31.3061 34.8954C31.4343 34.9293 31.544 35.0119 31.6118 35.1254C31.6336 35.07 31.6406 35.0099 31.6321 34.951C31.6068 34.8794 31.5636 34.8153 31.5065 34.7649C31.4495 34.7145 31.3806 34.6794 31.3061 34.6629C31.1527 34.6123 30.9866 34.5997 30.828 34.5605C30.6736 34.522 30.5271 34.4566 30.3956 34.3672C30.3184 34.3701 30.2416 34.3794 30.166 34.395C30.3402 34.5926 30.5714 34.7316 30.828 34.7931Z" fill="black"/>
<path d="M31.3839 42.1479C31.1411 42.5835 30.9329 43.0373 30.7612 43.5051C30.5494 43.284 30.6267 42.9504 30.4898 42.6901C30.4167 42.5726 30.3317 42.4629 30.2361 42.3627C30.02 42.0985 29.8951 41.7719 29.8797 41.4314C29.8446 41.8505 29.9722 42.2671 30.2361 42.5953C30.3317 42.6954 30.4167 42.8051 30.4898 42.9226C30.6267 43.1829 30.5494 43.5153 30.7612 43.7377C30.9223 43.3001 31.1152 42.8748 31.3382 42.4651C31.366 42.3616 31.3813 42.2551 31.3839 42.1479Z" fill="black"/>
<path d="M30.3346 38.0585C30.3121 38.1084 30.3029 38.1632 30.308 38.2177C30.3153 38.2565 30.3316 38.293 30.3556 38.3244C30.3796 38.3558 30.4106 38.3811 30.4462 38.3984C30.4992 38.3215 30.5581 38.2488 30.6225 38.1811C30.5677 38.1976 30.5088 38.1944 30.4562 38.172C30.4035 38.1496 30.3605 38.1094 30.3346 38.0585Z" fill="black"/>
<path d="M37.841 33.0807C37.8465 32.9817 37.8623 32.8834 37.888 32.7876C37.9336 32.6258 38.0046 32.4615 37.9603 32.2972C37.9425 32.3832 37.9121 32.4704 37.888 32.55C37.8409 32.7227 37.825 32.9024 37.841 33.0807Z" fill="black"/>
<path d="M33.5703 32.9392C33.5561 33.0863 33.5677 33.2346 33.6046 33.3777C33.6192 33.2307 33.6076 33.0822 33.5703 32.9392Z" fill="black"/>
<path d="M31.2403 38.4806C31.1832 38.7877 30.8408 39.0392 30.4793 39.0455C30.3993 39.0518 30.3199 39.0274 30.2574 38.9772L30.246 39.0025C30.2301 39.0312 30.2212 39.0631 30.2199 39.0958C30.2186 39.1284 30.2249 39.161 30.2384 39.1908C30.2689 39.2231 30.3066 39.2477 30.3485 39.2626C30.3904 39.2776 30.4352 39.2824 30.4793 39.2767C30.629 39.2742 30.7754 39.2328 30.9042 39.1567C30.979 39.0644 31.0551 38.9734 31.1299 38.8837C31.1696 38.8383 31.206 38.7901 31.239 38.7396C31.2417 38.731 31.2438 38.7221 31.2453 38.7131V38.7194C31.2721 38.6851 31.2862 38.6426 31.2853 38.5991C31.2844 38.5556 31.2685 38.5138 31.2403 38.4806Z" fill="black"/>
<path d="M30.9405 36.5939C30.9111 36.6203 30.8898 36.6545 30.879 36.6925C30.8682 36.7306 30.8685 36.7708 30.8796 36.8087L30.9988 36.8428L31.1333 36.6495L30.9405 36.5939Z" fill="black"/>
<path d="M42.4092 38.8117C42.3712 38.8597 42.3179 38.8989 42.2748 38.938C42.0934 39.1339 42.1568 39.4182 42.0706 39.6558C42.057 39.7012 42.0332 39.7428 42.0008 39.7774C41.9685 39.812 41.9286 39.8388 41.8842 39.8555C41.7472 39.8985 41.6026 39.8163 41.4872 39.7392L41.0078 39.4145C41.0268 39.5029 41.0446 39.5926 41.0611 39.6824L41.4872 39.9705C41.6026 40.0488 41.7472 40.131 41.8842 40.088C41.9285 40.0711 41.9683 40.0443 42.0006 40.0097C42.0329 39.9751 42.0569 39.9336 42.0706 39.8883C42.1568 39.6508 42.0934 39.3664 42.2748 39.1706C42.3179 39.1238 42.3712 39.0859 42.4092 39.0379C42.4425 38.9869 42.4646 38.9294 42.474 38.8693C42.4834 38.8092 42.4799 38.7478 42.4637 38.6891C42.4552 38.7336 42.4366 38.7755 42.4092 38.8117Z" fill="black"/>
<path d="M41.1682 40.7743C41.1629 40.832 41.1465 40.8882 41.12 40.9398C41.0198 41.1243 40.7814 41.2191 40.5607 41.2987L40.1447 41.4503C40.074 41.4806 39.9984 41.4982 39.9215 41.5022C39.8618 41.4995 39.8034 41.4834 39.7509 41.4549C39.6984 41.4264 39.6531 41.3864 39.6184 41.3379C39.5579 41.2467 39.5149 41.1452 39.4916 41.0384L39.1745 39.829C39.1111 39.5889 39.0147 39.3121 38.7433 39.2224C38.6647 39.2047 38.5872 39.1823 38.5113 39.1554C38.3426 39.0746 38.3071 38.8875 38.2576 38.7308C38.1308 38.3644 37.7922 38.0737 37.4257 37.8462C37.1776 37.6739 36.8834 37.5797 36.581 37.5758C36.4188 37.5782 36.2621 37.6347 36.1359 37.7363C35.9241 37.9145 35.9051 38.1432 35.9215 38.3909C35.9264 38.3095 35.9479 38.2299 35.9848 38.1571C36.0216 38.0843 36.0731 38.0198 36.1359 37.9676C36.2626 37.867 36.419 37.8106 36.581 37.8071C36.8832 37.8122 37.1771 37.9063 37.4257 38.0775C37.7922 38.3012 38.1257 38.5918 38.2576 38.9621C38.3134 39.1188 38.3489 39.3058 38.5113 39.3867C38.5872 39.4136 38.6647 39.436 38.7433 39.4537C39.0147 39.5434 39.1111 39.8202 39.1745 40.0603L39.4916 41.2684C39.5146 41.3753 39.5576 41.4769 39.6184 41.5679C39.6528 41.6168 39.698 41.6572 39.7506 41.6859C39.8032 41.7146 39.8616 41.7308 39.9215 41.7334C39.9983 41.7288 40.0738 41.7113 40.1447 41.6816L40.5582 41.5325C40.7788 41.4529 41.0173 41.3581 41.1175 41.1736C41.17 41.0545 41.1876 40.9231 41.1682 40.7945C41.1695 40.7919 41.1695 40.7844 41.1682 40.7743Z" fill="black"/>
<path d="M42.9091 37.615C42.9147 37.7395 42.8825 37.8628 42.8166 37.9688C42.7749 38.0244 42.7161 38.0647 42.6492 38.0837C42.5823 38.1026 42.511 38.0991 42.4462 38.0737C42.4281 38.157 42.4281 38.2432 42.4462 38.3264V38.3087C42.511 38.3342 42.5823 38.3377 42.6492 38.3187C42.7161 38.2998 42.7749 38.2594 42.8166 38.2039C42.8823 38.0978 42.9146 37.9745 42.9091 37.85C42.9206 37.644 42.9294 37.433 42.9244 37.2245C42.9218 37.3521 42.9155 37.4886 42.9091 37.615Z" fill="black"/>
<path d="M33.5965 40.4558C33.4776 41.0264 33.292 41.5812 33.0435 42.1087C32.9345 42.3185 32.7721 42.5435 32.5058 42.5852C32.4254 42.5884 32.3458 42.6016 32.2686 42.6243C32.2161 42.6527 32.1703 42.6919 32.1342 42.7393C31.9884 42.9036 31.7537 43.0767 31.5331 42.9921C31.4807 42.9718 31.4345 42.9385 31.3987 42.8954C31.363 42.8522 31.339 42.8007 31.3289 42.7457C31.3289 42.776 31.3187 42.805 31.3162 42.8341C31.3048 42.9138 31.3198 42.9951 31.359 43.0656C31.3981 43.136 31.4592 43.1919 31.5331 43.2246C31.7563 43.3067 31.9884 43.1323 32.1342 42.9719C32.1707 42.9251 32.2165 42.8864 32.2686 42.8581C32.3455 42.8342 32.4253 42.821 32.5058 42.8189C32.7721 42.7772 32.9345 42.5523 33.0435 42.3425C33.281 41.8421 33.4594 41.3158 33.5749 40.7743C33.5751 40.6678 33.5823 40.5614 33.5965 40.4558Z" fill="black"/>
<path d="M34.9777 39.235C34.8748 40.0037 34.7158 40.7639 34.5021 41.5097C34.4761 41.6397 34.4152 41.7602 34.3259 41.8584C34.2739 41.9101 34.2076 41.9452 34.1356 41.9591C34.0635 41.9731 33.9889 41.9653 33.9213 41.9368C33.8438 41.887 33.7867 41.8113 33.7602 41.7232C33.6553 41.4608 33.5953 41.1827 33.5827 40.9006C33.5662 41.2612 33.6281 41.6211 33.764 41.9558C33.7904 42.0442 33.8475 42.1203 33.9251 42.1706C33.9928 42.1988 34.0673 42.2064 34.1393 42.1924C34.2113 42.1785 34.2775 42.1436 34.3297 42.0922C34.4188 41.9939 34.4797 41.8734 34.506 41.7434C34.709 41.0342 34.8624 40.3117 34.965 39.5812L34.9777 39.235Z" fill="black"/>
<path d="M35.9596 39.5636C35.8974 39.7721 35.7617 39.9642 35.7376 40.179C35.7294 40.2483 35.7294 40.3183 35.7376 40.3875C35.7681 40.1828 35.8962 39.997 35.9558 39.7961C35.996 39.6493 36.0093 39.4965 35.9951 39.345C35.9907 39.4189 35.9788 39.4921 35.9596 39.5636Z" fill="black"/>
<path d="M35.4347 41.0977C35.417 40.9941 35.2648 40.96 35.1608 40.9031C35.0885 40.8566 35.0293 40.7926 34.9887 40.7169C34.9481 40.6413 34.9274 40.5567 34.9287 40.4709V40.5C34.9173 40.7325 34.9287 41.0055 35.1621 41.1319C35.2661 41.1887 35.4157 41.2216 35.436 41.3265C35.5278 41.3073 35.6103 41.2575 35.67 41.1854C35.7297 41.1133 35.763 41.0231 35.7645 40.9297C35.7674 40.8698 35.7653 40.8098 35.7581 40.7502C35.7487 40.835 35.7122 40.9146 35.654 40.9772C35.5958 41.0397 35.5189 41.082 35.4347 41.0977Z" fill="black"/>
</g>
<path d="M74.9648 111.998H60.1912C60.0168 111.998 59.8443 111.962 59.685 111.891C59.5258 111.82 59.3835 111.716 59.2675 111.586C59.1515 111.456 59.0644 111.304 59.0121 111.138C58.9597 110.972 58.9431 110.797 58.9636 110.625L62.5603 80.1691L62.6351 79.5259C62.6705 79.2265 62.8149 78.9505 63.041 78.7502C63.267 78.5499 63.559 78.4392 63.8615 78.4391H71.6179C71.9226 78.4392 72.2165 78.5516 72.4431 78.7545C72.6697 78.9574 72.813 79.2367 72.8456 79.5385L72.9102 80.1489L76.1949 110.636C76.2135 110.808 76.1954 110.982 76.142 111.146C76.0886 111.311 76.001 111.462 75.885 111.591C75.7689 111.719 75.627 111.822 75.4684 111.892C75.3099 111.962 75.1383 111.998 74.9648 111.998Z" fill="#4E5A86"/>
<path opacity="0.1" d="M63.5799 82.0811C63.5799 82.0811 64.1227 95.8973 62.0264 101.163C62.0264 101.163 62.2445 102.285 62.8342 101.163C63.4239 100.041 65.4442 88.3516 64.4728 82.2757C64.4728 82.2745 64.2737 81.6161 63.5799 82.0811Z" fill="black"/>
<path opacity="0.1" d="M66.1825 82.0811C66.1825 82.0811 66.7253 95.8973 64.6289 101.163C64.6289 101.163 64.847 102.285 65.4368 101.163C66.0265 100.041 68.0468 88.3516 67.0753 82.2757C67.0753 82.2745 66.8813 81.6161 66.1825 82.0811Z" fill="black"/>
<path opacity="0.1" d="M72.5165 82.0811C72.5165 82.0811 71.9725 95.8973 74.0701 101.163C74.0701 101.163 73.8507 102.285 73.261 101.163C72.6712 100.041 70.6484 88.3504 71.6186 82.2745C71.6186 82.2745 71.8139 81.6161 72.5165 82.0811Z" fill="black"/>
<path opacity="0.1" d="M69.9115 82.0811C69.9115 82.0811 69.3674 95.8973 71.4651 101.163C71.4651 101.163 71.2457 102.285 70.656 101.163C70.0662 100.041 68.0472 88.3504 69.0174 82.2745C69.0174 82.2745 69.2127 81.6161 69.9115 82.0811Z" fill="black"/>
<path d="M71.1967 13.4541H64.1758V74.4951H71.1967V13.4541Z" fill="#4E5A86"/>
<path opacity="0.1" d="M72.9105 80.1527C72.8315 80.1736 72.7501 80.1842 72.6683 80.1843H62.7064C62.6576 80.1843 62.6088 80.1805 62.5605 80.1729L62.6354 79.5297C62.6708 79.2303 62.8152 78.9543 63.0412 78.754C63.2673 78.5537 63.5592 78.443 63.8617 78.4429H71.6182C71.9229 78.443 72.2168 78.5553 72.4434 78.7583C72.67 78.9612 72.8133 79.2404 72.8458 79.5423L72.9105 80.1527Z" fill="black"/>
<path opacity="0.1" d="M71.269 73.2756H64.1758V74.4951H71.269V73.2756Z" fill="black"/>
<path d="M72.5853 73.5081H62.787C62.2267 73.5081 61.7725 73.9607 61.7725 74.519V78.9407C61.7725 79.4991 62.2267 79.9517 62.787 79.9517H72.5853C73.1457 79.9517 73.5999 79.4991 73.5999 78.9407V74.519C73.5999 73.9607 73.1457 73.5081 72.5853 73.5081Z" fill="#4E5A86"/>
<path opacity="0.1" d="M65.657 13.4541H64.6475V71.5923H65.657V13.4541Z" fill="black"/>
<path opacity="0.1" d="M67.3464 13.4541H66.3369V71.5923H67.3464V13.4541Z" fill="black"/>
<path opacity="0.1" d="M69.0359 13.4541H68.0264V71.5923H69.0359V13.4541Z" fill="black"/>
<path opacity="0.1" d="M70.7263 13.4541H69.7168V71.5923H70.7263V13.4541Z" fill="black"/>
<path d="M71.6354 42.5991C71.6354 42.5991 69.3247 41.8825 69.6748 44.4175C70.0248 46.9525 70.9176 47.108 70.9176 47.108C70.9176 47.108 71.6938 46.9336 71.7914 45.9277C71.8891 44.9218 71.6354 42.5991 71.6354 42.5991Z" fill="#FFA2A2"/>
<g opacity="0.1">
<path d="M124.321 96.5999C126.266 99.4597 125.644 109.698 125.644 109.698C125.644 109.698 115.879 106.476 113.928 103.616C113.466 102.936 113.143 102.171 112.977 101.366C112.811 100.561 112.806 99.7317 112.962 98.9249C113.277 97.2953 114.228 95.8571 115.608 94.9268C116.987 93.9964 118.68 93.6499 120.315 93.9637C121.951 94.2775 123.394 95.2258 124.328 96.5999H124.321Z" fill="#F9A826"/>
<path opacity="0.1" d="M124.321 96.5999C126.266 99.4597 125.644 109.698 125.644 109.698C125.644 109.698 115.879 106.476 113.928 103.616C113.466 102.936 113.143 102.171 112.977 101.366C112.811 100.561 112.806 99.7317 112.962 98.9249C113.277 97.2953 114.228 95.8571 115.608 94.9268C116.987 93.9964 118.68 93.6499 120.315 93.9637C121.951 94.2775 123.394 95.2258 124.328 96.5999H124.321Z" fill="black"/>
<path d="M115.643 94.9369C115.643 94.9369 122.965 100.571 125.682 109.706" stroke="#535461" stroke-width="0.824995" stroke-miterlimit="10"/>
<path d="M127.526 101.945C127.526 101.945 122.326 101.061 125.878 109.643C125.878 109.643 129.491 108.272 129.772 104.857C129.828 104.193 129.638 103.531 129.237 102.997C128.836 102.463 128.253 102.094 127.597 101.961L127.526 101.945Z" fill="#F9A826"/>
<path d="M127.604 101.938C127.604 101.938 128.595 106.684 125.885 109.646" stroke="#535461" stroke-width="0.824995" stroke-miterlimit="10"/>
</g>
<g opacity="0.1">
<path d="M70.6211 88.037C70.6211 88.037 78.4308 68.1968 93.3616 60.6916C99.6292 57.5425 104.783 52.5533 107.902 46.2853C109.376 43.3105 110.574 40.2074 111.481 37.0148" stroke="#535461" stroke-width="1.64999" stroke-miterlimit="10"/>
<path d="M120.862 32.2291C119.319 34.2094 111.251 37.1664 111.251 37.1664C111.251 37.1664 112.126 28.644 113.668 26.665C114.03 26.1809 114.485 25.7735 115.006 25.4666C115.527 25.1598 116.105 24.9597 116.705 24.8781C117.305 24.7965 117.916 24.835 118.5 24.9913C119.085 25.1476 119.633 25.4187 120.112 25.7885C120.59 26.1584 120.99 26.6197 121.287 27.1454C121.585 27.671 121.774 28.2506 121.844 28.85C121.913 29.4494 121.862 30.0567 121.694 30.6362C121.525 31.2158 121.242 31.7561 120.862 32.2253V32.2291Z" fill="#F9A826"/>
<path d="M118.264 47.7929C115.89 48.6194 107.503 46.7314 107.503 46.7314C107.503 46.7314 112.887 40.0527 115.261 39.2262C115.825 39.0297 116.423 38.946 117.02 38.9797C117.617 39.0134 118.201 39.164 118.74 39.4228C119.279 39.6816 119.761 40.0436 120.159 40.4881C120.557 40.9325 120.864 41.4508 121.061 42.0133C121.258 42.5758 121.342 43.1715 121.308 43.7664C121.274 44.3613 121.123 44.9437 120.864 45.4803C120.604 46.017 120.241 46.4975 119.795 46.8943C119.348 47.2911 118.828 47.5964 118.264 47.7929Z" fill="#F9A826"/>
<path d="M103.407 66.3278C100.938 65.8475 94.6562 59.9991 94.6562 59.9991C94.6562 59.9991 102.688 56.9409 105.156 57.4224C105.743 57.5367 106.301 57.7651 106.799 58.0945C107.298 58.4239 107.726 58.8479 108.06 59.3422C108.394 59.8366 108.626 60.3915 108.745 60.9755C108.863 61.5595 108.865 62.161 108.751 62.7458C108.636 63.3305 108.407 63.887 108.076 64.3835C107.746 64.8799 107.32 65.3067 106.824 65.6393C106.328 65.9719 105.771 66.2039 105.185 66.322C104.599 66.4401 103.995 66.4421 103.408 66.3278H103.407Z" fill="#F9A826"/>
<path d="M88.995 77.8301C86.4814 77.7719 79.2969 73.0659 79.2969 73.0659C79.2969 73.0659 86.6932 68.6998 89.208 68.7579C89.8059 68.7718 90.3951 68.903 90.942 69.1438C91.489 69.3846 91.983 69.7305 92.3958 70.1615C92.8086 70.5926 93.1322 71.1005 93.348 71.6562C93.5639 72.2118 93.6678 72.8044 93.6538 73.4001C93.6398 73.9958 93.5082 74.5829 93.2665 75.1279C93.0248 75.6729 92.6777 76.1652 92.2451 76.5765C91.8125 76.9879 91.3028 77.3103 90.7452 77.5254C90.1875 77.7405 89.5928 77.844 88.995 77.8301Z" fill="#F9A826"/>
<path d="M99.6561 41.2799C100.006 43.7605 105.531 50.3242 105.531 50.3242C105.531 50.3242 109.024 42.4968 108.674 40.0149C108.489 38.8381 107.847 37.7811 106.887 37.072C105.926 36.3628 104.724 36.0585 103.54 36.2245C102.357 36.3905 101.286 37.0137 100.559 37.9595C99.8325 38.9053 99.5082 40.0979 99.6561 41.2799Z" fill="#F9A826"/>
<path d="M82.9712 54.9367C84.0505 57.2025 91.287 61.8163 91.287 61.8163C91.287 61.8163 92.2711 53.3052 91.1906 51.0419C90.9339 50.5038 90.5735 50.0214 90.1297 49.6221C89.6859 49.2228 89.1676 48.9145 88.6042 48.7149C88.0409 48.5152 87.4436 48.4281 86.8465 48.4584C86.2494 48.4887 85.6641 48.636 85.1241 48.8917C84.584 49.1475 84.0998 49.5067 83.6991 49.9489C83.2984 50.391 82.9891 50.9076 82.7887 51.4689C82.5883 52.0302 82.5008 52.6254 82.5313 53.2204C82.5618 53.8154 82.7095 54.3986 82.9662 54.9367H82.9712Z" fill="#F9A826"/>
<path d="M68.5852 70.4348C69.265 72.8472 75.6213 78.6173 75.6213 78.6173C75.6213 78.6173 78.031 70.3943 77.3537 67.9819C77.0141 66.8385 76.2364 65.8742 75.1888 65.2977C74.1413 64.7211 72.9081 64.5785 71.7559 64.9008C70.6037 65.2232 69.6251 65.9844 69.0318 67.02C68.4385 68.0556 68.278 69.2823 68.5852 70.4348Z" fill="#F9A826"/>
</g>
<g opacity="0.1">
<path d="M69.3291 52.3018C69.3291 52.3018 72.1509 45.1328 77.5447 42.4234C79.8145 41.3006 81.6577 39.4746 82.7976 37.2194C83.3306 36.1449 83.7636 35.0239 84.0912 33.8706" stroke="#535461" stroke-width="1.64999" stroke-miterlimit="10"/>
<path d="M87.4822 32.1431C86.9241 32.8584 84.0098 33.9262 84.0098 33.9262C84.0098 33.9262 84.3256 30.8478 84.8836 30.1351C85.0089 29.9468 85.1719 29.7864 85.3624 29.6637C85.5528 29.5411 85.7666 29.4589 85.9903 29.4223C86.2141 29.3857 86.443 29.3955 86.6628 29.4511C86.8825 29.5067 87.0885 29.6068 87.2676 29.7453C87.4468 29.8837 87.5954 30.0575 87.7041 30.2558C87.8128 30.4541 87.8793 30.6725 87.8995 30.8976C87.9196 31.1226 87.8929 31.3494 87.8211 31.5637C87.7493 31.778 87.6339 31.9752 87.4822 32.1431Z" fill="#F9A826"/>
<path d="M86.5414 37.7653C85.6841 38.0636 82.6543 37.3862 82.6543 37.3862C82.6543 37.3862 84.5985 34.9725 85.4558 34.6743C85.6635 34.5862 85.8871 34.5415 86.1128 34.543C86.3385 34.5445 86.5615 34.5922 86.7679 34.6831C86.9744 34.774 87.1599 34.9061 87.313 35.0714C87.4662 35.2366 87.5836 35.4314 87.6581 35.6437C87.7325 35.856 87.7625 36.0813 87.746 36.3056C87.7295 36.5299 87.667 36.7485 87.5623 36.9477C87.4576 37.147 87.313 37.3227 87.1374 37.464C86.9618 37.6053 86.7589 37.7091 86.5414 37.7691V37.7653Z" fill="#F9A826"/>
<path d="M81.1721 44.4617C80.2844 44.2873 78.0117 42.1743 78.0117 42.1743C78.0117 42.1743 80.9121 41.0699 81.8037 41.2443C82.0272 41.2733 82.2424 41.3477 82.436 41.4629C82.6295 41.5781 82.7973 41.7316 82.9289 41.9139C83.0606 42.0963 83.1533 42.3036 83.2013 42.523C83.2494 42.7425 83.2518 42.9695 83.2083 43.1899C83.1649 43.4103 83.0766 43.6195 82.9488 43.8045C82.821 43.9896 82.6565 44.1466 82.4654 44.2658C82.2743 44.3849 82.0607 44.4638 81.8379 44.4975C81.615 44.5312 81.3875 44.519 81.1696 44.4617H81.1721Z" fill="#F9A826"/>
<path d="M75.9667 48.6168C75.0587 48.5953 72.4639 46.8956 72.4639 46.8956C72.4639 46.8956 75.136 45.3172 76.0441 45.3387C76.4615 45.3751 76.8494 45.5686 77.1289 45.8797C77.4084 46.1909 77.5584 46.5964 77.5486 47.0139C77.5387 47.4314 77.3697 47.8294 77.0759 48.1272C76.782 48.4249 76.3854 48.6 75.9667 48.6168Z" fill="#F9A826"/>
<path d="M79.8167 35.4098C79.9435 36.3058 81.9397 38.6778 81.9397 38.6778C81.9397 38.6778 83.2079 35.8496 83.0811 34.9536C83.0646 34.7293 83.0021 34.5107 82.8973 34.3114C82.7926 34.1121 82.6479 33.9364 82.4723 33.7951C82.2966 33.6538 82.0937 33.55 81.8761 33.4901C81.6585 33.4301 81.4309 33.4153 81.2074 33.4466C80.9838 33.478 80.7691 33.5547 80.5765 33.672C80.3839 33.7894 80.2176 33.9449 80.0878 34.129C79.958 34.3131 79.8675 34.5217 79.822 34.742C79.7764 34.9623 79.7768 35.1896 79.823 35.4098H79.8167Z" fill="#F9A826"/>
<path d="M73.7845 40.3458C74.1751 41.1635 76.7915 42.8316 76.7915 42.8316C76.7915 42.8316 77.1466 39.757 76.756 38.9393C76.5514 38.5764 76.2161 38.3044 75.818 38.1784C75.4199 38.0523 74.9885 38.0815 74.6112 38.2601C74.2339 38.4387 73.9386 38.7534 73.7852 39.1406C73.6317 39.5277 73.6315 39.9585 73.7845 40.3458Z" fill="#F9A826"/>
<path d="M68.5932 45.9453C68.8393 46.816 71.1297 48.9011 71.1297 48.9011C71.1297 48.9011 72.0098 45.9301 71.7562 45.0582C71.7076 44.8402 71.6149 44.6344 71.4839 44.4534C71.3528 44.2723 71.186 44.1197 70.9938 44.005C70.8016 43.8903 70.5879 43.8159 70.3658 43.7862C70.1438 43.7565 69.918 43.7723 69.7022 43.8325C69.4864 43.8926 69.2853 43.996 69.1109 44.1363C68.9366 44.2766 68.7928 44.4508 68.6883 44.6483C68.5838 44.8458 68.5208 45.0624 68.5032 45.285C68.4855 45.5076 68.5136 45.7314 68.5856 45.9428L68.5932 45.9453Z" fill="#F9A826"/>
</g>
<g opacity="0.1">
<path d="M93.0938 111.764C93.0938 111.764 93.213 104.066 97.3106 99.6429C99.0422 97.7993 100.126 95.4454 100.4 92.9351C100.52 91.7423 100.531 90.541 100.432 89.3462" stroke="#535461" stroke-width="1.64999" stroke-miterlimit="10"/>
<path d="M102.997 86.5445C102.727 87.4051 100.373 89.427 100.373 89.427C100.373 89.427 99.5871 86.4321 99.8573 85.5677C100.009 85.1805 100.303 84.8651 100.679 84.685C101.055 84.505 101.485 84.4737 101.884 84.5974C102.282 84.7212 102.618 84.9907 102.825 85.3518C103.032 85.7129 103.093 86.1387 102.997 86.5433V86.5445Z" fill="#F9A826"/>
<path d="M104.096 92.1376C103.397 92.7164 100.32 93.1372 100.32 93.1372C100.32 93.1372 101.292 90.1978 101.991 89.6178C102.329 89.3722 102.749 89.2641 103.164 89.3155C103.58 89.3669 103.96 89.574 104.228 89.8947C104.496 90.2154 104.632 90.6257 104.607 91.0423C104.582 91.4588 104.4 91.8505 104.096 92.1376Z" fill="#F9A826"/>
<path d="M101.432 100.284C100.536 100.433 97.667 99.2474 97.667 99.2474C97.667 99.2474 99.9954 97.1989 100.891 97.0498C101.307 97.0083 101.724 97.1262 102.056 97.3796C102.389 97.6329 102.612 98.0027 102.681 98.4141C102.75 98.8254 102.659 99.2474 102.427 99.5946C102.195 99.9418 101.84 100.188 101.432 100.284Z" fill="#F9A826"/>
<path d="M98.0082 105.994C97.1496 106.291 94.1211 105.606 94.1211 105.606C94.1211 105.606 96.0742 103.201 96.9315 102.898C97.1397 102.809 97.3642 102.763 97.5909 102.764C97.8176 102.765 98.0418 102.812 98.2493 102.903C98.4568 102.994 98.6432 103.127 98.7969 103.293C98.9506 103.459 99.0682 103.655 99.1424 103.869C99.2167 104.082 99.2459 104.309 99.2284 104.534C99.2108 104.759 99.1468 104.978 99.0403 105.178C98.9339 105.377 98.7873 105.553 98.6097 105.693C98.4321 105.834 98.2273 105.936 98.0082 105.994Z" fill="#F9A826"/>
<path d="M96.972 92.2805C97.4057 93.0767 100.11 94.5994 100.11 94.5994C100.11 94.5994 100.296 91.5109 99.8559 90.7148C99.6319 90.3633 99.2822 90.1096 98.8777 90.0052C98.4731 89.9007 98.0438 89.9532 97.6766 90.1522C97.3095 90.3511 97.0318 90.6815 96.8998 91.0766C96.7678 91.4717 96.7913 91.902 96.9656 92.2805H96.972Z" fill="#F9A826"/>
<path d="M93.0623 99.0098C93.7154 99.6416 96.7528 100.286 96.7528 100.286C96.7528 100.286 96.0033 97.2835 95.3502 96.6529C95.0299 96.3901 94.6221 96.2573 94.208 96.2809C93.7938 96.3045 93.4038 96.4827 93.1157 96.7802C92.8276 97.0776 92.6627 97.4723 92.6537 97.8855C92.6447 98.2988 92.7924 98.7002 93.0673 99.0098H93.0623Z" fill="#F9A826"/>
<path d="M90.1684 106.069C90.7049 106.799 93.5926 107.949 93.5926 107.949C93.5926 107.949 93.3631 104.862 92.8317 104.132C92.5628 103.812 92.1819 103.606 91.7665 103.556C91.351 103.506 90.932 103.616 90.5944 103.862C90.2568 104.108 90.0259 104.474 89.9484 104.883C89.871 105.293 89.9528 105.717 90.1773 106.069H90.1684Z" fill="#F9A826"/>
</g>
<g opacity="0.1">
<path d="M74.0781 110.554C74.0781 110.554 74.1973 102.854 78.295 98.4309C80.0266 96.5874 81.1107 94.2334 81.3844 91.7232C81.5049 90.5307 81.5155 89.3298 81.4161 88.1355" stroke="#535461" stroke-width="1.64999" stroke-miterlimit="10"/>
<path d="M83.9818 85.3327C83.7116 86.197 81.3578 88.2164 81.3578 88.2164C81.3578 88.2164 80.5715 85.2227 80.8417 84.3583C80.8933 84.1386 80.9898 83.9318 81.1251 83.7508C81.2605 83.5699 81.4318 83.4187 81.6284 83.3066C81.8251 83.1946 82.0427 83.1241 82.2679 83.0996C82.4931 83.075 82.7209 83.097 82.9371 83.1641C83.1534 83.2312 83.3535 83.342 83.5249 83.4896C83.6963 83.6371 83.8353 83.8183 83.9333 84.0218C84.0313 84.2252 84.0862 84.4466 84.0945 84.6722C84.1029 84.8977 84.0645 85.1226 83.9818 85.3327Z" fill="#F9A826"/>
<path d="M85.0821 90.9258C84.3834 91.5059 81.3066 91.9254 81.3066 91.9254C81.3066 91.9254 82.2781 88.986 82.9769 88.4072C83.3154 88.1637 83.7341 88.0573 84.1483 88.1094C84.5625 88.1615 84.9415 88.3682 85.2087 88.6879C85.4759 89.0075 85.6115 89.4163 85.588 89.8317C85.5645 90.2471 85.3837 90.6381 85.0821 90.9258Z" fill="#F9A826"/>
<path d="M82.4109 99.0729C81.5142 99.2208 78.6455 98.0354 78.6455 98.0354C78.6455 98.0354 80.974 95.9869 81.8693 95.8391C82.089 95.7876 82.3169 95.7816 82.5389 95.8214C82.761 95.8612 82.9725 95.946 83.1604 96.0706C83.3482 96.1951 83.5084 96.3568 83.631 96.5455C83.7536 96.7343 83.836 96.9461 83.8732 97.1678C83.9103 97.3896 83.9014 97.6166 83.8469 97.8348C83.7924 98.053 83.6936 98.2577 83.5565 98.4363C83.4194 98.6149 83.247 98.7635 83.05 98.873C82.8529 98.9825 82.6354 99.0506 82.4109 99.0729Z" fill="#F9A826"/>
<path d="M78.9965 104.782C78.1379 105.081 75.1094 104.394 75.1094 104.394C75.1094 104.394 77.0574 101.985 77.9147 101.685C78.1225 101.597 78.3462 101.553 78.5719 101.554C78.7976 101.556 79.0206 101.604 79.227 101.695C79.4334 101.786 79.6188 101.919 79.7718 102.084C79.9247 102.25 80.0419 102.445 80.1161 102.657C80.1904 102.869 80.22 103.095 80.2033 103.319C80.1865 103.543 80.1237 103.762 80.0187 103.961C79.9138 104.16 79.7689 104.336 79.593 104.477C79.4172 104.618 79.2141 104.721 78.9965 104.781V104.782Z" fill="#F9A826"/>
<path d="M77.9558 91.0699C78.3895 91.866 81.0934 93.3888 81.0934 93.3888C81.0934 93.3888 81.2798 90.3003 80.8397 89.5042C80.7486 89.2949 80.6147 89.1069 80.4466 88.9521C80.2786 88.7972 80.08 88.6789 79.8635 88.6048C79.647 88.5306 79.4174 88.5022 79.1893 88.5213C78.9612 88.5404 78.7396 88.6066 78.5386 88.7157C78.3376 88.8249 78.1616 88.9745 78.0218 89.1551C77.882 89.3358 77.7815 89.5434 77.7267 89.7649C77.6719 89.9863 77.6639 90.2167 77.7034 90.4414C77.7428 90.6661 77.8288 90.8801 77.9558 91.0699Z" fill="#F9A826"/>
<path d="M74.0487 97.7979C74.7019 98.4297 77.7393 99.0755 77.7393 99.0755C77.7393 99.0755 76.9898 96.0717 76.3366 95.4423C76.1862 95.2717 76.0019 95.134 75.7954 95.0379C75.5889 94.9419 75.3647 94.8895 75.1368 94.8841C74.909 94.8788 74.6825 94.9205 74.4717 95.0068C74.2608 95.0931 74.0702 95.2219 73.9119 95.3853C73.7536 95.5487 73.631 95.743 73.5518 95.9559C73.4727 96.1689 73.4387 96.3959 73.452 96.6226C73.4654 96.8493 73.5257 97.0708 73.6293 97.2731C73.7329 97.4754 73.8774 97.6541 74.0538 97.7979H74.0487Z" fill="#F9A826"/>
<path d="M71.1521 104.857C71.6886 105.587 74.5763 106.737 74.5763 106.737C74.5763 106.737 74.3468 103.65 73.8154 102.92C73.6943 102.73 73.5354 102.567 73.3486 102.441C73.1618 102.315 72.951 102.228 72.7292 102.187C72.5075 102.145 72.2795 102.149 72.0594 102.199C71.8394 102.249 71.6319 102.343 71.4499 102.476C71.2678 102.609 71.1151 102.777 71.0011 102.971C70.8872 103.165 70.8144 103.381 70.7873 103.604C70.7602 103.827 70.7794 104.054 70.8437 104.269C70.908 104.485 71.016 104.685 71.161 104.857H71.1521Z" fill="#F9A826"/>
</g>
<path d="M65.4154 20.7899C65.6691 21.5684 64.9817 24.2778 64.9817 24.2778C64.9817 24.2778 62.8409 22.4744 62.5898 21.6922C62.52 21.5047 62.4891 21.3051 62.4988 21.1054C62.5086 20.9057 62.5589 20.71 62.6467 20.5302C62.7344 20.3504 62.8579 20.1902 63.0095 20.0592C63.1611 19.9282 63.3378 19.8292 63.5289 19.7682C63.72 19.7072 63.9216 19.6854 64.1214 19.7041C64.3211 19.7229 64.515 19.7818 64.6914 19.8773C64.8677 19.9728 65.0227 20.1029 65.1472 20.2597C65.2716 20.4166 65.3629 20.5969 65.4154 20.7899Z" fill="#F9A826"/>
<path d="M54.8887 38.1204C55.1423 38.8989 54.455 41.6083 54.455 41.6083C54.455 41.6083 52.3117 39.8049 52.0606 39.0265C52.0008 38.8415 51.9783 38.6465 51.9942 38.4528C52.0101 38.2591 52.0641 38.0704 52.1532 37.8975C52.2423 37.7246 52.3647 37.5708 52.5134 37.4451C52.6621 37.3193 52.8343 37.2239 53.02 37.1644C53.2057 37.1049 53.4013 37.0825 53.5957 37.0983C53.7901 37.1142 53.9795 37.168 54.153 37.2568C54.3266 37.3455 54.4808 37.4675 54.6071 37.6157C54.7333 37.7639 54.829 37.9354 54.8887 38.1204Z" fill="#F9A826"/>
<path d="M77.0647 30.4813C77.3183 31.2598 76.6297 33.9691 76.6297 33.9691C76.6297 33.9691 74.4876 32.1671 74.2365 31.3887C74.1158 31.015 74.149 30.6088 74.3288 30.2594C74.5086 29.9101 74.8203 29.6463 75.1953 29.5259C75.5703 29.4056 75.978 29.4387 76.3286 29.6178C76.6791 29.797 76.9439 30.1076 77.0647 30.4813Z" fill="#F9A826"/>
<path d="M88.5379 43.5772C88.7915 44.3544 88.1042 47.0638 88.1042 47.0638C88.1042 47.0638 85.9609 45.2617 85.7072 44.4833C85.6427 44.2971 85.6162 44.1 85.6292 43.9034C85.6422 43.7069 85.6944 43.5149 85.7828 43.3388C85.8712 43.1626 85.994 43.0058 86.144 42.8775C86.294 42.7493 86.4681 42.6521 86.6563 42.5918C86.8445 42.5315 87.0428 42.5093 87.2397 42.5263C87.4367 42.5434 87.6282 42.5994 87.8031 42.6912C87.9779 42.783 88.1327 42.9086 88.2582 43.0608C88.3837 43.2129 88.4775 43.3885 88.5341 43.5772H88.5379Z" fill="#F9A826"/>
<path d="M80.7966 22.0713C80.3794 22.7752 77.8911 24.0629 77.8911 24.0629C77.8911 24.0629 77.8213 21.2701 78.2386 20.5663C78.4389 20.2283 78.7657 19.9834 79.1472 19.8855C79.5287 19.7876 79.9336 19.8448 80.2728 20.0443C80.612 20.2439 80.8578 20.5696 80.956 20.9497C81.0542 21.3299 80.9969 21.7333 80.7966 22.0713Z" fill="#F9A826"/>
<path d="M108.856 19.9622C108.439 20.6661 105.95 21.9538 105.95 21.9538C105.95 21.9538 105.882 19.1598 106.299 18.4572C106.396 18.2857 106.527 18.1353 106.683 18.0146C106.839 17.894 107.018 17.8056 107.208 17.7547C107.399 17.7037 107.598 17.6912 107.794 17.7179C107.99 17.7445 108.178 17.8098 108.348 17.91C108.518 18.0101 108.667 18.143 108.784 18.3009C108.902 18.4589 108.987 18.6387 109.035 18.8298C109.082 19.0209 109.091 19.2195 109.06 19.414C109.029 19.6084 108.96 19.7948 108.856 19.9622Z" fill="#F9A826"/>
<path d="M52.3527 25.386C51.5588 25.592 48.8828 24.7542 48.8828 24.7542C48.8828 24.7542 50.8118 22.7259 51.6057 22.5199C51.7945 22.4711 51.9912 22.4597 52.1845 22.4866C52.3777 22.5135 52.5638 22.578 52.732 22.6765C52.9002 22.775 53.0474 22.9056 53.1649 23.0608C53.2825 23.2159 53.3683 23.3926 53.4173 23.5808C53.4664 23.769 53.4778 23.965 53.4508 24.1576C53.4238 24.3501 53.3591 24.5355 53.2602 24.7032C53.1613 24.8708 53.0303 25.0174 52.8746 25.1345C52.7189 25.2517 52.5415 25.3372 52.3527 25.386Z" fill="#F9A826"/>
<path d="M78.0622 57.3667C77.645 58.0706 75.1567 59.3583 75.1567 59.3583C75.1567 59.3583 75.087 56.5655 75.5042 55.8617C75.6034 55.6943 75.7347 55.548 75.8906 55.4312C76.0465 55.3144 76.224 55.2294 76.4129 55.1809C76.6018 55.1324 76.7984 55.1215 76.9915 55.1488C77.1846 55.176 77.3705 55.2409 77.5385 55.3398C77.7064 55.4386 77.8532 55.5694 77.9704 55.7247C78.0876 55.8801 78.173 56.0569 78.2216 56.2452C78.2703 56.4334 78.2812 56.6293 78.2539 56.8217C78.2265 57.0142 78.1614 57.1994 78.0622 57.3667Z" fill="#F9A826"/>
<defs>
<linearGradient id="paint0_linear_1304_23451" x1="41.207" y1="111.125" x2="41.207" y2="31.6376" gradientUnits="userSpaceOnUse">
<stop stop-color="#808080" stop-opacity="0.25"/>
<stop offset="0.54" stop-color="#808080" stop-opacity="0.12"/>
<stop offset="1" stop-color="#808080" stop-opacity="0.1"/>
</linearGradient>
</defs>
</svg>
