<svg width="128" height="124" viewBox="0 0 128 124" fill="none" xmlns="http://www.w3.org/2000/svg">
<path d="M67.579 91.9009C66.0491 92.1354 64.9299 93.1149 65.0793 94.0886C65.2287 95.0622 66.5899 95.6612 68.1204 95.4264C68.7331 95.341 69.3164 95.1101 69.8215 94.753L76.2915 93.6776L75.8597 91.1201L69.4043 92.0336C68.8152 91.8442 68.1893 91.7987 67.579 91.9009Z" fill="#FFB6B6"/>
<path d="M95.4598 83.9288L92.951 89.2523L80.3392 93.4979L69.8739 94.0562L69.6118 91.5426L80.9537 89.1711L92.592 83.6714L95.4598 83.9288Z" fill="#E6E6E6"/>
<path d="M66.8454 72.7922L66.5015 72.7998L67.1589 102.677L67.5029 102.669L66.8454 72.7922Z" fill="#3F3D56"/>
<path d="M66.8533 86.0207C66.8222 85.9147 66.1092 83.395 67.6531 80.9182L67.945 81.1003C66.485 83.4422 67.1763 85.8995 67.1834 85.9242L66.8533 86.0207Z" fill="#3F3D56"/>
<path d="M67.7732 81.1094C67.7732 81.1094 67.3039 77.9013 71.6278 77.0209C72.5286 76.8374 73.3755 76.7121 74.1518 76.6285C75.0681 76.53 75.4256 77.7843 74.5978 78.1895C73.3989 78.7762 72.2712 79.5155 71.6834 80.391C70.0623 82.8055 67.7732 81.1094 67.7732 81.1094Z" fill="#F9A826"/>
<path d="M67.2982 95.2981L66.9681 95.2015C66.9753 95.1768 67.6665 92.7195 66.2065 90.3776L66.4984 90.1956C68.0424 92.6723 67.3294 95.1921 67.2982 95.2981Z" fill="#3F3D56"/>
<path d="M66.3773 90.3868C66.3773 90.3868 66.8467 87.1787 62.5227 86.2982C61.6219 86.1148 60.775 85.9894 59.9987 85.9059C59.0824 85.8073 58.7249 87.0617 59.5527 87.4668C60.7516 88.0536 61.8793 88.7929 62.4671 89.6683C64.0882 92.0828 66.3773 90.3868 66.3773 90.3868Z" fill="#F9A826"/>
<path d="M72.3955 68.6438C73.2658 68.4143 74.0797 68.0144 74.0527 67.6189C74.0207 67.149 72.8123 66.8341 71.7699 66.7862C72.5562 66.171 73.2786 65.3207 73.0577 64.9361C72.8546 64.5826 71.9097 64.7195 71.0379 65.0309C71.5538 64.2933 71.9165 63.4622 71.6403 63.1778C71.2962 62.8235 70.075 63.435 69.2416 64.111C69.4038 63.0579 69.3218 61.7286 68.8495 61.6084C68.4543 61.5077 67.8943 62.281 67.5103 63.1233C67.3406 62.2394 66.9971 61.4001 66.6006 61.4001C66.0358 61.4001 65.5779 63.1031 65.5779 64.2125C65.5779 64.2753 65.5796 64.3343 65.5824 64.3907C65.5257 64.325 65.4608 64.2563 65.3867 64.1844C64.5908 63.4114 63.0501 62.5535 62.6566 62.9586C62.3804 63.2431 62.7431 64.0742 63.259 64.8118C62.3873 64.5004 61.4424 64.3634 61.2393 64.717C60.9663 65.192 62.1329 66.378 63.0812 66.9531C63.0242 66.9462 62.9643 66.9404 62.9006 66.9361C61.7937 66.8606 60.0635 67.2015 60.0251 67.765C59.9981 68.1605 60.812 68.5604 61.6823 68.7899C60.8158 69.1156 60.0062 69.6217 60.0797 70.0228C60.1689 70.5096 61.5292 70.68 62.5987 70.5802C61.7997 71.3468 60.9333 72.7202 61.2948 73.1227C61.5598 73.4176 62.4137 73.1123 63.1847 72.6478C62.8147 73.4964 62.6137 74.4298 62.9526 74.6565C63.4005 74.9561 64.6289 73.9133 65.2765 73.016C65.2105 74.1137 65.4732 75.6218 65.9943 75.6813C66.3883 75.7263 66.8248 74.9314 67.0937 74.0724C67.3796 74.9529 67.8483 75.7847 68.2523 75.7296C68.7776 75.6579 69.0067 74.1121 68.9087 73.0136C69.5767 73.874 70.701 74.7941 71.1252 74.5104C71.4641 74.2837 71.2631 73.3503 70.8931 72.5017C71.6641 72.9662 72.518 73.2715 72.783 72.9766C73.1445 72.5741 72.2781 71.2007 71.4791 70.4341C72.5486 70.5339 73.9089 70.3635 73.9981 69.8767C74.0716 69.4756 73.262 68.9695 72.3955 68.6438ZM67.7091 71.7488C67.4854 71.7793 67.2808 71.8229 67.1252 71.9342C66.96 71.7701 66.7186 71.7202 66.4502 71.6895C66.1497 71.6552 65.8766 71.6519 65.6683 71.8253C65.5921 71.6135 65.4047 71.463 65.1865 71.317C64.9988 71.1915 64.8168 71.0884 64.6265 71.0686C64.6117 70.8362 64.4642 70.6387 64.2836 70.4377C64.1685 70.3096 64.0534 70.195 63.9256 70.1184C64.1099 69.8939 64.0887 69.6102 64.0316 69.2988C63.9909 69.0767 63.9381 68.8743 63.8198 68.724C63.9761 68.5514 64.0151 68.308 64.0334 68.0385C64.0535 67.7442 64.0452 67.4774 63.8753 67.2787C64.3143 67.3345 64.5261 67.0611 64.723 66.7183C64.8355 66.5226 64.9259 66.3339 64.9328 66.1428C65.1636 66.1121 65.3507 65.9515 65.5388 65.7577C65.6996 65.5922 65.8364 65.4283 65.8877 65.2396C66.072 65.3944 66.3233 65.4178 66.6006 65.4178C66.8707 65.4178 67.1162 65.3956 67.2991 65.2513C67.441 65.3796 67.6393 65.4461 67.8581 65.5018C68.067 65.555 68.2641 65.5906 68.4434 65.5548C68.5089 65.7043 68.6252 65.84 68.7581 65.9769C68.9463 66.1707 69.1333 66.3313 69.3641 66.3619C69.371 66.5531 69.4614 66.7417 69.5739 66.9375C69.7063 67.1679 69.8454 67.3672 70.0557 67.4561C70.0311 67.59 70.0338 67.7373 70.0443 67.8924C70.0627 68.1619 70.1016 68.4053 70.258 68.5779C70.1397 68.7282 70.0868 68.9306 70.0462 69.1527C69.9891 69.4641 69.9678 69.7478 70.1522 69.9723C70.0244 70.0489 69.9093 70.1635 69.7942 70.2916C69.6136 70.4926 69.4661 70.6901 69.4513 70.9225C69.261 70.9423 69.079 71.0454 68.8913 71.1709C68.635 71.3424 68.4215 71.5201 68.3805 71.7961C68.1881 71.7028 67.9578 71.7148 67.7091 71.7488Z" fill="#F9A826"/>
<path d="M67.1124 72.2844C69.1296 72.2844 70.7649 70.6492 70.7649 68.632C70.7649 66.6148 69.1296 64.9795 67.1124 64.9795C65.0952 64.9795 63.46 66.6148 63.46 68.632C63.46 70.6492 65.0952 72.2844 67.1124 72.2844Z" fill="#3F3D56"/>
<path d="M23.062 112.922C23.062 113.035 23.1532 113.126 23.2667 113.126H113.085C113.198 113.126 113.289 113.035 113.289 112.922C113.289 112.808 113.198 112.717 113.085 112.717H23.2667C23.1532 112.717 23.062 112.808 23.062 112.922Z" fill="#3F3D56"/>
<path d="M72.1989 104.142L69.9465 109.84L67.0317 107.852L68.7541 101.89L72.1989 104.142Z" fill="#FFB6B6"/>
<path d="M62.7922 102.023L56.8301 107.72L59.2149 110.237L65.3095 105.467L62.7922 102.023Z" fill="#FFB6B6"/>
<path d="M96.5772 83.4741L96.5109 83.0103L94.9873 80.0293L89.9526 81.3542L90.8801 85.4614L96.5772 83.4741Z" fill="#FFB6B6"/>
<path d="M94.4571 103.348L94.612 105.338C94.612 105.338 95.2521 113.682 90.0849 114.344C84.9178 115.007 82.6655 115.669 79.6182 110.502L74.8485 102.023L72.0625 105.338L68.3564 102.42C68.3564 102.42 71.0063 92.086 73.1261 91.6885C73.3911 91.6388 73.6561 91.614 73.9169 91.6085C75.6719 91.572 77.3262 92.4304 78.3763 93.837L84.3878 101.89L86.5739 100.897L94.4571 103.348Z" fill="#2F2E41"/>
<path d="M65.8387 109.575L67.0311 107.322L70.4759 109.707C70.4759 109.707 71.2708 112.622 70.0784 113.019C68.886 113.417 65.5737 112.887 65.5737 112.887C65.5737 112.887 59.4792 114.212 59.3467 113.019C59.2142 111.827 62.129 111.562 62.129 111.562L65.8387 109.575Z" fill="#2F2E41"/>
<path d="M78.8233 107.985L69.6151 102.183L64.9117 106.395L61.7319 102.685C61.7319 102.685 67.5615 94.0731 69.2839 93.6756C71.0063 93.2782 73.7886 93.0132 73.7886 93.0132L82.268 100.83L78.8233 107.985Z" fill="#2F2E41"/>
<path d="M56.6976 107.19L59.7449 110.502L59.3431 110.846C59.3431 110.846 58.5525 114.289 56.6976 113.124C54.8428 111.959 54.7103 111.694 54.7103 111.694C54.7103 111.694 49.4106 112.887 48.8807 110.767C48.3507 108.647 49.8081 109.045 49.8081 109.045L51.1315 109.84L56.6976 107.19Z" fill="#2F2E41"/>
<path d="M91.542 82.8114C93.8835 82.8114 95.7817 80.9133 95.7817 78.5717C95.7817 76.2302 93.8835 74.332 91.542 74.332C89.2004 74.332 87.3022 76.2302 87.3022 78.5717C87.3022 80.9133 89.2004 82.8114 91.542 82.8114Z" fill="#FFB6B6"/>
<path d="M90.5486 84.6L96.6432 82.7451C96.6432 82.7451 99.028 88.3097 98.6305 90.8271C98.2331 93.3444 94.6119 105.337 94.6119 105.337L86.5739 100.896C86.5739 100.896 86.4414 98.2465 86.0439 97.0541C85.6464 95.8617 84.3878 92.2182 87.1701 89.1709C89.9524 86.1236 90.5486 84.6 90.5486 84.6Z" fill="#E6E6E6"/>
<path d="M31.0293 42.8237L30.6855 42.8313L32.2333 113.167L32.577 113.159L31.0293 42.8237Z" fill="#3F3D56"/>
<path d="M31.5036 73.8955C31.486 73.8353 29.7809 67.8149 33.3608 62.0723L33.6527 62.2542C30.1534 67.8676 31.8164 73.7399 31.8336 73.7987L31.5036 73.8955Z" fill="#3F3D56"/>
<path d="M33.4463 62.3989C33.4463 62.3989 32.3413 54.8464 42.5206 52.7737C44.6413 52.3419 46.635 52.0467 48.4625 51.8501C50.6197 51.618 51.4612 54.571 49.5124 55.5248C46.6902 56.9061 44.0353 58.6465 42.6515 60.7075C38.8351 66.3916 33.4463 62.3989 33.4463 62.3989Z" fill="#F9A826"/>
<path d="M32.1041 95.7356L31.7741 95.6389C31.7912 95.5803 33.4511 89.7024 29.9551 84.0944L30.247 83.9124C33.8268 89.655 32.1218 95.6755 32.1041 95.7356Z" fill="#3F3D56"/>
<path d="M30.1605 84.2392C30.1605 84.2392 31.2655 76.6868 21.0862 74.614C18.9655 74.1822 16.9718 73.8871 15.1443 73.6904C12.987 73.4583 12.1456 76.4113 14.0943 77.3651C16.9166 78.7465 19.5715 80.4868 20.9552 82.5478C24.7717 88.2319 30.1605 84.2392 30.1605 84.2392Z" fill="#F9A826"/>
<path d="M44.3277 33.0527C46.3766 32.5125 48.2926 31.5711 48.2291 30.6399C48.1536 29.5337 45.309 28.7924 42.8549 28.6796C44.7059 27.2315 46.4067 25.2297 45.8866 24.3243C45.4084 23.492 43.184 23.8144 41.1317 24.5475C42.3462 22.8111 43.2001 20.8545 42.5498 20.1849C41.7398 19.3508 38.8649 20.7904 36.9028 22.3818C37.2848 19.9026 37.0917 16.7733 35.9797 16.4902C35.0495 16.2533 33.7311 18.0737 32.8272 20.0567C32.4277 17.9757 31.6189 16 30.6855 16C29.3559 16 28.278 20.009 28.278 22.6208C28.278 22.7685 28.2819 22.9075 28.2886 23.0403C28.1552 22.8855 28.0022 22.7239 27.8278 22.5545C25.9541 20.7348 22.3272 18.7151 21.4008 19.669C20.7505 20.3386 21.6044 22.2952 22.8189 24.0315C20.7666 23.2985 18.5422 22.9761 18.0641 23.8084C17.4216 24.9268 20.1679 27.7187 22.4002 29.0726C22.266 29.0564 22.1251 29.0428 21.975 29.0326C19.3692 28.8548 15.2962 29.6573 15.2056 30.9838C15.1421 31.9151 17.0581 32.8564 19.1071 33.3967C17.0672 34.1635 15.1613 35.3549 15.3343 36.2991C15.5442 37.4451 18.7465 37.8462 21.2644 37.6114C19.3834 39.4162 17.3437 42.6493 18.1949 43.5968C18.8187 44.2911 20.8289 43.5724 22.6439 42.479C21.7728 44.4766 21.2997 46.6739 22.0976 47.2076C23.152 47.9129 26.0438 45.4581 27.5685 43.3458C27.4131 45.9299 28.0314 49.4801 29.2583 49.6202C30.1857 49.7261 31.2134 47.8549 31.8464 45.8327C32.5195 47.9055 33.6228 49.8637 34.5739 49.7339C35.8107 49.5651 36.3499 45.9261 36.1192 43.3401C37.6919 45.3654 40.3387 47.5316 41.3372 46.8637C42.135 46.3299 41.6619 44.1326 40.7908 42.135C42.6059 43.2285 44.6161 43.9472 45.2398 43.2528C46.091 42.3053 44.0514 39.0723 42.1703 37.2675C44.6882 37.5023 47.8905 37.1011 48.1005 35.9552C48.2735 35.011 46.3676 33.8196 44.3277 33.0527ZM33.2951 40.3624C32.7684 40.4342 32.2869 40.5369 31.9206 40.7989C31.5316 40.4127 30.9633 40.2951 30.3314 40.2229C29.624 40.1421 28.9811 40.1343 28.4908 40.5426C28.3114 40.044 27.8703 39.6897 27.3565 39.346C26.9146 39.0505 26.4862 38.8079 26.0382 38.7611C26.0032 38.214 25.656 37.749 25.231 37.2759C24.96 36.9743 24.6889 36.7046 24.3881 36.5242C24.8221 35.9957 24.7721 35.3277 24.6378 34.5947C24.542 34.0718 24.4175 33.5954 24.139 33.2415C24.5071 32.8352 24.5988 32.2622 24.642 31.6277C24.6893 30.935 24.6697 30.3068 24.2698 29.8391C25.3032 29.9706 25.8019 29.3268 26.2654 28.5199C26.5302 28.059 26.7431 27.615 26.7593 27.1649C27.3027 27.0928 27.743 26.7147 28.186 26.2585C28.5645 25.8688 28.8864 25.4829 29.0074 25.0387C29.441 25.4032 30.0327 25.4584 30.6855 25.4584C31.3215 25.4584 31.8994 25.406 32.3298 25.0663C32.664 25.3683 33.1308 25.5249 33.6459 25.6561C34.1376 25.7813 34.6018 25.865 35.0238 25.7807C35.1779 26.1327 35.4518 26.4523 35.7646 26.7744C36.2077 27.2306 36.6479 27.6087 37.1914 27.6809C37.2076 28.1309 37.4205 28.5749 37.6852 29.0358C37.9969 29.5784 38.3243 30.0475 38.8194 30.2568C38.7616 30.572 38.7678 30.9188 38.7927 31.2838C38.836 31.9182 38.9276 32.4913 39.2957 32.8976C39.0172 33.2515 38.8927 33.7279 38.797 34.2507C38.6627 34.9838 38.6126 35.6518 39.0467 36.1802C38.7458 36.3606 38.4747 36.6303 38.2037 36.932C37.7787 37.4051 37.4315 37.87 37.3965 38.4171C36.9486 38.4639 36.5201 38.7065 36.0783 39.0021C35.4748 39.4057 34.9722 39.8242 34.8756 40.4738C34.4228 40.2541 33.8807 40.2825 33.2951 40.3624Z" fill="#F9A826"/>
<path d="M31.89 41.6235C36.6388 41.6235 40.4885 37.7738 40.4885 33.025C40.4885 28.2762 36.6388 24.4265 31.89 24.4265C27.1412 24.4265 23.2915 28.2762 23.2915 33.025C23.2915 37.7738 27.1412 41.6235 31.89 41.6235Z" fill="#3F3D56"/>
<path d="M111.334 96.1814L110.99 96.189L111.36 112.995L111.704 112.987L111.334 96.1814Z" fill="#3F3D56"/>
<path d="M111.191 103.645C111.173 103.584 110.763 102.136 111.649 100.714L111.941 100.896C111.139 102.183 111.517 103.535 111.521 103.549L111.191 103.645Z" fill="#3F3D56"/>
<path d="M111.781 100.862C111.781 100.862 111.517 99.0572 113.949 98.5619C114.456 98.4587 114.932 98.3882 115.369 98.3412C115.884 98.2858 116.085 98.9914 115.62 99.2193C114.945 99.5493 114.311 99.9652 113.98 100.458C113.068 101.816 111.781 100.862 111.781 100.862Z" fill="#F9A826"/>
<path d="M111.585 108.864L111.255 108.767C111.259 108.754 111.637 107.402 110.835 106.115L111.127 105.933C112.013 107.354 111.603 108.803 111.585 108.864Z" fill="#3F3D56"/>
<path d="M110.996 106.08C110.996 106.08 111.26 104.275 108.828 103.78C108.321 103.677 107.845 103.606 107.408 103.559C106.892 103.504 106.691 104.21 107.157 104.438C107.831 104.768 108.466 105.183 108.796 105.676C109.708 107.034 110.996 106.08 110.996 106.08Z" fill="#F9A826"/>
<path d="M114.381 93.8497C114.871 93.7206 115.328 93.4957 115.313 93.2732C115.295 93.0089 114.616 92.8317 114.029 92.8048C114.471 92.4588 114.878 91.9805 114.754 91.7641C114.639 91.5653 114.108 91.6423 113.617 91.8175C113.908 91.4026 114.112 90.9351 113.956 90.7751C113.763 90.5758 113.076 90.9198 112.607 91.3C112.698 90.7076 112.652 89.9599 112.386 89.8923C112.164 89.8357 111.849 90.2706 111.633 90.7444C111.538 90.2472 111.344 89.7751 111.121 89.7751C110.804 89.7751 110.546 90.733 110.546 91.3571C110.546 91.3924 110.547 91.4256 110.549 91.4573C110.517 91.4204 110.48 91.3817 110.439 91.3413C109.991 90.9065 109.124 90.4239 108.903 90.6518C108.748 90.8118 108.952 91.2793 109.242 91.6942C108.751 91.519 108.22 91.442 108.106 91.6409C107.952 91.9081 108.608 92.5752 109.142 92.8987C109.11 92.8948 109.076 92.8916 109.04 92.8891C108.418 92.8466 107.444 93.0384 107.423 93.3554C107.408 93.5779 107.865 93.8028 108.355 93.9319C107.868 94.1151 107.412 94.3998 107.453 94.6254C107.504 94.8992 108.269 94.995 108.87 94.9389C108.421 95.3702 107.934 96.1427 108.137 96.3691C108.286 96.535 108.766 96.3633 109.2 96.102C108.992 96.5793 108.879 97.1043 109.069 97.2318C109.321 97.4004 110.012 96.8138 110.377 96.3091C110.34 96.9265 110.487 97.7748 110.78 97.8083C111.002 97.8336 111.248 97.3865 111.399 96.9033C111.56 97.3986 111.823 97.8665 112.051 97.8355C112.346 97.7951 112.475 96.9256 112.42 96.3077C112.796 96.7917 113.428 97.3092 113.667 97.1496C113.857 97.0221 113.744 96.4971 113.536 96.0198C113.97 96.2811 114.45 96.4528 114.599 96.2869C114.802 96.0605 114.315 95.288 113.866 94.8568C114.467 94.9129 115.232 94.817 115.283 94.5432C115.324 94.3176 114.868 94.0329 114.381 93.8497ZM111.745 95.5962C111.619 95.6134 111.504 95.6379 111.417 95.7006C111.324 95.6083 111.188 95.5802 111.037 95.5629C110.868 95.5436 110.714 95.5418 110.597 95.6393C110.554 95.5202 110.449 95.4355 110.326 95.3534C110.22 95.2828 110.118 95.2248 110.011 95.2136C110.003 95.0829 109.92 94.9718 109.818 94.8588C109.753 94.7867 109.689 94.7223 109.617 94.6792C109.72 94.5529 109.709 94.3933 109.676 94.2181C109.654 94.0932 109.624 93.9794 109.557 93.8948C109.645 93.7977 109.667 93.6608 109.677 93.5092C109.689 93.3437 109.684 93.1936 109.588 93.0818C109.835 93.1132 109.955 92.9594 110.065 92.7666C110.129 92.6565 110.179 92.5504 110.183 92.4429C110.313 92.4256 110.418 92.3353 110.524 92.2263C110.615 92.1332 110.692 92.041 110.72 91.9348C110.824 92.0219 110.965 92.0351 111.121 92.0351C111.273 92.0351 111.412 92.0226 111.514 91.9414C111.594 92.0136 111.706 92.051 111.829 92.0823C111.946 92.1123 112.057 92.1323 112.158 92.1121C112.195 92.1962 112.26 92.2726 112.335 92.3496C112.441 92.4586 112.546 92.5489 112.676 92.5661C112.68 92.6737 112.731 92.7798 112.794 92.8899C112.868 93.0195 112.947 93.1316 113.065 93.1816C113.051 93.2569 113.053 93.3398 113.059 93.427C113.069 93.5786 113.091 93.7155 113.179 93.8126C113.112 93.8972 113.082 94.011 113.06 94.1359C113.028 94.3111 113.016 94.4707 113.119 94.597C113.047 94.6401 112.983 94.7045 112.918 94.7766C112.816 94.8896 112.733 95.0007 112.725 95.1315C112.618 95.1426 112.516 95.2006 112.41 95.2712C112.266 95.3677 112.146 95.4676 112.123 95.6229C112.014 95.5704 111.885 95.5772 111.745 95.5962Z" fill="#F9A826"/>
<path d="M111.409 95.8976C112.544 95.8976 113.464 94.9778 113.464 93.8431C113.464 92.7084 112.544 91.7886 111.409 91.7886C110.274 91.7886 109.354 92.7084 109.354 93.8431C109.354 94.9778 110.274 95.8976 111.409 95.8976Z" fill="#3F3D56"/>
<path d="M77.1352 112.421C76.1433 113.609 75.9525 115.084 76.7088 115.715C77.4651 116.346 78.882 115.894 79.8741 114.705C80.2769 114.236 80.5614 113.677 80.7038 113.075L84.8428 107.987L82.8266 106.355L78.5914 111.312C78.0244 111.56 77.5251 111.94 77.1352 112.421Z" fill="#FFB6B6"/>
<path d="M95.2233 87.2729L96.6639 92.979L89.6134 104.265L82.4159 111.499L80.083 109.563L87.3418 100.531L92.844 88.8943L95.2233 87.2729Z" fill="#E6E6E6"/>
<path d="M87.6334 77.843C88.7207 77.8404 88.7825 77.8477 88.9583 77.843C90.3069 77.8075 90.6596 77.2769 91.3431 77.3131C92.5632 77.3776 90.9529 83.4945 90.2832 86.3225C89.6264 89.0959 91.8461 91.5811 92.0056 91.7546C94.2586 94.2049 98.2161 94.6529 98.8951 93.6095C99.4448 92.7649 97.4968 91.4807 97.9677 89.6347C98.428 87.8302 100.553 88.0224 101.147 86.3225C101.77 84.5422 99.6788 83.6443 98.3652 79.3004C97.6107 76.8057 97.7442 76.3409 97.0402 74.7957C95.1586 70.6656 85.9355 72.4241 86.9709 76.2531C87.1712 76.9938 86.6382 77.8454 87.6334 77.843Z" fill="#2F2E41"/>
</svg>
