<svg width="16" height="16" viewBox="0 0 16 16" fill="none" xmlns="http://www.w3.org/2000/svg">
<path d="M10.2929 8L5.64645 12.6464C5.55268 12.7402 5.5 12.8674 5.5 13C5.5 13.1326 5.55268 13.2598 5.64645 13.3536C5.74021 13.4473 5.86739 13.5 6 13.5C6.13261 13.5 6.25979 13.4473 6.35355 13.3536L11.3536 8.35355C11.5488 8.15829 11.5488 7.84171 11.3536 7.64645L6.35355 2.64645C6.25979 2.55268 6.13261 2.5 6 2.5C5.86739 2.5 5.74021 2.55268 5.64645 2.64645C5.55268 2.74021 5.5 2.86739 5.5 3C5.5 3.13261 5.55268 3.25979 5.64645 3.35355L10.2929 8Z" fill="#1C1C1C"/>
</svg>
