<svg width="72" height="61" viewBox="0 0 72 61" fill="none" xmlns="http://www.w3.org/2000/svg">
<path d="M34.1378 1C34.0345 12.1141 34.7522 25.2645 34.0508 24.5359C30.0244 20.3545 25.4189 21.5508 23.3119 22.8177C21.2565 24.0574 19.9515 26.6538 19.8591 29.8945C19.7884 32.374 21.928 35.2694 22.2924 36.6342C20.4328 43.2353 17.7766 42.406 16.6048 45.1193C15.6777 47.2644 15.1666 49.0914 14.8839 50.709C14.5712 52.4979 14.2368 55.0698 14.4543 58.2154" stroke="#FEFEFE" stroke-width="1.63241" stroke-miterlimit="10" stroke-linecap="round"/>
<path d="M3.63281 37.5586C5.85944 38.2383 10.6498 42.5311 21.3017 39.372" stroke="#FEFEFE" stroke-width="1.63241" stroke-miterlimit="10"/>
<path d="M18.3198 43.0723C9.50033 47.1857 5.88443 51.503 2.46973 53.8465" stroke="#FEFEFE" stroke-width="1.63241" stroke-miterlimit="10"/>
<path d="M34.363 48.9548C29.0044 43.4494 23.8796 39.2925 20.5138 33.4962C16.8327 27.1589 12.4175 30.0733 5.21289 30.6198" stroke="#FEFEFE" stroke-width="1.63241" stroke-miterlimit="10"/>
<path d="M24.7227 22.3959C22.9311 18.9595 19.8507 16.1755 19.8589 9.85449" stroke="#FEFEFE" stroke-width="1.63241" stroke-miterlimit="10"/>
<path d="M19.859 31.3929C18.3202 28.008 14.7287 20.1075 13.1899 16.7227" stroke="#FEFEFE" stroke-width="1.63241" stroke-miterlimit="10"/>
<path d="M33.5231 22.9894C31.2013 18.373 27.9252 10.1489 24.0619 9.3822C20.3591 8.64815 16.2538 12.2341 14.2746 14.8876C10.7865 19.5665 13.0539 18.6286 8.77189 25.6972C7.19775 28.2963 5.41427 29.479 4.48991 31.5425C3.33445 34.1252 4.48175 35.6287 3.19852 39.8345C1.90985 44.054 0.82508 44.614 1.02355 48.3305C1.32804 54.0099 3.52748 60.4152 11.1807 60.1624C13.0702 60.0999 16.3625 57.4817 17.9829 57.0087C24.0293 55.2497 21.9876 54.2764 25.9406 52.9306C29.0073 51.8866 30.5461 52.4102 34.0916 47.6829" stroke="#FEFEFE" stroke-width="1.63241" stroke-miterlimit="10"/>
<path d="M37.8622 1C37.9655 12.1141 37.2478 25.2645 37.9492 24.5359C41.9756 20.3545 46.5811 21.5508 48.6881 22.8177C50.7435 24.0574 52.0485 26.6538 52.1409 29.8945C52.2116 32.374 50.072 35.2694 49.7076 36.6342C51.5672 43.2353 54.2234 42.406 55.3952 45.1193C56.3223 47.2644 56.8334 49.0914 57.1161 50.709C57.4288 52.4979 57.7632 55.0698 57.5457 58.2154" stroke="#FEFEFE" stroke-width="1.63241" stroke-miterlimit="10" stroke-linecap="round"/>
<path d="M68.3672 37.5586C66.1406 38.2383 61.3502 42.5311 50.6983 39.372" stroke="#FEFEFE" stroke-width="1.63241" stroke-miterlimit="10"/>
<path d="M53.6802 43.0723C62.4997 47.1857 66.1156 51.503 69.5303 53.8465" stroke="#FEFEFE" stroke-width="1.63241" stroke-miterlimit="10"/>
<path d="M37.637 48.9548C42.9956 43.4494 48.1204 39.2925 51.4862 33.4962C55.1673 27.1589 59.5825 30.0733 66.7871 30.6198" stroke="#FEFEFE" stroke-width="1.63241" stroke-miterlimit="10"/>
<path d="M47.2773 22.3959C49.0689 18.9595 52.1493 16.1755 52.1411 9.85449" stroke="#FEFEFE" stroke-width="1.63241" stroke-miterlimit="10"/>
<path d="M52.141 31.3929C53.6798 28.008 57.2713 20.1075 58.8101 16.7227" stroke="#FEFEFE" stroke-width="1.63241" stroke-miterlimit="10"/>
<path d="M38.4769 22.9894C40.7987 18.373 44.0748 10.1489 47.9381 9.3822C51.6409 8.64815 55.7462 12.2341 57.7254 14.8876C61.2135 19.5665 58.9461 18.6286 63.2281 25.6972C64.8023 28.2963 66.5857 29.479 67.5101 31.5425C68.6655 34.1252 67.5182 35.6287 68.8015 39.8345C70.0902 44.054 71.1749 44.614 70.9765 48.3305C70.672 54.0099 68.4725 60.4152 60.8193 60.1624C58.9298 60.0999 55.6375 57.4817 54.0171 57.0087C47.9707 55.2497 50.0124 54.2764 46.0594 52.9306C42.9927 51.8866 41.4539 52.4102 37.9084 47.6829" stroke="#FEFEFE" stroke-width="1.63241" stroke-miterlimit="10"/>
</svg>
