<svg width="165" height="120" viewBox="0 0 165 120" fill="none" xmlns="http://www.w3.org/2000/svg">
<path d="M78.4577 46.9116C78.3876 46.2413 78.1596 45.5949 77.7906 45.021C77.4217 44.4472 76.9216 43.9609 76.3278 43.5987C75.7341 43.2364 75.0622 43.0078 74.3628 42.9298C73.6633 42.8519 72.9545 42.9267 72.2896 43.1487L72.6273 43.1816C71.1132 43.4714 69.7677 44.2937 68.8565 45.4863C68.4114 46.0824 68.1054 46.7632 67.9594 47.4823C67.8133 48.2015 67.8306 48.9423 68.01 49.6545C68.3926 51.069 69.5221 52.2961 70.9679 52.767C71.7717 53.0288 72.6347 53.0608 73.4835 53.0884C74.0344 53.1063 74.5955 53.1223 75.1267 52.9811C75.8099 52.7786 76.4105 52.378 76.8455 51.8347C77.2763 51.2935 77.6191 50.693 77.8622 50.0537C78.2739 49.0538 78.5696 47.981 78.4577 46.9116Z" fill="#2F2E41"/>
<path d="M91.491 115.745C90.1983 111.179 93.0691 106.728 96.4237 103.647C98.2115 102.005 100.202 100.578 102.144 99.1037C104.007 97.7045 105.781 96.204 107.457 94.61C110.694 91.4989 113.518 87.9435 115.387 83.9469C117.165 80.1464 118.006 76.0064 117.59 71.8595C117.195 67.9266 115.694 64.0579 112.932 61.0405C112.588 60.6645 112.226 60.3041 111.846 59.9593C111.643 59.7736 111.33 60.0661 111.534 60.2521C114.618 63.0639 116.413 66.8744 117.02 70.8386C117.647 74.9268 117.001 79.0946 115.373 82.9167C113.639 86.9883 110.882 90.6215 107.684 93.792C106.073 95.3785 104.36 96.8702 102.554 98.2584C100.625 99.7506 98.6204 101.161 96.7837 102.755C93.3985 105.694 90.356 109.737 90.7739 114.287C90.8226 114.817 90.9203 115.341 91.0658 115.855C91.0829 115.906 91.1206 115.949 91.1708 115.975C91.221 116 91.2799 116.007 91.335 115.992C91.3902 115.978 91.4373 115.944 91.4664 115.898C91.4955 115.852 91.5043 115.797 91.491 115.745Z" fill="#B8B8B8"/>
<path d="M104.609 89.9392C102.601 86.6449 101.066 83.1071 100.045 79.421C99.0197 75.7358 98.5071 71.9373 98.52 68.1237C98.5346 64.3103 99.0182 60.4015 100.253 56.7649C101.425 53.3136 103.525 50.0222 106.859 48.1388C108.56 47.1841 110.501 46.6934 112.472 46.72C114.554 46.7389 116.607 47.2635 118.482 48.1129C120.32 48.9447 121.999 50.0658 123.551 51.3155C125.031 52.505 126.411 53.8029 127.681 55.1974C130.196 57.9659 132.25 61.1715 133.398 64.6863C134.594 68.3492 134.804 72.3558 133.694 76.0631C132.628 79.6238 130.292 82.6588 127.425 85.0967C124.326 87.7313 120.656 89.646 116.954 91.3837C116.028 91.8186 115.097 92.2437 114.165 92.6686C113.913 92.7837 114.133 93.1424 114.385 93.0277C118.287 91.2472 122.229 89.451 125.708 86.9651C128.777 84.7715 131.514 82.018 133.142 78.6638C134.863 75.1168 135.216 71.0838 134.502 67.2569C133.805 63.5168 132.056 60.0163 129.714 56.9677C128.551 55.4595 127.258 54.0469 125.849 52.7447C124.403 51.3782 122.825 50.1466 121.135 49.0669C117.671 46.8995 113.339 45.5907 109.234 46.7071C105.585 47.6996 102.776 50.4988 101.105 53.6711C100.169 55.4466 99.5387 57.3561 99.0902 59.2937C98.6527 61.2032 98.3584 63.1402 98.2097 65.0899C97.6132 72.8698 99.2062 80.6605 102.823 87.6511C103.263 88.4989 103.734 89.3315 104.234 90.1491C104.264 90.1947 104.311 90.2274 104.366 90.2402C104.421 90.2529 104.478 90.2449 104.527 90.2176C104.576 90.1904 104.611 90.1462 104.627 90.0942C104.642 90.0423 104.635 89.9867 104.609 89.9392Z" fill="#B8B8B8"/>
<path d="M101.341 85.6892C99.3339 82.3949 97.7987 78.8571 96.777 75.171C95.7521 71.4858 95.2395 67.6873 95.2524 63.8737C95.267 60.0603 95.7506 56.1515 96.9856 52.5149C98.1577 49.0636 100.258 45.7722 103.592 43.8888C105.292 42.9341 107.233 42.4434 109.204 42.47C111.286 42.4889 113.339 43.0135 115.215 43.8629C117.052 44.6947 118.732 45.8158 120.284 47.0655C121.763 48.255 123.144 49.5529 124.413 50.9474C126.928 53.7159 128.983 56.9215 130.131 60.4363C131.327 64.0992 131.536 68.1058 130.426 71.8131C129.36 75.3738 127.025 78.4088 124.157 80.8467C121.059 83.4813 117.388 85.396 113.687 87.1337C112.76 87.5686 111.829 87.9937 110.898 88.4186C110.645 88.5337 110.866 88.8924 111.117 88.7777C115.02 86.9972 118.961 85.201 122.44 82.7151C125.51 80.5215 128.246 77.768 129.874 74.4138C131.595 70.8668 131.948 66.8338 131.235 63.0069C130.537 59.2668 128.788 55.7663 126.447 52.7177C125.283 51.2095 123.991 49.7969 122.581 48.4947C121.136 47.1282 119.557 45.8966 117.867 44.8169C114.404 42.6495 110.072 41.3407 105.967 42.4571C102.317 43.4496 99.5084 46.2488 97.8371 49.4211C96.9017 51.1966 96.2712 53.1061 95.8227 55.0437C95.3851 56.9532 95.0908 58.8902 94.9421 60.8399C94.3457 68.6198 95.9386 76.4105 99.5551 83.4011C99.9956 84.2489 100.466 85.0815 100.966 85.8991C100.996 85.9447 101.044 85.9774 101.098 85.9902C101.153 86.0029 101.211 85.9949 101.26 85.9676C101.308 85.9404 101.344 85.8962 101.359 85.8442C101.374 85.7923 101.368 85.7367 101.341 85.6892Z" fill="#B8B8B8"/>
<path d="M62.485 77.8419C62.3279 77.6313 62.2212 77.3905 62.1726 77.1365C62.124 76.8825 62.1345 76.6214 62.2036 76.3717C62.2726 76.122 62.3984 75.8897 62.5722 75.6912C62.7459 75.4927 62.9633 75.3328 63.2091 75.2227L68.3592 59.8999L71.9459 61.6704L65.7557 76.1755C65.9229 76.5801 65.928 77.029 65.7702 77.437C65.6123 77.845 65.3025 78.1837 64.8993 78.3892C64.4961 78.5946 64.0277 78.6523 63.5827 78.5514C63.1378 78.4506 62.7472 78.1981 62.485 77.8419Z" fill="#FFB6B6"/>
<path d="M67.1097 62.5024C67.0654 62.3957 67.0429 62.28 67.0435 62.1629C67.0441 62.0459 67.0679 61.9305 67.1132 61.8244L68.6955 58.1189C68.8516 57.545 69.2102 57.0619 69.6928 56.7756C70.1754 56.4892 70.7426 56.4229 71.2699 56.5913C71.7973 56.7597 72.2419 57.1489 72.5062 57.6737C72.7705 58.1985 72.833 58.8161 72.6799 59.391L72.1511 63.4502C72.136 63.5661 72.0981 63.677 72.0401 63.7755C71.9821 63.874 71.9053 63.9577 71.8149 64.0209C71.7245 64.0841 71.6227 64.1254 71.5163 64.1419C71.41 64.1584 71.3016 64.1497 71.1986 64.1165L67.5787 62.9482C67.4757 62.915 67.3804 62.858 67.2995 62.7811C67.2185 62.7041 67.1538 62.6091 67.1097 62.5024Z" fill="#2F2E41"/>
<path d="M81.1811 63.3C80.0158 66.2818 80.3136 69.4093 81.7487 72.65H71.5823C71.9909 70.3442 71.8252 68.2013 70.3115 66.4409L81.1811 63.3Z" fill="#FFB6B6"/>
<path d="M69.0275 57.4509L72.1069 55.2965L77.146 53.95L81.3453 54.7579L81.5922 56.9901C81.8924 59.7053 81.762 62.4487 81.2053 65.1262L70.2873 67.55L69.1675 65.6648C69.1675 65.6648 66.6479 63.241 68.6076 60.548L69.0275 57.4509Z" fill="#2F2E41"/>
<path d="M95.5767 42.5192C95.6429 42.7674 95.6543 43.0273 95.6103 43.2804C95.5663 43.5336 95.4679 43.7739 95.3221 43.9845C95.1762 44.1951 94.9864 44.3708 94.7661 44.4992C94.5458 44.6277 94.3003 44.7057 94.0468 44.7279L84.294 57.35L81.7485 54.521L92.1356 43.0035C92.127 42.5708 92.2757 42.15 92.5535 41.8207C92.8314 41.4914 93.2192 41.2765 93.6433 41.2169C94.0675 41.1572 94.4986 41.2568 94.8549 41.4968C95.2113 41.7368 95.4681 42.1006 95.5767 42.5192Z" fill="#FFB6B6"/>
<path d="M85.8316 55.4732C85.839 55.5901 85.8236 55.7073 85.7863 55.817C85.749 55.9267 85.6908 56.0261 85.6155 56.1087L82.9877 58.9911C82.6631 59.4712 82.1794 59.7895 81.6428 59.8762C81.1061 59.9629 80.5603 59.8108 80.1249 59.4534C79.6895 59.096 79.4001 58.5623 79.3202 57.9695C79.2403 57.3767 79.3764 56.773 79.6986 56.2908L81.4622 52.6781C81.5126 52.575 81.5824 52.4851 81.667 52.4145C81.7517 52.344 81.849 52.2944 81.9526 52.2691C82.0561 52.2439 82.1633 52.2436 82.2669 52.2683C82.3705 52.293 82.4681 52.3421 82.553 52.4122L85.5373 54.8772C85.6223 54.9473 85.6925 55.0368 85.7433 55.1397C85.7941 55.2426 85.8242 55.3563 85.8316 55.4732Z" fill="#2F2E41"/>
<path d="M68.678 112.6H70.3386L71.1286 106.65H68.6777L68.678 112.6Z" fill="#FFB6B6"/>
<path d="M68.1902 111.911L70.7986 111.75V112.908L73.2785 114.682C73.401 114.769 73.4932 114.895 73.5418 115.041C73.5903 115.187 73.5926 115.345 73.5483 115.492C73.504 115.639 73.4154 115.768 73.2955 115.859C73.1756 115.951 73.0307 116 72.8818 116H69.7764L69.2412 114.855L69.0322 116H67.8613L68.1902 111.911Z" fill="#2F2E41"/>
<path d="M80.1156 112.6H82.3297L83.383 106.65H80.1152L80.1156 112.6Z" fill="#FFB6B6"/>
<path d="M79.6737 111.911L82.6548 111.75V112.908L85.4889 114.682C85.6289 114.769 85.7343 114.895 85.7898 115.041C85.8453 115.187 85.8479 115.345 85.7972 115.492C85.7466 115.639 85.6454 115.768 85.5084 115.859C85.3713 115.951 85.2057 116 85.0356 116H81.4865L80.8748 114.855L80.636 116H79.2979L79.6737 111.911Z" fill="#2F2E41"/>
<path d="M85.0171 79.9207V82.8738L84.7043 86.4814C84.7043 86.4814 84.6055 89.6318 84.486 92.1167C84.4138 93.6273 84.3326 94.8915 84.2618 95.0548C84.1747 95.2549 84.1953 95.8006 84.2456 96.3735C84.3045 97.0362 84.4019 97.7357 84.4181 97.9698C84.4491 98.4066 84.1983 100.283 84.1983 100.283C84.1983 100.283 83.918 104.989 83.5109 105.365C83.1037 105.74 83.5109 106.809 83.5109 106.809C81.6019 108.107 79.1913 106.52 79.1913 106.52C79.7239 105.738 78.8785 100.396 78.8785 100.396C78.8785 100.396 78.7546 98.5726 78.5039 98.0827C78.253 97.5928 78.1896 94.5323 78.1896 94.5323V89.9992C78.1896 89.9992 77.5316 89.0711 77.4387 88.6384C77.3458 88.2056 77.4387 86.676 77.4387 86.676L76.7512 84.5395L76.2806 86.2133C76.2806 86.2133 75.0621 90.8906 74.8422 91.4676C74.6224 92.0446 74.9662 92.623 74.9662 92.623C74.9662 92.623 75.2804 93.513 74.9662 93.9212C74.7709 94.177 74.6215 94.46 74.5236 94.7595C74.5236 94.7595 74.3628 96.4633 74.081 97.073C73.7992 97.6826 73.5499 98.4338 73.5499 98.4338C73.5499 98.4338 73.6163 99.5851 73.3345 99.8451C73.0527 100.105 72.9598 101.405 72.9598 101.405C72.9598 101.405 73.0218 102.876 72.6455 103.396C72.2694 103.915 72.2694 106.86 72.2694 106.86C71.617 107.246 70.8651 107.466 70.0907 107.496C69.3162 107.527 68.5469 107.367 67.8613 107.033C67.8613 107.033 68.2331 106.712 67.9513 105.215C67.6696 103.718 68.1534 99.6423 68.1534 99.6423C68.1534 99.6423 68.0915 98.608 68.4042 98.1453C68.7169 97.6827 68.2463 96.7886 68.3718 96.3844C68.4972 95.9802 68.8733 93.7851 68.8733 93.7851C68.8733 93.7851 68.7169 88.3866 68.7169 88.0981C68.6799 87.5846 68.5293 87.0835 68.2744 86.6257C67.9926 86.1643 68.2744 82.8153 68.2744 82.8153C68.2744 82.8153 68.9382 81.0843 68.7169 80.7087C68.4957 80.3331 68.8645 79.669 68.8645 79.669C68.8645 79.669 68.5207 78.8892 68.8645 78.745C69.2082 78.6007 69.2717 78.0237 69.2717 78.0237L69.5106 75.223C69.5106 75.223 69.6007 73.952 69.8869 73.8949C70.173 73.8377 70.0476 73.3478 70.3294 73.0008C70.4667 72.7662 70.5614 72.5124 70.6097 72.2496C70.6495 72.089 70.6864 71.9216 70.7174 71.761C70.8059 71.3255 70.8605 70.95 70.8605 70.95C72.7076 72.3652 82.4191 71.3732 82.4295 71.3732C83.0461 71.497 83.7793 73.4716 84.3089 75.1931C84.7798 76.7314 85.0181 78.3223 85.0171 79.9207Z" fill="#2F2E41"/>
<path d="M77.5806 50.2527C78.2725 48.0764 76.9883 45.7759 74.7123 45.1144C72.4362 44.4528 70.0302 45.6807 69.3383 47.8569C68.6464 50.0332 69.9306 52.3337 72.2066 52.9952C74.4827 53.6568 76.8887 52.4289 77.5806 50.2527Z" fill="#FFB6B6"/>
<path d="M67.9641 49.7001L69.7566 49.3878L70.0866 47.3959L70.7055 49.2224L71.5622 49.0732L71.7547 47.9112L72.1157 48.9767L78.4816 47.8675C78.3505 47.34 78.0966 46.8392 77.7344 46.3938C77.3722 45.9484 76.9087 45.5671 76.3706 45.2717C75.8324 44.9763 75.23 44.7725 74.5978 44.6721C73.9656 44.5716 73.3159 44.5764 72.6859 44.6861L71.7633 44.8469C70.4909 45.0686 69.3759 45.7045 68.6634 46.6146C67.9509 47.5248 67.6994 48.6346 67.9641 49.7001Z" fill="#2F2E41"/>
<path d="M85.7284 18.8099L85.7177 18.8301C83.5875 17.872 81.1614 17.7506 78.9421 18.4911C76.7228 19.2315 74.8802 20.7771 73.7963 22.8076C72.7123 24.8382 72.4699 27.1979 73.1194 29.3981C73.7689 31.5983 75.2604 33.4703 77.2849 34.6262L77.2742 34.6463L93.4953 42.9L101.949 27.0636C102.506 26.0237 102.847 24.8868 102.953 23.7181C103.059 22.5494 102.929 21.3717 102.568 20.2523C102.208 19.133 101.625 18.0939 100.854 17.1946C100.082 16.2952 99.1359 15.5532 98.0702 15.0109C97.0044 14.4686 95.8396 14.1367 94.6424 14.0342C93.4452 13.9316 92.239 14.0604 91.0928 14.4133C89.9466 14.7661 88.8829 15.336 87.9624 16.0904C87.0419 16.8448 86.2828 17.7689 85.7284 18.8099Z" fill="#F9A826"/>
<path d="M99.9584 109.623L99.9555 109.629C99.3798 109.375 98.7241 109.343 98.1243 109.539C97.5245 109.735 97.0265 110.144 96.7336 110.682C96.4406 111.219 96.3751 111.844 96.5506 112.426C96.7262 113.009 97.1293 113.504 97.6765 113.81L97.6736 113.815L102.058 116L104.342 111.808C104.493 111.533 104.585 111.232 104.614 110.923C104.643 110.613 104.607 110.302 104.51 110.005C104.413 109.709 104.255 109.434 104.046 109.196C103.838 108.958 103.582 108.761 103.294 108.618C103.006 108.474 102.691 108.386 102.368 108.359C102.044 108.332 101.718 108.366 101.408 108.46C101.098 108.553 100.811 108.704 100.562 108.904C100.313 109.103 100.108 109.348 99.9584 109.623Z" fill="#FF6584"/>
<path d="M44.9448 58.7724V58.7955C42.5332 58.9087 40.2592 59.9106 38.594 61.5937C36.9288 63.2767 36 65.5119 36 67.8362C36 70.1605 36.9288 72.3957 38.594 74.0787C40.2592 75.7618 42.5332 76.7637 44.9448 76.8769V76.9L63.776 76.8999L63.776 58.7724C63.7772 57.5814 63.5346 56.4019 63.0619 55.3012C62.5893 54.2005 61.8959 53.2003 61.0215 52.3577C60.147 51.5152 59.1087 50.8468 57.9657 50.3907C56.8228 49.9347 55.5977 49.7 54.3604 49.7C53.1232 49.7 51.8981 49.9347 50.7551 50.3907C49.6122 50.8468 48.5738 51.5152 47.6994 52.3577C46.8249 53.2003 46.1316 54.2005 45.6589 55.3012C45.1863 56.4019 44.9436 57.5814 44.9448 58.7724Z" fill="#F9A826"/>
<path d="M117.083 76.0501C118.964 76.0382 120.782 75.3698 122.228 74.1588C123.7 72.9122 124.669 71.1668 124.952 69.2511C125.119 68.168 125.065 67.0623 124.795 66.0007C124.778 65.9475 124.742 65.903 124.693 65.8763C124.645 65.8496 124.588 65.843 124.535 65.8578C124.481 65.8726 124.436 65.9077 124.408 65.9556C124.379 66.0036 124.371 66.0607 124.384 66.1148C124.839 67.9173 124.634 69.8249 123.805 71.487C123.168 72.7297 122.204 73.7724 121.019 74.5014C119.833 75.2303 118.472 75.6175 117.083 75.6207C117.028 75.6226 116.976 75.6461 116.937 75.6861C116.899 75.7262 116.877 75.7797 116.877 75.8354C116.877 75.8911 116.899 75.9446 116.937 75.9846C116.976 76.0247 117.028 76.0482 117.083 76.0501Z" fill="#F0F0F0"/>
<path d="M83.5293 21.7082C82.3337 20.561 80.4458 20.564 79.065 21.3626C77.5154 22.2589 76.8129 24.1109 76.8484 25.8498C76.8884 27.8068 77.8351 29.5788 79.0574 31.0465C80.3601 32.5715 81.8761 33.896 83.5574 34.9783C85.234 36.082 87.0482 36.9559 88.9524 37.5771C89.1868 37.6535 89.4224 37.7259 89.6592 37.7942C89.7122 37.807 89.768 37.7985 89.8149 37.7705C89.8619 37.7424 89.8962 37.6971 89.9107 37.644C89.9252 37.5909 89.9187 37.5341 89.8926 37.4858C89.8665 37.4374 89.8229 37.4011 89.7709 37.3847C86.1141 36.3284 82.7895 34.3346 80.1199 31.5966C78.849 30.2808 77.7195 28.6995 77.3722 26.859C77.0654 25.2336 77.4044 23.3464 78.6508 22.1886C79.8623 21.0631 81.9827 20.8097 83.2322 22.0086C83.4283 22.1968 83.7259 21.8969 83.5293 21.7082Z" fill="white"/>
<path d="M44.8535 63.3222C43.2952 63.1293 41.8318 64.2206 41.2249 65.599C40.5443 67.1447 41.0031 68.9265 41.9904 70.2329C43.0777 71.6716 44.7245 72.5103 46.4461 72.9555C48.294 73.4334 50.2557 73.5624 52.1579 73.4742C54.4066 73.3704 56.6257 72.9213 58.7366 72.1427C58.9791 72.053 58.8742 71.6627 58.6288 71.7534C55.1148 73.0525 51.2028 73.4624 47.5075 72.7765C45.8558 72.4699 44.1735 71.885 42.9426 70.7017C41.8273 69.6296 41.0383 68.0058 41.374 66.4377C41.7075 64.8795 43.1954 63.5206 44.8535 63.7259C45.1118 63.7579 45.1094 63.3539 44.8535 63.3222Z" fill="white"/>
<path d="M72.6551 43.3429C73.058 41.7588 72.2775 40.0595 71.069 38.9396C69.8605 37.8197 68.2834 37.1761 66.7226 36.6188C65.4779 36.1744 64.0199 35.7879 62.8934 36.4723C61.9882 37.0223 61.5955 38.0907 61.078 39.005C60.0919 40.7473 58.501 42.0823 56.5962 42.7659C54.6914 43.4494 52.6 43.4358 50.7046 42.7276C51.3727 44.6349 53.6739 45.5678 55.721 45.4382C57.7681 45.3087 59.6588 44.3816 61.5657 43.6382C63.4727 42.8947 65.5939 42.3204 67.5539 42.9157C68.3811 43.167 69.1334 43.6155 69.9525 43.8914C70.7715 44.1674 71.73 44.2496 72.4599 43.7917" fill="#2F2E41"/>
<path d="M101.321 99.4719L99.4434 96.5694C99.403 96.5132 99.3393 96.473 99.2658 96.4573C99.1923 96.4415 99.1147 96.4514 99.0493 96.485C98.984 96.5185 98.9361 96.573 98.9156 96.637C98.8952 96.701 98.9039 96.7695 98.9398 96.828L100.817 99.7305C100.857 99.7867 100.921 99.8269 100.995 99.8426C101.068 99.8584 101.146 99.8485 101.211 99.8149C101.276 99.7814 101.324 99.7269 101.345 99.6629C101.365 99.5989 101.357 99.5304 101.321 99.4719Z" fill="#F0F0F0"/>
</svg>
