<svg width="165" height="120" viewBox="0 0 165 120" fill="none" xmlns="http://www.w3.org/2000/svg">
<path d="M75.7752 46.9116C75.7023 46.2413 75.4649 45.5949 75.0811 45.021C74.6972 44.4472 74.1769 43.9609 73.5591 43.5987C72.9413 43.2364 72.2423 43.0078 71.5145 42.9298C70.7868 42.8519 70.0493 42.9267 69.3575 43.1487L69.7088 43.1816C68.1335 43.4714 66.7335 44.2937 65.7854 45.4863C65.3223 46.0824 65.004 46.7632 64.852 47.4823C64.7001 48.2015 64.718 48.9423 64.9047 49.6545C65.3028 51.069 66.478 52.2961 67.9822 52.767C68.8187 53.0288 69.7165 53.0608 70.5997 53.0884C71.1729 53.1063 71.7567 53.1223 72.3093 52.9811C73.0202 52.7786 73.6452 52.378 74.0977 51.8347C74.546 51.2935 74.9026 50.693 75.1556 50.0537C75.5839 49.0538 75.8915 47.981 75.7752 46.9116Z" fill="#2F2E41"/>
<path d="M88.415 115.745C87.1922 111.179 89.9076 106.728 93.0807 103.647C94.7717 102.005 96.6549 100.578 98.4914 99.1037C100.254 97.7045 101.932 96.204 103.517 94.61C106.579 91.4989 109.249 87.9435 111.018 83.9469C112.7 80.1464 113.495 76.0064 113.101 71.8595C112.727 67.9266 111.308 64.0579 108.696 61.0405C108.37 60.6645 108.028 60.3041 107.669 59.9593C107.476 59.7736 107.181 60.0661 107.374 60.2521C110.29 63.0639 111.988 66.8744 112.563 70.8386C113.155 74.9268 112.545 79.0946 111.005 82.9167C109.364 86.9883 106.756 90.6215 103.731 93.792C102.208 95.3785 100.587 96.8702 98.8789 98.2584C97.0544 99.7506 95.1585 101.161 93.4212 102.755C90.2192 105.694 87.3414 109.737 87.7367 114.287C87.7828 114.817 87.8751 115.341 88.0128 115.855C88.029 115.906 88.0645 115.949 88.1121 115.975C88.1596 116 88.2153 116.007 88.2674 115.992C88.3196 115.978 88.3641 115.944 88.3916 115.898C88.4192 115.852 88.4275 115.797 88.415 115.745Z" fill="#919191"/>
<path d="M101.532 89.9392C99.6293 86.6449 98.174 83.1071 97.2055 79.421C96.2339 75.7358 95.7479 71.9373 95.7602 68.1237C95.774 64.3103 96.2325 60.4015 97.4032 56.7649C98.5143 53.3136 100.505 50.0222 103.666 48.1388C105.278 47.1841 107.118 46.6934 108.986 46.72C110.96 46.7389 112.906 47.2635 114.684 48.1129C116.426 48.9447 118.018 50.0658 119.489 51.3155C120.892 52.505 122.201 53.8029 123.404 55.1974C125.788 57.9659 127.736 61.1715 128.824 64.6863C129.958 68.3492 130.156 72.3558 129.104 76.0631C128.094 79.6238 125.879 82.6588 123.161 85.0967C120.224 87.7313 116.744 89.646 113.236 91.3837C112.357 91.8186 111.475 92.2437 110.592 92.6686C110.352 92.7837 110.561 93.1424 110.799 93.0277C114.499 91.2472 118.236 89.451 121.534 86.9651C124.444 84.7715 127.038 82.018 128.581 78.6638C130.213 75.1168 130.547 71.0838 129.871 67.2569C129.21 63.5168 127.551 60.0163 125.332 56.9677C124.229 55.4595 123.003 54.0469 121.668 52.7447C120.297 51.3782 118.801 50.1466 117.199 49.0669C113.915 46.8995 109.809 45.5907 105.917 46.7071C102.457 47.6996 99.7948 50.4988 98.2104 53.6711C97.3236 55.4466 96.7259 57.3561 96.3008 59.2937C95.886 61.2032 95.607 63.1402 95.466 65.0899C94.9006 72.8698 96.4107 80.6605 99.839 87.6511C100.257 88.4989 100.702 89.3315 101.177 90.1491C101.205 90.1947 101.25 90.2274 101.302 90.2402C101.354 90.2529 101.409 90.2449 101.455 90.2176C101.501 90.1904 101.535 90.1462 101.549 90.0942C101.564 90.0423 101.558 89.9867 101.532 89.9392Z" fill="#919191"/>
<path d="M98.9819 85.6892C97.079 82.3949 95.6237 78.8571 94.6552 75.171C93.6836 71.4858 93.1976 67.6873 93.2099 63.8737C93.2237 60.0603 93.6822 56.1515 94.8529 52.5149C95.964 49.0636 97.9548 45.7722 101.115 43.8888C102.727 42.9341 104.567 42.4434 106.436 42.47C108.409 42.4889 110.356 43.0135 112.134 43.8629C113.875 44.6947 115.468 45.8158 116.939 47.0655C118.342 48.255 119.65 49.5529 120.854 50.9474C123.238 53.7159 125.186 56.9215 126.274 60.4363C127.407 64.0992 127.606 68.1058 126.554 71.8131C125.543 75.3738 123.329 78.4088 120.611 80.8467C117.674 83.4813 114.194 85.396 110.685 87.1337C109.807 87.5686 108.924 87.9937 108.041 88.4186C107.802 88.5337 108.011 88.8924 108.249 88.7777C111.949 86.9972 115.685 85.201 118.983 82.7151C121.893 80.5215 124.487 77.768 126.03 74.4138C127.662 70.8668 127.997 66.8338 127.32 63.0069C126.659 59.2668 125.001 55.7663 122.782 52.7177C121.679 51.2095 120.453 49.7969 119.117 48.4947C117.747 47.1282 116.25 45.8966 114.649 44.8169C111.365 42.6495 107.258 41.3407 103.367 42.4571C99.9072 43.4496 97.2445 46.2488 95.6601 49.4211C94.7733 51.1966 94.1756 53.1061 93.7505 55.0437C93.3357 56.9532 93.0567 58.8902 92.9157 60.8399C92.3503 68.6198 93.8604 76.4105 97.2887 83.4011C97.7064 84.2489 98.1522 85.0815 98.6262 85.8991C98.6548 85.9447 98.6997 85.9774 98.7516 85.9902C98.8036 86.0029 98.8584 85.9949 98.9045 85.9676C98.9506 85.9404 98.9845 85.8962 98.9989 85.8442C99.0134 85.7923 99.0072 85.7367 98.9819 85.6892Z" fill="#919191"/>
<path d="M59.9765 77.8419C59.8266 77.6313 59.7249 77.3905 59.6785 77.1365C59.6321 76.8825 59.6422 76.6214 59.7081 76.3717C59.7739 76.122 59.8939 75.8897 60.0596 75.6912C60.2253 75.4927 60.4327 75.3328 60.6671 75.2227L65.579 59.8999L68.9999 61.6704L63.096 76.1755C63.2554 76.5801 63.2603 77.029 63.1098 77.437C62.9592 77.845 62.6637 78.1837 62.2792 78.3892C61.8946 78.5946 61.4478 78.6523 61.0235 78.5514C60.5991 78.4506 60.2266 78.1981 59.9765 77.8419Z" fill="#FFB6B6"/>
<path d="M63.9688 62.5024C63.9228 62.3957 63.8993 62.28 63.8999 62.1629C63.9005 62.0459 63.9253 61.9305 63.9724 61.8244L65.6188 58.1189C65.7812 57.545 66.1544 57.0619 66.6565 56.7756C67.1586 56.4892 67.7487 56.4229 68.2974 56.5913C68.8461 56.7597 69.3087 57.1489 69.5837 57.6737C69.8587 58.1985 69.9237 58.8161 69.7645 59.391L69.2142 63.4502C69.1985 63.5661 69.1591 63.677 69.0988 63.7755C69.0384 63.874 68.9585 63.9577 68.8644 64.0209C68.7704 64.0841 68.6644 64.1254 68.5538 64.1419C68.4431 64.1584 68.3304 64.1497 68.2232 64.1165L64.4568 62.9482C64.3496 62.915 64.2505 62.858 64.1663 62.7811C64.0821 62.7041 64.0147 62.6091 63.9688 62.5024Z" fill="#2F2E41"/>
<path d="M78.6092 63.3C77.3968 66.2818 77.7066 69.4093 79.1998 72.65H68.622C69.0472 70.3442 68.8747 68.2013 67.2998 66.4409L78.6092 63.3Z" fill="#FFB6B6"/>
<path d="M66.7421 57.4509L69.7577 55.2965L74.6923 53.95L78.8044 54.7579L79.0462 56.9901C79.3402 59.7053 79.2125 62.4487 78.6674 65.1262L67.9757 67.55L66.8791 65.6648C66.8791 65.6648 64.4118 63.241 66.3309 60.548L66.7421 57.4509Z" fill="#2F2E41"/>
<path d="M92.7379 42.5192C92.8067 42.7674 92.8186 43.0273 92.7728 43.2804C92.727 43.5336 92.6246 43.7739 92.4729 43.9845C92.3211 44.1951 92.1237 44.3708 91.8944 44.4992C91.6652 44.6277 91.4097 44.7057 91.1461 44.7279L80.9986 57.35L78.3501 54.521L89.1575 43.0035C89.1485 42.5708 89.3032 42.15 89.5923 41.8207C89.8814 41.4914 90.2849 41.2765 90.7262 41.2169C91.1675 41.1572 91.6161 41.2568 91.9868 41.4968C92.3576 41.7368 92.6248 42.1006 92.7379 42.5192Z" fill="#FFB6B6"/>
<path d="M83.448 55.4732C83.4558 55.5901 83.4397 55.7073 83.4009 55.817C83.3621 55.9267 83.3015 56.0261 83.2232 56.1087L80.4891 58.9911C80.1513 59.4712 79.6481 59.7895 79.0897 59.8762C78.5313 59.9629 77.9634 59.8108 77.5104 59.4534C77.0574 59.096 76.7563 58.5623 76.6732 57.9695C76.59 57.3767 76.7316 56.773 77.0668 56.2908L78.9019 52.6781C78.9542 52.575 79.0269 52.4851 79.115 52.4145C79.203 52.344 79.3043 52.2944 79.412 52.2691C79.5197 52.2439 79.6313 52.2436 79.7391 52.2683C79.8469 52.293 79.9485 52.3421 80.0368 52.4122L83.1419 54.8772C83.2302 54.9473 83.3034 55.0368 83.3562 55.1397C83.409 55.2426 83.4403 55.3563 83.448 55.4732Z" fill="#2F2E41"/>
<path d="M66.4505 112.6H68.1782L69.0002 106.65H66.4502L66.4505 112.6Z" fill="#FFB6B6"/>
<path d="M65.8934 111.911L68.2197 111.75V112.908L70.4313 114.682C70.5405 114.769 70.6228 114.895 70.6661 115.041C70.7094 115.187 70.7114 115.345 70.6719 115.492C70.6324 115.639 70.5534 115.768 70.4465 115.859C70.3395 115.951 70.2103 116 70.0775 116H67.308L66.8307 114.855L66.6443 116H65.6001L65.8934 111.911Z" fill="#2F2E41"/>
<path d="M77.5003 112.6H79.228L80.05 106.65H77.5L77.5003 112.6Z" fill="#FFB6B6"/>
<path d="M76.9432 111.911L79.2695 111.75V112.908L81.4811 114.682C81.5903 114.769 81.6726 114.895 81.7159 115.041C81.7592 115.187 81.7612 115.345 81.7217 115.492C81.6822 115.639 81.6032 115.768 81.4963 115.859C81.3893 115.951 81.2601 116 81.1273 116H78.3578L77.8805 114.855L77.6941 116H76.6499L76.9432 111.911Z" fill="#2F2E41"/>
<path d="M81.7501 79.9207V82.8738L81.4557 86.4814C81.4557 86.4814 81.3626 89.6318 81.2501 92.1167C81.1821 93.6273 81.1057 94.8915 81.039 95.0548C80.9571 95.2549 80.9765 95.8006 81.0238 96.3735C81.0793 97.0362 81.171 97.7357 81.1862 97.9698C81.2154 98.4066 80.9793 100.283 80.9793 100.283C80.9793 100.283 80.7154 104.989 80.3322 105.365C79.9488 105.74 80.3322 106.809 80.3322 106.809C78.5351 108.107 76.2658 106.52 76.2658 106.52C76.7672 105.738 75.9714 100.396 75.9714 100.396C75.9714 100.396 75.8547 98.5726 75.6187 98.0827C75.3826 97.5928 75.3228 94.5323 75.3228 94.5323V89.9992C75.3228 89.9992 74.7034 89.0711 74.616 88.6384C74.5285 88.2056 74.616 86.676 74.616 86.676L73.9688 84.5395L73.5258 86.2133C73.5258 86.2133 72.3787 90.8906 72.1717 91.4676C71.9648 92.0446 72.2884 92.623 72.2884 92.623C72.2884 92.623 72.5842 93.513 72.2884 93.9212C72.1046 94.177 71.964 94.46 71.8718 94.7595C71.8718 94.7595 71.7204 96.4633 71.4552 97.073C71.1899 97.6826 70.9552 98.4338 70.9552 98.4338C70.9552 98.4338 71.0176 99.5851 70.7524 99.8451C70.4872 100.105 70.3997 101.405 70.3997 101.405C70.3997 101.405 70.458 102.876 70.1038 103.396C69.7497 103.915 69.7497 106.86 69.7497 106.86C69.1356 107.246 68.4278 107.466 67.6987 107.496C66.9697 107.527 66.2455 107.367 65.6001 107.033C65.6001 107.033 65.9501 106.712 65.6848 105.215C65.4196 103.718 65.8751 99.6423 65.8751 99.6423C65.8751 99.6423 65.8168 98.608 66.1111 98.1453C66.4056 97.6827 65.9625 96.7886 66.0806 96.3844C66.1987 95.9802 66.5528 93.7851 66.5528 93.7851C66.5528 93.7851 66.4056 88.3866 66.4056 88.0981C66.3707 87.5846 66.2289 87.0835 65.9889 86.6257C65.7237 86.1643 65.9889 82.8153 65.9889 82.8153C65.9889 82.8153 66.6139 81.0843 66.4056 80.7087C66.1972 80.3331 66.5444 79.669 66.5444 79.669C66.5444 79.669 66.2208 78.8892 66.5444 78.745C66.868 78.6007 66.9278 78.0237 66.9278 78.0237L67.1527 75.223C67.1527 75.223 67.2375 73.952 67.5069 73.8949C67.7763 73.8377 67.6582 73.3478 67.9235 73.0008C68.0527 72.7662 68.1419 72.5124 68.1874 72.2496C68.2249 72.089 68.2596 71.9216 68.2887 71.761C68.3721 71.3255 68.4235 70.95 68.4235 70.95C70.1622 72.3652 79.3044 71.3732 79.3142 71.3732C79.8947 71.497 80.5849 73.4716 81.0834 75.1931C81.5267 76.7314 81.751 78.3223 81.7501 79.9207Z" fill="#2F2E41"/>
<path d="M75.045 50.2524C75.7114 48.0762 74.4746 45.7757 72.2825 45.1141C70.0905 44.4526 67.7733 45.6805 67.107 47.8567C66.4406 50.0329 67.6774 52.3334 69.8694 52.995C72.0615 53.6565 74.3787 52.4287 75.045 50.2524Z" fill="#FFB6B6"/>
<path d="M65.6988 49.7001L67.4203 49.3878L67.7373 47.3959L68.3317 49.2224L69.1545 49.0732L69.3394 47.9112L69.6862 48.9767L75.8001 47.8675C75.6742 47.34 75.4303 46.8392 75.0825 46.3938C74.7346 45.9484 74.2895 45.5671 73.7726 45.2717C73.2557 44.9763 72.6772 44.7725 72.07 44.6721C71.4628 44.5716 70.8388 44.5764 70.2338 44.6861L69.3477 44.8469C68.1256 45.0686 67.0547 45.7045 66.3704 46.6146C65.6861 47.5248 65.4445 48.6346 65.6988 49.7001Z" fill="#2F2E41"/>
<path d="M82.9763 18.8099L82.9655 18.8301C80.809 17.872 78.353 17.7506 76.1063 18.4911C73.8595 19.2315 71.9943 20.7771 70.8969 22.8076C69.7996 24.8382 69.5542 27.1979 70.2117 29.3981C70.8692 31.5983 72.3791 33.4703 74.4287 34.6262L74.4178 34.6463L90.8391 42.9L99.3977 27.0636C99.9611 26.0237 100.306 24.8868 100.414 23.7181C100.521 22.5494 100.389 21.3717 100.024 20.2523C99.6595 19.133 99.0696 18.0939 98.2883 17.1946C97.5069 16.2952 96.5494 15.5532 95.4705 15.0109C94.3915 14.4686 93.2124 14.1367 92.0004 14.0342C90.7884 13.9316 89.5673 14.0604 88.407 14.4133C87.2466 14.7661 86.1698 15.336 85.2379 16.0904C84.3061 16.8448 83.5376 17.7689 82.9763 18.8099Z" fill="#C7C7C7"/>
<path d="M96.9314 109.623L96.9287 109.629C96.3896 109.375 95.7756 109.343 95.2139 109.539C94.6523 109.735 94.1859 110.144 93.9116 110.682C93.6373 111.219 93.5759 111.844 93.7403 112.426C93.9047 113.009 94.2822 113.504 94.7945 113.81L94.7918 113.815L98.8971 116L101.037 111.808C101.178 111.533 101.264 111.232 101.291 110.923C101.318 110.613 101.285 110.302 101.193 110.005C101.102 109.709 100.955 109.434 100.759 109.196C100.564 108.958 100.325 108.761 100.055 108.618C99.7853 108.474 99.4905 108.386 99.1875 108.359C98.8844 108.332 98.5792 108.366 98.2891 108.46C97.999 108.553 97.7298 108.704 97.4968 108.904C97.2638 109.103 97.0717 109.348 96.9314 109.623Z" fill="#C7C7C7"/>
<path d="M43.4856 58.7724V58.7955C41.1978 58.9087 39.0405 59.9106 37.4608 61.5937C35.8811 63.2767 35 65.5119 35 67.8362C35 70.1605 35.8811 72.3957 37.4608 74.0787C39.0405 75.7618 41.1978 76.7637 43.4856 76.8769V76.9L61.35 76.8999L61.35 58.7724C61.3511 57.5814 61.1209 56.4019 60.6725 55.3012C60.2242 54.2005 59.5664 53.2003 58.7368 52.3577C57.9073 51.5152 56.9222 50.8468 55.838 50.3907C54.7537 49.9347 53.5915 49.7 52.4178 49.7C51.2441 49.7 50.0818 49.9347 48.9976 50.3907C47.9133 50.8468 46.9283 51.5152 46.0987 52.3577C45.2692 53.2003 44.6114 54.2005 44.163 55.3012C43.7146 56.4019 43.4844 57.5814 43.4856 58.7724Z" fill="#C7C7C7"/>
<path d="M112.564 76.0501C114.521 76.0382 116.413 75.3698 117.917 74.1588C119.449 72.9122 120.457 71.1668 120.752 69.2511C120.925 68.168 120.869 67.0623 120.588 66.0007C120.571 65.9475 120.533 65.903 120.482 65.8763C120.432 65.8496 120.373 65.843 120.317 65.8578C120.262 65.8726 120.214 65.9077 120.185 65.9556C120.156 66.0036 120.147 66.0607 120.16 66.1148C120.634 67.9173 120.42 69.8249 119.558 71.487C118.895 72.7297 117.892 73.7724 116.659 74.5014C115.426 75.2303 114.009 75.6175 112.564 75.6207C112.507 75.6226 112.452 75.6461 112.412 75.6861C112.372 75.7262 112.35 75.7797 112.35 75.8354C112.35 75.8911 112.372 75.9446 112.412 75.9846C112.452 76.0247 112.507 76.0482 112.564 76.0501Z" fill="#F0F0F0"/>
<path d="M81.0526 21.7082C79.8087 20.561 77.8443 20.564 76.4077 21.3626C74.7954 22.2589 74.0645 24.1109 74.1014 25.8498C74.143 27.8068 75.128 29.5788 76.3997 31.0465C77.7552 32.5715 79.3325 33.896 81.0818 34.9783C82.8263 36.082 84.7139 36.9559 86.6952 37.5771C86.939 37.6535 87.1841 37.7259 87.4305 37.7942C87.4857 37.807 87.5438 37.7985 87.5926 37.7705C87.6414 37.7424 87.6772 37.6971 87.6922 37.644C87.7073 37.5909 87.7006 37.5341 87.6734 37.4858C87.6463 37.4374 87.6009 37.4011 87.5468 37.3847C83.742 36.3284 80.2829 34.3346 77.5052 31.5966C76.1829 30.2808 75.0078 28.6995 74.6463 26.859C74.3272 25.2336 74.6799 23.3464 75.9767 22.1886C77.2372 21.0631 79.4435 20.8097 80.7435 22.0086C80.9475 22.1968 81.2572 21.8969 81.0526 21.7082Z" fill="white"/>
<path d="M43.362 63.3222C41.7407 63.1293 40.2181 64.2206 39.5866 65.599C38.8785 67.1447 39.3559 68.9265 40.3831 70.2329C41.5144 71.6716 43.2279 72.5103 45.0191 72.9555C46.9418 73.4334 48.9828 73.5624 50.962 73.4742C53.3017 73.3704 55.6106 72.9213 57.8069 72.1427C58.0592 72.053 57.9501 71.6627 57.6948 71.7534C54.0386 73.0525 49.9683 73.4624 46.1235 72.7765C44.4049 72.4699 42.6546 71.885 41.3739 70.7017C40.2134 69.6296 39.3925 68.0058 39.7417 66.4377C40.0888 64.8795 41.6369 63.5206 43.362 63.7259C43.6308 63.7579 43.6284 63.3539 43.362 63.3222Z" fill="white"/>
<path d="M69.7513 43.3429C70.124 41.7588 69.4021 40.0595 68.2844 38.9396C67.1667 37.8197 65.7081 37.1761 64.2646 36.6188C63.1134 36.1744 61.765 35.7879 60.7231 36.4723C59.8859 37.0223 59.5227 38.0907 59.0441 39.005C58.1321 40.7473 56.6607 42.0823 54.8991 42.7659C53.1374 43.4494 51.2032 43.4358 49.4502 42.7276C50.0681 44.6349 52.1964 45.5678 54.0897 45.4382C55.9829 45.3087 57.7316 44.3816 59.4952 43.6382C61.2589 42.8947 63.2207 42.3204 65.0334 42.9157C65.7984 43.167 66.4942 43.6155 67.2517 43.8914C68.0092 44.1674 68.8957 44.2496 69.5708 43.7917" fill="#2F2E41"/>
<path d="M97.8759 99.4719L96.5738 96.5694C96.5458 96.5132 96.5016 96.473 96.4506 96.4573C96.3996 96.4415 96.3458 96.4514 96.3005 96.485C96.2551 96.5185 96.2219 96.573 96.2077 96.637C96.1935 96.701 96.1995 96.7695 96.2245 96.828L97.5266 99.7305C97.5546 99.7867 97.5988 99.8269 97.6498 99.8426C97.7008 99.8584 97.7546 99.8485 97.7999 99.8149C97.8452 99.7814 97.8785 99.7269 97.8927 99.6629C97.9068 99.5989 97.9008 99.5304 97.8759 99.4719Z" fill="#F0F0F0"/>
</svg>
