<svg width="36" height="36" viewBox="0 0 36 36" fill="none" xmlns="http://www.w3.org/2000/svg">
<path fill-rule="evenodd" clip-rule="evenodd" d="M4.91992 7.10011C4.91992 7.10011 4.91992 6.19713 5.55843 5.55862C5.55843 5.55862 6.19694 4.92011 7.09992 4.92011H28.8999C28.8999 4.92011 29.8029 4.92011 30.4414 5.55862C30.4414 5.55862 31.0799 6.19712 31.0799 7.10011V28.9001C31.0799 28.9001 31.0799 29.8031 30.4414 30.4416C30.4414 30.4416 29.8029 31.0801 28.8999 31.0801H7.09992C7.09992 31.0801 6.19693 31.0801 5.55843 30.4416C5.55843 30.4416 4.91992 29.8031 4.91992 28.9001V7.10011ZM7.09992 7.10011V28.9001H28.8999V7.10011H7.09992Z" fill="#1C1C1C"/>
<path d="M23.4499 3.83011V8.19011C23.4499 8.7921 23.9379 9.28011 24.5399 9.28011C25.1419 9.28011 25.6299 8.7921 25.6299 8.19011V3.83011C25.6299 3.22812 25.1419 2.74011 24.5399 2.74011C23.9379 2.74011 23.4499 3.22812 23.4499 3.83011Z" fill="#1C1C1C"/>
<path d="M10.3699 3.83011V8.19011C10.3699 8.7921 10.8579 9.28011 11.4599 9.28011C12.0619 9.28011 12.5499 8.7921 12.5499 8.19011V3.83011C12.5499 3.22812 12.0619 2.74011 11.4599 2.74011C10.8579 2.74011 10.3699 3.22812 10.3699 3.83011Z" fill="#1C1C1C"/>
<path d="M6.00992 13.6401H29.9899C30.5919 13.6401 31.0799 13.1521 31.0799 12.5501C31.0799 11.9481 30.5919 11.4601 29.9899 11.4601H6.00992C5.40793 11.4601 4.91992 11.9481 4.91992 12.5501C4.91992 13.1521 5.40793 13.6401 6.00992 13.6401Z" fill="#1C1C1C"/>
<path d="M16.5446 22.4951L13.8451 19.9343C13.6426 19.7422 13.3741 19.6351 13.0949 19.6351L13.0662 19.6355C12.7772 19.6431 12.5031 19.7652 12.3041 19.975C12.112 20.1775 12.0049 20.446 12.0049 20.7251L12.0053 20.7538C12.0129 21.0428 12.135 21.317 12.3448 21.5159L15.7919 24.7859C16.2114 25.1839 16.8687 25.185 17.2895 24.7885L23.6524 18.7935C23.8628 18.5952 23.9858 18.3215 23.9944 18.0325L23.9949 18.0001L23.9947 17.9802C23.9898 17.7092 23.8841 17.4499 23.6983 17.2526C23.4923 17.034 23.2053 16.9101 22.9049 16.9101L22.8809 16.9104C22.6114 16.9163 22.3537 17.0219 22.1575 17.2068L16.5446 22.4951Z" fill="#1C1C1C"/>
</svg>
