<svg width="161" height="122" viewBox="0 0 161 122" fill="none" xmlns="http://www.w3.org/2000/svg">
<path d="M50.9716 106.163C50.8405 106.169 50.7107 106.134 50.5998 106.064C50.4889 105.994 50.4023 105.891 50.3517 105.77C50.3011 105.649 50.2889 105.515 50.3168 105.387C50.3447 105.258 50.4113 105.142 50.5077 105.053C50.5239 104.988 50.5354 104.942 50.5516 104.878C50.4261 104.559 50.2083 104.285 49.9261 104.091C49.644 103.897 49.3102 103.791 48.9677 103.788C48.6252 103.785 48.2896 103.884 48.0038 104.073C47.718 104.262 47.495 104.532 47.3636 104.848C46.605 106.625 45.6233 108.464 46.1115 110.421C42.8865 103.582 43.9833 95.0742 48.7494 89.2253C50.0668 88.4991 51.1346 87.209 51.4126 85.7109C50.7606 85.932 49.9477 85.4013 50.4379 84.7141C50.6504 84.4515 50.8649 84.1909 51.0774 83.9282C48.6007 81.2889 45.6497 85.437 48.3759 88.9993C47.4841 90.1181 46.7116 91.3271 46.071 92.6066C46.219 91.2479 46.0424 89.8735 45.5559 88.5964C45.0628 87.4062 44.1387 86.4038 43.3248 85.3749C42.3353 84.1212 40.2987 84.6996 40.1656 86.2906C41.0788 86.5909 41.1974 87.9108 40.1528 88.0915C40.4264 91.0512 42.3588 93.7712 45.0203 95.0692C44.0375 97.8287 43.6537 100.766 43.8945 103.686C43.4248 100.274 39.7644 99.4455 37.206 98.0894C37.0431 97.9849 36.8534 97.9301 36.66 97.9316C36.4666 97.9332 36.2778 97.991 36.1166 98.0981C35.9555 98.2052 35.829 98.3569 35.7525 98.5347C35.6761 98.7125 35.653 98.9087 35.6861 99.0995C36.0392 99.2431 36.3772 99.4215 36.695 99.6321C36.844 99.7323 36.9583 99.8761 37.0224 100.044C37.0864 100.212 37.097 100.395 37.0527 100.569C37.0085 100.743 36.9115 100.899 36.7751 101.016C36.6387 101.133 36.4696 101.204 36.2909 101.221C37.5805 104.415 40.9146 106.56 44.339 106.547C44.6681 107.978 45.1449 109.371 45.7618 110.703H50.8442C50.8625 110.647 50.8788 110.589 50.8952 110.532C50.4248 110.562 49.9525 110.534 49.4889 110.448C50.7336 108.974 51.6961 108.221 50.9717 106.163L50.9716 106.163Z" fill="#F2F2F2"/>
<path d="M96.2813 106.163C96.4124 106.169 96.5422 106.134 96.6531 106.064C96.764 105.994 96.8506 105.891 96.9012 105.77C96.9519 105.649 96.964 105.515 96.9361 105.387C96.9082 105.258 96.8416 105.142 96.7452 105.053C96.7291 104.988 96.7175 104.942 96.7014 104.878C96.8268 104.559 97.0446 104.285 97.3268 104.091C97.609 103.897 97.9427 103.791 98.2852 103.788C98.6277 103.785 98.9634 103.884 99.2492 104.073C99.535 104.262 99.7579 104.532 99.8893 104.848C100.648 106.625 101.63 108.464 101.141 110.421C104.366 103.582 103.27 95.0742 98.5035 89.2253C97.1861 88.4991 96.1183 87.209 95.8403 85.7109C96.4923 85.932 97.3053 85.4013 96.815 84.7141C96.6025 84.4515 96.388 84.1909 96.1755 83.9282C98.6522 81.2889 101.603 85.437 98.8771 88.9993C99.7689 90.1181 100.541 91.3271 101.182 92.6066C101.034 91.2479 101.211 89.8735 101.697 88.5964C102.19 87.4062 103.114 86.4038 103.928 85.3749C104.918 84.1212 106.954 84.6996 107.087 86.2906C106.174 86.5909 106.056 87.9108 107.1 88.0915C106.826 91.0512 104.894 93.7712 102.233 95.0692C103.215 97.8287 103.599 100.766 103.358 103.686C103.828 100.274 107.489 99.4455 110.047 98.0894C110.21 97.9849 110.399 97.9301 110.593 97.9316C110.786 97.9332 110.975 97.991 111.136 98.0981C111.297 98.2052 111.424 98.3569 111.5 98.5347C111.577 98.7125 111.6 98.9087 111.567 99.0995C111.214 99.2431 110.876 99.4215 110.558 99.6321C110.409 99.7323 110.295 99.8761 110.231 100.044C110.167 100.212 110.156 100.395 110.2 100.569C110.244 100.743 110.341 100.899 110.478 101.016C110.614 101.133 110.783 101.204 110.962 101.221C109.672 104.415 106.338 106.56 102.914 106.547C102.585 107.978 102.108 109.371 101.491 110.703H96.4087C96.3905 110.647 96.3741 110.589 96.3577 110.532C96.8281 110.562 97.3004 110.534 97.764 110.448C96.5194 108.974 95.557 108.221 96.2813 106.163Z" fill="#F2F2F2"/>
<path d="M98.1654 106.918L95.9767 107.416L93.0142 99.2057L96.2447 98.4703L98.1654 106.918Z" fill="#FFB6B6"/>
<path d="M98.761 109.185L92.0302 110.717L92.0108 110.632C91.8527 109.937 91.9771 109.207 92.3566 108.604C92.7361 108.001 93.3396 107.573 94.0344 107.414L95.0518 106.201L97.558 106.612L98.1455 106.478L98.761 109.185Z" fill="#2F2E41"/>
<path d="M133.473 66.8964L134.676 68.7924L127.94 74.3393L126.164 71.5407L133.473 66.8964Z" fill="#FFB6B6"/>
<path d="M134.827 65.9673L139.065 71.0051L138.981 71.0455C138.292 71.3757 137.457 71.4859 136.661 71.3517C135.865 71.2175 135.171 70.85 134.734 70.33L133.035 69.8531L132.515 67.6928L132.146 67.253L134.827 65.9673Z" fill="#2F2E41"/>
<path d="M63.7027 46.6244L63.1621 43.489L71.381 39.7754L73.1559 36.6309C73.0986 36.355 73.1186 36.0686 73.2137 35.8033C73.3089 35.538 73.4754 35.3043 73.695 35.1278C73.9146 34.9513 74.1787 34.839 74.4581 34.8032C74.7375 34.7675 75.0213 34.8097 75.2782 34.9253C75.5351 35.0408 75.7551 35.2251 75.9138 35.4579C76.0726 35.6907 76.164 35.9628 76.1779 36.2443C76.1918 36.5258 76.1277 36.8057 75.9926 37.053C75.8575 37.3003 75.6568 37.5054 75.4125 37.6457L72.4927 42.1626L63.7027 46.6244Z" fill="#A0616A"/>
<path d="M61.2051 44.0616L64.9063 42.1698L65.886 45.8509L63.3152 47.7578L61.2051 44.0616Z" fill="#F9A826"/>
<path d="M52.8999 106.632L55.1378 106.632L56.2024 97.995L52.8994 97.9952L52.8999 106.632Z" fill="#A0616A"/>
<path d="M55.8843 106.834V105.316L55.296 105.352L52.9011 105.494L52.3468 105.528L51.9231 110.612L51.9004 110.885H53.4894L53.5405 110.614L53.7713 109.384L54.3672 110.614L54.4977 110.885H58.7105C58.9612 110.883 59.2011 110.783 59.3782 110.605C59.5553 110.428 59.6553 110.187 59.6564 109.936C59.8342 109.105 56.3307 107.309 55.8843 106.834Z" fill="#2F2E41"/>
<path d="M26.3342 72.3552L25.8125 74.5329L33.9583 77.5827L34.7282 74.3688L26.3342 72.3552Z" fill="#A0616A"/>
<path d="M25.6205 75.2103L27.0958 75.5642L27.198 74.9834L27.6184 72.62L27.7146 72.0727L22.8723 70.4749L22.6127 70.3893L22.2422 71.9355L22.4933 72.0483L23.6353 72.5597L22.3006 72.8527L22.0071 72.9166L21.0249 77.0158C20.9679 77.2601 21.0096 77.517 21.1409 77.7307C21.2722 77.9445 21.4824 78.0977 21.7259 78.1573C22.492 78.524 25.0546 75.5339 25.6205 75.2103Z" fill="#2F2E41"/>
<path d="M56.3607 50.7332L53.4802 49.3859L47.7359 56.3419L44.2369 57.2273C43.986 57.0993 43.7046 57.0433 43.4238 57.0653C43.143 57.0873 42.8737 57.1865 42.6458 57.352C42.4178 57.5175 42.24 57.7428 42.132 58.0031C42.024 58.2634 41.9899 58.5485 42.0337 58.8269C42.0774 59.1053 42.1972 59.3662 42.3798 59.5808C42.5625 59.7953 42.8008 59.9552 43.0685 60.0427C43.3362 60.1303 43.6229 60.142 43.8969 60.0768C44.1709 60.0115 44.4216 59.8717 44.6211 59.6729L49.7447 58.0436L56.3607 50.7332Z" fill="#A0616A"/>
<path d="M97.198 24.9827C96.5874 24.9827 95.9905 24.8016 95.4829 24.4621C94.9752 24.1227 94.5795 23.6402 94.3458 23.0758C94.1122 22.5113 94.051 21.8902 94.1702 21.291C94.2893 20.6918 94.5833 20.1414 95.0151 19.7093C95.4468 19.2773 95.9969 18.9831 96.5957 18.8639C97.1946 18.7447 97.8153 18.8059 98.3794 19.0397C98.9435 19.2735 99.4257 19.6695 99.7649 20.1774C100.104 20.6854 100.285 21.2827 100.285 21.8936C100.284 22.7126 99.9587 23.4978 99.3799 24.0769C98.8012 24.6561 98.0165 24.9818 97.198 24.9827ZM97.198 19.1591C96.6575 19.1591 96.1291 19.3195 95.6797 19.6199C95.2303 19.9204 94.88 20.3475 94.6731 20.8472C94.4663 21.3468 94.4122 21.8967 94.5176 22.4271C94.6231 22.9576 94.8834 23.4449 95.2656 23.8273C95.6478 24.2097 96.1347 24.4702 96.6648 24.5757C97.195 24.6812 97.7445 24.627 98.2438 24.4201C98.7432 24.2131 99.17 23.8626 99.4703 23.4129C99.7706 22.9632 99.9309 22.4345 99.9309 21.8936C99.9301 21.1686 99.6419 20.4736 99.1295 19.9609C98.6172 19.4483 97.9225 19.1599 97.198 19.1591Z" fill="#E6E6E6"/>
<path d="M96.9806 23.0576C96.9744 23.0576 96.9681 23.0574 96.9619 23.0571C96.9071 23.0545 96.8536 23.04 96.8049 23.0147C96.7562 22.9894 96.7135 22.9538 96.6799 22.9105L96.1935 22.2849C96.1628 22.2454 96.1402 22.2002 96.1269 22.152C96.1137 22.1037 96.11 22.0533 96.1162 22.0037C96.1224 21.954 96.1383 21.9061 96.163 21.8626C96.1878 21.8191 96.2208 21.7809 96.2603 21.7502L96.2778 21.7366C96.3172 21.7058 96.3624 21.6832 96.4106 21.6699C96.4588 21.6566 96.5092 21.653 96.5588 21.6592C96.6085 21.6654 96.6564 21.6813 96.6999 21.706C96.7433 21.7308 96.7815 21.7639 96.8122 21.8034C96.8368 21.835 96.8679 21.8608 96.9033 21.8793C96.9388 21.8977 96.9778 21.9082 97.0178 21.9102C97.0577 21.9121 97.0976 21.9054 97.1347 21.8905C97.1718 21.8756 97.2052 21.8529 97.2327 21.8239L98.2201 20.7808C98.2897 20.7076 98.3854 20.6649 98.4863 20.6621C98.5872 20.6594 98.6851 20.6968 98.7585 20.7662L98.7747 20.7816C98.811 20.816 98.8401 20.8572 98.8605 20.9029C98.8809 20.9486 98.8921 20.9979 98.8934 21.0479C98.8948 21.0979 98.8863 21.1477 98.8684 21.1944C98.8505 21.2412 98.8236 21.2839 98.7892 21.3202L97.2569 22.9386C97.2213 22.9762 97.1785 23.0062 97.131 23.0266C97.0835 23.0471 97.0323 23.0576 96.9806 23.0576Z" fill="#E6E6E6"/>
<path d="M81.7854 62.3824C81.1748 62.3824 80.5779 62.2012 80.0703 61.8618C79.5626 61.5224 79.1669 61.0399 78.9332 60.4754C78.6996 59.911 78.6384 59.2899 78.7576 58.6907C78.8767 58.0914 79.1707 57.541 79.6025 57.109C80.0342 56.677 80.5843 56.3828 81.1831 56.2636C81.782 56.1444 82.4027 56.2056 82.9668 56.4394C83.5309 56.6732 84.0131 57.0691 84.3523 57.5771C84.6915 58.0851 84.8726 58.6823 84.8726 59.2933C84.8716 60.1123 84.5461 60.8975 83.9673 61.4766C83.3886 62.0557 82.6039 62.3815 81.7854 62.3824ZM81.7854 56.5587C81.2449 56.5587 80.7165 56.7191 80.2671 57.0196C79.8177 57.3201 79.4674 57.7471 79.2606 58.2468C79.0537 58.7465 78.9996 59.2963 79.105 59.8268C79.2105 60.3573 79.4708 60.8445 79.853 61.2269C80.2352 61.6094 80.7221 61.8698 81.2522 61.9753C81.7824 62.0809 82.3319 62.0267 82.8312 61.8197C83.3306 61.6128 83.7574 61.2623 84.0577 60.8126C84.358 60.3629 84.5183 59.8342 84.5183 59.2933C84.5175 58.5683 84.2293 57.8732 83.7169 57.3606C83.2046 56.8479 82.51 56.5596 81.7854 56.5587Z" fill="#E6E6E6"/>
<path d="M81.5685 60.4572C81.5623 60.4572 81.556 60.457 81.5498 60.4567C81.495 60.454 81.4414 60.4395 81.3928 60.4142C81.3441 60.3889 81.3014 60.3534 81.2677 60.31L80.7814 59.6844C80.7507 59.6449 80.7281 59.5998 80.7148 59.5515C80.7016 59.5033 80.6979 59.4529 80.7041 59.4032C80.7103 59.3536 80.7262 59.3056 80.7509 59.2621C80.7756 59.2186 80.8087 59.1804 80.8482 59.1497L80.8657 59.1361C80.9051 59.1054 80.9503 59.0827 80.9985 59.0694C81.0467 59.0561 81.0971 59.0525 81.1467 59.0587C81.1964 59.0649 81.2443 59.0808 81.2877 59.1056C81.3312 59.1303 81.3694 59.1634 81.4001 59.2029C81.4247 59.2345 81.4557 59.2604 81.4912 59.2788C81.5267 59.2972 81.5657 59.3078 81.6057 59.3097C81.6456 59.3117 81.6855 59.305 81.7226 59.2901C81.7597 59.2752 81.7931 59.2524 81.8206 59.2234L82.808 58.1803C82.8775 58.1071 82.9733 58.0644 83.0742 58.0617C83.1751 58.0589 83.273 58.0963 83.3464 58.1657L83.3625 58.1811C83.3989 58.2156 83.428 58.2568 83.4484 58.3025C83.4688 58.3482 83.48 58.3974 83.4813 58.4474C83.4827 58.4975 83.4742 58.5472 83.4563 58.594C83.4384 58.6407 83.4115 58.6834 83.3771 58.7197L81.8448 60.3382C81.8092 60.3758 81.7664 60.4057 81.7189 60.4262C81.6714 60.4466 81.6202 60.4572 81.5685 60.4572Z" fill="#E6E6E6"/>
<path d="M47.9543 20.7291C47.3438 20.7291 46.7469 20.5479 46.2392 20.2085C45.7315 19.869 45.3358 19.3866 45.1022 18.8221C44.8685 18.2577 44.8074 17.6366 44.9265 17.0373C45.0456 16.4381 45.3396 15.8877 45.7714 15.4557C46.2031 15.0237 46.7532 14.7295 47.3521 14.6103C47.9509 14.4911 48.5716 14.5522 49.1358 14.786C49.6999 15.0199 50.182 15.4158 50.5212 15.9238C50.8605 16.4318 51.0415 17.029 51.0415 17.64C51.0406 18.459 50.715 19.2442 50.1363 19.8233C49.5575 20.4024 48.7728 20.7282 47.9543 20.7291ZM47.9543 14.9054C47.4138 14.9054 46.8855 15.0658 46.436 15.3663C45.9866 15.6667 45.6363 16.0938 45.4295 16.5935C45.2227 17.0932 45.1685 17.643 45.274 18.1735C45.3794 18.7039 45.6397 19.1912 46.0219 19.5736C46.4041 19.9561 46.8911 20.2165 47.4212 20.322C47.9513 20.4275 48.5008 20.3734 49.0002 20.1664C49.4995 19.9594 49.9264 19.6089 50.2267 19.1592C50.5269 18.7095 50.6872 18.1808 50.6872 17.64C50.6864 16.915 50.3982 16.2199 49.8859 15.7073C49.3735 15.1946 48.6789 14.9062 47.9543 14.9054Z" fill="#E6E6E6"/>
<path d="M47.7374 18.803C47.7312 18.803 47.725 18.8028 47.7188 18.8025C47.664 18.7998 47.6104 18.7854 47.5617 18.76C47.513 18.7347 47.4704 18.6992 47.4367 18.6558L46.9504 18.0302C46.9197 17.9907 46.897 17.9456 46.8838 17.8973C46.8705 17.8491 46.8669 17.7987 46.8731 17.7491C46.8792 17.6994 46.8952 17.6515 46.9199 17.608C46.9446 17.5645 46.9776 17.5263 47.0171 17.4956L47.0346 17.4819C47.0741 17.4512 47.1192 17.4285 47.1674 17.4152C47.2157 17.4019 47.266 17.3983 47.3157 17.4045C47.3653 17.4107 47.4132 17.4267 47.4567 17.4514C47.5002 17.4762 47.5383 17.5092 47.569 17.5488C47.5936 17.5803 47.6247 17.6062 47.6602 17.6246C47.6956 17.6431 47.7347 17.6536 47.7746 17.6555C47.8145 17.6575 47.8544 17.6508 47.8915 17.6359C47.9286 17.621 47.9621 17.5983 47.9896 17.5692L48.977 16.5262C49.0465 16.4529 49.1422 16.4102 49.2431 16.4075C49.344 16.4047 49.4419 16.4422 49.5153 16.5115L49.5315 16.527C49.5678 16.5614 49.597 16.6026 49.6174 16.6483C49.6377 16.694 49.6489 16.7432 49.6503 16.7933C49.6516 16.8433 49.6431 16.8931 49.6252 16.9398C49.6073 16.9865 49.5804 17.0293 49.546 17.0656L48.0137 18.684C47.9781 18.7216 47.9353 18.7515 47.8878 18.772C47.8403 18.7924 47.7891 18.803 47.7374 18.803Z" fill="#E6E6E6"/>
<path d="M72.6697 73.8685C65.511 73.8685 57.2838 65.9195 50.0047 69.6963C27.9658 81.1314 30.9996 61.9965 24.668 54.8801L24.8758 54.4629C31.862 60.731 40.5845 65.8309 50.1004 69.211C58.6998 72.2658 67.3637 73.6813 75.1522 73.3077L75.1658 73.8092C74.3432 73.8489 73.5112 73.8687 72.6697 73.8685Z" fill="#F2F2F2"/>
<path d="M62.8504 20.1245C63.6768 20.1245 64.3467 19.2256 64.3467 18.1167C64.3467 17.0078 63.6768 16.1089 62.8504 16.1089C62.024 16.1089 61.354 17.0078 61.354 18.1167C61.354 19.2256 62.024 20.1245 62.8504 20.1245Z" fill="#E6E6E6"/>
<path d="M80.1299 51.446C79.4458 51.9021 78.7456 50.8166 79.4428 50.3807C80.1269 49.9246 80.8271 51.0102 80.1299 51.446Z" fill="#E6E6E6"/>
<path d="M76.1927 14.8995C77.2688 14.8995 78.1412 14.0266 78.1412 12.9498C78.1412 11.8729 77.2688 11 76.1927 11C75.1165 11 74.2441 11.8729 74.2441 12.9498C74.2441 14.0266 75.1165 14.8995 76.1927 14.8995Z" fill="#FF6584"/>
<path d="M71.8172 63.1113C72.8642 63.1113 73.713 62.2619 73.713 61.2143C73.713 60.1666 72.8642 59.3173 71.8172 59.3173C70.7702 59.3173 69.9214 60.1666 69.9214 61.2143C69.9214 62.2619 70.7702 63.1113 71.8172 63.1113Z" fill="#F2F2F2"/>
<path d="M53.4547 61.9373C53.4547 61.9373 48.7285 65.0167 49.9782 67.063C50.0213 67.1336 44.3328 74.6513 44.3328 74.6513L33.5942 73.9691L33.2158 77.5656L42.7761 80.3362C42.7761 80.3362 45.1149 82.0555 46.9217 80.1612C48.7285 78.2668 54.7467 72.4658 54.7467 72.4658L55.037 84.1779L52.0159 100.408L56.5268 100.121L60.9173 83.839L62.5379 65.3953L53.4547 61.9373Z" fill="#2F2E41"/>
<path d="M56.8235 43.4559L54.8361 44.963L52.5708 49.8008L54.749 52.761C54.749 52.761 56.5814 55.9385 53.6485 59.0158C50.7156 62.093 48.4634 65.3796 50.8109 65.2622C53.1584 65.1449 62.6661 69.9837 62.7286 66.0194C62.7912 62.0551 62.9178 59.0158 62.9178 59.0158L65.4105 52.6895C65.4105 52.6895 66.8956 48.9155 65.8529 47.7859C64.8102 46.6562 63.4142 45.2126 63.4142 45.2126L60.8754 42.6722H58.583L56.8235 43.4559Z" fill="#F9A826"/>
<path d="M60.5338 34.161C64.9925 36.6997 61.3322 43.3982 56.7903 41.0129C52.3318 38.4743 55.9922 31.7758 60.5338 34.161Z" fill="#A0616A"/>
<path d="M62.9186 35.5685C62.6062 35.9751 61.9535 35.7844 60.6752 36.0746C60.678 35.641 60.628 35.2088 60.5262 34.7874C60.4311 35.3091 60.2227 35.8036 59.9156 36.236C58.8057 36.3591 60.1663 39.7331 59.598 42.2137C58.8658 36.9804 57.3258 38.3515 58.1038 39.3895C58.6019 40.054 58.2698 42.0476 56.7756 41.0508C54.3101 42.2232 50.7986 36.3991 54.6905 33.6677C54.6209 32.1913 56.2627 31.9581 57.2737 32.412C59.7272 30.5832 62.5303 32.9265 62.9186 35.5685Z" fill="#2F2E41"/>
<path d="M51.4751 31.75C50.4825 37.8571 45.1618 30.6269 42.6601 36.6368C41.8735 38.8133 43.2231 40.3703 44.0767 42.1768C44.2715 43.6615 42.3413 44.4148 42.1391 45.7814C42.0829 48.9145 47.1345 48.7228 48.5467 46.7461C49.9978 44.6768 48.265 41.9005 49.1372 39.6793C50.363 36.5956 55.3484 36.5727 55.7827 32.9851C54.9416 31.7866 52.6798 30.4139 51.4751 31.75Z" fill="#2F2E41"/>
<path d="M55.4995 32.3461C55.467 32.3598 55.4345 32.3735 55.4055 32.3889H55.4038C55.3764 32.4026 55.3491 32.4162 55.3217 32.4316C55.3183 32.4333 55.3166 32.4351 55.3132 32.4368C55.2773 32.4026 55.2414 32.3684 55.2038 32.3341C55.1941 32.3899 55.1964 32.447 55.2106 32.5017L55.2158 32.5223C55.25 32.5582 55.2858 32.5924 55.3234 32.6283C55.3576 32.6027 55.3901 32.5753 55.4243 32.5496C55.4448 32.5325 55.4653 32.5154 55.4875 32.4983C55.4909 32.4539 55.4961 32.4026 55.5012 32.3461L55.4995 32.3461ZM56.5284 30.4443C55.7661 30.2699 55.52 31.2669 55.4465 31.7475C55.1696 30.0031 54.0176 30.5521 54.4159 31.7424C54.5428 32.0948 54.7426 32.4165 55.0021 32.6865C55.038 32.7275 55.0773 32.7685 55.1183 32.8096C55.0722 33.049 55.3046 32.9875 55.6191 32.7668C55.8514 32.6016 56.0661 32.4131 56.2601 32.2042C56.8874 31.5457 57.3762 30.6649 56.5284 30.4443ZM56.5524 31.426C56.3172 31.7295 56.0533 32.0095 55.7644 32.2623C55.6738 32.3444 55.5815 32.4231 55.4875 32.4983C55.4858 32.5137 55.4858 32.5274 55.4841 32.5394C55.4775 32.556 55.4695 32.572 55.4602 32.5873C55.3645 32.76 55.2568 32.6659 55.2158 32.5223C55.2123 32.5171 55.2072 32.512 55.2038 32.5069C55.0672 32.3657 54.9484 32.2083 54.85 32.0383C54.1441 30.8137 55.2807 29.9808 55.2243 32.2674C55.2139 32.2884 55.207 32.311 55.2038 32.3341C55.1941 32.3899 55.1964 32.447 55.2106 32.5017L55.2158 32.5223C55.25 32.5582 55.2858 32.5924 55.3234 32.6283C55.3576 32.6027 55.3901 32.5753 55.4243 32.5496C55.4448 32.5325 55.4653 32.5154 55.4875 32.4983C55.4909 32.4539 55.4961 32.4026 55.5012 32.3461V32.3444C55.5456 31.8861 55.667 31.0617 55.8909 30.8377C56.3831 30.4597 57.0207 30.8685 56.5524 31.426ZM55.4995 32.3461C55.467 32.3598 55.4345 32.3735 55.4055 32.3889H55.4038C55.3764 32.4026 55.3491 32.4162 55.3217 32.4316C55.3183 32.4333 55.3166 32.4351 55.3132 32.4368C55.2773 32.4026 55.2414 32.3684 55.2038 32.3341C55.1941 32.3899 55.1964 32.447 55.2106 32.5017L55.2158 32.5223C55.25 32.5582 55.2858 32.5924 55.3234 32.6283C55.3576 32.6027 55.3901 32.5753 55.4243 32.5496C55.4448 32.5325 55.4653 32.5154 55.4875 32.4983C55.4909 32.4539 55.4961 32.4026 55.5012 32.3461L55.4995 32.3461Z" fill="#2F2E41"/>
<path d="M96.708 66.017L95.0612 70.3141L87.3364 85.5613L94.1242 103.298L97.6273 102.373L94.7399 85.5613L103.024 75.4899L112.861 82.1663C112.861 82.1663 117.224 85.5746 118.884 82.3436C120.544 79.1126 131.284 72.2403 131.284 72.2403L128.627 69.4043L116.259 75.1957L107.723 63.1732L96.708 66.017Z" fill="#2F2E41"/>
<path d="M105.017 45.7474L102.306 42.8332L97.656 42.1931L91.9585 46.1842L92.0159 50.6019L94.8324 61.0117C94.8324 61.0117 93.7596 68.4906 96.7561 68.4156C99.7527 68.3406 101.386 66.8457 102.606 67.15C103.827 67.4543 109.015 68.7494 109.344 67.3928C109.673 66.0363 111.42 67.0076 111.344 65.7243C111.267 64.441 106.612 55.1909 106.612 55.1909L107.77 45.9399L105.017 45.7474Z" fill="#F9A826"/>
<path d="M122.181 32.3331C122.206 32.5748 122.177 32.8189 122.096 33.0481C122.016 33.2773 121.887 33.4862 121.717 33.66C121.547 33.8337 121.342 33.9682 121.115 34.0538C120.888 34.1395 120.644 34.1743 120.402 34.1557L114.169 46.0185L112.495 43.4477L118.867 32.2518C118.925 31.8471 119.129 31.4777 119.441 31.2136C119.754 30.9496 120.152 30.8093 120.56 30.8193C120.969 30.8294 121.359 30.989 121.658 31.268C121.957 31.547 122.143 31.926 122.181 32.3331Z" fill="#FFB6B6"/>
<path d="M102.559 47.9534C102.559 47.9534 102.311 50.0636 104.685 50.586C107.059 51.1084 113.637 47.3478 114.715 46.7734C115.053 46.5935 115.511 45.7119 115.981 44.5857C116.192 44.0801 116.405 43.5252 116.611 42.9623C116.731 42.6366 117.302 42.5477 117.414 42.2247C117.526 41.9034 117.179 41.348 117.28 41.0452C117.76 39.6081 118.101 38.468 118.101 38.468L116.527 35.5105C114.327 36.6746 113.198 39.2389 112.368 42.1931L102.559 47.9534Z" fill="#F9A826"/>
<path d="M74.8302 35.057C74.8672 35.2971 74.9563 35.5261 75.0913 35.728C75.2263 35.9299 75.4039 36.0997 75.6115 36.2254C75.8192 36.3512 76.0519 36.4299 76.2932 36.4559C76.5346 36.482 76.7787 36.4548 77.0084 36.3762L86.0106 46.3005L86.988 43.3924L78.019 34.1483C77.8615 33.771 77.5711 33.4645 77.2029 33.2871C76.8347 33.1096 76.4143 33.0735 76.0212 33.1855C75.6282 33.2975 75.2898 33.5499 75.0703 33.8948C74.8508 34.2397 74.7654 34.6533 74.8302 35.057Z" fill="#FFB6B6"/>
<path d="M97.7392 45.2666C97.7392 45.2666 98.5063 47.2477 96.3384 48.3479C94.1706 49.4482 86.862 47.4543 85.6744 47.1682C85.3026 47.0786 84.6385 46.3398 83.9017 45.3672C83.5709 44.9305 83.2254 44.4467 82.8852 43.9533C82.6883 43.6678 82.1133 43.7247 81.9237 43.4401C81.7352 43.1571 81.932 42.5325 81.7584 42.2647C80.9339 40.9936 80.3193 39.975 80.3193 39.975L81.1031 36.7175C83.5248 37.2936 85.259 39.4936 86.8015 42.1459L97.7392 45.2666Z" fill="#F9A826"/>
<path d="M100.074 41.4517C102.517 41.4517 104.498 39.4697 104.498 37.0247C104.498 34.5797 102.517 32.5977 100.074 32.5977C97.6302 32.5977 95.6494 34.5797 95.6494 37.0247C95.6494 39.4697 97.6302 41.4517 100.074 41.4517Z" fill="#FFB6B6"/>
<path d="M105.124 34.4902C104.659 33.7698 103.785 33.2897 102.939 33.4246C102.86 32.8839 102.635 32.3753 102.287 31.954C101.939 31.5327 101.483 31.215 100.967 31.0354C100.451 30.8558 99.8962 30.8211 99.3622 30.9353C98.8283 31.0495 98.3358 31.308 97.9385 31.6828C97.8079 31.5908 97.6557 31.5341 97.4967 31.5181C97.3377 31.5022 97.1773 31.5277 97.031 31.592C96.7396 31.7245 96.4861 31.9281 96.2937 32.1841C95.8079 32.7904 95.4955 33.517 95.3897 34.2868C95.2838 35.0566 95.3886 35.8407 95.6928 36.5557C95.5894 36.1793 95.9663 35.8252 96.3472 35.7408C96.7281 35.6563 97.1276 35.7362 97.5138 35.6812C98.0088 35.6107 98.4538 35.3234 98.9496 35.2587C99.3701 35.2313 99.7918 35.2856 100.192 35.4184C100.592 35.5512 101.013 35.6078 101.433 35.5852C101.851 35.5357 102.388 37.1181 102.381 38.2326C102.38 38.4438 102.423 38.715 102.629 38.7598C102.883 38.815 103.031 38.4642 103.272 38.3686C103.384 38.3366 103.503 38.3492 103.606 38.4037C103.708 38.4581 103.785 38.5502 103.821 38.6606C103.852 38.7727 103.855 38.8905 103.831 39.0042C103.806 39.1179 103.755 39.2241 103.682 39.3141C103.533 39.4924 103.357 39.6456 103.159 39.7676L103.259 39.8505C103.353 39.9504 103.48 40.0144 103.616 40.0313C103.753 40.0483 103.891 40.0172 104.007 39.9435C104.235 39.7888 104.42 39.5781 104.544 39.3316C105.011 38.6094 105.344 37.8095 105.529 36.9696C105.685 36.1261 105.59 35.2107 105.124 34.4902Z" fill="#2F2E41"/>
<path d="M137.856 51.9503C132.149 56.2751 120.795 54.9088 117.271 62.3171C106.602 84.7473 97.4747 67.6609 88.1334 65.8131L88.0474 65.355C97.3986 66.1311 107.429 64.9269 117.054 61.8724C125.753 59.1124 133.513 55.0065 139.497 50.0034L139.81 50.395C139.178 50.9236 138.527 51.442 137.856 51.9503Z" fill="#F2F2F2"/>
<path d="M113.726 110.698C113.591 111.101 35.9899 111.101 35.8433 110.699C35.979 110.295 113.58 110.295 113.726 110.698Z" fill="#CCCCCC"/>
</svg>
