<svg width="139" height="124" viewBox="0 0 139 124" fill="none" xmlns="http://www.w3.org/2000/svg">
<path d="M41.0117 107.163C40.8805 107.169 40.7505 107.134 40.6395 107.064C40.5284 106.994 40.4417 106.891 40.391 106.77C40.3403 106.649 40.3281 106.515 40.356 106.387C40.384 106.258 40.4507 106.142 40.5472 106.052C40.5634 105.988 40.575 105.942 40.5911 105.878C40.4655 105.559 40.2474 105.285 39.9649 105.091C39.6823 104.896 39.3481 104.791 39.0052 104.788C38.6622 104.784 38.3261 104.884 38.0399 105.073C37.7537 105.261 37.5305 105.531 37.3989 105.848C36.6393 107.625 35.6562 109.464 36.1451 111.421C32.9158 104.581 34.014 96.074 38.7865 90.2251C40.1057 89.4989 41.175 88.2088 41.4533 86.7107C40.8005 86.9318 39.9864 86.4011 40.4773 85.7139C40.6901 85.4512 40.9049 85.1906 41.1177 84.928C38.6376 82.2886 35.6827 86.4367 38.4125 89.999C37.5195 91.1179 36.746 92.3269 36.1046 93.6064C36.2527 92.2477 36.0759 90.8733 35.5888 89.5962C35.095 88.406 34.1696 87.4036 33.3547 86.3747C32.3638 85.121 30.3245 85.6994 30.1912 87.2903C31.1056 87.5907 31.2244 88.9106 30.1784 89.0913C30.4524 92.051 32.3874 94.771 35.0525 96.069C34.0683 98.8285 33.684 101.766 33.9252 104.685C33.4547 101.273 29.7894 100.445 27.2276 99.0892C27.0645 98.9847 26.8746 98.9299 26.6809 98.9314C26.4872 98.933 26.2981 98.9908 26.1367 99.0979C25.9754 99.205 25.8487 99.3567 25.7722 99.5345C25.6956 99.7123 25.6725 99.9085 25.7056 100.099C26.0592 100.243 26.3977 100.421 26.716 100.632C26.8651 100.732 26.9796 100.876 27.0437 101.044C27.1078 101.211 27.1185 101.395 27.0741 101.569C27.0298 101.743 26.9327 101.899 26.7961 102.016C26.6595 102.133 26.4902 102.204 26.3112 102.221C27.6026 105.415 30.9412 107.559 34.3702 107.547C34.6998 108.978 35.1772 110.371 35.7949 111.703H40.8842C40.9025 111.647 40.9189 111.588 40.9353 111.532C40.4642 111.562 39.9913 111.533 39.527 111.448C40.7734 109.974 41.7372 109.221 41.0119 107.163L41.0117 107.163Z" fill="#F2F2F2"/>
<path d="M86.385 107.163C86.5162 107.169 86.6462 107.134 86.7572 107.064C86.8683 106.994 86.955 106.891 87.0057 106.77C87.0564 106.649 87.0686 106.515 87.0406 106.387C87.0127 106.258 86.946 106.142 86.8495 106.052C86.8333 105.988 86.8217 105.942 86.8055 105.878C86.9312 105.559 87.1492 105.285 87.4318 105.091C87.7144 104.896 88.0486 104.791 88.3915 104.788C88.7345 104.784 89.0706 104.884 89.3568 105.073C89.643 105.261 89.8662 105.531 89.9978 105.848C90.7574 107.625 91.7405 109.464 91.2516 111.421C94.4809 104.581 93.3827 96.074 88.6102 90.2251C87.291 89.4989 86.2217 88.2088 85.9434 86.7107C86.5962 86.9318 87.4103 86.4011 86.9194 85.7139C86.7066 85.4512 86.4918 85.1906 86.279 84.928C88.7591 82.2886 91.714 86.4367 88.9842 89.999C89.8772 91.1178 90.6507 92.3269 91.2921 93.6064C91.144 92.2477 91.3208 90.8733 91.8079 89.5962C92.3017 88.406 93.2271 87.4036 94.042 86.3747C95.0329 85.121 97.0722 85.6994 97.2055 87.2903C96.2911 87.5907 96.1723 88.9106 97.2183 89.0913C96.9443 92.051 95.0093 94.771 92.3442 96.069C93.3284 98.8285 93.7127 101.766 93.4715 104.685C93.942 101.273 97.6073 100.445 100.169 99.0892C100.332 98.9847 100.522 98.9299 100.716 98.9314C100.91 98.933 101.099 98.9908 101.26 99.0979C101.421 99.205 101.548 99.3567 101.625 99.5345C101.701 99.7123 101.724 99.9085 101.691 100.099C101.337 100.243 100.999 100.421 100.681 100.632C100.532 100.732 100.417 100.876 100.353 101.044C100.289 101.211 100.278 101.395 100.323 101.569C100.367 101.743 100.464 101.899 100.601 102.016C100.737 102.133 100.907 102.204 101.085 102.221C99.7941 105.415 96.4554 107.559 93.0264 107.547C92.6969 108.978 92.2195 110.371 91.6018 111.703H86.5125C86.4942 111.647 86.4778 111.588 86.4614 111.532C86.9325 111.562 87.4054 111.533 87.8697 111.448C86.6233 109.974 85.6596 109.221 86.385 107.163Z" fill="#F2F2F2"/>
<path d="M88.269 107.918L86.0773 108.416L83.1108 100.205L86.3457 99.4696L88.269 107.918Z" fill="#FFB6B6"/>
<path d="M88.8674 110.185L82.1275 111.717L82.1081 111.632C81.9498 110.937 82.0743 110.207 82.4544 109.604C82.8344 109 83.4387 108.572 84.1344 108.414L85.1531 107.201L87.6627 107.612L88.2511 107.478L88.8674 110.185Z" fill="#2F2E41"/>
<path d="M123.625 67.8961L124.83 69.7922L118.085 75.3391L116.306 72.5405L123.625 67.8961Z" fill="#FFB6B6"/>
<path d="M125.562 66.5729L129.268 72.4036L129.194 72.4505C128.592 72.8327 127.862 72.9602 127.166 72.8049C126.469 72.6496 125.863 72.2242 125.481 71.6224L123.995 71.0703L123.541 68.57L123.217 68.061L125.562 66.5729Z" fill="#2F2E41"/>
<path d="M53.7635 47.6244L53.2222 44.489L61.4521 40.7754L63.2294 37.6309C63.172 37.355 63.1921 37.0686 63.2873 36.8033C63.3826 36.538 63.5494 36.3043 63.7693 36.1278C63.9892 35.9513 64.2536 35.839 64.5334 35.8032C64.8131 35.7675 65.0973 35.8097 65.3546 35.9253C65.6118 36.0408 65.8321 36.2251 65.9911 36.4579C66.1501 36.6907 66.2416 36.9628 66.2555 37.2443C66.2694 37.5258 66.2052 37.8057 66.0699 38.053C65.9347 38.3003 65.7337 38.5054 65.4891 38.6457L62.5654 43.1626L53.7635 47.6244Z" fill="#A0616A"/>
<path d="M51.2603 45.0614L54.9664 43.1696L55.9475 46.8507L53.3732 48.7576L51.2603 45.0614Z" fill="#C7C7C7"/>
<path d="M42.9419 107.633L45.1828 107.633L46.2488 98.9955L42.9414 98.9957L42.9419 107.633Z" fill="#A0616A"/>
<path d="M45.9292 107.835V106.317L45.3401 106.353L42.942 106.494L42.387 106.529L41.9627 111.613L41.9399 111.885H43.5311L43.5823 111.615L43.8133 110.384L44.41 111.615L44.5407 111.885H48.7592C49.0103 111.884 49.2505 111.783 49.4279 111.606C49.6052 111.428 49.7053 111.188 49.7064 110.937C49.8844 110.106 46.3763 108.31 45.9292 107.835Z" fill="#2F2E41"/>
<path d="M16.3446 73.3551L15.8223 75.5328L23.979 78.5826L24.7499 75.3687L16.3446 73.3551Z" fill="#A0616A"/>
<path d="M15.6267 76.2104L17.104 76.5644L17.2064 75.9835L17.6274 73.6201L17.7236 73.0728L12.8748 71.475L12.6149 71.3894L12.2439 72.9356L12.4954 73.0484L13.6388 73.5598L12.3024 73.8528L12.0085 73.9167L11.0249 78.0159C10.9679 78.2603 11.0097 78.5172 11.1411 78.7309C11.2725 78.9446 11.4831 79.0979 11.7269 79.1574C12.4941 79.5242 15.0601 76.534 15.6267 76.2104Z" fill="#2F2E41"/>
<path d="M46.4093 51.7328L43.5249 50.3854L37.7729 57.3414L34.2692 58.2269C34.0179 58.0989 33.7361 58.0428 33.455 58.0648C33.1738 58.0868 32.9042 58.186 32.6759 58.3515C32.4476 58.517 32.2696 58.7424 32.1614 59.0027C32.0533 59.2629 32.0192 59.548 32.063 59.8264C32.1068 60.1049 32.2268 60.3658 32.4096 60.5803C32.5925 60.7949 32.8311 60.9547 33.0992 61.0423C33.3673 61.1298 33.6544 61.1416 33.9288 61.0763C34.2031 61.011 34.4541 60.8713 34.654 60.6724L39.7844 59.0432L46.4093 51.7328Z" fill="#A0616A"/>
<path d="M87.3003 25.9826C86.6889 25.9826 86.0912 25.8015 85.5829 25.462C85.0745 25.1226 84.6783 24.6401 84.4443 24.0757C84.2103 23.5112 84.1491 22.8901 84.2684 22.2909C84.3877 21.6917 84.6821 21.1412 85.1144 20.7092C85.5467 20.2772 86.0976 19.983 86.6972 19.8638C87.2969 19.7446 87.9184 19.8058 88.4833 20.0396C89.0482 20.2734 89.531 20.6693 89.8706 21.1773C90.2103 21.6853 90.3916 22.2826 90.3916 22.8935C90.3907 23.7125 90.0647 24.4977 89.4852 25.0768C88.9056 25.656 88.1199 25.9817 87.3003 25.9826ZM87.3003 20.159C86.7591 20.159 86.23 20.3193 85.78 20.6198C85.3299 20.9203 84.9792 21.3474 84.7721 21.8471C84.5649 22.3467 84.5107 22.8966 84.6163 23.427C84.7219 23.9575 84.9825 24.4447 85.3653 24.8272C85.748 25.2096 86.2356 25.4701 86.7664 25.5756C87.2973 25.6811 87.8475 25.6269 88.3475 25.42C88.8476 25.213 89.275 24.8625 89.5757 24.4128C89.8764 23.9631 90.0369 23.4344 90.0369 22.8935C90.036 22.1685 89.7475 21.4735 89.2344 20.9608C88.7214 20.4481 88.0258 20.1598 87.3003 20.159Z" fill="#E6E6E6"/>
<path d="M87.0823 24.0567C87.0761 24.0567 87.0699 24.0565 87.0637 24.0562C87.0088 24.0535 86.9551 24.039 86.9064 24.0137C86.8576 23.9884 86.8149 23.9528 86.7812 23.9095L86.2942 23.2839C86.2635 23.2444 86.2408 23.1992 86.2275 23.151C86.2142 23.1028 86.2106 23.0524 86.2168 23.0027C86.223 22.9531 86.2389 22.9051 86.2637 22.8616C86.2884 22.8181 86.3215 22.7799 86.3611 22.7492L86.3786 22.7356C86.4181 22.7048 86.4633 22.6822 86.5116 22.6689C86.5599 22.6556 86.6103 22.652 86.66 22.6582C86.7097 22.6644 86.7577 22.6803 86.8012 22.7051C86.8448 22.7298 86.883 22.7629 86.9137 22.8024C86.9383 22.834 86.9695 22.8599 87.005 22.8783C87.0405 22.8967 87.0796 22.9073 87.1196 22.9092C87.1596 22.9112 87.1995 22.9045 87.2366 22.8896C87.2738 22.8747 87.3073 22.8519 87.3348 22.8229L88.3236 21.7798C88.3932 21.7066 88.489 21.6639 88.5901 21.6612C88.6911 21.6584 88.7891 21.6958 88.8626 21.7652L88.8788 21.7806C88.9152 21.815 88.9444 21.8563 88.9648 21.902C88.9852 21.9476 88.9964 21.9969 88.9978 22.0469C88.9991 22.0969 88.9906 22.1467 88.9727 22.1935C88.9548 22.2402 88.9278 22.2829 88.8934 22.3192L87.359 23.9377C87.3234 23.9753 87.2805 24.0052 87.2329 24.0257C87.1854 24.0461 87.1341 24.0567 87.0823 24.0567Z" fill="#E6E6E6"/>
<path d="M71.8701 63.3824C71.2587 63.3824 70.661 63.2012 70.1527 62.8618C69.6443 62.5224 69.2481 62.0399 69.0141 61.4755C68.7801 60.911 68.7189 60.2899 68.8382 59.6907C68.9575 59.0914 69.2519 58.541 69.6842 58.109C70.1166 57.677 70.6674 57.3828 71.267 57.2636C71.8667 57.1444 72.4883 57.2056 73.0531 57.4394C73.618 57.6732 74.1008 58.0691 74.4405 58.5771C74.7801 59.0851 74.9614 59.6823 74.9614 60.2933C74.9605 61.1123 74.6345 61.8975 74.055 62.4766C73.4755 63.0557 72.6897 63.3815 71.8701 63.3824ZM71.8701 57.5587C71.3289 57.5587 70.7998 57.7191 70.3498 58.0196C69.8998 58.3201 69.549 58.7472 69.3419 59.2468C69.1348 59.7465 69.0806 60.2964 69.1861 60.8268C69.2917 61.3573 69.5524 61.8445 69.9351 62.227C70.3178 62.6094 70.8054 62.8698 71.3363 62.9754C71.8671 63.0809 72.4173 63.0267 72.9174 62.8197C73.4174 62.6128 73.8448 62.2623 74.1455 61.8126C74.4462 61.3629 74.6067 60.8342 74.6067 60.2933C74.6059 59.5683 74.3173 58.8732 73.8043 58.3606C73.2912 57.8479 72.5957 57.5596 71.8701 57.5587Z" fill="#E6E6E6"/>
<path d="M71.6492 61.4572C71.643 61.4572 71.6368 61.457 71.6306 61.4567C71.5757 61.454 71.522 61.4395 71.4733 61.4142C71.4245 61.3889 71.3818 61.3534 71.3481 61.31L70.8611 60.6844C70.8304 60.6449 70.8077 60.5998 70.7944 60.5515C70.7811 60.5033 70.7775 60.4529 70.7837 60.4032C70.7899 60.3536 70.8058 60.3056 70.8306 60.2621C70.8553 60.2186 70.8884 60.1805 70.9279 60.1497L70.9455 60.1361C70.985 60.1054 71.0302 60.0827 71.0785 60.0694C71.1268 60.0561 71.1772 60.0525 71.2269 60.0587C71.2766 60.0649 71.3246 60.0808 71.3681 60.1056C71.4117 60.1303 71.4499 60.1634 71.4806 60.2029C71.5052 60.2345 71.5364 60.2604 71.5719 60.2788C71.6074 60.2972 71.6465 60.3078 71.6865 60.3097C71.7265 60.3117 71.7664 60.305 71.8035 60.2901C71.8407 60.2752 71.8742 60.2524 71.9017 60.2234L72.8905 59.1803C72.9601 59.1071 73.0559 59.0644 73.157 59.0617C73.258 59.0589 73.356 59.0963 73.4295 59.1657L73.4457 59.1811C73.4821 59.2156 73.5113 59.2568 73.5317 59.3025C73.5521 59.3482 73.5633 59.3974 73.5647 59.4474C73.566 59.4975 73.5575 59.5473 73.5396 59.594C73.5217 59.6407 73.4947 59.6834 73.4603 59.7198L71.9259 61.3382C71.8903 61.3758 71.8474 61.4057 71.7998 61.4262C71.7522 61.4466 71.701 61.4572 71.6492 61.4572Z" fill="#E6E6E6"/>
<path d="M37.9893 21.7284C37.3779 21.7284 36.7802 21.5472 36.2718 21.2077C35.7635 20.8683 35.3672 20.3859 35.1333 19.8214C34.8993 19.2569 34.8381 18.6358 34.9573 18.0366C35.0766 17.4374 35.371 16.887 35.8034 16.4549C36.2357 16.0229 36.7865 15.7287 37.3862 15.6095C37.9858 15.4903 38.6074 15.5515 39.1723 15.7853C39.7371 16.0191 40.2199 16.4151 40.5596 16.9231C40.8993 17.4311 41.0806 18.0283 41.0806 18.6393C41.0797 19.4583 40.7537 20.2435 40.1742 20.8226C39.5946 21.4017 38.8089 21.7274 37.9893 21.7284ZM37.9893 15.9047C37.448 15.9047 36.9189 16.0651 36.4689 16.3655C36.0189 16.666 35.6681 17.0931 35.461 17.5928C35.2539 18.0925 35.1997 18.6423 35.3053 19.1728C35.4109 19.7032 35.6715 20.1905 36.0542 20.5729C36.4369 20.9553 36.9246 21.2158 37.4554 21.3213C37.9862 21.4268 38.5365 21.3727 39.0365 21.1657C39.5365 20.9587 39.9639 20.6082 40.2646 20.1585C40.5653 19.7088 40.7258 19.1801 40.7258 18.6393C40.725 17.9143 40.4364 17.2192 39.9234 16.7065C39.4104 16.1939 38.7148 15.9055 37.9893 15.9047Z" fill="#E6E6E6"/>
<path d="M37.7713 19.8032C37.7651 19.8032 37.7589 19.803 37.7526 19.8027C37.6978 19.8001 37.6441 19.7856 37.5953 19.7603C37.5466 19.735 37.5039 19.6994 37.4702 19.6561L36.9832 19.0305C36.9524 18.991 36.9298 18.9458 36.9165 18.8976C36.9032 18.8493 36.8996 18.799 36.9058 18.7493C36.912 18.6997 36.9279 18.6517 36.9527 18.6082C36.9774 18.5647 37.0105 18.5265 37.05 18.4958L37.0675 18.4822C37.1071 18.4514 37.1523 18.4288 37.2006 18.4155C37.2488 18.4022 37.2993 18.3986 37.349 18.4048C37.3987 18.411 37.4467 18.4269 37.4902 18.4517C37.5337 18.4764 37.572 18.5095 37.6027 18.549C37.6273 18.5806 37.6584 18.6064 37.6939 18.6249C37.7295 18.6433 37.7686 18.6538 37.8085 18.6558C37.8485 18.6577 37.8885 18.651 37.9256 18.6361C37.9628 18.6212 37.9963 18.5985 38.0238 18.5695L39.0125 17.5264C39.0821 17.4532 39.178 17.4105 39.279 17.4077C39.3801 17.405 39.4781 17.4424 39.5516 17.5118L39.5678 17.5272C39.6042 17.5616 39.6334 17.6028 39.6538 17.6485C39.6742 17.6942 39.6854 17.7435 39.6867 17.7935C39.6881 17.8435 39.6796 17.8933 39.6616 17.94C39.6437 17.9868 39.6168 18.0295 39.5823 18.0658L38.0479 19.6842C38.0124 19.7218 37.9695 19.7518 37.9219 19.7722C37.8743 19.7927 37.8231 19.8032 37.7713 19.8032Z" fill="#E6E6E6"/>
<path d="M62.7373 74.8679C55.5689 74.8679 47.3306 66.9189 40.0418 70.6957C17.9732 82.1308 21.011 62.9959 14.6709 55.8795L14.879 55.4623C21.8747 61.7304 30.6089 66.8303 40.1376 70.2104C48.7486 73.2653 57.4241 74.6807 65.2232 74.3072L65.2367 74.8086C64.4131 74.8483 63.5799 74.8681 62.7373 74.8679Z" fill="#F2F2F2"/>
<path d="M52.9046 21.1238C53.7322 21.1238 54.403 20.2248 54.403 19.116C54.403 18.0071 53.7322 17.1082 52.9046 17.1082C52.0771 17.1082 51.4062 18.0071 51.4062 19.116C51.4062 20.2248 52.0771 21.1238 52.9046 21.1238Z" fill="#E6E6E6"/>
<path d="M70.2118 52.4454C69.5267 52.9015 68.8256 51.816 69.5238 51.3801C70.2088 50.924 70.9099 52.0096 70.2118 52.4454Z" fill="#E6E6E6"/>
<path d="M66.27 15.8995C67.3476 15.8995 68.2212 15.0266 68.2212 13.9498C68.2212 12.8729 67.3476 12 66.27 12C65.1924 12 64.3188 12.8729 64.3188 13.9498C64.3188 15.0266 65.1924 15.8995 66.27 15.8995Z" fill="#C7C7C7"/>
<path d="M61.8857 64.1109C62.9341 64.1109 63.784 63.2616 63.784 62.2139C63.784 61.1662 62.9341 60.3169 61.8857 60.3169C60.8372 60.3169 59.9873 61.1662 59.9873 62.2139C59.9873 63.2616 60.8372 64.1109 61.8857 64.1109Z" fill="#F2F2F2"/>
<path d="M43.502 62.9369C43.502 62.9369 38.7694 66.0163 40.0208 68.0626C40.064 68.1332 34.3678 75.651 34.3678 75.651L23.6147 74.9688L23.2358 78.5653L32.809 81.3359C32.809 81.3359 35.1509 83.0552 36.9602 81.1609C38.7694 79.2665 44.7957 73.4654 44.7957 73.4654L45.0864 85.1776L42.0612 101.407L46.5782 101.121L50.9746 84.8387L52.5974 66.3949L43.502 62.9369Z" fill="#2F2E41"/>
<path d="M46.872 44.4554L44.8819 45.9625L42.6135 50.8003L44.7947 53.7606C44.7947 53.7606 46.6295 56.9381 43.6927 60.0153C40.7558 63.0925 38.5006 66.3792 40.8513 66.2618C43.202 66.1445 52.7224 70.9833 52.785 67.019C52.8477 63.0547 52.9745 60.0153 52.9745 60.0153L55.4705 53.689C55.4705 53.689 56.9576 49.9151 55.9135 48.7854C54.8695 47.6557 53.4715 46.2121 53.4715 46.2121L50.9293 43.6718H48.6339L46.872 44.4554Z" fill="#C7C7C7"/>
<path d="M50.5875 35.1606C55.0522 37.6994 51.3869 44.3979 46.839 42.0126C42.3744 39.4739 46.0397 32.7754 50.5875 35.1606Z" fill="#A0616A"/>
<path d="M52.9745 36.5679C52.6617 36.9745 52.0081 36.7838 50.7281 37.074C50.7309 36.6404 50.6808 36.2082 50.5789 35.7868C50.4836 36.3085 50.2749 36.803 49.9675 37.2354C48.8561 37.3585 50.2185 40.7325 49.6495 43.2131C48.9163 37.9798 47.3741 39.3509 48.1532 40.3889C48.652 41.0534 48.3195 43.047 46.8232 42.0502C44.3544 43.2227 40.8382 37.3985 44.7353 34.6671C44.6656 33.1907 46.3096 32.9575 47.322 33.4114C49.7788 31.5826 52.5857 33.9259 52.9745 36.5679Z" fill="#2F2E41"/>
<path d="M41.517 32.7494C40.523 38.8565 35.1952 31.6262 32.6901 37.6362C31.9024 39.8127 33.2538 41.3697 34.1086 43.1763C34.3037 44.6609 32.3709 45.4142 32.1684 46.7808C32.1121 49.914 37.1705 49.7222 38.5846 47.7455C40.0377 45.6762 38.3025 42.8999 39.1759 40.6788C40.4034 37.595 45.3955 37.5721 45.8304 33.9845C44.9881 32.786 42.7233 31.4133 41.517 32.7494Z" fill="#2F2E41"/>
<path d="M45.544 33.3463C45.5115 33.3599 45.479 33.3736 45.4499 33.389H45.4482C45.4208 33.4027 45.3934 33.4164 45.366 33.4318C45.3626 33.4335 45.3609 33.4352 45.3575 33.4369C45.3215 33.4027 45.2856 33.3685 45.2479 33.3343C45.2382 33.39 45.2405 33.4471 45.2548 33.5019L45.2599 33.5224C45.2942 33.5583 45.3301 33.5925 45.3678 33.6284C45.402 33.6028 45.4345 33.5754 45.4687 33.5498C45.4893 33.5327 45.5098 33.5156 45.5321 33.4985C45.5355 33.454 45.5406 33.4027 45.5457 33.3462L45.544 33.3463ZM46.5743 31.4444C45.811 31.27 45.5646 32.2671 45.491 32.7477C45.2137 31.0032 44.0602 31.5522 44.4589 32.7425C44.586 33.0949 44.7861 33.4166 45.046 33.6866C45.0819 33.7276 45.1213 33.7687 45.1624 33.8097C45.1162 34.0492 45.3489 33.9876 45.6638 33.767C45.8964 33.6017 46.1114 33.4132 46.3056 33.2043C46.9338 32.5458 47.4233 31.6651 46.5743 31.4444ZM46.5983 32.4261C46.3628 32.7296 46.0986 33.0097 45.8093 33.2625C45.7186 33.3445 45.6262 33.4232 45.5321 33.4985C45.5303 33.5139 45.5303 33.5275 45.5286 33.5395C45.522 33.5561 45.514 33.5721 45.5047 33.5874C45.4088 33.7601 45.301 33.6661 45.2599 33.5224C45.2565 33.5173 45.2514 33.5121 45.2479 33.507C45.1112 33.3658 44.9922 33.2085 44.8937 33.0384C44.1868 31.8138 45.325 30.9809 45.2685 33.2676C45.2581 33.2886 45.2511 33.3111 45.2479 33.3343C45.2382 33.39 45.2405 33.4471 45.2548 33.5019L45.2599 33.5224C45.2942 33.5583 45.3301 33.5925 45.3678 33.6284C45.402 33.6028 45.4345 33.5754 45.4687 33.5498C45.4893 33.5327 45.5098 33.5156 45.5321 33.4985C45.5355 33.454 45.5406 33.4027 45.5457 33.3462V33.3445C45.5902 32.8862 45.7118 32.0618 45.936 31.8378C46.4289 31.4598 47.0673 31.8686 46.5983 32.4261ZM45.544 33.3463C45.5115 33.3599 45.479 33.3736 45.4499 33.389H45.4482C45.4208 33.4027 45.3934 33.4164 45.366 33.4318C45.3626 33.4335 45.3609 33.4352 45.3575 33.4369C45.3215 33.4027 45.2856 33.3685 45.2479 33.3343C45.2382 33.39 45.2405 33.4471 45.2548 33.5019L45.2599 33.5224C45.2942 33.5583 45.3301 33.5925 45.3678 33.6284C45.402 33.6028 45.4345 33.5754 45.4687 33.5498C45.4893 33.5327 45.5098 33.5156 45.5321 33.4985C45.5355 33.454 45.5406 33.4027 45.5457 33.3462L45.544 33.3463Z" fill="#2F2E41"/>
<path d="M86.8114 67.0166L85.1625 71.3138L77.4272 86.561L84.2241 104.298L87.732 103.373L84.8407 86.561L93.1357 76.4896L102.987 83.166C102.987 83.166 107.355 86.5743 109.018 83.3433C110.68 80.1123 121.434 73.24 121.434 73.24L118.773 70.4039L106.389 76.1954L97.8412 64.1729L86.8114 67.0166Z" fill="#2F2E41"/>
<path d="M95.1319 46.7473L92.4176 43.8331L87.7614 43.193L82.0562 47.1841L82.1136 51.6018L84.9339 62.0116C84.9339 62.0116 83.8597 69.4905 86.8603 69.4155C89.8608 69.3405 91.4964 67.8457 92.7185 68.15C93.9406 68.4543 99.1356 69.7493 99.4648 68.3928C99.7941 67.0363 101.544 68.0076 101.467 66.7243C101.39 65.441 96.7297 56.1908 96.7297 56.1908L97.8885 46.9397L95.1319 46.7473Z" fill="#C7C7C7"/>
<path d="M112.319 33.3323C112.343 33.5739 112.314 33.818 112.234 34.0473C112.153 34.2765 112.024 34.4854 111.854 34.6591C111.684 34.8329 111.478 34.9673 111.251 35.053C111.023 35.1387 110.78 35.1734 110.538 35.1549L104.295 47.0177L102.62 44.4469L109 33.251C109.058 32.8462 109.263 32.4768 109.575 32.2128C109.888 31.9488 110.286 31.8085 110.695 31.8185C111.105 31.8285 111.496 31.9881 111.795 32.2671C112.094 32.5461 112.281 32.9251 112.319 33.3323Z" fill="#FFB6B6"/>
<path d="M92.668 48.9528C92.668 48.9528 92.4204 51.0629 94.7977 51.5853C97.1749 52.1077 103.761 48.3471 104.841 47.7727C105.179 47.5928 105.638 46.7112 106.108 45.585C106.32 45.0794 106.533 44.5245 106.74 43.9616C106.859 43.6359 107.431 43.547 107.543 43.224C107.655 42.9027 107.308 42.3473 107.409 42.0445C107.89 40.6074 108.231 39.4673 108.231 39.4673L106.655 36.5098C104.452 37.6739 103.322 40.2382 102.49 43.1924L92.668 48.9528Z" fill="#C7C7C7"/>
<path d="M64.9045 36.0568C64.9415 36.2969 65.0307 36.5259 65.1659 36.7278C65.3011 36.9296 65.4789 37.0994 65.6868 37.2252C65.8948 37.351 66.1278 37.4296 66.3694 37.4557C66.6111 37.4817 66.8555 37.4545 67.0855 37.376L76.0999 47.3003L77.0786 44.3922L68.0975 35.1481C67.9398 34.7707 67.6491 34.4643 67.2804 34.2868C66.9117 34.1094 66.4907 34.0732 66.0971 34.1852C65.7035 34.2972 65.3647 34.5496 65.1449 34.8946C64.9251 35.2395 64.8396 35.653 64.9045 36.0568Z" fill="#FFB6B6"/>
<path d="M87.8422 46.2659C87.8422 46.2659 88.6104 48.247 86.4396 49.3472C84.2688 50.4475 76.9505 48.4536 75.7612 48.1675C75.3889 48.0779 74.7239 47.3391 73.9861 46.3665C73.6549 45.9298 73.3089 45.446 72.9682 44.9526C72.7711 44.6671 72.1953 44.724 72.0055 44.4394C71.8167 44.1564 72.0138 43.5318 71.8399 43.264C71.0144 41.9929 70.3989 40.9742 70.3989 40.9742L71.1837 37.7168C73.6088 38.2928 75.3452 40.4928 76.8899 43.1452L87.8422 46.2659Z" fill="#C7C7C7"/>
<path d="M90.1832 42.4515C92.6299 42.4515 94.6134 40.4694 94.6134 38.0245C94.6134 35.5795 92.6299 33.5974 90.1832 33.5974C87.7364 33.5974 85.7529 35.5795 85.7529 38.0245C85.7529 40.4694 87.7364 42.4515 90.1832 42.4515Z" fill="#FFB6B6"/>
<path d="M95.2385 35.4895C94.7724 34.7691 93.8979 34.2889 93.0502 34.4239C92.9712 33.8832 92.7454 33.3746 92.3972 32.9533C92.0491 32.532 91.5919 32.2143 91.0756 32.0346C90.5592 31.855 90.0034 31.8204 89.4687 31.9346C88.934 32.0487 88.4409 32.3073 88.0431 32.6821C87.9123 32.5901 87.7599 32.5333 87.6007 32.5174C87.4415 32.5015 87.2809 32.5269 87.1344 32.5912C86.8426 32.7238 86.5887 32.9274 86.3961 33.1834C85.9096 33.7896 85.5968 34.5163 85.4908 35.2861C85.3848 36.0559 85.4898 36.84 85.7944 37.555C85.6908 37.1786 86.0682 36.8245 86.4496 36.74C86.831 36.6556 87.231 36.7355 87.6178 36.6805C88.1135 36.61 88.5591 36.3226 89.0556 36.258C89.4766 36.2306 89.8989 36.2848 90.2993 36.4177C90.6996 36.5505 91.1214 36.6071 91.5426 36.5845C91.9604 36.5349 92.4987 38.1174 92.4915 39.2319C92.4901 39.4431 92.5336 39.7143 92.7402 39.7591C92.9946 39.8143 93.142 39.4635 93.3841 39.3679C93.4957 39.3359 93.6154 39.3485 93.7178 39.403C93.8203 39.4574 93.8977 39.5495 93.9336 39.6598C93.9641 39.772 93.9673 39.8898 93.9431 40.0035C93.9188 40.1172 93.8678 40.2234 93.7941 40.3134C93.6453 40.4917 93.4686 40.6449 93.2709 40.7669L93.3706 40.8498C93.4653 40.9497 93.5918 41.0137 93.7284 41.0306C93.8651 41.0476 94.0034 41.0165 94.1197 40.9428C94.3483 40.788 94.5334 40.5774 94.6574 40.3309C95.1248 39.6087 95.4589 38.8087 95.6439 37.9689C95.8 37.1254 95.7044 36.21 95.2385 35.4895Z" fill="#2F2E41"/>
<path d="M128.014 52.9498C122.3 57.2747 110.93 55.9084 107.402 63.3167C96.7183 85.747 87.5787 68.6605 78.2248 66.8127L78.1387 66.3545C87.5025 67.1306 97.5465 65.9265 107.185 62.872C115.895 60.112 123.666 56.0061 129.657 51.0029L129.971 51.3945C129.338 51.9231 128.686 52.4415 128.014 52.9498Z" fill="#F2F2F2"/>
<path d="M103.854 111.698C103.718 112.101 26.0126 112.101 25.8657 111.699C26.0017 111.295 103.707 111.295 103.854 111.698Z" fill="#CCCCCC"/>
</svg>
