<svg width="36" height="36" viewBox="0 0 36 36" fill="none" xmlns="http://www.w3.org/2000/svg">
<path fill-rule="evenodd" clip-rule="evenodd" d="M13.6394 6.01001C13.6394 6.01001 18.3883 6.01001 21.7942 7.54266C21.7942 7.54266 23.5009 8.31069 24.4771 9.34924C24.4771 9.34924 25.6294 10.5752 25.6294 12.005C25.6294 12.005 25.6294 13.4348 24.4771 14.6608C24.4771 14.6608 23.5009 15.6993 21.7942 16.4674C21.7942 16.4674 18.3883 18 13.6394 18C13.6394 18 8.89053 18 5.48465 16.4674C5.48465 16.4674 3.77791 15.6993 2.80175 14.6608C2.80175 14.6608 1.64941 13.4348 1.64941 12.005C1.64941 12.005 1.64941 10.5752 2.80175 9.34924C2.80175 9.34924 3.77791 8.31069 5.48465 7.54266C5.48465 7.54266 8.89053 6.01001 13.6394 6.01001ZM13.6394 8.19001C13.6394 8.19001 9.35844 8.19001 6.37925 9.53065C6.37925 9.53065 5.06878 10.1204 4.39022 10.8423C4.39022 10.8423 3.82941 11.4389 3.82941 12.005C3.82941 12.005 3.82941 12.5711 4.39023 13.1677C4.39023 13.1677 5.06878 13.8897 6.37925 14.4794C6.37925 14.4794 9.35844 15.82 13.6394 15.82C13.6394 15.82 17.9204 15.82 20.8996 14.4794C20.8996 14.4794 22.2101 13.8897 22.8886 13.1677C22.8886 13.1677 23.4494 12.5711 23.4494 12.005C23.4494 12.005 23.4494 11.4389 22.8886 10.8423C22.8886 10.8423 22.2101 10.1204 20.8996 9.53065C20.8996 9.53065 17.9204 8.19001 13.6394 8.19001Z" fill="#1C1C1C"/>
<path d="M25.6294 17.455V12.005C25.6294 11.403 25.1414 10.915 24.5394 10.915C23.9374 10.915 23.4494 11.403 23.4494 12.005V17.455C23.4494 18.0221 22.8887 18.619 22.8887 18.619C22.2106 19.3408 20.9005 19.9302 20.9005 19.9302C17.9227 21.27 13.6394 21.27 13.6394 21.27C9.35611 21.27 6.3783 19.9302 6.3783 19.9302C5.06823 19.3408 4.39009 18.619 4.39009 18.619C3.82941 18.0221 3.82941 17.455 3.82941 17.455V12.005C3.82941 11.403 3.34141 10.915 2.73942 10.915C2.13742 10.915 1.64941 11.403 1.64941 12.005V17.455C1.64941 18.8855 2.80123 20.1116 2.80123 20.1116C3.77715 21.1504 5.48384 21.9183 5.48384 21.9183C8.88829 23.45 13.6394 23.45 13.6394 23.45C18.3905 23.45 21.795 21.9183 21.795 21.9183C23.5017 21.1504 24.4776 20.1116 24.4776 20.1116C25.6294 18.8855 25.6294 17.455 25.6294 17.455Z" fill="#1C1C1C"/>
<path d="M8.18941 16.5013V21.9513C8.18941 22.5533 8.67742 23.0413 9.27941 23.0413C9.8814 23.0413 10.3694 22.5533 10.3694 21.9513V16.5013C10.3694 15.8993 9.8814 15.4113 9.27941 15.4113C8.67742 15.4113 8.18941 15.8993 8.18941 16.5013Z" fill="#1C1C1C"/>
<path d="M24.6436 12.6504C28.6298 13.0222 31.2854 14.4675 31.2854 14.4675C34.3494 16.1352 34.3494 18.545 34.3494 18.545C34.3494 19.9755 33.1976 21.2016 33.1976 21.2016C32.2217 22.2405 30.515 23.0083 30.515 23.0083C27.1105 24.54 22.3594 24.54 22.3594 24.54C18.2068 24.54 14.964 23.3277 14.964 23.3277C14.9625 23.3271 14.961 23.3266 14.961 23.3266C14.6902 23.2253 14.4704 23.0204 14.3506 22.7574C14.2913 22.6271 14.2582 22.4864 14.2532 22.3434C14.2528 22.3308 14.2525 22.3181 14.2525 22.3055C14.2525 22.1751 14.2759 22.0458 14.3216 21.9236C14.4783 21.5048 14.8748 21.2242 15.3219 21.2157L15.3425 21.2155C15.473 21.2155 15.6023 21.2389 15.7245 21.2846C18.5991 22.36 22.3594 22.36 22.3594 22.36C26.6427 22.36 29.6205 21.0203 29.6205 21.0203C30.9306 20.4309 31.6087 19.709 31.6087 19.709C32.1694 19.1122 32.1694 18.545 32.1694 18.545C32.1694 17.4306 30.2433 16.3823 30.2433 16.3823C27.9803 15.1507 24.4383 14.8207 24.4383 14.8207C23.8779 14.7685 23.4494 14.2982 23.4494 13.7354C23.4494 13.7027 23.4509 13.67 23.4538 13.6375L23.4541 13.6343C23.4777 13.3813 23.589 13.1444 23.7687 12.9647C23.7925 12.9408 23.8175 12.9181 23.8435 12.8965C24.0391 12.7342 24.2853 12.6454 24.5394 12.6454C24.5721 12.6454 24.6048 12.6469 24.6374 12.6498L24.6405 12.6501L24.6436 12.6504Z" fill="#1C1C1C"/>
<path d="M34.3494 23.995V18.545C34.3494 17.943 33.8614 17.455 33.2594 17.455C32.6574 17.455 32.1694 17.943 32.1694 18.545V23.995C32.1694 24.5621 31.6087 25.159 31.6087 25.159C30.9306 25.8808 29.6205 26.4703 29.6205 26.4703C26.6427 27.81 22.3594 27.81 22.3594 27.81C18.0761 27.81 15.0983 26.4703 15.0983 26.4703C13.7882 25.8808 13.1101 25.159 13.1101 25.159C12.5494 24.5621 12.5494 23.995 12.5494 23.995L12.5494 22.2646C12.5494 21.6626 12.0614 21.1746 11.4594 21.1746C10.8574 21.1746 10.3694 21.6626 10.3694 22.2646L10.3694 23.995C10.3694 25.4255 11.5212 26.6516 11.5212 26.6516C12.4972 27.6904 14.2038 28.4583 14.2038 28.4583C17.6083 29.99 22.3594 29.99 22.3594 29.99C27.1105 29.99 30.515 28.4583 30.515 28.4583C32.2217 27.6904 33.1976 26.6516 33.1976 26.6516C34.3494 25.4255 34.3494 23.995 34.3494 23.995Z" fill="#1C1C1C"/>
<path d="M25.6294 23.0413V28.4913C25.6294 29.0933 26.1174 29.5813 26.7194 29.5813C27.3214 29.5813 27.8094 29.0933 27.8094 28.4913V23.0413C27.8094 22.4393 27.3214 21.9513 26.7194 21.9513C26.1174 21.9513 25.6294 22.4393 25.6294 23.0413Z" fill="#1C1C1C"/>
<path d="M16.9094 16.5013V28.4913C16.9094 29.0933 17.3974 29.5813 17.9994 29.5813C18.6014 29.5813 19.0894 29.0933 19.0894 28.4913V16.5013C19.0894 15.8993 18.6014 15.4113 17.9994 15.4113C17.3974 15.4113 16.9094 15.8993 16.9094 16.5013Z" fill="#1C1C1C"/>
</svg>
