<svg width="143" height="101" viewBox="0 0 143 101" fill="none" xmlns="http://www.w3.org/2000/svg">
<g clip-path="url(#clip0_1304_24551)">
<path opacity="0.1" d="M47.542 100.919C54.506 100.919 60.1515 100.015 60.1515 98.8999C60.1515 97.7849 54.506 96.881 47.542 96.881C40.578 96.881 34.9326 97.7849 34.9326 98.8999C34.9326 100.015 40.578 100.919 47.542 100.919Z" fill="#C7C7C7"/>
<path opacity="0.1" d="M116.085 100.976C124.775 100.976 131.819 100.072 131.819 98.9566C131.819 97.8416 124.775 96.9377 116.085 96.9377C107.395 96.9377 100.35 97.8416 100.35 98.9566C100.35 100.072 107.395 100.976 116.085 100.976Z" fill="#C7C7C7"/>
<path opacity="0.1" d="M1.79065 43.6287H14.9242V61.4736H2.75215C2.71979 61.6568 2.68874 61.8413 2.65509 62.0257H14.9242V76.4173C14.9022 76.4108 14.8828 76.4031 14.8621 76.3953C14.5153 76.2586 14.171 76.1141 13.8268 75.9593L13.6068 75.86C13.2617 75.6974 12.9166 75.5254 12.5716 75.344C12.4512 75.2807 12.3309 75.215 12.2118 75.1479C10.296 74.0781 8.55567 72.7225 7.05105 71.1282C7.00705 71.0856 6.96564 71.0404 6.92164 70.9991C6.712 70.7721 6.50625 70.5425 6.30696 70.3077L6.08697 70.0497C5.85145 69.762 5.62369 69.4666 5.4024 69.1673C5.37005 69.1234 5.33899 69.0796 5.30535 69.0383C4.40538 67.7944 3.65813 66.4475 3.07955 65.0263C3.06143 64.9838 3.0459 64.9373 3.02908 64.8973C2.85136 64.4415 2.69391 63.9814 2.55674 63.517C2.49721 63.3222 2.44027 63.13 2.3911 62.9275C2.37298 62.8681 2.35745 62.8101 2.34322 62.752C1.60819 59.892 1.52148 56.9211 1.52148 53.9708C1.52148 53.6264 1.52148 53.2806 1.52148 52.9388C1.52148 51.7455 1.53572 50.5445 1.55642 49.3448C1.55642 49.0339 1.56936 48.7243 1.57584 48.4121C1.59395 47.62 1.61983 46.8279 1.65348 46.0359C1.66124 45.8153 1.6716 45.596 1.68324 45.3766C1.68324 45.2502 1.68971 45.1238 1.70265 44.9974C1.73371 44.5381 1.75959 44.0828 1.79065 43.6287Z" fill="#C7C7C7"/>
<path opacity="0.1" d="M14.9248 23.7597H7.7207C8.89177 21.9325 10.1713 20.1767 11.5524 18.5016C12.6226 17.1909 13.7524 15.9138 14.9248 14.6831V23.7597Z" fill="#C7C7C7"/>
<path opacity="0.1" d="M14.9246 24.3118V43.0765H1.83252C1.83252 43.0223 1.84158 42.9668 1.84546 42.9127C1.85711 42.7643 1.86875 42.6159 1.88169 42.4689C1.89593 42.296 1.91146 42.1219 1.92828 41.9529C1.9451 41.7839 1.96322 41.5775 1.98263 41.3904C2.00204 41.2034 2.02016 41.0137 2.04216 40.8267C2.06416 40.6396 2.08357 40.4526 2.10686 40.2668C2.13016 40.081 2.15086 39.8927 2.17545 39.7069C2.19486 39.5521 2.21556 39.3986 2.23627 39.2438C2.26603 39.0258 2.29709 38.8065 2.33074 38.5898C2.33074 38.5575 2.3398 38.524 2.34497 38.493C2.58116 36.9065 2.90299 35.3338 3.30905 33.7818C3.7341 32.1538 4.27688 30.5586 4.93311 29.0088C5.63057 27.3874 6.44719 25.8196 7.37632 24.3182L14.9246 24.3118Z" fill="#C7C7C7"/>
<path opacity="0.1" d="M18.0596 43.6274V61.4736H46.1111V43.6274H18.0596ZM18.0596 62.0244V77.3499C18.22 77.3835 18.3792 77.4157 18.5371 77.4428C18.7519 77.4841 18.9654 77.5215 19.1841 77.5538C19.2255 77.5602 19.2682 77.5667 19.3135 77.5705C19.3989 77.5847 19.4869 77.5963 19.5723 77.6079C19.7884 77.6376 20.0033 77.6621 20.2194 77.6815C20.3216 77.6918 20.4251 77.7008 20.5287 77.7086L20.7784 77.7279C20.9143 77.7382 21.0489 77.746 21.1822 77.7499C21.265 77.7499 21.3478 77.7576 21.4332 77.7602C21.4979 77.7602 21.5626 77.7602 21.6299 77.7602C21.6972 77.7602 21.793 77.7602 21.8745 77.7602C21.9858 77.7602 22.0971 77.7602 22.2071 77.7602H22.3559C22.4672 77.7602 22.5785 77.7602 22.6885 77.7499H22.6962C22.7726 77.7499 22.8502 77.7498 22.9279 77.7395C22.9494 77.7408 22.971 77.7408 22.9926 77.7395C23.0573 77.7395 23.122 77.7395 23.1841 77.7305H23.2294L23.6629 77.697C23.8052 77.6841 23.9489 77.6673 24.0938 77.6518L24.3889 77.617C25.5892 77.4493 26.7762 77.1976 27.9411 76.8636C30.5577 76.136 33.1174 75.1182 35.7327 74.3726C39.1141 73.4115 42.8501 72.9393 46.1176 74.1146V62.0244H18.0596ZM46.1111 23.7597V0.0012552C43.04 -0.0319144 39.9771 0.326172 36.997 1.06682C29.8939 2.84576 23.5205 6.70423 18.0596 11.6321V23.7584H19.4675V24.3092H18.0596V43.0765H46.1111V24.3105H25.2481V23.7597H46.1111ZM82.142 15.7344C80.3846 15.6725 78.6376 15.1178 77.0576 14.2612C74.0359 12.6229 71.6225 10.0931 68.9256 7.95814C63.3223 3.51142 56.3731 0.828162 49.2441 0.162508V23.7597H89.2891L89.3888 23.6552L82.142 15.7344ZM85.7899 15.0894L89.6579 19.3207V13.98C88.3626 14.1399 87.2277 14.5205 85.7951 15.0842L85.7899 15.0894ZM89.6579 81.1555V62.0244H81.416C81.394 61.9432 81.372 61.8606 81.3461 61.778C81.3707 61.8606 81.3914 61.9432 81.4147 62.0244H49.2493V75.86C49.5547 76.0857 49.8562 76.3231 50.1551 76.5643C50.4773 76.8223 50.7957 77.0945 51.1153 77.3615L51.4375 77.6273C51.5915 77.7563 51.7468 77.8853 51.9034 78.0066C52.214 78.2577 52.5276 78.5054 52.8442 78.7496C53.0008 78.8786 53.1612 78.9947 53.3204 79.116C55.8474 81.042 58.513 82.78 61.2958 84.3161C61.9195 84.6601 62.5489 84.9959 63.1838 85.3236C63.607 85.539 64.0327 85.7532 64.4598 85.9609C65.1016 86.273 65.7487 86.5741 66.4009 86.8639C72.414 89.5547 78.7723 91.4011 85.2943 92.3504C86.7428 92.5637 88.1969 92.7314 89.6566 92.8535V81.1542H89.786L89.6579 81.1555ZM49.2493 24.3105V43.0765H89.6631V24.3105H49.2493ZM49.2493 43.6274V61.4736H89.6631V43.6274H49.2493ZM92.7999 13.9568V19.9141L97.7368 14.5141C96.1011 14.2509 94.4555 14.063 92.7999 13.9503V13.9568ZM92.7999 43.6338V61.4736H132.107V43.6274L92.7999 43.6338ZM131.964 82.572L132.102 62.0244H92.7999V93.0586C95.3318 93.1646 97.8675 93.1345 100.396 92.9683H100.44C101.648 92.8926 102.85 92.7825 104.047 92.638H104.074C110.458 91.8974 116.7 90.237 122.605 87.7089M139.687 46.566C139.539 46.219 139.385 45.8746 139.229 45.534C138.936 44.889 138.627 44.2621 138.309 43.6351H135.242V61.4736H142.996C142.992 56.4218 141.709 51.2617 139.691 46.5596L139.687 46.566ZM135.242 62.0309V79.7042C137.426 77.617 139.271 75.2291 140.6 72.4994C142.199 69.2125 142.93 65.6533 142.989 62.0283L135.242 62.0309ZM135.242 38.4337V43.0778H138.021C137.18 41.4791 136.254 39.9267 135.245 38.4273L135.242 38.4337ZM108.584 17.4579C108.379 17.3805 108.175 17.3018 107.969 17.2257C105.799 16.4268 103.581 15.7625 101.329 15.2365L93.7744 23.5017L93.6294 23.6552L93.7265 23.761H120.615C116.87 21.1913 112.833 19.0733 108.588 17.4514L108.584 17.4579ZM121.403 24.317H93.3512L92.7999 24.8201V43.0765H97.632H97.6398H132.113V34.2334C128.994 30.4737 125.395 27.1377 121.407 24.3105L121.403 24.317Z" fill="#C7C7C7"/>
<path opacity="0.1" d="M14.9246 33.7767V43.0765H1.83252C1.83252 43.0224 1.84158 42.9669 1.84546 42.9127C1.85711 42.7643 1.86875 42.616 1.88169 42.4689C1.89593 42.2961 1.91146 42.1219 1.92828 41.9529C1.9451 41.7839 1.96322 41.5775 1.98263 41.3905C2.00204 41.2034 2.02016 41.0138 2.04216 40.8267C2.06416 40.6397 2.08357 40.4526 2.10686 40.2669C2.13016 40.0811 2.15086 39.8927 2.17545 39.707C2.19486 39.5522 2.21556 39.3987 2.23627 39.2439C2.26603 39.0259 2.29709 38.8065 2.33074 38.5898C2.33074 38.5576 2.3398 38.524 2.34497 38.4931C2.58116 36.9065 2.90299 35.3339 3.30905 33.7819L14.9246 33.7767Z" fill="#C7C7C7"/>
<path opacity="0.1" d="M1.79065 43.6287H14.9242V61.4736H2.75215C2.71979 61.6568 2.68874 61.8413 2.65509 62.0257H14.9242V76.4173C14.9022 76.4108 14.8828 76.4031 14.8621 76.3953C14.5153 76.2586 14.171 76.1141 13.8268 75.9593L13.6068 75.86C13.2617 75.6974 12.9166 75.5254 12.5716 75.344C12.4512 75.2807 12.3309 75.215 12.2118 75.1479C10.296 74.0781 8.55567 72.7225 7.05105 71.1282C7.00705 71.0856 6.96564 71.0404 6.92164 70.9991C6.712 70.7721 6.50625 70.5425 6.30696 70.3077L6.08697 70.0497C5.85145 69.762 5.62369 69.4666 5.4024 69.1673C5.37005 69.1234 5.33899 69.0796 5.30535 69.0383C4.40538 67.7944 3.65813 66.4475 3.07955 65.0263C3.06143 64.9838 3.0459 64.9373 3.02908 64.8973C2.85136 64.4415 2.69391 63.9814 2.55674 63.517C2.49721 63.3222 2.44027 63.13 2.3911 62.9275C2.37298 62.8681 2.35745 62.8101 2.34322 62.752C1.60819 59.892 1.52148 56.9211 1.52148 53.9708C1.52148 53.6264 1.52148 53.2806 1.52148 52.9388C1.52148 51.7455 1.53572 50.5445 1.55642 49.3448C1.55642 49.0339 1.56936 48.7243 1.57584 48.4121C1.59395 47.62 1.61983 46.8279 1.65348 46.0359C1.66124 45.8153 1.6716 45.596 1.68324 45.3766C1.68324 45.2502 1.68971 45.1238 1.70265 44.9974C1.73371 44.5381 1.75959 44.0828 1.79065 43.6287Z" fill="#C7C7C7"/>
<path opacity="0.1" d="M27.9346 26.9976V43.0765H18.0596V26.9976H19.4675V21.5537H25.2468V26.9976H27.9346Z" fill="#C7C7C7"/>
<path opacity="0.1" d="M27.9353 43.6273H18.0615V61.4722H27.9353V43.6273Z" fill="#C7C7C7"/>
<path opacity="0.1" d="M18.0596 62.0256H27.9346V76.8609C26.7698 77.1946 25.5827 77.4459 24.3824 77.613L24.0874 77.6491C23.9424 77.6659 23.7988 77.6801 23.6564 77.6943C23.5141 77.7085 23.3666 77.7188 23.2229 77.7278H23.1776C23.1155 77.7278 23.0482 77.7356 22.9874 77.7369H22.9214C22.8437 77.7369 22.7661 77.7446 22.6885 77.7472C22.5785 77.7536 22.4685 77.7549 22.3559 77.7562C22.308 77.7562 22.2627 77.7562 22.2148 77.7562C22.1035 77.7562 21.9935 77.7562 21.8823 77.7562H21.6377C21.5717 77.7562 21.5083 77.7562 21.4397 77.7562L21.1899 77.7472C21.0605 77.7472 20.9208 77.733 20.7862 77.724L20.5377 77.7059L20.2284 77.6775C20.011 77.6582 19.7949 77.6337 19.5814 77.604L19.3226 77.5679L19.1932 77.5498C18.9771 77.5163 18.7635 77.4801 18.5461 77.4389C18.387 77.4118 18.2291 77.3782 18.0686 77.346L18.0596 62.0256Z" fill="#C7C7C7"/>
<path opacity="0.1" d="M89.6638 25.0988H81.5215V43.0753H89.6638V25.0988Z" fill="#C7C7C7"/>
<path opacity="0.1" d="M89.6651 43.6273V61.4735H49.25V53.776H70.7769V58.3168H81.5215V43.6273H89.6651Z" fill="#C7C7C7"/>
<path opacity="0.1" d="M89.7932 81.1594H89.6638V92.8663C88.2058 92.7434 86.7522 92.5761 85.3028 92.3645C78.7776 91.4122 72.4166 89.5619 66.4016 86.8664C64.665 86.0873 62.9637 85.2367 61.2978 84.3148C58.5151 82.7779 55.8491 81.0399 53.3211 79.1147C52.6862 78.6296 52.0594 78.1334 51.4409 77.626C51.0125 77.2738 50.5868 76.9126 50.1558 76.5617C49.8569 76.3205 49.5554 76.0831 49.25 75.8561V62.0257H81.4141C81.3921 61.9431 81.3701 61.8606 81.3468 61.7793C81.3714 61.8606 81.3947 61.9431 81.4167 62.0257H89.6638V81.1516C89.7078 81.1529 89.7505 81.1568 89.7932 81.1594Z" fill="#C7C7C7"/>
<path opacity="0.1" d="M110.899 23.7596H105.594V22.1161H107.972V17.2205C108.178 17.2953 108.384 17.3723 108.588 17.4514V22.1161H110.899V23.7596Z" fill="#C7C7C7"/>
<path opacity="0.1" d="M123.682 43.0765H97.6354C97.6354 43.0765 97.6354 43.0765 97.6445 43.0829L97.6328 43.0765H92.8008V25.1H94.1699V38.3872H100.427V30.5181H105.595V24.3118H110.901V30.5232H116.069V38.3924H123.682V43.0765Z" fill="#C7C7C7"/>
<path opacity="0.1" d="M92.8008 43.6273V61.4735H123.682V43.6273H92.8008ZM132.065 82.4803L132.108 68.3545H123.682V62.0334H92.8008V93.0585C95.3326 93.1646 97.8684 93.1344 100.397 92.9682H100.441C101.649 92.8926 102.851 92.7825 104.048 92.638H104.075C110.458 91.8974 116.701 90.237 122.606 87.7088" fill="#C7C7C7"/>
<path opacity="0.1" d="M135.791 62.0256H142.995C142.931 65.6493 142.201 69.2085 140.605 72.4955C139.276 75.2265 137.429 77.6143 135.247 79.7003V68.3481H135.791V62.0256Z" fill="#C7C7C7"/>
<path opacity="0.1" d="M142.999 61.4736H135.791V46.5596H139.691C141.71 51.2617 142.993 56.4218 142.999 61.4736Z" fill="#C7C7C7"/>
<path opacity="0.1" d="M89.6646 30.0963H85.3022V35.7324H89.6646V30.0963Z" fill="#C7C7C7"/>
<path opacity="0.1" d="M89.6646 41.7787H85.3022V43.0765H89.6646V41.7787Z" fill="#C7C7C7"/>
<path opacity="0.1" d="M89.6646 43.6273H85.3022V47.4135H89.6646V43.6273Z" fill="#C7C7C7"/>
<path opacity="0.1" d="M89.6646 53.4613H85.3022V59.0974H89.6646V53.4613Z" fill="#C7C7C7"/>
<path opacity="0.1" d="M89.6646 65.1437H85.3022V70.7798H89.6646V65.1437Z" fill="#C7C7C7"/>
<path opacity="0.1" d="M89.6633 81.1516C89.7073 81.1516 89.75 81.1516 89.7927 81.1594H89.6633V82.4687H85.3022V76.8262H89.6633V81.1516Z" fill="#C7C7C7"/>
<path opacity="0.1" d="M89.6633 88.5061V92.8599C88.2053 92.737 86.7516 92.5697 85.3022 92.3581V88.5061H89.6633Z" fill="#C7C7C7"/>
<path opacity="0.1" d="M67.9454 61.0594H49.25V61.4735H67.9454V61.0594Z" fill="#C7C7C7"/>
<path opacity="0.1" d="M67.9454 62.0244H49.25V63.6111H67.9454V62.0244Z" fill="#C7C7C7"/>
<path opacity="0.1" d="M67.9454 68.8125H49.25V71.3642H67.9454V68.8125Z" fill="#C7C7C7"/>
<path opacity="0.1" d="M67.9439 76.5657V79.1173H53.3209C52.6859 78.634 52.0587 78.1378 51.4393 77.6287C51.011 77.2765 50.5865 76.9153 50.1543 76.5657H67.9439Z" fill="#C7C7C7"/>
<path opacity="0.1" d="M67.9437 84.3173V86.8664H66.3999C64.665 86.0864 62.9641 85.2354 61.2974 84.3135L67.9437 84.3173Z" fill="#C7C7C7"/>
<path opacity="0.1" d="M104.078 45.3573H100.398V49.0261H104.078V45.3573Z" fill="#C7C7C7"/>
<path opacity="0.1" d="M24.3918 28.2631H20.7114V31.9319H24.3918V28.2631Z" fill="#C7C7C7"/>
<path opacity="0.1" d="M24.3918 36.785H20.7114V40.4539H24.3918V36.785Z" fill="#C7C7C7"/>
<path opacity="0.1" d="M24.3918 45.307H20.7114V48.9758H24.3918V45.307Z" fill="#C7C7C7"/>
<path opacity="0.1" d="M24.3918 53.8276H20.7114V57.4965H24.3918V53.8276Z" fill="#C7C7C7"/>
<path opacity="0.1" d="M24.3918 62.3495H20.7114V66.0183H24.3918V62.3495Z" fill="#C7C7C7"/>
<path opacity="0.1" d="M24.3918 70.8715H20.7114V74.5403H24.3918V70.8715Z" fill="#C7C7C7"/>
<path opacity="0.1" d="M118.128 45.3573H114.448V49.0261H118.128V45.3573Z" fill="#C7C7C7"/>
<path opacity="0.1" d="M104.078 54.4069H100.398V58.0757H104.078V54.4069Z" fill="#C7C7C7"/>
<path opacity="0.1" d="M118.128 54.4069H114.448V58.0757H118.128V54.4069Z" fill="#C7C7C7"/>
<path opacity="0.1" d="M104.078 63.4551H100.398V67.1239H104.078V63.4551Z" fill="#C7C7C7"/>
<path opacity="0.1" d="M118.128 63.4551H114.448V67.1239H118.128V63.4551Z" fill="#C7C7C7"/>
<path opacity="0.1" d="M104.078 72.5046H100.398V76.1735H104.078V72.5046Z" fill="#C7C7C7"/>
<path opacity="0.1" d="M118.128 72.5046H114.448V76.1735H118.128V72.5046Z" fill="#C7C7C7"/>
<path opacity="0.1" d="M104.078 81.5541H100.398V85.2229H104.078V81.5541Z" fill="#C7C7C7"/>
<path opacity="0.1" d="M118.128 81.5541H114.448V85.2229H118.128V81.5541Z" fill="#C7C7C7"/>
<path opacity="0.1" d="M100.398 92.9683V90.6024H104.077V92.6316L100.398 92.9683Z" fill="#C7C7C7"/>
<path opacity="0.1" d="M2.32959 38.4905V40.5893H14.9248V38.4905H2.32959ZM3.58484 40.4578H2.55735V38.6195H3.5926L3.58484 40.4578ZM4.83879 40.4578H3.80354V38.6195H4.83879V40.4578ZM6.09016 40.4578H5.0549V38.6195H6.09016V40.4578ZM7.34411 40.4578H6.31015V38.6195H7.34541L7.34411 40.4578ZM8.59677 40.4578H7.56152V38.6195H8.59677V40.4578ZM9.85073 40.4578H8.81547V38.6195H9.85073V40.4578ZM11.1047 40.4578H10.0694V38.6195H11.1047V40.4578ZM12.3573 40.4578H11.3221V38.6195H12.3573V40.4578ZM13.61 40.4578H12.5747V38.6195H13.61V40.4578ZM14.8627 40.4578H13.8274V38.6195H14.8627V40.4578Z" fill="#C7C7C7"/>
<path opacity="0.1" d="M2.32959 44.5974V46.6963H14.9248V44.5974H2.32959ZM3.58484 46.5634H2.55735V44.7303H3.5926L3.58484 46.5634ZM4.83879 46.5634H3.80354V44.7303H4.83879V46.5634ZM6.09016 46.5634H5.0549V44.7303H6.09016V46.5634ZM7.34411 46.5634H6.31015V44.7303H7.34541L7.34411 46.5634ZM8.59677 46.5634H7.56152V44.7303H8.59677V46.5634ZM9.85073 46.5634H8.81547V44.7303H9.85073V46.5634ZM11.1047 46.5634H10.0694V44.7303H11.1047V46.5634ZM12.3573 46.5634H11.3221V44.7303H12.3573V46.5634ZM13.61 46.5634H12.5747V44.7303H13.61V46.5634ZM14.8627 46.5634H13.8274V44.7303H14.8627V46.5634Z" fill="#C7C7C7"/>
<path opacity="0.1" d="M2.32959 50.707V52.8098H14.9248V50.707H2.32959ZM3.58484 52.673H2.55735V50.8386H3.5926L3.58484 52.673ZM4.83879 52.673H3.80354V50.8386H4.83879V52.673ZM6.09016 52.673H5.0549V50.8386H6.09016V52.673ZM7.34411 52.673H6.31015V50.8386H7.34541L7.34411 52.673ZM8.59677 52.673H7.56152V50.8386H8.59677V52.673ZM9.85073 52.673H8.81547V50.8386H9.85073V52.673ZM11.1047 52.673H10.0694V50.8386H11.1047V52.673ZM12.3573 52.673H11.3221V50.8386H12.3573V52.673ZM13.61 52.673H12.5747V50.8386H13.61V52.673ZM14.8627 52.673H13.8274V50.8386H14.8627V52.673Z" fill="#C7C7C7"/>
<path opacity="0.1" d="M2.32959 56.8167V58.9129H14.9248V56.8167H2.32959ZM3.58484 58.7826H2.55735V56.9469H3.5926L3.58484 58.7826ZM4.83879 58.7826H3.80354V56.9469H4.83879V58.7826ZM6.09016 58.7826H5.0549V56.9469H6.09016V58.7826ZM7.34411 58.7826H6.31015V56.9469H7.34541L7.34411 58.7826ZM8.59677 58.7826H7.56152V56.9469H8.59677V58.7826ZM9.85073 58.7826H8.81547V56.9469H9.85073V58.7826ZM11.1047 58.7826H10.0694V56.9469H11.1047V58.7826ZM12.3573 58.7826H11.3221V56.9469H12.3573V58.7826ZM13.61 58.7826H12.5747V56.9469H13.61V58.7826ZM14.8627 58.7826H13.8274V56.9469H14.8627V58.7826Z" fill="#C7C7C7"/>
<path opacity="0.1" d="M2.3833 62.9249C2.43377 63.1223 2.49071 63.3197 2.55024 63.5145V63.0565H3.58549V64.8909H3.03163C3.04845 64.9335 3.06528 64.9799 3.0821 65.0199H14.9241V62.9249H2.3833ZM4.84204 64.8909H3.80678V63.0565H4.84204V64.8909ZM6.0934 64.8909H5.05814V63.0565H6.0934V64.8909ZM7.34736 64.8909H6.30951V63.0565H7.34477L7.34736 64.8909ZM8.60002 64.8909H7.56476V63.0565H8.60002V64.8909ZM9.85397 64.8909H8.81871V63.0565H9.85397V64.8909ZM11.1079 64.8909H10.0727V63.0565H11.1079V64.8909ZM12.3606 64.8909H11.3253V63.0565H12.3606V64.8909ZM13.6132 64.8909H12.578V63.0565H13.6132V64.8909ZM14.8659 64.8909H13.8306V63.0565H14.8659V64.8909Z" fill="#C7C7C7"/>
<path opacity="0.1" d="M5.30811 69.0344C5.34046 69.0757 5.37151 69.1221 5.40516 69.1634H6.08972V70.0445C6.16349 70.1322 6.23595 70.22 6.31101 70.3025V69.1583H7.34627V70.9991H6.92699C6.9684 71.0417 7.00851 71.0869 7.05639 71.1281H14.9282V69.0344H5.30811ZM8.59634 70.9991H7.56108V69.166H8.59634V70.9991ZM9.85029 70.9991H8.81504V69.166H9.85029V70.9991ZM11.1042 70.9991H10.069V69.166H11.1042V70.9991ZM12.3569 70.9991H11.3217V69.166H12.3569V70.9991ZM13.6096 70.9991H12.5743V69.166H13.6096V70.9991ZM14.8622 70.9991H13.827V69.166H14.8622V70.9991Z" fill="#C7C7C7"/>
<path opacity="0.1" d="M12.2178 75.1427C12.3355 75.2098 12.4559 75.2717 12.5775 75.3388V75.2743H13.6128V75.8548L13.8328 75.9567V75.2743H14.868V76.3902C14.8879 76.4 14.9087 76.4078 14.9301 76.4134V75.1427H12.2178Z" fill="#C7C7C7"/>
<path opacity="0.1" d="M81.3465 61.778C81.3711 61.8605 81.3918 61.9431 81.4151 62.0244C81.3944 61.9431 81.3724 61.8605 81.3465 61.778ZM19.4731 23.7557V24.3066H25.2538V23.7557H19.4731ZM81.3465 61.778C81.3711 61.8605 81.3918 61.9431 81.4151 62.0244C81.3944 61.9431 81.3724 61.8605 81.3465 61.778ZM81.3465 61.778C81.3711 61.8605 81.3918 61.9431 81.4151 62.0244C81.3944 61.9431 81.3724 61.8605 81.3465 61.778Z" fill="#C7C7C7"/>
<path d="M59.7343 48.9784C59.7343 48.9784 59.2244 48.9074 59.2244 48.1669C59.2244 47.4265 58.8595 46.0436 58.8595 46.0436C58.8595 46.0371 58.5437 43.6351 58.1076 43.2532C57.6715 42.8714 57.1112 40.6293 57.1112 40.6293C57.1112 40.6293 57.0154 39.4128 56.82 39.151C56.6246 38.8891 56.3606 38.2479 55.9711 37.3333C55.5816 36.4187 53.9575 35.7853 53.9575 35.7853C53.9575 35.7853 51.0213 34.0876 50.1892 33.5342C50.1136 33.4887 50.0429 33.4355 49.9783 33.3755C49.8333 33.1859 49.2018 33.182 49.2018 33.182C49.1358 32.7666 49.0724 32.2893 49.0517 31.8571C49.0517 31.8107 49.0517 31.7643 49.0452 31.7178C49.9731 31.1711 50.6719 30.309 51.0135 29.29C51.0291 29.241 51.042 29.1894 51.0562 29.1403C51.1118 29.1221 51.163 29.0925 51.2064 29.0534C51.2499 29.0143 51.2847 28.9666 51.3086 28.9133C51.3836 28.7469 51.3849 28.5521 51.4781 28.3973C51.5868 28.2141 51.7938 28.1161 51.9569 27.978C52.3684 27.6297 52.4745 27.0428 52.4551 26.5087C52.4422 26.0765 52.3723 25.6405 52.3995 25.2109L52.4072 25.1026C52.415 25.0381 52.4241 24.9736 52.4357 24.9116C52.4991 24.5917 52.6376 24.2898 52.7152 23.9725C52.7929 23.6552 52.8006 23.2978 52.6195 23.0243C52.3542 22.6231 51.8016 22.5432 51.3163 22.5019C50.7664 22.4554 50.2746 22.5161 49.9226 22.0607C49.7579 21.8227 49.5726 21.5995 49.3688 21.3937C49.2963 21.3267 48.5923 20.8984 48.5923 20.87C47.9052 20.5528 47.1264 20.4932 46.3989 20.7023C46.0339 20.8081 45.6897 20.9809 45.3196 21.0674C44.5212 21.2557 43.6024 21.0519 42.9243 21.5073C42.5464 21.7653 42.32 22.1755 42.1077 22.5754C41.9352 22.9048 41.7601 23.2337 41.5823 23.5623C41.2963 24.1028 41.0052 24.6523 40.8848 25.2509C40.8595 25.3812 40.844 25.5131 40.8382 25.6457V25.6521C40.8382 25.6998 40.8382 25.7476 40.8382 25.7953V25.8559C40.8382 25.9011 40.8382 25.945 40.846 25.9849C40.8538 26.0249 40.8525 26.0378 40.8564 26.0649C40.8602 26.092 40.8667 26.1526 40.8745 26.1939C40.8822 26.2352 40.8978 26.3074 40.9133 26.3642C40.9198 26.3887 40.9288 26.4119 40.9366 26.4352C40.9495 26.479 40.9651 26.5216 40.9819 26.5642C40.9909 26.5861 41 26.6093 41.0104 26.6312C41.0298 26.6764 41.0531 26.7203 41.0764 26.7602C41.0867 26.7783 41.0945 26.7951 41.1048 26.8118C41.1409 26.8718 41.1807 26.9296 41.2239 26.9847C41.5008 27.3291 41.9084 27.5485 42.21 27.871C42.21 27.8839 42.21 27.8968 42.21 27.9084C42.21 27.9445 42.21 27.9793 42.21 28.0154C42.226 28.7347 42.418 29.4392 42.7694 30.0676C43.1208 30.696 43.6208 31.2293 44.2261 31.6211C44.2261 31.6701 44.2326 31.7204 44.2352 31.7694C44.2604 32.1523 44.2557 32.5366 44.2209 32.9188C44.1683 32.857 44.1023 32.8077 44.0279 32.7746C43.9536 32.7416 43.8727 32.7256 43.7913 32.7279C43.7357 32.7252 43.68 32.73 43.6257 32.7421L43.614 32.7331V32.7447C43.3293 32.8143 42.9786 33.1098 42.6435 33.9496C42.6435 33.9496 41.6237 35.0951 40.8473 35.0474C40.0709 34.9996 38.1052 36.2394 38.1052 36.2394C38.1052 36.2394 36.1874 37.4804 35.7758 38.7446C35.5458 39.4615 35.2701 40.163 34.9502 40.8448L32.5795 45.7146L32.1421 49.5782C32.1421 49.5782 32.3841 51.2965 32.3362 51.5584C32.2883 51.8203 33.3313 54.1823 33.3313 54.1823C33.3313 54.1823 36.7775 60.2184 38.1854 60.528L38.2863 60.457C38.3466 60.4884 38.4105 60.5122 38.4766 60.528L38.7664 60.3242C38.7838 60.5513 38.7765 60.7797 38.7444 61.0053C38.5503 61.6013 38.8169 65.4907 39.156 66.2531C39.495 67.0155 39.3747 77.0119 39.3747 77.0119L39.3268 77.8943C39.3268 77.8943 39.3268 77.9227 39.3384 77.9717L39.3268 78.1807L39.3617 78.1988C39.398 78.4786 39.3862 78.7626 39.3268 79.0386C39.2051 79.4256 39.156 80.5195 39.156 80.5195C39.156 80.5195 38.1867 86.6962 38.6461 87.9372C39.1055 89.1782 39.4963 90.5379 39.4963 90.5379C39.4963 90.5379 39.9816 92.0859 39.5196 92.3503C39.0576 92.6148 37.7441 93.0586 38.0146 93.7036C38.2605 94.2996 39.1935 95.8966 39.3319 96.1301L39.3203 96.2527L39.1301 98.3077C39.1609 98.579 39.2347 98.8438 39.3488 99.092C39.5571 99.5397 39.9622 100.004 40.7321 99.9538C40.8615 99.9447 41.0117 99.9293 41.1566 99.9099C42.5658 99.7216 44.3012 99.0946 44.3012 99.0946C44.2111 99.0376 44.1285 98.9695 44.0553 98.8921C43.986 98.8252 43.9312 98.7449 43.894 98.6562C43.8568 98.5675 43.8382 98.4722 43.8392 98.3761C43.8599 98.002 43.1572 96.2191 42.9825 95.7805C42.9553 95.7173 42.9411 95.6812 42.9411 95.6812C42.9411 95.6812 44.5432 94.0119 44.2766 92.5322C44.2766 92.5322 42.5037 91.5002 43.0873 90.9339C43.671 90.3676 44.714 88.7409 44.714 88.7409C44.714 88.7409 44.7619 82.6584 44.714 81.7502C44.664 81.1199 44.694 80.4858 44.8033 79.8629C44.8227 79.7687 44.846 79.6771 44.8706 79.5868C45.6777 79.7069 46.4925 79.7686 47.3086 79.7713C47.6062 79.7713 47.909 79.7713 48.2145 79.7532C48.2145 79.8392 48.2183 79.9321 48.2261 80.0319C48.2934 81.5386 48.4189 84.1806 48.5211 85.1623C48.6661 86.5697 49.4671 90.3624 49.4671 90.3624C49.4671 90.3624 47.9388 91.3403 49.7337 93.75C49.7337 93.75 49.7337 94.6234 49.6146 94.7498C49.4875 95.1631 49.3851 95.5835 49.3079 96.0089C49.2329 96.463 49.2018 96.9222 49.3235 97.1609C49.6146 97.731 51.3616 97.6846 51.3616 97.6846L51.4043 97.6769C51.7341 97.6429 52.0674 97.6745 52.3849 97.77C52.7023 97.8654 52.9976 98.0228 53.2536 98.2329C53.9174 98.7644 56.437 98.5309 57.8009 98.3619C58.3354 98.2948 58.6925 98.2329 58.6925 98.2329C58.7099 98.1726 58.716 98.1096 58.7107 98.0471C58.6964 97.713 58.4337 96.9803 56.6531 96.3262C56.6531 96.3262 54.9786 95.2039 55.0019 94.226H54.9669H54.7728C54.9139 94.2183 55.0044 94.226 55.0044 94.226C55.0044 94.226 54.3483 91.8395 54.6162 91.646C54.8841 91.4525 54.0818 88.8079 54.0818 88.8079C54.0818 88.8079 53.6224 84.3702 53.5978 84.0593C53.5988 83.7926 53.6394 83.5274 53.7181 83.2724L53.5978 80.8394C53.5978 80.8394 53.5745 80.0306 53.5978 79.7674C53.5939 79.539 53.5753 79.3111 53.5421 79.085C53.5305 78.9947 53.5188 78.9005 53.5059 78.8077C54.1335 78.649 54.5412 78.5019 54.5412 78.5019L54.4687 70.0329C55.0019 69.0009 55.1002 66.7369 55.0976 65.1308C55.0976 64.0988 55.051 63.3351 55.051 63.3351L55.7796 62.1495C55.7796 62.1495 55.9478 60.7305 55.6812 60.4196C55.5635 60.279 55.6165 60.1332 55.7136 60.0133C55.764 59.9734 55.8172 59.9372 55.8728 59.9049C55.8728 59.9049 55.865 59.8933 55.8559 59.8765C55.9068 59.8341 55.9609 59.7958 56.0177 59.7617C56.0177 59.7617 55.7589 59.3618 55.9905 59.1928C56.2079 59.3399 56.402 59.4508 56.5496 59.5411C56.5392 59.6353 56.5289 59.6895 56.5289 59.6895L56.591 59.5605C56.7333 59.6404 56.82 59.6895 56.82 59.6895C56.82 59.6895 57.9614 57.4229 57.9368 57.0888C57.9122 56.7547 58.7132 55.3472 58.7132 55.3472C58.7132 55.3472 58.8103 54.608 59.2477 54.2984C59.6851 53.9888 59.5867 51.7455 59.5867 51.7455C59.5867 51.7455 59.7084 50.5767 59.9996 50.0994C60.2907 49.6221 59.7343 48.9784 59.7343 48.9784ZM37.8955 47.9838L37.9175 48.5243C37.7881 48.3166 37.6949 48.1669 37.6949 48.1669L37.8955 47.9838Z" fill="url(#paint0_linear_1304_24551)"/>
<path d="M56.8816 58.7104L56.6021 59.8972C56.6021 59.8972 54.3633 58.7581 53.9596 57.3107C53.5558 55.8633 54.6351 55.3137 54.6351 55.3137L56.7211 56.1948L56.8816 58.7104Z" fill="white"/>
<path opacity="0.1" d="M56.8816 58.7104L56.6021 59.8972C56.6021 59.8972 54.3633 58.7581 53.9596 57.3107C53.5558 55.8633 54.6351 55.3137 54.6351 55.3137L56.7211 56.1948L56.8816 58.7104Z" fill="black"/>
<path d="M44.3179 99.1024C44.3179 99.1024 42.2474 99.8609 40.8239 99.9564C40.0682 100.007 39.6709 99.5449 39.4665 99.0998C39.3548 98.8524 39.2827 98.589 39.2529 98.3194L39.438 96.2747L39.5363 95.1859L42.5606 94.4028L42.9889 95.7083L43.029 95.8077C43.2011 96.2437 43.8909 98.0175 43.8702 98.3877C43.8693 98.4825 43.8877 98.5765 43.9242 98.6641C43.9606 98.7516 44.0144 98.831 44.0824 98.8973C44.1518 98.9754 44.231 99.0443 44.3179 99.1024Z" fill="white"/>
<path d="M58.4611 98.0626C58.4663 98.1247 58.4602 98.1872 58.443 98.2471C58.443 98.2471 54.0147 98.9837 53.1089 98.2471C52.8535 98.0319 52.5558 97.8723 52.2349 97.7785C51.9139 97.6848 51.5769 97.6589 51.2454 97.7027C51.2454 97.7027 49.5321 97.7491 49.2461 97.1867C49.127 96.9506 49.1581 96.4926 49.2318 96.0411C49.3071 95.6181 49.4073 95.1998 49.5321 94.7885L49.6006 94.7343L50.0083 94.408L54.7808 94.2673H54.817C54.7937 95.24 56.4372 96.3559 56.4372 96.3559C58.1829 97.0009 58.4404 97.7298 58.4611 98.0626Z" fill="white"/>
<path opacity="0.1" d="M58.4614 98.0626C58.466 98.1248 58.4594 98.1872 58.442 98.2471C58.442 98.2471 54.015 98.9837 53.1092 98.2471C52.8539 98.0321 52.5564 97.8726 52.2358 97.7788C51.9151 97.6851 51.5783 97.6591 51.247 97.7027C51.247 97.7027 49.5323 97.7491 49.2476 97.1867C49.1286 96.9493 49.1584 96.4926 49.2321 96.0411C49.8921 96.1069 50.9338 96.2708 51.3427 96.6616C51.9613 97.2563 53.0095 97.8498 53.6527 97.8962C54.1561 97.9284 57.1674 98.0239 58.4614 98.0626Z" fill="black"/>
<path opacity="0.1" d="M44.3179 99.1023C44.3179 99.1023 42.2474 99.8609 40.824 99.9563C40.0682 100.007 39.6709 99.5448 39.4678 99.0985C39.9945 99.2752 40.7256 99.461 41.1099 99.2907C41.5655 99.0895 43.1805 98.9592 44.0863 98.9037C44.1553 98.9789 44.233 99.0456 44.3179 99.1023Z" fill="black"/>
<path d="M47.3903 37.9745C45.6822 37.3127 43.4848 35.1262 44.0335 34.1045C44.1554 33.8466 44.2278 33.5684 44.247 33.284C44.2824 32.898 44.2875 32.5098 44.2626 32.123C44.2241 31.4894 44.1476 30.8588 44.0335 30.2344C44.0335 30.2344 49.3664 30.3543 49.0558 31.1374C48.9652 31.367 48.951 31.7656 48.9756 32.212C49.0002 32.6583 49.0649 33.1627 49.1322 33.5897C49.2253 34.1754 49.3185 34.6218 49.3185 34.6218C49.3185 34.6218 48.9924 35.0771 48.8009 35.1016C48.6094 35.1262 49.8413 38.9175 47.3903 37.9745Z" fill="#CF6F80"/>
<path opacity="0.1" d="M43.0256 95.8077L42.9855 95.8515C41.3912 93.9294 39.463 96.325 39.463 96.325L39.4346 96.2747L39.5329 95.1859L42.5572 94.4028L42.9855 95.7083L43.0256 95.8077Z" fill="black"/>
<path opacity="0.1" d="M54.8181 94.4028C54.8181 94.4028 53.6534 94.3783 53.0322 94.9253C52.4111 95.4722 49.4088 95.044 49.5382 94.9253C49.5766 94.8665 49.5997 94.7991 49.6055 94.7292L50.0132 94.4028L54.7857 94.2622C54.8038 94.3486 54.8181 94.4028 54.8181 94.4028Z" fill="black"/>
<path d="M45.0092 79.3082C44.9225 79.522 44.8566 79.7436 44.8125 79.97C44.7046 80.5899 44.6746 81.2209 44.7232 81.8482C44.7711 82.7513 44.7232 88.8028 44.7232 88.8028C44.7232 88.8028 43.6996 90.4166 43.1289 90.9855C42.5582 91.5544 44.2936 92.5761 44.2936 92.5761C44.5524 94.0467 42.984 95.7083 42.984 95.7083C41.3897 93.7861 39.4615 96.183 39.4615 96.183C39.4615 96.183 38.4133 94.377 38.1519 93.732C37.8905 93.0869 39.1755 92.6406 39.6272 92.3787C40.0788 92.1168 39.6052 90.5727 39.6052 90.5727C39.6052 90.5727 39.2234 89.2194 38.7705 87.9849C38.3176 86.7503 39.27 80.6047 39.27 80.6047C39.27 80.6047 39.3192 79.5133 39.4369 79.1327C39.4964 78.8581 39.5082 78.5754 39.4719 78.2968C39.4641 78.2026 39.4551 78.1239 39.4486 78.071C39.4421 78.0182 39.4369 77.9936 39.4369 77.9936L39.4551 77.9627L40.1021 76.7604C40.1021 76.7604 45.3198 78.5509 45.0092 79.3082Z" fill="#C7C7C7"/>
<path d="M54.8178 94.2608C54.8178 94.2608 53.6532 94.2363 53.032 94.7768C52.4109 95.3174 49.4086 94.8955 49.538 94.7768C49.6674 94.6581 49.6571 93.7796 49.6571 93.7796C47.8959 91.3828 49.3983 90.4101 49.3983 90.4101C49.3983 90.4101 48.6115 86.6368 48.4691 85.2371C48.3695 84.2592 48.2465 81.6315 48.1805 80.1312C48.1521 79.4861 48.1353 79.0424 48.1353 79.0424L49.5743 78.7534L49.7593 78.716L53.23 78.022C53.23 78.022 53.3258 78.667 53.3905 79.1946C53.4227 79.4199 53.4409 79.6469 53.4448 79.8744C53.4215 80.1325 53.4448 80.94 53.4448 80.94L53.5626 83.3614C53.4857 83.6154 53.446 83.8791 53.4448 84.1444C53.4681 84.4528 53.9198 88.8672 53.9198 88.8672C53.9198 88.8672 54.7053 91.5015 54.4374 91.6911C54.1695 91.8807 54.8178 94.2608 54.8178 94.2608Z" fill="#C7C7C7"/>
<path opacity="0.1" d="M49.056 31.1374C48.9654 31.367 48.9512 31.7656 48.9757 32.212C48.2614 32.6408 47.4403 32.86 46.6066 32.8445C45.7729 32.829 44.9605 32.5793 44.2627 32.1243C44.2243 31.4903 44.1478 30.8592 44.0337 30.2344C44.0337 30.2344 49.3666 30.3518 49.056 31.1374Z" fill="black"/>
<path d="M51.1169 28.2863C51.1179 28.7512 51.0445 29.2132 50.8995 29.655C50.5753 30.645 49.9104 31.4887 49.0225 32.0373C48.1346 32.5858 47.0807 32.8038 46.0472 32.6526C45.0136 32.5015 44.0669 31.991 43.3744 31.2114C42.6819 30.4317 42.2882 29.4331 42.2629 28.3921C42.2629 28.356 42.2629 28.3224 42.2629 28.2863C42.2528 27.7003 42.3599 27.1182 42.5779 26.5739C42.7959 26.0297 43.1204 25.5341 43.5326 25.1161C43.9447 24.6982 44.4362 24.3663 44.9784 24.1397C45.5206 23.9131 46.1026 23.7964 46.6905 23.7964C47.2784 23.7964 47.8604 23.9131 48.4026 24.1397C48.9448 24.3663 49.4363 24.6982 49.8485 25.1161C50.2606 25.5341 50.5851 26.0297 50.8031 26.5739C51.0211 27.1182 51.1282 27.7003 51.1182 28.2863H51.1169Z" fill="#CF6F80"/>
<path opacity="0.1" d="M47.3903 37.9745C45.6822 37.3127 43.4848 35.1261 44.0335 34.1044C44.1554 33.8466 44.2278 33.5683 44.247 33.2839L46.5854 35.1996L48.0322 36.3826L49.1322 33.591C49.2253 34.1766 49.3185 34.623 49.3185 34.623C49.3185 34.623 48.9924 35.0784 48.8009 35.1029C48.6094 35.1274 49.8413 38.9175 47.3903 37.9745Z" fill="black"/>
<path d="M53.4373 46.4409L51.4846 79.1431L48.9378 79.3095L42.3433 60.3474L43.4251 37.8352L43.6529 33.0789L46.5852 35.4796L48.0333 36.6626L49.1656 33.7897L51.2711 35.6189L53.4373 46.4409Z" fill="#C7C7C7"/>
<path opacity="0.1" d="M45.009 79.3082C44.9222 79.522 44.8563 79.7436 44.8123 79.97C42.9591 79.6848 41.1594 79.1243 39.4729 78.3072L39.438 78.2891L39.4496 78.0814L39.4561 77.9731L40.1031 76.7708C40.1031 76.7708 45.3195 78.551 45.009 79.3082Z" fill="black"/>
<path opacity="0.1" d="M49.604 79.9751C49.1302 80.0554 48.6524 80.1097 48.1727 80.1376C48.1443 79.4926 48.1274 79.0489 48.1274 79.0489L49.5664 78.7599L49.604 79.9751Z" fill="black"/>
<path opacity="0.1" d="M53.3826 79.2011C52.4625 79.4397 51.0417 79.7081 49.7696 79.5404L49.7515 78.7225L53.2222 78.0284C53.2222 78.0284 53.3179 78.667 53.3826 79.2011Z" fill="black"/>
<path opacity="0.1" d="M49.7472 79.6901C44.4415 80.5931 39.5823 78.004 39.5823 78.004L39.6288 77.1268C39.6288 77.1268 39.7492 67.182 39.4153 66.4196C39.0815 65.6572 38.8213 61.791 39.0103 61.1975C39.1992 60.6041 38.3205 51.7055 38.3205 51.7055L38.1782 48.0935L32.9683 45.9894L35.2976 41.1492C35.6122 40.4706 35.8828 39.7726 36.1077 39.0594C36.5127 37.8029 38.393 36.5684 38.393 36.5684C38.393 36.5684 40.3212 35.3351 41.0834 35.3815C41.8456 35.428 42.8446 34.2902 42.8446 34.2902C43.5822 32.4158 44.25 33.2646 44.25 33.2646C44.25 33.3536 44.25 33.2646 44.2137 33.542C43.9549 35.5996 48.3988 42.1013 48.4622 42.2161L48.8853 52.4924L49.3137 65.4972L49.7472 79.6901Z" fill="black"/>
<path d="M49.6046 79.6901C44.2989 80.5931 39.4384 78.0041 39.4384 78.0041L39.4862 77.1268C39.4862 77.1268 39.6066 67.182 39.2714 66.4196C38.9363 65.6572 38.6774 61.791 38.8677 61.1976C39.0579 60.6042 38.1779 51.7056 38.1779 51.7056L38.0343 48.0935L32.8218 45.9817L35.1511 41.1416C35.465 40.4627 35.7356 39.7646 35.9612 39.0517C36.3649 37.7952 38.2465 36.5607 38.2465 36.5607C38.2465 36.5607 40.1747 35.3274 40.9356 35.3738C41.6965 35.4203 42.6968 34.2825 42.6968 34.2825C43.4357 32.4081 44.2497 33.2569 44.2497 33.2569C44.2497 33.3459 44.1721 33.3859 44.2135 33.5343C44.7829 35.5299 48.2562 42.0936 48.3196 42.2084L48.7479 52.4848L49.1762 65.4895L49.6046 79.6901Z" fill="white"/>
<path opacity="0.1" d="M48.1743 42.5011C47.6036 42.2638 44.5807 38.8233 44.5807 38.8233V38.0402C44.4707 37.7822 43.8172 37.9396 43.2866 38.1202L43.5144 33.3639L43.7732 33.578C44.34 35.5724 48.1083 42.3863 48.1743 42.5011Z" fill="black"/>
<path d="M48.3182 42.2161C47.7462 41.9788 44.7233 38.5382 44.7233 38.5382V37.7552C44.6133 37.4972 43.9598 37.6546 43.4292 37.8352L43.6582 33.0789L43.9171 33.293C44.4852 35.2874 48.2548 42.1026 48.3182 42.2161Z" fill="white"/>
<path opacity="0.1" d="M39.5817 59.3748C39.6529 59.3748 43.2711 58.9955 43.2711 58.9955C43.2711 58.9955 45.462 63.29 45.3183 64.3349C45.1747 65.3798 44.9146 66.3048 44.0333 66.1409C43.152 65.9771 39.2905 66.2699 39.2905 66.2699L39.5817 59.3748Z" fill="black"/>
<path d="M39.4377 59.0896C39.5088 59.0896 43.127 58.7103 43.127 58.7103C43.127 58.7103 45.3166 63.0061 45.1743 64.0497C45.0319 65.0934 44.7692 66.0196 43.8893 65.8558C43.0093 65.6919 39.1465 65.9848 39.1465 65.9848L39.4377 59.0896Z" fill="white"/>
<path d="M42.1652 57.0732C42.1652 57.0732 45.4857 58.8522 45.5569 59.3953C45.6281 59.9384 43.8669 59.1579 43.4864 59.0638C43.236 59.0036 42.9811 58.9639 42.7242 58.9451L40.1865 59.0134L42.1652 57.0732Z" fill="#CF6F80"/>
<path opacity="0.1" d="M47.2473 42.723C47.4403 42.723 47.5967 42.567 47.5967 42.3747C47.5967 42.1823 47.4403 42.0264 47.2473 42.0264C47.0544 42.0264 46.8979 42.1823 46.8979 42.3747C46.8979 42.567 47.0544 42.723 47.2473 42.723Z" fill="black"/>
<path d="M47.2473 42.5811C47.4403 42.5811 47.5967 42.4252 47.5967 42.2328C47.5967 42.0405 47.4403 41.8845 47.2473 41.8845C47.0544 41.8845 46.8979 42.0405 46.8979 42.2328C46.8979 42.4252 47.0544 42.5811 47.2473 42.5811Z" fill="#3F3D56"/>
<path opacity="0.1" d="M47.8914 57.8009C48.0844 57.8009 48.2408 57.6449 48.2408 57.4526C48.2408 57.2602 48.0844 57.1042 47.8914 57.1042C47.6984 57.1042 47.542 57.2602 47.542 57.4526C47.542 57.6449 47.6984 57.8009 47.8914 57.8009Z" fill="black"/>
<path d="M47.8914 57.6577C48.0844 57.6577 48.2408 57.5017 48.2408 57.3094C48.2408 57.117 48.0844 56.9611 47.8914 56.9611C47.6984 56.9611 47.542 57.117 47.542 57.3094C47.542 57.5017 47.6984 57.6577 47.8914 57.6577Z" fill="#3F3D56"/>
<path opacity="0.1" d="M47.5955 50.2619C47.7885 50.2619 47.9449 50.106 47.9449 49.9136C47.9449 49.7213 47.7885 49.5653 47.5955 49.5653C47.4025 49.5653 47.2461 49.7213 47.2461 49.9136C47.2461 50.106 47.4025 50.2619 47.5955 50.2619Z" fill="black"/>
<path d="M47.5955 50.1201C47.7885 50.1201 47.9449 49.9641 47.9449 49.7718C47.9449 49.5794 47.7885 49.4235 47.5955 49.4235C47.4025 49.4235 47.2461 49.5794 47.2461 49.7718C47.2461 49.9641 47.4025 50.1201 47.5955 50.1201Z" fill="#3F3D56"/>
<path d="M55.6504 58.873C55.6504 58.873 55.8885 59.229 55.6504 59.3954C55.4123 59.5618 55.6737 59.9643 55.6737 59.9643C55.6737 59.9643 55.0797 60.3113 55.3411 60.6235C55.6025 60.9357 55.4369 62.3457 55.4369 62.3457L54.7225 63.5248C54.7225 63.5248 54.7652 64.2846 54.7678 65.3115C54.7678 66.9137 54.6734 69.1661 54.1506 70.1929L54.223 78.6181C54.223 78.6181 51.7216 79.5289 49.6278 79.2515L49.3172 65.732C49.3172 65.732 49.7701 58.0654 49.9371 56.5948C50.0348 55.8313 50.0746 55.0615 50.0561 54.2921C50.0561 54.2921 49.9849 51.9907 49.7455 50.9225C49.7455 50.9225 49.4867 46.2952 49.4608 45.0142C49.4492 44.4014 49.4816 42.6135 49.5178 40.9132C49.5579 39.0543 49.6032 37.3011 49.6032 37.3011L49.1309 33.5755C49.1309 33.5755 49.6032 33.5278 49.7455 33.7174C49.8093 33.7768 49.8786 33.83 49.9526 33.8761C50.7679 34.4257 53.6485 36.1156 53.6485 36.1156C53.6485 36.1156 55.2428 36.7477 55.6245 37.6533C56.0063 38.5589 56.2715 39.2013 56.4566 39.4594C56.6416 39.7174 56.7426 40.93 56.7426 40.93C56.7426 40.93 57.2913 43.1617 57.7196 43.5397C58.1479 43.9177 58.4611 46.3223 58.4611 46.3223L54.676 49.2894C54.676 49.2894 54.3434 54.225 54.2722 54.4159C54.201 54.6068 55.6504 58.873 55.6504 58.873Z" fill="white"/>
<path d="M55.7933 58.8729C55.7933 58.8729 56.0301 59.229 55.7933 59.3954C55.5565 59.5618 55.8153 59.9643 55.8153 59.9643C55.8153 59.9643 55.2252 60.3152 55.484 60.6273C55.7429 60.9395 55.5798 62.3495 55.5798 62.3495L54.8655 63.5286C54.8655 63.5286 54.9082 64.2884 54.9121 65.3153C54.9121 66.9175 54.8176 69.1699 54.2948 70.1968L54.366 78.6219C54.366 78.6219 51.8606 79.5327 49.7694 79.2553L49.4601 65.7359C49.4601 65.7359 49.9131 58.0692 50.08 56.5986C50.1778 55.8351 50.2172 55.0653 50.1978 54.2959C50.1978 54.2959 50.1266 51.9945 49.8885 50.9263C49.8885 50.9263 49.6297 46.299 49.6025 45.018C49.5908 44.4053 49.6245 42.6173 49.6594 40.917C49.6995 39.0581 49.7448 37.305 49.7448 37.305L49.1211 33.5291C49.1211 33.5291 49.7448 33.5291 49.8885 33.7213C49.9516 33.7813 50.0211 33.8345 50.0955 33.8799C50.9108 34.4295 53.7927 36.1194 53.7927 36.1194C53.7927 36.1194 55.3857 36.7515 55.7674 37.6571C56.1492 38.5627 56.4145 39.2052 56.6008 39.4632C56.7872 39.7212 56.8855 40.9338 56.8855 40.9338C56.8855 40.9338 57.4342 43.1656 57.8625 43.5435C58.2909 43.9215 58.6002 46.321 58.6002 46.321L54.815 49.288C54.815 49.288 54.4824 54.2237 54.41 54.4146C54.3375 54.6055 55.7933 58.8729 55.7933 58.8729Z" fill="white"/>
<path opacity="0.1" d="M51.2606 38.4001L51.6022 39.3935L49.8035 41.1995C49.8436 39.3419 49.8889 37.5874 49.8889 37.5874L49.2651 33.8115C49.2651 33.8115 49.8889 33.8115 50.0325 34.0037C50.0955 34.0636 50.1649 34.1164 50.2396 34.1611L51.7692 38.5601L51.2606 38.4001Z" fill="black"/>
<path d="M51.1166 38.1151L51.4595 39.1084L49.6607 40.9145C49.7008 39.0555 49.7461 37.3024 49.7461 37.3024L49.1211 33.5265C49.1211 33.5265 49.7461 33.5265 49.8885 33.7187C49.952 33.7784 50.0213 33.8316 50.0955 33.8774L51.6264 38.2751L51.1166 38.1151Z" fill="white"/>
<path opacity="0.1" d="M51.1169 28.2863C51.1179 28.7512 51.0445 29.2132 50.8995 29.655C50.875 29.6588 50.8501 29.6577 50.8261 29.6517C50.8021 29.6458 50.7795 29.635 50.7597 29.6202C50.7261 28.4592 50.1528 27.3691 49.4475 26.4416C49.2495 26.1615 49.0095 25.9135 48.7358 25.7063C48.4591 25.4991 48.115 25.4021 47.7704 25.4341C47.3822 25.487 47.0393 25.7501 46.6472 25.7837C46.1295 25.8262 45.6663 25.4689 45.1525 25.4508C44.9437 25.4528 44.7376 25.4992 44.5482 25.5868C44.3587 25.6745 44.1902 25.8014 44.0539 25.9591C43.784 26.2774 43.5834 26.6482 43.465 27.0479C43.2616 27.654 43.1508 28.2872 43.1364 28.9262C43.1299 29.2874 43.0949 29.7402 42.7585 29.8718C42.7838 29.6061 42.7535 29.3381 42.6695 29.0847C42.5856 28.8314 42.4497 28.5981 42.2706 28.3998L42.2629 28.3921C42.2629 28.356 42.2629 28.3224 42.2629 28.2863C42.2528 27.7003 42.3599 27.1182 42.5779 26.5739C42.7959 26.0297 43.1204 25.5341 43.5326 25.1161C43.9447 24.6982 44.4362 24.3663 44.9784 24.1397C45.5206 23.9131 46.1026 23.7964 46.6905 23.7964C47.2784 23.7964 47.8604 23.9131 48.4026 24.1397C48.9448 24.3663 49.4363 24.6982 49.8485 25.1161C50.2606 25.5341 50.5851 26.0297 50.8031 26.5739C51.0211 27.1182 51.1282 27.7003 51.1182 28.2863H51.1169Z" fill="black"/>
<path d="M48.5234 21.2776C47.8509 20.9623 47.0861 20.9026 46.3726 21.1099C46.0142 21.2157 45.6764 21.3873 45.3128 21.4737C44.5363 21.6607 43.6305 21.4582 42.964 21.911C42.5939 22.169 42.3714 22.5767 42.1643 22.9727L41.6467 23.9557C41.3646 24.4936 41.0799 25.0406 40.9621 25.6327C40.8443 26.2249 40.9155 26.8879 41.2921 27.364C41.5664 27.711 41.9715 27.929 42.2691 28.2554C42.4474 28.4539 42.5827 28.687 42.6664 28.94C42.7501 29.1931 42.7805 29.4607 42.7557 29.726C43.0934 29.597 43.1258 29.1429 43.1336 28.7817C43.148 28.1427 43.2588 27.5095 43.4623 26.9034C43.5804 26.5036 43.7809 26.1327 44.0511 25.8146C44.1875 25.657 44.3561 25.5302 44.5455 25.4426C44.7349 25.3549 44.9409 25.3085 45.1497 25.3064C45.6674 25.3244 46.1319 25.6805 46.6444 25.6379C47.0326 25.6056 47.3768 25.3412 47.7676 25.2896C48.1122 25.2571 48.4565 25.3542 48.733 25.5618C49.0066 25.7687 49.2463 26.0168 49.4434 26.2971C50.15 27.2246 50.7233 28.3121 50.7569 29.4757C50.9032 29.5828 51.1141 29.4435 51.1866 29.2783C51.259 29.1132 51.2616 28.9197 51.3535 28.7623C51.4596 28.5804 51.6628 28.4837 51.822 28.3469C52.2257 27.9999 52.3266 27.4156 52.3111 26.8854C52.2956 26.3552 52.1921 25.8172 52.293 25.296C52.3538 24.9761 52.491 24.6768 52.566 24.3608C52.6411 24.0447 52.6502 23.69 52.4729 23.4178C52.2141 23.0179 51.6693 22.9392 51.1943 22.9018C50.6547 22.8553 50.172 22.9146 49.8278 22.4619C49.6662 22.2256 49.4844 22.0037 49.2843 21.7988C49.2157 21.7317 48.5234 21.306 48.5234 21.2776Z" fill="#512E4E"/>
<path opacity="0.1" d="M34.4584 48.4817L33.1061 45.9894L32.6777 49.8349C32.6777 49.8349 32.9158 51.5429 32.868 51.8048C32.8201 52.0667 33.8437 54.4145 33.8437 54.4145C33.8437 54.4145 37.2251 60.4183 38.6059 60.7279L43.271 57.4048L42.0339 55.8387C42.0339 55.8387 41.6055 55.6723 41.4981 55.8387C41.4981 55.8387 39.2011 51.899 38.963 51.6139C38.7249 51.3288 38.7715 50.7599 38.7715 50.7599C38.7715 50.7599 38.4144 50.3806 38.5334 50.0246C38.6525 49.6685 37.8437 48.434 37.8437 48.434L38.5813 47.7464L34.4584 48.4817Z" fill="black"/>
<path d="M33.1771 45.7056L32.8199 45.9894L32.3916 49.8349C32.3916 49.8349 32.6297 51.5429 32.5818 51.8048C32.5339 52.0667 33.5589 54.4145 33.5589 54.4145C33.5589 54.4145 36.939 60.4183 38.3197 60.7279L42.9862 57.4048L41.7477 55.8387C41.7477 55.8387 41.3194 55.6723 41.212 55.8387C41.212 55.8387 38.915 51.899 38.6769 51.6139C38.4388 51.3288 38.4867 50.7599 38.4867 50.7599C38.4867 50.7599 38.1295 50.3806 38.2486 50.0246C38.3676 49.6685 37.5575 48.434 37.5575 48.434L38.2952 47.7464L33.1771 45.7056Z" fill="white"/>
<path opacity="0.1" d="M55.3414 60.7704C55.6002 61.0839 55.4371 62.4913 55.4371 62.4913L54.7228 63.6704C54.7228 63.6704 54.7655 64.4315 54.7681 65.4571L53.5672 65.8312C53.4587 65.865 53.3436 65.8724 53.2316 65.8529C53.1196 65.8333 53.0139 65.7873 52.9234 65.7188C52.8328 65.6502 52.7601 65.5611 52.7111 65.4588C52.6621 65.3565 52.6384 65.244 52.6419 65.1307L52.849 58.4729L55.6507 59.541C55.4125 59.7062 55.6739 60.1112 55.6739 60.1112C55.6739 60.1112 55.08 60.457 55.3414 60.7704Z" fill="black"/>
<path d="M55.4847 60.6273C55.7436 60.9408 55.5805 62.3495 55.5805 62.3495L54.8662 63.5286C54.8662 63.5286 54.9089 64.2884 54.9128 65.3153L53.6899 65.6958C53.5836 65.7287 53.4709 65.7359 53.3613 65.7166C53.2517 65.6974 53.1483 65.6523 53.0597 65.5852C52.971 65.5181 52.8998 65.4308 52.8519 65.3307C52.8039 65.2305 52.7806 65.1204 52.784 65.0095L52.9924 58.3311L55.7953 59.3992C55.5559 59.5643 55.8173 59.9681 55.8173 59.9681C55.8173 59.9681 55.2259 60.3151 55.4847 60.6273Z" fill="white"/>
<path d="M56.4122 57.4539C56.4122 57.4539 56.222 58.6653 55.7458 58.7362C55.2696 58.8072 55.056 60.6958 54.5811 60.6287C54.1062 60.5616 54.4207 58.8729 54.4375 58.5453C54.4543 58.2176 53.9198 56.8605 54.3197 56.5522C54.7196 56.2439 55.9852 56.5522 55.9852 56.5522L56.4122 57.4539Z" fill="#CF6F80"/>
<path opacity="0.1" d="M57.4263 48.1257L58.3244 46.3197C58.3244 46.3197 58.6815 47.6962 58.6815 48.4315C58.6815 49.1668 59.181 49.239 59.181 49.239C59.181 49.239 59.7284 49.884 59.4399 50.3536C59.1513 50.8232 59.0348 51.9919 59.0348 51.9919C59.0348 51.9919 59.1293 54.2224 58.7009 54.5307C58.2726 54.839 58.1833 55.5756 58.1833 55.5756C58.1833 55.5756 57.3965 56.9753 57.4211 57.3081C57.4457 57.641 56.3263 59.8946 56.3263 59.8946C56.3263 59.8946 56.8737 57.094 53.6838 55.884C53.6838 55.884 53.6592 54.9332 53.8974 54.6726C54.1355 54.412 54.5069 54.2934 54.2739 52.9762C54.041 51.6591 54.2066 50.0853 54.2066 49.7692C54.2066 49.4532 54.921 47.482 54.921 47.482L57.4263 48.1257Z" fill="black"/>
<path d="M57.8135 46.0616L58.5977 46.3197C58.5977 46.3197 58.9561 47.6961 58.9561 48.4314C58.9561 49.1667 59.4556 49.239 59.4556 49.239C59.4556 49.239 60.003 49.884 59.7145 50.3536C59.4259 50.8231 59.3107 51.9919 59.3107 51.9919C59.3107 51.9919 59.4052 54.2224 58.9768 54.5307C58.5485 54.839 58.4527 55.5756 58.4527 55.5756C58.4527 55.5756 57.6672 56.9753 57.6918 57.3081C57.7164 57.6409 56.5958 59.8946 56.5958 59.8946C56.5958 59.8946 57.1444 57.0939 53.9533 55.8839C53.9533 55.8839 53.93 54.9332 54.1681 54.6726C54.4062 54.412 54.7776 54.2933 54.5446 52.9762C54.3117 51.6591 54.4774 50.0852 54.4774 49.7692C54.4774 49.4531 55.1917 47.482 55.1917 47.482L57.8135 46.0616Z" fill="white"/>
<path opacity="0.1" d="M40.4932 92.8729C40.4932 92.8729 41.7432 92.0898 42.5637 92.6587C43.3841 93.2276 40.4932 92.8729 40.4932 92.8729Z" fill="black"/>
<path opacity="0.1" d="M50.2061 90.4514C50.2061 90.4514 51.3125 90.3095 52.2416 91.3067C53.1708 92.3039 50.2061 90.4514 50.2061 90.4514Z" fill="black"/>
<g opacity="0.1">
<path d="M51.8249 28.0645C51.6657 28.2013 51.4613 28.2993 51.3552 28.4812C51.2646 28.6373 51.262 28.8295 51.1895 28.9972C51.117 29.1649 50.9061 29.3017 50.7599 29.1959C50.7262 28.0349 50.1517 26.9448 49.4464 26.016C49.2492 25.7357 49.0095 25.4876 48.736 25.2807C48.459 25.0731 48.1143 24.976 47.7693 25.0085C47.3811 25.0613 47.0394 25.3245 46.6473 25.3568C46.1297 25.4006 45.6651 25.0433 45.1514 25.0252C44.9426 25.0273 44.7367 25.0738 44.5474 25.1617C44.3582 25.2496 44.1899 25.3768 44.054 25.5348C43.7839 25.8524 43.5833 26.2228 43.4652 26.6223C43.2619 27.2284 43.151 27.8616 43.1365 28.5006C43.1287 28.8605 43.0951 29.3094 42.7612 29.4436C42.769 29.5389 42.769 29.6346 42.7612 29.73C43.0977 29.6009 43.1313 29.1469 43.1391 28.7857C43.1535 28.1467 43.2643 27.5135 43.4678 26.9074C43.5859 26.5075 43.7864 26.1367 44.0566 25.8186C44.1928 25.661 44.3611 25.5342 44.5503 25.4466C44.7396 25.3589 44.9453 25.3125 45.154 25.3103C45.6716 25.3284 46.1375 25.6844 46.6499 25.6419C47.0381 25.6096 47.3824 25.3452 47.7719 25.2936C48.1169 25.2611 48.4616 25.3582 48.7385 25.5657C49.0121 25.7727 49.2518 26.0208 49.449 26.3011C50.1543 27.2286 50.7288 28.3161 50.7625 29.4797C50.9087 29.5868 51.1196 29.4474 51.1921 29.2823C51.2646 29.1172 51.2672 28.9237 51.3577 28.7663C51.4639 28.5844 51.6683 28.4877 51.8275 28.3509C52.2312 28.0039 52.3322 27.4195 52.3166 26.8893C52.3166 26.8725 52.3166 26.8558 52.3166 26.8403C52.2921 27.2995 52.1691 27.7678 51.8249 28.0645Z" fill="black"/>
<path d="M42.2719 27.9729C41.9743 27.6465 41.5679 27.4285 41.2949 27.0828C41.065 26.7767 40.9336 26.4083 40.9183 26.0262C40.8776 26.5037 41.0113 26.9797 41.2949 27.3666C41.5679 27.7136 41.9743 27.9316 42.2719 28.258C42.5577 28.5772 42.7292 28.9819 42.7598 29.4087C42.7796 29.149 42.7466 28.8879 42.6627 28.6412C42.5789 28.3945 42.446 28.1672 42.2719 27.9729Z" fill="black"/>
<path d="M52.5682 24.0783C52.4919 24.3944 52.356 24.6949 52.2939 25.0136C52.2571 25.2265 52.2436 25.4428 52.2538 25.6586C52.2581 25.5356 52.2715 25.4132 52.2939 25.2922C52.356 24.9723 52.4919 24.673 52.5682 24.3569C52.6127 24.1826 52.6271 24.002 52.6109 23.8229C52.6029 23.9089 52.5886 23.9943 52.5682 24.0783Z" fill="black"/>
</g>
<path opacity="0.1" d="M17.1763 98.1181C24.1403 98.1181 29.7857 97.2142 29.7857 96.0992C29.7857 94.9842 24.1403 94.0803 17.1763 94.0803C10.2123 94.0803 4.56689 94.9842 4.56689 96.0992C4.56689 97.2142 10.2123 98.1181 17.1763 98.1181Z" fill="#C7C7C7"/>
<path d="M17.5829 57.4242H16.7715V75.6355H17.5829V57.4242Z" fill="#535461"/>
<path d="M22.6813 75.5801L22.6308 76.4005L22.5583 77.5616L22.5286 78.044L22.4574 79.2051L22.4263 79.6875L22.3539 80.8486L21.536 94.0159C21.5005 94.5824 21.2497 95.1141 20.8348 95.5028C20.4198 95.8916 19.8719 96.1081 19.3025 96.1083H15.0501C14.4809 96.1081 13.9331 95.8915 13.5183 95.5028C13.1036 95.114 12.8531 94.5823 12.8179 94.0159L12.0039 80.8395L11.9314 79.6785L11.9017 79.196L11.8292 78.035L11.7994 77.5525L11.727 76.3915L11.6752 75.5711C11.6662 75.4131 11.6897 75.2551 11.7442 75.1065C11.7987 74.958 11.883 74.8221 11.9921 74.7072C12.1011 74.5923 12.2326 74.5009 12.3784 74.4385C12.5242 74.3761 12.6812 74.344 12.8399 74.3442H21.5373C21.6954 74.3456 21.8515 74.3792 21.996 74.4431C22.1405 74.5069 22.2704 74.5996 22.3776 74.7154C22.4848 74.8312 22.567 74.9677 22.6193 75.1164C22.6715 75.2651 22.6926 75.4229 22.6813 75.5801Z" fill="#3F3D56"/>
<path d="M22.6312 76.4005L22.5587 77.5577H11.7946L11.7222 76.4005H22.6312Z" fill="#9D9CB5"/>
<path d="M22.5288 78.04L22.4576 79.1985H11.8967L11.8242 78.04H22.5288Z" fill="#9D9CB5"/>
<path d="M22.4264 79.6824L22.3552 80.8395H11.9987L11.9263 79.6824H22.4264Z" fill="#9D9CB5"/>
<path d="M10.4837 64.2497C15.2083 67.6579 17.1805 72.9883 17.1805 72.9883C17.1805 72.9883 11.4866 72.7935 6.76063 69.3853C2.03469 65.977 0.0664062 60.6479 0.0664062 60.6479C0.0664062 60.6479 5.75773 60.8415 10.4837 64.2497Z" fill="#C7C7C7"/>
<path d="M0.0620117 60.6479C0.0620117 60.6479 5.97333 63.9182 7.86914 66.6259C9.76495 69.3337 17.18 72.9883 17.18 72.9883" stroke="#535461" stroke-width="1.7439" stroke-miterlimit="10"/>
<path d="M13.5334 57.3842C16.1047 59.2379 17.1801 62.1392 17.1801 62.1392C17.1801 62.1392 14.0808 62.0334 11.5082 60.1797C8.93558 58.3259 7.86279 55.4233 7.86279 55.4233C7.86279 55.4233 10.9608 55.5291 13.5334 57.3842Z" fill="#C7C7C7"/>
<path d="M7.86279 55.4233C7.86279 55.4233 11.0799 57.2036 12.1112 58.6768C13.1426 60.15 17.1801 62.1392 17.1801 62.1392" stroke="#535461" stroke-width="1.7439" stroke-miterlimit="10"/>
<path d="M20.9139 61.9922C17.9595 65.2289 17.3345 69.4589 17.3345 69.4589C17.3345 69.4589 21.5001 68.4397 24.4519 65.2018C27.4036 61.9638 28.0313 57.7351 28.0313 57.7351C28.0313 57.7351 23.8682 58.7555 20.9139 61.9922Z" fill="#C7C7C7"/>
<path d="M28.0338 57.7365C28.0338 57.7365 24.1853 61.0544 23.207 63.3403C22.2286 65.6263 17.3345 69.4589 17.3345 69.4589" stroke="#535461" stroke-width="1.7439" stroke-miterlimit="10"/>
<path d="M129.364 60.8531C129.364 60.8531 127.228 50.2568 128.046 48.9384C128.046 48.9384 128.076 47.7129 128.026 46.1507C128.026 46.0913 128.026 46.032 128.026 45.9713C128.17 46.067 128.32 46.1532 128.475 46.2294C129.229 46.6153 130.094 46.7266 130.921 46.5441L130.274 45.8256C130.119 45.654 129.957 45.4682 129.923 45.2412C129.89 45.0141 129.983 44.8116 130.063 44.6091C130.678 43.0611 130.71 41.1144 129.526 39.9327C128.526 38.9394 128.283 37.6571 127.197 36.7502C126.404 36.0859 125.967 35.1119 125.556 34.1702C125.208 33.3742 124.857 32.5718 124.658 31.7282C124.503 31.069 124.441 30.3865 124.227 29.7428C124.013 29.0991 123.614 28.4734 122.989 28.1858C122.766 28.0838 122.519 28.0258 122.316 27.8903C122.049 27.711 121.889 27.4195 121.696 27.1641C120.716 25.874 117.436 26.6339 115.883 27.1576C115.461 27.2895 115.07 27.5054 114.734 27.7923L114.748 27.7691C114.76 27.7497 114.774 27.7304 114.787 27.711C114.617 27.848 114.47 28.0114 114.352 28.1948C114.125 28.5521 114.031 28.9688 113.842 29.3558C113.614 29.8138 112.347 31.0922 112.892 31.6069C112.93 31.6415 112.974 31.6694 113.022 31.6895C113.226 31.7743 113.451 31.7968 113.669 31.754L113.645 31.8094C113.459 32.2636 113.364 32.7495 113.365 33.2401C113.365 35.3596 115.118 37.0779 117.283 37.0779C117.69 37.0783 118.095 37.0161 118.483 36.8934C118.492 36.9425 118.499 36.9915 118.508 37.0405C118.508 37.0599 118.515 37.0792 118.518 37.0986L118.449 37.194C118.446 37.1881 118.442 37.1825 118.437 37.1772L116.406 40.0076C116.095 40.2256 114.307 41.5156 114.206 42.4831C114.1 43.5422 113.993 44.7819 113.993 44.7819L113.979 45.0477C113.89 45.1217 113.787 45.1755 113.675 45.2056C113.563 45.2357 113.446 45.2412 113.332 45.2218C112.698 45.1186 112.698 47.5439 112.698 47.5439C112.698 47.5439 112.276 47.9309 111.986 47.5955C111.696 47.2601 110.93 48.3966 110.93 48.3966L106.129 48.603L106.019 48.6095L105.761 47.8109C105.733 47.7267 105.673 47.6568 105.593 47.6165C105.514 47.5762 105.422 47.5686 105.337 47.5955C105.317 47.6021 105.298 47.6103 105.279 47.62L105.261 47.6303L105.227 47.6535L105.211 47.669C105.201 47.6774 105.193 47.6865 105.185 47.6961L105.169 47.7142L105.161 47.7219C105.132 47.7631 105.112 47.8107 105.104 47.8609C105.096 47.9111 105.099 47.9624 105.115 48.0109L105.337 48.6959C104.411 48.8816 103.464 49.4054 104.236 50.8477L100.32 50.1265L101.587 51.1869L108.127 52.5324C108.041 52.6872 108.098 52.9117 108.368 53.2277C109.533 54.5913 111.655 54.9615 112.509 55.057C112.735 55.56 113.016 56.036 113.349 56.476L113.275 57.8344C113.275 57.8344 111.113 68.1882 110.717 68.7132C110.917 68.4874 111.1 68.2473 111.264 67.9947C110.637 70.1219 109.759 73.0335 109.529 73.4696C109.159 74.1662 108.816 76.9849 109.238 77.1655C109.367 77.2209 109.737 77.1939 110.265 77.1539V77.3874L110.242 86.2356C110.242 86.2356 110.348 91.6628 110.057 92.1801C109.766 92.6974 109.688 93.7823 109.688 93.7823C109.688 93.7823 108.523 95.9225 107.601 96.7829C107.594 96.7896 107.588 96.7956 107.58 96.801L107.552 96.5997C107.552 96.5997 106.443 97.9955 103.989 97.9168C103.989 97.9168 102.512 98.874 104.702 98.9256C106.892 98.9772 109.688 98.8482 109.688 98.8482C109.688 98.8482 111.641 95.8812 113.277 96.2682V98.5167H113.777V96.2321C114.01 96.0796 114.208 95.8818 114.362 95.6505C114.515 95.4192 114.619 95.1593 114.669 94.8866C114.712 94.6054 114.68 94.318 114.578 94.0526C114.475 93.7873 114.305 93.5531 114.084 93.3734C113.985 93.2839 113.905 93.1749 113.85 93.0532C113.795 92.9315 113.766 92.7999 113.764 92.6664L113.746 92.6819C113.746 92.6368 113.735 92.5903 113.729 92.5426C113.586 91.3816 113.406 88.986 114.041 87.2135C114.912 84.7831 115.176 81.398 114.542 79.383C114.338 78.7389 114.169 78.0838 114.039 77.4209C114.023 77.3371 114.009 77.2571 113.996 77.1822C114.429 77.2407 114.859 77.3269 115.281 77.4402C116.75 77.844 119.963 77.9188 122.706 77.8969C122.713 77.9717 122.721 78.0504 122.73 78.1291C122.779 78.6761 122.881 79.217 123.035 79.7442C123.379 80.7763 123.537 85.3262 123.537 85.3262C123.537 85.3262 123.981 89.0673 123.739 90.5895C123.61 91.4357 123.48 92.2859 123.407 93.1399V93.1566C123.407 93.1566 122.679 95.2207 122.147 96.3417C122.134 96.3701 122.12 96.3985 122.107 96.4256C121.965 96.4384 121.826 96.4692 121.692 96.5172C121.692 96.5172 120.979 97.9362 120.268 98.171C119.558 98.4058 119.793 99.1785 121.402 98.8947C123.011 98.6109 125.44 98.3787 125.44 98.3787L125.544 96.9313L126.039 96.3146L125.909 97.7582L126.436 97.655L126.366 95.8992L127.175 94.8904C127.175 94.8904 128.152 94.0235 126.7 92.3181V92.3555C126.684 92.331 126.67 92.3052 126.653 92.2807V92.273C126.413 91.9014 126.221 91.2087 126.572 89.9793C127.206 87.7579 127.575 85.7416 127.575 85.7416C127.575 85.7416 128.99 80.3402 127.289 77.7847H127.364C127.189 77.4251 127.066 77.043 126.998 76.6495C126.989 76.603 126.981 76.5553 126.974 76.5063C128.233 76.434 129.469 76.207 130.477 75.7168C130.473 75.7116 129.867 62.8939 129.364 60.8531ZM113.379 51.9132V51.939L113.12 51.9519L113.379 51.9132ZM112.491 52.0358C112.448 52.0452 112.409 52.0641 112.375 52.0912C112.263 52.2482 112.193 52.4305 112.171 52.6214L111.768 52.5311C111.768 52.5311 111.484 52.4705 111.077 52.4021L110.884 52.2086C111.414 52.1648 111.966 52.1003 112.491 52.0358Z" fill="url(#paint1_linear_1304_24551)"/>
<path d="M125.849 95.9173L125.695 97.7453L126.212 97.6421L126.134 95.6593L125.849 95.9173Z" fill="#1D2366"/>
<path d="M114.07 87.238C113.447 89.0053 113.623 91.3906 113.763 92.549C113.815 92.9773 113.863 93.2379 113.863 93.2379C113.863 93.2379 112.932 95.351 112.855 95.4309C112.777 95.5109 110.117 97.1299 110.117 97.1299L108.257 98.2122C108.257 98.2122 106.37 97.3879 107.275 97.1041C107.46 97.0302 107.626 96.917 107.763 96.7726C108.668 95.9147 109.806 93.7823 109.806 93.7823C109.806 93.7823 109.884 92.6999 110.168 92.1852C110.453 91.6705 110.349 86.2614 110.349 86.2614L110.371 77.4441V76.2947L113.911 76.3205C113.933 76.7107 113.984 77.0987 114.063 77.4815C114.19 78.1422 114.355 78.7951 114.556 79.4372C115.18 81.4483 114.921 84.8166 114.07 87.238Z" fill="#FFB0B1"/>
<path opacity="0.1" d="M113.863 93.2379C113.863 93.2379 112.932 95.351 112.855 95.431C112.777 95.511 110.117 97.1299 110.117 97.1299L108.257 98.2123C108.257 98.2123 106.37 97.3879 107.275 97.1041C107.46 97.0302 107.626 96.9171 107.763 96.7726L107.843 97.3363L108.463 97.3105L113.768 92.5516C113.815 92.9773 113.863 93.2379 113.863 93.2379Z" fill="black"/>
<path d="M113.798 92.6716L108.462 97.4628L107.842 97.4886L107.713 96.5856C107.713 96.5856 106.629 97.9762 104.219 97.8988C104.219 97.8988 102.772 98.8521 104.916 98.9037C107.061 98.9553 109.799 98.8263 109.799 98.8263C109.799 98.8263 111.712 95.8593 113.312 96.2463V98.4871H113.804V96.2257C114.033 96.0722 114.228 95.8743 114.378 95.6437C114.528 95.4131 114.629 95.1547 114.676 94.884C114.719 94.6052 114.689 94.3201 114.589 94.0562C114.489 93.7923 114.323 93.5585 114.106 93.3773C114.009 93.2868 113.932 93.1775 113.879 93.0562C113.826 92.9348 113.798 92.804 113.798 92.6716Z" fill="#1D2366"/>
<path d="M126.341 89.9935C125.997 91.219 126.185 91.9092 126.42 92.2794V92.2872C126.722 92.7443 126.932 93.2556 127.039 93.7926L127.059 93.9087L124.632 97.4369L123.314 97.9529C123.314 97.9529 121.196 97.2318 121.583 97.0254C121.68 96.9751 121.831 96.7068 122.005 96.3365C122.522 95.2207 123.237 93.1618 123.237 93.1618V93.145C123.312 92.2949 123.431 91.4473 123.563 90.6037C123.8 89.0853 123.365 85.3584 123.365 85.3584C123.365 85.3584 123.21 80.8266 122.873 79.7958C122.721 79.2718 122.62 78.7344 122.572 78.191C122.502 77.546 122.486 77.0145 122.486 77.0145C122.486 77.0145 123.881 75.0795 126.438 77.1693C126.643 77.336 126.823 77.5306 126.973 77.7473C128.739 80.2525 127.317 85.7712 127.317 85.7712C127.317 85.7712 126.961 87.7785 126.341 89.9935Z" fill="#FFB0B1"/>
<path opacity="0.1" d="M127.064 93.9087L124.636 97.4369L123.319 97.9529C123.319 97.9529 121.2 97.2318 121.587 97.0254C121.684 96.9751 121.836 96.7067 122.009 96.3365C122.906 96.3288 123.37 97.1802 123.37 97.1802L124.507 96.9996C124.507 96.9996 126.005 94.0635 126.342 93.8842C126.678 93.7049 126.393 92.5438 126.393 92.5438V92.2484C126.402 92.2587 126.41 92.2703 126.421 92.2807V92.2884C126.723 92.7455 126.933 93.2568 127.039 93.7939L127.064 93.9087Z" fill="black"/>
<path d="M123.448 97.2563C123.448 97.2563 122.801 96.0721 121.561 96.5094C121.561 96.5094 120.864 97.9284 120.166 98.158C119.469 98.3877 119.702 99.1617 121.278 98.8792C122.854 98.5966 125.23 98.3631 125.23 98.3631L125.333 96.9196L126.936 94.8852C126.936 94.8852 127.891 94.0222 126.47 92.3232V92.6187C126.47 92.6187 126.754 93.7797 126.418 93.959C126.081 94.1383 124.588 97.0757 124.588 97.0757L123.448 97.2563Z" fill="#1D2366"/>
<path opacity="0.1" d="M113.915 76.3179C113.937 76.7081 113.988 77.0962 114.067 77.4789C112.61 77.2661 111.258 77.3719 110.372 77.4415V76.2921L113.915 76.3179Z" fill="black"/>
<path opacity="0.1" d="M127.116 78.0685C127.116 78.0685 125.046 78.1692 122.577 78.1898C122.507 77.5448 122.491 77.0133 122.491 77.0133C122.491 77.0133 123.886 75.0783 126.443 77.1681C126.648 77.3348 126.828 77.5293 126.978 77.746C127.018 77.856 127.064 77.9637 127.116 78.0685Z" fill="black"/>
<path d="M127.116 77.8363C127.116 77.8363 118.048 78.2736 115.283 77.5009C112.519 76.7282 109.78 77.3977 109.367 77.2184C108.954 77.0391 109.289 74.2307 109.652 73.5354C110.014 72.84 112.002 65.8081 112.002 65.8081L113.914 55.8672L115.929 55.3137L116.072 55.2738L119.582 54.3088L122.155 53.6006C122.155 53.6006 127.27 73.5096 126.832 74.9776C126.672 75.5398 126.647 76.1312 126.757 76.705C126.824 77.0968 126.945 77.4775 127.116 77.8363Z" fill="#1D2366"/>
<path d="M107.247 49.0686C107.247 49.0686 105.436 51.0036 106.807 52.0821C108.179 53.1606 109.081 52.1853 109.081 52.1853L107.247 49.0686Z" fill="#C7DAF5"/>
<path opacity="0.1" d="M107.247 49.0686C107.247 49.0686 105.436 51.0036 106.807 52.0821C108.179 53.1606 109.081 52.1853 109.081 52.1853L107.247 49.0686Z" fill="black"/>
<path d="M121.885 36.3464C121.885 36.3464 121.672 36.5476 121.353 36.8443C120.897 37.2688 120.223 37.8893 119.625 38.4091C118.797 39.1277 118.114 39.6553 118.358 39.2051C118.603 38.7549 118.556 37.9705 118.435 37.2365C118.425 37.1875 118.418 37.1385 118.409 37.0907C118.308 36.5516 118.174 36.0192 118.009 35.4963C118.009 35.4963 119.347 33.7728 120.087 33.0929C120.363 32.8349 120.556 32.7292 120.567 32.9085C120.58 33.1497 120.761 33.6825 120.986 34.2475C120.993 34.2656 120.999 34.2823 121.007 34.3004C121.157 34.6874 121.327 35.0847 121.476 35.4279C121.703 35.9542 121.885 36.3464 121.885 36.3464Z" fill="#FFB0B1"/>
<path opacity="0.1" d="M121.007 34.3005C120.881 34.9747 120.576 35.6029 120.124 36.1194C119.671 36.6358 119.088 37.0217 118.435 37.2366C118.332 36.6477 118.189 36.0663 118.009 35.4963C118.009 35.4963 120.528 32.2519 120.567 32.9085C120.576 33.1575 120.773 33.7096 121.007 34.3005Z" fill="black"/>
<path opacity="0.1" d="M118.183 38.1035L118.509 37.6455C118.509 37.6455 118.726 38.9588 119.52 38.3795C120.315 37.8003 120.354 42.7385 120.354 42.7385L119.501 55.4492L113.338 55.0815L113.513 48.9397L114.211 45.8436L115.936 41.3427L116.962 39.8553L118.183 38.1035Z" fill="black"/>
<path d="M120.354 42.8172L119.578 54.3101L119.496 55.5279L116.06 55.3228L115.931 55.315L113.343 55.1602L113.517 49.0171L114.215 45.9211L115.94 41.4201L116.966 39.9327L118.188 38.1744L118.514 37.7178C118.514 37.7178 118.73 39.031 119.525 38.4518L119.541 38.4402C120.318 37.95 120.354 42.8172 120.354 42.8172Z" fill="#1D2366"/>
<path d="M114.302 44.8451C114.302 44.8451 113.992 45.4901 113.371 45.3856C112.75 45.2811 112.751 47.7077 112.751 47.7077C112.751 47.7077 112.339 48.0947 112.054 47.7593C111.769 47.4239 111.019 48.5578 111.019 48.5578L106.316 48.7642C106.316 48.7642 108.408 49.7175 107.998 52.602C107.998 52.602 115.103 52.1634 115.336 51.4939C115.569 50.8244 114.302 44.8451 114.302 44.8451Z" fill="white"/>
<path opacity="0.03" d="M114.302 44.8451C114.302 44.8451 113.992 45.4901 113.371 45.3856C112.75 45.2811 112.751 47.7077 112.751 47.7077C112.751 47.7077 112.339 48.0947 112.054 47.7593C111.769 47.4239 111.019 48.5578 111.019 48.5578L106.316 48.7642C106.316 48.7642 108.408 49.7175 107.998 52.602C107.998 52.602 115.103 52.1634 115.336 51.4939C115.569 50.8244 114.302 44.8451 114.302 44.8451Z" fill="black"/>
<path d="M100.635 50.28L101.874 51.3353L112.08 53.4728L110.814 52.1854L100.635 50.28Z" fill="white"/>
<path d="M118.203 38.5099C118.034 38.7679 117.548 40.0889 117.143 41.2422C116.806 42.2032 116.524 43.0482 116.524 43.0482C116.524 43.0482 115.865 47.3233 115.528 48.0961C115.192 48.8688 115.374 51.8823 115.374 51.8823L114.12 59.3245C114.12 59.3245 113.552 63.1623 112.675 65.4547C111.809 67.7109 110.845 68.7687 110.815 68.8023C111.204 68.2785 113.319 57.9661 113.319 57.9661L114.018 44.96C114.018 44.96 114.12 43.7242 114.224 42.6676C114.328 41.6111 116.424 40.1689 116.424 40.1689L118.445 37.3037C118.648 37.5746 118.513 38.0468 118.203 38.5099Z" fill="white"/>
<path d="M112.932 55.2246C112.932 55.2246 109.956 55.0956 108.514 53.3696C107.072 51.6435 111.846 52.6807 111.846 52.6807L113.087 52.9645L112.932 55.2246Z" fill="#FFB0B1"/>
<path opacity="0.1" d="M126.832 74.9789C126.673 75.541 126.647 76.1324 126.757 76.7062C123.51 76.9358 120.037 76.0612 120.037 76.0612C119.39 76.6546 117.686 77.5292 117.686 77.5292L116.757 66.048C116.163 64.5 115.93 56.3896 115.93 56.3896C115.93 56.3896 115.983 55.9652 116.059 55.3292C116.059 55.3137 116.059 55.2969 116.066 55.2815C116.297 53.5051 116.757 50.1704 116.982 49.7201C117.292 49.1009 116.027 47.4536 116.027 47.4536L116.603 42.5579L116.672 41.9671C117.886 41.4266 118.817 39.7005 118.817 39.7005L119.531 38.4531C120.308 37.9564 120.348 42.8237 120.348 42.8237L119.571 54.3165L122.144 53.6083C122.144 53.6083 127.271 73.5108 126.832 74.9789Z" fill="black"/>
<path d="M130.164 75.7722C126.625 77.5241 120.192 75.9012 120.192 75.9012C119.545 76.4946 117.841 77.3693 117.841 77.3693L116.91 65.888C116.317 64.34 116.084 56.2296 116.084 56.2296C116.084 56.2296 116.832 50.1781 117.143 49.5602C117.234 49.3795 117.19 49.1112 117.082 48.8223C116.554 47.4469 116.36 45.9665 116.515 44.502L116.764 42.3979L116.832 41.8084C118.048 41.2666 118.978 39.5405 118.978 39.5405L119.625 38.4105L120.816 36.3284L121.38 35.3428L121.476 35.4292L122.207 36.0897C122.207 36.0897 122.517 36.3477 122.983 36.7347C123.996 37.5861 125.747 39.0851 126.651 40.0023C127.445 40.8099 127.696 43.9511 127.769 46.3157C127.817 47.8728 127.788 49.0932 127.788 49.0932C126.987 50.4077 129.082 60.9614 129.082 60.9614C129.57 63.0009 130.164 75.7722 130.164 75.7722Z" fill="white"/>
<path opacity="0.03" d="M123.371 39.5147C123.371 39.5147 120.942 44.124 121.224 45.8758C121.506 47.6277 122.308 49.6105 121.921 50.0736C121.788 50.249 121.616 50.3915 121.419 50.4897C121.222 50.588 121.004 50.6394 120.784 50.6399C120.395 50.6657 119.36 51.3868 119.36 51.4642C119.36 51.5416 118.404 51.5416 117.549 51.9028C116.693 52.264 115.43 52.4692 115.43 52.4692C115.43 52.4692 112.971 52.3918 112.742 52.624C112.513 52.8562 112.278 54.2455 112.768 55.3537C113.259 56.4618 113.803 57.2887 114.215 57.4396C114.626 57.5906 117.238 56.7185 119.356 56.5121C121.475 56.3057 123.774 54.6325 123.774 54.6325C123.774 54.6325 126.307 53.7295 126.751 52.2112C127.195 50.6928 126.208 42.3476 126.208 42.3476C126.208 42.3476 125.463 38.4582 123.371 39.5147Z" fill="black"/>
<path opacity="0.03" d="M123.06 39.1278C123.06 39.1278 120.631 43.7383 120.915 45.4889C121.2 47.2394 122 49.2235 121.612 49.6879C121.479 49.8636 121.308 50.0062 121.11 50.1044C120.913 50.2027 120.696 50.254 120.475 50.2542C120.087 50.28 119.052 51.0012 119.052 51.0786C119.052 51.156 118.096 51.156 117.24 51.5159C116.385 51.8758 115.122 52.0822 115.122 52.0822C115.122 52.0822 112.663 52.0048 112.435 52.237C112.208 52.4692 111.969 53.8599 112.461 54.9667C112.953 56.0735 113.496 56.9017 113.908 57.0527C114.319 57.2036 116.931 56.3316 119.049 56.1264C121.168 55.9213 123.467 54.2456 123.467 54.2456C123.467 54.2456 125.998 53.3426 126.437 51.8255C126.876 50.3084 125.895 41.9607 125.895 41.9607C125.895 41.9607 125.152 38.0725 123.06 39.1278Z" fill="black"/>
<path d="M123.294 39.2826C123.294 39.2826 120.865 43.8931 121.149 45.6437C121.434 47.3943 122.234 49.3783 121.847 49.8414C121.714 50.0175 121.543 50.1604 121.345 50.259C121.148 50.3575 120.93 50.4089 120.709 50.4091C120.321 50.4349 119.286 51.156 119.286 51.2321C119.286 51.3082 118.331 51.3095 117.474 51.6707C116.618 52.0319 115.356 52.237 115.356 52.237C115.356 52.237 112.897 52.1596 112.668 52.3918C112.439 52.624 112.204 54.0147 112.694 55.1215C113.184 56.2284 113.729 57.0566 114.141 57.2075C114.552 57.3584 117.164 56.4864 119.282 56.28C121.4 56.0736 123.7 54.4004 123.7 54.4004C123.7 54.4004 126.233 53.4974 126.676 51.979C127.12 50.4607 126.141 42.1155 126.141 42.1155C126.141 42.1155 125.385 38.2325 123.294 39.2826Z" fill="white"/>
<path opacity="0.1" d="M123.24 51.6487C123.24 51.6487 121.299 51.2617 121.975 51.9067C122.65 52.5517 122.646 53.1168 123.473 53.091C124.3 53.0652 123.24 51.6487 123.24 51.6487Z" fill="black"/>
<path opacity="0.1" d="M126.522 65.5269C126.522 65.5269 125.644 66.119 127.323 67.4838C129.001 68.8487 126.522 65.5269 126.522 65.5269Z" fill="black"/>
<path opacity="0.1" d="M124.847 70.394C124.847 70.4714 124.536 73.2321 125.698 73.9223C126.86 74.6124 124.847 70.394 124.847 70.394Z" fill="black"/>
<path d="M106.396 48.7578C105.459 48.7901 103.435 49.0752 104.485 51.027C105.413 52.7543 106.972 51.5997 107.849 50.7238C107.635 49.9072 107.115 49.2035 106.396 48.7578Z" fill="#FFB0B1"/>
<path opacity="0.1" d="M122.983 36.8135C121.99 37.4907 121.156 38.0622 120.993 38.1809C120.548 38.5098 119.699 40.441 119.152 41.4266C118.716 42.22 117.299 42.4238 116.764 42.4741L116.833 41.8846C118.048 41.3427 118.978 39.6167 118.978 39.6167L121.38 35.4189L122.207 36.1685C122.207 36.1685 122.518 36.4265 122.983 36.8135Z" fill="black"/>
<path d="M122.983 36.7361C121.99 37.4133 121.156 37.9848 120.993 38.1048C120.548 38.4325 119.699 40.3636 119.152 41.3492C118.716 42.1426 117.299 42.3464 116.764 42.3967L116.833 41.8072C118.048 41.2654 118.978 39.5393 118.978 39.5393L121.38 35.3416L122.207 36.0885C122.207 36.0885 122.518 36.3439 122.983 36.7361Z" fill="#DCE7FF"/>
<path d="M121.071 33.449C121.072 34.2234 120.836 34.9796 120.395 35.6175C119.875 36.3717 119.101 36.915 118.213 37.1489C117.326 37.3827 116.383 37.2916 115.557 36.8921C114.731 36.4925 114.076 35.8111 113.711 34.9713C113.346 34.1315 113.295 33.189 113.567 32.3149C113.839 31.4408 114.417 30.693 115.195 30.2071C115.973 29.7212 116.9 29.5295 117.808 29.6666C118.716 29.8038 119.544 30.2609 120.143 30.9548C120.742 31.6488 121.071 32.5337 121.071 33.449Z" fill="#FFB0B1"/>
<path opacity="0.1" d="M127.769 46.317C127.243 45.9947 126.815 45.5364 126.53 44.9909C126.314 44.5651 126.17 44.0736 125.802 43.7718C125.469 43.5009 125.025 43.4351 124.611 43.3138C123.25 42.9126 122.108 41.6742 122.066 40.2603C122.045 39.5947 122.253 38.9303 122.159 38.2711C122.105 37.898 121.956 37.5449 121.727 37.2455C121.613 37.1024 121.488 36.9682 121.353 36.8443C121.172 36.6741 120.981 36.5089 120.816 36.3283C120.711 36.2165 120.62 36.0931 120.544 35.9607C120.482 35.8523 120.432 35.7377 120.395 35.6188C120.136 34.8293 120.372 33.8928 120.087 33.0942L120.072 33.0504C119.964 32.7666 119.745 32.4828 119.441 32.4608C119.137 32.4389 118.877 32.6905 118.587 32.8027C117.98 33.0375 117.326 32.6376 116.82 32.2299C116.314 31.8223 115.743 31.3566 115.1 31.4469C114.674 31.5075 114.338 31.7965 113.945 31.9461C113.857 31.9803 113.766 32.0066 113.672 32.0248C114.004 31.1998 114.614 30.5158 115.397 30.0903C116.179 29.6648 117.086 29.5243 117.962 29.6929C118.837 29.8616 119.626 30.3289 120.194 31.0146C120.761 31.7002 121.071 32.5615 121.071 33.4503C121.071 33.7187 121.043 33.9864 120.986 34.2488C120.993 34.2669 120.999 34.2836 121.007 34.3017C121.157 34.6887 121.327 35.086 121.476 35.4292L122.207 36.0897C122.207 36.0897 122.517 36.3477 122.983 36.7347C123.996 37.5861 125.747 39.0851 126.651 40.0023C127.445 40.8125 127.694 43.9524 127.769 46.317Z" fill="black"/>
<path d="M113.901 29.5893C114.086 29.2139 114.177 28.7934 114.399 28.4373C114.724 27.9213 115.29 27.5911 115.873 27.3911C117.393 26.8687 120.606 26.1101 121.567 27.3911C121.756 27.6491 121.912 27.9355 122.174 28.1135C122.373 28.249 122.614 28.307 122.832 28.4089C123.444 28.6953 123.835 29.3197 124.043 29.957C124.252 30.5943 124.314 31.278 124.467 31.9346C124.662 32.777 125.005 33.5755 125.347 34.3689C125.749 35.3054 126.176 36.2768 126.953 36.9386C128.012 37.8416 128.247 39.12 129.23 40.1108C130.395 41.2873 130.357 43.2288 129.757 44.7703C129.678 44.9729 129.589 45.1844 129.62 45.3999C129.651 45.6153 129.811 45.8114 129.963 45.983L130.599 46.6989C129.093 47.0614 127.389 46.2771 126.687 44.9006C126.471 44.4749 126.327 43.9847 125.957 43.6816C125.626 43.4107 125.181 43.3462 124.768 43.2249C123.407 42.8224 122.265 41.5827 122.223 40.1688C122.202 39.5045 122.41 38.8401 122.316 38.1822C122.263 37.8066 122.114 37.451 121.882 37.1502C121.526 36.687 120.989 36.3761 120.7 35.8601C120.209 34.9971 120.582 33.8761 120.229 32.9498C120.12 32.666 119.902 32.3822 119.598 32.3603C119.294 32.3384 119.034 32.5899 118.743 32.7022C118.137 32.9369 117.483 32.5383 116.977 32.1294C116.471 31.7204 115.9 31.256 115.255 31.3476C114.83 31.407 114.494 31.6959 114.102 31.8469C113.813 31.9578 113.225 32.0571 112.971 31.8133C112.436 31.3218 113.677 30.0486 113.901 29.5893Z" fill="#591D4B"/>
<path opacity="0.1" d="M127.047 44.4749C126.83 44.0492 126.687 43.559 126.317 43.2571C125.986 42.9862 125.541 42.9204 125.127 42.7991C123.767 42.3979 122.625 41.1582 122.581 39.7443C122.561 39.08 122.769 38.4143 122.676 37.7564C122.621 37.3832 122.472 37.0301 122.242 36.7308C121.885 36.2677 121.348 35.9568 121.059 35.4408C120.569 34.5791 120.942 33.458 120.587 32.5305C120.48 32.248 120.261 31.9642 119.958 31.941C119.655 31.9178 119.393 32.1719 119.103 32.2841C118.497 32.5189 117.841 32.119 117.336 31.7114C116.832 31.3037 116.258 30.838 115.615 30.9283C115.189 30.9889 114.853 31.2779 114.462 31.4275C114.172 31.5385 113.584 31.6391 113.33 31.3953C112.797 30.8793 114.038 29.6086 114.26 29.1519C114.445 28.7752 114.537 28.356 114.76 27.9999C114.771 27.9806 114.784 27.9612 114.797 27.9419C114.631 28.0794 114.487 28.2422 114.372 28.4244C114.15 28.7804 114.058 29.1984 113.873 29.5764C113.65 30.033 112.409 31.3076 112.943 31.8197C113.202 32.0648 113.784 31.9642 114.074 31.8533C114.462 31.7023 114.801 31.4134 115.227 31.354C115.874 31.2624 116.443 31.7281 116.948 32.1358C117.453 32.5434 118.113 32.9433 118.716 32.7085C119.006 32.5963 119.259 32.3435 119.57 32.3667C119.88 32.3899 120.088 32.6724 120.2 32.9562C120.553 33.8825 120.181 35.0035 120.671 35.8665C120.961 36.3735 121.498 36.6909 121.854 37.1566C122.086 37.4574 122.235 37.813 122.287 38.1886C122.382 38.8465 122.174 39.5108 122.194 40.1752C122.237 41.5942 123.378 42.8288 124.74 43.2313C125.15 43.3525 125.598 43.417 125.929 43.688C126.3 43.9911 126.447 44.4813 126.659 44.907C127.36 46.2835 129.065 47.0678 130.571 46.7053L130.271 46.3673C128.965 46.3867 127.644 45.6462 127.047 44.4749Z" fill="black"/>
<path opacity="0.1" d="M118.126 38.5872C117.956 38.8452 117.471 40.1662 117.066 41.3195C116.687 41.1725 116.342 40.2346 116.342 40.2346L118.364 37.3682C118.571 37.652 118.435 38.1228 118.126 38.5872Z" fill="black"/>
<path d="M118.203 38.5098C118.034 38.7678 117.548 40.0888 117.143 41.2421C116.764 41.0963 116.42 40.1571 116.42 40.1571L118.441 37.292C118.648 37.5745 118.512 38.0467 118.203 38.5098Z" fill="#DCE7FF"/>
<path d="M106.45 51.6887L105.329 48.1657C105.316 48.1244 105.311 48.081 105.315 48.0378C105.318 47.9946 105.33 47.9526 105.35 47.9141C105.37 47.8757 105.398 47.8415 105.431 47.8136C105.464 47.7857 105.503 47.7646 105.544 47.7516C105.627 47.7256 105.718 47.7336 105.795 47.7737C105.873 47.8138 105.931 47.8828 105.958 47.9657L107.079 51.4849L106.968 52.2215L106.45 51.6887Z" fill="#BE8B87"/>
<path opacity="0.1" d="M105.436 47.856C105.519 47.8297 105.61 47.8374 105.688 47.8776C105.766 47.9177 105.824 47.987 105.851 48.0702L106.972 51.5894L106.888 52.1415L106.969 52.2266L107.081 51.49L105.953 47.9708C105.927 47.8879 105.868 47.8189 105.791 47.7788C105.713 47.7387 105.623 47.7307 105.539 47.7567C105.469 47.7794 105.409 47.8248 105.367 47.8857C105.389 47.8739 105.412 47.864 105.436 47.856Z" fill="white"/>
<path d="M106.45 51.6887L107.079 51.49L106.987 52.0937L106.968 52.2266L106.784 52.0357L106.45 51.6887Z" fill="#EFC8C4"/>
<path d="M106.784 52.0357C106.795 52.0219 106.809 52.0105 106.824 52.0022C106.833 51.9964 106.844 51.9934 106.855 51.9934C106.865 51.9934 106.876 51.9964 106.885 52.0022C106.894 52.0128 106.901 52.0245 106.907 52.037C106.916 52.0512 106.927 52.0634 106.941 52.0725C106.955 52.0817 106.971 52.0876 106.987 52.0899L106.968 52.2189L106.784 52.0357Z" fill="#727A9C"/>
<path d="M105.323 49.417C105.323 49.417 107.571 49.4041 107.042 50.3574C106.512 51.3108 105.686 51.4256 105.686 51.4256L105.323 49.417Z" fill="#FFB0B1"/>
<path d="M91.3433 6.6333H91.2462C87.3847 6.6333 83.9697 8.67025 82.0053 11.676C80.0409 8.67025 76.6258 6.6333 72.7643 6.6333H72.6672C69.7693 6.66083 66.9993 7.82735 64.9593 9.87936C62.9193 11.9314 61.774 14.703 61.7725 17.5921C61.7725 21.1796 63.3486 26.2701 66.4221 30.4588C72.2777 38.4402 82.0053 45.4231 82.0053 45.4231C82.0053 45.4231 91.7328 38.4415 97.5872 30.4588C100.662 26.2701 102.237 21.1796 102.237 17.5921C102.235 14.7033 101.09 11.9318 99.0504 9.87981C97.0106 7.82784 94.241 6.66117 91.3433 6.6333ZM89.9547 31.0728C89.5149 31.0712 89.086 30.937 88.7241 30.6879C88.3622 30.4388 88.0843 30.0864 87.9269 29.677H85.6183C85.4663 29.6761 85.3183 29.6279 85.1951 29.539C85.072 29.4502 84.9797 29.3253 84.9311 29.1817L84.222 27.0518L81.9781 34.8681C81.9344 35.0186 81.8429 35.1508 81.7174 35.2451C81.5918 35.3393 81.439 35.3903 81.2819 35.3906H81.2366C81.0726 35.3827 80.9163 35.3189 80.7939 35.21C80.6714 35.101 80.5901 34.9535 80.5637 34.792L78.2512 20.9268L76.5611 29.1314C76.5223 29.2872 76.4323 29.4256 76.3054 29.5246C76.1786 29.6235 76.0221 29.6771 75.861 29.677H72.609C72.5115 29.6812 72.4142 29.6656 72.3229 29.6312C72.2316 29.5969 72.1483 29.5444 72.0778 29.4771C72.0074 29.4098 71.9513 29.329 71.9131 29.2396C71.8748 29.1501 71.855 29.0538 71.855 28.9566C71.855 28.8593 71.8748 28.763 71.9131 28.6736C71.9513 28.5841 72.0074 28.5033 72.0778 28.436C72.1483 28.3687 72.2316 28.3163 72.3229 28.2819C72.4142 28.2476 72.5115 28.232 72.609 28.2361H75.2916L77.6856 17.2051C77.7249 17.042 77.8199 16.8976 77.9541 16.7965C78.0884 16.6954 78.2538 16.644 78.4219 16.651C78.59 16.658 78.7504 16.723 78.8758 16.8349C79.0011 16.9468 79.0836 17.0986 79.1091 17.2644L81.4708 31.4083L83.4818 24.415C83.5237 24.2677 83.6122 24.1379 83.7342 24.0449C83.8561 23.9519 84.005 23.9007 84.1586 23.899H84.1728C84.3249 23.8991 84.4731 23.947 84.5963 24.0359C84.7194 24.1249 84.8113 24.2503 84.8587 24.3944L86.1411 28.24H87.8984C88.0234 27.8615 88.2508 27.5249 88.5555 27.2672C88.8603 27.0095 89.2305 26.8407 89.6254 26.7795C90.0203 26.7183 90.4245 26.7671 90.7933 26.9204C91.1622 27.0737 91.4814 27.3257 91.7157 27.6484C91.9499 27.9712 92.0902 28.3522 92.121 28.7494C92.1518 29.1466 92.0719 29.5445 91.8901 29.8993C91.7084 30.2541 91.4318 30.5519 91.0909 30.7599C90.7501 30.9679 90.3582 31.078 89.9586 31.078L89.9547 31.0728Z" fill="#C7C7C7"/>
</g>
<defs>
<linearGradient id="paint0_linear_1304_24551" x1="46.1116" y1="99.9602" x2="46.1116" y2="20.5797" gradientUnits="userSpaceOnUse">
<stop stop-color="#808080" stop-opacity="0.25"/>
<stop offset="0.54" stop-color="#808080" stop-opacity="0.12"/>
<stop offset="1" stop-color="#808080" stop-opacity="0.1"/>
</linearGradient>
<linearGradient id="paint1_linear_1304_24551" x1="115.616" y1="98.9566" x2="115.616" y2="26.4571" gradientUnits="userSpaceOnUse">
<stop stop-color="#808080" stop-opacity="0.25"/>
<stop offset="0.54" stop-color="#808080" stop-opacity="0.12"/>
<stop offset="1" stop-color="#808080" stop-opacity="0.1"/>
</linearGradient>
<clipPath id="clip0_1304_24551">
<rect width="143" height="100.976" fill="white"/>
</clipPath>
</defs>
</svg>
