<svg width="137" height="105" viewBox="0 0 137 105" fill="none" xmlns="http://www.w3.org/2000/svg">
<g clip-path="url(#clip0_1304_23619)">
<path opacity="0.1" d="M45.7679 104.56C52.3914 104.56 57.7608 103.624 57.7608 102.469C57.7608 101.313 52.3914 100.377 45.7679 100.377C39.1443 100.377 33.7749 101.313 33.7749 102.469C33.7749 103.624 39.1443 104.56 45.7679 104.56Z" fill="#F9A826"/>
<path opacity="0.1" d="M110.96 104.619C119.225 104.619 125.925 103.683 125.925 102.527C125.925 101.372 119.225 100.436 110.96 100.436C102.694 100.436 95.9941 101.372 95.9941 102.527C95.9941 103.683 102.694 104.619 110.96 104.619Z" fill="#F9A826"/>
<path opacity="0.1" d="M2.25357 45.203H14.745V63.6919H3.16806C3.13729 63.8817 3.10775 64.0728 3.07574 64.2639H14.745V79.1748C14.7241 79.1681 14.7056 79.1601 14.6859 79.152C14.3561 79.0104 14.0287 78.8607 13.7013 78.7003L13.4921 78.5974C13.1638 78.4289 12.8356 78.2507 12.5074 78.0627C12.3929 77.9972 12.2785 77.9291 12.1652 77.8596C10.3431 76.7512 8.68785 75.3467 7.25679 73.6948C7.21495 73.6507 7.17556 73.6039 7.13371 73.5611C6.93432 73.3259 6.73862 73.088 6.54908 72.8447L6.33984 72.5774C6.11584 72.2794 5.89921 71.9733 5.68875 71.6632C5.65798 71.6178 5.62844 71.5723 5.59644 71.5295C4.74047 70.2407 4.02974 68.8452 3.47945 67.3728C3.46222 67.3287 3.44745 67.2806 3.43145 67.2391C3.26242 66.7669 3.11267 66.2902 2.9822 65.809C2.92559 65.6072 2.87143 65.408 2.82466 65.1982C2.80743 65.1367 2.79266 65.0766 2.77912 65.0164C2.08002 62.0532 1.99756 58.9751 1.99756 55.9183C1.99756 55.5615 1.99756 55.2033 1.99756 54.8491C1.99756 53.6127 2.0111 52.3684 2.03079 51.1254C2.03079 50.8033 2.0431 50.4825 2.04925 50.159C2.06648 49.3384 2.0911 48.5177 2.1231 47.6971C2.13049 47.4685 2.14033 47.2413 2.15141 47.0141C2.15141 46.8831 2.15756 46.7521 2.16987 46.6211C2.19941 46.1453 2.22403 45.6735 2.25357 45.203Z" fill="#F9A826"/>
<path opacity="0.1" d="M14.745 24.617H7.89307C9.00688 22.7239 10.2239 20.9047 11.5375 19.1692C12.5554 17.8112 13.6299 16.488 14.745 15.2129V24.617Z" fill="#F9A826"/>
<path opacity="0.1" d="M14.745 25.1891V44.6309H2.29297C2.29297 44.5748 2.30158 44.5173 2.30528 44.4612C2.31635 44.3075 2.32743 44.1538 2.33974 44.0014C2.35328 43.8223 2.36805 43.6419 2.38405 43.4668C2.40005 43.2917 2.41728 43.0778 2.43574 42.884C2.4542 42.6902 2.47144 42.4937 2.49236 42.2999C2.51328 42.1061 2.53174 41.9123 2.5539 41.7199C2.57605 41.5274 2.59575 41.3323 2.61913 41.1398C2.63759 40.9794 2.65729 40.8203 2.67698 40.66C2.70529 40.4341 2.73483 40.2069 2.76683 39.9823C2.76683 39.9489 2.77544 39.9141 2.78037 39.8821C3.00501 38.2383 3.31111 36.6089 3.69732 35.0009C4.10159 33.3141 4.61783 31.6613 5.24198 30.0556C5.90534 28.3757 6.68204 26.7514 7.56574 25.1958L14.745 25.1891Z" fill="#F9A826"/>
<path opacity="0.1" d="M17.7275 45.2017V63.6918H44.4077V45.2017H17.7275ZM17.7275 64.2626V80.1411C17.8802 80.1758 18.0315 80.2093 18.1817 80.2373C18.386 80.2801 18.5891 80.3189 18.7971 80.3523C18.8365 80.359 18.8771 80.3656 18.9202 80.3696C19.0014 80.3844 19.0851 80.3964 19.1664 80.4084C19.3719 80.4391 19.5762 80.4645 19.7818 80.4846C19.879 80.4953 19.9775 80.5046 20.0759 80.5127L20.3135 80.5327C20.4427 80.5434 20.5707 80.5514 20.6975 80.5554C20.7762 80.5554 20.855 80.5634 20.9362 80.5661C20.9978 80.5661 21.0593 80.5661 21.1233 80.5661C21.1873 80.5661 21.2784 80.5661 21.356 80.5661C21.4618 80.5661 21.5677 80.5661 21.6723 80.5661H21.8138C21.9197 80.5661 22.0255 80.5661 22.1301 80.5554H22.1375C22.2101 80.5554 22.284 80.5554 22.3578 80.5447C22.3783 80.5461 22.3989 80.5461 22.4194 80.5447C22.4809 80.5447 22.5425 80.5447 22.6015 80.5354H22.6446L23.0569 80.5006C23.1923 80.4873 23.3289 80.4699 23.4668 80.4538L23.7474 80.4178C24.8891 80.244 26.0181 79.9832 27.126 79.6372C29.6147 78.8834 32.0492 77.8288 34.5367 77.0563C37.7528 76.0605 41.3061 75.5713 44.4139 76.789V64.2626H17.7275ZM44.4077 24.6171V0.00133132C41.4867 -0.0330352 38.5736 0.337972 35.7392 1.10534C28.9833 2.94848 22.9215 6.94618 17.7275 12.0519V24.6157H19.0667V25.1864H17.7275V44.6309H44.4077V25.1878H24.5647V24.6171H44.4077ZM78.677 16.3022C77.0056 16.2381 75.344 15.6633 73.8412 14.7758C70.9673 13.0784 68.6718 10.4574 66.1068 8.24533C60.7774 3.63815 54.168 0.858077 47.3875 0.168403V24.6171H85.4748L85.5696 24.5088L78.677 16.3022ZM82.1467 15.6339L85.8256 20.0179V14.4845C84.5935 14.6502 83.5141 15.0445 82.1516 15.6286L82.1467 15.6339ZM85.8256 84.084V64.2626H77.9866C77.9656 64.1784 77.9447 64.0928 77.9201 64.0073C77.9435 64.0928 77.9632 64.1784 77.9853 64.2626H47.3924V78.5973C47.6829 78.8312 47.9697 79.0772 48.254 79.3271C48.5605 79.5944 48.8632 79.8764 49.1672 80.1531L49.4737 80.4285C49.6202 80.5621 49.7679 80.6958 49.9168 80.8214C50.2122 81.0816 50.5105 81.3382 50.8116 81.5913C50.9605 81.7249 51.1131 81.8452 51.2645 81.9709C53.6679 83.9663 56.2033 85.7671 58.85 87.3586C59.4432 87.715 60.0418 88.063 60.6457 88.4025C61.0482 88.6257 61.4531 88.8475 61.8593 89.0627C62.4698 89.3862 63.0852 89.6981 63.7055 89.9983C69.4246 92.7862 75.4722 94.6993 81.6753 95.6828C83.053 95.9038 84.436 96.0775 85.8243 96.2041V84.0826H85.9474L85.8256 84.084ZM47.3924 25.1878V44.6309H85.8305V25.1878H47.3924ZM47.3924 45.2017V63.6918H85.8305V45.2017H47.3924ZM88.814 14.4604V20.6327L93.5095 15.0378C91.9538 14.7652 90.3886 14.5705 88.814 14.4537V14.4604ZM88.814 45.2083V63.6918H126.2V45.2017L88.814 45.2083ZM126.063 85.5516L126.195 64.2626H88.814V96.4166C91.222 96.5264 93.6338 96.4952 96.0388 96.323H96.0806C97.2294 96.2446 98.3728 96.1306 99.5109 95.9809H99.5367C105.608 95.2135 111.545 93.4932 117.162 90.8738M133.409 48.2464C133.268 47.8868 133.122 47.53 132.973 47.1771C132.695 46.5088 132.4 45.8593 132.098 45.2097H129.181V63.6918H136.556C136.552 58.4578 135.332 53.1115 133.412 48.2397L133.409 48.2464ZM129.181 64.2692V82.5803C131.258 80.4178 133.013 77.9438 134.277 75.1156C135.798 71.71 136.493 68.0224 136.55 64.2666L129.181 64.2692ZM129.181 39.8206V44.6323H131.824C131.025 42.9759 130.143 41.3674 129.184 39.8139L129.181 39.8206ZM103.826 18.0879C103.632 18.0077 103.437 17.9262 103.241 17.8473C101.178 17.0196 99.0684 16.3313 96.9262 15.7863L89.7408 24.3497L89.6029 24.5088L89.6952 24.6184H115.269C111.707 21.956 107.867 19.7616 103.83 18.0812L103.826 18.0879ZM116.018 25.1945H89.3383L88.814 25.7157V44.6309H93.4098H93.4172H126.205V35.4687C123.239 31.5734 119.815 28.117 116.022 25.1878L116.018 25.1945Z" fill="#F9A826"/>
<path opacity="0.1" d="M14.745 34.9956V44.631H2.29297C2.29297 44.5748 2.30158 44.5174 2.30528 44.4612C2.31635 44.3075 2.32743 44.1538 2.33974 44.0015C2.35328 43.8224 2.36805 43.6419 2.38405 43.4668C2.40005 43.2917 2.41728 43.0779 2.43574 42.8841C2.4542 42.6903 2.47144 42.4938 2.49236 42.3C2.51328 42.1062 2.53174 41.9124 2.5539 41.7199C2.57605 41.5275 2.59575 41.3323 2.61913 41.1398C2.63759 40.9795 2.65729 40.8204 2.67698 40.66C2.70529 40.4341 2.73483 40.2069 2.76683 39.9824C2.76683 39.949 2.77544 39.9142 2.78037 39.8821C3.00501 38.2384 3.31111 36.6089 3.69732 35.001L14.745 34.9956Z" fill="#F9A826"/>
<path opacity="0.1" d="M2.25357 45.203H14.745V63.6919H3.16806C3.13729 63.8817 3.10775 64.0728 3.07574 64.2639H14.745V79.1748C14.7241 79.1681 14.7056 79.1601 14.6859 79.152C14.3561 79.0104 14.0287 78.8607 13.7013 78.7003L13.4921 78.5974C13.1638 78.4289 12.8356 78.2507 12.5074 78.0627C12.3929 77.9972 12.2785 77.9291 12.1652 77.8596C10.3431 76.7512 8.68785 75.3467 7.25679 73.6948C7.21495 73.6507 7.17556 73.6039 7.13371 73.5611C6.93432 73.3259 6.73862 73.088 6.54908 72.8447L6.33984 72.5774C6.11584 72.2794 5.89921 71.9733 5.68875 71.6632C5.65798 71.6178 5.62844 71.5723 5.59644 71.5295C4.74047 70.2407 4.02974 68.8452 3.47945 67.3728C3.46222 67.3287 3.44745 67.2806 3.43145 67.2391C3.26242 66.7669 3.11267 66.2902 2.9822 65.809C2.92559 65.6072 2.87143 65.408 2.82466 65.1982C2.80743 65.1367 2.79266 65.0766 2.77912 65.0164C2.08002 62.0532 1.99756 58.9751 1.99756 55.9183C1.99756 55.5615 1.99756 55.2033 1.99756 54.8491C1.99756 53.6127 2.0111 52.3684 2.03079 51.1254C2.03079 50.8033 2.0431 50.4825 2.04925 50.159C2.06648 49.3384 2.0911 48.5177 2.1231 47.6971C2.13049 47.4685 2.14033 47.2413 2.15141 47.0141C2.15141 46.8831 2.15756 46.7521 2.16987 46.6211C2.19941 46.1453 2.22403 45.6735 2.25357 45.203Z" fill="#F9A826"/>
<path opacity="0.1" d="M27.1198 27.9719V44.631H17.7275V27.9719H19.0667V22.3315H24.5634V27.9719H27.1198Z" fill="#F9A826"/>
<path opacity="0.1" d="M27.1196 45.2017H17.7285V63.6905H27.1196V45.2017Z" fill="#F9A826"/>
<path opacity="0.1" d="M17.7275 64.2639H27.1198V79.6345C26.0119 79.9802 24.8829 80.2406 23.7413 80.4138L23.4606 80.4512C23.3228 80.4686 23.1862 80.4833 23.0508 80.498C22.9154 80.5127 22.7751 80.5234 22.6385 80.5327H22.5954C22.5363 80.5327 22.4723 80.5407 22.4144 80.5421H22.3517C22.2778 80.5421 22.204 80.5501 22.1301 80.5528C22.0255 80.5595 21.9209 80.5608 21.8138 80.5621C21.7683 80.5621 21.7252 80.5621 21.6797 80.5621C21.5738 80.5621 21.4692 80.5621 21.3633 80.5621H21.1307C21.0679 80.5621 21.0076 80.5621 20.9424 80.5621L20.7049 80.5528C20.5818 80.5528 20.4488 80.5381 20.3208 80.5287L20.0845 80.51L19.7904 80.4806C19.5836 80.4605 19.378 80.4352 19.175 80.4044L18.9288 80.367L18.8057 80.3483C18.6002 80.3135 18.3971 80.2761 18.1903 80.2333C18.0389 80.2053 17.8888 80.1705 17.7362 80.1371L17.7275 64.2639Z" fill="#F9A826"/>
<path opacity="0.1" d="M85.8302 26.0044H78.0859V44.6296H85.8302V26.0044Z" fill="#F9A826"/>
<path opacity="0.1" d="M85.8314 45.2017V63.6919H47.3921V55.7165H67.8665V60.4213H78.0859V45.2017H85.8314Z" fill="#F9A826"/>
<path opacity="0.1" d="M85.9532 84.088H85.8302V96.2175C84.4435 96.0901 83.0608 95.9167 81.6823 95.6975C75.4762 94.7109 69.4261 92.7937 63.7052 90.0011C62.0534 89.1938 60.4353 88.3125 58.8509 87.3573C56.2042 85.765 53.6685 83.9643 51.2642 81.9696C50.6603 81.467 50.0642 80.9529 49.4758 80.4272C49.0684 80.0623 48.6635 79.688 48.2537 79.3245C47.9693 79.0745 47.6826 78.8286 47.3921 78.5934V64.2639H77.9838C77.9628 64.1784 77.9419 64.0929 77.9198 64.0087C77.9432 64.0929 77.9653 64.1784 77.9862 64.2639H85.8302V84.08C85.872 84.0814 85.9126 84.0854 85.9532 84.088Z" fill="#F9A826"/>
<path opacity="0.1" d="M106.028 24.617H100.981V22.9142H103.244V17.8419C103.44 17.9194 103.635 17.9992 103.83 18.0812V22.9142H106.028V24.617Z" fill="#F9A826"/>
<path opacity="0.1" d="M118.186 44.6309H93.4123C93.4123 44.6309 93.4123 44.6309 93.4209 44.6376L93.4098 44.6309H88.814V26.0057H90.1162V39.7725H96.0671V31.6194H100.983V25.1891H106.029V31.6247H110.945V39.7778H118.186V44.6309Z" fill="#F9A826"/>
<path opacity="0.1" d="M88.814 45.2017V63.6918H118.186V45.2017H88.814ZM126.159 85.4567L126.2 70.8211H118.186V64.2719H88.814V96.4166C91.222 96.5264 93.6338 96.4952 96.0388 96.323H96.0806C97.2294 96.2446 98.3728 96.1306 99.5109 95.9809H99.5367C105.608 95.2135 111.545 93.4932 117.162 90.8738" fill="#F9A826"/>
<path opacity="0.1" d="M129.702 64.2639H136.554C136.494 68.0184 135.8 71.706 134.281 75.1116C133.017 77.9411 131.261 80.4151 129.186 82.5763V70.8145H129.702V64.2639Z" fill="#F9A826"/>
<path opacity="0.1" d="M136.558 63.6919H129.703V48.2397H133.412C135.332 53.1116 136.552 58.4579 136.558 63.6919Z" fill="#F9A826"/>
<path opacity="0.1" d="M85.8317 31.1824H81.6826V37.0219H85.8317V31.1824Z" fill="#F9A826"/>
<path opacity="0.1" d="M85.8317 43.2864H81.6826V44.631H85.8317V43.2864Z" fill="#F9A826"/>
<path opacity="0.1" d="M85.8317 45.2017H81.6826V49.1245H85.8317V45.2017Z" fill="#F9A826"/>
<path opacity="0.1" d="M85.8317 55.3904H81.6826V61.2299H85.8317V55.3904Z" fill="#F9A826"/>
<path opacity="0.1" d="M85.8317 67.4944H81.6826V73.3339H85.8317V67.4944Z" fill="#F9A826"/>
<path opacity="0.1" d="M85.8304 84.0799C85.8723 84.0799 85.9129 84.0799 85.9535 84.088H85.8304V85.4446H81.6826V79.5984H85.8304V84.0799Z" fill="#F9A826"/>
<path opacity="0.1" d="M85.8304 91.6998V96.2108C84.4437 96.0834 83.0611 95.91 81.6826 95.6908V91.6998H85.8304Z" fill="#F9A826"/>
<path opacity="0.1" d="M65.1735 63.2628H47.3921V63.6919H65.1735V63.2628Z" fill="#F9A826"/>
<path opacity="0.1" d="M65.1735 64.2626H47.3921V65.9066H65.1735V64.2626Z" fill="#F9A826"/>
<path opacity="0.1" d="M65.1735 71.2957H47.3921V73.9394H65.1735V71.2957Z" fill="#F9A826"/>
<path opacity="0.1" d="M65.1723 79.3285V81.9722H51.2642C50.6603 81.4715 50.0638 80.9573 49.4746 80.4298C49.0672 80.0649 48.6635 79.6907 48.2524 79.3285H65.1723Z" fill="#F9A826"/>
<path opacity="0.1" d="M65.1725 87.36V90.001H63.7041C62.054 89.1929 60.4364 88.3112 58.8511 87.356L65.1725 87.36Z" fill="#F9A826"/>
<path opacity="0.1" d="M99.5405 46.994H96.04V50.7952H99.5405V46.994Z" fill="#F9A826"/>
<path opacity="0.1" d="M23.7499 29.2831H20.2495V33.0843H23.7499V29.2831Z" fill="#F9A826"/>
<path opacity="0.1" d="M23.7499 38.1124H20.2495V41.9136H23.7499V38.1124Z" fill="#F9A826"/>
<path opacity="0.1" d="M23.7499 46.9419H20.2495V50.7431H23.7499V46.9419Z" fill="#F9A826"/>
<path opacity="0.1" d="M23.7499 55.77H20.2495V59.5712H23.7499V55.77Z" fill="#F9A826"/>
<path opacity="0.1" d="M23.7499 64.5994H20.2495V68.4006H23.7499V64.5994Z" fill="#F9A826"/>
<path opacity="0.1" d="M23.7499 73.4288H20.2495V77.2301H23.7499V73.4288Z" fill="#F9A826"/>
<path opacity="0.1" d="M112.903 46.994H109.403V50.7952H112.903V46.994Z" fill="#F9A826"/>
<path opacity="0.1" d="M99.5405 56.3701H96.04V60.1713H99.5405V56.3701Z" fill="#F9A826"/>
<path opacity="0.1" d="M112.903 56.3701H109.403V60.1713H112.903V56.3701Z" fill="#F9A826"/>
<path opacity="0.1" d="M99.5405 65.7449H96.04V69.5461H99.5405V65.7449Z" fill="#F9A826"/>
<path opacity="0.1" d="M112.903 65.7449H109.403V69.5461H112.903V65.7449Z" fill="#F9A826"/>
<path opacity="0.1" d="M99.5405 75.121H96.04V78.9222H99.5405V75.121Z" fill="#F9A826"/>
<path opacity="0.1" d="M112.903 75.121H109.403V78.9222H112.903V75.121Z" fill="#F9A826"/>
<path opacity="0.1" d="M99.5405 84.4969H96.04V88.2982H99.5405V84.4969Z" fill="#F9A826"/>
<path opacity="0.1" d="M112.903 84.4969H109.403V88.2982H112.903V84.4969Z" fill="#F9A826"/>
<path opacity="0.1" d="M96.04 96.323V93.8717H99.5392V95.9741L96.04 96.323Z" fill="#F9A826"/>
<path opacity="0.1" d="M2.76562 39.8794V42.054H14.7451V39.8794H2.76562ZM3.95951 41.9177H2.98225V40.0131H3.96689L3.95951 41.9177ZM5.15216 41.9177H4.16751V40.0131H5.15216V41.9177ZM6.34235 41.9177H5.3577V40.0131H6.34235V41.9177ZM7.535 41.9177H6.55158V40.0131H7.53623L7.535 41.9177ZM8.72642 41.9177H7.74177V40.0131H8.72642V41.9177ZM9.91907 41.9177H8.93442V40.0131H9.91907V41.9177ZM11.1117 41.9177H10.1271V40.0131H11.1117V41.9177ZM12.3031 41.9177H11.3185V40.0131H12.3031V41.9177ZM13.4946 41.9177H12.5099V40.0131H13.4946V41.9177ZM14.686 41.9177H13.7013V40.0131H14.686V41.9177Z" fill="#F9A826"/>
<path opacity="0.1" d="M2.76562 46.2068V48.3814H14.7451V46.2068H2.76562ZM3.95951 48.2437H2.98225V46.3445H3.96689L3.95951 48.2437ZM5.15216 48.2437H4.16751V46.3445H5.15216V48.2437ZM6.34235 48.2437H5.3577V46.3445H6.34235V48.2437ZM7.535 48.2437H6.55158V46.3445H7.53623L7.535 48.2437ZM8.72642 48.2437H7.74177V46.3445H8.72642V48.2437ZM9.91907 48.2437H8.93442V46.3445H9.91907V48.2437ZM11.1117 48.2437H10.1271V46.3445H11.1117V48.2437ZM12.3031 48.2437H11.3185V46.3445H12.3031V48.2437ZM13.4946 48.2437H12.5099V46.3445H13.4946V48.2437ZM14.686 48.2437H13.7013V46.3445H14.686V48.2437Z" fill="#F9A826"/>
<path opacity="0.1" d="M2.76562 52.5367V54.7154H14.7451V52.5367H2.76562ZM3.95951 54.5737H2.98225V52.6731H3.96689L3.95951 54.5737ZM5.15216 54.5737H4.16751V52.6731H5.15216V54.5737ZM6.34235 54.5737H5.3577V52.6731H6.34235V54.5737ZM7.535 54.5737H6.55158V52.6731H7.53623L7.535 54.5737ZM8.72642 54.5737H7.74177V52.6731H8.72642V54.5737ZM9.91907 54.5737H8.93442V52.6731H9.91907V54.5737ZM11.1117 54.5737H10.1271V52.6731H11.1117V54.5737ZM12.3031 54.5737H11.3185V52.6731H12.3031V54.5737ZM13.4946 54.5737H12.5099V52.6731H13.4946V54.5737ZM14.686 54.5737H13.7013V52.6731H14.686V54.5737Z" fill="#F9A826"/>
<path opacity="0.1" d="M2.76562 58.8668V61.0388H14.7451V58.8668H2.76562ZM3.95951 60.9038H2.98225V59.0018H3.96689L3.95951 60.9038ZM5.15216 60.9038H4.16751V59.0018H5.15216V60.9038ZM6.34235 60.9038H5.3577V59.0018H6.34235V60.9038ZM7.535 60.9038H6.55158V59.0018H7.53623L7.535 60.9038ZM8.72642 60.9038H7.74177V59.0018H8.72642V60.9038ZM9.91907 60.9038H8.93442V59.0018H9.91907V60.9038ZM11.1117 60.9038H10.1271V59.0018H11.1117V60.9038ZM12.3031 60.9038H11.3185V59.0018H12.3031V60.9038ZM13.4946 60.9038H12.5099V59.0018H13.4946V60.9038ZM14.686 60.9038H13.7013V59.0018H14.686V60.9038Z" fill="#F9A826"/>
<path opacity="0.1" d="M2.81738 65.1956C2.86538 65.4001 2.91954 65.6045 2.97616 65.8064V65.3319H3.9608V67.2325H3.43402C3.45002 67.2766 3.46602 67.3247 3.48202 67.3662H14.7451V65.1956H2.81738ZM5.15591 67.2325H4.17127V65.3319H5.15591V67.2325ZM6.3461 67.2325H5.36146V65.3319H6.3461V67.2325ZM7.53875 67.2325H6.55165V65.3319H7.53629L7.53875 67.2325ZM8.73017 67.2325H7.74553V65.3319H8.73017V67.2325ZM9.92283 67.2325H8.93818V65.3319H9.92283V67.2325ZM11.1155 67.2325H10.1308V65.3319H11.1155V67.2325ZM12.3069 67.2325H11.3223V65.3319H12.3069V67.2325ZM13.4983 67.2325H12.5137V65.3319H13.4983V67.2325ZM14.6897 67.2325H13.7051V65.3319H14.6897V67.2325Z" fill="#F9A826"/>
<path opacity="0.1" d="M5.59912 71.5255C5.62989 71.5683 5.65943 71.6164 5.69143 71.6592H6.34253V72.572C6.41268 72.6629 6.48161 72.7538 6.553 72.8394V71.6538H7.53764V73.5611H7.13886C7.17824 73.6052 7.2164 73.652 7.26194 73.6948H14.7489V71.5255H5.59912ZM8.7266 73.5611H7.74195V71.6618H8.7266V73.5611ZM9.91925 73.5611H8.93461V71.6618H9.91925V73.5611ZM11.1119 73.5611H10.1273V71.6618H11.1119V73.5611ZM12.3033 73.5611H11.3187V71.6618H12.3033V73.5611ZM13.4947 73.5611H12.5101V71.6618H13.4947V73.5611ZM14.6862 73.5611H13.7015V71.6618H14.6862V73.5611Z" fill="#F9A826"/>
<path opacity="0.1" d="M12.1704 77.8542C12.2824 77.9238 12.3969 77.9879 12.5126 78.0574V77.9906H13.4972V78.592L13.7065 78.6976V77.9906H14.6911V79.1467C14.71 79.1569 14.7298 79.165 14.7502 79.1708V77.8542H12.1704Z" fill="#F9A826"/>
<path opacity="0.1" d="M77.9198 64.0073C77.9432 64.0928 77.9629 64.1784 77.985 64.2626C77.9654 64.1784 77.9444 64.0928 77.9198 64.0073ZM19.0713 24.613V25.1838H24.5693V24.613H19.0713ZM77.9198 64.0073C77.9432 64.0928 77.9629 64.1784 77.985 64.2626C77.9654 64.1784 77.9444 64.0928 77.9198 64.0073ZM77.9198 64.0073C77.9432 64.0928 77.9629 64.1784 77.985 64.2626C77.9654 64.1784 77.9444 64.0928 77.9198 64.0073Z" fill="#F9A826"/>
<path d="M57.3643 50.7458C57.3643 50.7458 56.8794 50.6723 56.8794 49.9051C56.8794 49.1379 56.5323 47.7051 56.5323 47.7051C56.5323 47.6984 56.232 45.2097 55.8172 44.8141C55.4024 44.4184 54.8695 42.0955 54.8695 42.0955C54.8695 42.0955 54.7784 40.8351 54.5926 40.5638C54.4067 40.2924 54.1556 39.6282 53.7852 38.6805C53.4147 37.7329 51.87 37.0766 51.87 37.0766C51.87 37.0766 49.0773 35.3177 48.2859 34.7443C48.214 34.6972 48.1467 34.6421 48.0853 34.5799C47.9474 34.3834 47.3468 34.3794 47.3468 34.3794C47.284 33.949 47.2237 33.4545 47.204 33.0068C47.204 32.9586 47.204 32.9105 47.1979 32.8624C48.0804 32.2959 48.7451 31.4028 49.0699 30.347C49.0847 30.2962 49.097 30.2427 49.1106 30.1919C49.1634 30.173 49.2121 30.1423 49.2534 30.1018C49.2947 30.0613 49.3278 30.0119 49.3506 29.9567C49.422 29.7843 49.4232 29.5825 49.5118 29.4221C49.6152 29.2323 49.8121 29.1307 49.9672 28.9877C50.3586 28.6268 50.4595 28.0187 50.4411 27.4653C50.4287 27.0176 50.3623 26.5658 50.3881 26.1207L50.3955 26.0084C50.4029 25.9416 50.4115 25.8748 50.4226 25.8106C50.4829 25.4792 50.6146 25.1664 50.6884 24.8376C50.7623 24.5088 50.7697 24.1386 50.5974 23.8552C50.3451 23.4396 49.8195 23.3567 49.3579 23.3139C48.8349 23.2658 48.3671 23.3286 48.0324 22.8568C47.8757 22.6102 47.6994 22.379 47.5056 22.1658C47.4367 22.0963 46.7671 21.6525 46.7671 21.6231C46.1136 21.2945 45.3729 21.2328 44.6809 21.4494C44.3338 21.559 44.0064 21.7381 43.6544 21.8276C42.895 22.0228 42.0211 21.8116 41.3762 22.2834C41.0168 22.5507 40.8014 22.9758 40.5995 23.3901C40.4354 23.7314 40.2689 24.0722 40.0998 24.4126C39.8278 24.9726 39.5509 25.542 39.4364 26.1622C39.4123 26.2971 39.3975 26.4338 39.3921 26.5711V26.5778C39.3921 26.6273 39.3921 26.6767 39.3921 26.7262V26.789C39.3921 26.8358 39.3921 26.8812 39.3995 26.9227C39.4069 26.9641 39.4056 26.9775 39.4093 27.0055C39.413 27.0336 39.4192 27.0964 39.4266 27.1392C39.434 27.182 39.4487 27.2568 39.4635 27.3156C39.4697 27.341 39.4783 27.3651 39.4857 27.3891C39.498 27.4346 39.5127 27.4787 39.5287 27.5228C39.5373 27.5455 39.546 27.5696 39.5558 27.5923C39.5743 27.6391 39.5964 27.6845 39.6186 27.726C39.6284 27.7447 39.6358 27.762 39.6457 27.7794C39.68 27.8416 39.7178 27.9014 39.7589 27.9585C40.0223 28.3154 40.41 28.5426 40.6968 28.8767C40.6968 28.8901 40.6968 28.9035 40.6968 28.9155C40.6968 28.9529 40.6968 28.989 40.6968 29.0264C40.712 29.7716 40.8946 30.5015 41.2288 31.1526C41.563 31.8037 42.0387 32.3562 42.6144 32.7622C42.6144 32.813 42.6205 32.8651 42.623 32.9159C42.647 33.3126 42.6424 33.7108 42.6094 34.1068C42.5593 34.0427 42.4966 33.9916 42.4259 33.9574C42.3551 33.9231 42.2782 33.9066 42.2008 33.9089C42.1479 33.9061 42.0949 33.9111 42.0433 33.9237L42.0322 33.9143V33.9263C41.7614 33.9985 41.4279 34.3046 41.1091 35.1747C41.1091 35.1747 40.1392 36.3616 39.4007 36.3121C38.6622 36.2627 36.7927 37.5471 36.7927 37.5471C36.7927 37.5471 34.9686 38.8329 34.5772 40.1427C34.3584 40.8855 34.0961 41.6123 33.7919 42.3187L31.5371 47.3643L31.1211 51.3673C31.1211 51.3673 31.3513 53.1476 31.3057 53.4189C31.2602 53.6903 32.2522 56.1375 32.2522 56.1375C32.2522 56.1375 35.5298 62.3914 36.869 62.7122L36.965 62.6387C37.0223 62.6712 37.083 62.6958 37.1459 62.7122L37.4216 62.501C37.4381 62.7364 37.4311 62.973 37.4007 63.2067C37.216 63.8242 37.4696 67.854 37.7921 68.6439C38.1145 69.4338 38.0001 79.7909 38.0001 79.7909L37.9545 80.7052C37.9545 80.7052 37.9545 80.7346 37.9656 80.7853L37.9545 81.0019L37.9878 81.0206C38.0223 81.3106 38.011 81.6048 37.9545 81.8907C37.8388 82.2917 37.7921 83.4251 37.7921 83.4251C37.7921 83.4251 36.8702 89.8246 37.3071 91.1104C37.7441 92.3962 38.1158 93.8049 38.1158 93.8049C38.1158 93.8049 38.5773 95.4088 38.1379 95.6828C37.6985 95.9568 36.4493 96.4166 36.7065 97.0849C36.9403 97.7024 37.8278 99.3571 37.9595 99.599L37.9484 99.726L37.7674 101.855C37.7967 102.136 37.867 102.411 37.9755 102.668C38.1736 103.132 38.5589 103.613 39.2912 103.561C39.4143 103.551 39.557 103.535 39.6949 103.515C41.0352 103.32 42.6857 102.67 42.6857 102.67C42.6001 102.611 42.5215 102.541 42.4519 102.461C42.386 102.391 42.3338 102.308 42.2985 102.216C42.2631 102.124 42.2454 102.026 42.2464 101.926C42.266 101.538 41.5977 99.6912 41.4316 99.2368C41.4057 99.1713 41.3922 99.1339 41.3922 99.1339C41.3922 99.1339 42.9159 97.4043 42.6624 95.8713C42.6624 95.8713 40.9762 94.802 41.5313 94.2153C42.0863 93.6285 43.0784 91.9431 43.0784 91.9431C43.0784 91.9431 43.1239 85.6411 43.0784 84.7002C43.0309 84.0471 43.0594 83.3901 43.1633 82.7448C43.1818 82.6472 43.2039 82.5523 43.2273 82.4587C43.995 82.5832 44.77 82.6471 45.5461 82.6499C45.8292 82.6499 46.1172 82.6499 46.4077 82.6312C46.4077 82.7203 46.4114 82.8165 46.4188 82.9199C46.4828 84.481 46.6022 87.2183 46.6994 88.2354C46.8373 89.6936 47.5991 93.6232 47.5991 93.6232C47.5991 93.6232 46.1455 94.6363 47.8527 97.133C47.8527 97.133 47.8527 98.0379 47.7394 98.1689C47.6186 98.597 47.5211 99.0326 47.4477 99.4734C47.3763 99.9438 47.3468 100.42 47.4625 100.667C47.7394 101.258 49.401 101.21 49.401 101.21L49.4416 101.202C49.7553 101.166 50.0723 101.199 50.3743 101.298C50.6762 101.397 50.957 101.56 51.2005 101.778C51.8319 102.328 54.2282 102.086 55.5255 101.911C56.0338 101.842 56.3735 101.778 56.3735 101.778C56.39 101.715 56.3958 101.65 56.3908 101.585C56.3772 101.239 56.1274 100.48 54.4338 99.8022C54.4338 99.8022 52.8411 98.6393 52.8633 97.6262H52.8301H52.6454C52.7796 97.6182 52.8657 97.6262 52.8657 97.6262C52.8657 97.6262 52.2417 95.1535 52.4965 94.953C52.7513 94.7526 51.9882 92.0126 51.9882 92.0126C51.9882 92.0126 51.5512 87.4148 51.5279 87.0926C51.5288 86.8162 51.5674 86.5415 51.6423 86.2773L51.5279 83.7566C51.5279 83.7566 51.5057 82.9185 51.5279 82.6459C51.5241 82.4092 51.5064 82.173 51.4749 81.9388C51.4639 81.8452 51.4528 81.7477 51.4405 81.6514C52.0374 81.487 52.4251 81.3347 52.4251 81.3347L52.3562 72.5601C52.8633 71.4908 52.9568 69.1451 52.9544 67.4811C52.9544 66.4118 52.9101 65.6206 52.9101 65.6206L53.603 64.3922C53.603 64.3922 53.763 62.922 53.5095 62.5999C53.3975 62.4542 53.4479 62.3032 53.5402 62.1789C53.5882 62.1376 53.6388 62.1001 53.6916 62.0666C53.6916 62.0666 53.6842 62.0546 53.6756 62.0372C53.724 61.9933 53.7754 61.9535 53.8295 61.9182C53.8295 61.9182 53.5833 61.5039 53.8036 61.3288C54.0104 61.4812 54.195 61.5961 54.3353 61.6897C54.3255 61.7873 54.3156 61.8434 54.3156 61.8434L54.3747 61.7097C54.5101 61.7926 54.5926 61.8434 54.5926 61.8434C54.5926 61.8434 55.6781 59.495 55.6548 59.1489C55.6314 58.8027 56.3932 57.3445 56.3932 57.3445C56.3932 57.3445 56.4855 56.5786 56.9016 56.2578C57.3176 55.9371 57.224 53.6128 57.224 53.6128C57.224 53.6128 57.3397 52.4018 57.6167 51.9073C57.8936 51.4127 57.3643 50.7458 57.3643 50.7458ZM36.5933 49.7153L36.6142 50.2753C36.4911 50.0601 36.4025 49.9051 36.4025 49.9051L36.5933 49.7153Z" fill="url(#paint0_linear_1304_23619)"/>
<path d="M54.6518 60.8289L54.3859 62.0585C54.3859 62.0585 52.2566 60.8784 51.8726 59.3787C51.4886 57.8791 52.5151 57.3097 52.5151 57.3097L54.4992 58.2226L54.6518 60.8289Z" fill="white"/>
<path opacity="0.1" d="M54.6518 60.8289L54.3859 62.0585C54.3859 62.0585 52.2566 60.8784 51.8726 59.3787C51.4886 57.8791 52.5151 57.3097 52.5151 57.3097L54.4992 58.2226L54.6518 60.8289Z" fill="black"/>
<path d="M42.7017 102.678C42.7017 102.678 40.7324 103.464 39.3785 103.563C38.6597 103.615 38.2818 103.137 38.0874 102.676C37.9811 102.419 37.9126 102.147 37.8843 101.867L38.0603 99.7487L38.1538 98.6206L41.0302 97.8093L41.4376 99.1619L41.4758 99.2649C41.6395 99.7166 42.2955 101.554 42.2758 101.938C42.275 102.036 42.2924 102.134 42.3271 102.224C42.3618 102.315 42.413 102.397 42.4776 102.466C42.5437 102.547 42.619 102.618 42.7017 102.678Z" fill="white"/>
<path d="M56.1532 101.601C56.1582 101.665 56.1523 101.73 56.136 101.792C56.136 101.792 51.9242 102.555 51.0626 101.792C50.8197 101.569 50.5366 101.404 50.2313 101.307C49.9261 101.21 49.6056 101.183 49.2903 101.228C49.2903 101.228 47.6607 101.276 47.3887 100.694C47.2754 100.449 47.305 99.9745 47.3751 99.5067C47.4467 99.0684 47.542 98.635 47.6607 98.2089L47.7259 98.1528L48.1136 97.8146L52.6528 97.6689H52.6873C52.6651 98.6767 54.2282 99.8329 54.2282 99.8329C55.8886 100.501 56.1335 101.256 56.1532 101.601Z" fill="white"/>
<path opacity="0.1" d="M56.1531 101.601C56.1574 101.666 56.1511 101.73 56.1346 101.792C56.1346 101.792 51.924 102.555 51.0625 101.792C50.8197 101.569 50.5367 101.404 50.2317 101.307C49.9268 101.21 49.6064 101.183 49.2913 101.228C49.2913 101.228 47.6605 101.276 47.3897 100.694C47.2765 100.448 47.3048 99.9745 47.375 99.5067C48.0027 99.5749 48.9935 99.7446 49.3824 100.15C49.9707 100.766 50.9677 101.381 51.5794 101.429C52.0582 101.462 54.9223 101.561 56.1531 101.601Z" fill="black"/>
<path opacity="0.1" d="M42.7019 102.678C42.7019 102.678 40.7326 103.464 39.3787 103.563C38.66 103.615 38.2821 103.137 38.0889 102.674C38.5898 102.858 39.2852 103.05 39.6508 102.874C40.084 102.665 41.62 102.53 42.4816 102.473C42.5472 102.551 42.6212 102.62 42.7019 102.678Z" fill="black"/>
<path d="M45.6234 39.3448C43.9988 38.6591 41.9088 36.3936 42.4307 35.335C42.5466 35.0679 42.6155 34.7796 42.6338 34.485C42.6674 34.085 42.6723 33.6829 42.6486 33.2821C42.612 32.6257 42.5392 31.9723 42.4307 31.3253C42.4307 31.3253 47.5029 31.4496 47.2075 32.2609C47.1213 32.4988 47.1078 32.9118 47.1312 33.3743C47.1545 33.8367 47.2161 34.3593 47.2801 34.8018C47.3687 35.4086 47.4573 35.871 47.4573 35.871C47.4573 35.871 47.1472 36.3428 46.965 36.3682C46.7828 36.3936 47.9546 40.3218 45.6234 39.3448Z" fill="#CF6F80"/>
<path opacity="0.1" d="M41.4721 99.2649L41.434 99.3103C39.9176 97.3188 38.0837 99.8008 38.0837 99.8008L38.0566 99.7487L38.1502 98.6206L41.0266 97.8093L41.434 99.1619L41.4721 99.2649Z" fill="black"/>
<path opacity="0.1" d="M52.6886 97.8093C52.6886 97.8093 51.5809 97.7839 50.9901 98.3506C50.3993 98.9173 47.5439 98.4735 47.6669 98.3506C47.7034 98.2896 47.7254 98.2198 47.731 98.1474L48.1187 97.8093L52.6579 97.6636C52.6751 97.7531 52.6886 97.8093 52.6886 97.8093Z" fill="black"/>
<path d="M43.3588 82.17C43.2763 82.3915 43.2136 82.6211 43.1717 82.8557C43.0691 83.498 43.0405 84.1517 43.0868 84.8017C43.1323 85.7373 43.0868 92.0072 43.0868 92.0072C43.0868 92.0072 42.1132 93.6793 41.5704 94.2687C41.0276 94.8581 42.6782 95.9167 42.6782 95.9167C42.9243 97.4404 41.4326 99.1619 41.4326 99.1619C39.9162 97.1704 38.0823 99.6538 38.0823 99.6538C38.0823 99.6538 37.0854 97.7826 36.8368 97.1143C36.5881 96.446 37.8103 95.9835 38.2399 95.7122C38.6694 95.4409 38.2189 93.841 38.2189 93.841C38.2189 93.841 37.8559 92.4389 37.4251 91.1598C36.9943 89.8807 37.9002 83.5133 37.9002 83.5133C37.9002 83.5133 37.9469 82.3825 38.0589 81.9882C38.1155 81.7037 38.1267 81.4108 38.0922 81.1221C38.0848 81.0246 38.0762 80.943 38.07 80.8882C38.0639 80.8334 38.0589 80.808 38.0589 80.808L38.0762 80.776L38.6916 79.5303C38.6916 79.5303 43.6542 81.3854 43.3588 82.17Z" fill="#F9A826"/>
<path d="M52.6884 97.6622C52.6884 97.6622 51.5807 97.6368 50.9899 98.1969C50.3991 98.7569 47.5436 98.3198 47.6667 98.1969C47.7898 98.0739 47.7799 97.1637 47.7799 97.1637C46.1048 94.6803 47.5338 93.6725 47.5338 93.6725C47.5338 93.6725 46.7855 89.7631 46.6501 88.3129C46.5553 87.2997 46.4384 84.5771 46.3756 83.0227C46.3485 82.3544 46.3325 81.8946 46.3325 81.8946L47.7012 81.5952L47.8772 81.5565L51.1782 80.8374C51.1782 80.8374 51.2693 81.5057 51.3308 82.0524C51.3615 82.2858 51.3788 82.521 51.3825 82.7567C51.3604 83.024 51.3825 83.8607 51.3825 83.8607L51.4945 86.3695C51.4213 86.6326 51.3836 86.9059 51.3825 87.1808C51.4047 87.5002 51.8342 92.074 51.8342 92.074C51.8342 92.074 52.5813 94.8033 52.3265 94.9998C52.0718 95.1962 52.6884 97.6622 52.6884 97.6622Z" fill="#F9A826"/>
<path opacity="0.1" d="M47.2079 32.2609C47.1218 32.4988 47.1082 32.9118 47.1316 33.3743C46.4522 33.8186 45.6712 34.0457 44.8783 34.0296C44.0853 34.0136 43.3127 33.7549 42.649 33.2834C42.6125 32.6266 42.5397 31.9727 42.4312 31.3253C42.4312 31.3253 47.5033 31.4469 47.2079 32.2609Z" fill="black"/>
<path d="M49.1684 29.3071C49.1694 29.7887 49.0996 30.2675 48.9616 30.7252C48.6532 31.7508 48.0209 32.6251 47.1764 33.1934C46.3319 33.7617 45.3295 33.9876 44.3465 33.831C43.3635 33.6744 42.4631 33.1455 41.8044 32.3377C41.1458 31.5299 40.7713 30.4953 40.7472 29.4167C40.7472 29.3793 40.7472 29.3445 40.7472 29.3071C40.7376 28.7 40.8395 28.0969 41.0468 27.5329C41.2542 26.969 41.5629 26.4556 41.9549 26.0225C42.3468 25.5895 42.8143 25.2456 43.33 25.0108C43.8457 24.7761 44.3992 24.6552 44.9584 24.6552C45.5176 24.6552 46.0711 24.7761 46.5868 25.0108C47.1025 25.2456 47.57 25.5895 47.962 26.0225C48.3539 26.4556 48.6626 26.969 48.87 27.5329C49.0773 28.0969 49.1792 28.7 49.1696 29.3071H49.1684Z" fill="#CF6F80"/>
<path opacity="0.1" d="M45.6234 39.3448C43.9988 38.6591 41.9088 36.3936 42.4307 35.335C42.5466 35.0679 42.6155 34.7796 42.6338 34.485L44.8579 36.4698L46.2339 37.6954L47.2801 34.8031C47.3687 35.4099 47.4573 35.8723 47.4573 35.8723C47.4573 35.8723 47.1472 36.3442 46.965 36.3696C46.7828 36.3949 47.9546 40.3218 45.6234 39.3448Z" fill="black"/>
<path d="M51.3754 48.1167L49.5181 81.9989L47.0959 82.1713L40.8237 62.525L41.8527 39.2004L42.0693 34.2725L44.8583 36.7598L46.2356 37.9855L47.3125 35.0089L49.3151 36.9042L51.3754 48.1167Z" fill="#F9A826"/>
<path opacity="0.1" d="M43.3592 82.1701C43.2767 82.3916 43.214 82.6212 43.1721 82.8557C41.4096 82.5602 39.6978 81.9795 38.0938 81.1329L38.0605 81.1142L38.0716 80.899L38.0778 80.7867L38.6932 79.541C38.6932 79.541 43.6546 81.3855 43.3592 82.1701Z" fill="black"/>
<path opacity="0.1" d="M47.7295 82.861C47.279 82.9442 46.8245 83.0004 46.3683 83.0294C46.3412 82.3611 46.3252 81.9013 46.3252 81.9013L47.6939 81.6019L47.7295 82.861Z" fill="black"/>
<path opacity="0.1" d="M51.3233 82.0591C50.4482 82.3063 49.0967 82.5843 47.8869 82.4106L47.8696 81.5632L51.1706 80.8441C51.1706 80.8441 51.2617 81.5057 51.3233 82.0591Z" fill="black"/>
<path opacity="0.1" d="M47.8649 82.5657C42.8186 83.5013 38.1969 80.8188 38.1969 80.8188L38.2412 79.9099C38.2412 79.9099 38.3557 69.6063 38.0381 68.8163C37.7206 68.0264 37.4732 64.0207 37.6529 63.4059C37.8326 62.7911 36.9969 53.5714 36.9969 53.5714L36.8615 49.8289L31.9062 47.649L34.1217 42.6342C34.4209 41.9311 34.6783 41.2078 34.8922 40.4689C35.2774 39.1671 37.0658 37.888 37.0658 37.888C37.0658 37.888 38.8997 36.6102 39.6246 36.6583C40.3496 36.7064 41.2998 35.5276 41.2998 35.5276C42.0013 33.5855 42.6364 34.465 42.6364 34.465C42.6364 34.5572 42.6364 34.465 42.602 34.7524C42.3558 36.8842 46.5824 43.6206 46.6427 43.7395L47.0452 54.3867L47.4526 67.8607L47.8649 82.5657Z" fill="black"/>
<path d="M47.7294 82.5657C42.6831 83.5013 38.0602 80.8188 38.0602 80.8188L38.1057 79.9099C38.1057 79.9099 38.2202 69.6062 37.9014 68.8163C37.5826 68.0264 37.3365 64.0207 37.5174 63.4059C37.6983 62.791 36.8614 53.5713 36.8614 53.5713L36.7248 49.8289L31.7671 47.6409L33.9825 42.6261C34.2811 41.9227 34.5385 41.1995 34.753 40.4609C35.137 39.159 36.9266 37.8799 36.9266 37.8799C36.9266 37.8799 38.7605 36.6022 39.4842 36.6503C40.208 36.6984 41.1594 35.5195 41.1594 35.5195C41.8622 33.5775 42.6363 34.4569 42.6363 34.4569C42.6363 34.5492 42.5625 34.5906 42.6019 34.7443C43.1434 36.812 46.4469 43.6125 46.5072 43.7315L46.9146 54.3786L47.322 67.8526L47.7294 82.5657Z" fill="white"/>
<path opacity="0.1" d="M46.3695 44.0348C45.8267 43.7889 42.9515 40.2243 42.9515 40.2243V39.413C42.8469 39.1456 42.2253 39.3087 41.7207 39.4958L41.9373 34.5679L42.1835 34.7897C42.7226 36.8561 46.3067 43.9159 46.3695 44.0348Z" fill="black"/>
<path d="M46.5059 43.7394C45.9619 43.4935 43.0868 39.9289 43.0868 39.9289V39.1175C42.9821 38.8502 42.3606 39.0133 41.856 39.2004L42.0738 34.2725L42.32 34.4943C42.8603 36.5607 46.4456 43.6218 46.5059 43.7394Z" fill="white"/>
<path opacity="0.1" d="M38.1969 61.5172C38.2645 61.5172 41.7059 61.1243 41.7059 61.1243C41.7059 61.1243 43.7896 65.5737 43.653 66.6564C43.5164 67.739 43.269 68.6973 42.4308 68.5276C41.5927 68.3578 37.9199 68.6612 37.9199 68.6612L38.1969 61.5172Z" fill="black"/>
<path d="M38.0601 61.2218C38.1278 61.2218 41.5692 60.8289 41.5692 60.8289C41.5692 60.8289 43.6517 65.2797 43.5163 66.3609C43.3809 67.4422 43.1311 68.4019 42.2941 68.2322C41.4572 68.0624 37.7832 68.3658 37.7832 68.3658L38.0601 61.2218Z" fill="white"/>
<path d="M40.6539 59.1328C40.6539 59.1328 43.8121 60.976 43.8798 61.5386C43.9475 62.1013 42.2724 61.2927 41.9105 61.1951C41.6724 61.1328 41.4299 61.0917 41.1856 61.0722L38.772 61.143L40.6539 59.1328Z" fill="#CF6F80"/>
<path opacity="0.1" d="M45.4881 44.2647C45.6716 44.2647 45.8204 44.1032 45.8204 43.9038C45.8204 43.7045 45.6716 43.543 45.4881 43.543C45.3045 43.543 45.1558 43.7045 45.1558 43.9038C45.1558 44.1032 45.3045 44.2647 45.4881 44.2647Z" fill="black"/>
<path d="M45.4881 44.1177C45.6716 44.1177 45.8204 43.9562 45.8204 43.7569C45.8204 43.5576 45.6716 43.396 45.4881 43.396C45.3045 43.396 45.1558 43.5576 45.1558 43.7569C45.1558 43.9562 45.3045 44.1177 45.4881 44.1177Z" fill="#3F3D56"/>
<path opacity="0.1" d="M46.0999 59.8867C46.2834 59.8867 46.4322 59.7251 46.4322 59.5258C46.4322 59.3265 46.2834 59.1649 46.0999 59.1649C45.9164 59.1649 45.7676 59.3265 45.7676 59.5258C45.7676 59.7251 45.9164 59.8867 46.0999 59.8867Z" fill="black"/>
<path d="M46.0999 59.7382C46.2834 59.7382 46.4322 59.5767 46.4322 59.3774C46.4322 59.1781 46.2834 59.0165 46.0999 59.0165C45.9164 59.0165 45.7676 59.1781 45.7676 59.3774C45.7676 59.5767 45.9164 59.7382 46.0999 59.7382Z" fill="#3F3D56"/>
<path opacity="0.1" d="M45.8191 52.0756C46.0027 52.0756 46.1515 51.9141 46.1515 51.7148C46.1515 51.5155 46.0027 51.3539 45.8191 51.3539C45.6356 51.3539 45.4868 51.5155 45.4868 51.7148C45.4868 51.9141 45.6356 52.0756 45.8191 52.0756Z" fill="black"/>
<path d="M45.8191 51.9287C46.0027 51.9287 46.1515 51.7671 46.1515 51.5678C46.1515 51.3685 46.0027 51.2069 45.8191 51.2069C45.6356 51.2069 45.4868 51.3685 45.4868 51.5678C45.4868 51.7671 45.6356 51.9287 45.8191 51.9287Z" fill="#3F3D56"/>
<path d="M53.4801 60.9973C53.4801 60.9973 53.7066 61.3662 53.4801 61.5386C53.2536 61.711 53.5023 62.128 53.5023 62.128C53.5023 62.128 52.9373 62.4876 53.1859 62.811C53.4346 63.1345 53.277 64.5954 53.277 64.5954L52.5976 65.817C52.5976 65.817 52.6382 66.6042 52.6407 67.6681C52.6407 69.3282 52.5508 71.6618 52.0536 72.7257L52.1225 81.4549C52.1225 81.4549 49.7434 82.3985 47.7519 82.1112L47.4565 68.1039C47.4565 68.1039 47.8873 60.1606 48.0461 58.6369C48.139 57.8459 48.1769 57.0483 48.1593 56.2511C48.1593 56.2511 48.0916 53.8667 47.8639 52.76C47.8639 52.76 47.6178 47.9657 47.5932 46.6385C47.5821 46.0036 47.6128 44.1511 47.6473 42.3895C47.6855 40.4635 47.7285 38.6471 47.7285 38.6471L47.2793 34.787C47.2793 34.787 47.7285 34.7376 47.8639 34.9341C47.9246 34.9956 47.9905 35.0506 48.0609 35.0985C48.8363 35.6678 51.576 37.4188 51.576 37.4188C51.576 37.4188 53.0924 38.0737 53.4555 39.012C53.8186 39.9502 54.0709 40.6158 54.2469 40.8832C54.4229 41.1505 54.5189 42.4069 54.5189 42.4069C54.5189 42.4069 55.0408 44.7191 55.4482 45.1108C55.8556 45.5024 56.1534 47.9937 56.1534 47.9937L52.5533 51.0679C52.5533 51.0679 52.237 56.1816 52.1693 56.3794C52.1016 56.5772 53.4801 60.9973 53.4801 60.9973Z" fill="white"/>
<path d="M53.6165 60.9974C53.6165 60.9974 53.8418 61.3663 53.6165 61.5387C53.3913 61.7111 53.6375 62.1281 53.6375 62.1281C53.6375 62.1281 53.0762 62.4917 53.3224 62.8151C53.5685 63.1386 53.4135 64.5995 53.4135 64.5995L52.7341 65.8211C52.7341 65.8211 52.7747 66.6083 52.7784 67.6722C52.7784 69.3323 52.6885 71.6659 52.1913 72.7299L52.259 81.459C52.259 81.459 49.8761 82.4027 47.8871 82.1153L47.593 68.108C47.593 68.108 48.0238 60.1647 48.1825 58.641C48.2756 57.85 48.313 57.0524 48.2945 56.2552C48.2945 56.2552 48.2268 53.8708 48.0004 52.7641C48.0004 52.7641 47.7542 47.9698 47.7284 46.6426C47.7173 46.0077 47.7493 44.1552 47.7825 42.3936C47.8207 40.4676 47.8638 38.6512 47.8638 38.6512L47.2705 34.739C47.2705 34.739 47.8638 34.739 48.0004 34.9382C48.0605 35.0004 48.1265 35.0555 48.1973 35.1026C48.9727 35.6719 51.7137 37.4229 51.7137 37.4229C51.7137 37.4229 53.2288 38.0778 53.5919 39.0161C53.955 39.9543 54.2073 40.6199 54.3846 40.8873C54.5618 41.1546 54.6553 42.411 54.6553 42.411C54.6553 42.411 55.1772 44.7232 55.5846 45.1149C55.992 45.5065 56.2862 47.9925 56.2862 47.9925L52.6861 51.0666C52.6861 51.0666 52.3697 56.1804 52.3008 56.3782C52.2319 56.576 53.6165 60.9974 53.6165 60.9974Z" fill="white"/>
<path opacity="0.1" d="M49.3051 39.7858L49.6301 40.815L47.9192 42.6862C47.9574 40.7615 48.0005 38.9438 48.0005 38.9438L47.4072 35.0316C47.4072 35.0316 48.0005 35.0316 48.1371 35.2308C48.197 35.2928 48.263 35.3475 48.334 35.3938L49.7888 39.9516L49.3051 39.7858Z" fill="black"/>
<path d="M49.1684 39.4905L49.4946 40.5197L47.7838 42.3909C47.8219 40.4649 47.865 38.6485 47.865 38.6485L47.2705 34.7363C47.2705 34.7363 47.865 34.7363 48.0004 34.9355C48.0607 34.9974 48.1267 35.0524 48.1973 35.0999L49.6534 39.6563L49.1684 39.4905Z" fill="white"/>
<path opacity="0.1" d="M49.1684 29.3071C49.1694 29.7887 49.0996 30.2675 48.9616 30.7252C48.9383 30.7291 48.9146 30.728 48.8918 30.7218C48.8689 30.7156 48.8475 30.7045 48.8287 30.6891C48.7967 29.4862 48.2514 28.3568 47.5806 27.3958C47.3923 27.1056 47.164 26.8487 46.9037 26.6339C46.6405 26.4193 46.3132 26.3188 45.9855 26.3519C45.6163 26.4067 45.2901 26.6794 44.9172 26.7141C44.4248 26.7582 43.9842 26.388 43.4956 26.3693C43.2969 26.3714 43.101 26.4194 42.9208 26.5102C42.7406 26.601 42.5803 26.7325 42.4506 26.8959C42.1939 27.2257 42.0032 27.6099 41.8906 28.024C41.6971 28.652 41.5917 29.308 41.578 29.97C41.5718 30.3443 41.5386 30.8134 41.2186 30.9498C41.2427 30.6745 41.2139 30.3969 41.134 30.1343C41.0541 29.8718 40.9249 29.6302 40.7546 29.4247L40.7472 29.4167C40.7472 29.3793 40.7472 29.3445 40.7472 29.3071C40.7376 28.7 40.8395 28.0969 41.0468 27.5329C41.2542 26.969 41.5629 26.4556 41.9549 26.0225C42.3468 25.5895 42.8143 25.2456 43.33 25.0108C43.8457 24.7761 44.3992 24.6552 44.9584 24.6552C45.5176 24.6552 46.0711 24.7761 46.5868 25.0108C47.1025 25.2456 47.57 25.5895 47.962 26.0225C48.3539 26.4556 48.6626 26.969 48.87 27.5329C49.0773 28.0969 49.1792 28.7 49.1696 29.3071H49.1684Z" fill="black"/>
<path d="M46.7019 22.0455C46.0624 21.7188 45.3349 21.657 44.6563 21.8717C44.3154 21.9813 43.9942 22.1591 43.6483 22.2486C42.9098 22.4424 42.0483 22.2326 41.4144 22.7017C41.0624 22.9691 40.8507 23.3914 40.6538 23.8017L40.1614 24.8202C39.8931 25.3776 39.6224 25.9443 39.5103 26.5578C39.3983 27.1713 39.466 27.8583 39.8242 28.3514C40.0851 28.711 40.4704 28.9369 40.7535 29.275C40.9231 29.4807 41.0517 29.7222 41.1313 29.9844C41.211 30.2466 41.2399 30.5238 41.2162 30.7987C41.5375 30.6651 41.5683 30.1946 41.5756 29.8203C41.5894 29.1583 41.6947 28.5023 41.8883 27.8743C42.0006 27.46 42.1913 27.0758 42.4483 26.7462C42.5781 26.5829 42.7384 26.4515 42.9185 26.3607C43.0987 26.2699 43.2946 26.2218 43.4932 26.2196C43.9856 26.2383 44.4274 26.6072 44.9148 26.5631C45.2841 26.5297 45.6115 26.2557 45.9832 26.2022C46.3109 26.1686 46.6384 26.2691 46.9013 26.4843C47.1616 26.6987 47.3895 26.9557 47.5771 27.2461C48.2491 28.2071 48.7943 29.3338 48.8263 30.5394C48.9654 30.6504 49.166 30.506 49.2349 30.3349C49.3039 30.1638 49.3063 29.9634 49.3937 29.8003C49.4946 29.6118 49.6879 29.5116 49.8393 29.3699C50.2233 29.0104 50.3193 28.4049 50.3045 27.8556C50.2897 27.3062 50.1913 26.7489 50.2873 26.2089C50.3451 25.8774 50.4756 25.5674 50.547 25.2399C50.6184 24.9124 50.627 24.5449 50.4584 24.2629C50.2122 23.8485 49.694 23.767 49.2423 23.7282C48.7291 23.6801 48.27 23.7416 47.9426 23.2725C47.7889 23.0276 47.616 22.7978 47.4257 22.5855C47.3604 22.516 46.7019 22.0749 46.7019 22.0455Z" fill="#512E4E"/>
<path opacity="0.1" d="M33.324 50.2312L32.0378 47.6489L31.6304 51.6333C31.6304 51.6333 31.8568 53.4029 31.8113 53.6742C31.7658 53.9455 32.7393 56.3781 32.7393 56.3781C32.7393 56.3781 35.9554 62.5985 37.2687 62.9193L41.7057 59.4763L40.5291 57.8537C40.5291 57.8537 40.1217 57.6813 40.0195 57.8537C40.0195 57.8537 37.8349 53.7718 37.6084 53.4764C37.3819 53.181 37.4262 52.5916 37.4262 52.5916C37.4262 52.5916 37.0865 52.1986 37.1998 51.8297C37.313 51.4608 36.5437 50.1817 36.5437 50.1817L37.2453 49.4693L33.324 50.2312Z" fill="black"/>
<path d="M32.1055 47.3549L31.7658 47.6489L31.3584 51.6332C31.3584 51.6332 31.5849 53.4029 31.5393 53.6742C31.4938 53.9455 32.4686 56.3781 32.4686 56.3781C32.4686 56.3781 35.6835 62.5985 36.9967 62.9193L41.435 59.4763L40.2571 57.8537C40.2571 57.8537 39.8497 57.6812 39.7476 57.8537C39.7476 57.8537 37.5629 53.7718 37.3364 53.4764C37.11 53.181 37.1555 52.5916 37.1555 52.5916C37.1555 52.5916 36.8158 52.1986 36.929 51.8297C37.0423 51.4608 36.2718 50.1817 36.2718 50.1817L36.9733 49.4693L32.1055 47.3549Z" fill="white"/>
<path opacity="0.1" d="M53.186 62.9635C53.4321 63.2882 53.277 64.7464 53.277 64.7464L52.5976 65.9681C52.5976 65.9681 52.6382 66.7567 52.6407 67.8192L51.4985 68.2068C51.3953 68.2418 51.2859 68.2495 51.1793 68.2293C51.0728 68.209 50.9723 68.1614 50.8862 68.0904C50.8001 68.0193 50.7308 67.927 50.6843 67.821C50.6377 67.715 50.6151 67.5985 50.6185 67.4811L50.8154 60.583L53.4801 61.6897C53.2536 61.8608 53.5023 62.2805 53.5023 62.2805C53.5023 62.2805 52.9373 62.6387 53.186 62.9635Z" fill="black"/>
<path d="M53.3224 62.815C53.5686 63.1398 53.4135 64.5994 53.4135 64.5994L52.7341 65.821C52.7341 65.821 52.7747 66.6082 52.7784 67.6721L51.6153 68.0664C51.5142 68.1005 51.4071 68.1079 51.3028 68.088C51.1985 68.0681 51.1002 68.0214 51.0159 67.9518C50.9316 67.8823 50.8638 67.7918 50.8182 67.6881C50.7726 67.5843 50.7505 67.4703 50.7537 67.3554L50.9519 60.4359L53.6178 61.5426C53.3901 61.7137 53.6387 62.132 53.6387 62.132C53.6387 62.132 53.0763 62.4916 53.3224 62.815Z" fill="white"/>
<path d="M54.205 59.527C54.205 59.527 54.0241 60.7821 53.5711 60.8556C53.1182 60.9291 52.9151 62.8859 52.4634 62.8164C52.0117 62.7469 52.3108 60.9973 52.3268 60.6578C52.3428 60.3183 51.8345 58.9122 52.2148 58.5928C52.5951 58.2733 53.7988 58.5928 53.7988 58.5928L54.205 59.527Z" fill="#CF6F80"/>
<path opacity="0.1" d="M55.1686 49.8623L56.0228 47.9911C56.0228 47.9911 56.3625 49.4172 56.3625 50.1791C56.3625 50.9409 56.8375 51.0158 56.8375 51.0158C56.8375 51.0158 57.3582 51.684 57.0837 52.1706C56.8092 52.6571 56.6985 53.868 56.6985 53.868C56.6985 53.868 56.7883 56.179 56.3809 56.4984C55.9735 56.8178 55.8886 57.581 55.8886 57.581C55.8886 57.581 55.1403 59.0312 55.1637 59.376C55.187 59.7209 54.1224 62.0559 54.1224 62.0559C54.1224 62.0559 54.643 59.1542 51.6091 57.9005C51.6091 57.9005 51.5857 56.9154 51.8122 56.6454C52.0386 56.3754 52.3919 56.2525 52.1703 54.8878C51.9488 53.5232 52.1063 51.8926 52.1063 51.5651C52.1063 51.2376 52.7857 49.1953 52.7857 49.1953L55.1686 49.8623Z" fill="black"/>
<path d="M55.5378 47.7238L56.2837 47.9911C56.2837 47.9911 56.6246 49.4172 56.6246 50.179C56.6246 50.9409 57.0997 51.0157 57.0997 51.0157C57.0997 51.0157 57.6203 51.684 57.3459 52.1705C57.0714 52.6571 56.9619 53.868 56.9619 53.868C56.9619 53.868 57.0517 56.1789 56.6443 56.4984C56.2369 56.8178 56.1458 57.581 56.1458 57.581C56.1458 57.581 55.3987 59.0312 55.4221 59.376C55.4455 59.7209 54.3796 62.0559 54.3796 62.0559C54.3796 62.0559 54.9015 59.1542 51.8663 57.9004C51.8663 57.9004 51.8442 56.9154 52.0706 56.6454C52.2971 56.3754 52.6503 56.2524 52.4288 54.8878C52.2072 53.5232 52.3648 51.8925 52.3648 51.5651C52.3648 51.2376 53.0442 49.1953 53.0442 49.1953L55.5378 47.7238Z" fill="white"/>
<path opacity="0.1" d="M39.0635 96.2241C39.0635 96.2241 40.2524 95.4128 41.0328 96.0023C41.8131 96.5917 39.0635 96.2241 39.0635 96.2241Z" fill="black"/>
<path opacity="0.1" d="M48.3018 93.7153C48.3018 93.7153 49.3541 93.5683 50.2378 94.6015C51.1215 95.6347 48.3018 93.7153 48.3018 93.7153Z" fill="black"/>
<g opacity="0.1">
<path d="M49.8413 29.0771C49.6899 29.2188 49.4954 29.3204 49.3945 29.5088C49.3083 29.6706 49.3059 29.8697 49.2369 30.0435C49.168 30.2172 48.9674 30.3589 48.8283 30.2493C48.7963 29.0464 48.2498 27.917 47.579 26.9546C47.3915 26.6642 47.1635 26.4072 46.9033 26.1928C46.6399 25.9777 46.312 25.8772 45.9839 25.9108C45.6147 25.9656 45.2897 26.2382 44.9168 26.2717C44.4245 26.3171 43.9826 25.9469 43.494 25.9282C43.2954 25.9303 43.0996 25.9785 42.9196 26.0696C42.7396 26.1606 42.5796 26.2924 42.4503 26.4561C42.1933 26.7852 42.0026 27.169 41.8903 27.5828C41.6969 28.2108 41.5915 28.8669 41.5776 29.5289C41.5703 29.9018 41.5383 30.3669 41.2207 30.5059C41.2281 30.6047 41.2281 30.7039 41.2207 30.8026C41.5407 30.669 41.5727 30.1985 41.5801 29.8243C41.5938 29.1622 41.6992 28.5062 41.8927 27.8782C42.0051 27.464 42.1958 27.0797 42.4527 26.7501C42.5823 26.5869 42.7424 26.4555 42.9223 26.3647C43.1023 26.2739 43.298 26.2258 43.4965 26.2235C43.9888 26.2422 44.4319 26.6111 44.9193 26.567C45.2885 26.5336 45.6159 26.2596 45.9864 26.2062C46.3145 26.1725 46.6424 26.2731 46.9058 26.4882C47.166 26.7026 47.394 26.9596 47.5815 27.25C48.2523 28.211 48.7988 29.3378 48.8308 30.5433C48.9699 30.6543 49.1705 30.5099 49.2394 30.3389C49.3083 30.1678 49.3108 29.9673 49.3969 29.8042C49.4979 29.6158 49.6923 29.5155 49.8437 29.3738C50.2277 29.0143 50.3237 28.4088 50.309 27.8595C50.309 27.8421 50.309 27.8248 50.309 27.8087C50.2856 28.2845 50.1687 28.7697 49.8413 29.0771Z" fill="black"/>
<path d="M40.7557 28.9822C40.4726 28.6441 40.0861 28.4182 39.8264 28.06C39.6077 27.7429 39.4828 27.3612 39.4682 26.9653C39.4295 27.46 39.5567 27.9532 39.8264 28.354C40.0861 28.7136 40.4726 28.9395 40.7557 29.2776C41.0275 29.6084 41.1906 30.0276 41.2197 30.4698C41.2385 30.2007 41.2071 29.9303 41.1274 29.6746C41.0477 29.419 40.9212 29.1835 40.7557 28.9822Z" fill="black"/>
<path d="M50.5493 24.9471C50.4766 25.2746 50.3474 25.586 50.2883 25.9162C50.2533 26.1368 50.2405 26.3608 50.2502 26.5844C50.2543 26.4571 50.267 26.3302 50.2883 26.2049C50.3474 25.8734 50.4766 25.5633 50.5493 25.2358C50.5916 25.0552 50.6053 24.8681 50.5899 24.6825C50.5822 24.7717 50.5687 24.8601 50.5493 24.9471Z" fill="black"/>
</g>
<path opacity="0.1" d="M16.887 101.659C23.5106 101.659 28.88 100.722 28.88 99.567C28.88 98.4117 23.5106 97.4752 16.887 97.4752C10.2635 97.4752 4.89404 98.4117 4.89404 99.567C4.89404 100.722 10.2635 101.659 16.887 101.659Z" fill="#F9A826"/>
<path d="M17.2732 59.4963H16.5015V78.3648H17.2732V59.4963Z" fill="#535461"/>
<path d="M22.1226 78.3073L22.0746 79.1574L22.0057 80.3603L21.9774 80.8602L21.9097 82.0631L21.8801 82.563L21.8112 83.7659L21.0334 97.4083C20.9995 97.9953 20.761 98.5462 20.3664 98.949C19.9717 99.3517 19.4506 99.576 18.909 99.5762H14.8646C14.3231 99.576 13.8021 99.3516 13.4076 98.9489C13.0132 98.5461 12.7749 97.9952 12.7414 97.4083L11.9672 83.7565L11.8983 82.5536L11.87 82.0537L11.8011 80.8508L11.7728 80.3509L11.7038 79.148L11.6546 78.2979C11.6461 78.1343 11.6684 77.9706 11.7202 77.8166C11.772 77.6627 11.8523 77.522 11.956 77.4029C12.0597 77.2839 12.1848 77.1892 12.3234 77.1245C12.4621 77.0598 12.6114 77.0266 12.7623 77.0269H21.0346C21.1849 77.0283 21.3334 77.0631 21.4708 77.1292C21.6083 77.1954 21.7318 77.2914 21.8338 77.4114C21.9357 77.5314 22.014 77.6728 22.0636 77.8269C22.1133 77.9809 22.1334 78.1445 22.1226 78.3073Z" fill="#3F3D56"/>
<path d="M22.0744 79.1573L22.0055 80.3563H11.7677L11.6987 79.1573H22.0744Z" fill="#9D9CB5"/>
<path d="M21.9776 80.8562L21.9099 82.0564H11.8653L11.7964 80.8562H21.9776Z" fill="#9D9CB5"/>
<path d="M21.8803 82.5576L21.8126 83.7565H11.9625L11.8936 82.5576H21.8803Z" fill="#9D9CB5"/>
<path d="M10.5213 66.5681C15.0149 70.0994 16.8907 75.6221 16.8907 75.6221C16.8907 75.6221 11.4751 75.4203 6.98024 71.8891C2.48534 68.3578 0.613281 62.8364 0.613281 62.8364C0.613281 62.8364 6.02637 63.0369 10.5213 66.5681Z" fill="#F9A826"/>
<path d="M0.609375 62.8364C0.609375 62.8364 6.2317 66.2246 8.03483 69.0301C9.83796 71.8356 16.8905 75.6221 16.8905 75.6221" stroke="#535461" stroke-width="2" stroke-miterlimit="10"/>
<path d="M13.4222 59.4549C15.8678 61.3756 16.8906 64.3816 16.8906 64.3816C16.8906 64.3816 13.9428 64.272 11.496 62.3513C9.04915 60.4306 8.02881 57.4233 8.02881 57.4233C8.02881 57.4233 10.9754 57.5329 13.4222 59.4549Z" fill="#F9A826"/>
<path d="M8.02881 57.4233C8.02881 57.4233 11.0886 59.2678 12.0695 60.7942C13.0505 62.3206 16.8906 64.3816 16.8906 64.3816" stroke="#535461" stroke-width="2" stroke-miterlimit="10"/>
<path d="M20.4415 64.2292C17.6316 67.5827 17.0371 71.9653 17.0371 71.9653C17.0371 71.9653 20.9991 70.9094 23.8065 67.5546C26.614 64.1998 27.211 59.8185 27.211 59.8185C27.211 59.8185 23.2514 60.8757 20.4415 64.2292Z" fill="#F9A826"/>
<path d="M27.2134 59.8198C27.2134 59.8198 23.553 63.2575 22.6225 65.6259C21.692 67.9943 17.0371 71.9653 17.0371 71.9653" stroke="#535461" stroke-width="2" stroke-miterlimit="10"/>
<path d="M123.591 63.049C123.591 63.049 121.558 52.0703 122.336 50.7044C122.336 50.7044 122.365 49.4346 122.318 47.816C122.318 47.7545 122.318 47.693 122.318 47.6302C122.455 47.7293 122.597 47.8186 122.745 47.8975C123.462 48.2974 124.284 48.4128 125.071 48.2237L124.456 47.4792C124.308 47.3014 124.154 47.109 124.122 46.8737C124.09 46.6385 124.179 46.4286 124.255 46.2188C124.84 44.6149 124.871 42.598 123.744 41.3737C122.793 40.3446 122.562 39.016 121.529 38.0764C120.774 37.3881 120.36 36.3789 119.968 35.4032C119.637 34.5786 119.304 33.7472 119.114 32.8731C118.966 32.1901 118.907 31.4831 118.704 30.8161C118.501 30.1492 118.121 29.5009 117.526 29.2029C117.315 29.0973 117.08 29.0371 116.886 28.8968C116.633 28.711 116.48 28.4089 116.297 28.1443C115.365 26.8077 112.245 27.595 110.768 28.1376C110.366 28.2743 109.995 28.498 109.675 28.7952L109.689 28.7711C109.7 28.7511 109.713 28.731 109.725 28.711C109.564 28.853 109.424 29.0222 109.312 29.2122C109.097 29.5824 109.007 30.0142 108.827 30.4151C108.61 30.8896 107.405 32.2142 107.924 32.7475C107.96 32.7833 108.002 32.8122 108.047 32.833C108.241 32.9209 108.455 32.9442 108.662 32.8998L108.64 32.9573C108.463 33.4278 108.372 33.9313 108.373 34.4396C108.373 36.6356 110.041 38.4159 112.1 38.4159C112.487 38.4163 112.872 38.3518 113.241 38.2247C113.249 38.2755 113.257 38.3263 113.265 38.3771C113.265 38.3972 113.271 38.4172 113.274 38.4373L113.209 38.5362C113.205 38.5301 113.202 38.5243 113.198 38.5188L111.265 41.4512C110.97 41.6771 109.269 43.0137 109.173 44.0161C109.072 45.1135 108.971 46.3979 108.971 46.3979L108.957 46.6732C108.873 46.7499 108.774 46.8057 108.668 46.8368C108.562 46.868 108.451 46.8737 108.342 46.8537C107.739 46.7468 107.739 49.2595 107.739 49.2595C107.739 49.2595 107.338 49.6605 107.062 49.313C106.786 48.9655 106.058 50.143 106.058 50.143L101.491 50.3568L101.387 50.3635L101.141 49.5362C101.114 49.4489 101.057 49.3765 100.982 49.3347C100.906 49.2929 100.819 49.2851 100.738 49.313C100.719 49.3198 100.701 49.3283 100.683 49.3384L100.666 49.3491L100.634 49.3731L100.618 49.3892C100.609 49.3979 100.6 49.4072 100.593 49.4172L100.578 49.4359L100.571 49.444C100.542 49.4866 100.524 49.5359 100.516 49.5879C100.508 49.6399 100.512 49.6932 100.526 49.7434L100.738 50.4531C99.8569 50.6455 98.9559 51.1882 99.6907 52.6825L95.9663 51.9353L97.1713 53.034L103.392 54.4281C103.309 54.5884 103.363 54.821 103.621 55.1485C104.728 56.5612 106.747 56.9448 107.559 57.0437C107.774 57.5649 108.042 58.0581 108.358 58.514L108.288 59.9214C108.288 59.9214 106.231 70.6487 105.855 71.1927C106.045 70.9588 106.219 70.71 106.375 70.4483C105.778 72.6523 104.944 75.6689 104.725 76.1207C104.373 76.8424 104.047 79.7629 104.448 79.95C104.571 80.0074 104.923 79.9794 105.425 79.938V80.1799L105.403 89.3474C105.403 89.3474 105.504 94.9704 105.227 95.5064C104.95 96.0424 104.876 97.1664 104.876 97.1664C104.876 97.1664 103.768 99.3838 102.891 100.275C102.885 100.282 102.878 100.288 102.871 100.294L102.844 100.085C102.844 100.085 101.789 101.532 99.4556 101.45C99.4556 101.45 98.0513 102.442 100.134 102.495C102.216 102.549 104.876 102.415 104.876 102.415C104.876 102.415 106.733 99.341 108.289 99.742V102.072H108.765V99.7046C108.986 99.5466 109.175 99.3417 109.321 99.102C109.467 98.8624 109.566 98.5931 109.613 98.3105C109.654 98.0192 109.624 97.7214 109.527 97.4465C109.429 97.1715 109.267 96.929 109.057 96.7427C108.963 96.65 108.887 96.5371 108.835 96.411C108.782 96.285 108.755 96.1485 108.753 96.0103L108.736 96.0263C108.736 95.9795 108.725 95.9314 108.72 95.882C108.583 94.679 108.412 92.197 109.017 90.3606C109.845 87.8425 110.096 84.3353 109.493 82.2476C109.298 81.5802 109.138 80.9015 109.014 80.2146C108.999 80.1277 108.986 80.0449 108.973 79.9674C109.386 80.0279 109.794 80.1172 110.196 80.2347C111.593 80.653 114.649 80.7305 117.258 80.7078C117.264 80.7853 117.272 80.8669 117.28 80.9484C117.327 81.5151 117.424 82.0756 117.571 82.6218C117.898 83.6911 118.048 88.4052 118.048 88.4052C118.048 88.4052 118.47 92.2812 118.24 93.8584C118.117 94.7352 117.994 95.616 117.924 96.5008V96.5182C117.924 96.5182 117.232 98.6567 116.726 99.8182C116.714 99.8476 116.7 99.877 116.688 99.9051C116.553 99.9184 116.421 99.9503 116.293 100C116.293 100 115.615 101.47 114.939 101.713C114.263 101.957 114.487 102.757 116.017 102.463C117.547 102.169 119.857 101.929 119.857 101.929L119.957 100.429L120.427 99.7901L120.304 101.286L120.805 101.179L120.739 99.3597L121.508 98.3145C121.508 98.3145 122.437 97.4164 121.056 95.6494V95.6882C121.042 95.6628 121.028 95.636 121.012 95.6106V95.6026C120.783 95.2177 120.601 94.4999 120.934 93.2262C121.538 90.9246 121.888 88.8355 121.888 88.8355C121.888 88.8355 123.235 83.2393 121.616 80.5915H121.688C121.522 80.2189 121.405 79.8231 121.339 79.4153C121.331 79.3672 121.324 79.3178 121.317 79.267C122.515 79.1921 123.69 78.9569 124.649 78.449C124.645 78.4437 124.068 65.1634 123.591 63.049ZM108.386 53.7865V53.8132L108.14 53.8266L108.386 53.7865ZM107.542 53.9135C107.502 53.9232 107.464 53.9429 107.431 53.9709C107.325 54.1336 107.259 54.3225 107.238 54.5203L106.854 54.4267C106.854 54.4267 106.584 54.3639 106.197 54.2931L106.013 54.0926C106.518 54.0471 107.042 53.9803 107.542 53.9135Z" fill="url(#paint1_linear_1304_23619)"/>
<path d="M120.248 99.3784L120.101 101.272L120.592 101.165L120.518 99.1111L120.248 99.3784Z" fill="#1D2366"/>
<path d="M109.044 90.3859C108.452 92.217 108.619 94.6883 108.752 95.8886C108.801 96.3323 108.847 96.6023 108.847 96.6023C108.847 96.6023 107.962 98.7916 107.888 98.8745C107.814 98.9574 105.283 100.635 105.283 100.635L103.515 101.756C103.515 101.756 101.72 100.902 102.581 100.608C102.756 100.531 102.915 100.414 103.045 100.265C103.906 99.3757 104.988 97.1664 104.988 97.1664C104.988 97.1664 105.062 96.045 105.333 95.5117C105.603 94.9784 105.505 89.3741 105.505 89.3741L105.526 80.2386V79.0477L108.892 79.0745C108.913 79.4788 108.962 79.8808 109.037 80.2774C109.158 80.9619 109.315 81.6384 109.506 82.3036C110.1 84.3873 109.853 87.8772 109.044 90.3859Z" fill="#FFB0B1"/>
<path opacity="0.1" d="M108.847 96.6024C108.847 96.6024 107.962 98.7917 107.888 98.8746C107.814 98.9575 105.283 100.635 105.283 100.635L103.515 101.756C103.515 101.756 101.72 100.902 102.581 100.608C102.756 100.532 102.915 100.414 103.045 100.265L103.121 100.849L103.71 100.822L108.757 95.8914C108.801 96.3324 108.847 96.6024 108.847 96.6024Z" fill="black"/>
<path d="M108.785 96.0156L103.71 100.98L103.121 101.006L102.998 100.071C102.998 100.071 101.966 101.512 99.6747 101.431C99.6747 101.431 98.2986 102.419 100.338 102.473C102.378 102.526 104.982 102.392 104.982 102.392C104.982 102.392 106.801 99.3183 108.324 99.7193V102.041H108.791V99.6979C109.009 99.5389 109.194 99.3338 109.337 99.0949C109.479 98.8561 109.576 98.5883 109.621 98.3079C109.661 98.0189 109.633 97.7236 109.538 97.4501C109.443 97.1767 109.284 96.9345 109.078 96.7467C108.986 96.653 108.912 96.5397 108.862 96.414C108.812 96.2883 108.785 96.1527 108.785 96.0156Z" fill="#1D2366"/>
<path d="M120.715 93.2409C120.388 94.5106 120.566 95.2257 120.79 95.6093V95.6173C121.077 96.091 121.277 96.6207 121.379 97.1771L121.398 97.2974L119.089 100.953L117.836 101.488C117.836 101.488 115.821 100.74 116.189 100.527C116.282 100.474 116.426 100.196 116.591 99.8128C117.083 98.6567 117.762 96.5235 117.762 96.5235V96.5061C117.834 95.6253 117.947 94.7472 118.073 93.8731C118.298 92.2999 117.884 88.4386 117.884 88.4386C117.884 88.4386 117.737 83.7432 117.417 82.6753C117.272 82.1323 117.176 81.5755 117.13 81.0126C117.063 80.3443 117.049 79.7936 117.049 79.7936C117.049 79.7936 118.375 77.7887 120.807 79.954C121.002 80.1267 121.173 80.3283 121.316 80.5528C122.996 83.1484 121.643 88.8663 121.643 88.8663C121.643 88.8663 121.305 90.946 120.715 93.2409Z" fill="#FFB0B1"/>
<path opacity="0.1" d="M121.402 97.2973L119.093 100.953L117.84 101.487C117.84 101.487 115.825 100.74 116.193 100.526C116.286 100.474 116.43 100.196 116.595 99.8128C117.448 99.8047 117.889 100.687 117.889 100.687L118.97 100.5C118.97 100.5 120.395 97.4577 120.715 97.2719C121.035 97.0861 120.765 95.8832 120.765 95.8832V95.5771C120.773 95.5878 120.781 95.5999 120.79 95.6106V95.6186C121.078 96.0922 121.278 96.622 121.379 97.1784L121.402 97.2973Z" fill="black"/>
<path d="M117.963 100.766C117.963 100.766 117.348 99.5389 116.169 99.992C116.169 99.992 115.505 101.462 114.842 101.7C114.178 101.938 114.4 102.74 115.899 102.447C117.398 102.155 119.658 101.913 119.658 101.913L119.756 100.417L121.28 98.3092C121.28 98.3092 122.189 97.4151 120.837 95.6548V95.9609C120.837 95.9609 121.108 97.1638 120.788 97.3496C120.468 97.5353 119.048 100.579 119.048 100.579L117.963 100.766Z" fill="#1D2366"/>
<path opacity="0.1" d="M108.896 79.0719C108.917 79.4762 108.966 79.8782 109.041 80.2748C107.655 80.0543 106.369 80.1639 105.526 80.2361V79.0452L108.896 79.0719Z" fill="black"/>
<path opacity="0.1" d="M121.453 80.8856C121.453 80.8856 119.483 80.9898 117.135 81.0112C117.068 80.3429 117.054 79.7923 117.054 79.7923C117.054 79.7923 118.381 77.7874 120.813 79.9527C121.007 80.1253 121.178 80.3269 121.321 80.5514C121.359 80.6654 121.403 80.7769 121.453 80.8856Z" fill="black"/>
<path d="M121.452 80.645C121.452 80.645 112.827 81.0981 110.198 80.2975C107.569 79.4969 104.963 80.1906 104.571 80.0048C104.178 79.819 104.497 76.9093 104.841 76.1889C105.186 75.4685 107.076 68.1828 107.076 68.1828L108.896 57.8832L110.812 57.3098L110.947 57.2683L114.287 56.2686L116.733 55.5348C116.733 55.5348 121.599 76.1622 121.182 77.6832C121.03 78.2656 121.006 78.8784 121.11 79.4729C121.174 79.8789 121.289 80.2733 121.452 80.645Z" fill="#1D2366"/>
<path d="M102.555 50.8394C102.555 50.8394 100.832 52.8442 102.136 53.9616C103.441 55.079 104.299 54.0685 104.299 54.0685L102.555 50.8394Z" fill="#C7DAF5"/>
<path opacity="0.1" d="M102.555 50.8394C102.555 50.8394 100.832 52.8442 102.136 53.9616C103.441 55.079 104.299 54.0685 104.299 54.0685L102.555 50.8394Z" fill="black"/>
<path d="M116.476 37.658C116.476 37.658 116.274 37.8665 115.97 38.1739C115.537 38.6136 114.896 39.2565 114.327 39.7952C113.54 40.5396 112.89 41.0863 113.122 40.6198C113.355 40.1534 113.311 39.3407 113.195 38.5802C113.186 38.5294 113.179 38.4786 113.17 38.4292C113.075 37.8707 112.948 37.319 112.79 36.7772C112.79 36.7772 114.063 34.9915 114.767 34.2871C115.029 34.0198 115.212 33.9102 115.223 34.096C115.236 34.346 115.408 34.898 115.622 35.4834C115.628 35.5021 115.634 35.5195 115.642 35.5382C115.785 35.9391 115.946 36.3508 116.087 36.7063C116.304 37.2517 116.476 37.658 116.476 37.658Z" fill="#FFB0B1"/>
<path opacity="0.1" d="M115.642 35.5382C115.522 36.2367 115.232 36.8876 114.802 37.4227C114.371 37.9578 113.816 38.3576 113.195 38.5802C113.097 37.9701 112.962 37.3678 112.79 36.7772C112.79 36.7772 115.186 33.4157 115.223 34.096C115.232 34.354 115.419 34.926 115.642 35.5382Z" fill="black"/>
<path opacity="0.1" d="M112.956 39.4784L113.266 39.0039C113.266 39.0039 113.472 40.3645 114.228 39.7644C114.983 39.1643 115.02 44.2807 115.02 44.2807L114.209 57.45L108.348 57.0691L108.514 50.7056L109.178 47.4978L110.818 42.8345L111.794 41.2935L112.956 39.4784Z" fill="black"/>
<path d="M115.02 44.3623L114.282 56.2699L114.204 57.5316L110.936 57.3191L110.813 57.3111L108.352 57.1507L108.518 50.7859L109.181 47.5781L110.822 42.9148L111.798 41.3738L112.96 39.552L113.27 39.0789C113.27 39.0789 113.475 40.4395 114.231 39.8394L114.247 39.8273C114.986 39.3194 115.02 44.3623 115.02 44.3623Z" fill="#1D2366"/>
<path d="M109.264 46.4634C109.264 46.4634 108.97 47.1317 108.379 47.0234C107.788 46.9151 107.789 49.4292 107.789 49.4292C107.789 49.4292 107.397 49.8302 107.126 49.4827C106.855 49.1352 106.141 50.31 106.141 50.31L101.668 50.5239C101.668 50.5239 103.659 51.5116 103.269 54.5002C103.269 54.5002 110.026 54.0458 110.247 53.3521C110.469 52.6584 109.264 46.4634 109.264 46.4634Z" fill="white"/>
<path opacity="0.03" d="M109.264 46.4634C109.264 46.4634 108.97 47.1317 108.379 47.0234C107.788 46.9151 107.789 49.4292 107.789 49.4292C107.789 49.4292 107.397 49.8302 107.126 49.4827C106.855 49.1352 106.141 50.31 106.141 50.31L101.668 50.5239C101.668 50.5239 103.659 51.5116 103.269 54.5002C103.269 54.5002 110.026 54.0458 110.247 53.3521C110.469 52.6584 109.264 46.4634 109.264 46.4634Z" fill="black"/>
<path d="M96.2651 52.0944L97.4443 53.1877L107.15 55.4024L105.947 54.0685L96.2651 52.0944Z" fill="white"/>
<path d="M112.974 39.8995C112.813 40.1668 112.352 41.5354 111.966 42.7303C111.645 43.7261 111.377 44.6016 111.377 44.6016C111.377 44.6016 110.75 49.031 110.43 49.8316C110.11 50.6322 110.284 53.7544 110.284 53.7544L109.091 61.4651C109.091 61.4651 108.551 65.4415 107.716 67.8165C106.893 70.1542 105.976 71.2502 105.948 71.285C106.317 70.7423 108.329 60.0577 108.329 60.0577L108.994 46.5824C108.994 46.5824 109.091 45.3019 109.19 44.2073C109.288 43.1126 111.282 41.6183 111.282 41.6183L113.205 38.6498C113.398 38.9305 113.269 39.4196 112.974 39.8995Z" fill="white"/>
<path d="M107.961 57.2175C107.961 57.2175 105.131 57.0838 103.759 55.2955C102.388 53.5071 106.929 54.5817 106.929 54.5817L108.109 54.8758L107.961 57.2175Z" fill="#FFB0B1"/>
<path opacity="0.1" d="M121.182 77.6845C121.03 78.2669 121.006 78.8797 121.11 79.4742C118.022 79.7121 114.719 78.8059 114.719 78.8059C114.103 79.4207 112.482 80.3269 112.482 80.3269L111.598 68.4314C111.034 66.8275 110.812 58.4244 110.812 58.4244C110.812 58.4244 110.862 57.9847 110.935 57.3258C110.935 57.3097 110.935 57.2924 110.941 57.2763C111.162 55.4359 111.598 51.9808 111.813 51.5144C112.108 50.8728 110.904 49.166 110.904 49.166L111.452 44.0937L111.518 43.4815C112.673 42.9215 113.558 41.1332 113.558 41.1332L114.237 39.8407C114.976 39.3261 115.014 44.369 115.014 44.369L114.275 56.2766L116.722 55.5428C116.722 55.5428 121.599 76.1635 121.182 77.6845Z" fill="black"/>
<path d="M124.351 78.5065C120.985 80.3215 114.867 78.6401 114.867 78.6401C114.251 79.2549 112.63 80.1611 112.63 80.1611L111.745 68.2656C111.182 66.6617 110.96 58.2587 110.96 58.2587C110.96 58.2587 111.671 51.9888 111.967 51.3486C112.053 51.1614 112.011 50.8834 111.909 50.584C111.407 49.159 111.222 47.6252 111.37 46.1079L111.606 43.9279L111.671 43.3171C112.827 42.7557 113.712 40.9674 113.712 40.9674L114.327 39.7965L115.46 37.6393L115.996 36.6182L116.088 36.7077L116.783 37.392C116.783 37.392 117.078 37.6594 117.521 38.0603C118.485 38.9425 120.15 40.4956 121.009 41.4459C121.765 42.2826 122.004 45.5371 122.073 47.9871C122.118 49.6003 122.091 50.8647 122.091 50.8647C121.33 52.2267 123.322 63.1612 123.322 63.1612C123.786 65.2744 124.351 78.5065 124.351 78.5065Z" fill="white"/>
<path opacity="0.03" d="M117.889 40.9407C117.889 40.9407 115.579 45.7163 115.847 47.5314C116.116 49.3464 116.879 51.4008 116.511 51.8806C116.384 52.0624 116.221 52.2099 116.033 52.3117C115.846 52.4135 115.639 52.4668 115.429 52.4674C115.06 52.4941 114.075 53.2412 114.075 53.3214C114.075 53.4016 113.166 53.4016 112.352 53.7759C111.538 54.1501 110.337 54.3626 110.337 54.3626C110.337 54.3626 107.999 54.2824 107.781 54.523C107.563 54.7636 107.339 56.2031 107.805 57.3512C108.272 58.4993 108.79 59.3561 109.181 59.5124C109.573 59.6688 112.057 58.7653 114.071 58.5514C116.086 58.3376 118.273 56.6041 118.273 56.6041C118.273 56.6041 120.682 55.6684 121.104 54.0953C121.526 52.5221 120.589 43.8758 120.589 43.8758C120.589 43.8758 119.88 39.8461 117.889 40.9407Z" fill="black"/>
<path opacity="0.03" d="M117.594 40.5397C117.594 40.5397 115.284 45.3166 115.554 47.1304C115.825 48.9441 116.586 50.9998 116.217 51.4809C116.091 51.6629 115.927 51.8106 115.74 51.9125C115.552 52.0143 115.346 52.0674 115.136 52.0677C114.767 52.0944 113.782 52.8416 113.782 52.9218C113.782 53.0019 112.872 53.0019 112.059 53.3749C111.245 53.7478 110.044 53.9616 110.044 53.9616C110.044 53.9616 107.706 53.8814 107.489 54.122C107.272 54.3626 107.046 55.8034 107.514 56.9502C107.981 58.097 108.498 58.9551 108.89 59.1114C109.281 59.2678 111.765 58.3643 113.78 58.1518C115.794 57.9393 117.982 56.203 117.982 56.203C117.982 56.203 120.389 55.2674 120.806 53.6956C121.223 52.1238 120.291 43.4748 120.291 43.4748C120.291 43.4748 119.584 39.4464 117.594 40.5397Z" fill="black"/>
<path d="M117.817 40.7001C117.817 40.7001 115.506 45.477 115.777 47.2908C116.048 49.1045 116.809 51.1601 116.441 51.64C116.315 51.8224 116.151 51.9705 115.963 52.0725C115.776 52.1746 115.569 52.2279 115.359 52.2281C114.989 52.2548 114.005 53.0019 114.005 53.0808C114.005 53.1597 113.096 53.161 112.282 53.5352C111.467 53.9095 110.267 54.122 110.267 54.122C110.267 54.122 107.928 54.0418 107.71 54.2824C107.493 54.523 107.269 55.9638 107.735 57.1106C108.202 58.2574 108.72 59.1154 109.111 59.2718C109.503 59.4282 111.986 58.5247 114.001 58.3108C116.016 58.097 118.203 56.3634 118.203 56.3634C118.203 56.3634 120.612 55.4278 121.034 53.8547C121.456 52.2815 120.524 43.6352 120.524 43.6352C120.524 43.6352 119.806 39.6121 117.817 40.7001Z" fill="white"/>
<path opacity="0.1" d="M117.766 53.5125C117.766 53.5125 115.92 53.1115 116.563 53.7798C117.205 54.4481 117.201 55.0335 117.988 55.0068C118.774 54.98 117.766 53.5125 117.766 53.5125Z" fill="black"/>
<path opacity="0.1" d="M120.886 67.8914C120.886 67.8914 120.051 68.5048 121.648 69.9189C123.244 71.333 120.886 67.8914 120.886 67.8914Z" fill="black"/>
<path opacity="0.1" d="M119.294 72.9343C119.294 73.0145 118.998 75.8748 120.104 76.5899C121.209 77.3049 119.294 72.9343 119.294 72.9343Z" fill="black"/>
<path d="M101.745 50.5172C100.854 50.5506 98.9286 50.846 99.9268 52.8682C100.809 54.6579 102.292 53.4617 103.127 52.5542C102.923 51.708 102.429 50.979 101.745 50.5172Z" fill="#FFB0B1"/>
<path opacity="0.1" d="M117.521 38.1419C116.576 38.8436 115.783 39.4357 115.628 39.5586C115.205 39.8995 114.397 41.9003 113.877 42.9215C113.462 43.7435 112.114 43.9546 111.606 44.0068L111.671 43.3959C112.827 42.8346 113.712 41.0462 113.712 41.0462L115.996 36.697L116.783 37.4736C116.783 37.4736 117.078 37.7409 117.521 38.1419Z" fill="black"/>
<path d="M117.521 38.0617C116.576 38.7634 115.783 39.3555 115.628 39.4798C115.205 39.8193 114.397 41.8201 113.877 42.8413C113.462 43.6633 112.114 43.8744 111.606 43.9266L111.671 43.3157C112.827 42.7544 113.712 40.966 113.712 40.966L115.996 36.6168L116.783 37.3907C116.783 37.3907 117.078 37.6553 117.521 38.0617Z" fill="#DCE7FF"/>
<path d="M115.702 34.6561C115.703 35.4584 115.478 36.242 115.06 36.9029C114.565 37.6843 113.828 38.2472 112.984 38.4895C112.14 38.7318 111.244 38.6374 110.458 38.2235C109.672 37.8095 109.049 37.1034 108.702 36.2333C108.355 35.3632 108.306 34.3868 108.565 33.4812C108.824 32.5755 109.373 31.8007 110.113 31.2973C110.854 30.7938 111.735 30.5952 112.599 30.7373C113.462 30.8794 114.25 31.353 114.819 32.072C115.389 32.791 115.702 33.7078 115.702 34.6561Z" fill="#FFB0B1"/>
<path opacity="0.1" d="M122.073 47.9885C121.573 47.6546 121.166 47.1797 120.895 46.6145C120.689 46.1734 120.553 45.6642 120.202 45.3514C119.886 45.0707 119.463 45.0026 119.07 44.8769C117.775 44.4612 116.689 43.1781 116.649 41.7132C116.629 41.0236 116.827 40.3352 116.737 39.6522C116.686 39.2657 116.545 38.8998 116.326 38.5897C116.218 38.4413 116.099 38.3023 115.97 38.174C115.798 37.9976 115.617 37.8265 115.46 37.6394C115.36 37.5235 115.274 37.3957 115.201 37.2584C115.143 37.1461 115.095 37.0274 115.06 36.9042C114.813 36.0863 115.037 35.1159 114.767 34.2886L114.752 34.2431C114.65 33.9491 114.442 33.655 114.152 33.6323C113.863 33.6096 113.616 33.8702 113.34 33.9865C112.763 34.2298 112.14 33.8154 111.659 33.3931C111.178 32.9707 110.635 32.4882 110.023 32.5818C109.618 32.6446 109.298 32.944 108.925 33.099C108.841 33.1344 108.754 33.1617 108.666 33.1805C108.981 32.3258 109.561 31.6171 110.305 31.1762C111.05 30.7353 111.913 30.5898 112.745 30.7645C113.578 30.9393 114.328 31.4235 114.868 32.1339C115.408 32.8443 115.702 33.7366 115.702 34.6575C115.702 34.9355 115.676 35.2129 115.622 35.4848C115.628 35.5035 115.634 35.5209 115.642 35.5396C115.785 35.9406 115.946 36.3522 116.087 36.7078L116.783 37.3921C116.783 37.3921 117.078 37.6594 117.521 38.0604C118.485 38.9425 120.15 40.4956 121.009 41.4459C121.765 42.2853 122.001 45.5385 122.073 47.9885Z" fill="black"/>
<path d="M108.882 30.6571C109.058 30.2681 109.146 29.8324 109.356 29.4635C109.665 28.9289 110.204 28.5867 110.758 28.3795C112.204 27.8382 115.26 27.0523 116.174 28.3795C116.353 28.6468 116.502 28.9436 116.751 29.128C116.94 29.2684 117.169 29.3285 117.377 29.4341C117.959 29.7308 118.331 30.3777 118.529 31.038C118.728 31.6982 118.787 32.4066 118.932 33.0869C119.118 33.9597 119.444 34.7871 119.769 35.6091C120.152 36.5794 120.558 37.5859 121.296 38.2715C122.304 39.2071 122.527 40.5317 123.462 41.5582C124.57 42.7771 124.534 44.7887 123.963 46.3859C123.888 46.5957 123.803 46.8149 123.833 47.0381C123.862 47.2613 124.015 47.4645 124.159 47.6423L124.765 48.3841C123.332 48.7596 121.711 47.947 121.044 46.5209C120.838 46.0798 120.702 45.5719 120.35 45.2578C120.035 44.9771 119.611 44.9103 119.219 44.7847C117.924 44.3677 116.838 43.0832 116.798 41.6183C116.778 40.93 116.976 40.2416 116.886 39.56C116.836 39.1708 116.694 38.8024 116.474 38.4907C116.135 38.0109 115.625 37.6888 115.349 37.1542C114.882 36.26 115.237 35.0985 114.901 34.1388C114.798 33.8448 114.591 33.5507 114.302 33.528C114.012 33.5053 113.765 33.7659 113.488 33.8822C112.912 34.1255 112.289 33.7125 111.808 33.2888C111.327 32.8651 110.784 32.3839 110.171 32.4788C109.766 32.5403 109.447 32.8397 109.074 32.9961C108.799 33.111 108.24 33.2139 107.999 32.9613C107.489 32.4521 108.669 31.1329 108.882 30.6571Z" fill="#591D4B"/>
<path opacity="0.1" d="M121.386 46.0798C121.179 45.6387 121.044 45.1308 120.692 44.818C120.376 44.5373 119.953 44.4692 119.559 44.3435C118.266 43.9279 117.18 42.6434 117.138 41.1785C117.119 40.4902 117.317 39.8005 117.228 39.1189C117.177 38.7322 117.035 38.3664 116.816 38.0563C116.476 37.5765 115.965 37.2543 115.691 36.7197C115.224 35.8269 115.579 34.6654 115.242 33.7044C115.139 33.4117 114.931 33.1176 114.643 33.0936C114.355 33.0695 114.106 33.3328 113.83 33.4491C113.254 33.6924 112.63 33.278 112.15 32.8557C111.67 32.4333 111.124 31.9508 110.513 32.0444C110.108 32.1072 109.788 32.4066 109.416 32.5616C109.14 32.6766 108.58 32.7808 108.339 32.5282C107.832 31.9936 109.012 30.677 109.224 30.2039C109.4 29.8136 109.488 29.3792 109.699 29.0103C109.71 28.9903 109.723 28.9702 109.735 28.9502C109.577 29.0927 109.44 29.2614 109.33 29.4501C109.12 29.819 109.032 30.252 108.856 30.6436C108.643 31.1168 107.463 32.4373 107.971 32.9679C108.217 33.2219 108.771 33.1176 109.047 33.0027C109.416 32.8463 109.739 32.5469 110.144 32.4854C110.759 32.3905 111.301 32.873 111.781 33.2954C112.261 33.7178 112.888 34.1321 113.462 33.8888C113.737 33.7726 113.979 33.5106 114.274 33.5346C114.57 33.5587 114.766 33.8514 114.874 34.1455C115.21 35.1051 114.855 36.2666 115.322 37.1608C115.597 37.6861 116.108 38.0149 116.447 38.4974C116.667 38.8091 116.809 39.1775 116.859 39.5666C116.949 40.2483 116.751 40.9366 116.77 41.6249C116.811 43.0952 117.896 44.3743 119.191 44.7913C119.581 44.9169 120.007 44.9838 120.322 45.2644C120.676 45.5785 120.815 46.0864 121.016 46.5275C121.684 47.9536 123.305 48.7663 124.737 48.3907L124.452 48.0405C123.21 48.0606 121.953 47.2934 121.386 46.0798Z" fill="black"/>
<path opacity="0.1" d="M112.901 39.9796C112.739 40.2469 112.278 41.6156 111.893 42.8105C111.532 42.6581 111.205 41.6864 111.205 41.6864L113.127 38.7166C113.324 39.0106 113.195 39.4985 112.901 39.9796Z" fill="black"/>
<path d="M112.974 39.8994C112.813 40.1667 112.352 41.5354 111.966 42.7303C111.606 42.5793 111.278 41.6062 111.278 41.6062L113.201 38.6377C113.398 38.9304 113.269 39.4196 112.974 39.8994Z" fill="#DCE7FF"/>
<path d="M101.796 53.5539L100.73 49.9037C100.718 49.861 100.713 49.8159 100.716 49.7712C100.72 49.7265 100.731 49.6829 100.75 49.6431C100.769 49.6032 100.795 49.5678 100.827 49.5389C100.859 49.51 100.895 49.4882 100.935 49.4747C101.014 49.4478 101.1 49.456 101.174 49.4975C101.247 49.5391 101.303 49.6106 101.328 49.6965L102.394 53.3427L102.289 54.1059L101.796 53.5539Z" fill="#BE8B87"/>
<path opacity="0.1" d="M100.831 49.5829C100.911 49.5556 100.997 49.5637 101.071 49.6052C101.145 49.6468 101.201 49.7186 101.226 49.8048L102.292 53.451L102.212 54.023L102.29 54.1113L102.396 53.3481L101.324 49.7019C101.298 49.616 101.243 49.5445 101.169 49.5029C101.095 49.4614 101.009 49.4531 100.93 49.48C100.863 49.5035 100.805 49.5506 100.766 49.6137C100.787 49.6015 100.809 49.5912 100.831 49.5829Z" fill="white"/>
<path d="M101.796 53.554L102.395 53.3481L102.307 53.9737L102.289 54.1113L102.114 53.9135L101.796 53.554Z" fill="#EFC8C4"/>
<path d="M102.114 53.9135C102.124 53.8992 102.137 53.8874 102.152 53.8787C102.16 53.8728 102.17 53.8696 102.181 53.8696C102.191 53.8696 102.201 53.8728 102.209 53.8787C102.218 53.8897 102.225 53.9018 102.23 53.9148C102.238 53.9296 102.249 53.9421 102.263 53.9516C102.276 53.9611 102.291 53.9673 102.306 53.9696L102.288 54.1033L102.114 53.9135Z" fill="#727A9C"/>
<path d="M100.724 51.2002C100.724 51.2002 102.862 51.1868 102.359 52.1746C101.855 53.1623 101.069 53.2813 101.069 53.2813L100.724 51.2002Z" fill="#FFB0B1"/>
<path d="M87.4279 6.87268H87.3356C83.6628 6.87268 80.4147 8.98313 78.5464 12.0974C76.678 8.98313 73.4299 6.87268 69.7572 6.87268H69.6649C66.9086 6.9012 64.2741 8.10982 62.3338 10.2359C60.3935 12.3619 59.3042 15.2336 59.3027 18.2269C59.3027 21.9439 60.8019 27.218 63.725 31.5579C69.2944 39.8273 78.5464 47.0622 78.5464 47.0622C78.5464 47.0622 87.7983 39.8286 93.3665 31.5579C96.2909 27.218 97.7888 21.9439 97.7888 18.2269C97.7873 15.2338 96.6982 12.3624 94.7582 10.2363C92.8182 8.11032 90.1839 6.90155 87.4279 6.87268ZM86.1072 32.1941C85.6889 32.1924 85.2809 32.0534 84.9367 31.7953C84.5925 31.5372 84.3282 31.1721 84.1786 30.7479H81.9828C81.8382 30.747 81.6975 30.697 81.5803 30.605C81.4632 30.513 81.3754 30.3835 81.3292 30.2347L80.6548 28.028L78.5205 36.1263C78.479 36.2822 78.392 36.4193 78.2726 36.5169C78.1532 36.6145 78.0078 36.6674 77.8584 36.6676H77.8153C77.6593 36.6595 77.5107 36.5934 77.3942 36.4805C77.2777 36.3676 77.2004 36.2148 77.1753 36.0475L74.9758 21.6819L73.3684 30.1826C73.3315 30.3441 73.2459 30.4875 73.1252 30.59C73.0045 30.6924 72.8557 30.748 72.7025 30.7479H69.6095C69.5168 30.7522 69.4242 30.736 69.3374 30.7005C69.2506 30.6649 69.1713 30.6106 69.1043 30.5408C69.0373 30.4711 68.984 30.3874 68.9476 30.2947C68.9112 30.202 68.8924 30.1022 68.8924 30.0015C68.8924 29.9007 68.9112 29.801 68.9476 29.7083C68.984 29.6156 69.0373 29.5318 69.1043 29.4621C69.1713 29.3924 69.2506 29.3381 69.3374 29.3025C69.4242 29.2669 69.5168 29.2507 69.6095 29.255H72.161L74.438 17.8259C74.4753 17.6569 74.5656 17.5073 74.6933 17.4026C74.821 17.2979 74.9783 17.2446 75.1382 17.2519C75.2981 17.2592 75.4507 17.3265 75.5699 17.4424C75.6891 17.5583 75.7676 17.7156 75.7918 17.8874L78.0381 32.5416L79.9507 25.296C79.9906 25.1434 80.0748 25.0089 80.1908 24.9126C80.3068 24.8162 80.4484 24.7632 80.5944 24.7614H80.608C80.7526 24.7615 80.8936 24.8111 81.0107 24.9033C81.1279 24.9954 81.2152 25.1254 81.2603 25.2747L82.48 29.259H84.1515C84.2703 28.8669 84.4866 28.5181 84.7764 28.2511C85.0663 27.9841 85.4184 27.8092 85.794 27.7458C86.1696 27.6824 86.554 27.733 86.9048 27.8918C87.2557 28.0507 87.5592 28.3117 87.7821 28.6461C88.0049 28.9805 88.1383 29.3753 88.1676 29.7868C88.1969 30.1983 88.1209 30.6106 87.948 30.9782C87.7751 31.3458 87.5121 31.6544 87.1879 31.8699C86.8637 32.0854 86.491 32.1995 86.1109 32.1995L86.1072 32.1941Z" fill="#F9A826"/>
</g>
<defs>
<linearGradient id="paint0_linear_1304_23619" x1="44.4076" y1="103.567" x2="44.4076" y2="21.3224" gradientUnits="userSpaceOnUse">
<stop stop-color="#808080" stop-opacity="0.25"/>
<stop offset="0.54" stop-color="#808080" stop-opacity="0.12"/>
<stop offset="1" stop-color="#808080" stop-opacity="0.1"/>
</linearGradient>
<linearGradient id="paint1_linear_1304_23619" x1="110.514" y1="102.527" x2="110.514" y2="27.4119" gradientUnits="userSpaceOnUse">
<stop stop-color="#808080" stop-opacity="0.25"/>
<stop offset="0.54" stop-color="#808080" stop-opacity="0.12"/>
<stop offset="1" stop-color="#808080" stop-opacity="0.1"/>
</linearGradient>
<clipPath id="clip0_1304_23619">
<rect width="136.009" height="104.619" fill="white" transform="translate(0.550293)"/>
</clipPath>
</defs>
</svg>
