<svg width="167" height="124" viewBox="0 0 167 124" fill="none" xmlns="http://www.w3.org/2000/svg">
<g clip-path="url(#clip0_1304_24294)">
<path d="M100.617 114.882L78.2808 74.6117C78.2745 74.5131 78.244 74.4177 78.192 74.3337C78.14 74.2498 78.0681 74.1799 77.9827 74.1304C77.8848 74.0742 77.7728 74.0472 77.6601 74.0524C77.6565 74.0521 77.6528 74.0523 77.6492 74.0521C77.6455 74.0524 77.6419 74.0521 77.6383 74.0524C77.4855 74.0453 77.3358 74.0975 77.2206 74.1981C77.1054 74.2987 77.0336 74.44 77.0202 74.5924L53.3477 114.882C53.3082 114.95 53.2826 115.026 53.2723 115.104C53.2619 115.182 53.2671 115.261 53.2875 115.338C53.3079 115.414 53.3431 115.485 53.3911 115.548C53.4391 115.61 53.499 115.663 53.5673 115.702C53.6356 115.742 53.711 115.767 53.7892 115.778C53.8674 115.788 53.9468 115.783 54.023 115.762C54.0992 115.742 54.1706 115.707 54.2331 115.659C54.2957 115.611 54.3481 115.551 54.3875 115.482L77.6332 75.9193L99.5767 115.482C99.6161 115.551 99.6685 115.611 99.7311 115.659C99.7936 115.707 99.865 115.742 99.9412 115.762C100.017 115.783 100.097 115.788 100.175 115.778C100.253 115.767 100.329 115.742 100.397 115.702C100.465 115.663 100.525 115.61 100.573 115.548C100.621 115.485 100.656 115.414 100.677 115.338C100.697 115.261 100.702 115.182 100.692 115.104C100.682 115.026 100.656 114.95 100.617 114.882Z" fill="#3F3D56"/>
<path d="M73.9481 107.973L76.4727 107.393L75.4399 97.3799L71.7139 98.2347L73.9481 107.973Z" fill="#FFB6B6"/>
<path d="M75.9002 103.135L72.3074 103.959L71.1586 101.714L71.0935 101.635C70.5839 101.009 70.3011 100.23 70.291 99.423L67.3048 91.5238L67.0606 91.4077C66.8717 91.3179 66.7042 91.1888 66.5691 91.029C66.4341 90.8692 66.3347 90.6825 66.2776 90.4813C66.2205 90.2801 66.207 90.069 66.2379 89.8621C66.2689 89.6552 66.3436 89.4573 66.4572 89.2816L66.141 88.4454L57.2205 88.4618L57.2116 88.4593L46.2573 85.3865L47.4075 78.53L50.4889 80.4684C51.5043 80.4025 68.8978 79.3346 70.5047 83.2326C71.9356 86.7037 73.9975 92.6341 75.4753 96.9977C75.549 97.1936 75.6406 97.3823 75.749 97.5614C75.9789 97.9155 76.1138 98.3228 76.1408 98.7441C76.1582 98.9274 76.1932 99.1086 76.2452 99.2852C76.8594 101.121 75.9237 103.087 75.9142 103.107L75.9002 103.135Z" fill="#2F2E41"/>
<path d="M73.0952 107.135L73.916 106.947L76.8217 104.909L78.8383 105.818L78.8385 105.818C79.8092 105.595 80.8285 105.767 81.6723 106.296C82.5161 106.825 83.1153 107.667 83.338 108.638L83.3653 108.757L73.9623 110.914L73.0952 107.135Z" fill="#2F2E41"/>
<path d="M35.8194 107.36C36.0761 104.566 37.7127 101.769 40.3375 100.778C39.3829 103.676 39.484 106.818 40.6231 109.649C41.0663 110.739 41.6728 111.905 41.3249 113.029C41.1084 113.728 40.5416 114.276 39.8996 114.628C39.2575 114.98 38.5382 115.161 37.8279 115.339L37.6909 115.46C36.473 112.932 35.5628 110.154 35.8194 107.36Z" fill="#F0F0F0"/>
<path d="M40.3655 100.83C38.8756 102.611 37.9848 104.817 37.8198 107.133C37.7754 107.631 37.8098 108.133 37.9217 108.621C38.0461 109.092 38.2943 109.521 38.6407 109.864C38.9573 110.19 39.3188 110.487 39.5506 110.884C39.6662 111.089 39.7371 111.317 39.7587 111.551C39.7803 111.786 39.7521 112.022 39.676 112.245C39.5006 112.805 39.1344 113.269 38.7606 113.71C38.3455 114.2 37.9065 114.702 37.7439 115.339C37.7241 115.416 37.6056 115.381 37.6252 115.304C37.9083 114.196 38.9539 113.538 39.4303 112.533C39.6526 112.064 39.735 111.525 39.497 111.045C39.2889 110.626 38.9163 110.319 38.593 109.992C38.2502 109.662 37.9932 109.254 37.8447 108.802C37.7083 108.322 37.6546 107.823 37.6859 107.324C37.7385 106.202 37.9673 105.095 38.3638 104.043C38.8097 102.841 39.458 101.724 40.2807 100.74C40.3316 100.679 40.4161 100.77 40.3655 100.83Z" fill="white"/>
<path d="M37.8292 106.384C37.4444 106.304 37.1006 106.089 36.8594 105.779C36.6181 105.468 36.4951 105.082 36.5123 104.689C36.5132 104.673 36.5202 104.658 36.5319 104.647C36.5437 104.636 36.5592 104.63 36.5752 104.631C36.5913 104.631 36.6066 104.637 36.6179 104.649C36.6292 104.66 36.6357 104.675 36.636 104.691C36.6193 105.057 36.7339 105.417 36.9592 105.706C37.1844 105.994 37.5054 106.193 37.8642 106.266C37.9422 106.282 37.9068 106.4 37.8292 106.384Z" fill="white"/>
<path d="M38.4586 109.72C39.1352 109.286 39.6233 108.613 39.8256 107.835C39.8456 107.758 39.9642 107.793 39.9442 107.87C39.7322 108.679 39.2228 109.378 38.5178 109.828C38.4506 109.871 38.3918 109.762 38.4586 109.72Z" fill="white"/>
<path d="M38.928 102.954C39.0704 103.017 39.226 103.042 39.3809 103.03C39.5358 103.017 39.685 102.966 39.8153 102.881C39.8819 102.837 39.9406 102.946 39.8744 102.989C39.7301 103.082 39.5652 103.139 39.3941 103.153C39.223 103.168 39.051 103.14 38.893 103.073C38.8776 103.068 38.8647 103.057 38.8569 103.043C38.8491 103.029 38.8471 103.012 38.8512 102.996C38.8559 102.981 38.8666 102.967 38.881 102.96C38.8954 102.952 38.9122 102.95 38.928 102.954Z" fill="white"/>
<path d="M48.5864 105.489C48.5455 105.517 48.5047 105.546 48.4638 105.575C47.9167 105.961 47.4018 106.39 46.9242 106.859C46.8867 106.895 46.8493 106.931 46.8129 106.968C45.6743 108.11 44.7576 109.453 44.1094 110.93C43.852 111.517 43.6397 112.124 43.4743 112.744C43.246 113.6 43.0666 114.547 42.5829 115.257C42.5333 115.331 42.4791 115.403 42.4206 115.471L37.8488 115.618C37.8382 115.613 37.8276 115.609 37.817 115.604L37.6348 115.618C37.6411 115.586 37.6483 115.552 37.6546 115.519C37.6582 115.5 37.6627 115.481 37.6663 115.463C37.669 115.45 37.6718 115.437 37.6735 115.426C37.6744 115.422 37.6753 115.417 37.6762 115.414C37.678 115.403 37.6808 115.392 37.6825 115.382C37.7224 115.193 37.7637 115.005 37.8064 114.817C37.8064 114.816 37.8064 114.816 37.8073 114.815C38.1188 113.377 38.5997 111.981 39.24 110.657C39.2597 110.618 39.2792 110.577 39.301 110.538C39.5983 109.951 39.9431 109.39 40.3319 108.859C40.5458 108.569 40.7742 108.291 41.0162 108.024C41.6429 107.336 42.3739 106.751 43.1825 106.29C44.7944 105.371 46.6821 104.979 48.4516 105.451C48.4968 105.463 48.5411 105.476 48.5864 105.489Z" fill="#F0F0F0"/>
<path d="M48.578 105.547C46.3159 106.072 44.2769 107.297 42.7504 109.047C42.4152 109.418 42.1404 109.84 41.9364 110.296C41.752 110.747 41.6917 111.239 41.7619 111.722C41.8183 112.173 41.9282 112.627 41.874 113.084C41.8428 113.318 41.7626 113.542 41.6387 113.742C41.5147 113.942 41.3499 114.114 41.1549 114.246C40.6776 114.588 40.106 114.738 39.5419 114.865C38.9156 115.006 38.2628 115.143 37.7495 115.553C37.6873 115.603 37.6138 115.503 37.6759 115.454C38.5689 114.74 39.7998 114.844 40.7853 114.328C41.2452 114.088 41.6353 113.707 41.7343 113.181C41.8208 112.72 41.7078 112.251 41.6468 111.795C41.5714 111.326 41.6121 110.845 41.7654 110.395C41.9456 109.929 42.2036 109.498 42.5285 109.119C43.2462 108.255 44.0955 107.508 45.0451 106.908C46.1251 106.216 47.3154 105.714 48.5646 105.424C48.6419 105.406 48.6548 105.529 48.578 105.547Z" fill="white"/>
<path d="M43.2088 108.455C42.9499 108.159 42.8047 107.78 42.799 107.387C42.7933 106.994 42.9276 106.612 43.1778 106.308C43.2287 106.247 43.3262 106.323 43.2753 106.385C43.0417 106.667 42.9167 107.023 42.9227 107.389C42.9287 107.755 43.0654 108.107 43.3081 108.381C43.3608 108.441 43.2611 108.514 43.2088 108.455Z" fill="white"/>
<path d="M41.7031 111.497C42.5046 111.558 43.2995 111.314 43.9294 110.815C43.9918 110.765 44.0654 110.865 44.0031 110.914C43.3466 111.432 42.5188 111.684 41.6849 111.619C41.6055 111.613 41.6241 111.491 41.7031 111.497Z" fill="white"/>
<path d="M46.1517 106.378C46.228 106.513 46.3368 106.628 46.4682 106.711C46.5996 106.794 46.7495 106.843 46.9046 106.853C46.9841 106.859 46.9654 106.981 46.8864 106.976C46.7151 106.963 46.5496 106.909 46.4042 106.817C46.2588 106.726 46.1381 106.6 46.0524 106.452C46.0431 106.438 46.0393 106.422 46.0417 106.406C46.0441 106.39 46.0525 106.375 46.0652 106.365C46.0784 106.355 46.0949 106.351 46.1111 106.354C46.1273 106.356 46.1419 106.365 46.1517 106.378Z" fill="white"/>
<path d="M110.619 107.36C110.363 104.566 108.726 101.769 106.101 100.778C107.056 103.676 106.955 106.818 105.816 109.649C105.373 110.739 104.766 111.905 105.114 113.029C105.33 113.728 105.897 114.276 106.539 114.628C107.181 114.98 107.901 115.161 108.611 115.339L108.748 115.46C109.966 112.932 110.876 110.154 110.619 107.36Z" fill="#F0F0F0"/>
<path d="M106.074 100.83C107.564 102.611 108.454 104.817 108.619 107.133C108.664 107.631 108.629 108.133 108.517 108.621C108.393 109.092 108.145 109.521 107.798 109.864C107.482 110.19 107.12 110.487 106.889 110.884C106.773 111.089 106.702 111.317 106.68 111.551C106.659 111.786 106.687 112.022 106.763 112.245C106.939 112.805 107.305 113.269 107.679 113.71C108.094 114.2 108.533 114.702 108.695 115.339C108.715 115.416 108.834 115.381 108.814 115.304C108.531 114.196 107.485 113.538 107.009 112.533C106.787 112.064 106.704 111.525 106.942 111.045C107.15 110.626 107.523 110.319 107.846 109.992C108.189 109.662 108.446 109.254 108.595 108.802C108.731 108.322 108.785 107.823 108.753 107.324C108.701 106.202 108.472 105.095 108.075 104.043C107.629 102.841 106.981 101.724 106.158 100.74C106.108 100.679 106.023 100.77 106.074 100.83Z" fill="white"/>
<path d="M108.61 106.384C108.995 106.304 109.339 106.089 109.58 105.779C109.821 105.468 109.944 105.082 109.927 104.689C109.926 104.673 109.919 104.658 109.907 104.647C109.896 104.636 109.88 104.63 109.864 104.631C109.848 104.631 109.833 104.637 109.821 104.649C109.81 104.66 109.803 104.675 109.803 104.691C109.82 105.057 109.705 105.417 109.48 105.706C109.255 105.994 108.934 106.193 108.575 106.266C108.497 106.282 108.532 106.4 108.61 106.384Z" fill="white"/>
<path d="M107.981 109.72C107.304 109.286 106.816 108.613 106.614 107.835C106.594 107.758 106.475 107.793 106.495 107.87C106.707 108.679 107.216 109.378 107.921 109.828C107.989 109.871 108.047 109.762 107.981 109.72Z" fill="white"/>
<path d="M107.511 102.954C107.368 103.017 107.213 103.042 107.058 103.03C106.903 103.017 106.754 102.966 106.623 102.881C106.557 102.837 106.498 102.946 106.564 102.989C106.709 103.082 106.873 103.139 107.045 103.153C107.216 103.168 107.388 103.14 107.546 103.073C107.561 103.068 107.574 103.057 107.582 103.043C107.589 103.029 107.592 103.012 107.587 102.996C107.583 102.981 107.572 102.967 107.558 102.96C107.543 102.952 107.526 102.95 107.511 102.954Z" fill="white"/>
<path d="M97.8525 105.489C97.8934 105.517 97.9342 105.546 97.9751 105.575C98.5222 105.961 99.0371 106.39 99.5147 106.859C99.5522 106.895 99.5896 106.931 99.626 106.968C100.765 108.11 101.681 109.453 102.33 110.93C102.587 111.517 102.799 112.124 102.965 112.744C103.193 113.6 103.372 114.547 103.856 115.257C103.906 115.331 103.96 115.403 104.018 115.471L108.59 115.618C108.601 115.613 108.611 115.609 108.622 115.604L108.804 115.618C108.798 115.586 108.791 115.552 108.784 115.519C108.781 115.5 108.776 115.481 108.773 115.463C108.77 115.45 108.767 115.437 108.765 115.426C108.765 115.422 108.764 115.417 108.763 115.414C108.761 115.403 108.758 115.392 108.756 115.382C108.716 115.193 108.675 115.005 108.633 114.817C108.633 114.816 108.633 114.816 108.632 114.815C108.32 113.377 107.839 111.981 107.199 110.657C107.179 110.618 107.16 110.577 107.138 110.538C106.841 109.951 106.496 109.39 106.107 108.859C105.893 108.569 105.665 108.291 105.423 108.024C104.796 107.336 104.065 106.751 103.256 106.29C101.645 105.371 99.7568 104.979 97.9874 105.451C97.9421 105.463 97.8978 105.476 97.8525 105.489Z" fill="#F0F0F0"/>
<path d="M97.8606 105.547C100.123 106.072 102.162 107.297 103.688 109.047C104.023 109.418 104.298 109.84 104.502 110.296C104.687 110.747 104.747 111.239 104.677 111.722C104.62 112.173 104.51 112.627 104.565 113.084C104.596 113.318 104.676 113.542 104.8 113.742C104.924 113.942 105.089 114.114 105.284 114.246C105.761 114.588 106.333 114.738 106.897 114.865C107.523 115.006 108.176 115.143 108.689 115.553C108.751 115.603 108.825 115.503 108.763 115.454C107.87 114.74 106.639 114.844 105.653 114.328C105.193 114.088 104.803 113.707 104.704 113.181C104.618 112.72 104.731 112.251 104.792 111.795C104.867 111.326 104.826 110.845 104.673 110.395C104.493 109.929 104.235 109.498 103.91 109.119C103.192 108.255 102.343 107.508 101.394 106.908C100.314 106.216 99.1232 105.714 97.874 105.424C97.7967 105.406 97.7838 105.529 97.8606 105.547Z" fill="white"/>
<path d="M103.23 108.455C103.489 108.159 103.634 107.78 103.64 107.387C103.645 106.994 103.511 106.612 103.261 106.308C103.21 106.247 103.113 106.323 103.164 106.385C103.397 106.667 103.522 107.023 103.516 107.389C103.51 107.755 103.373 108.107 103.131 108.381C103.078 108.441 103.178 108.514 103.23 108.455Z" fill="white"/>
<path d="M104.736 111.497C103.934 111.558 103.139 111.314 102.509 110.815C102.447 110.765 102.373 110.865 102.436 110.914C103.092 111.432 103.92 111.684 104.754 111.619C104.833 111.613 104.815 111.491 104.736 111.497Z" fill="white"/>
<path d="M100.287 106.378C100.211 106.513 100.102 106.628 99.9709 106.711C99.8395 106.794 99.6896 106.843 99.5346 106.853C99.455 106.859 99.4737 106.981 99.5527 106.976C99.724 106.963 99.8895 106.909 100.035 106.817C100.18 106.726 100.301 106.6 100.387 106.452C100.396 106.438 100.4 106.422 100.397 106.406C100.395 106.39 100.387 106.375 100.374 106.365C100.361 106.355 100.344 106.351 100.328 106.354C100.312 106.356 100.297 106.365 100.287 106.378Z" fill="white"/>
<path d="M142.232 115.841C142.232 115.883 142.215 115.924 142.185 115.953C142.156 115.983 142.115 116 142.073 116H23.1588C23.1167 116 23.0763 115.983 23.0465 115.953C23.0167 115.924 23 115.883 23 115.841C23 115.799 23.0167 115.759 23.0465 115.729C23.0763 115.699 23.1167 115.682 23.1588 115.682H142.073C142.115 115.682 142.156 115.699 142.185 115.729C142.215 115.759 142.232 115.799 142.232 115.841Z" fill="#3F3D56"/>
<path d="M99.596 54.4241C99.9276 54.4241 100.196 54.1553 100.196 53.8238C100.196 53.4922 99.9276 53.2234 99.596 53.2234C99.2644 53.2234 98.9956 53.4922 98.9956 53.8238C98.9956 54.1553 99.2644 54.4241 99.596 54.4241Z" fill="#3F3D56"/>
<path d="M92.0784 58.4483L100.172 53.3632C100.246 53.3172 100.327 53.2865 100.413 53.273C100.498 53.2595 100.586 53.2634 100.669 53.2846C100.753 53.3057 100.832 53.3436 100.901 53.3961C100.969 53.4485 101.027 53.5143 101.07 53.5895C101.112 53.6647 101.139 53.7478 101.149 53.8338C101.158 53.9197 101.15 54.0067 101.126 54.0895C101.101 54.1723 101.059 54.2492 101.004 54.3155C100.948 54.3819 100.88 54.4363 100.803 54.4754L92.2816 58.8068C92.2343 58.8309 92.1795 58.8357 92.1287 58.8204C92.0779 58.8051 92.0349 58.7708 92.0087 58.7247C91.9826 58.6785 91.9752 58.624 91.9882 58.5725C92.0012 58.5211 92.0335 58.4766 92.0784 58.4483Z" fill="#E4E4E4"/>
<path d="M75.8401 69.3977C75.7763 69.3029 75.743 69.1909 75.7447 69.0767C75.7463 68.9624 75.7828 68.8514 75.8493 68.7585C75.9863 68.5751 76.1687 68.4305 76.3785 68.3389C76.8116 68.1185 77.2781 67.9711 77.7592 67.9026C78.1248 67.8507 78.5238 67.8342 78.8074 67.5977C79.0891 67.3627 79.2462 66.9234 79.6112 66.8867C79.9641 66.8513 80.2354 67.2376 80.5893 67.2615C81.0255 67.2911 81.3111 66.7806 81.7355 66.6759C82.0196 66.6058 82.3118 66.7295 82.5783 66.8504L84.1776 67.5759L84.9973 67.9478C85.2836 68.0777 85.6065 68.2527 85.6606 68.5624C85.7349 68.988 85.2616 69.2883 84.8569 69.4394C81.967 70.5059 78.7914 70.5063 75.9013 69.4405" fill="#C7C7C7"/>
<path d="M78.2495 77.2384C89.8547 77.2384 99.2627 75.8944 99.2627 74.2365C99.2627 72.5786 89.8547 71.2346 78.2495 71.2346C66.6442 71.2346 57.2363 72.5786 57.2363 74.2365C57.2363 75.8944 66.6442 77.2384 78.2495 77.2384Z" fill="#3F3D56"/>
<path d="M120.876 92.8481H106.467C105.804 92.8481 105.267 93.3857 105.267 94.0489C105.267 94.7121 105.804 95.2496 106.467 95.2496H120.876C121.54 95.2496 122.077 94.7121 122.077 94.0489C122.077 93.3857 121.54 92.8481 120.876 92.8481Z" fill="#3F3D56"/>
<path d="M127.859 71.4401L123.1 94.0476L124.34 99.8339L126.68 110.754V115.663C126.68 115.669 126.68 115.676 126.679 115.683C126.678 115.791 126.658 115.898 126.62 116H124.739C124.701 115.898 124.681 115.791 124.68 115.683C124.679 115.676 124.678 115.669 124.679 115.663V110.965L122.555 101.053L122.125 99.0521L121.294 95.1737L121.054 94.0503V94.049L121.291 92.9229L121.474 92.0544L125.901 71.0292C125.928 70.9005 125.98 70.7784 126.054 70.6698C126.128 70.5612 126.223 70.4682 126.333 70.3963C126.443 70.3243 126.566 70.2748 126.695 70.2504C126.824 70.2261 126.957 70.2275 127.086 70.2545C127.214 70.2815 127.336 70.3336 127.445 70.4078C127.554 70.482 127.646 70.5769 127.718 70.687C127.79 70.7971 127.839 70.9203 127.864 71.0495C127.888 71.1788 127.886 71.3115 127.859 71.4401Z" fill="#3F3D56"/>
<path d="M107.468 94.049V115.663C107.468 115.669 107.467 115.676 107.466 115.683C107.465 115.791 107.446 115.898 107.408 116H105.526C105.488 115.898 105.468 115.791 105.468 115.683C105.467 115.676 105.466 115.669 105.466 115.663V94.049C105.466 93.7836 105.572 93.5291 105.759 93.3414C105.947 93.1538 106.202 93.0483 106.467 93.0483C106.732 93.0483 106.987 93.1538 107.175 93.3414C107.362 93.5291 107.468 93.7836 107.468 94.049Z" fill="#3F3D56"/>
<path d="M108.869 90.4465H118.475C119.43 90.4465 120.347 90.8261 121.022 91.5016C121.698 92.1772 122.077 93.0934 122.077 94.0488H105.267C105.267 93.0934 105.646 92.1772 106.322 91.5016C106.997 90.8261 107.913 90.4465 108.869 90.4465Z" fill="#3F3D56"/>
<path d="M123.278 101.053H106.467C106.202 101.053 105.948 100.948 105.76 100.76C105.572 100.573 105.467 100.318 105.467 100.053C105.467 99.7872 105.572 99.5327 105.76 99.3451C105.948 99.1574 106.202 99.052 106.467 99.052H123.278C123.543 99.052 123.798 99.1574 123.986 99.3451C124.173 99.5327 124.279 99.7872 124.279 100.053C124.279 100.318 124.173 100.573 123.986 100.76C123.798 100.948 123.543 101.053 123.278 101.053Z" fill="#3F3D56"/>
<path d="M45.0834 95.2861H62.0395C62.7026 95.2861 63.2402 94.7485 63.2402 94.0854V93.7215C63.2402 93.0584 62.7026 92.5208 62.0395 92.5208H45.0834C44.4202 92.5208 43.8827 93.0584 43.8827 93.7215V94.0854C43.8827 94.7485 44.4202 95.2861 45.0834 95.2861Z" fill="#3F3D56"/>
<path d="M44.9085 93.9195L44.6016 95.1843L43.4756 99.8165L42.99 101.818L40.7352 111.101V115.129C40.7358 115.326 40.6772 115.519 40.5671 115.682C40.4805 115.815 40.3628 115.924 40.2243 116H39.2449C39.1064 115.924 38.9887 115.815 38.9021 115.682C38.7919 115.519 38.7334 115.326 38.7339 115.129V110.861L41.2395 100.548L42.8566 93.8875L37.3731 67.8378C37.346 67.7092 37.3445 67.5766 37.3686 67.4474C37.3928 67.3182 37.4422 67.1951 37.514 67.085C37.5857 66.975 37.6785 66.8801 37.787 66.806C37.8954 66.7318 38.0174 66.6797 38.146 66.6527C38.2746 66.6257 38.4073 66.6243 38.5364 66.6486C38.6656 66.6729 38.7887 66.7224 38.8987 66.7943C39.0086 66.8662 39.1034 66.9591 39.1775 67.0676C39.2515 67.1762 39.3035 67.2983 39.3303 67.4269L44.3989 91.4993L44.6324 92.6093L44.9045 93.9035L44.9085 93.9195Z" fill="#3F3D56"/>
<path d="M62.8587 93.9035V115.129C62.8593 115.326 62.8007 115.519 62.6905 115.682C62.604 115.815 62.4862 115.924 62.3477 116H61.3671C61.2292 115.923 61.112 115.814 61.0255 115.682C60.9154 115.519 60.8568 115.326 60.8574 115.129V93.9035C60.8574 93.6381 60.9629 93.3836 61.1505 93.1959C61.3382 93.0082 61.5927 92.9028 61.8581 92.9028C62.1234 92.9028 62.378 93.0082 62.5656 93.1959C62.7533 93.3836 62.8587 93.6381 62.8587 93.9035Z" fill="#3F3D56"/>
<path d="M63.2402 93.9033H43.8826V93.3575C43.8826 92.8845 43.9758 92.416 44.1568 91.979C44.3379 91.5419 44.6032 91.1448 44.9377 90.8103C45.2722 90.4758 45.6693 90.2105 46.1064 90.0295C46.5434 89.8484 47.0118 89.7553 47.4849 89.7553H59.638C60.5934 89.7553 61.5096 90.1348 62.1852 90.8103C62.8607 91.4859 63.2402 92.4021 63.2402 93.3575L63.2402 93.9033Z" fill="#3F3D56"/>
<path d="M61.8573 101.817H42.4997C42.2343 101.817 41.9798 101.712 41.7921 101.524C41.6044 101.337 41.499 101.082 41.499 100.817C41.499 100.551 41.6044 100.297 41.7921 100.109C41.9798 99.9216 42.2343 99.8162 42.4997 99.8162H61.8573C62.1226 99.8162 62.3772 99.9216 62.5648 100.109C62.7525 100.297 62.8579 100.551 62.8579 100.817C62.8579 101.082 62.7525 101.337 62.5648 101.524C62.3772 101.712 62.1226 101.817 61.8573 101.817Z" fill="#3F3D56"/>
<path d="M86.7349 110.546L84.6318 109.54L87.5207 100.75L90.6248 102.234L86.7349 110.546Z" fill="#9E616A"/>
<path d="M100.988 109.75L98.7263 110.308L95.4497 101.656L98.7875 100.833L100.988 109.75Z" fill="#9E616A"/>
<path d="M92.3203 72.3376C92.6203 72.8248 93.0988 73.1754 93.6537 73.3146C94.2087 73.4538 94.796 73.3706 95.2904 73.0827C95.3899 73.0226 95.4841 72.9542 95.5723 72.8785L102.221 76.6942L101.932 72.7773L95.6627 69.7543C95.3216 69.4116 94.8764 69.1918 94.3969 69.1294C93.9174 69.0669 93.4307 69.1654 93.0131 69.4092C92.7727 69.5536 92.5636 69.7446 92.3982 69.9709C92.2327 70.1973 92.1142 70.4545 92.0496 70.7274C91.9851 71.0003 91.9758 71.2833 92.0223 71.5599C92.0687 71.8364 92.1701 72.1008 92.3203 72.3376Z" fill="#9E616A"/>
<path d="M99.3623 75.2572L100.538 75.9735L105.816 79.1923C106.163 79.4093 106.549 79.5557 106.952 79.6234C107.356 79.691 107.768 79.6785 108.167 79.5865C108.565 79.4945 108.942 79.3249 109.275 79.0873C109.608 78.8497 109.891 78.5489 110.107 78.2019C110.498 77.558 110.636 76.7921 110.495 76.0522L108.149 64.3312C108.063 63.871 107.878 63.435 107.607 63.053C107.336 62.671 106.986 62.3519 106.581 62.1175C106.175 61.8832 105.724 61.7391 105.258 61.6952C104.792 61.6513 104.322 61.7086 103.88 61.8631C103.137 62.1242 102.521 62.6585 102.158 63.3573C101.795 64.0561 101.712 64.867 101.926 65.6249L104.379 73.943L100.619 72.1899L99.3623 75.2572Z" fill="#E6E6E6"/>
<path d="M96.5836 107.325L92.9648 100.068L92.9653 100.051L93.3226 86.7391C93.3271 86.6207 93.3366 86.5018 93.3511 86.3848C93.4142 85.851 93.5829 85.3351 93.8474 84.8673C94.112 84.3994 94.467 83.9889 94.8918 83.6596C95.2987 83.3413 95.7648 83.1071 96.2631 82.9709C96.7614 82.8346 97.2819 82.7989 97.7941 82.8659L108.142 84.205L108.501 82.7376L108.568 82.7132L118.482 79.0796L118.54 79.1726C119.838 81.2855 120.746 85.5059 120.993 86.749L120.997 86.767C121.002 86.7931 121.005 86.809 121.006 86.8137C121.516 88.9351 119.407 92.4494 117.307 92.9776C112.881 94.1055 108.923 93.2257 104.34 92.2067C102.697 91.8412 100.999 91.4635 99.1279 91.1369L99.1835 92.2379C99.229 93.0854 99.4051 93.9207 99.7054 94.7145C100.039 95.6914 100.302 96.463 99.7453 98.0719L99.4758 98.8502C99.6156 99.2366 99.6637 99.6501 99.6164 100.058C99.569 100.466 99.4275 100.858 99.203 101.202L99.1489 101.285L101.535 107.324L96.5836 107.325Z" fill="#2F2E41"/>
<path d="M90.6376 104.116L86.3223 103.715L87.8511 98.8252C88.1666 95.6327 88.9616 92.506 90.2091 89.5504L92.2945 84.6084C92.2993 84.4984 92.3086 84.3877 92.322 84.2793C92.3851 83.7455 92.5538 83.2297 92.8184 82.7618C93.0829 82.294 93.4379 81.8834 93.8627 81.5542C94.2697 81.236 94.7358 81.0019 95.2341 80.8657C95.7324 80.7294 96.2528 80.6937 96.765 80.7605L107.098 82.0977L107.548 78.3205L117.465 76.9934L117.51 77.0673C119.244 79.8877 120.344 82.0958 120.974 84.0161C121.005 84.114 121.034 84.214 121.057 84.3135C121.571 86.4493 120.289 88.6146 118.198 89.1403C112.87 90.4987 106.463 90.461 98.039 89.0211L93.9622 98.7231C93.5725 99.6498 93.0901 100.535 92.5222 101.364L90.6376 104.116Z" fill="#2F2E41"/>
<path d="M105.69 55.1364C108.451 55.1364 110.689 52.8485 110.689 50.0262C110.689 47.2039 108.451 44.916 105.69 44.916C102.929 44.916 100.691 47.2039 100.691 50.0262C100.691 52.8485 102.929 55.1364 105.69 55.1364Z" fill="#9E616A"/>
<path d="M107.134 82.2762L106.417 79.7067L106.24 78.4392L105.209 78.4736L103.186 73.8035L102.4 72.5721C102.24 72.4034 102.095 72.2411 101.965 72.0853C101.146 71.1598 100.489 70.1026 100.023 68.9584C99.6959 68.1362 99.5039 67.2667 99.4543 66.3833C99.3077 63.774 100.408 61.0134 102.817 57.9441C102.778 57.8355 102.751 57.7225 102.739 57.6076C102.696 57.2347 102.802 56.86 103.033 56.5648C103.265 56.2696 103.604 56.0779 103.977 56.0314L106.301 55.7704C106.481 55.75 106.664 55.7656 106.839 55.8165C107.014 55.8675 107.176 55.9526 107.318 56.067C107.465 56.1853 107.588 56.3318 107.678 56.498C107.769 56.6642 107.825 56.8467 107.844 57.035C107.876 57.3261 107.818 57.6199 107.68 57.8781C108.865 58.0285 109.981 58.5174 110.894 59.2862C111.808 60.0551 112.481 61.0711 112.831 62.2126C114.222 64.8087 115.33 67.5463 116.137 70.3786C116.297 70.9333 116.226 71.5049 116.157 72.0577C116.094 72.5683 116.028 73.0963 116.139 73.6225C116.25 74.1577 116.52 74.6947 116.805 75.2631C117.131 75.9142 117.469 76.5874 117.56 77.2736L117.567 77.3218L107.134 82.2762Z" fill="#E4E4E4"/>
<path opacity="0.2" d="M100.084 68.9331C100.549 70.0707 101.202 71.1218 102.016 72.0424C102.155 72.2089 102.302 72.3724 102.456 72.5362L103.247 73.7769C106.162 71.592 108.524 62.9891 108.524 62.9891L105.235 62.3494L100.084 68.9331Z" fill="black"/>
<path d="M98.0932 55.6139C98.3812 56.1086 98.4648 56.6961 98.3262 57.2515C98.1876 57.8069 97.8377 58.2863 97.3511 58.5877C97.2512 58.6474 97.1466 58.6987 97.0382 58.7412L97.271 66.404L93.9526 64.315L94.2403 57.3586C94.0991 56.8957 94.1151 56.399 94.2859 55.9462C94.4566 55.4933 94.7725 55.1097 95.1842 54.8553C95.424 54.7102 95.6904 54.6147 95.9677 54.5743C96.245 54.534 96.5276 54.5496 96.7988 54.6204C97.07 54.6911 97.3243 54.8154 97.5466 54.9861C97.7689 55.1567 97.9547 55.3702 98.0932 55.6139Z" fill="#9E616A"/>
<path d="M97.5628 63.5114L93.9136 64.0303L94.0705 71.5873C94.0796 72.1264 94.2264 72.6542 94.4969 73.1206C94.7675 73.587 95.1528 73.9764 95.6163 74.2519C96.1825 74.5851 96.8416 74.7251 97.4943 74.651C98.1471 74.5769 98.758 74.2926 99.2351 73.8411L107.851 65.5542C108.457 64.9792 108.82 64.1937 108.864 63.3594C108.909 62.5251 108.632 61.7053 108.091 61.0687C107.823 60.7517 107.495 60.4918 107.125 60.3043C106.754 60.1168 106.35 60.0056 105.936 59.9772C105.522 59.9489 105.107 60.004 104.715 60.1393C104.322 60.2745 103.961 60.4873 103.653 60.7648C103.568 60.8409 103.487 60.9216 103.41 61.0064L97.7214 67.5508L97.5628 63.5114Z" fill="#E6E6E6"/>
<path d="M67.0414 112.803L69.6316 112.803L70.8638 102.812L67.041 102.812L67.0414 112.803Z" fill="#FFB6B6"/>
<path d="M52.3596 55.2847C55.2148 55.2847 57.5293 52.9702 57.5293 50.115C57.5293 47.2599 55.2148 44.9453 52.3596 44.9453C49.5045 44.9453 47.1899 47.2599 47.1899 50.115C47.1899 52.9702 49.5045 55.2847 52.3596 55.2847Z" fill="#FFB6B6"/>
<path d="M70.4769 109.725H66.809L65.8739 108.472L65.6208 107.291L65.4029 107.08C65.1074 106.797 64.9163 106.421 64.8607 106.016C64.805 105.61 64.8881 105.197 65.0964 104.844L62.4381 92.4415C61.7418 92.3803 53.8901 91.6783 48.4322 90.7123C47.0353 90.4652 45.9448 89.7861 45.1907 88.6942C43.3379 86.0111 44.1316 81.6697 44.1398 81.6262L44.149 81.5778L44.1979 81.5723L56.9465 80.1414L56.9637 80.1495C57.3867 80.3499 67.3437 85.0768 68.9708 86.7039C69.7056 87.4387 71.3448 91.8041 71.7118 96.4452C71.7776 97.2766 71.541 98.1233 71.3122 98.9422C71.0981 99.7084 70.8768 100.501 70.9205 101.25C70.988 102.405 71.0519 103.617 71.1106 104.853C71.12 105.049 71.2683 105.253 71.4117 105.45C71.5615 105.656 71.703 105.85 71.712 106.054C71.7991 108.026 70.51 109.684 70.4969 109.7L70.4769 109.725Z" fill="#2F2E41"/>
<path d="M71.3122 63.8844C71.0345 63.8085 70.7435 63.7944 70.4597 63.8431C70.176 63.8918 69.9064 64.0021 69.6698 64.1663C69.4333 64.3305 69.2357 64.5445 69.0909 64.7933C68.946 65.0421 68.8575 65.3197 68.8315 65.6064L64.5361 66.9489L64.7153 69.7582L70.7546 67.7771C71.2392 67.7888 71.7113 67.6224 72.0813 67.3093C72.4514 66.9962 72.6937 66.5583 72.7624 66.0784C72.8312 65.5986 72.7215 65.1102 72.4542 64.7059C72.1869 64.3015 71.7806 64.0092 71.3122 63.8844Z" fill="#FFB6B6"/>
<path d="M68.5098 68.5333L65.2995 69.7484L65.2174 69.9076C65.0206 70.2894 64.6802 70.5774 64.271 70.7082C63.8618 70.8391 63.4175 70.802 63.0357 70.6052L55.8199 73.3362C55.8199 73.3362 52.5975 70.1115 50.3032 67.2336L51.0851 62.4242C51.2662 61.3084 51.6512 60.2353 52.2207 59.2588C56.9257 60.2905 59.6266 66.8678 59.6266 66.8678L68.1064 65.2499L68.5098 68.5333Z" fill="#C7C7C7"/>
<path d="M51.6253 55.0083C50.331 55.3578 48.9042 54.8931 47.8942 54.0116C46.8841 53.1301 46.2523 51.881 45.8883 50.5908C45.6217 49.6458 45.4952 48.5969 45.916 47.7098C46.3367 46.8227 47.4691 46.2242 48.3427 46.6723C47.8038 46.0444 48.073 45.0059 48.7024 44.4688C49.3318 43.9316 50.1961 43.7776 51.0193 43.6934C52.2139 43.5713 53.4479 43.5576 54.5847 43.9446C55.7215 44.3317 56.7544 45.1778 57.1101 46.3248C57.4735 46.4939 57.8827 46.5378 58.2737 46.4496C58.6647 46.3613 59.0154 46.1458 59.2708 45.8369C59.3367 46.1917 59.2838 46.5583 59.1203 46.88C58.9568 47.2016 58.6919 47.4605 58.3665 47.6164L60.1083 47.0517C60.4079 47.6858 59.883 48.4705 59.2118 48.6736C58.5406 48.8766 57.816 48.6547 57.1791 48.3613C56.5421 48.068 55.9249 47.6971 55.233 47.5827C54.5412 47.4683 53.7285 47.6906 53.4085 48.3146C53.2408 48.6414 53.2321 49.0242 53.1348 49.3783C53.0375 49.7325 52.7909 50.0997 52.4248 50.1287C52.1935 50.147 51.967 50.0237 51.7363 50.0489C51.4503 50.0802 51.2314 50.3392 51.1553 50.6167C51.0978 50.8994 51.0971 51.1907 51.1532 51.4737L51.5956 54.8555" fill="#2F2E41"/>
<path d="M45.2204 89.312C45.2194 89.3121 45.2184 89.3119 45.2174 89.3117L45.1766 89.3047L45.1647 89.265C45.0161 88.7651 44.827 88.2534 44.6441 87.7585C44.3747 87.0731 44.1472 86.372 43.963 85.659C43.818 84.9773 43.7174 84.287 43.662 83.5923C43.6109 83.0879 43.5582 82.5663 43.4684 82.0529C43.4286 81.825 43.5796 81.6091 43.7256 81.4003C43.861 81.2068 43.9888 81.0239 43.962 80.851C43.9346 80.6741 43.7384 80.4798 43.5487 80.2919C43.3408 80.086 43.1258 79.8731 43.0953 79.649C42.6809 76.591 42.4881 73.5071 42.5182 70.4214C42.561 66.152 42.754 63.2419 43.0917 61.7718C43.9997 57.8191 48.1947 57.0977 48.8513 57.0087C48.9213 56.8224 49.0288 56.6525 49.1672 56.5096C49.3057 56.3666 49.472 56.2537 49.656 56.1779C49.8399 56.102 50.0375 56.0648 50.2364 56.0686C50.4354 56.0724 50.6314 56.1171 50.8123 56.2L53.793 57.5644C54.3976 57.8422 54.9386 58.2413 55.3824 58.737C55.8263 59.2327 56.1634 59.8143 56.373 60.4458L56.8158 61.7957L57.0375 70.8573L55.8084 77.2385L58.21 80.8407C45.4108 87.8678 45.2616 89.312 45.2204 89.312Z" fill="#C7C7C7"/>
<path d="M65.6475 111.796L66.4896 111.796L69.7775 110.459L71.5397 111.796H71.54C72.5358 111.796 73.4909 112.192 74.1951 112.896C74.8993 113.6 75.2949 114.555 75.295 115.551V115.673L65.6476 115.673L65.6475 111.796Z" fill="#2F2E41"/>
<path d="M72.3877 70.3508C72.1395 70.2051 71.8622 70.1155 71.5756 70.0885C71.289 70.0615 70.9999 70.0977 70.7287 70.1945C70.4576 70.2912 70.211 70.4463 70.0062 70.6487C69.8015 70.8511 69.6436 71.096 69.5437 71.366L65.0468 71.5414L64.4409 73.636L70.8339 73.9633C71.2986 74.101 71.7978 74.0635 72.2367 73.8578C72.6756 73.6521 73.0238 73.2925 73.2154 72.8472C73.4069 72.4019 73.4284 71.9019 73.2759 71.4418C73.1234 70.9817 72.8074 70.5935 72.3877 70.3508Z" fill="#FFB6B6"/>
<path d="M68.6937 74.1894L64.0745 74.1318L63.4898 74.1239L54.0917 74.0055C54.0917 74.0055 51.5396 71.5707 49.3174 69.064L49.6289 66.8111C49.9327 64.6001 51.0295 62.5748 52.7151 61.1121C55.8979 63.2388 57.7437 67.4484 57.7437 67.4484L60.8385 68.8332C63.0165 68.9307 65.1388 69.5522 67.0252 70.6451L68.043 71.2347L68.6937 74.1894Z" fill="#C7C7C7"/>
<path d="M102.638 114.011L101.101 114.391L100.468 113.007L100.124 114.632L96.0475 115.638C95.8521 115.686 95.6464 115.67 95.4604 115.593C95.2744 115.516 95.1179 115.382 95.0138 115.21C94.9096 115.038 94.8631 114.837 94.8813 114.636C94.8994 114.436 94.9811 114.246 95.1145 114.096L97.815 111.044L97.453 109.577L100.927 108.937L102.638 114.011Z" fill="#2F2E41"/>
<path d="M86.3553 114.486L84.8896 113.887L85.1928 112.397L83.9579 113.507L80.0706 111.92C79.8843 111.844 79.7271 111.711 79.6221 111.539C79.5171 111.367 79.4697 111.166 79.4868 110.966C79.504 110.765 79.5848 110.576 79.7175 110.424C79.8501 110.273 80.0277 110.168 80.2242 110.125L84.2037 109.248L84.7747 107.849L87.9603 109.377L86.3553 114.486Z" fill="#2F2E41"/>
<path d="M81.2511 73.7028H80.0504C78.7593 73.7013 77.5215 73.1878 76.6086 72.2749C75.6957 71.3619 75.1821 70.1241 75.1807 68.8331V68.7664H86.1209V68.8331C86.1194 70.1241 85.6059 71.3619 84.6929 72.2749C83.78 73.1878 82.5422 73.7013 81.2511 73.7028Z" fill="#E4E4E4"/>
<path d="M80.0509 67.032C80.0509 67.3636 79.4505 67.6324 79.4505 67.6324C79.4505 67.6324 78.8501 67.3636 78.8501 67.032C78.8501 66.7004 79.4505 66.4316 79.4505 66.4316C79.4505 66.4316 80.0509 66.7004 80.0509 67.032Z" fill="#3F3D56"/>
<path d="M83.6529 67.032C83.6529 67.3636 83.0525 67.6324 83.0525 67.6324C83.0525 67.6324 82.4521 67.3636 82.4521 67.032C82.4521 66.7004 83.0525 66.4316 83.0525 66.4316C83.0525 66.4316 83.6529 66.7004 83.6529 67.032Z" fill="#3F3D56"/>
<path d="M81.2515 68.2327C81.2515 68.5643 80.6512 68.8331 80.6512 68.8331C80.6512 68.8331 80.0508 68.5643 80.0508 68.2327C80.0508 67.9011 80.6512 67.6323 80.6512 67.6323C80.6512 67.6323 81.2515 67.9011 81.2515 68.2327Z" fill="#3F3D56"/>
<path d="M77.0486 65.7645C77.3802 65.7645 77.649 65.4957 77.649 65.1641C77.649 64.8325 77.3802 64.5637 77.0486 64.5637C76.717 64.5637 76.4482 64.8325 76.4482 65.1641C76.4482 65.4957 76.717 65.7645 77.0486 65.7645Z" fill="#3F3D56"/>
<path d="M68.317 63.874L77.7859 65.1818C77.8716 65.1936 77.954 65.2226 78.0281 65.2672C78.1022 65.3117 78.1665 65.3708 78.2172 65.4409C78.2678 65.511 78.3037 65.5907 78.3227 65.675C78.3417 65.7594 78.3434 65.8467 78.3277 65.9318C78.312 66.0168 78.2792 66.0978 78.2314 66.1698C78.1835 66.2418 78.1215 66.3034 78.0492 66.3508C77.9769 66.3982 77.8957 66.4304 77.8106 66.4456C77.7254 66.4607 77.6381 66.4585 77.5539 66.4389L68.2422 64.2792C68.1905 64.2673 68.1454 64.2358 68.1163 64.1914C68.0872 64.147 68.0763 64.0931 68.0859 64.0409C68.0956 63.9887 68.125 63.9422 68.168 63.9111C68.2111 63.88 68.2644 63.8667 68.317 63.874Z" fill="#E4E4E4"/>
<path d="M79.8237 34.0397V16H78.6229V34.0397C76.9823 34.1894 75.4569 34.9469 74.3461 36.1635C73.2353 37.3801 72.6193 38.968 72.6191 40.6154V42.4166H76.8218C76.8218 43.0535 77.0748 43.6643 77.5252 44.1147C77.9755 44.565 78.5864 44.8181 79.2233 44.8181C79.8602 44.8181 80.471 44.565 80.9214 44.1147C81.3718 43.6643 81.6248 43.0535 81.6248 42.4166H85.8274V40.6154C85.8272 38.968 85.2113 37.3801 84.1005 36.1635C82.9897 34.9469 81.4643 34.1894 79.8237 34.0397Z" fill="#F0F0F0"/>
<path d="M95.2833 29.5298V16H94.3827V29.5298C93.1522 29.642 92.0082 30.2102 91.1751 31.1226C90.342 32.0351 89.88 33.226 89.8799 34.4616V35.8124H93.0319C93.0319 36.2901 93.2216 36.7482 93.5594 37.086C93.8972 37.4238 94.3553 37.6135 94.833 37.6135C95.3107 37.6135 95.7688 37.4238 96.1066 37.086C96.4444 36.7482 96.6341 36.2901 96.6341 35.8124H99.7861V34.4616C99.7859 33.226 99.324 32.0351 98.4909 31.1226C97.6578 30.2102 96.5137 29.642 95.2833 29.5298Z" fill="#F0F0F0"/>
<path d="M64.8643 29.5298V16H63.9638V29.5298C62.7333 29.642 61.5892 30.2102 60.7561 31.1226C59.923 32.0351 59.4611 33.226 59.4609 34.4616V35.8124H62.6129C62.6129 36.2901 62.8027 36.7482 63.1405 37.086C63.4782 37.4238 63.9364 37.6135 64.414 37.6135C64.8917 37.6135 65.3499 37.4238 65.6876 37.086C66.0254 36.7482 66.2152 36.2901 66.2152 35.8124H69.3671V34.4616C69.367 33.226 68.905 32.0351 68.0719 31.1226C67.2388 30.2102 66.0948 29.642 64.8643 29.5298Z" fill="#F0F0F0"/>
<path d="M119.066 47.81C118.217 46.8192 117.813 45.5045 117.134 44.3793C116.454 43.2541 115.272 42.2471 114.023 42.5089C113.163 42.6894 112.497 43.449 112.161 44.2959C111.824 45.1428 111.761 46.0767 111.702 46.9916C111.723 45.1114 110.484 43.2887 108.777 42.6887C107.071 42.0888 105.029 42.758 103.957 44.2685C103.489 43.8348 102.878 43.5879 102.24 43.5745C101.602 43.5611 100.982 43.7822 100.496 44.1959C99.5371 45.0531 99.3248 46.6845 100.03 47.7779C100.735 48.8713 102.263 49.2786 103.384 48.6722L103.78 49.0367C103.557 49.8168 103.99 50.7384 104.717 51.0321C105.306 51.2702 106.139 51.2306 106.36 51.8494C106.514 52.2817 106.226 52.7432 105.919 53.0755C105.612 53.4077 105.248 53.7508 105.212 54.2105C105.156 54.9042 105.873 55.3902 106.525 55.5365C108.096 55.8894 109.839 55.1618 110.745 53.7751C110.762 53.7484 110.781 53.7216 110.802 53.6948C111.31 53.045 111.68 52.2984 111.89 51.5007C112.1 50.703 112.145 49.8709 112.022 49.0552C111.971 48.7347 112.023 48.4963 112.244 48.4204C113.199 48.0923 115.875 48.7809 116.685 49.4032C117.494 50.0255 118.143 50.849 118.923 51.5115C119.703 52.174 120.697 52.685 121.688 52.5046C122.481 52.3601 123.156 51.7842 123.61 51.0895C124.064 50.3949 124.325 49.5852 124.559 48.7805C122.805 49.7938 120.404 49.3696 119.066 47.81Z" fill="#2F2E41"/>
</g>
<defs>
<clipPath id="clip0_1304_24294">
<rect width="119.232" height="100" fill="white" transform="translate(23 16)"/>
</clipPath>
</defs>
</svg>
