<svg width="166" height="124" viewBox="0 0 166 124" fill="none" xmlns="http://www.w3.org/2000/svg">
<g clip-path="url(#clip0_1304_24220)">
<path d="M100.524 114.882L78.2151 74.6117C78.2088 74.5131 78.1783 74.4177 78.1264 74.3337C78.0744 74.2498 78.0026 74.1799 77.9173 74.1304C77.8195 74.0742 77.7077 74.0472 77.5951 74.0524C77.5915 74.0521 77.5878 74.0523 77.5842 74.0521C77.5805 74.0524 77.5769 74.0521 77.5733 74.0524C77.4207 74.0453 77.2712 74.0975 77.1562 74.1981C77.0411 74.2987 76.9694 74.44 76.956 74.5924L53.3115 114.882C53.272 114.95 53.2464 115.026 53.2361 115.104C53.2258 115.182 53.231 115.261 53.2513 115.338C53.2717 115.414 53.3069 115.485 53.3548 115.548C53.4028 115.61 53.4626 115.663 53.5308 115.702C53.599 115.742 53.6743 115.767 53.7524 115.778C53.8305 115.788 53.9099 115.783 53.986 115.762C54.062 115.742 54.1334 115.707 54.1958 115.659C54.2583 115.611 54.3107 115.551 54.3501 115.482L77.5682 75.9193L99.4857 115.482C99.5251 115.551 99.5775 115.611 99.6399 115.659C99.7024 115.707 99.7737 115.742 99.8498 115.762C99.9259 115.783 100.005 115.788 100.083 115.778C100.161 115.767 100.237 115.742 100.305 115.702C100.373 115.663 100.433 115.61 100.481 115.548C100.529 115.485 100.564 115.414 100.584 115.338C100.605 115.261 100.61 115.182 100.6 115.104C100.589 115.026 100.564 114.95 100.524 114.882Z" fill="#3F3D56"/>
<path d="M73.8878 107.973L76.4095 107.393L75.3779 97.3799L71.6562 98.2347L73.8878 107.973Z" fill="#FFB6B6"/>
<path d="M75.8373 103.135L72.2487 103.959L71.1013 101.714L71.0363 101.635C70.5273 101.009 70.2448 100.23 70.2347 99.423L67.2521 91.5238L67.0082 91.4077C66.8195 91.3179 66.6521 91.1888 66.5173 91.029C66.3824 90.8692 66.2831 90.6825 66.2261 90.4813C66.169 90.2801 66.1555 90.069 66.1865 89.8621C66.2174 89.6552 66.292 89.4573 66.4054 89.2816L66.0897 88.4454L57.1797 88.4618L57.1708 88.4593L46.2295 85.3865L47.3783 78.53L50.4561 80.4684C51.4703 80.4025 68.8432 79.3346 70.4481 83.2326C71.8773 86.7037 73.9369 92.6341 75.4129 96.9977C75.4865 97.1936 75.578 97.3823 75.6862 97.5614C75.9159 97.9155 76.0506 98.3228 76.0776 98.7441C76.095 98.9274 76.1299 99.1086 76.1819 99.2852C76.7953 101.121 75.8607 103.087 75.8512 103.107L75.8373 103.135Z" fill="#2F2E41"/>
<path d="M73.0356 107.135L73.8555 106.947L76.7578 104.909L78.7719 105.818L78.7721 105.818C79.7416 105.595 80.7598 105.767 81.6026 106.296C82.4454 106.825 83.0438 107.667 83.2663 108.638L83.2936 108.757L73.9017 110.914L73.0356 107.135Z" fill="#2F2E41"/>
<path d="M35.8043 107.36C36.0606 104.566 37.6952 101.769 40.317 100.778C39.3635 103.676 39.4645 106.818 40.6022 109.649C41.0449 110.739 41.6507 111.905 41.3032 113.029C41.087 113.728 40.5208 114.276 39.8795 114.628C39.2382 114.98 38.5198 115.161 37.8103 115.339L37.6735 115.46C36.4571 112.932 35.5479 110.154 35.8043 107.36Z" fill="#F0F0F0"/>
<path d="M40.3451 100.83C38.857 102.611 37.9673 104.817 37.8025 107.133C37.7581 107.631 37.7925 108.133 37.9043 108.621C38.0285 109.092 38.2764 109.521 38.6224 109.864C38.9386 110.19 39.2997 110.487 39.5312 110.884C39.6467 111.089 39.7175 111.317 39.7391 111.551C39.7607 111.786 39.7325 112.022 39.6564 112.245C39.4813 112.805 39.1155 113.269 38.7421 113.71C38.3275 114.2 37.8891 114.702 37.7266 115.339C37.7069 115.416 37.5885 115.381 37.6081 115.304C37.8909 114.196 38.9352 113.538 39.4111 112.533C39.6331 112.064 39.7154 111.525 39.4777 111.045C39.2699 110.626 38.8977 110.319 38.5747 109.992C38.2323 109.662 37.9757 109.254 37.8273 108.802C37.6911 108.322 37.6375 107.822 37.6688 107.324C37.7213 106.202 37.9498 105.095 38.3458 104.043C38.7912 102.841 39.4388 101.724 40.2605 100.74C40.3113 100.679 40.3957 100.77 40.3451 100.83Z" fill="white"/>
<path d="M37.8116 106.384C37.4271 106.304 37.0838 106.089 36.8429 105.779C36.6019 105.468 36.479 105.082 36.4962 104.689C36.4971 104.673 36.5041 104.658 36.5158 104.647C36.5275 104.636 36.543 104.63 36.559 104.631C36.575 104.631 36.5903 104.637 36.6016 104.649C36.613 104.66 36.6195 104.675 36.6197 104.691C36.6031 105.057 36.7176 105.417 36.9425 105.706C37.1675 105.994 37.4881 106.193 37.8465 106.266C37.9244 106.282 37.889 106.4 37.8116 106.384Z" fill="white"/>
<path d="M38.4401 109.72C39.1158 109.286 39.6033 108.613 39.8054 107.835C39.8254 107.758 39.9438 107.793 39.9239 107.87C39.7121 108.679 39.2033 109.378 38.4991 109.828C38.432 109.871 38.3733 109.762 38.4401 109.72Z" fill="white"/>
<path d="M38.9093 102.954C39.0516 103.017 39.207 103.042 39.3617 103.03C39.5164 103.017 39.6655 102.966 39.7956 102.881C39.8622 102.837 39.9208 102.946 39.8546 102.989C39.7105 103.082 39.5458 103.139 39.3749 103.153C39.204 103.168 39.0322 103.14 38.8744 103.073C38.859 103.068 38.8461 103.057 38.8383 103.043C38.8306 103.029 38.8285 103.012 38.8326 102.996C38.8373 102.981 38.848 102.967 38.8624 102.96C38.8768 102.952 38.8936 102.95 38.9093 102.954Z" fill="white"/>
<path d="M48.5563 105.489C48.5155 105.517 48.4747 105.546 48.4339 105.575C47.8875 105.961 47.3732 106.39 46.8962 106.859C46.8587 106.895 46.8213 106.931 46.7849 106.968C45.6477 108.11 44.7321 109.453 44.0847 110.93C43.8276 111.517 43.6155 112.124 43.4503 112.744C43.2223 113.6 43.043 114.547 42.56 115.257C42.5104 115.331 42.4563 115.403 42.3979 115.471L37.8314 115.618C37.8209 115.613 37.8103 115.609 37.7997 115.604L37.6177 115.618C37.624 115.586 37.6312 115.552 37.6375 115.519C37.641 115.5 37.6456 115.481 37.6492 115.463C37.6519 115.45 37.6547 115.437 37.6564 115.426C37.6573 115.422 37.6582 115.417 37.6591 115.414C37.6608 115.403 37.6636 115.392 37.6654 115.382C37.7052 115.193 37.7465 115.005 37.7891 114.817C37.7891 114.816 37.7891 114.816 37.7901 114.815C38.1012 113.377 38.5815 111.981 39.221 110.657C39.2407 110.618 39.2602 110.577 39.2819 110.538C39.5789 109.951 39.9233 109.39 40.3117 108.859C40.5253 108.569 40.7534 108.291 40.9951 108.024C41.6211 107.336 42.3512 106.751 43.1588 106.29C44.7688 105.371 46.6543 104.979 48.4217 105.451C48.4669 105.463 48.5111 105.476 48.5563 105.489Z" fill="#F0F0F0"/>
<path d="M48.548 105.547C46.2886 106.072 44.2519 107.297 42.7273 109.047C42.3924 109.418 42.118 109.84 41.9142 110.296C41.73 110.747 41.6699 111.239 41.74 111.722C41.7963 112.173 41.9061 112.627 41.8519 113.084C41.8208 113.318 41.7406 113.542 41.6169 113.742C41.4931 113.942 41.3284 114.114 41.1336 114.246C40.6569 114.588 40.086 114.738 39.5226 114.865C38.897 115.006 38.245 115.143 37.7323 115.553C37.6702 115.603 37.5967 115.503 37.6588 115.454C38.5508 114.74 39.7802 114.844 40.7645 114.328C41.2239 114.088 41.6135 113.707 41.7123 113.181C41.7987 112.72 41.6859 112.251 41.6249 111.795C41.5497 111.326 41.5904 110.845 41.7435 110.395C41.9234 109.929 42.1811 109.498 42.5056 109.119C43.2225 108.255 44.0708 107.508 45.0193 106.908C46.098 106.216 47.2869 105.714 48.5346 105.424C48.6118 105.406 48.6247 105.529 48.548 105.547Z" fill="white"/>
<path d="M43.1848 108.455C42.9263 108.159 42.7812 107.78 42.7756 107.387C42.7699 106.994 42.904 106.612 43.154 106.308C43.2047 106.247 43.3021 106.323 43.2513 106.385C43.018 106.667 42.8931 107.023 42.8991 107.389C42.9051 107.755 43.0417 108.107 43.2841 108.381C43.3367 108.441 43.2372 108.514 43.1848 108.455Z" fill="white"/>
<path d="M41.6811 111.497C42.4816 111.558 43.2756 111.314 43.9047 110.815C43.967 110.765 44.0405 110.865 43.9783 110.914C43.3226 111.432 42.4958 111.684 41.6629 111.619C41.5835 111.613 41.6021 111.491 41.6811 111.497Z" fill="white"/>
<path d="M46.1243 106.378C46.2005 106.513 46.3091 106.628 46.4403 106.711C46.5716 106.794 46.7213 106.843 46.8762 106.853C46.9556 106.859 46.9369 106.981 46.858 106.976C46.687 106.963 46.5217 106.909 46.3765 106.817C46.2312 106.726 46.1106 106.6 46.025 106.452C46.0158 106.438 46.012 106.422 46.0144 106.406C46.0167 106.39 46.0252 106.375 46.0379 106.365C46.0511 106.355 46.0675 106.351 46.0837 106.354C46.0999 106.356 46.1145 106.365 46.1243 106.378Z" fill="white"/>
<path d="M110.516 107.36C110.259 104.566 108.625 101.769 106.003 100.778C106.956 103.676 106.855 106.818 105.718 109.649C105.275 110.739 104.669 111.905 105.017 113.029C105.233 113.728 105.799 114.276 106.44 114.628C107.082 114.98 107.8 115.161 108.51 115.339L108.646 115.46C109.863 112.932 110.772 110.154 110.516 107.36Z" fill="#F0F0F0"/>
<path d="M105.975 100.83C107.463 102.611 108.353 104.817 108.518 107.133C108.562 107.631 108.528 108.133 108.416 108.621C108.292 109.092 108.044 109.521 107.698 109.864C107.382 110.19 107.02 110.487 106.789 110.884C106.673 111.089 106.603 111.317 106.581 111.551C106.559 111.786 106.588 112.022 106.664 112.245C106.839 112.805 107.205 113.269 107.578 113.71C107.993 114.2 108.431 114.702 108.594 115.339C108.613 115.416 108.732 115.381 108.712 115.304C108.429 114.196 107.385 113.538 106.909 112.533C106.687 112.064 106.605 111.525 106.842 111.045C107.05 110.626 107.422 110.319 107.745 109.992C108.088 109.662 108.344 109.254 108.493 108.802C108.629 108.322 108.683 107.822 108.651 107.324C108.599 106.202 108.37 105.095 107.974 104.043C107.529 102.841 106.881 101.724 106.06 100.74C106.009 100.679 105.924 100.77 105.975 100.83Z" fill="white"/>
<path d="M108.509 106.384C108.893 106.304 109.237 106.089 109.477 105.779C109.718 105.468 109.841 105.082 109.824 104.689C109.823 104.673 109.816 104.658 109.805 104.647C109.793 104.636 109.777 104.63 109.761 104.631C109.745 104.631 109.73 104.637 109.719 104.649C109.707 104.66 109.701 104.675 109.701 104.691C109.717 105.057 109.603 105.417 109.378 105.706C109.153 105.994 108.832 106.193 108.474 106.266C108.396 106.282 108.431 106.4 108.509 106.384Z" fill="white"/>
<path d="M107.88 109.72C107.204 109.286 106.717 108.613 106.515 107.835C106.495 107.758 106.376 107.793 106.396 107.87C106.608 108.679 107.117 109.378 107.821 109.828C107.888 109.871 107.947 109.762 107.88 109.72Z" fill="white"/>
<path d="M107.411 102.954C107.269 103.017 107.113 103.042 106.958 103.03C106.804 103.017 106.655 102.966 106.525 102.881C106.458 102.837 106.399 102.946 106.466 102.989C106.61 103.082 106.774 103.139 106.945 103.153C107.116 103.168 107.288 103.14 107.446 103.073C107.461 103.068 107.474 103.057 107.482 103.043C107.49 103.029 107.492 103.012 107.488 102.996C107.483 102.981 107.472 102.967 107.458 102.96C107.443 102.952 107.427 102.95 107.411 102.954Z" fill="white"/>
<path d="M97.7637 105.489C97.8045 105.517 97.8453 105.546 97.8861 105.575C98.4325 105.961 98.9468 106.39 99.4238 106.859C99.4613 106.895 99.4987 106.931 99.5351 106.968C100.672 108.11 101.588 109.453 102.235 110.93C102.492 111.517 102.704 112.124 102.87 112.744C103.098 113.6 103.277 114.547 103.76 115.257C103.81 115.331 103.864 115.403 103.922 115.471L108.489 115.618C108.499 115.613 108.51 115.609 108.52 115.604L108.702 115.618C108.696 115.586 108.689 115.552 108.683 115.519C108.679 115.5 108.674 115.481 108.671 115.463C108.668 115.45 108.665 115.437 108.664 115.426C108.663 115.422 108.662 115.417 108.661 115.414C108.659 115.403 108.656 115.392 108.655 115.382C108.615 115.193 108.574 115.005 108.531 114.817C108.531 114.816 108.531 114.816 108.53 114.815C108.219 113.377 107.738 111.981 107.099 110.657C107.079 110.618 107.06 110.577 107.038 110.538C106.741 109.951 106.397 109.39 106.008 108.859C105.795 108.569 105.567 108.291 105.325 108.024C104.699 107.336 103.969 106.751 103.161 106.29C101.551 105.371 99.6657 104.979 97.8983 105.451C97.8531 105.463 97.8089 105.476 97.7637 105.489Z" fill="#F0F0F0"/>
<path d="M97.7721 105.547C100.032 106.072 102.068 107.297 103.593 109.047C103.928 109.418 104.202 109.84 104.406 110.296C104.59 110.747 104.65 111.239 104.58 111.722C104.524 112.173 104.414 112.627 104.468 113.084C104.499 113.318 104.579 113.542 104.703 113.742C104.827 113.942 104.992 114.114 105.187 114.246C105.663 114.588 106.234 114.738 106.798 114.865C107.423 115.006 108.075 115.143 108.588 115.553C108.65 115.603 108.723 115.503 108.661 115.454C107.769 114.74 106.54 114.844 105.556 114.328C105.096 114.088 104.707 113.707 104.608 113.181C104.521 112.72 104.634 112.251 104.695 111.795C104.77 111.326 104.73 110.845 104.577 110.395C104.397 109.929 104.139 109.498 103.815 109.119C103.098 108.255 102.249 107.508 101.301 106.908C100.222 106.216 99.0333 105.714 97.7856 105.424C97.7083 105.406 97.6954 105.529 97.7721 105.547Z" fill="white"/>
<path d="M103.135 108.455C103.394 108.159 103.539 107.78 103.544 107.387C103.55 106.994 103.416 106.612 103.166 106.308C103.115 106.247 103.018 106.323 103.069 106.385C103.302 106.667 103.427 107.023 103.421 107.389C103.415 107.755 103.278 108.107 103.036 108.381C102.983 108.441 103.083 108.514 103.135 108.455Z" fill="white"/>
<path d="M104.639 111.497C103.838 111.558 103.044 111.314 102.415 110.815C102.353 110.765 102.279 110.865 102.341 110.914C102.997 111.432 103.824 111.684 104.657 111.619C104.736 111.613 104.718 111.491 104.639 111.497Z" fill="white"/>
<path d="M100.196 106.378C100.12 106.513 100.011 106.628 99.88 106.711C99.7488 106.794 99.599 106.843 99.4442 106.853C99.3647 106.859 99.3834 106.981 99.4623 106.976C99.6333 106.963 99.7987 106.909 99.9439 106.817C100.089 106.726 100.21 106.6 100.295 106.452C100.305 106.438 100.308 106.422 100.306 106.406C100.304 106.39 100.295 106.375 100.282 106.365C100.269 106.355 100.253 106.351 100.237 106.354C100.22 106.356 100.206 106.365 100.196 106.378Z" fill="white"/>
<path d="M142.091 115.841C142.091 115.883 142.074 115.924 142.044 115.953C142.015 115.983 141.974 116 141.932 116H23.1586C23.1165 116 23.0762 115.983 23.0464 115.953C23.0167 115.924 23 115.883 23 115.841C23 115.799 23.0167 115.759 23.0464 115.729C23.0762 115.699 23.1165 115.682 23.1586 115.682H141.932C141.974 115.682 142.015 115.699 142.044 115.729C142.074 115.759 142.091 115.799 142.091 115.841Z" fill="#3F3D56"/>
<path d="M99.5054 54.4241C99.8366 54.4241 100.105 54.1553 100.105 53.8238C100.105 53.4922 99.8366 53.2234 99.5054 53.2234C99.1742 53.2234 98.9058 53.4922 98.9058 53.8238C98.9058 54.1553 99.1742 54.4241 99.5054 54.4241Z" fill="#3F3D56"/>
<path d="M91.9968 58.4483L100.081 53.3632C100.154 53.3172 100.236 53.2865 100.321 53.273C100.407 53.2595 100.494 53.2634 100.578 53.2846C100.661 53.3057 100.74 53.3436 100.809 53.3961C100.877 53.4485 100.935 53.5143 100.977 53.5895C101.02 53.6647 101.047 53.7478 101.056 53.8338C101.066 53.9197 101.058 54.0067 101.033 54.0895C101.008 54.1723 100.967 54.2492 100.911 54.3155C100.856 54.3819 100.788 54.4363 100.711 54.4754L92.1997 58.8068C92.1524 58.8309 92.0977 58.8357 92.047 58.8204C91.9962 58.8051 91.9533 58.7708 91.9272 58.7247C91.901 58.6785 91.8937 58.624 91.9066 58.5725C91.9196 58.5211 91.9519 58.4766 91.9968 58.4483Z" fill="#E4E4E4"/>
<path d="M75.7775 69.3977C75.7138 69.3029 75.6805 69.1909 75.6822 69.0767C75.6838 68.9624 75.7203 68.8514 75.7867 68.7585C75.9235 68.5751 76.1057 68.4305 76.3152 68.3389C76.7478 68.1185 77.2137 67.9711 77.6943 67.9026C78.0594 67.8507 78.458 67.8342 78.7413 67.5977C79.0227 67.3627 79.1796 66.9234 79.5442 66.8867C79.8967 66.8513 80.1676 67.2376 80.5211 67.2615C80.9567 67.2911 81.242 66.7806 81.6659 66.6759C81.9497 66.6058 82.2415 66.7295 82.5077 66.8504L84.1051 67.5759L84.9238 67.9478C85.2098 68.0777 85.5324 68.2527 85.5864 68.5624C85.6605 68.988 85.1878 69.2883 84.7836 69.4394C81.8971 70.5059 78.7253 70.5063 75.8386 69.4405" fill="#F9A826"/>
<path d="M78.1841 77.2384C89.7756 77.2384 99.1724 75.8944 99.1724 74.2365C99.1724 72.5786 89.7756 71.2346 78.1841 71.2346C66.5926 71.2346 57.1958 72.5786 57.1958 74.2365C57.1958 75.8944 66.5926 77.2384 78.1841 77.2384Z" fill="#3F3D56"/>
<path d="M120.76 92.8481H106.368C105.706 92.8481 105.169 93.3857 105.169 94.0489C105.169 94.7121 105.706 95.2496 106.368 95.2496H120.76C121.423 95.2496 121.96 94.7121 121.96 94.0489C121.96 93.3857 121.423 92.8481 120.76 92.8481Z" fill="#3F3D56"/>
<path d="M127.735 71.4401L122.982 94.0476L124.22 99.8339L126.557 110.754V115.663C126.557 115.669 126.557 115.676 126.556 115.683C126.555 115.791 126.535 115.898 126.497 116H124.618C124.58 115.898 124.56 115.791 124.559 115.683C124.558 115.676 124.558 115.669 124.558 115.663V110.965L122.437 101.053L122.008 99.0521L121.177 95.1737L120.938 94.0503V94.049L121.175 92.9229L121.357 92.0544L125.779 71.0292C125.806 70.9005 125.858 70.7784 125.932 70.6698C126.006 70.5612 126.1 70.4682 126.21 70.3963C126.32 70.3243 126.443 70.2748 126.572 70.2504C126.701 70.2261 126.834 70.2275 126.962 70.2545C127.091 70.2815 127.213 70.3336 127.321 70.4078C127.43 70.482 127.522 70.5769 127.594 70.687C127.666 70.7971 127.715 70.9203 127.739 71.0495C127.764 71.1788 127.762 71.3115 127.735 71.4401Z" fill="#3F3D56"/>
<path d="M107.368 94.049V115.663C107.368 115.669 107.367 115.676 107.366 115.683C107.365 115.791 107.346 115.898 107.308 116H105.429C105.391 115.898 105.371 115.791 105.37 115.683C105.369 115.676 105.368 115.669 105.369 115.663V94.049C105.369 93.7836 105.474 93.5291 105.661 93.3414C105.849 93.1538 106.103 93.0483 106.368 93.0483C106.633 93.0483 106.887 93.1538 107.075 93.3414C107.262 93.5291 107.368 93.7836 107.368 94.049Z" fill="#3F3D56"/>
<path d="M108.767 90.4465H118.362C119.316 90.4465 120.231 90.8261 120.906 91.5016C121.581 92.1772 121.96 93.0934 121.96 94.0488H105.169C105.169 93.0934 105.548 92.1772 106.223 91.5016C106.898 90.8261 107.813 90.4465 108.767 90.4465Z" fill="#3F3D56"/>
<path d="M123.159 101.053H106.369C106.104 101.053 105.849 100.948 105.662 100.76C105.474 100.573 105.369 100.318 105.369 100.053C105.369 99.7872 105.474 99.5327 105.662 99.3451C105.849 99.1574 106.104 99.052 106.369 99.052H123.159C123.424 99.052 123.678 99.1574 123.866 99.3451C124.053 99.5327 124.159 99.7872 124.159 100.053C124.159 100.318 124.053 100.573 123.866 100.76C123.678 100.948 123.424 101.053 123.159 101.053Z" fill="#3F3D56"/>
<path d="M45.057 95.2861H61.9931C62.6554 95.2861 63.1924 94.7485 63.1924 94.0854V93.7215C63.1924 93.0584 62.6554 92.5208 61.9931 92.5208H45.057C44.3947 92.5208 43.8577 93.0584 43.8577 93.7215V94.0854C43.8577 94.7485 44.3947 95.2861 45.057 95.2861Z" fill="#3F3D56"/>
<path d="M44.8825 93.9195L44.5759 95.1843L43.4512 99.8165L42.9662 101.818L40.7141 111.101V115.129C40.7147 115.326 40.6562 115.519 40.5462 115.682C40.4597 115.815 40.3421 115.924 40.2038 116H39.2256C39.0872 115.924 38.9696 115.815 38.8831 115.682C38.7731 115.519 38.7146 115.326 38.7152 115.129V110.861L41.2178 100.548L42.833 93.8875L37.356 67.8378C37.3289 67.7092 37.3274 67.5766 37.3515 67.4474C37.3756 67.3182 37.425 67.1951 37.4967 67.085C37.5684 66.975 37.661 66.8801 37.7694 66.806C37.8777 66.7318 37.9996 66.6797 38.128 66.6527C38.2565 66.6257 38.389 66.6243 38.518 66.6486C38.6469 66.6729 38.7699 66.7224 38.8797 66.7943C38.9896 66.8662 39.0842 66.9591 39.1582 67.0676C39.2322 67.1762 39.2841 67.2983 39.3109 67.4269L44.3734 91.4993L44.6066 92.6093L44.8784 93.9035L44.8825 93.9195Z" fill="#3F3D56"/>
<path d="M62.8114 93.9035V115.129C62.812 115.326 62.7535 115.519 62.6434 115.682C62.557 115.815 62.4394 115.924 62.301 116H61.3215C61.1838 115.923 61.0667 115.814 60.9804 115.682C60.8704 115.519 60.8119 115.326 60.8125 115.129V93.9035C60.8125 93.6381 60.9178 93.3836 61.1052 93.1959C61.2927 93.0082 61.5469 92.9028 61.8119 92.9028C62.077 92.9028 62.3312 93.0082 62.5187 93.1959C62.7061 93.3836 62.8114 93.6381 62.8114 93.9035Z" fill="#3F3D56"/>
<path d="M63.1924 93.9033H43.8577V93.3575C43.8577 92.8845 43.9508 92.416 44.1316 91.979C44.3124 91.5419 44.5774 91.1448 44.9115 90.8103C45.2456 90.4758 45.6423 90.2105 46.0788 90.0295C46.5153 89.8484 46.9832 89.7553 47.4557 89.7553H59.5944C60.5486 89.7553 61.4638 90.1348 62.1386 90.8103C62.8133 91.4859 63.1924 92.4021 63.1924 93.3575L63.1924 93.9033Z" fill="#3F3D56"/>
<path d="M61.8112 101.817H42.4765C42.2114 101.817 41.9572 101.712 41.7698 101.524C41.5824 101.337 41.4771 101.082 41.4771 100.817C41.4771 100.551 41.5824 100.297 41.7698 100.109C41.9572 99.9216 42.2114 99.8162 42.4765 99.8162H61.8112C62.0763 99.8162 62.3305 99.9216 62.5179 100.109C62.7053 100.297 62.8106 100.551 62.8106 100.817C62.8106 101.082 62.7053 101.337 62.5179 101.524C62.3305 101.712 62.0763 101.817 61.8112 101.817Z" fill="#3F3D56"/>
<path d="M86.6596 110.546L84.5591 109.54L87.4445 100.75L90.5449 102.234L86.6596 110.546Z" fill="#9E616A"/>
<path d="M100.896 109.75L98.637 110.308L95.3643 101.656L98.6981 100.833L100.896 109.75Z" fill="#9E616A"/>
<path d="M92.2379 72.3376C92.5375 72.8248 93.0155 73.1754 93.5697 73.3146C94.124 73.4538 94.7107 73.3706 95.2045 73.0827C95.3038 73.0226 95.398 72.9542 95.486 72.8785L102.127 76.6942L101.839 72.7773L95.5764 69.7543C95.2356 69.4116 94.7909 69.1918 94.312 69.1294C93.833 69.0669 93.3469 69.1654 92.9299 69.4092C92.6898 69.5536 92.4809 69.7446 92.3156 69.9709C92.1504 70.1973 92.032 70.4545 91.9675 70.7274C91.9031 71.0003 91.8938 71.2833 91.9402 71.5599C91.9866 71.8364 92.0879 72.1008 92.2379 72.3376Z" fill="#9E616A"/>
<path d="M99.272 75.2572L100.446 75.9735L105.718 79.1923C106.064 79.4093 106.45 79.5557 106.853 79.6234C107.256 79.691 107.668 79.6785 108.066 79.5865C108.464 79.4945 108.84 79.3249 109.173 79.0873C109.505 78.8497 109.788 78.5489 110.004 78.2019C110.394 77.558 110.533 76.7921 110.392 76.0522L108.048 64.3312C107.962 63.871 107.777 63.435 107.507 63.053C107.236 62.671 106.887 62.3519 106.482 62.1175C106.077 61.8832 105.626 61.7391 105.161 61.6952C104.695 61.6513 104.226 61.7086 103.784 61.8631C103.042 62.1242 102.427 62.6585 102.065 63.3573C101.702 64.0561 101.619 64.867 101.833 65.6249L104.283 73.943L100.527 72.1899L99.272 75.2572Z" fill="#E6E6E6"/>
<path d="M96.4963 107.325L92.8818 100.068L92.8823 100.051L93.2392 86.7391C93.2436 86.6207 93.2532 86.5018 93.2676 86.3848C93.3306 85.851 93.4992 85.3351 93.7634 84.8673C94.0276 84.3994 94.3822 83.9889 94.8065 83.6596C95.2129 83.3413 95.6785 83.1071 96.1762 82.9709C96.6739 82.8346 97.1938 82.7989 97.7054 82.8659L108.041 84.205L108.399 82.7376L108.466 82.7132L118.369 79.0796L118.426 79.1726C119.723 81.2855 120.63 85.5059 120.877 86.749L120.88 86.767C120.886 86.7931 120.889 86.809 120.89 86.8137C121.4 88.9351 119.293 92.4494 117.195 92.9776C112.774 94.1055 108.821 93.2257 104.244 92.2067C102.602 91.8412 100.906 91.4635 99.0375 91.1369L99.0931 92.2379C99.1386 93.0854 99.3145 93.9207 99.6144 94.7145C99.9476 95.6914 100.211 96.463 99.6543 98.0719L99.3851 98.8502C99.5247 99.2366 99.5728 99.6501 99.5255 100.058C99.4782 100.466 99.3369 100.858 99.1126 101.202L99.0585 101.285L101.442 107.324L96.4963 107.325Z" fill="#2F2E41"/>
<path d="M90.5578 104.116L86.2476 103.715L87.7746 98.8252C88.0897 95.6327 88.8837 92.506 90.1298 89.5504L92.2127 84.6084C92.2175 84.4984 92.2268 84.3877 92.2402 84.2793C92.3032 83.7455 92.4717 83.2297 92.736 82.7618C93.0002 82.294 93.3548 81.8834 93.7791 81.5542C94.1855 81.236 94.6512 81.0019 95.1488 80.8657C95.6465 80.7294 96.1663 80.6937 96.6779 80.7605L106.998 82.0977L107.448 78.3205L117.353 76.9934L117.399 77.0673C119.13 79.8877 120.229 82.0958 120.858 84.0161C120.89 84.114 120.918 84.214 120.942 84.3135C121.455 86.4493 120.174 88.6146 118.085 89.1403C112.764 90.4987 106.364 90.461 97.9504 89.0211L93.8784 98.7231C93.4892 99.6498 93.0074 100.535 92.4402 101.364L90.5578 104.116Z" fill="#2F2E41"/>
<path d="M105.592 55.1364C108.35 55.1364 110.585 52.8485 110.585 50.0262C110.585 47.2039 108.35 44.916 105.592 44.916C102.835 44.916 100.6 47.2039 100.6 50.0262C100.6 52.8485 102.835 55.1364 105.592 55.1364Z" fill="#9E616A"/>
<path d="M107.034 82.2762L106.318 79.7067L106.142 78.4392L105.112 78.4736L103.091 73.8035L102.306 72.5721C102.146 72.4034 102.001 72.2411 101.871 72.0853C101.054 71.1598 100.398 70.1026 99.9318 68.9584C99.6053 68.1362 99.4135 67.2667 99.364 66.3833C99.2175 63.774 100.316 61.0134 102.723 57.9441C102.683 57.8355 102.657 57.7225 102.644 57.6076C102.601 57.2347 102.707 56.86 102.939 56.5648C103.17 56.2696 103.509 56.0779 103.881 56.0314L106.202 55.7704C106.383 55.75 106.565 55.7656 106.74 55.8165C106.914 55.8675 107.077 55.9526 107.218 56.067C107.365 56.1853 107.488 56.3318 107.578 56.498C107.669 56.6642 107.725 56.8467 107.744 57.035C107.775 57.3261 107.718 57.6199 107.58 57.8781C108.763 58.0285 109.878 58.5174 110.791 59.2862C111.703 60.0551 112.375 61.0711 112.725 62.2126C114.114 64.8087 115.221 67.5463 116.027 70.3786C116.186 70.9333 116.116 71.5049 116.047 72.0577C115.984 72.5683 115.919 73.0963 116.028 73.6225C116.14 74.1577 116.409 74.6947 116.694 75.2631C117.02 75.9142 117.357 76.5874 117.448 77.2736L117.455 77.3218L107.034 82.2762Z" fill="#E4E4E4"/>
<path opacity="0.2" d="M99.9932 68.9331C100.457 70.0707 101.109 71.1218 101.922 72.0424C102.061 72.2089 102.208 72.3724 102.362 72.5362L103.152 73.7769C106.064 71.592 108.423 62.9891 108.423 62.9891L105.138 62.3494L99.9932 68.9331Z" fill="black"/>
<path d="M98.0043 55.6139C98.2919 56.1086 98.3754 56.6961 98.237 57.2515C98.0986 57.8069 97.7492 58.2863 97.2631 58.5877C97.1633 58.6474 97.0588 58.6987 96.9506 58.7412L97.1831 66.404L93.8687 64.315L94.156 57.3586C94.0149 56.8957 94.031 56.399 94.2015 55.9462C94.3721 55.4933 94.6875 55.1097 95.0987 54.8553C95.3382 54.7102 95.6043 54.6147 95.8813 54.5743C96.1584 54.534 96.4406 54.5496 96.7115 54.6204C96.9823 54.6911 97.2363 54.8154 97.4583 54.9861C97.6804 55.1567 97.866 55.3702 98.0043 55.6139Z" fill="#9E616A"/>
<path d="M97.4745 63.5114L93.8296 64.0303L93.9863 71.5873C93.9954 72.1264 94.142 72.6542 94.4122 73.1206C94.6825 73.587 95.0673 73.9764 95.5303 74.2519C96.0958 74.5851 96.7542 74.7251 97.4061 74.651C98.0581 74.5769 98.6683 74.2926 99.1449 73.8411L107.75 65.5542C108.356 64.9792 108.718 64.1937 108.763 63.3594C108.807 62.5251 108.531 61.7053 107.991 61.0687C107.723 60.7517 107.395 60.4918 107.025 60.3043C106.655 60.1168 106.252 60.0056 105.838 59.9772C105.425 59.9489 105.01 60.004 104.618 60.1393C104.226 60.2745 103.865 60.4873 103.557 60.7648C103.472 60.8409 103.391 60.9216 103.315 61.0064L97.6329 67.5508L97.4745 63.5114Z" fill="#E6E6E6"/>
<path d="M66.9892 112.803L69.5763 112.803L70.807 102.812L66.9888 102.812L66.9892 112.803Z" fill="#FFB6B6"/>
<path d="M52.3252 55.2847C55.177 55.2847 57.4888 52.9702 57.4888 50.115C57.4888 47.2599 55.177 44.9453 52.3252 44.9453C49.4734 44.9453 47.1616 47.2599 47.1616 50.115C47.1616 52.9702 49.4734 55.2847 52.3252 55.2847Z" fill="#FFB6B6"/>
<path d="M70.4206 109.725H66.7571L65.8231 108.472L65.5703 107.291L65.3526 107.08C65.0575 106.797 64.8666 106.421 64.811 106.016C64.7555 105.61 64.8384 105.197 65.0464 104.844L62.3913 92.4415C61.6959 92.3803 53.8535 91.6783 48.402 90.7123C47.0068 90.4652 45.9175 89.7861 45.1644 88.6942C43.3137 86.0111 44.1065 81.6697 44.1147 81.6262L44.1238 81.5778L44.1727 81.5723L56.9063 80.1414L56.9234 80.1495C57.3459 80.3499 67.2911 85.0768 68.9163 86.7039C69.6502 87.4387 71.2875 91.8041 71.6541 96.4452C71.7197 97.2766 71.4834 98.1233 71.2549 98.9422C71.0411 99.7084 70.82 100.501 70.8637 101.25C70.9311 102.405 70.995 103.617 71.0536 104.853C71.0629 105.049 71.2111 105.253 71.3543 105.45C71.5039 105.656 71.6452 105.85 71.6542 106.054C71.7413 108.026 70.4536 109.684 70.4406 109.7L70.4206 109.725Z" fill="#2F2E41"/>
<path d="M71.2549 63.8844C70.9775 63.8085 70.6868 63.7944 70.4034 63.8431C70.12 63.8918 69.8507 64.0021 69.6145 64.1663C69.3782 64.3305 69.1808 64.5445 69.0362 64.7933C68.8915 65.0421 68.8031 65.3197 68.7771 65.6064L64.4868 66.9489L64.6658 69.7582L70.698 67.7771C71.182 67.7888 71.6535 67.6224 72.0231 67.3093C72.3927 66.9962 72.6347 66.5583 72.7034 66.0784C72.772 65.5986 72.6625 65.1102 72.3955 64.7059C72.1285 64.3015 71.7227 64.0092 71.2549 63.8844Z" fill="#FFB6B6"/>
<path d="M68.4555 68.5333L65.249 69.7484L65.167 69.9076C64.9704 70.2894 64.6304 70.5774 64.2218 70.7082C63.8131 70.8391 63.3692 70.802 62.9879 70.6052L55.7806 73.3362C55.7806 73.3362 52.562 70.1115 50.2705 67.2336L51.0515 62.4242C51.2324 61.3084 51.6168 60.2353 52.1857 59.2588C56.8852 60.2905 59.5829 66.8678 59.5829 66.8678L68.0526 65.2499L68.4555 68.5333Z" fill="#F9A826"/>
<path d="M51.5913 55.0085C50.2986 55.3581 48.8735 54.8934 47.8646 54.0118C46.8558 53.1303 46.2248 51.8812 45.8611 50.591C45.5948 49.6461 45.4686 48.5971 45.8888 47.71C46.309 46.8229 47.4401 46.2244 48.3126 46.6725C47.7743 46.0446 48.0433 45.0061 48.6719 44.469C49.3006 43.9319 50.1639 43.7779 50.9861 43.6937C52.1793 43.5715 53.4118 43.5578 54.5473 43.9449C55.6827 44.3319 56.7144 45.178 57.0697 46.325C57.4327 46.4942 57.8414 46.5381 58.2319 46.4498C58.6224 46.3615 58.9727 46.1461 59.2278 45.8372C59.2936 46.1919 59.2408 46.5585 59.0775 46.8802C58.9142 47.2019 58.6496 47.4607 58.3246 47.6167L60.0643 47.052C60.3635 47.686 59.8393 48.4708 59.1689 48.6738C58.4984 48.8769 57.7748 48.6549 57.1386 48.3616C56.5024 48.0682 55.8858 47.6974 55.1948 47.583C54.5038 47.4686 53.6921 47.6909 53.3724 48.3148C53.205 48.6416 53.1963 49.0244 53.0991 49.3786C53.0019 49.7327 52.7556 50.0999 52.3899 50.1289C52.1589 50.1472 51.9326 50.024 51.7022 50.0492C51.4166 50.0804 51.198 50.3395 51.1219 50.6169C51.0645 50.8996 51.0638 51.1909 51.1198 51.4739L51.5617 54.8558" fill="#2F2E41"/>
<path d="M45.1942 89.312C45.1932 89.3121 45.1922 89.3119 45.1913 89.3117L45.1505 89.3047L45.1387 89.265C44.9902 88.7651 44.8013 88.2534 44.6186 87.7585C44.3495 87.0731 44.1224 86.372 43.9383 85.659C43.7935 84.9773 43.693 84.287 43.6377 83.5923C43.5867 83.0879 43.534 82.5663 43.4444 82.0529C43.4046 81.825 43.5554 81.6091 43.7012 81.4003C43.8364 81.2068 43.9641 81.0239 43.9373 80.851C43.9099 80.6741 43.714 80.4798 43.5246 80.2919C43.3169 80.086 43.1021 79.8731 43.0717 79.649C42.6578 76.591 42.4651 73.5071 42.4952 70.4214C42.538 66.152 42.7307 63.2419 43.068 61.7718C43.975 57.8191 48.165 57.0977 48.8209 57.0087C48.8907 56.8224 48.9981 56.6525 49.1364 56.5096C49.2747 56.3666 49.4408 56.2537 49.6246 56.1779C49.8083 56.102 50.0056 56.0648 50.2043 56.0686C50.4031 56.0724 50.5988 56.1171 50.7795 56.2L53.7567 57.5644C54.3606 57.8422 54.901 58.2413 55.3443 58.737C55.7876 59.2327 56.1243 59.8143 56.3336 60.4458L56.7759 61.7957L56.9974 70.8573L55.7698 77.2385L58.1684 80.8407C45.3844 87.8678 45.2354 89.312 45.1942 89.312Z" fill="#F9A826"/>
<path d="M65.5972 111.796L66.4383 111.796L69.7223 110.459L71.4825 111.796H71.4827C72.4774 111.796 73.4313 112.192 74.1347 112.896C74.838 113.6 75.2332 114.555 75.2333 115.551V115.673L65.5973 115.673L65.5972 111.796Z" fill="#2F2E41"/>
<path d="M72.329 70.3508C72.081 70.2051 71.8041 70.1155 71.5178 70.0885C71.2315 70.0615 70.9428 70.0977 70.672 70.1945C70.4011 70.2912 70.1548 70.4463 69.9503 70.6487C69.7458 70.8511 69.5881 71.096 69.4884 71.366L64.9968 71.5414L64.3916 73.636L70.777 73.9633C71.2412 74.101 71.7397 74.0635 72.1781 73.8578C72.6165 73.6521 72.9643 73.2925 73.1557 72.8472C73.347 72.4019 73.3685 71.9019 73.2161 71.4418C73.0638 70.9817 72.7481 70.5935 72.329 70.3508Z" fill="#FFB6B6"/>
<path d="M68.6395 74.1894L64.0258 74.1318L63.4417 74.1239L54.0548 74.0055C54.0548 74.0055 51.5058 71.5707 49.2861 69.064L49.5972 66.8111C49.9007 64.6001 50.9962 62.5748 52.6798 61.1121C55.8589 63.2388 57.7024 67.4484 57.7024 67.4484L60.7936 68.8332C62.969 68.9307 65.0888 69.5522 66.973 70.6451L67.9896 71.2347L68.6395 74.1894Z" fill="#F9A826"/>
<path d="M102.544 114.011L101.008 114.391L100.377 113.007L100.033 114.632L95.9611 115.638C95.766 115.686 95.5605 115.67 95.3748 115.593C95.189 115.516 95.0327 115.382 94.9286 115.21C94.8246 115.038 94.7782 114.837 94.7963 114.636C94.8144 114.436 94.8961 114.246 95.0293 114.096L97.7266 111.044L97.365 109.577L100.835 108.937L102.544 114.011Z" fill="#2F2E41"/>
<path d="M86.2807 114.486L84.8168 113.887L85.1196 112.397L83.8862 113.507L80.0035 111.92C79.8174 111.844 79.6604 111.711 79.5555 111.539C79.4506 111.367 79.4033 111.166 79.4204 110.966C79.4376 110.765 79.5183 110.576 79.6508 110.424C79.7833 110.273 79.9606 110.168 80.157 110.125L84.1317 109.248L84.702 107.849L87.8839 109.377L86.2807 114.486Z" fill="#2F2E41"/>
<path d="M81.1824 73.7028H79.9831C78.6935 73.7013 77.4572 73.1878 76.5454 72.2749C75.6335 71.3619 75.1206 70.1241 75.1191 68.8331V68.7664H86.0464V68.8331C86.0449 70.1241 85.532 71.3619 84.6201 72.2749C83.7083 73.1878 82.472 73.7013 81.1824 73.7028Z" fill="#E4E4E4"/>
<path d="M79.983 67.032C79.983 67.3636 79.3834 67.6324 79.3834 67.6324C79.3834 67.6324 78.7837 67.3636 78.7837 67.032C78.7837 66.7004 79.3834 66.4316 79.3834 66.4316C79.3834 66.4316 79.983 66.7004 79.983 67.032Z" fill="#3F3D56"/>
<path d="M83.5812 67.032C83.5812 67.3636 82.9815 67.6324 82.9815 67.6324C82.9815 67.6324 82.3818 67.3636 82.3818 67.032C82.3818 66.7004 82.9815 66.4316 82.9815 66.4316C82.9815 66.4316 83.5812 66.7004 83.5812 67.032Z" fill="#3F3D56"/>
<path d="M81.1822 68.2327C81.1822 68.5643 80.5826 68.8331 80.5826 68.8331C80.5826 68.8331 79.9829 68.5643 79.9829 68.2327C79.9829 67.9011 80.5826 67.6323 80.5826 67.6323C80.5826 67.6323 81.1822 67.9011 81.1822 68.2327Z" fill="#3F3D56"/>
<path d="M76.9849 65.7645C77.3161 65.7645 77.5846 65.4957 77.5846 65.1641C77.5846 64.8325 77.3161 64.5637 76.9849 64.5637C76.6537 64.5637 76.3853 64.8325 76.3853 65.1641C76.3853 65.4957 76.6537 65.7645 76.9849 65.7645Z" fill="#3F3D56"/>
<path d="M68.2635 63.874L77.7212 65.1818C77.8068 65.1936 77.8891 65.2226 77.9631 65.2672C78.0371 65.3117 78.1014 65.3708 78.152 65.4409C78.2025 65.511 78.2384 65.5907 78.2574 65.675C78.2763 65.7594 78.278 65.8467 78.2624 65.9318C78.2467 66.0168 78.2139 66.0978 78.1661 66.1698C78.1183 66.2418 78.0564 66.3034 77.9842 66.3508C77.9119 66.3982 77.8309 66.4304 77.7458 66.4456C77.6608 66.4607 77.5736 66.4585 77.4894 66.4389L68.1888 64.2792C68.1371 64.2673 68.0921 64.2358 68.063 64.1914C68.0339 64.147 68.0231 64.0931 68.0327 64.0409C68.0423 63.9887 68.0717 63.9422 68.1147 63.9111C68.1577 63.88 68.211 63.8667 68.2635 63.874Z" fill="#E4E4E4"/>
<path d="M79.7565 34.0397V16H78.5572V34.0397C76.9185 34.1894 75.3949 34.9469 74.2854 36.1635C73.176 37.3801 72.5607 38.968 72.5605 40.6154V42.4166H76.7582C76.7582 43.0535 77.0109 43.6643 77.4608 44.1147C77.9106 44.565 78.5207 44.8181 79.1569 44.8181C79.793 44.8181 80.4031 44.565 80.853 44.1147C81.3028 43.6643 81.5555 43.0535 81.5555 42.4166H85.7532V40.6154C85.753 38.968 85.1378 37.3801 84.0283 36.1635C82.9188 34.9469 81.3952 34.1894 79.7565 34.0397Z" fill="#F0F0F0"/>
<path d="M95.1978 29.5298V16H94.2983V29.5298C93.0693 29.642 91.9266 30.2102 91.0945 31.1226C90.2623 32.0351 89.8009 33.226 89.8008 34.4616V35.8124H92.949C92.949 36.2901 93.1386 36.7482 93.4759 37.086C93.8133 37.4238 94.2709 37.6135 94.748 37.6135C95.2251 37.6135 95.6827 37.4238 96.0201 37.086C96.3575 36.7482 96.547 36.2901 96.547 35.8124H99.6953V34.4616C99.6951 33.226 99.2337 32.0351 98.4016 31.1226C97.5695 30.2102 96.4268 29.642 95.1978 29.5298Z" fill="#F0F0F0"/>
<path d="M64.8145 29.5298V16H63.915V29.5298C62.686 29.642 61.5433 30.2102 60.7112 31.1226C59.879 32.0351 59.4176 33.226 59.4175 34.4616V35.8124H62.5657C62.5657 36.2901 62.7553 36.7482 63.0926 37.086C63.43 37.4238 63.8876 37.6135 64.3647 37.6135C64.8418 37.6135 65.2994 37.4238 65.6368 37.086C65.9742 36.7482 66.1637 36.2901 66.1637 35.8124H69.312V34.4616C69.3118 33.226 68.8504 32.0351 68.0183 31.1226C67.1862 30.2102 66.0435 29.642 64.8145 29.5298Z" fill="#F0F0F0"/>
<path d="M118.953 47.81C118.104 46.8192 117.701 45.5045 117.022 44.3793C116.344 43.2541 115.163 42.2471 113.916 42.5089C113.056 42.6894 112.392 43.449 112.055 44.2959C111.719 45.1428 111.656 46.0767 111.597 46.9916C111.618 45.1114 110.381 43.2887 108.676 42.6887C106.972 42.0888 104.932 42.758 103.861 44.2685C103.394 43.8348 102.784 43.5879 102.147 43.5745C101.51 43.5611 100.89 43.7822 100.405 44.1959C99.4468 45.0531 99.2349 46.6845 99.9393 47.7779C100.644 48.8713 102.17 49.2786 103.289 48.6722L103.685 49.0367C103.462 49.8168 103.894 50.7384 104.62 51.0321C105.209 51.2702 106.041 51.2306 106.261 51.8494C106.415 52.2817 106.127 52.7432 105.821 53.0755C105.515 53.4077 105.151 53.7508 105.115 54.2105C105.059 54.9042 105.775 55.3902 106.426 55.5365C107.995 55.8894 109.737 55.1618 110.641 53.7751C110.659 53.7484 110.678 53.7216 110.698 53.6948C111.206 53.045 111.576 52.2984 111.785 51.5007C111.995 50.703 112.04 49.8709 111.917 49.0552C111.866 48.7347 111.918 48.4963 112.138 48.4204C113.092 48.0923 115.765 48.7809 116.574 49.4032C117.383 50.0255 118.031 50.849 118.81 51.5115C119.589 52.174 120.582 52.685 121.571 52.5046C122.363 52.3601 123.038 51.7842 123.491 51.0895C123.944 50.3949 124.205 49.5852 124.439 48.7805C122.687 49.7938 120.289 49.3696 118.953 47.81Z" fill="#2F2E41"/>
</g>
<defs>
<clipPath id="clip0_1304_24220">
<rect width="119.091" height="100" fill="white" transform="translate(23 16)"/>
</clipPath>
</defs>
</svg>
