<svg width="144" height="123" viewBox="0 0 144 123" fill="none" xmlns="http://www.w3.org/2000/svg">
<g clip-path="url(#clip0_1304_23861)">
<path d="M19.7439 120.488C19.4582 120.506 19.3003 120.151 19.5164 119.944L19.5379 119.858L19.5294 119.838C19.2405 119.149 18.2613 119.154 17.9748 119.844C17.7205 120.456 17.3968 121.07 17.3171 121.717C17.2814 122.003 17.2974 122.294 17.3609 122.575C16.7651 121.273 16.4516 119.852 16.4516 118.423C16.4516 118.064 16.4712 117.705 16.5114 117.347C16.5445 117.054 16.59 116.762 16.649 116.474C16.9678 114.914 17.6583 113.429 18.6542 112.188C19.133 111.926 19.5323 111.517 19.7734 111.027C19.8601 110.85 19.928 110.66 19.9601 110.466C19.9056 110.473 19.7547 109.643 19.7958 109.592C19.7198 109.477 19.5839 109.42 19.501 109.308C19.0886 108.748 18.5203 108.846 18.2237 109.606C17.59 109.926 17.5839 110.456 17.9727 110.966C18.2201 111.291 18.2541 111.73 18.4711 112.077C18.4488 112.106 18.4256 112.134 18.4032 112.162C17.9937 112.687 17.6396 113.252 17.341 113.845C17.4254 113.186 17.3008 112.392 17.0884 111.88C16.8467 111.297 16.3935 110.806 15.9945 110.301C15.5151 109.696 14.5322 109.96 14.4478 110.728L14.4454 110.75C14.5047 110.784 14.5627 110.819 14.6194 110.857C14.943 111.071 14.8312 111.572 14.4478 111.631L14.4391 111.633C14.4606 111.846 14.4972 112.058 14.5508 112.266C14.0388 114.246 15.1441 114.967 16.7222 114.999C16.757 115.017 16.791 115.035 16.8258 115.052C16.6659 115.502 16.5382 115.964 16.4435 116.432C16.3587 116.845 16.2997 117.263 16.2667 117.683C16.2256 118.213 16.2291 118.745 16.2738 119.274L16.2711 119.255C16.1577 118.673 15.8415 118.129 15.3824 117.752C14.6984 117.19 13.7321 116.983 12.9943 116.532C12.6391 116.314 12.184 116.595 12.2459 117.007L12.249 117.027C12.3588 117.071 12.466 117.123 12.5696 117.181C12.6289 117.215 12.687 117.25 12.7437 117.288C13.0672 117.502 12.9554 118.003 12.5721 118.062L12.5634 118.064L12.5455 118.066C12.734 118.514 12.9966 118.929 13.3253 119.287C13.6454 121.016 15.0202 121.18 16.4908 120.676H16.4917C16.6525 121.377 16.8874 122.061 17.1894 122.713H19.6814C19.6904 122.685 19.6984 122.657 19.7064 122.629C19.476 122.643 19.2438 122.63 19.0169 122.588C19.2018 122.361 19.3867 122.132 19.5716 121.906C19.576 121.901 19.5796 121.897 19.5832 121.892C19.677 121.776 19.7716 121.661 19.8654 121.545C19.8713 121.188 19.8285 120.833 19.7439 120.488Z" fill="#F2F2F2"/>
<path d="M125.816 120.488C126.102 120.506 126.259 120.151 126.043 119.944L126.022 119.858L126.03 119.838C126.319 119.149 127.298 119.154 127.585 119.844C127.839 120.456 128.163 121.07 128.243 121.717C128.278 122.003 128.262 122.294 128.199 122.575C128.795 121.273 129.108 119.852 129.108 118.423C129.108 118.064 129.089 117.705 129.048 117.347C129.015 117.054 128.97 116.762 128.911 116.474C128.592 114.914 127.901 113.429 126.905 112.188C126.427 111.926 126.027 111.517 125.786 111.027C125.7 110.85 125.632 110.66 125.6 110.466C125.654 110.473 125.805 109.643 125.764 109.592C125.84 109.477 125.976 109.42 126.059 109.308C126.471 108.748 127.039 108.846 127.336 109.606C127.97 109.926 127.976 110.456 127.587 110.966C127.34 111.291 127.306 111.73 127.089 112.077C127.111 112.106 127.134 112.134 127.156 112.162C127.566 112.687 127.92 113.252 128.219 113.845C128.134 113.186 128.259 112.392 128.471 111.88C128.713 111.297 129.166 110.806 129.565 110.301C130.045 109.696 131.027 109.96 131.112 110.728L131.114 110.75C131.055 110.784 130.997 110.819 130.94 110.857C130.617 111.071 130.729 111.572 131.112 111.631L131.121 111.633C131.099 111.846 131.063 112.058 131.009 112.266C131.521 114.246 130.416 114.967 128.838 114.999C128.803 115.017 128.769 115.035 128.734 115.052C128.894 115.502 129.022 115.964 129.116 116.432C129.201 116.845 129.26 117.263 129.293 117.683C129.334 118.213 129.331 118.745 129.286 119.274L129.289 119.255C129.402 118.673 129.718 118.129 130.177 117.752C130.861 117.19 131.828 116.983 132.565 116.532C132.921 116.314 133.376 116.595 133.314 117.007L133.311 117.027C133.201 117.071 133.094 117.123 132.99 117.181C132.931 117.215 132.873 117.25 132.816 117.288C132.492 117.502 132.604 118.003 132.988 118.062L132.996 118.064L133.014 118.066C132.826 118.514 132.563 118.929 132.234 119.287C131.914 121.016 130.54 121.18 129.069 120.676H129.068C128.907 121.377 128.672 122.061 128.37 122.713H125.878C125.869 122.685 125.861 122.657 125.853 122.629C126.084 122.643 126.316 122.63 126.543 122.588C126.358 122.361 126.173 122.132 125.988 121.906C125.984 121.901 125.98 121.897 125.977 121.892C125.883 121.776 125.788 121.661 125.694 121.545C125.688 121.188 125.731 120.833 125.816 120.488Z" fill="#F2F2F2"/>
<path d="M77.5688 121.544L79.708 121.543L80.7256 113.292L77.5684 113.292L77.5688 121.544Z" fill="#FFB6B6"/>
<path d="M84.8976 121.495C84.9642 121.607 84.9993 121.969 84.9993 122.1C84.9993 122.501 84.6743 122.826 84.2733 122.826H77.6486C77.3751 122.826 77.1533 122.604 77.1533 122.33V122.055C77.1533 122.055 76.8256 121.226 77.5003 120.204C77.5003 120.204 78.3389 121.004 79.5919 119.751L79.9615 119.082L82.6362 121.038L84.1188 121.22C84.4432 121.26 84.7307 121.214 84.8976 121.495Z" fill="#2F2E41"/>
<path d="M62.7954 121.544L64.9345 121.543L65.9521 113.292L62.7949 113.292L62.7954 121.544Z" fill="#FFB6B6"/>
<path d="M70.1242 121.495C70.1908 121.607 70.2259 121.969 70.2259 122.1C70.2259 122.501 69.9008 122.826 69.4999 122.826H62.8752C62.6016 122.826 62.3799 122.604 62.3799 122.33V122.055C62.3799 122.055 62.0521 121.226 62.7269 120.204C62.7269 120.204 63.5654 121.004 64.8185 119.751L65.188 119.082L67.8628 121.038L69.3454 121.22C69.6697 121.26 69.9573 121.214 70.1242 121.495Z" fill="#2F2E41"/>
<path d="M0.239094 123H143.311C143.443 123 143.55 122.893 143.55 122.761C143.55 122.629 143.443 122.522 143.311 122.522H0.239094C0.107045 122.522 0 122.629 0 122.761C0 122.893 0.107045 123 0.239094 123Z" fill="#E6E6E6"/>
<path d="M78.2078 82.5748L79.0006 83.6176C79.0006 83.6176 79.0724 84.1045 80.2748 88.0718L80.9345 117.891H76.9437L71.6103 94.032L66.0743 118.369L62.6152 118.573L62.7774 90.9114C62.7774 90.9114 62.4132 89.9488 62.723 88.8208C63.909 84.5033 63.8406 85.6416 63.8892 84.1637C63.9509 82.2897 78.2078 82.5748 78.2078 82.5748Z" fill="#2F2E41"/>
<path d="M71.9178 57.5169C74.2304 57.5169 76.1051 55.6422 76.1051 53.3296C76.1051 51.0171 74.2304 49.1423 71.9178 49.1423C69.6052 49.1423 67.7305 51.0171 67.7305 53.3296C67.7305 55.6422 69.6052 57.5169 71.9178 57.5169Z" fill="#FEB8B8"/>
<path d="M69.6663 58.3048L67.3493 59.5853C65.4161 59.7253 64.0297 60.2396 62.7979 60.8598L64.1564 72.7708L63.9092 84.5033C63.9092 84.5033 71.6136 89.7813 79.0013 83.6173V67.6757L78.6544 61.336C78.614 60.5968 77.9603 60.0233 77.2264 60.1204C76.8072 60.1759 76.3246 60.1652 75.8316 60.0008L74.2981 58.2212L69.6663 58.3048Z" fill="#F9A826"/>
<path d="M82.7665 48.4786C83.0001 49.0056 83.0954 49.5416 83.0644 50.0064L85.6074 54.886L83.2501 56.0281L80.9243 50.9552C80.5591 50.6662 80.2258 50.2357 79.9921 49.7087C79.4583 48.5048 79.6467 47.2535 80.4128 46.9138C81.1789 46.5741 82.2327 47.2747 82.7665 48.4786Z" fill="#FFB6B6"/>
<path d="M75.8315 60.0008L76.533 60.3216C77.1766 59.6298 79.1154 59.7386 80.056 59.8283L84.1898 60.2224L82.2594 54.1834L85.1655 53.0139L88.6379 59.6968C88.8479 60.8305 88.3767 61.9824 87.4323 62.6438L78.5728 67.6752L77.5429 60.7835L75.8315 60.0008Z" fill="#F9A826"/>
<path d="M54.4071 88.3272C54.4513 87.7525 54.6216 87.2353 54.8692 86.8408L54.9437 81.3389L57.5607 81.4509L57.2033 87.0201C57.3878 87.4477 57.4771 87.9848 57.433 88.5596C57.3322 89.8726 56.5731 90.8851 55.7375 90.8209C54.9019 90.7567 54.3063 89.6403 54.4071 88.3272Z" fill="#FFB6B6"/>
<path d="M64.737 62.3648L63.5344 60.5381C63.5344 60.5381 61.573 60.9124 60.5309 62.3913C59.4887 63.8702 55.5494 72.9397 55.5494 72.9397L54.793 83.1781L57.723 82.5747L59.1368 74.81L63.6828 68.5979L64.737 62.3648Z" fill="#F9A826"/>
<path d="M76.1047 53.885C76.262 53.0868 73.835 51.925 73.8392 51.9264C74.216 52.0467 73.6234 52.7369 73.2364 52.6555C73.2364 52.6555 72.6678 52.9448 72.9776 53.1937C71.9095 53.1021 70.4824 52.087 69.4142 51.9955C68.9846 51.9579 68.8182 52.9939 68.5482 53.3296C68.1398 53.8437 67.7301 52.8213 67.8813 54.1834H67.8203C67.5972 53.6458 67.3742 53.0988 67.3014 52.5213C67.231 51.9438 67.3296 51.3217 67.6982 50.871C67.8203 50.7184 67.3407 50.2161 67.4698 50.0705C67.8806 49.5987 68.6771 49.3404 69.0433 48.8357C69.5281 48.1671 70.0796 48.639 71.089 48.0767C71.353 47.9296 71.812 47.8766 72.1045 47.953L72.7876 48.1314C72.6545 48.3312 72.8193 48.5946 73.0572 48.5623L73.9473 48.4413C74.283 48.5493 74.6023 48.7089 74.7525 49.0164C74.8441 49.1995 74.8605 49.4132 74.931 49.6057C75.0601 49.9601 75.3652 50.216 75.6094 50.5024C76.2657 50.6936 76.3009 51.1842 76.3009 52.0069C76.9126 52.35 76.2744 53.1173 76.1047 53.885Z" fill="#2F2E41"/>
<path d="M7.58371 15.1814C7.77431 14.6462 8.30583 14.3303 8.847 14.391C9.07253 14.4163 9.29786 14.4363 9.52441 14.423C15.1749 14.0907 22.1735 17.326 29.6238 21.7567C22.8035 16.238 16.5613 11.3561 9.21964 16.373C8.69524 16.7313 7.95226 16.6048 7.64721 16.0477C7.52467 15.8239 7.4804 15.5556 7.55348 15.279C7.56211 15.2463 7.57217 15.2138 7.58371 15.1814Z" fill="#E6E6E6"/>
<path d="M45.2694 1.94422C45.7352 2.24116 45.9268 2.80588 45.7716 3.3093L45.7541 3.3661C45.5985 3.87147 45.2596 4.29605 44.8107 4.57551C38.3857 8.57536 45.8245 13.6942 33.9336 21.9567C39.6917 15.7951 44.4279 1.52624 45.1474 1.87594C45.1889 1.89608 45.2296 1.91883 45.2694 1.94422Z" fill="#E6E6E6"/>
<path d="M55.1179 33.2222C54.8783 33.7199 54.3404 33.9772 53.8221 33.8828L53.7636 33.8722C53.2433 33.7777 52.7815 33.4916 52.4508 33.0791C47.7165 27.1743 43.5169 35.1681 33.9014 24.342C40.7028 29.3281 55.433 32.337 55.1712 33.093C55.1561 33.1365 55.1384 33.1796 55.1179 33.2222Z" fill="#E6E6E6"/>
<path d="M46.4643 32.8531C46.2178 32.9899 45.8201 32.9707 45.4991 32.8223L45.4628 32.8056C45.1405 32.6567 44.8911 32.4478 44.7501 32.2194C42.7323 28.9501 38.5425 31.0716 34.2324 24.8743C37.7657 28.244 46.8305 32.5856 46.5225 32.8156C46.5048 32.8289 46.4854 32.8414 46.4643 32.8531Z" fill="#E6E6E6"/>
<path d="M48.4088 19.8128C48.3478 20.0881 48.0699 20.3732 47.7459 20.5152L47.7094 20.5312C47.3843 20.6738 47.0626 20.7221 46.7981 20.6763C43.0126 20.02 41.8238 24.5634 34.3267 23.6824C39.1917 23.2706 48.4512 19.3614 48.4193 19.7444C48.4175 19.7665 48.414 19.7893 48.4088 19.8128Z" fill="#E6E6E6"/>
<path d="M10.5242 36.8902C10.2524 36.4093 10.3484 35.8208 10.7219 35.4492L10.764 35.4073C11.1387 35.0342 11.6372 34.8184 12.1648 34.7825C19.7156 34.2682 15.5517 26.2557 29.93 24.5447C21.9528 27.2807 11.0709 37.6544 10.5998 37.0078C10.5727 36.9705 10.5474 36.9313 10.5242 36.8902Z" fill="#E6E6E6"/>
<path d="M40.8904 36.8037C40.6111 36.99 40.2526 36.9529 40.0142 36.7358L39.9873 36.7113C39.7478 36.4936 39.5985 36.1932 39.5563 35.8681C38.9534 31.2151 34.2854 34.0945 32.6963 25.2617C34.6549 30.0947 41.3298 36.4365 40.9584 36.7525C40.937 36.7707 40.9143 36.7878 40.8904 36.8037Z" fill="#E6E6E6"/>
<path d="M32.4335 44.4571C32.0057 44.4607 31.6455 44.173 31.5376 43.7783L31.5254 43.7338C31.4169 43.3377 31.4617 42.9167 31.6388 42.5437C34.1733 37.2063 27.1835 37.017 31.5165 26.5771C30.3169 33.0439 33.1572 44.3733 32.5416 44.45C32.5062 44.4544 32.4701 44.4568 32.4335 44.4571Z" fill="#F9A826"/>
<path d="M16.948 37.1628C16.6723 36.8356 16.6641 36.3748 16.8992 36.0399L16.9257 36.0021C17.1615 35.6658 17.5143 35.4317 17.9145 35.3302C23.6416 33.8771 19.3285 28.3735 30.1323 25.0505C24.387 28.252 17.4742 37.6667 17.0224 37.2415C16.9964 37.217 16.9715 37.1908 16.948 37.1628Z" fill="#F9A826"/>
<path d="M20.4227 32.3847C20.2484 32.2219 20.2437 31.9768 20.3931 31.7888L20.4099 31.7675C20.5597 31.5787 20.7836 31.4395 21.0374 31.3689C24.6689 30.3586 21.9415 27.606 28.7929 25.3904C25.1478 27.3324 20.7556 32.6313 20.4698 32.4236C20.4533 32.4116 20.4376 32.3986 20.4227 32.3847Z" fill="#F9A826"/>
<path d="M25.5017 35.8669C25.2812 35.7757 25.1907 35.5479 25.2645 35.3194L25.2728 35.2936C25.3468 35.0642 25.5074 34.8551 25.7202 34.6999C28.7651 32.4778 25.2443 30.8593 30.88 26.3772C28.1499 29.4764 25.9001 35.9808 25.5594 35.8867C25.5398 35.8813 25.5205 35.8747 25.5017 35.8669Z" fill="#E6E6E6"/>
<path d="M10.6434 20.4292L11.1973 22.1337H12.9895L11.5395 23.1872L12.0934 24.8917L10.6434 23.8382L9.19348 24.8917L9.74731 23.1872L8.29736 22.1337H10.0896L10.6434 20.4292Z" fill="#F9A826"/>
<path d="M35.3417 0L35.8955 1.70452H37.6877L36.2378 2.75797L36.7916 4.46248L35.3417 3.40903L33.8917 4.46248L34.4456 2.75797L32.9956 1.70452H34.7878L35.3417 0Z" fill="#E6E6E6"/>
<path d="M48.453 18.2947L49.0068 19.9992H50.7991L49.3491 21.0526L49.903 22.7572L48.453 21.7037L47.0031 22.7572L47.5569 21.0526L46.1069 19.9992H47.8992L48.453 18.2947Z" fill="#F9A826"/>
<path d="M21.9257 36.8945L22.4795 38.599H24.2717L22.8218 39.6525L23.3756 41.357L21.9257 40.3036L20.4757 41.357L21.0295 39.6525L19.5796 38.599H21.3718L21.9257 36.8945Z" fill="#F9A826"/>
<path d="M31.9877 18.2947L32.5415 19.9992H34.3337L32.8838 21.0526L33.4376 22.7572L31.9877 21.7037L30.5377 22.7572L31.0915 21.0526L29.6416 19.9992H31.4338L31.9877 18.2947Z" fill="#F9A826"/>
<path d="M45.8246 0L46.3784 1.70452H48.1706L46.7207 2.75797L47.2745 4.46248L45.8246 3.40904L44.3746 4.46248L44.9285 2.75797L43.4785 1.70452H45.2707L45.8246 0Z" fill="#E6E6E6"/>
<path d="M9.70427 33.6877L10.4066 35.3366L12.1918 35.1782L10.8407 36.3557L11.543 38.0046L10.0056 37.0834L8.65448 38.2609L9.05546 36.5141L7.51807 35.593L9.30329 35.4345L9.70427 33.6877Z" fill="#E6E6E6"/>
<path d="M25.0363 2.19581C25.3596 2.03665 25.7229 2.14402 25.9286 2.43239L25.9518 2.46492C26.1584 2.75425 26.2566 3.12029 26.2394 3.49465C25.9929 8.85281 31.352 6.45767 31.3432 16.7101C30.2232 10.9015 24.5139 2.52969 24.9565 2.24122C24.982 2.2246 25.0086 2.20942 25.0363 2.19581Z" fill="#F9A826"/>
<path d="M20.3627 10.138C20.506 9.95907 20.7412 9.9344 20.9332 10.0607L20.9549 10.0749C21.1477 10.2016 21.2985 10.4026 21.3856 10.6377C22.6319 14.0015 25.0704 11.1855 27.7192 17.5062C25.5764 14.2064 20.151 10.4744 20.329 10.1859C20.3392 10.1693 20.3505 10.1533 20.3627 10.138Z" fill="#E6E6E6"/>
<path d="M16.2376 19.9154C16.2572 19.687 16.439 19.5357 16.6688 19.5339L16.6947 19.5337C16.9254 19.5318 17.1625 19.6151 17.3656 19.762C20.2717 21.8651 20.733 18.1687 26.4488 21.9497C22.8331 20.3983 16.2486 20.3127 16.2362 19.974C16.2355 19.9545 16.2359 19.9349 16.2376 19.9154Z" fill="#E6E6E6"/>
<path d="M97.3943 29.2887C97.5183 28.9405 97.8641 28.7349 98.2162 28.7744C98.363 28.7909 98.5096 28.8039 98.657 28.7953C102.333 28.579 106.887 30.6841 111.734 33.5668C107.297 29.9761 103.235 26.7998 98.4587 30.064C98.1175 30.2971 97.6341 30.2148 97.4356 29.8523C97.3559 29.7067 97.3271 29.5322 97.3746 29.3522C97.3802 29.3309 97.3868 29.3098 97.3943 29.2887Z" fill="#E6E6E6"/>
<path d="M121.914 20.6762C122.217 20.8694 122.342 21.2368 122.241 21.5644L122.229 21.6013C122.128 21.9302 121.908 22.2064 121.616 22.3882C117.435 24.9907 122.275 28.3212 114.539 33.6971C118.285 29.6881 121.367 20.4043 121.835 20.6318C121.862 20.6449 121.888 20.6597 121.914 20.6762Z" fill="#E6E6E6"/>
<path d="M128.322 41.0268C128.166 41.3506 127.816 41.518 127.479 41.4566L127.441 41.4497C127.102 41.3882 126.802 41.2021 126.587 40.9337C123.506 37.0918 120.774 42.2929 114.518 35.249C118.943 38.4931 128.527 40.4509 128.357 40.9427C128.347 40.971 128.335 40.9991 128.322 41.0268Z" fill="#E6E6E6"/>
<path d="M122.691 40.7865C122.531 40.8756 122.272 40.8631 122.063 40.7665L122.04 40.7556C121.83 40.6588 121.668 40.5229 121.576 40.3742C120.263 38.2471 117.537 39.6274 114.733 35.5952C117.032 37.7877 122.93 40.6125 122.729 40.7622C122.718 40.7708 122.705 40.7789 122.691 40.7865Z" fill="#E6E6E6"/>
<path d="M123.957 32.3022C123.917 32.4813 123.736 32.6667 123.526 32.7591L123.502 32.7696C123.29 32.8624 123.081 32.8938 122.909 32.8639C120.446 32.437 119.672 35.393 114.794 34.8199C117.96 34.5519 123.984 32.0084 123.964 32.2576C123.962 32.272 123.96 32.2868 123.957 32.3022Z" fill="#E6E6E6"/>
<path d="M99.3077 43.4133C99.1309 43.1005 99.1934 42.7175 99.4364 42.4758L99.4638 42.4485C99.7076 42.2057 100.032 42.0653 100.375 42.042C105.288 41.7073 102.579 36.4941 111.934 35.3809C106.744 37.161 99.6634 43.9106 99.357 43.4898C99.3393 43.4656 99.3229 43.4401 99.3077 43.4133Z" fill="#E6E6E6"/>
<path d="M119.065 43.3571C118.883 43.4783 118.65 43.4541 118.495 43.3129L118.477 43.297C118.321 43.1553 118.224 42.9599 118.197 42.7484C117.805 39.7209 114.767 41.5943 113.733 35.8474C115.008 38.9919 119.351 43.1182 119.109 43.3237C119.095 43.3356 119.08 43.3467 119.065 43.3571Z" fill="#E6E6E6"/>
<path d="M113.563 48.3365C113.284 48.3388 113.05 48.1517 112.98 47.8949L112.972 47.8659C112.901 47.6082 112.93 47.3342 113.046 47.0916C114.695 43.6189 110.147 43.4957 112.966 36.7031C112.186 40.9106 114.034 48.282 113.633 48.3319C113.61 48.3348 113.587 48.3363 113.563 48.3365Z" fill="#F9A826"/>
<path d="M103.487 43.5907C103.308 43.3778 103.302 43.078 103.455 42.86L103.473 42.8355C103.626 42.6167 103.856 42.4644 104.116 42.3983C107.842 41.4529 105.036 37.872 112.065 35.71C108.327 37.793 103.829 43.9185 103.536 43.6419C103.519 43.6259 103.502 43.6089 103.487 43.5907Z" fill="#F9A826"/>
<path d="M105.748 40.4819C105.635 40.376 105.632 40.2165 105.729 40.0942L105.74 40.0804C105.837 39.9575 105.983 39.8669 106.148 39.821C108.511 39.1637 106.736 37.3727 111.194 35.9312C108.822 37.1947 105.965 40.6424 105.779 40.5072C105.768 40.4994 105.758 40.491 105.748 40.4819Z" fill="#F9A826"/>
<path d="M109.052 42.7476C108.909 42.6883 108.85 42.5401 108.898 42.3914L108.903 42.3746C108.951 42.2253 109.056 42.0893 109.194 41.9883C111.175 40.5425 108.885 39.4894 112.551 36.5732C110.775 38.5897 109.311 42.8217 109.09 42.7605C109.077 42.757 109.064 42.7527 109.052 42.7476Z" fill="#E6E6E6"/>
<path d="M99.3853 32.7031L99.7457 33.8121H100.912L99.9684 34.4976L100.329 35.6066L99.3853 34.9212L98.4419 35.6066L98.8023 34.4976L97.8589 33.8121H99.025L99.3853 32.7031Z" fill="#F9A826"/>
<path d="M115.455 19.4111L115.815 20.5202H116.981L116.038 21.2056L116.398 22.3146L115.455 21.6292L114.511 22.3146L114.872 21.2056L113.928 20.5202H115.094L115.455 19.4111Z" fill="#E6E6E6"/>
<path d="M123.985 31.3145L124.346 32.4235H125.512L124.568 33.1089L124.929 34.2179L123.985 33.5325L123.042 34.2179L123.402 33.1089L122.459 32.4235H123.625L123.985 31.3145Z" fill="#F9A826"/>
<path d="M106.726 43.416L107.086 44.525H108.252L107.309 45.2104L107.669 46.3195L106.726 45.6341L105.782 46.3195L106.143 45.2104L105.199 44.525H106.365L106.726 43.416Z" fill="#F9A826"/>
<path d="M113.273 31.3145L113.633 32.4235H114.799L113.856 33.1089L114.216 34.2179L113.273 33.5325L112.329 34.2179L112.689 33.1089L111.746 32.4235H112.912L113.273 31.3145Z" fill="#F9A826"/>
<path d="M122.275 19.4111L122.636 20.5202H123.802L122.859 21.2056L123.219 22.3146L122.275 21.6292L121.332 22.3146L121.692 21.2056L120.749 20.5202H121.915L122.275 19.4111Z" fill="#E6E6E6"/>
<path d="M98.774 41.3296L99.231 42.4024L100.392 42.2993L99.5134 43.0655L99.9703 44.1383L98.9701 43.539L98.0909 44.3051L98.3518 43.1685L97.3516 42.5692L98.5131 42.4661L98.774 41.3296Z" fill="#E6E6E6"/>
<path d="M108.749 20.8397C108.96 20.7362 109.196 20.806 109.33 20.9937L109.345 21.0148C109.48 21.2031 109.543 21.4412 109.532 21.6848C109.372 25.171 112.859 23.6127 112.853 30.2833C112.124 26.5039 108.409 21.057 108.698 20.8693C108.714 20.8585 108.731 20.8486 108.749 20.8397Z" fill="#F9A826"/>
<path d="M105.709 26.0072C105.802 25.8908 105.955 25.8747 106.08 25.9569L106.094 25.9662C106.22 26.0486 106.318 26.1794 106.374 26.3323C107.185 28.5209 108.772 26.6888 110.495 30.8012C109.101 28.6543 105.571 26.2261 105.687 26.0384C105.694 26.0276 105.701 26.0172 105.709 26.0072Z" fill="#E6E6E6"/>
<path d="M103.025 32.3689C103.037 32.2203 103.156 32.1219 103.305 32.1208L103.322 32.1206C103.472 32.1194 103.626 32.1736 103.758 32.2692C105.649 33.6375 105.949 31.2325 109.668 33.6926C107.316 32.6831 103.032 32.6274 103.024 32.4071C103.023 32.3944 103.023 32.3816 103.025 32.3689Z" fill="#E6E6E6"/>
</g>
<defs>
<clipPath id="clip0_1304_23861">
<rect width="143.55" height="123" fill="white"/>
</clipPath>
</defs>
</svg>
