<svg width="143" height="123" viewBox="0 0 143 123" fill="none" xmlns="http://www.w3.org/2000/svg">
<g clip-path="url(#clip0_1304_24911)">
<path d="M19.6659 120.487C19.3814 120.505 19.2241 120.15 19.4394 119.943L19.4608 119.858L19.4523 119.837C19.1645 119.149 18.1893 119.153 17.9039 119.843C17.6507 120.456 17.3283 121.069 17.2489 121.717C17.2133 122.002 17.2293 122.294 17.2925 122.574C16.6991 121.273 16.3868 119.852 16.3868 118.422C16.3868 118.063 16.4064 117.704 16.4464 117.346C16.4793 117.053 16.5247 116.762 16.5834 116.473C16.901 114.914 17.5887 113.428 18.5807 112.188C19.0575 111.926 19.4552 111.517 19.6954 111.027C19.7817 110.85 19.8493 110.659 19.8813 110.466C19.827 110.473 19.6767 109.643 19.7176 109.592C19.642 109.477 19.5066 109.419 19.424 109.307C19.0132 108.748 18.4473 108.846 18.1518 109.605C17.5207 109.925 17.5146 110.456 17.9019 110.966C18.1482 111.29 18.1821 111.729 18.3983 112.077C18.376 112.106 18.3529 112.133 18.3307 112.162C17.9228 112.687 17.5701 113.252 17.2727 113.845C17.3567 113.185 17.2327 112.391 17.0211 111.88C16.7803 111.296 16.329 110.805 15.9315 110.301C15.4541 109.695 14.4752 109.96 14.3911 110.727L14.3887 110.75C14.4477 110.783 14.5056 110.819 14.5621 110.856C14.8843 111.07 14.7729 111.572 14.3911 111.631L14.3825 111.632C14.4038 111.846 14.4403 112.057 14.4937 112.265C13.9838 114.245 15.0846 114.966 16.6564 114.999C16.6911 115.017 16.7249 115.034 16.7596 115.051C16.6003 115.502 16.4731 115.963 16.3788 116.431C16.2943 116.845 16.2356 117.263 16.2027 117.683C16.1617 118.212 16.1653 118.745 16.2098 119.274L16.2071 119.255C16.0941 118.672 15.7792 118.128 15.3219 117.752C14.6407 117.19 13.6783 116.983 12.9434 116.531C12.5896 116.314 12.1363 116.595 12.1981 117.007L12.2011 117.026C12.3105 117.071 12.4173 117.123 12.5205 117.181C12.5795 117.214 12.6373 117.25 12.6938 117.287C13.0161 117.501 12.9047 118.003 12.5229 118.062L12.5142 118.063L12.4964 118.066C12.6841 118.513 12.9457 118.929 13.2731 119.287C13.5919 121.015 14.9612 121.179 16.4259 120.676H16.4268C16.587 121.376 16.821 122.06 17.1216 122.712H19.6037C19.6126 122.685 19.6206 122.656 19.6286 122.629C19.3991 122.643 19.1678 122.629 18.9418 122.587C19.126 122.361 19.3101 122.132 19.4943 121.905C19.4987 121.901 19.5023 121.896 19.5059 121.892C19.5993 121.776 19.6936 121.66 19.787 121.544C19.7928 121.188 19.7503 120.832 19.6659 120.487Z" fill="#F2F2F2"/>
<path d="M125.31 120.487C125.594 120.505 125.751 120.15 125.536 119.943L125.515 119.858L125.523 119.837C125.811 119.149 126.786 119.153 127.072 119.843C127.325 120.456 127.647 121.069 127.727 121.717C127.762 122.002 127.746 122.294 127.683 122.574C128.276 121.273 128.589 119.852 128.589 118.422C128.589 118.063 128.569 117.704 128.529 117.346C128.496 117.053 128.451 116.762 128.392 116.473C128.075 114.914 127.387 113.428 126.395 112.188C125.918 111.926 125.52 111.517 125.28 111.027C125.194 110.85 125.126 110.659 125.094 110.466C125.149 110.473 125.299 109.643 125.258 109.592C125.334 109.477 125.469 109.419 125.552 109.307C125.962 108.748 126.528 108.846 126.824 109.605C127.455 109.925 127.461 110.456 127.074 110.966C126.827 111.29 126.793 111.729 126.577 112.077C126.6 112.106 126.623 112.133 126.645 112.162C127.053 112.687 127.405 113.252 127.703 113.845C127.619 113.185 127.743 112.391 127.954 111.88C128.195 111.296 128.647 110.805 129.044 110.301C129.521 109.695 130.5 109.96 130.584 110.727L130.587 110.75C130.528 110.783 130.47 110.819 130.413 110.856C130.091 111.07 130.203 111.572 130.584 111.631L130.593 111.632C130.572 111.846 130.535 112.057 130.482 112.265C130.992 114.245 129.891 114.966 128.319 114.999C128.284 115.017 128.251 115.034 128.216 115.051C128.375 115.502 128.502 115.963 128.597 116.431C128.681 116.845 128.74 117.263 128.773 117.683C128.814 118.212 128.81 118.745 128.766 119.274L128.768 119.255C128.881 118.672 129.196 118.128 129.654 117.752C130.335 117.19 131.297 116.983 132.032 116.531C132.386 116.314 132.839 116.595 132.777 117.007L132.774 117.026C132.665 117.071 132.558 117.123 132.455 117.181C132.396 117.214 132.338 117.25 132.282 117.287C131.959 117.501 132.071 118.003 132.453 118.062L132.461 118.063L132.479 118.066C132.291 118.513 132.03 118.929 131.702 119.287C131.384 121.015 130.014 121.179 128.55 120.676H128.549C128.389 121.376 128.155 122.06 127.854 122.712H125.372C125.363 122.685 125.355 122.656 125.347 122.629C125.576 122.643 125.808 122.629 126.034 122.587C125.85 122.361 125.665 122.132 125.481 121.905C125.477 121.901 125.473 121.896 125.47 121.892C125.376 121.776 125.282 121.66 125.189 121.544C125.183 121.188 125.225 120.832 125.31 120.487Z" fill="#F2F2F2"/>
<path d="M77.2582 121.544L79.3888 121.543L80.4023 113.292L77.2578 113.292L77.2582 121.544Z" fill="#FFB6B6"/>
<path d="M84.5576 121.495C84.624 121.607 84.659 121.969 84.659 122.1C84.659 122.501 84.3352 122.826 83.9358 122.826H77.3377C77.0653 122.826 76.8444 122.604 76.8444 122.33V122.055C76.8444 122.055 76.518 121.226 77.19 120.204C77.19 120.204 78.0252 121.004 79.2732 119.751L79.6413 119.082L82.3053 121.038L83.782 121.22C84.105 121.26 84.3914 121.214 84.5576 121.495Z" fill="#2F2E41"/>
<path d="M62.5414 121.544L64.672 121.543L65.6855 113.292L62.541 113.292L62.5414 121.544Z" fill="#FFB6B6"/>
<path d="M69.8408 121.495C69.9072 121.607 69.9422 121.969 69.9422 122.1C69.9422 122.501 69.6184 122.826 69.219 122.826H62.6209C62.3485 122.826 62.1276 122.604 62.1276 122.33V122.055C62.1276 122.055 61.8012 121.226 62.4732 120.204C62.4732 120.204 63.3084 121.004 64.5565 119.751L64.9245 119.082L67.5885 121.038L69.0652 121.22C69.3882 121.26 69.6746 121.214 69.8408 121.495Z" fill="#2F2E41"/>
<path d="M0.238136 123H142.736C142.868 123 142.974 122.893 142.974 122.761C142.974 122.629 142.868 122.521 142.736 122.521H0.238136C0.106616 122.521 0 122.629 0 122.761C0 122.893 0.106616 123 0.238136 123Z" fill="#E6E6E6"/>
<path d="M77.8932 82.5751L78.6828 83.6179C78.6828 83.6179 78.7544 84.1047 79.952 88.0721L80.609 117.891H76.6342L71.3222 94.0323L65.8084 118.369L62.3632 118.573L62.5248 90.9117C62.5248 90.9117 62.162 89.9491 62.4706 88.821C63.6517 84.5036 63.5836 85.6419 63.6321 84.1639C63.6936 82.29 77.8932 82.5751 77.8932 82.5751Z" fill="#2F2E41"/>
<path d="M71.629 57.5169C73.9323 57.5169 75.7995 55.6422 75.7995 53.3296C75.7995 51.0171 73.9323 49.1423 71.629 49.1423C69.3257 49.1423 67.4585 51.0171 67.4585 53.3296C67.4585 55.6422 69.3257 57.5169 71.629 57.5169Z" fill="#FEB8B8"/>
<path d="M69.3882 58.3045L67.0805 59.5851C65.1551 59.725 63.7743 60.2394 62.5474 60.8596L63.9004 72.7705L63.6542 84.5031C63.6542 84.5031 71.3277 89.781 78.6858 83.6171V67.6754L78.3403 61.3358C78.3001 60.5966 77.649 60.0231 76.918 60.1202C76.5005 60.1756 76.0198 60.1649 75.5288 60.0006L74.0015 58.2209L69.3882 58.3045Z" fill="#C7C7C7"/>
<path d="M82.4343 48.4786C82.667 49.0056 82.7619 49.5416 82.731 50.0064L85.2638 54.886L82.916 56.0281L80.5995 50.9552C80.2358 50.6662 79.9038 50.2357 79.6711 49.7087C79.1394 48.5048 79.327 47.2535 80.0901 46.9138C80.8531 46.5741 81.9026 47.2747 82.4343 48.4786Z" fill="#FFB6B6"/>
<path d="M75.5288 60.0005L76.2275 60.3214C76.8685 59.6295 78.7995 59.7384 79.7363 59.828L83.8535 60.2222L81.9309 54.1831L84.8253 53.0137L88.2838 59.6965C88.493 60.8302 88.0237 61.9821 87.0831 62.6436L78.2591 67.6749L77.2333 60.7833L75.5288 60.0005Z" fill="#C7C7C7"/>
<path d="M54.1893 88.3272C54.2333 87.7525 54.4029 87.2353 54.6495 86.8408L54.7237 81.3389L57.3303 81.4509L56.9743 87.0201C57.158 87.4477 57.247 87.9848 57.2031 88.5596C57.1027 89.8726 56.3466 90.8851 55.5144 90.8209C54.6821 90.7567 54.0889 89.6403 54.1893 88.3272Z" fill="#FFB6B6"/>
<path d="M64.4769 62.3648L63.2791 60.5381C63.2791 60.5381 61.3256 60.9124 60.2877 62.3913C59.2497 63.8702 55.3262 72.9397 55.3262 72.9397L54.5728 83.1781L57.4911 82.5747L58.8992 74.81L63.4269 68.5979L64.4769 62.3648Z" fill="#C7C7C7"/>
<path d="M75.8003 53.8852C75.9569 53.0871 73.5396 51.9253 73.5439 51.9266C73.9191 52.0469 73.329 52.7372 72.9435 52.6558C72.9435 52.6558 72.3771 52.9451 72.6858 53.1939C71.6219 53.1023 70.2005 52.0873 69.1366 51.9957C68.7087 51.9582 68.543 52.9941 68.2741 53.3298C67.8673 53.8439 67.4593 52.8215 67.6098 54.1836H67.549C67.3269 53.646 67.1048 53.0991 67.0323 52.5216C66.9622 51.9441 67.0604 51.322 67.4275 50.8712C67.549 50.7186 67.0714 50.2163 67.2 50.0708C67.6091 49.5989 68.4025 49.3406 68.7672 48.8359C69.25 48.1673 69.7993 48.6392 70.8046 48.0769C71.0677 47.9298 71.5248 47.8769 71.8161 47.9533L72.4965 48.1317C72.3639 48.3314 72.528 48.5949 72.7649 48.5625L73.6515 48.4415C73.9859 48.5495 74.3039 48.7091 74.4535 49.0167C74.5447 49.1998 74.5611 49.4134 74.6312 49.6059C74.7598 49.9604 75.0638 50.2163 75.3069 50.5027C75.9606 50.6938 75.9957 51.1844 75.9957 52.0072C76.6049 52.3503 75.9693 53.1175 75.8003 53.8852Z" fill="#2F2E41"/>
<path d="M7.55171 15.1814C7.74154 14.6462 8.27093 14.3303 8.80993 14.391C9.03456 14.4163 9.25899 14.4363 9.48463 14.423C15.1124 14.0907 22.083 17.326 29.5034 21.7567C22.7104 16.238 16.4933 11.3561 9.18108 16.373C8.65878 16.7313 7.91878 16.6048 7.61496 16.0477C7.4929 15.8239 7.44882 15.5556 7.5216 15.279C7.53019 15.2463 7.54022 15.2138 7.55171 15.1814Z" fill="#E6E6E6"/>
<path d="M45.0877 1.94422C45.5516 2.24116 45.7425 2.80588 45.5879 3.3093L45.5704 3.3661C45.4154 3.87147 45.078 4.29605 44.6309 4.57551C38.2317 8.57536 45.6406 13.6942 33.7974 21.9567C39.5324 15.7951 44.2496 1.52624 44.9662 1.87594C45.0075 1.89608 45.0481 1.91883 45.0877 1.94422Z" fill="#E6E6E6"/>
<path d="M54.8956 33.222C54.657 33.7197 54.1212 33.977 53.605 33.8826L53.5467 33.8719C53.0286 33.7774 52.5686 33.4914 52.2392 33.0788C47.5239 27.1741 43.3411 35.1679 33.7642 24.3418C40.5384 29.3278 55.2095 32.3368 54.9487 33.0927C54.9337 33.1363 54.916 33.1794 54.8956 33.222Z" fill="#E6E6E6"/>
<path d="M46.2756 32.8533C46.03 32.9902 45.634 32.971 45.3142 32.8226L45.2781 32.8058C44.9571 32.6569 44.7087 32.4481 44.5683 32.2197C42.5585 28.9503 38.3855 31.0719 34.0928 24.8745C37.6118 28.2442 46.6403 32.5858 46.3336 32.8159C46.3159 32.8291 46.2966 32.8416 46.2756 32.8533Z" fill="#E6E6E6"/>
<path d="M48.2132 19.8126C48.1524 20.0879 47.8756 20.3729 47.553 20.5149L47.5166 20.5309C47.1927 20.6736 46.8723 20.7219 46.6089 20.676C42.8386 20.0198 41.6546 24.5631 34.1875 23.6822C39.0331 23.2704 48.2554 19.3611 48.2237 19.7441C48.2218 19.7662 48.2184 19.789 48.2132 19.8126Z" fill="#E6E6E6"/>
<path d="M10.4791 36.8905C10.2084 36.4096 10.304 35.821 10.676 35.4495L10.718 35.4075C11.0912 35.0344 11.5877 34.8187 12.1131 34.7827C19.6337 34.2684 15.4865 26.2559 29.8071 24.5449C21.8619 27.2809 11.0236 37.6546 10.5545 37.008C10.5274 36.9708 10.5023 36.9316 10.4791 36.8905Z" fill="#E6E6E6"/>
<path d="M40.7267 36.8035C40.4485 36.9898 40.0915 36.9527 39.854 36.7356L39.8272 36.7111C39.5887 36.4933 39.4399 36.193 39.398 35.8679C38.7974 31.2148 34.1482 34.0942 32.5654 25.2615C34.5162 30.0944 41.1643 36.4363 40.7944 36.7522C40.773 36.7704 40.7505 36.7875 40.7267 36.8035Z" fill="#E6E6E6"/>
<path d="M32.3009 44.4566C31.8748 44.4602 31.5162 44.1725 31.4086 43.7779L31.3965 43.7333C31.2884 43.3372 31.333 42.9162 31.5094 42.5432C34.0337 37.2058 27.072 37.0165 31.3877 26.5767C30.1928 33.0434 33.0218 44.3728 32.4086 44.4495C32.3733 44.4539 32.3374 44.4563 32.3009 44.4566Z" fill="#C7C7C7"/>
<path d="M16.8802 37.1633C16.6057 36.8361 16.5975 36.3753 16.8316 36.0404L16.858 36.0026C17.0929 35.6663 17.4443 35.4322 17.8428 35.3307C23.547 33.8776 19.2512 28.374 30.0117 25.051C24.2894 28.2525 17.4043 37.6672 16.9544 37.242C16.9284 37.2175 16.9037 37.1913 16.8802 37.1633Z" fill="#C7C7C7"/>
<path d="M20.3406 32.3842C20.167 32.2214 20.1623 31.9763 20.3111 31.7883L20.3279 31.767C20.4771 31.5782 20.7001 31.439 20.9528 31.3684C24.5698 30.3582 21.8534 27.6055 28.6772 25.3899C25.0468 27.332 20.6722 32.6308 20.3875 32.4231C20.3711 32.4111 20.3554 32.3982 20.3406 32.3842Z" fill="#C7C7C7"/>
<path d="M25.3976 35.8672C25.178 35.7759 25.0879 35.5482 25.1614 35.3196L25.1697 35.2938C25.2433 35.0644 25.4033 34.8554 25.6152 34.7001C28.6479 32.4781 25.1413 30.8595 30.7543 26.3774C28.0352 29.4766 25.7944 35.981 25.4551 35.887C25.4356 35.8815 25.4164 35.875 25.3976 35.8672Z" fill="#E6E6E6"/>
<path d="M10.5994 20.4292L11.151 22.1337H12.936L11.4919 23.1872L12.0435 24.8917L10.5994 23.8382L9.15522 24.8917L9.70683 23.1872L8.2627 22.1337H10.0477L10.5994 20.4292Z" fill="#C7C7C7"/>
<path d="M35.1975 0L35.7491 1.70452H37.5341L36.09 2.75797L36.6416 4.46248L35.1975 3.40903L33.7534 4.46248L34.305 2.75797L32.8608 1.70452H34.6459L35.1975 0Z" fill="#E6E6E6"/>
<path d="M48.2566 18.2947L48.8082 19.9992H50.5932L49.1491 21.0526L49.7007 22.7572L48.2566 21.7037L46.8124 22.7572L47.3641 21.0526L45.9199 19.9992H47.705L48.2566 18.2947Z" fill="#C7C7C7"/>
<path d="M21.8347 36.8945L22.3863 38.599H24.1714L22.7272 39.6525L23.2788 41.357L21.8347 40.3036L20.3906 41.357L20.9422 39.6525L19.498 38.599H21.2831L21.8347 36.8945Z" fill="#C7C7C7"/>
<path d="M31.8591 18.2947L32.4107 19.9992H34.1958L32.7516 21.0526L33.3032 22.7572L31.8591 21.7037L30.415 22.7572L30.9666 21.0526L29.5225 19.9992H31.3075L31.8591 18.2947Z" fill="#C7C7C7"/>
<path d="M45.6404 0L46.192 1.70452H47.977L46.5329 2.75797L47.0845 4.46248L45.6404 3.40904L44.1962 4.46248L44.7478 2.75797L43.3037 1.70452H45.0888L45.6404 0Z" fill="#E6E6E6"/>
<path d="M9.66376 33.6873L10.3633 35.3361L12.1413 35.1777L10.7956 36.3552L11.4951 38.0041L9.96391 37.0829L8.61818 38.2604L9.01756 36.5136L7.48633 35.5925L9.26439 35.4341L9.66376 33.6873Z" fill="#E6E6E6"/>
<path d="M24.9363 2.19581C25.2582 2.03665 25.6201 2.14402 25.825 2.43239L25.8481 2.46492C26.0539 2.75425 26.1517 3.12029 26.1345 3.49465C25.889 8.85281 31.2267 6.45767 31.2179 16.7101C30.1024 10.9015 24.4159 2.52969 24.8568 2.24122C24.8822 2.2246 24.9087 2.20942 24.9363 2.19581Z" fill="#C7C7C7"/>
<path d="M20.2791 10.1382C20.4218 9.95931 20.656 9.93464 20.8473 10.0609L20.8689 10.0752C21.0609 10.2018 21.2111 10.4029 21.2978 10.6379C22.5391 14.0017 24.9679 11.1857 27.6061 17.5064C25.4719 14.2066 20.0682 10.4746 20.2455 10.1861C20.2557 10.1695 20.2669 10.1535 20.2791 10.1382Z" fill="#E6E6E6"/>
<path d="M16.1692 19.9156C16.1888 19.6872 16.3698 19.536 16.5987 19.5342L16.6245 19.534C16.8543 19.532 17.0904 19.6153 17.2927 19.7623C20.1871 21.8653 20.6466 18.1689 26.3395 21.9499C22.7383 20.3985 16.1802 20.3129 16.1678 19.9742C16.1671 19.9547 16.1675 19.9351 16.1692 19.9156Z" fill="#E6E6E6"/>
<path d="M97.003 29.2887C97.1265 28.9405 97.4709 28.7349 97.8216 28.7744C97.9678 28.7909 98.1138 28.8039 98.2606 28.7953C101.922 28.579 106.458 30.6841 111.286 33.5668C106.866 29.9761 102.821 26.7998 98.0631 30.064C97.7233 30.2971 97.2418 30.2148 97.0441 29.8523C96.9647 29.7067 96.936 29.5322 96.9834 29.3522C96.989 29.3309 96.9955 29.3098 97.003 29.2887Z" fill="#E6E6E6"/>
<path d="M121.423 20.676C121.724 20.8692 121.849 21.2366 121.748 21.5641L121.737 21.6011C121.636 21.9299 121.416 22.2062 121.125 22.388C116.962 24.9904 121.782 28.321 114.077 33.6968C117.808 29.6879 120.877 20.404 121.344 20.6315C121.37 20.6447 121.397 20.6595 121.423 20.676Z" fill="#E6E6E6"/>
<path d="M127.805 41.0266C127.65 41.3504 127.301 41.5178 126.965 41.4564L126.927 41.4495C126.59 41.388 126.291 41.2019 126.077 40.9334C123.009 37.0916 120.287 42.2927 114.056 35.2488C118.464 38.4929 128.009 40.4506 127.84 40.9425C127.83 40.9708 127.818 40.9989 127.805 41.0266Z" fill="#E6E6E6"/>
<path d="M122.201 40.7861C122.041 40.8751 121.783 40.8626 121.575 40.766L121.552 40.7551C121.343 40.6583 121.181 40.5224 121.09 40.3738C119.782 38.2466 117.067 39.627 114.274 35.5947C116.564 37.7872 122.438 40.612 122.238 40.7617C122.227 40.7703 122.214 40.7784 122.201 40.7861Z" fill="#E6E6E6"/>
<path d="M123.461 32.3014C123.422 32.4806 123.241 32.666 123.032 32.7584L123.008 32.7688C122.797 32.8616 122.589 32.893 122.417 32.8632C119.964 32.4362 119.194 35.3923 114.335 34.8192C117.488 34.5512 123.489 32.0077 123.468 32.2569C123.467 32.2713 123.464 32.2861 123.461 32.3014Z" fill="#E6E6E6"/>
<path d="M98.9094 43.4126C98.7333 43.0997 98.7955 42.7168 99.0375 42.475L99.0648 42.4478C99.3076 42.205 99.6307 42.0646 99.9725 42.0412C104.866 41.7066 102.167 36.4934 111.485 35.3801C106.315 37.1603 99.2636 43.9098 98.9584 43.4891C98.9408 43.4649 98.9244 43.4394 98.9094 43.4126Z" fill="#E6E6E6"/>
<path d="M118.586 43.3571C118.405 43.4783 118.173 43.4541 118.018 43.3129L118.001 43.297C117.845 43.1553 117.749 42.9599 117.721 42.7484C117.331 39.7209 114.306 41.5943 113.276 35.8474C114.545 38.9919 118.871 43.1182 118.63 43.3237C118.616 43.3356 118.601 43.3467 118.586 43.3571Z" fill="#E6E6E6"/>
<path d="M113.107 48.3358C112.83 48.3381 112.597 48.151 112.527 47.8941L112.519 47.8652C112.448 47.6074 112.478 47.3335 112.592 47.0909C114.235 43.6181 109.705 43.4949 112.513 36.7024C111.736 40.9099 113.576 48.2813 113.177 48.3311C113.154 48.334 113.131 48.3356 113.107 48.3358Z" fill="#C7C7C7"/>
<path d="M103.072 43.5904C102.893 43.3775 102.888 43.0777 103.04 42.8598L103.058 42.8352C103.21 42.6164 103.439 42.4641 103.698 42.3981C107.41 41.4526 104.615 37.8718 111.616 35.7097C107.893 37.7927 103.413 43.9183 103.12 43.6416C103.103 43.6257 103.087 43.6086 103.072 43.5904Z" fill="#C7C7C7"/>
<path d="M105.324 40.4812C105.211 40.3752 105.208 40.2158 105.305 40.0934L105.316 40.0796C105.413 39.9568 105.558 39.8662 105.722 39.8203C108.076 39.163 106.308 37.372 110.748 35.9304C108.386 37.194 105.54 40.6416 105.354 40.5065C105.344 40.4987 105.334 40.4903 105.324 40.4812Z" fill="#C7C7C7"/>
<path d="M108.613 42.7476C108.47 42.6883 108.411 42.5401 108.459 42.3914L108.465 42.3746C108.513 42.2253 108.617 42.0893 108.755 41.9883C110.728 40.5425 108.446 39.4894 112.098 36.5732C110.329 38.5897 108.871 42.8217 108.65 42.7605C108.638 42.757 108.625 42.7527 108.613 42.7476Z" fill="#E6E6E6"/>
<path d="M98.9861 32.7026L99.345 33.8117H100.506L99.5668 34.4971L99.9257 35.6061L98.9861 34.9207L98.0465 35.6061L98.4054 34.4971L97.4658 33.8117H98.6272L98.9861 32.7026Z" fill="#C7C7C7"/>
<path d="M114.99 19.4106L115.348 20.5197H116.51L115.57 21.2051L115.929 22.3141L114.99 21.6287L114.05 22.3141L114.409 21.2051L113.469 20.5197H114.631L114.99 19.4106Z" fill="#E6E6E6"/>
<path d="M123.486 31.3137L123.845 32.4227H125.006L124.066 33.1082L124.425 34.2172L123.486 33.5318L122.546 34.2172L122.905 33.1082L121.965 32.4227H123.127L123.486 31.3137Z" fill="#C7C7C7"/>
<path d="M106.296 43.4158L106.655 44.5248H107.816L106.876 45.2102L107.235 46.3192L106.296 45.6338L105.356 46.3192L105.715 45.2102L104.775 44.5248H105.937L106.296 43.4158Z" fill="#C7C7C7"/>
<path d="M112.817 31.3137L113.176 32.4227H114.338L113.398 33.1082L113.757 34.2172L112.817 33.5318L111.878 34.2172L112.236 33.1082L111.297 32.4227H112.458L112.817 31.3137Z" fill="#C7C7C7"/>
<path d="M121.786 19.4106L122.145 20.5197H123.306L122.367 21.2051L122.726 22.3141L121.786 21.6287L120.846 22.3141L121.205 21.2051L120.266 20.5197H121.427L121.786 19.4106Z" fill="#E6E6E6"/>
<path d="M98.3772 41.3296L98.8323 42.4024L99.9892 42.2993L99.1136 43.0655L99.5687 44.1383L98.5725 43.539L97.6969 44.3051L97.9567 43.1685L96.9604 42.5692L98.1173 42.4661L98.3772 41.3296Z" fill="#E6E6E6"/>
<path d="M108.313 20.8395C108.523 20.7359 108.758 20.8058 108.891 20.9934L108.906 21.0146C109.04 21.2028 109.104 21.441 109.093 21.6846C108.933 25.1708 112.406 23.6124 112.4 30.283C111.674 26.5037 107.975 21.0567 108.261 20.869C108.278 20.8582 108.295 20.8483 108.313 20.8395Z" fill="#C7C7C7"/>
<path d="M105.285 26.007C105.378 25.8906 105.53 25.8745 105.655 25.9567L105.669 25.9659C105.794 26.0483 105.891 26.1792 105.948 26.3321C106.755 28.5207 108.336 26.6885 110.052 30.801C108.664 28.654 105.148 26.2258 105.263 26.0381C105.27 26.0273 105.277 26.0169 105.285 26.007Z" fill="#E6E6E6"/>
<path d="M102.612 32.3689C102.625 32.2203 102.743 32.1219 102.892 32.1208L102.909 32.1206C103.058 32.1194 103.212 32.1736 103.343 32.2692C105.227 33.6375 105.526 31.2325 109.23 33.6926C106.887 32.6831 102.62 32.6274 102.612 32.4071C102.611 32.3944 102.611 32.3816 102.612 32.3689Z" fill="#E6E6E6"/>
</g>
<defs>
<clipPath id="clip0_1304_24911">
<rect width="142.974" height="123" fill="white"/>
</clipPath>
</defs>
</svg>
