<svg width="164" height="124" viewBox="0 0 164 124" fill="none" xmlns="http://www.w3.org/2000/svg">
<path d="M60.9736 120.778C60.9736 120.902 61.0731 121.001 61.197 121.001H109.777C109.9 121.001 110 120.902 110 120.778C110 120.655 109.9 120.556 109.777 120.556H61.197C61.0731 120.556 60.9736 120.655 60.9736 120.778Z" fill="#484565"/>
<path d="M86.5211 23.0613C86.5211 23.0613 82.409 22.0709 79.9203 28.0544C77.8465 33.0418 76.375 35.7053 78.0585 37.5145C78.661 38.1618 79.5206 38.5106 80.4064 38.5404L89.8844 38.85C89.8844 38.85 93.364 29.7815 91.2488 26.5025C89.1336 23.2217 86.5211 23.0613 86.5211 23.0613Z" fill="#2F2E41"/>
<path d="M88.4846 38.0965L83.9258 39.5867V33.0642H88.0623L88.4846 38.0965Z" fill="#F6A6A9"/>
<path d="M84.9854 117.134H80.7138L78.2383 94.4567H84.839L84.9854 117.134Z" fill="#F6A6A9"/>
<path d="M76.5556 120.778C76.107 120.778 75.7073 120.767 75.4051 120.739C74.2696 120.636 73.1886 119.804 72.6443 119.318C72.4003 119.099 72.3215 118.751 72.4491 118.45C72.5411 118.234 72.7231 118.073 72.9484 118.01L75.9456 117.16L80.7991 113.905L80.8535 114.002C80.8742 114.037 81.3509 114.891 81.5104 115.468C81.5705 115.688 81.5554 115.871 81.4635 116.011C81.3997 116.109 81.3115 116.165 81.2383 116.197C81.3265 116.288 81.6024 116.473 82.4488 116.607C83.6875 116.803 83.9465 115.527 83.9578 115.473L83.9653 115.431L84.0028 115.406C84.5921 115.029 84.9544 114.858 85.0801 114.893C85.1589 114.916 85.2884 114.955 85.6394 118.428C85.6751 118.536 85.9209 119.336 85.7539 120.099C85.5718 120.931 81.9177 120.644 81.1857 120.578C81.1651 120.58 78.4287 120.774 76.5537 120.774V120.778H76.5556Z" fill="#2F2E41"/>
<path d="M94.6329 117.134H90.3631L87.8857 94.4567H94.4865L94.6329 117.134Z" fill="#F6A6A9"/>
<path d="M86.204 120.778C85.7555 120.778 85.3557 120.767 85.0535 120.739C83.9181 120.636 82.837 119.804 82.2928 119.318C82.0488 119.099 81.9699 118.751 82.0976 118.45C82.1895 118.234 82.3716 118.073 82.5968 118.01L85.5941 117.16L90.4475 113.905L90.502 114.002C90.5226 114.037 90.9993 114.891 91.1588 115.468C91.2189 115.688 91.2039 115.871 91.1119 116.011C91.0481 116.109 90.9599 116.165 90.8867 116.197C90.9749 116.288 91.2508 116.473 92.0972 116.607C93.3359 116.803 93.5949 115.527 93.6062 115.473L93.6137 115.431L93.6512 115.406C94.2406 115.029 94.6028 114.858 94.7285 114.893C94.8074 114.916 94.9369 114.955 95.2878 118.428C95.3235 118.536 95.5694 119.336 95.4023 120.099C95.2203 120.931 91.5661 120.644 90.8341 120.578C90.8135 120.58 88.0771 120.774 86.2022 120.774V120.778H86.204Z" fill="#2F2E41"/>
<path d="M95.8624 61.4355H75.1123L82.5708 37.0408H90.8438L95.8624 61.4355Z" fill="#DDDEDF"/>
<path d="M74.5467 75.124C74.299 76.618 73.2968 77.6905 72.3077 77.517C71.3186 77.3436 70.7161 75.9932 70.9639 74.4992C71.054 73.9005 71.2923 73.3353 71.6583 72.8485L72.7881 66.5311L75.8642 67.1709L74.4228 73.3297C74.6124 73.9116 74.6556 74.5272 74.5486 75.124H74.5467Z" fill="#F6A6A9"/>
<path d="M83.8769 37.0445C83.8769 37.0445 78.7231 36.9102 78.1807 38.2569C77.6383 39.6054 71.2646 71.6827 71.2646 71.6827H75.4687L83.8769 37.0445Z" fill="#DDDEDF"/>
<path d="M84.9715 34.6048C87.481 34.6048 89.5153 32.5831 89.5153 30.0892C89.5153 27.5953 87.481 25.5736 84.9715 25.5736C82.4621 25.5736 80.4277 27.5953 80.4277 30.0892C80.4277 32.5831 82.4621 34.6048 84.9715 34.6048Z" fill="#F6A6A9"/>
<path d="M85.6843 24.5515C85.6843 24.5515 79.8512 33.1743 80.8327 38.5535L77.4395 36.4402C77.4395 36.4402 79.8286 25.5513 83.389 24.7064L85.6843 24.5497V24.5515Z" fill="#2F2E41"/>
<path d="M91.549 61.4354H77.9327L70.4817 91.8248C70.3447 93.108 71.163 94.3055 72.4186 94.6394C76.5063 95.7268 86.3146 97.2693 101.162 92.9756C102.59 92.5634 103.401 91.0657 102.953 89.6556L91.549 61.4373V61.4354Z" fill="#2F2E41"/>
<path d="M73.1846 41.368L73.0907 41.2747L72.9969 41.368C68.4306 36.8337 61.0303 36.8393 56.4678 41.3773C51.9052 45.9171 51.8132 53.3629 56.3795 57.8972L73.102 74.4992L89.8132 57.8767C94.3757 53.3368 94.28 45.891 89.7156 41.3568C85.1493 36.8225 77.749 36.8281 73.1864 41.3661L73.1846 41.368Z" fill="#F9A826"/>
<path d="M85.5342 39.3238L89.3066 37.4008C91.0314 36.7666 92.9551 36.9792 94.4979 37.9771C99.1899 41.0099 108.439 47.6965 104.464 51.0016C99.2256 55.3587 92.1443 47.6313 92.1443 47.6313L85.5342 39.3238Z" fill="#DDDEDF"/>
<path d="M85.4509 42.6102C84.139 41.8417 83.4952 40.5249 84.0151 39.6688C84.535 38.8145 86.0196 38.7455 87.3333 39.514C87.8626 39.8143 88.3074 40.2395 88.6302 40.7543L94.1481 44.0855L92.4364 46.7043L87.1776 43.1418C86.562 43.1063 85.9689 42.9235 85.449 42.6083H85.4509V42.6102Z" fill="#F6A6A9"/>
<path d="M89.2012 45.6299L90.7702 41.9052L98.437 44.4269L95.008 50.0989L89.2012 45.6299Z" fill="#DDDEDF"/>
</svg>
