<svg width="174" height="124" viewBox="0 0 174 124" fill="none" xmlns="http://www.w3.org/2000/svg">
<path d="M35.676 28.7602C40.0281 28.7602 43.5561 25.2322 43.5561 20.8801C43.5561 16.5281 40.0281 13 35.676 13C31.3239 13 27.7959 16.5281 27.7959 20.8801C27.7959 25.2322 31.3239 28.7602 35.676 28.7602Z" fill="#FF6584"/>
<path d="M128.233 93.6428C125.486 93.6425 122.828 92.6681 120.731 90.8927C118.635 89.1173 117.236 86.656 116.784 83.9464L116.774 83.8891L116.811 83.8447C117.427 83.106 117.945 82.2905 118.351 81.4187C117.902 81.9086 117.393 82.3402 116.837 82.7035L116.651 82.8271L116.641 82.6044C116.631 82.4121 116.626 82.2211 116.626 82.0367C116.626 80.953 116.775 79.8744 117.071 78.8318C118.418 74.0958 118.649 69.01 117.756 63.7159C117.603 62.8081 117.526 61.8892 117.527 60.9687C117.528 57.0786 118.914 53.3161 121.437 50.3548C123.959 47.3935 127.453 45.4268 131.294 44.8069C135.134 44.1871 139.07 44.9545 142.396 46.9718C145.722 48.989 148.221 52.1244 149.447 55.8165L149.484 55.9291L149.374 55.9735C148.549 56.3228 147.674 56.5399 146.781 56.6168C147.725 56.8339 148.692 56.9268 149.66 56.8933L149.762 56.8898L149.787 56.9891C150.111 58.2907 150.275 59.6272 150.275 60.9687L150.274 61.1139C150.271 62.1412 150.485 63.1576 150.901 64.0969C151.317 65.0362 151.926 65.8772 152.689 66.5651C153.929 67.6932 154.91 69.0765 155.564 70.6198C156.218 72.1631 156.53 73.8298 156.479 75.5052C156.427 77.1806 156.014 78.825 155.266 80.3253C154.518 81.8255 153.455 83.146 152.148 84.1958L152.087 84.2447L152.016 84.2124C150.522 83.5343 149.433 82.7955 148.637 81.9137C149.168 83.0453 149.882 84.0811 150.752 84.9791L150.864 85.095L150.725 85.1763C148.95 86.211 146.933 86.7559 144.878 86.7551L144.82 86.7549C144.799 86.7548 144.778 86.7548 144.758 86.7548C141.615 86.7548 138.637 87.9699 136.577 90.0941C135.493 91.2114 134.196 92.1008 132.763 92.7102C131.33 93.3196 129.79 93.6367 128.233 93.6428Z" fill="#F2F2F2"/>
<path d="M124.126 111.93C124.075 111.93 124.026 111.911 123.988 111.878C123.95 111.845 123.925 111.8 123.918 111.75C123.91 111.687 123.038 105.4 123.821 97.0452C124.544 89.3288 126.865 78.2146 133.821 69.0867C133.837 69.0648 133.858 69.0464 133.882 69.0326C133.906 69.0187 133.932 69.0097 133.959 69.006C133.987 69.0024 134.014 69.0041 134.041 69.0111C134.067 69.0181 134.092 69.0303 134.114 69.047C134.136 69.0637 134.155 69.0845 134.168 69.1083C134.182 69.1321 134.191 69.1583 134.195 69.1856C134.199 69.2129 134.197 69.2406 134.19 69.2672C134.183 69.2938 134.171 69.3187 134.154 69.3406C127.259 78.3897 124.956 89.4224 124.238 97.0842C123.459 105.391 124.324 111.629 124.333 111.691C124.337 111.72 124.335 111.751 124.327 111.779C124.318 111.808 124.304 111.835 124.284 111.858C124.264 111.88 124.24 111.898 124.213 111.911C124.185 111.923 124.156 111.93 124.126 111.93Z" fill="#3F3D56"/>
<path d="M127.602 81.1564C127.558 81.1564 127.515 81.1424 127.479 81.1164C127.443 81.0904 127.417 81.0538 127.403 81.0117C127.389 80.9696 127.389 80.9243 127.403 80.8822C127.416 80.8401 127.443 80.8035 127.479 80.7774C129.461 79.436 131.602 78.3461 133.852 77.533C137.369 76.2456 142.716 75.0785 148.221 76.8305C148.247 76.8388 148.271 76.8522 148.292 76.87C148.313 76.8877 148.331 76.9094 148.343 76.9339C148.356 76.9583 148.364 76.985 148.366 77.0124C148.368 77.0398 148.365 77.0674 148.357 77.0936C148.349 77.1198 148.335 77.1441 148.318 77.1652C148.3 77.1862 148.278 77.2035 148.254 77.2161C148.229 77.2288 148.202 77.2365 148.175 77.2388C148.148 77.2411 148.12 77.238 148.094 77.2297C142.702 75.5137 137.452 76.6615 133.996 77.9264C131.782 78.7256 129.675 79.7971 127.725 81.1163C127.689 81.1424 127.646 81.1564 127.602 81.1564Z" fill="#3F3D56"/>
<path d="M42.4993 96.3733C40.5452 96.3698 37.4687 96.5274 35.7929 97.4122C34.5051 98.0924 33.3324 98.9708 32.3176 100.015C31.9265 100.42 31.556 100.843 31.2076 101.285C30.2439 97.988 30.1318 94.5005 30.8816 91.1485C30.9343 90.9228 30.917 90.6865 30.8319 90.4709C30.7469 90.2554 30.5981 90.0709 30.4055 89.9421C30.2129 89.8132 29.9855 89.7462 29.7538 89.7499C29.5222 89.7536 29.2971 89.8279 29.1087 89.9628C26.3863 91.9481 24.6458 95.3126 24.2225 98.7163C23.6832 103.053 24.9531 107.423 26.7181 111.422L26.7176 111.425C26.7143 111.442 26.7094 111.462 26.7045 111.482C26.698 111.511 26.6898 111.54 26.6833 111.57C26.6718 111.62 26.6588 111.673 26.6473 111.723L26.9331 111.71C26.9495 111.718 26.9658 111.725 26.9821 111.733H34.1401C34.235 111.63 34.3233 111.521 34.4047 111.407C35.1968 110.321 35.525 108.849 35.9252 107.521C36.215 106.56 36.5775 105.622 37.0096 104.716C38.0976 102.439 39.5988 100.384 41.437 98.655C41.4958 98.5995 41.5562 98.544 41.6167 98.4901C41.9245 98.207 42.4017 97.8283 42.8681 97.4728C42.97 97.3953 43.0451 97.2879 43.0827 97.1655C43.1204 97.0432 43.1187 96.9121 43.078 96.7908C43.0373 96.6694 42.9596 96.5639 42.8558 96.489C42.752 96.4141 42.6273 96.3737 42.4993 96.3733Z" fill="#F2F2F2"/>
<path d="M90.8296 28.8815C90.998 29.3523 90.9746 29.8704 90.7645 30.3241C90.5544 30.7778 90.1744 31.1308 89.7064 31.3069C89.6029 31.3455 89.4961 31.375 89.3874 31.3948L88.3056 38.0184L85.7681 35.6755L87.1844 29.7447C87.1319 29.245 87.2783 28.7447 87.5918 28.352C87.9053 27.9593 88.3608 27.7057 88.8597 27.6462C89.2795 27.598 89.7032 27.6941 90.0611 27.9186C90.4191 28.1431 90.6901 28.4826 90.8296 28.8815Z" fill="#9E616A"/>
<path d="M72.1016 43.8899C72.1016 43.8899 74.071 41.2877 81.2178 41.359L85.2743 39.8851L86.2014 31.387L89.4461 32.1595L88.9826 42.6664L82.0296 46.6837L72.9133 48.5378L72.1016 43.8899Z" fill="#F9A826"/>
<path d="M61.1201 107.955L62.9923 108.752L66.9607 101.911L64.1975 100.733L61.1201 107.955Z" fill="#9E616A"/>
<path d="M76.5908 109.726L78.6257 109.726L79.5939 101.877L76.5903 101.877L76.5908 109.726Z" fill="#9E616A"/>
<path d="M76.5196 111.849L82.7776 111.849V111.77C82.7776 111.124 82.5209 110.504 82.0641 110.047C81.6074 109.591 80.9878 109.334 80.3418 109.334L79.1986 108.467L77.0658 109.334L76.5195 109.334L76.5196 111.849Z" fill="#2F2E41"/>
<path d="M59.9819 109.314L65.739 111.767L65.77 111.694C66.0232 111.1 66.03 110.429 65.7889 109.83C65.5478 109.231 65.0785 108.752 64.4842 108.498L63.7725 107.252L61.4704 107.214L60.9679 107L59.9819 109.314Z" fill="#2F2E41"/>
<path d="M78.5872 63.2701L81.68 82.1027L80.8383 84.909L81.9428 86.8966L80.3208 104.352L80.9792 105.801L79.1397 106.936H75.3965L75.1978 91.1335L74.2732 88.8134V87.5347L72.3909 77.8988L72.0443 88.9211L71.4968 91.2449L71.9567 92.8994L71.3557 94.0585L66.2057 105.117H62.0083L62.3329 102.616C61.5809 102.235 63.462 101.123 63.6428 100.299L63.0247 98.9087L63.6428 96.282L64.2095 91.1494L63.6118 80.3152L63.893 65.7257L68.8032 61.9709L78.5872 63.2701Z" fill="#2F2E41"/>
<path d="M71.0557 38.4689C73.3984 38.4689 75.2975 36.5698 75.2975 34.2271C75.2975 31.8844 73.3984 29.9854 71.0557 29.9854C68.7131 29.9854 66.814 31.8844 66.814 34.2271C66.814 36.5698 68.7131 38.4689 71.0557 38.4689Z" fill="#9E616A"/>
<path d="M63.6851 71.0819C63.804 70.8688 63.8747 70.6322 63.8922 70.3888C63.9098 70.1454 63.8738 69.9011 63.7867 69.6732C63.6996 69.4452 63.5636 69.2391 63.3883 69.0694C63.213 68.8996 63.0026 68.7704 62.7719 68.6908L62.7619 62.759L60.1914 64.4603L60.595 69.8324C60.487 70.2288 60.5281 70.6511 60.7105 71.0192C60.893 71.3873 61.2042 71.6757 61.5851 71.8297C61.966 71.9837 62.3901 71.9926 62.7772 71.8548C63.1642 71.717 63.4873 71.442 63.6851 71.0819Z" fill="#9E616A"/>
<path d="M63.4475 44.8356L62.2991 43.7288L61.4556 44.3376C61.4556 44.3376 60.6256 45.3336 59.9616 48.3215C59.2976 51.3094 59.9616 67.7429 59.9616 67.7429L63.6135 67.2449L63.1155 58.6132L64.6095 51.3094L63.4475 44.8356Z" fill="#F9A826"/>
<path d="M61.7515 43.9987L65.6203 42.1507L68.247 39.7143L73.0369 39.6785L74.582 41.6871L78.6612 43.0728L77.9813 57.1383L78.4449 58.2199C78.4449 58.2199 78.1219 58.5117 77.9744 58.6748C77.8268 58.838 78.1782 60.204 78.1782 60.204L78.3764 61.6901L77.8268 62.0827L78.5413 62.9267L78.7187 64.257C78.7187 64.257 66.2472 61.1572 63.8907 66.2923C63.7662 66.5636 64.0728 63.912 64.0728 63.912L64.3794 61.9709L64.0752 60.2286L63.6117 59.7651L64.3891 58.9876L63.8907 55.2988L61.7515 43.9987Z" fill="#F9A826"/>
<path d="M102.135 107.871H99.8391L98.7466 99.0159H102.135V107.871Z" fill="#FFB6B6"/>
<path d="M103.346 111.849H101.7L101.406 110.295L100.653 111.849H96.2864C96.0771 111.849 95.8732 111.782 95.7046 111.658C95.536 111.534 95.4115 111.359 95.3492 111.16C95.2869 110.96 95.2901 110.745 95.3583 110.547C95.4266 110.35 95.5563 110.179 95.7286 110.06L99.2158 107.651V106.08L102.884 106.299L103.346 111.849Z" fill="#2F2E41"/>
<path d="M124.463 103.316L122.488 104.487L117.031 97.4276L119.946 95.6992L124.463 103.316Z" fill="#FFB6B6"/>
<path d="M127.534 106.119L126.118 106.959L125.072 105.772L125.218 107.493L121.462 109.721C121.282 109.827 121.072 109.874 120.864 109.853C120.656 109.832 120.46 109.746 120.304 109.606C120.149 109.465 120.042 109.279 120 109.074C119.957 108.869 119.982 108.656 120.069 108.466L121.84 104.616L121.039 103.264L124.305 101.581L127.534 106.119Z" fill="#2F2E41"/>
<path d="M101.109 51.2495L99.9937 58.362L110.593 58.5014L109.198 51.6679L101.109 51.2495Z" fill="#FFB6B6"/>
<path d="M99.9529 58.2719L96.9256 65.6138L96.7051 85.2479L99.2884 103.994H102.147L103.319 85.5535L106.2 72.9355L109.041 86.1326L117.876 99.0499H122.218L114.236 84.8154L113.312 69.3095C113.312 69.3095 113.888 62.7316 110.941 58.85L110.224 56.7778L99.9529 58.2719Z" fill="#2F2E41"/>
<path d="M114.782 63.6325C114.487 63.552 114.213 63.4079 113.979 63.2102C113.746 63.0124 113.559 62.7659 113.431 62.4881C113.303 62.2102 113.238 61.9076 113.24 61.6018C113.241 61.2959 113.31 60.9941 113.441 60.7177L108.932 46.0173L112.249 45.3599L116.373 59.7694C116.822 60.0202 117.164 60.4273 117.334 60.9136C117.504 61.3998 117.489 61.9314 117.293 62.4076C117.097 62.8837 116.733 63.2714 116.27 63.4972C115.807 63.7229 115.278 63.7711 114.782 63.6325Z" fill="#FFB6B6"/>
<path d="M109.433 56.4136L101.509 52.7188C101.3 52.7144 101.098 52.6416 100.935 52.5116C100.771 52.3817 100.655 52.2017 100.603 51.9993C100.212 50.4485 99.35 48.7248 99.8071 44.6995C99.8973 43.9197 100.143 43.1659 100.53 42.4828C100.916 41.7996 101.436 41.2009 102.058 40.7221C102.68 40.2434 103.392 39.8942 104.151 39.6954C104.911 39.4965 105.702 39.452 106.479 39.5644C107.299 39.6818 108.084 39.971 108.784 40.4133C109.484 40.8555 110.082 41.4408 110.54 42.1306C110.998 42.8204 111.305 43.5992 111.44 44.4159C111.576 45.2326 111.537 46.0688 111.327 46.8695C110.407 50.362 110.506 54.0967 110.401 55.5322C110.386 55.7397 110.303 55.9365 110.165 56.0924C110.027 56.2483 109.842 56.3548 109.638 56.3957C109.577 56.4077 109.515 56.4138 109.453 56.4138C109.447 56.4138 109.44 56.4138 109.433 56.4136Z" fill="#F9A826"/>
<path d="M92.3707 31.7243C92.3267 31.8227 92.275 31.9175 92.2161 32.0077L96.0052 40.8923L98.3343 41.178L98.3625 44.7493L94.1902 44.6442C93.8532 44.6357 93.5279 44.5181 93.2634 44.309C92.9989 44.1 92.8093 43.8108 92.7231 43.4848L89.9146 32.861C89.5168 32.7423 89.1645 32.5053 88.9046 32.1816C88.6448 31.8578 88.4896 31.4626 88.4599 31.0485C88.4301 30.6344 88.5271 30.221 88.738 29.8634C88.9488 29.5058 89.2636 29.2208 89.6404 29.0465C90.0171 28.8721 90.4381 28.8166 90.8472 28.8873C91.2563 28.958 91.6342 29.1516 91.9306 29.4423C92.227 29.733 92.4278 30.107 92.5065 30.5147C92.5851 30.9223 92.5377 31.3442 92.3707 31.7243Z" fill="#FFB6B6"/>
<path d="M96.3873 40.5757C96.4816 40.4922 96.5928 40.43 96.7133 40.3933C96.8338 40.3567 96.9607 40.3465 97.0855 40.3634L101.445 40.9535C102.089 40.9451 102.71 41.1926 103.172 41.6417C103.635 42.0908 103.9 42.7048 103.91 43.3492C103.92 43.9935 103.674 44.6155 103.226 45.0789C102.779 45.5422 102.165 45.8091 101.521 45.8209L97.1641 46.5233C97.0398 46.5433 96.9126 46.5363 96.7912 46.5028C96.6698 46.4692 96.5571 46.4099 96.4607 46.3288C96.3643 46.2478 96.2865 46.1469 96.2326 46.0331C96.1787 45.9193 96.1499 45.7951 96.1483 45.6692L96.0919 41.2431C96.0902 41.1172 96.1157 40.9923 96.1667 40.8771C96.2177 40.762 96.293 40.6591 96.3873 40.5757Z" fill="#F9A826"/>
<path d="M108.73 49.741C108.618 49.6824 108.521 49.6004 108.444 49.5007C108.367 49.4009 108.312 49.2858 108.284 49.1631L107.294 44.8771C107.058 44.2774 107.07 43.6088 107.327 43.0177C107.583 42.4267 108.064 41.9615 108.663 41.7241C109.262 41.4868 109.931 41.4966 110.522 41.7515C111.114 42.0064 111.581 42.4855 111.82 43.0839L114.018 46.9105C114.081 47.0197 114.119 47.1412 114.131 47.2666C114.142 47.392 114.127 47.5184 114.085 47.6373C114.043 47.7561 113.976 47.8645 113.889 47.9552C113.802 48.0459 113.696 48.1167 113.578 48.1627L109.458 49.7813C109.341 49.8274 109.215 49.8477 109.09 49.8407C108.964 49.8338 108.841 49.7998 108.73 49.741Z" fill="#F9A826"/>
<path d="M108.554 38.0529C110.726 36.8657 111.524 34.1428 110.337 31.971C109.15 29.7993 106.427 29.0011 104.255 30.1883C102.083 31.3755 101.285 34.0984 102.472 36.2702C103.66 38.4419 106.382 39.24 108.554 38.0529Z" fill="#FFB6B6"/>
<path d="M103.322 32.3191C102.36 32.3137 101.399 32.3083 100.437 32.3029C100.369 31.6476 100.66 30.9956 101.085 30.4921C101.51 29.9887 102.061 29.6096 102.604 29.2368C103.155 28.8583 103.727 28.4712 104.382 28.3389C104.932 28.2281 105.5 28.305 106.055 28.3822C106.792 28.4846 107.528 28.587 108.264 28.6893C109.072 28.8017 109.918 28.9288 110.574 29.4135C111.462 30.069 111.235 31.582 112.087 32.2835C114.659 34.4023 113.618 36.2525 113.666 38.1838C110.557 38.5098 107.448 38.8359 104.34 39.162C104.002 39.2201 103.657 39.2101 103.323 39.1325C102.997 39.0327 102.697 38.7624 102.673 38.4219C102.646 38.0415 102.948 37.7302 103.193 37.438C103.778 36.7138 104.129 35.8291 104.199 34.9011C104.27 33.9731 104.057 33.0454 103.59 32.2409L103.322 32.3191Z" fill="#2F2E41"/>
<path d="M69.9707 38.261C69.9526 38.2211 69.9345 38.181 69.9165 38.1409C69.9234 38.1411 69.9303 38.1421 69.9373 38.1423L69.9707 38.261Z" fill="#2F2E41"/>
<path d="M66.6958 30.1782C66.8972 29.9882 67.159 29.8751 67.4354 29.8585C67.7097 29.8673 67.9879 30.1151 67.931 30.3836C68.4348 29.4915 69.2368 28.8054 70.196 28.4457C71.1553 28.086 72.2106 28.0757 73.1767 28.4165C73.8585 28.6571 74.527 29.1382 74.6836 29.844C74.6988 30.0293 74.7541 30.209 74.8456 30.3709C74.9248 30.4574 75.0277 30.5189 75.1414 30.5477C75.2552 30.5765 75.3748 30.5715 75.4857 30.5331L75.4925 30.5311C75.5304 30.5182 75.5714 30.5169 75.6101 30.5275C75.6488 30.538 75.6834 30.56 75.7095 30.5905C75.7356 30.6209 75.7519 30.6585 75.7564 30.6984C75.7609 30.7382 75.7533 30.7785 75.7346 30.814L75.5418 31.1738C75.7849 31.228 76.0376 31.2226 76.2782 31.1581C76.3182 31.1476 76.3604 31.1498 76.3991 31.1642C76.4378 31.1787 76.4711 31.2048 76.4944 31.2389C76.5177 31.2731 76.5298 31.3136 76.5292 31.3549C76.5286 31.3962 76.5152 31.4363 76.4908 31.4697C76.1703 31.9083 75.7518 32.266 75.2686 32.5143C74.7855 32.7627 74.251 32.8948 73.7078 32.9003C72.9371 32.8956 72.1584 32.6299 71.4084 32.8072C71.1182 32.8757 70.8471 33.0084 70.6148 33.1954C70.3826 33.3824 70.1952 33.6191 70.0664 33.888C69.9376 34.1569 69.8706 34.4512 69.8703 34.7493C69.8701 35.0475 69.9366 35.3419 70.065 35.6111C69.8345 35.359 69.3891 35.4187 69.1534 35.6658C69.0448 35.7981 68.9646 35.9513 68.9177 36.1158C68.8707 36.2803 68.858 36.4528 68.8804 36.6224C68.9433 37.142 69.0976 37.6464 69.3361 38.1123C68.4247 38.0843 67.5439 37.7772 66.8126 37.2325C66.0813 36.6879 65.5348 35.9319 65.2469 35.0668C64.959 34.2016 64.9436 33.2689 65.2027 32.3947C65.4618 31.5204 65.983 30.7468 66.6958 30.1782Z" fill="#2F2E41"/>
<path d="M150.973 112H18.2015C18.1528 112 18.1062 111.98 18.0718 111.946C18.0374 111.911 18.0181 111.865 18.0181 111.816C18.0181 111.767 18.0374 111.721 18.0718 111.686C18.1062 111.652 18.1528 111.632 18.2015 111.632H150.973C150.997 111.632 151.021 111.637 151.043 111.646C151.066 111.655 151.086 111.669 151.103 111.686C151.12 111.703 151.134 111.723 151.143 111.746C151.153 111.768 151.157 111.792 151.157 111.816C151.157 111.84 151.153 111.864 151.143 111.887C151.134 111.909 151.12 111.929 151.103 111.946C151.086 111.963 151.066 111.977 151.043 111.986C151.021 111.995 150.997 112 150.973 112Z" fill="#CCCCCC"/>
<path d="M49.8973 14.8343C46.0783 14.318 41.7182 16.3823 40.7284 20.1068C40.4789 19.4445 40.0254 18.8788 39.4333 18.4912C38.8413 18.1036 38.1413 17.9143 37.4346 17.9505C36.7279 17.9868 36.051 18.2468 35.5018 18.6929C34.9525 19.1391 34.5593 19.7483 34.3789 20.4326L34.8161 20.7457C43.0003 22.5155 51.4721 22.4772 59.6399 20.6335C56.9834 17.8416 53.7164 15.3505 49.8973 14.8343Z" fill="#F0F0F0"/>
<path d="M33.5184 25.3411C29.6994 24.8249 25.3393 26.8891 24.3494 30.6136C24.1 29.9514 23.6465 29.3856 23.0544 28.998C22.4624 28.6104 21.7624 28.4211 21.0557 28.4574C20.349 28.4936 19.6721 28.7536 19.1228 29.1998C18.5736 29.6459 18.1804 30.2551 18 30.9394L18.4372 31.2526C26.6213 33.0224 35.0932 32.9841 43.261 31.1403C40.6045 28.3485 37.3375 25.8573 33.5184 25.3411Z" fill="#F0F0F0"/>
</svg>
