<svg width="174" height="124" viewBox="0 0 174 124" fill="none" xmlns="http://www.w3.org/2000/svg">
<path d="M35.676 27.7602C40.0281 27.7602 43.5561 24.2322 43.5561 19.8801C43.5561 15.5281 40.0281 12 35.676 12C31.3239 12 27.7959 15.5281 27.7959 19.8801C27.7959 24.2322 31.3239 27.7602 35.676 27.7602Z" fill="#C7C7C7"/>
<path d="M128.233 92.6428C125.486 92.6425 122.828 91.6681 120.731 89.8927C118.635 88.1173 117.236 85.656 116.784 82.9464L116.774 82.8891L116.811 82.8447C117.427 82.106 117.945 81.2905 118.351 80.4187C117.902 80.9086 117.393 81.3402 116.837 81.7035L116.651 81.8271L116.641 81.6044C116.631 81.4121 116.626 81.2211 116.626 81.0367C116.626 79.953 116.775 78.8744 117.071 77.8318C118.418 73.0958 118.649 68.01 117.756 62.7159C117.603 61.8081 117.526 60.8892 117.527 59.9687C117.528 56.0786 118.914 52.3161 121.437 49.3548C123.959 46.3935 127.453 44.4268 131.294 43.8069C135.134 43.1871 139.07 43.9545 142.396 45.9718C145.722 47.989 148.221 51.1244 149.447 54.8165L149.484 54.9291L149.374 54.9735C148.549 55.3228 147.674 55.5399 146.781 55.6168C147.725 55.8339 148.692 55.9268 149.66 55.8933L149.762 55.8898L149.787 55.9891C150.111 57.2907 150.275 58.6272 150.275 59.9687L150.274 60.1139C150.271 61.1412 150.485 62.1576 150.901 63.0969C151.317 64.0362 151.926 64.8772 152.689 65.5651C153.929 66.6932 154.91 68.0765 155.564 69.6198C156.218 71.1631 156.53 72.8298 156.479 74.5052C156.427 76.1806 156.014 77.825 155.266 79.3253C154.518 80.8255 153.455 82.146 152.148 83.1958L152.087 83.2447L152.016 83.2124C150.522 82.5343 149.433 81.7956 148.637 80.9137C149.168 82.0453 149.882 83.0812 150.752 83.9791L150.864 84.095L150.725 84.1763C148.95 85.211 146.933 85.7559 144.878 85.7551L144.82 85.7549C144.799 85.7548 144.778 85.7548 144.758 85.7548C141.615 85.7548 138.637 86.9699 136.577 89.0941C135.493 90.2114 134.196 91.1008 132.763 91.7102C131.33 92.3196 129.79 92.6367 128.233 92.6428Z" fill="#F2F2F2"/>
<path d="M124.126 110.93C124.075 110.93 124.026 110.911 123.988 110.878C123.95 110.845 123.925 110.8 123.918 110.75C123.91 110.687 123.038 104.4 123.821 96.0452C124.544 88.3288 126.865 77.2146 133.821 68.0867C133.837 68.0648 133.858 68.0464 133.882 68.0326C133.906 68.0187 133.932 68.0097 133.959 68.006C133.987 68.0024 134.014 68.0041 134.041 68.0111C134.067 68.0181 134.092 68.0303 134.114 68.047C134.136 68.0637 134.155 68.0845 134.168 68.1083C134.182 68.1321 134.191 68.1583 134.195 68.1856C134.199 68.2129 134.197 68.2406 134.19 68.2672C134.183 68.2938 134.171 68.3187 134.154 68.3406C127.259 77.3897 124.956 88.4224 124.238 96.0842C123.459 104.391 124.324 110.629 124.333 110.691C124.337 110.72 124.335 110.751 124.327 110.779C124.318 110.808 124.304 110.835 124.284 110.858C124.264 110.88 124.24 110.898 124.213 110.911C124.185 110.923 124.156 110.93 124.126 110.93Z" fill="#3F3D56"/>
<path d="M127.602 80.1564C127.557 80.1564 127.514 80.1424 127.479 80.1164C127.443 80.0904 127.416 80.0538 127.402 80.0117C127.389 79.9696 127.389 79.9243 127.402 79.8822C127.416 79.8401 127.443 79.8035 127.478 79.7774C129.46 78.436 131.601 77.3461 133.852 76.533C137.368 75.2456 142.716 74.0785 148.22 75.8305C148.247 75.8388 148.271 75.8522 148.292 75.87C148.313 75.8877 148.33 75.9094 148.343 75.9339C148.356 75.9583 148.363 75.985 148.366 76.0124C148.368 76.0398 148.365 76.0674 148.357 76.0936C148.348 76.1198 148.335 76.1441 148.317 76.1652C148.299 76.1862 148.278 76.2035 148.253 76.2161C148.229 76.2288 148.202 76.2365 148.175 76.2388C148.147 76.2411 148.12 76.238 148.093 76.2297C142.701 74.5137 137.451 75.6615 133.996 76.9264C131.781 77.7256 129.675 78.7971 127.725 80.1163C127.689 80.1424 127.646 80.1564 127.602 80.1564Z" fill="#3F3D56"/>
<path d="M42.4993 95.3733C40.5452 95.3698 37.4687 95.5274 35.7929 96.4122C34.5051 97.0924 33.3324 97.9708 32.3176 99.0154C31.9265 99.4196 31.556 99.8434 31.2076 100.285C30.2439 96.988 30.1318 93.5005 30.8816 90.1485C30.9343 89.9228 30.917 89.6865 30.8319 89.4709C30.7469 89.2554 30.5981 89.0709 30.4055 88.9421C30.2129 88.8132 29.9855 88.7462 29.7539 88.7499C29.5222 88.7536 29.2971 88.8279 29.1087 88.9628C26.3863 90.9481 24.6458 94.3126 24.2225 97.7163C23.6832 102.053 24.9531 106.423 26.7181 110.422L26.7176 110.425C26.7143 110.442 26.7094 110.462 26.7045 110.482C26.698 110.511 26.6898 110.54 26.6833 110.57C26.6718 110.62 26.6588 110.673 26.6473 110.723L26.9331 110.71C26.9495 110.718 26.9658 110.725 26.9821 110.733H34.1401C34.235 110.63 34.3233 110.521 34.4047 110.407C35.1968 109.321 35.525 107.849 35.9252 106.521C36.215 105.56 36.5775 104.622 37.0096 103.716C38.0976 101.439 39.5988 99.3838 41.437 97.655C41.4958 97.5995 41.5562 97.544 41.6167 97.4901C41.9245 97.207 42.4017 96.8283 42.8681 96.4728C42.97 96.3953 43.0451 96.2879 43.0827 96.1655C43.1204 96.0432 43.1187 95.9121 43.078 95.7908C43.0373 95.6694 42.9596 95.5639 42.8558 95.489C42.752 95.4141 42.6273 95.3737 42.4993 95.3733Z" fill="#F2F2F2"/>
<path d="M90.8291 27.8815C90.9975 28.3523 90.9741 28.8704 90.764 29.3241C90.5539 29.7778 90.1739 30.1308 89.7059 30.3069C89.6024 30.3455 89.4956 30.375 89.3869 30.3948L88.3051 37.0184L85.7676 34.6755L87.1839 28.7447C87.1314 28.245 87.2778 27.7447 87.5913 27.352C87.9048 26.9593 88.3603 26.7057 88.8593 26.6462C89.279 26.598 89.7027 26.6941 90.0607 26.9186C90.4186 27.1431 90.6896 27.4826 90.8291 27.8815Z" fill="#9E616A"/>
<path d="M72.1016 42.8899C72.1016 42.8899 74.071 40.2877 81.2178 40.359L85.2743 38.8851L86.2014 30.387L89.4461 31.1595L88.9826 41.6664L82.0296 45.6837L72.9133 47.5378L72.1016 42.8899Z" fill="#C7C7C7"/>
<path d="M61.1201 106.955L62.9923 107.752L66.9607 100.911L64.1975 99.7334L61.1201 106.955Z" fill="#9E616A"/>
<path d="M76.5908 108.726L78.6257 108.726L79.5939 100.877L76.5903 100.877L76.5908 108.726Z" fill="#9E616A"/>
<path d="M76.5191 110.849L82.7771 110.849V110.77C82.7771 110.124 82.5204 109.504 82.0637 109.047C81.6069 108.591 80.9873 108.334 80.3414 108.334L79.1981 107.467L77.0653 108.334L76.519 108.334L76.5191 110.849Z" fill="#2F2E41"/>
<path d="M59.9814 108.314L65.7385 110.767L65.7695 110.694C66.0227 110.1 66.0295 109.429 65.7884 108.83C65.5473 108.231 65.078 107.752 64.4837 107.498L63.772 106.252L61.47 106.214L60.9674 106L59.9814 108.314Z" fill="#2F2E41"/>
<path d="M78.5867 62.2701L81.6795 81.1027L80.8378 83.909L81.9423 85.8966L80.3203 103.352L80.9787 104.801L79.1392 105.936H75.396L75.1973 90.1335L74.2727 87.8134V86.5347L72.3904 76.8988L72.0438 87.9211L71.4963 90.2449L71.9562 91.8994L71.3553 93.0585L66.2052 104.117H62.0078L62.3324 101.616C61.5804 101.235 63.4615 100.123 63.6423 99.2994L63.0242 97.9087L63.6423 95.282L64.209 90.1494L63.6113 79.3152L63.8926 64.7257L68.8027 60.9709L78.5867 62.2701Z" fill="#2F2E41"/>
<path d="M71.0557 37.4689C73.3984 37.4689 75.2975 35.5698 75.2975 33.2271C75.2975 30.8844 73.3984 28.9854 71.0557 28.9854C68.7131 28.9854 66.814 30.8844 66.814 33.2271C66.814 35.5698 68.7131 37.4689 71.0557 37.4689Z" fill="#9E616A"/>
<path d="M63.6851 70.0819C63.804 69.8688 63.8747 69.6322 63.8922 69.3888C63.9098 69.1454 63.8738 68.9011 63.7867 68.6732C63.6996 68.4452 63.5636 68.2391 63.3883 68.0694C63.213 67.8996 63.0026 67.7704 62.7719 67.6908L62.7619 61.759L60.1914 63.4603L60.595 68.8324C60.487 69.2288 60.5281 69.6511 60.7105 70.0192C60.893 70.3873 61.2042 70.6757 61.5851 70.8297C61.966 70.9837 62.3901 70.9926 62.7772 70.8548C63.1642 70.717 63.4873 70.442 63.6851 70.0819Z" fill="#9E616A"/>
<path d="M63.4475 43.8356L62.2991 42.7288L61.4556 43.3376C61.4556 43.3376 60.6256 44.3336 59.9616 47.3215C59.2976 50.3094 59.9616 66.7429 59.9616 66.7429L63.6135 66.2449L63.1155 57.6132L64.6095 50.3094L63.4475 43.8356Z" fill="#C7C7C7"/>
<path d="M61.7515 42.9987L65.6203 41.1507L68.2471 38.7143L73.0369 38.6785L74.5821 40.6871L78.6612 42.0728L77.9813 56.1383L78.4449 57.2199C78.4449 57.2199 78.1219 57.5117 77.9744 57.6748C77.8268 57.838 78.1782 59.204 78.1782 59.204L78.3764 60.6901L77.8268 61.0827L78.5413 61.9267L78.7187 63.257C78.7187 63.257 66.2472 60.1572 63.8907 65.2923C63.7662 65.5636 64.0728 62.912 64.0728 62.912L64.3794 60.9709L64.0752 59.2286L63.6117 58.7651L64.3891 57.9876L63.8907 54.2988L61.7515 42.9987Z" fill="#C7C7C7"/>
<path d="M102.135 106.871H99.8386L98.7461 98.0159H102.135V106.871Z" fill="#FFB6B6"/>
<path d="M103.346 110.849H101.7L101.406 109.295L100.653 110.849H96.2864C96.0771 110.849 95.8732 110.782 95.7046 110.658C95.536 110.534 95.4115 110.359 95.3492 110.16C95.2869 109.96 95.2901 109.745 95.3583 109.547C95.4266 109.35 95.5563 109.179 95.7286 109.06L99.2158 106.651V105.08L102.884 105.299L103.346 110.849Z" fill="#2F2E41"/>
<path d="M124.463 102.316L122.488 103.487L117.031 96.4276L119.946 94.6992L124.463 102.316Z" fill="#FFB6B6"/>
<path d="M127.534 105.119L126.118 105.959L125.072 104.772L125.217 106.493L121.461 108.721C121.281 108.827 121.072 108.874 120.864 108.853C120.655 108.832 120.459 108.746 120.304 108.606C120.148 108.465 120.041 108.279 119.999 108.074C119.957 107.869 119.981 107.656 120.069 107.466L121.84 103.616L121.038 102.264L124.305 100.581L127.534 105.119Z" fill="#2F2E41"/>
<path d="M101.109 50.2495L99.9937 57.362L110.593 57.5014L109.198 50.6679L101.109 50.2495Z" fill="#FFB6B6"/>
<path d="M99.9529 57.2722L96.9256 64.6141L96.7051 84.2481L99.2884 102.995H102.147L103.319 84.5537L106.2 71.9358L109.041 85.1328L117.876 98.0501H122.218L114.236 83.8157L113.312 68.3098C113.312 68.3098 113.888 61.7318 110.941 57.8502L110.224 55.7781L99.9529 57.2722Z" fill="#2F2E41"/>
<path d="M114.782 62.6325C114.487 62.552 114.213 62.4079 113.979 62.2102C113.746 62.0124 113.559 61.7659 113.431 61.4881C113.303 61.2102 113.238 60.9076 113.24 60.6018C113.241 60.2959 113.31 59.9941 113.441 59.7177L108.932 45.0173L112.249 44.3599L116.373 58.7694C116.822 59.0202 117.164 59.4273 117.334 59.9136C117.504 60.3998 117.489 60.9314 117.293 61.4076C117.097 61.8837 116.733 62.2714 116.27 62.4972C115.807 62.723 115.278 62.7711 114.782 62.6325Z" fill="#FFB6B6"/>
<path d="M109.433 55.4136L101.508 51.7188C101.299 51.7144 101.098 51.6416 100.934 51.5116C100.771 51.3817 100.654 51.2017 100.603 50.9993C100.211 49.4485 99.3495 47.7248 99.8066 43.6995C99.8968 42.9197 100.142 42.1659 100.529 41.4828C100.916 40.7996 101.435 40.2009 102.058 39.7221C102.68 39.2434 103.391 38.8942 104.151 38.6954C104.91 38.4965 105.702 38.452 106.479 38.5644C107.298 38.6818 108.084 38.971 108.783 39.4133C109.483 39.8555 110.082 40.4408 110.54 41.1306C110.997 41.8204 111.304 42.5992 111.44 43.4159C111.575 44.2326 111.537 45.0688 111.327 45.8695C110.407 49.362 110.505 53.0967 110.401 54.5322C110.385 54.7397 110.302 54.9365 110.164 55.0924C110.026 55.2483 109.841 55.3548 109.637 55.3957C109.576 55.4077 109.515 55.4138 109.453 55.4138C109.446 55.4138 109.439 55.4138 109.433 55.4136Z" fill="#C7C7C7"/>
<path d="M92.3707 30.7243C92.3267 30.8227 92.275 30.9175 92.2161 31.0077L96.0052 39.8923L98.3343 40.178L98.3625 43.7493L94.1902 43.6442C93.8532 43.6357 93.5279 43.5181 93.2634 43.309C92.9989 43.1 92.8093 42.8108 92.7231 42.4848L89.9146 31.861C89.5168 31.7423 89.1645 31.5053 88.9046 31.1816C88.6448 30.8578 88.4896 30.4626 88.4599 30.0485C88.4301 29.6344 88.5271 29.221 88.738 28.8634C88.9488 28.5058 89.2636 28.2208 89.6404 28.0465C90.0171 27.8721 90.4381 27.8166 90.8472 27.8873C91.2563 27.958 91.6342 28.1516 91.9306 28.4423C92.227 28.733 92.4278 29.107 92.5065 29.5147C92.5851 29.9223 92.5377 30.3442 92.3707 30.7243Z" fill="#FFB6B6"/>
<path d="M96.3868 39.5757C96.4811 39.4922 96.5923 39.43 96.7128 39.3933C96.8333 39.3567 96.9603 39.3465 97.0851 39.3634L101.444 39.9535C102.088 39.9451 102.71 40.1926 103.172 40.6417C103.634 41.0908 103.899 41.7048 103.909 42.3492C103.92 42.9935 103.674 43.6155 103.226 44.0789C102.778 44.5422 102.165 44.8091 101.52 44.8209L97.1636 45.5233C97.0393 45.5433 96.9121 45.5363 96.7907 45.5028C96.6693 45.4692 96.5566 45.4099 96.4602 45.3288C96.3638 45.2478 96.286 45.1469 96.2321 45.0331C96.1782 44.9193 96.1495 44.7951 96.1478 44.6692L96.0914 40.2431C96.0897 40.1172 96.1152 39.9923 96.1662 39.8771C96.2172 39.762 96.2925 39.6591 96.3868 39.5757Z" fill="#C7C7C7"/>
<path d="M108.73 48.741C108.618 48.6824 108.521 48.6004 108.444 48.5007C108.367 48.4009 108.312 48.2858 108.284 48.1631L107.294 43.8771C107.058 43.2774 107.07 42.6088 107.327 42.0177C107.583 41.4267 108.064 40.9615 108.663 40.7241C109.262 40.4868 109.931 40.4966 110.522 40.7515C111.114 41.0064 111.581 41.4855 111.82 42.0839L114.018 45.9105C114.081 46.0197 114.119 46.1412 114.131 46.2666C114.142 46.392 114.127 46.5184 114.085 46.6373C114.043 46.7561 113.976 46.8645 113.889 46.9552C113.802 47.0459 113.696 47.1167 113.578 47.1627L109.458 48.7813C109.341 48.8274 109.215 48.8477 109.09 48.8407C108.964 48.8338 108.841 48.7998 108.73 48.741Z" fill="#C7C7C7"/>
<path d="M108.554 37.0529C110.726 35.8657 111.524 33.1428 110.337 30.971C109.15 28.7993 106.427 28.0011 104.255 29.1883C102.083 30.3755 101.285 33.0984 102.472 35.2702C103.66 37.4419 106.382 38.24 108.554 37.0529Z" fill="#FFB6B6"/>
<path d="M103.322 31.3191C102.36 31.3137 101.399 31.3083 100.437 31.3029C100.369 30.6476 100.66 29.9956 101.085 29.4921C101.51 28.9887 102.061 28.6096 102.604 28.2368C103.155 27.8583 103.727 27.4712 104.382 27.3389C104.932 27.2281 105.5 27.305 106.055 27.3822C106.792 27.4846 107.528 27.587 108.264 27.6893C109.072 27.8017 109.918 27.9288 110.574 28.4135C111.462 29.069 111.235 30.582 112.087 31.2835C114.659 33.4023 113.618 35.2525 113.666 37.1838C110.557 37.5098 107.448 37.8359 104.34 38.162C104.002 38.2201 103.657 38.2101 103.323 38.1325C102.997 38.0327 102.697 37.7624 102.673 37.4219C102.646 37.0415 102.948 36.7302 103.193 36.438C103.778 35.7138 104.129 34.8291 104.199 33.9011C104.27 32.9731 104.057 32.0454 103.59 31.2409L103.322 31.3191Z" fill="#2F2E41"/>
<path d="M69.9702 37.261C69.9521 37.2211 69.934 37.181 69.916 37.1409C69.923 37.1411 69.9298 37.1421 69.9368 37.1423L69.9702 37.261Z" fill="#2F2E41"/>
<path d="M66.6958 29.1783C66.8972 28.9882 67.159 28.8751 67.4354 28.8585C67.7097 28.8673 67.9879 29.1151 67.931 29.3836C68.4348 28.4915 69.2368 27.8054 70.196 27.4457C71.1553 27.086 72.2106 27.0757 73.1767 27.4165C73.8585 27.6571 74.527 28.1382 74.6836 28.844C74.6988 29.0293 74.7541 29.209 74.8456 29.3709C74.9248 29.4574 75.0277 29.5189 75.1414 29.5477C75.2552 29.5765 75.3748 29.5715 75.4857 29.5331L75.4925 29.5311C75.5304 29.5182 75.5714 29.5169 75.6101 29.5275C75.6488 29.538 75.6834 29.56 75.7095 29.5905C75.7356 29.6209 75.7519 29.6585 75.7564 29.6984C75.7609 29.7382 75.7533 29.7785 75.7346 29.814L75.5418 30.1738C75.7849 30.228 76.0376 30.2226 76.2782 30.1581C76.3182 30.1476 76.3604 30.1498 76.3991 30.1642C76.4378 30.1787 76.4711 30.2048 76.4944 30.2389C76.5177 30.2731 76.5298 30.3136 76.5292 30.3549C76.5286 30.3962 76.5152 30.4363 76.4908 30.4697C76.1703 30.9083 75.7518 31.266 75.2686 31.5143C74.7855 31.7627 74.251 31.8948 73.7078 31.9003C72.9371 31.8956 72.1584 31.6299 71.4084 31.8072C71.1182 31.8757 70.8471 32.0084 70.6148 32.1954C70.3826 32.3824 70.1952 32.6191 70.0664 32.888C69.9376 33.1569 69.8706 33.4512 69.8703 33.7493C69.8701 34.0475 69.9366 34.342 70.065 34.6111C69.8345 34.359 69.3891 34.4187 69.1534 34.6658C69.0448 34.7981 68.9646 34.9513 68.9177 35.1158C68.8707 35.2804 68.858 35.4528 68.8804 35.6224C68.9433 36.142 69.0976 36.6464 69.3361 37.1123C68.4247 37.0843 67.5439 36.7772 66.8126 36.2325C66.0813 35.6879 65.5348 34.9319 65.2469 34.0668C64.959 33.2016 64.9436 32.2689 65.2027 31.3947C65.4618 30.5204 65.983 29.7468 66.6958 29.1783Z" fill="#2F2E41"/>
<path d="M150.973 111H18.2015C18.1528 111 18.1062 110.98 18.0718 110.946C18.0374 110.911 18.0181 110.865 18.0181 110.816C18.0181 110.767 18.0374 110.721 18.0718 110.686C18.1062 110.652 18.1528 110.632 18.2015 110.632H150.973C150.997 110.632 151.021 110.637 151.043 110.646C151.066 110.655 151.086 110.669 151.103 110.686C151.12 110.703 151.134 110.723 151.143 110.746C151.153 110.768 151.157 110.792 151.157 110.816C151.157 110.84 151.153 110.864 151.143 110.887C151.134 110.909 151.12 110.929 151.103 110.946C151.086 110.963 151.066 110.977 151.043 110.986C151.021 110.995 150.997 111 150.973 111Z" fill="#CCCCCC"/>
<path d="M49.8968 13.8343C46.0778 13.318 41.7177 15.3823 40.7279 19.1068C40.4784 18.4445 40.0249 17.8788 39.4328 17.4912C38.8408 17.1036 38.1408 16.9143 37.4341 16.9505C36.7274 16.9868 36.0505 17.2468 35.5013 17.6929C34.952 18.1391 34.5588 18.7483 34.3784 19.4326L34.8156 19.7457C42.9998 21.5156 51.4716 21.4772 59.6394 19.6335C56.9829 16.8416 53.7159 14.3505 49.8968 13.8343Z" fill="#F0F0F0"/>
<path d="M33.5184 24.3411C29.6994 23.8249 25.3393 25.8891 24.3494 29.6136C24.1 28.9514 23.6465 28.3856 23.0544 27.998C22.4624 27.6104 21.7624 27.4211 21.0557 27.4574C20.349 27.4936 19.6721 27.7536 19.1228 28.1998C18.5736 28.6459 18.1804 29.2551 18 29.9394L18.4372 30.2526C26.6213 32.0224 35.0932 31.9841 43.261 30.1403C40.6045 27.3485 37.3375 24.8573 33.5184 24.3411Z" fill="#F0F0F0"/>
</svg>
