<svg width="159" height="124" viewBox="0 0 159 124" fill="none" xmlns="http://www.w3.org/2000/svg">
<path opacity="0.1" d="M143.9 36.9372C142.568 33.8346 140.769 30.9563 138.565 28.4033L64.55 27.6712L125.489 19.0782C121.552 17.5042 117.361 16.6694 113.124 16.6151C107.295 11.9371 100.117 9.2733 92.6585 9.01991C85.1999 8.76653 77.8591 10.9371 71.728 15.2088C66.8283 12.68 61.3966 11.3658 55.8874 11.3762C39.442 11.3762 25.7379 22.8109 22.6641 37.9755L143.9 36.9372Z" fill="#C7C7C7"/>
<path opacity="0.1" d="M146.502 49.6546C146.506 45.5425 145.723 41.4679 144.196 37.6522L15.9183 51.17C14.5955 53.572 13.5836 56.1338 12.9072 58.7931L52.6305 64.7391L12 69.0764C13.2227 86.2428 27.8812 99.7987 45.7876 99.7987C54.801 99.7987 62.9923 96.3631 69.0602 90.7614C75.149 96.4696 83.4175 99.9788 92.5278 99.9788C106.046 99.9788 117.713 92.2519 123.146 81.0788C134.047 77.6064 142.515 68.8845 145.413 57.9743L95.184 50.1462H146.502C146.5 49.9819 146.502 49.8189 146.502 49.6546Z" fill="#C7C7C7"/>
<path d="M49.5368 114C65.9493 114 79.2543 111.81 79.2543 109.109C79.2543 106.408 65.9493 104.219 49.5368 104.219C33.1243 104.219 19.8193 106.408 19.8193 109.109C19.8193 111.81 33.1243 114 49.5368 114Z" fill="#C7C7C7"/>
<path d="M80.2721 77.605C78.9355 77.9415 77.5635 77.287 77.5635 77.287C77.5635 77.287 76.3931 75.9267 75.4061 75.7427C74.419 75.5586 74.0367 77.1687 73.4502 77.5827C73.0444 77.8732 70.1171 77.6655 68.3446 77.5104L68.0395 77.4828C68.0094 77.4605 67.9793 77.4368 67.9466 77.4158C67.9466 77.4158 66.2447 76.8901 65.8899 76.4248C65.5351 75.9595 63.1643 75.0986 62.4286 75.1486C61.6928 75.1985 59.5183 75.3168 59.5183 75.3168C59.5183 75.3168 58.6661 74.3429 58.2812 74.4441C57.8963 74.5453 56.5584 74.4362 56.5584 74.4362C56.5584 74.4362 56.1905 73.4873 55.8226 72.1269C55.6511 71.4921 55.0804 71.0466 54.5214 70.7535C55.0241 69.0449 54.1286 64.1713 51.348 63.2185C50.7419 63.0108 50.4316 62.3208 49.9158 61.9422C49.4537 61.6045 48.697 60.808 49.0675 59.3688C49.5911 57.3539 50.8898 54.1812 50.8898 54.1812L51.8573 52.2412C51.767 52.3787 51.6645 52.5076 51.5509 52.6263C51.6818 52.4581 51.8127 52.2925 51.9253 52.1532C52.8908 52.6427 53.9438 52.9341 55.0228 53.0101C56.1146 53.453 57.2051 53.8434 57.6292 53.8289C58.5993 53.7948 61.0736 55.0381 61.0736 55.0381C61.0736 55.0381 67.0263 56.7467 68.2634 56.8847C69.5005 57.0227 70.1027 55.4074 70.1027 55.4074C70.1027 55.4074 70.7455 52.2228 69.604 51.379C68.4624 50.5352 67.7986 54.402 67.7986 54.402L60.0106 51.5841L59.5301 51.3304C59.9032 50.9341 60.1993 50.4714 60.4033 49.9661C60.5238 49.6651 60.6337 49.3208 60.9204 49.171C60.9976 49.1325 61.0809 49.108 61.1665 49.0987C61.2376 49.0941 61.3089 49.0941 61.3799 49.0987C62.731 49.1815 63.8922 50.2487 65.2458 50.254C65.2956 50.254 65.3453 50.254 65.3951 50.254C65.6531 50.2532 65.9051 50.1754 66.119 50.0305C66.2398 49.9318 66.3391 49.8093 66.4107 49.6704C66.4823 49.5316 66.5247 49.3795 66.5353 49.2235C66.5156 49.2658 66.4937 49.307 66.4699 49.3471C66.5052 49.1537 66.5052 48.9555 66.4699 48.7622C66.3861 48.3009 66.1465 47.8869 65.9318 47.4702C65.8711 47.373 65.8368 47.2615 65.8323 47.1469C65.8384 47.087 65.8565 47.0291 65.8856 46.9764C65.9146 46.9238 65.9539 46.8776 66.0012 46.8407C66.0032 46.8531 66.0058 46.8653 66.0091 46.8775C66.1111 46.7811 66.2245 46.6977 66.3468 46.629C66.6777 46.4112 66.9605 46.1274 67.1775 45.7953C67.3946 45.4631 67.5414 45.0898 67.6088 44.6983C67.5761 44.7956 67.5368 44.8915 67.4949 44.9861C67.6963 44.3189 67.6474 43.6008 67.3575 42.9673C67.2824 42.7871 67.1625 42.6291 67.0092 42.5086C66.5209 42.1643 65.865 42.531 65.2694 42.5704C64.7457 42.6046 64.2378 42.3693 63.7652 42.1314C62.9588 41.7253 62.1563 41.2863 61.4847 40.6857C60.7214 39.9983 60.1546 39.1216 59.466 38.3606C58.7774 37.5996 57.8937 36.9215 56.8686 36.8452C55.0057 36.7006 53.2489 38.5538 51.4776 37.9493C50.6136 37.6562 50.0454 36.8544 49.4445 36.1657C48.8436 35.477 48.0175 34.8159 47.1169 34.9644C46.4911 35.0696 45.9491 35.5572 45.3155 35.5388C44.9843 35.5283 44.6766 35.3797 44.3624 35.2759C43.6018 35.0196 42.5597 35.1445 42.2887 35.9042C42.2355 36.0589 42.2167 36.2235 42.2337 36.3863C42.2506 36.5491 42.303 36.7062 42.3869 36.8465C42.3469 36.903 42.311 36.9623 42.2796 37.024C42.2145 37.1444 42.1919 37.2833 42.2154 37.4183C41.677 37.9034 41.2781 38.5247 41.0602 39.2173C40.8423 39.9099 40.8134 40.6486 40.9765 41.3562C41.1396 42.0638 41.4888 42.7146 41.9876 43.2407C42.4864 43.7668 43.1166 44.149 43.8126 44.3474C43.8375 44.4433 43.8623 44.5393 43.8859 44.6365C44.1399 45.7103 44.2721 46.9195 43.8964 47.7344C43.8728 47.7843 43.8479 47.833 43.8204 47.8803L43.7877 47.8947L43.7406 47.8461L43.4552 47.5464C43.4395 47.2336 43.2641 46.3951 42.0439 44.8389C40.4376 42.7899 40.1365 39.399 40.1365 39.399C40.1365 39.399 39.7359 37.6535 40.1365 37.1501C40.5371 36.6468 41.2074 31.1043 41.2074 31.1043L42.3149 27.984C42.3149 27.984 47.6994 22.477 45.4569 21.8067C43.9343 21.3506 42.1186 23.7007 41.1105 25.2542C40.6154 26.017 40.2952 26.8807 40.1732 27.783L37.1294 36.1434C37.1294 36.1434 36.8283 37.1515 37.1294 38.8969C37.4305 40.6423 38.0995 43.7323 38.0995 43.7323L39.8014 48.063C39.8014 48.063 40.4285 49.9333 40.3735 50.7455C40.2989 50.7941 40.037 51.3146 39.8105 51.7878L39.6443 52.0506L39.6325 52.1571C39.5212 52.395 39.444 52.5659 39.444 52.5659C39.444 52.5659 38.4962 55.3746 39.2882 57.0976C40.0802 58.8207 40.1116 59.6198 40.1116 59.6198L40.7021 62.1723L40.9482 64.4066L43.0716 69.6784L45.0275 72.4818C45.0275 72.4818 44.8442 74.5466 44.4423 74.8318C44.0404 75.117 44.225 76.5943 44.225 76.5943L43.9736 80.4716C43.9736 80.4716 43.1881 81.6308 43.1384 83.5103C43.0886 85.3898 42.8032 85.9287 42.8032 85.9287C42.8032 85.9287 42.6723 87.5059 43.0376 88.2287C43.4028 88.9516 42.4524 89.706 42.4524 89.706L43.268 92.5174L42.9499 96.0766C42.9499 96.0766 43.0978 96.1173 43.3426 96.1791L43.2929 96.4341L41.9628 103.177C41.9628 103.177 41.2441 105.024 41.2113 105.46L38.8863 109.675C38.8863 109.675 36.9461 111.605 37.8665 111.789C38.7868 111.973 41.4627 110.312 41.4627 110.312C41.4627 110.312 43.6699 107.928 44.5392 107.711C45.4084 107.494 46.372 106.87 46.0944 105.964C45.8169 105.059 45.178 103.681 45.7933 102.22C46.1861 101.3 47.0213 98.8025 47.5947 97.0597C47.6261 96.9637 47.6562 96.8717 47.6863 96.7824C47.838 96.7687 47.988 96.74 48.1341 96.6969C49.5388 96.2606 50.2745 96.5655 50.2745 96.5655L52.7828 86.3755L53.334 81.2628L56.8464 84.2043C57.5413 84.7862 58.4041 85.1285 59.3076 85.1808C60.6913 85.2623 62.8501 85.4634 64.4132 85.9484L65.0678 83.212C65.0678 83.212 66.9399 83.2803 67.3418 82.6415C67.5054 82.3787 67.6664 82.1552 67.7986 81.9844L68.1024 81.9371L76.3879 80.6503C77.9262 80.6503 80.0339 79.6081 80.0339 79.6081L81.3221 79.357C81.3221 79.357 83.2439 78.9706 83.4167 78.6513C83.5895 78.3319 81.6114 77.2712 80.2721 77.605Z" fill="url(#paint0_linear_1304_24835)"/>
<path d="M42.6748 36.5626C42.9366 35.8214 43.9604 35.6965 44.7053 35.9475C45.0116 36.05 45.314 36.1959 45.6374 36.2104C46.2579 36.2288 46.7881 35.7504 47.4008 35.6492C48.2819 35.502 49.0896 36.1486 49.6774 36.8229C50.2652 37.4971 50.8229 38.2818 51.6686 38.5696C53.4006 39.1558 55.1208 37.3473 56.9431 37.4879C57.9433 37.5655 58.8074 38.2266 59.4816 38.9718C60.1558 39.717 60.7108 40.574 61.457 41.2469C62.1116 41.8383 62.8971 42.2681 63.6891 42.6664C64.1513 42.899 64.6448 43.129 65.1606 43.0948C65.7445 43.0567 66.386 42.7005 66.8625 43.0344C67.0125 43.1524 67.1297 43.3072 67.2029 43.4839C67.7894 44.7088 67.3168 46.3399 66.1686 47.0601C65.9683 47.185 65.7248 47.323 65.7131 47.5635C65.7168 47.6759 65.7502 47.7852 65.8099 47.8803C66.0194 48.2877 66.255 48.6938 66.3336 49.1447C66.4121 49.5955 66.3061 50.1146 65.9409 50.388C65.7024 50.5473 65.4191 50.6252 65.1331 50.6101C63.8083 50.6036 62.6719 49.5587 61.3497 49.4785C61.1805 49.4591 61.0092 49.4854 60.8535 49.5547C60.5734 49.7006 60.4608 50.0384 60.3469 50.3328C59.7342 51.8693 58.213 52.9378 56.5897 53.2309C54.9663 53.524 53.271 53.1113 51.8179 52.328C51.7116 52.2769 51.614 52.2095 51.5285 52.1282C51.4072 51.9803 51.3216 51.8062 51.2785 51.6195C50.8334 50.2066 50.2312 48.728 48.998 47.9118C48.1981 47.3861 47.1128 47.0904 46.7502 46.2032C46.5224 45.642 46.6651 45.0045 46.6075 44.3999C46.5508 43.8816 46.3496 43.3898 46.027 42.9811C45.7044 42.5724 45.2735 42.2633 44.7838 42.0894C44.5691 42.0171 44.3335 41.9658 44.1764 41.8015C44.0489 41.6402 43.9674 41.4471 43.9408 41.2429C43.7457 40.3531 43.6161 39.4134 43.3438 38.5446C43.1356 37.8638 42.396 37.342 42.6748 36.5626Z" fill="#663D5B"/>
<g opacity="0.1">
<path d="M66.0937 49.9793C65.8544 50.1364 65.5714 50.2124 65.286 50.1962C63.9624 50.1962 62.8261 49.1447 61.5039 49.0659C61.3348 49.046 61.1635 49.0718 61.0077 49.1408C60.7262 49.2867 60.615 49.6244 60.5011 49.9189C59.8884 51.4566 58.3659 52.5252 56.7425 52.8183C55.1192 53.1114 53.4239 52.6987 51.972 51.9153C51.8659 51.8642 51.7683 51.7968 51.6827 51.7155C51.5616 51.5675 51.4761 51.3934 51.4326 51.2069C50.9875 49.7927 50.3853 48.3154 49.1521 47.4979C48.3509 46.9656 47.2657 46.6777 46.9043 45.7892C46.6752 45.2267 46.8179 44.5893 46.7616 43.986C46.7051 43.4674 46.5038 42.9753 46.181 42.5666C45.8581 42.1578 45.4268 41.8489 44.9367 41.6754C44.722 41.6031 44.4864 41.5506 44.3293 41.3876C44.2016 41.226 44.1205 41.0323 44.0949 40.8277C43.8985 39.9392 43.7703 38.9981 43.498 38.1307C43.3147 37.5498 42.7373 37.0792 42.7661 36.4589C42.7492 36.4916 42.7343 36.5254 42.7216 36.5601C42.4415 37.3395 43.1824 37.8612 43.3932 38.5316C43.6655 39.399 43.7938 40.3401 43.9902 41.2285C44.0158 41.4332 44.0968 41.6269 44.2245 41.7884C44.3816 41.9514 44.6173 42.004 44.832 42.0763C45.3222 42.2498 45.7537 42.5589 46.0766 42.968C46.3994 43.377 46.6006 43.8693 46.6569 44.3882C46.7132 44.9915 46.5705 45.6289 46.7996 46.1914C47.1609 47.0839 48.2462 47.3743 49.0474 47.9001C50.278 48.7189 50.8802 50.1949 51.3279 51.6091C51.3713 51.7956 51.4569 51.9697 51.578 52.1177C51.6635 52.1989 51.7611 52.2663 51.8673 52.3175C53.3191 53.1061 55.0092 53.5122 56.6378 53.2204C58.2664 52.9287 59.7797 51.8588 60.3963 50.321C60.5142 50.0266 60.6228 49.6888 60.903 49.543C61.0587 49.474 61.23 49.4481 61.3991 49.468C62.7214 49.5482 63.8577 50.5931 65.1812 50.5984C65.4671 50.6134 65.7502 50.536 65.989 50.3776C66.1073 50.2813 66.2046 50.1616 66.2749 50.0259C66.3452 49.8902 66.3869 49.7415 66.3974 49.589C66.3313 49.7431 66.2267 49.8776 66.0937 49.9793Z" fill="black"/>
<path d="M66.3213 46.6475C66.121 46.7789 65.8762 46.9104 65.8644 47.1509C65.8632 47.1992 65.8708 47.2473 65.8866 47.2928C65.9861 47.1983 66.0969 47.1167 66.2165 47.0497C66.5404 46.8368 66.8171 46.5592 67.0295 46.2343C67.2418 45.9093 67.3854 45.544 67.4511 45.161C67.2575 45.773 66.8581 46.2985 66.3213 46.6475Z" fill="black"/>
</g>
<path d="M46.1002 101.455C45.4941 102.885 46.1172 104.231 46.3948 105.119C46.6723 106.008 45.7245 106.614 44.8736 106.828C44.0226 107.042 41.8625 109.374 41.8625 109.374C41.8625 109.374 39.2443 110.999 38.3436 110.819C37.4429 110.639 39.3411 108.749 39.3411 108.749L41.6164 104.625C41.6492 104.199 42.3522 102.391 42.3522 102.391L43.6534 95.7927L43.8263 94.9161L48.4397 94.6361C48.4397 94.6361 48.1975 95.3879 47.8636 96.4039C47.302 98.1125 46.4799 100.562 46.1002 101.455Z" fill="#CC818C"/>
<path d="M82.9198 78.3923C82.7561 78.7051 80.8749 79.0823 80.8749 79.0823L79.6142 79.3281C79.6142 79.3281 77.5523 80.348 76.0468 80.348L67.938 81.6084L66.8501 81.778V77.1594C66.8501 77.1594 67.3973 77.2173 68.1723 77.2909C69.9043 77.4433 72.77 77.6457 73.1667 77.3618C73.7401 76.9518 74.1158 75.3746 75.0807 75.556C76.0455 75.7373 77.1923 77.0674 77.1923 77.0674C77.1923 77.0674 78.5342 77.7075 79.8433 77.3789C81.1524 77.0503 83.0834 78.0795 82.9198 78.3923Z" fill="#CC818C"/>
<path opacity="0.1" d="M68.2247 81.251C68.2247 81.251 68.1082 81.3825 67.938 81.6072L66.8501 81.7768V77.1595C66.8501 77.1595 67.3973 77.2174 68.1723 77.291C69.4736 78.3227 68.2247 81.251 68.2247 81.251Z" fill="black"/>
<path d="M52.5649 80.1838L56.9204 83.8324C57.6007 84.4017 58.4451 84.7366 59.3293 84.7879C60.6829 84.8681 62.7959 85.0639 64.3302 85.5397L64.969 82.8611C64.969 82.8611 66.8018 82.9268 67.1946 82.3025C67.4252 81.9339 67.6821 81.5825 67.963 81.251C67.963 81.251 69.2892 78.1466 67.7837 77.1937C67.7837 77.1937 66.1145 76.6838 65.7702 76.2237C65.4259 75.7637 63.1035 74.9265 62.3835 74.9751C61.6635 75.0238 59.5361 75.1394 59.5361 75.1394C59.5361 75.1394 58.7009 74.1865 58.3252 74.2851C57.9494 74.3837 56.639 74.2851 56.639 74.2851C56.639 74.2851 56.279 73.3559 55.919 72.0245C55.5589 70.6931 53.4159 70.2173 53.4159 70.2173L52.5649 80.1838Z" fill="#565987"/>
<path opacity="0.1" d="M52.5649 80.1838L56.9204 83.8324C57.6007 84.4017 58.4451 84.7366 59.3293 84.7879C60.6829 84.8681 62.7959 85.0639 64.3302 85.5397L64.969 82.8611C64.969 82.8611 66.8018 82.9268 67.1946 82.3025C67.4252 81.9339 67.6821 81.5825 67.963 81.251C67.963 81.251 69.2892 78.1466 67.7837 77.1937C67.7837 77.1937 66.1145 76.6838 65.7702 76.2237C65.4259 75.7637 63.1035 74.9265 62.3835 74.9751C61.6635 75.0238 59.5361 75.1394 59.5361 75.1394C59.5361 75.1394 58.7009 74.1865 58.3252 74.2851C57.9494 74.3837 56.639 74.2851 56.639 74.2851C56.639 74.2851 56.279 73.3559 55.919 72.0245C55.5589 70.6931 53.4159 70.2173 53.4159 70.2173L52.5649 80.1838Z" fill="black"/>
<path d="M50.6173 47.4728L50.1355 47.5635H50.1054L50.0347 47.5766L49.2099 47.7304L48.956 48.0327L48.9455 48.0432L48.1299 49.0132L47.4426 49.6901L47.4361 49.698L46.8548 50.2657L45.8716 51.2476L45.7067 51.6563L45.348 52.5619L45.255 52.7919L44.2732 53.8433L43.6461 55.1905L42.1799 56.0448L40.6024 55.2234L39.8823 54.1719L40.046 52.6657L40.0787 52.3647L40.5592 51.5906L40.9951 50.8861L41.846 49.6704L43.4825 48.5532L43.7757 48.4756L44.1043 48.3889C44.1294 48.3529 44.1526 48.3156 44.1737 48.2772C44.2014 48.231 44.2263 48.1831 44.2483 48.1339C44.6162 47.3374 44.4866 46.1532 44.2378 45.1031C44.0472 44.3175 43.7946 43.5484 43.4825 42.803L47.8026 42.1787C47.8026 42.1787 47.7607 43.0199 47.7607 44.3316C47.7607 44.6602 47.7607 45.0163 47.7699 45.3975C47.7908 46.5804 48.8853 47.093 49.7113 47.3111C49.9241 47.3681 50.14 47.4119 50.3581 47.4426C50.5178 47.4676 50.6173 47.4728 50.6173 47.4728Z" fill="#CC818C"/>
<path d="M43.8093 48.0932C43.8093 48.0932 44.0056 47.3046 42.4347 45.3002C40.8637 43.2959 40.5692 39.9772 40.5692 39.9772C40.5692 39.9772 40.1764 38.2686 40.5692 37.7757C40.9619 37.2828 41.6165 31.8613 41.6165 31.8613L42.6965 28.8055C42.6965 28.8055 47.9658 23.4167 45.773 22.7596C44.2832 22.3127 42.5001 24.6141 41.5196 26.1334C41.0353 26.88 40.7223 27.7254 40.6032 28.6083L37.6236 36.79C37.6236 36.79 37.329 37.7757 37.6236 39.4843C37.9181 41.193 38.5727 44.2159 38.5727 44.2159L40.2419 48.4585C40.2419 48.4585 41.1203 51.1003 40.6647 51.4223L41.6819 49.9122L43.8093 48.0932Z" fill="#CC818C"/>
<path d="M69.8942 55.6545C69.8942 55.6545 69.3051 57.2317 68.0941 57.1003C66.8832 56.9689 61.0575 55.2931 61.0575 55.2931C61.0575 55.2931 58.6356 54.0773 57.6865 54.1102C56.7373 54.1431 52.3845 52.1059 52.3845 52.1059C52.3845 52.1059 52.0781 52.5107 51.7364 52.9365C51.3646 53.4031 50.9509 53.896 50.8462 53.913C50.6498 53.9459 47.6061 54.3731 47.6061 54.3731L45.5442 53.4202L45.3478 52.5619L45.2549 52.1676L45.7118 51.6564L46.3127 50.9847L47.4398 49.6941L47.4464 49.6862L48.9506 48.0446L48.9611 48.0341L49.9246 47.6398L50.1105 47.5635H50.1406C50.2558 47.5438 50.6983 47.5031 51.2913 47.8396C51.7043 48.0743 52.1629 48.2169 52.6358 48.2575C53.5771 48.3249 54.4684 48.7082 55.1664 49.3458L60.0102 51.9048L67.6359 54.6648C67.6359 54.6648 68.2905 50.8862 69.4033 51.7076C70.516 52.5291 69.8942 55.6545 69.8942 55.6545Z" fill="#CC818C"/>
<path opacity="0.1" d="M51.7366 52.9366C51.3648 53.4031 50.9511 53.896 50.8464 53.9131C50.65 53.946 47.6062 54.3731 47.6062 54.3731L45.5444 53.4202L45.348 52.562L45.255 52.792L44.2732 53.8434L43.6461 55.1906L42.1799 56.0449L40.6024 55.2235L39.8823 54.172L40.046 52.6658C40.1284 52.4871 40.3536 52.0008 40.5592 51.5907C40.6563 51.3648 40.7783 51.1505 40.9231 50.9519C41.054 50.8652 41.1915 49.9333 41.1915 49.9333C41.7858 48.2129 43.777 47.9487 43.777 47.9487L44.0951 48.2484L44.2339 48.3929C44.1776 48.3837 44.2444 48.2615 44.1724 48.2812C44.0572 48.3141 44.0061 48.4889 43.8582 48.5848C43.0531 49.1106 41.795 50.3368 41.2975 50.9191C41.1771 51.0597 41.0527 51.1977 40.9257 51.3318C40.207 52.0954 40.3392 53.1074 40.3392 53.1074C40.1599 53.896 41.7465 54.4875 41.7465 54.4875C42.189 53.7488 45.183 51.7116 45.183 51.7116L47.1991 49.4444C47.817 48.364 49.0319 47.6503 49.71 47.3165C50.0098 47.1693 50.2062 47.0957 50.2062 47.0957L50.9603 47.419C50.7612 47.3655 50.5505 47.3747 50.3568 47.4453C50.2455 47.4799 50.1373 47.5238 50.0334 47.5767C49.9941 47.5965 49.9548 47.6175 49.9182 47.6398C49.712 47.76 49.5181 47.9005 49.3395 48.0591L47.6455 49.9162C46.3508 51.3344 47.3261 53.6279 49.2414 53.6608H49.2584C50.4288 53.9315 51.2679 53.3874 51.7366 52.9366Z" fill="black"/>
<path opacity="0.1" d="M48.44 94.64C48.44 94.64 48.1978 95.3918 47.864 96.4078C46.5837 96.5037 44.4694 96.0069 43.6538 95.7966L43.8266 94.92L48.44 94.64Z" fill="black"/>
<path d="M44.2352 48.3928L43.8162 47.9617C43.8162 47.9617 42.3042 48.1694 41.3655 49.7913C41.3655 49.7913 40.927 51.007 40.7921 51.0938C40.6573 51.1805 39.8823 52.88 39.8823 52.88C39.8823 52.88 38.9554 55.6282 39.7291 57.3158C40.5028 59.0034 40.5368 59.7802 40.5368 59.7802L41.1155 62.2774L41.3551 64.467L43.434 69.6258L45.3479 72.3635C45.3479 72.3635 45.1686 74.3836 44.7758 74.6636C44.3831 74.9435 44.5624 76.388 44.5624 76.388L44.3176 80.1837C44.3176 80.1837 43.5479 81.3167 43.4994 83.1567C43.451 84.9968 43.1721 85.5225 43.1721 85.5225C43.1721 85.5225 43.0412 87.0668 43.4012 87.7739C43.7613 88.481 42.8278 89.2197 42.8278 89.2197L43.6303 91.9627L43.3188 95.4457C43.3188 95.4457 47.0171 96.4813 48.3917 96.0542C49.7663 95.627 50.4863 95.9228 50.4863 95.9228L52.9409 85.9457L53.7919 78.1097C53.7919 78.1097 53.8416 72.5567 54.5774 70.8638C55.2084 69.4181 54.381 64.2673 51.5389 63.2947C50.9458 63.0922 50.6447 62.4167 50.1381 62.046C49.6851 61.7162 48.9454 60.9368 49.3081 59.5278C49.816 57.5563 51.0924 54.4519 51.0924 54.4519L52.0376 52.5619C52.0376 52.5619 51.01 54.2311 49.1287 53.8039H49.1117C47.1964 53.7697 46.2211 51.4763 47.5159 50.0594L49.2099 48.201C49.2099 48.201 50.1433 47.3374 50.8306 47.5556L50.0779 47.2323C50.0779 47.2323 47.9584 48.0209 47.0668 49.581L45.0508 51.8482C45.0508 51.8482 42.0594 53.8762 41.6169 54.6201C41.6169 54.6201 40.0302 54.0287 40.2096 53.2401C40.2096 53.2401 40.0786 52.2267 40.7961 51.4631C40.927 51.3317 41.0474 51.1924 41.1678 51.0517C41.8133 50.2947 43.5976 48.2864 44.2352 48.3928Z" fill="#565987"/>
<path opacity="0.1" d="M44.4809 61.9304C44.4809 61.9304 44.0057 65.3976 44.3657 66.1034L44.4809 61.9304Z" fill="black"/>
<path opacity="0.1" d="M44.791 63.2776L45.299 65.2662C45.299 65.2662 45.4783 64.0504 44.791 63.2776Z" fill="black"/>
<path opacity="0.1" d="M41.7803 62.8137C41.7803 62.8137 42.7949 67.8739 43.9076 69.4024L41.7803 62.8137Z" fill="black"/>
<path opacity="0.1" d="M48.9321 68.9134C48.9321 68.9134 47.1975 70.5563 46.5259 70.4367C46.5259 70.4367 49.1939 70.5523 50.0278 69.1394C50.0278 69.1434 49.4885 68.7491 48.9321 68.9134Z" fill="black"/>
<path opacity="0.1" d="M51.3366 68.782C51.3366 68.782 49.1111 70.4078 48.6699 70.5563C48.6699 70.5563 51.0748 69.8663 51.3366 68.782Z" fill="black"/>
<path opacity="0.1" d="M43.8098 56.7059C43.8098 56.7059 42.697 58.1359 42.1406 57.9716C42.1406 57.9716 43.4995 58.0203 43.8098 56.7059Z" fill="black"/>
<path opacity="0.1" d="M45.0703 58.546C45.0703 58.546 47.4922 55.2445 48.6377 55.3759C48.6377 55.3759 45.8885 57.7745 45.0703 58.546Z" fill="black"/>
<path opacity="0.1" d="M48.4244 57.3447C48.4244 57.3447 46.8861 58.1189 47.0498 58.3449C47.2134 58.571 48.4244 57.3447 48.4244 57.3447Z" fill="black"/>
<path opacity="0.1" d="M49.5366 82.6968C49.5366 82.6968 44.3982 85.704 43.9243 85.8512C43.9243 85.8512 44.808 86.5254 45.6419 86.1968C46.4758 85.8682 49.5366 82.6968 49.5366 82.6968Z" fill="black"/>
<path opacity="0.1" d="M45.2336 88.9569C45.2336 88.9569 43.1717 88.7427 43.2528 89.4169C43.334 90.0912 45.2336 88.9569 45.2336 88.9569Z" fill="black"/>
<path opacity="0.1" d="M47.8021 42.1787C47.8021 42.1787 47.7602 43.0199 47.7602 44.3316C47.2754 44.7304 46.7034 45.0082 46.091 45.142C45.4786 45.2759 44.8434 45.2621 44.2373 45.1018C44.0467 44.3162 43.7941 43.5471 43.4819 42.8017L47.8021 42.1787Z" fill="black"/>
<path d="M45.2502 44.9769C47.4373 44.9769 49.2103 43.1969 49.2103 41.0011C49.2103 38.8053 47.4373 37.0253 45.2502 37.0253C43.0631 37.0253 41.29 38.8053 41.29 41.0011C41.29 43.1969 43.0631 44.9769 45.2502 44.9769Z" fill="#CC818C"/>
<path opacity="0.1" d="M46.2878 43.4273C46.3991 45.0532 46.7394 46.9129 48.1455 47.7304C49.1614 48.3206 50.4417 48.1655 51.5662 47.829C52.6908 47.4925 53.7918 46.9905 54.9622 46.934C55.8615 46.8906 56.7504 47.1127 57.6472 47.1692C58.544 47.2257 59.5258 47.0851 60.166 46.4516C61.0824 45.55 60.9148 43.911 60.0469 42.9634C59.1789 42.0158 57.8213 41.6714 56.5357 41.7069C54.9648 41.7503 53.2105 42.2326 51.9681 41.2758C51.1342 40.6318 50.8187 39.5146 50.117 38.7273C48.9453 37.413 43.7638 35.5151 42.6667 37.6575C42.1522 38.6603 44.4903 39.3766 45.0323 40.1021C45.8885 41.2469 46.1857 41.9264 46.2878 43.4273Z" fill="black"/>
<path d="M46.4094 43.2867C46.522 44.9138 46.861 46.7736 48.267 47.5898C49.2829 48.1799 50.5633 48.0248 51.6878 47.6897C52.8124 47.3545 53.9134 46.8512 55.085 46.7946C55.9831 46.7513 56.872 46.9721 57.7701 47.0299C58.6682 47.0877 59.6474 46.9458 60.2876 46.3123C61.204 45.4093 61.0364 43.7717 60.1684 42.8241C59.3005 41.8764 57.9429 41.5321 56.6586 41.5676C55.0877 41.6096 53.3321 42.0933 52.0897 41.1352C51.2558 40.4911 50.9403 39.3753 50.2386 38.5867C49.0669 37.2724 43.8853 35.3758 42.7883 37.5181C42.2738 38.5197 44.6119 39.236 45.1552 39.9628C46.0101 41.1062 46.3073 41.7844 46.4094 43.2867Z" fill="#663D5B"/>
<path opacity="0.1" d="M41.647 54.4861C41.7077 53.9674 41.878 53.4676 42.1464 53.0202C42.4148 52.5728 42.7752 52.1881 43.2035 51.8916" fill="black"/>
<path opacity="0.1" d="M56.495 75.0737C56.4829 75.2025 56.4515 75.3288 56.4021 75.4483C56.2305 75.9643 56.0241 76.468 55.7842 76.9558C56.1337 76.9256 56.4217 76.6496 56.5697 76.3315C56.6989 76.0043 56.7702 75.6569 56.7804 75.305C56.7933 75.1951 56.7964 75.0843 56.7896 74.9738C56.7804 74.8713 56.715 74.4796 56.5461 74.5493C56.4099 74.6071 56.4977 74.9699 56.495 75.0737Z" fill="black"/>
<path opacity="0.1" d="M60.5232 45.9009C59.8817 46.5344 58.9025 46.6764 58.0044 46.6185C57.1063 46.5607 56.2135 46.3399 55.3194 46.3846C54.1411 46.4411 53.0493 46.9432 51.9235 47.2796C50.7976 47.6161 49.5186 47.7712 48.5014 47.1811C47.0967 46.3636 46.7563 44.5038 46.645 42.878C46.5429 41.377 46.2444 40.6975 45.3895 39.5527C44.8724 38.8601 42.7254 38.1766 42.9716 37.2461C42.9004 37.33 42.8389 37.4217 42.7883 37.5195C42.2738 38.521 44.6119 39.2373 45.1552 39.9641C46.0101 41.1076 46.3073 41.7884 46.4094 43.288C46.522 44.9152 46.861 46.7749 48.267 47.5911C49.2829 48.1813 50.5633 48.0262 51.6878 47.691C52.8124 47.3559 53.9134 46.8525 55.085 46.796C55.9831 46.7526 56.872 46.9734 57.7701 47.0312C58.6682 47.0891 59.6474 46.9471 60.2876 46.3136C60.4694 46.1325 60.6139 45.9172 60.713 45.6801C60.6555 45.7585 60.592 45.8323 60.5232 45.9009Z" fill="black"/>
<path d="M41.3628 57.8521L40.8823 58.9035L42.4101 58.5973L41.3628 57.8521Z" fill="#CC818C"/>
<path opacity="0.1" d="M41.3628 57.8521L40.9674 58.9035H40.8823L41.3628 57.8521Z" fill="black"/>
<path opacity="0.1" d="M79.1678 105.576C82.1321 105.576 84.5352 105.245 84.5352 104.837C84.5352 104.428 82.1321 104.097 79.1678 104.097C76.2034 104.097 73.8003 104.428 73.8003 104.837C73.8003 105.245 76.2034 105.576 79.1678 105.576Z" fill="#C7C7C7"/>
<path opacity="0.1" d="M99.7278 107.669C102.692 107.669 105.095 107.338 105.095 106.929C105.095 106.52 102.692 106.189 99.7278 106.189C96.7635 106.189 94.3604 106.52 94.3604 106.929C94.3604 107.338 96.7635 107.669 99.7278 107.669Z" fill="#C7C7C7"/>
<path opacity="0.1" d="M123.946 104.836C126.91 104.836 129.314 104.505 129.314 104.097C129.314 103.688 126.91 103.357 123.946 103.357C120.982 103.357 118.579 103.688 118.579 104.097C118.579 104.505 120.982 104.836 123.946 104.836Z" fill="#C7C7C7"/>
<path opacity="0.1" d="M91.4984 113.414C93.6053 113.414 95.3133 113.179 95.3133 112.888C95.3133 112.598 93.6053 112.362 91.4984 112.362C89.3916 112.362 87.6836 112.598 87.6836 112.888C87.6836 113.179 89.3916 113.414 91.4984 113.414Z" fill="#C7C7C7"/>
<path opacity="0.1" d="M112.837 112.888C114.944 112.888 116.652 112.653 116.652 112.362C116.652 112.072 114.944 111.837 112.837 111.837C110.73 111.837 109.022 112.072 109.022 112.362C109.022 112.653 110.73 112.888 112.837 112.888Z" fill="#C7C7C7"/>
<path d="M99.8453 106.763C99.8453 106.763 92.3177 81.9884 101.023 72.0652C107.535 64.6419 114.928 65.5304 118.239 66.4478C119.095 66.6768 119.892 67.0902 120.574 67.6591C121.256 68.2281 121.806 68.9391 122.187 69.7428C123.344 72.2505 123.136 76.3144 114.966 81.0683C101.285 89.02 100.434 99.9289 100.434 99.9289L99.8453 106.763Z" fill="#C7C7C7"/>
<path d="M117.06 69.9623C117.06 69.9623 94.8698 76.9282 99.8446 106.763" stroke="#565987" stroke-miterlimit="10"/>
<path d="M104.099 72.4595C104.099 72.4595 107.153 74.5269 106.183 77.6327" stroke="#565987" stroke-miterlimit="10"/>
<path d="M114.835 74.2995C114.835 74.2995 112.966 72.3911 110.692 73.4439" stroke="#565987" stroke-miterlimit="10"/>
<path d="M106.063 83.894C106.063 83.894 102.782 82.2222 101.934 84.3159" stroke="#565987" stroke-miterlimit="10"/>
<path d="M97.9468 87.3771C97.9468 87.3771 100.409 87.1799 100.454 88.3628" stroke="#565987" stroke-miterlimit="10"/>
<path d="M99.5459 106.96C99.5459 106.96 108.362 88.9542 110.784 89.3485C111.934 89.5352 112.464 90.6721 112.704 91.8129C113 93.2897 112.83 94.8224 112.217 96.1975C110.967 99.0772 107.606 104.549 99.5459 106.96Z" fill="#C7C7C7"/>
<path d="M110.712 92.7657C110.712 92.7657 101.459 106.238 99.6709 106.829" stroke="#565987" stroke-miterlimit="10"/>
<path d="M111.563 94.8687H109.403" stroke="#565987" stroke-miterlimit="10"/>
<path d="M108.976 99.7974L105.59 99.9433" stroke="#565987" stroke-miterlimit="10"/>
<path d="M106.916 95.8545L107.283 97.6249" stroke="#565987" stroke-miterlimit="10"/>
<path d="M103.315 101.243L103.381 102.852" stroke="#565987" stroke-miterlimit="10"/>
<path d="M99.8078 106.96C99.8078 106.96 90.992 88.9542 88.5701 89.3485C87.4194 89.5352 86.8892 90.6721 86.6496 91.8129C86.3497 93.2884 86.5153 94.821 87.1235 96.1975C88.3737 99.0772 91.7343 104.549 99.8078 106.96Z" fill="#C7C7C7"/>
<path d="M88.6289 92.7657C88.6289 92.7657 97.8819 106.238 99.6702 106.829" stroke="#565987" stroke-miterlimit="10"/>
<path d="M87.7773 94.8687H89.9374" stroke="#565987" stroke-miterlimit="10"/>
<path d="M90.3657 99.7974L93.7512 99.9433" stroke="#565987" stroke-miterlimit="10"/>
<path d="M92.4247 95.8545L92.0581 97.6249" stroke="#565987" stroke-miterlimit="10"/>
<path d="M96.0244 101.243L95.959 102.852" stroke="#565987" stroke-miterlimit="10"/>
<path d="M114.939 111.165C115.179 110.969 115.355 110.704 115.441 110.405C115.505 110.103 115.377 109.742 115.09 109.631C114.768 109.508 114.424 109.731 114.164 109.957C113.903 110.183 113.603 110.442 113.262 110.394C113.437 110.234 113.568 110.031 113.642 109.805C113.716 109.579 113.731 109.337 113.684 109.104C113.67 109.007 113.63 108.916 113.567 108.841C113.389 108.649 113.064 108.732 112.849 108.883C112.168 109.364 111.979 110.292 111.976 111.128C111.907 110.826 111.964 110.512 111.963 110.208C111.962 109.905 111.877 109.551 111.617 109.391C111.457 109.302 111.277 109.256 111.094 109.259C110.787 109.249 110.447 109.279 110.237 109.504C109.976 109.782 110.045 110.252 110.271 110.555C110.498 110.859 110.841 111.055 111.156 111.268C111.411 111.418 111.628 111.626 111.79 111.873C111.809 111.908 111.825 111.944 111.837 111.981H113.755C114.184 111.764 114.583 111.489 114.939 111.165Z" fill="#C7C7C7"/>
<path d="M81.349 103.914C81.5894 103.717 81.7643 103.452 81.8504 103.153C81.9159 102.851 81.7876 102.496 81.4996 102.379C81.1775 102.255 80.8345 102.479 80.5727 102.706C80.3109 102.933 80.0124 103.19 79.672 103.142C79.8474 102.982 79.9782 102.778 80.0519 102.551C80.1255 102.325 80.1395 102.083 80.0923 101.849C80.0776 101.752 80.0369 101.661 79.9744 101.586C79.7951 101.394 79.4717 101.476 79.257 101.627C78.5763 102.108 78.3865 103.036 78.3825 103.872C78.3144 103.571 78.372 103.257 78.3707 102.952C78.3694 102.647 78.2843 102.295 78.0238 102.133C77.8631 102.046 77.6825 102.004 77.5002 102.009C77.1951 101.998 76.8534 102.028 76.6453 102.253C76.3835 102.533 76.4529 103 76.678 103.304C76.9032 103.608 77.2475 103.803 77.5643 104.016C77.8177 104.168 78.0339 104.375 78.1966 104.622C78.2162 104.657 78.232 104.693 78.2438 104.731H80.163C80.593 104.513 80.9919 104.238 81.349 103.914Z" fill="#C7C7C7"/>
<path d="M92.5408 111.165C92.7815 110.969 92.9568 110.704 93.0435 110.405C93.1076 110.103 92.9794 109.742 92.6927 109.631C92.3706 109.508 92.0263 109.731 91.7658 109.957C91.5053 110.183 91.2055 110.442 90.8638 110.394C91.0395 110.234 91.171 110.031 91.2453 109.805C91.3196 109.579 91.3343 109.338 91.2879 109.104C91.2738 109.007 91.233 108.916 91.1701 108.841C90.9921 108.649 90.6674 108.732 90.4527 108.883C89.772 109.364 89.5821 110.292 89.5795 111.128C89.5101 110.826 89.5677 110.512 89.5664 110.208C89.5651 109.905 89.48 109.551 89.2208 109.391C89.0607 109.302 88.8801 109.256 88.6972 109.259C88.3908 109.249 88.0504 109.279 87.841 109.504C87.5792 109.782 87.6485 110.252 87.875 110.555C88.1015 110.859 88.4445 111.055 88.76 111.268C89.0144 111.418 89.2311 111.626 89.3936 111.873C89.4129 111.908 89.4287 111.944 89.4407 111.981H91.3586C91.7875 111.764 92.1851 111.489 92.5408 111.165Z" fill="#C7C7C7"/>
<path d="M124.289 96.5063C124.289 96.5063 125.009 97.45 123.958 98.8721C122.907 100.294 122.04 101.501 122.387 102.389C122.387 102.389 123.973 99.7422 125.267 99.7054C126.56 99.6686 125.715 98.098 124.289 96.5063Z" fill="#C7C7C7"/>
<path opacity="0.1" d="M124.289 96.5063C124.352 96.5972 124.401 96.6968 124.435 96.8021C125.696 98.2873 126.366 99.6739 125.155 99.7094C124.028 99.7409 122.676 101.766 122.351 102.278C122.362 102.317 122.374 102.355 122.389 102.393C122.389 102.393 123.976 99.7462 125.269 99.7094C126.563 99.6726 125.714 98.098 124.289 96.5063Z" fill="black"/>
<path d="M125.63 97.7089C125.63 98.0414 125.594 98.3109 125.548 98.3109C125.502 98.3109 125.467 98.0375 125.467 97.7089C125.467 97.3803 125.513 97.5341 125.558 97.5341C125.604 97.5341 125.63 97.3803 125.63 97.7089Z" fill="#FFD037"/>
<path d="M126.09 98.1059C125.8 98.2649 125.546 98.3609 125.525 98.3214C125.504 98.282 125.72 98.119 126.011 97.96C126.301 97.801 126.187 97.9166 126.208 97.96C126.229 98.0034 126.384 97.9469 126.09 98.1059Z" fill="#FFD037"/>
<path d="M120.492 96.5063C120.492 96.5063 119.772 97.45 120.823 98.8721C121.875 100.294 122.741 101.501 122.394 102.389C122.394 102.389 120.809 99.7422 119.514 99.7054C118.22 99.6686 119.076 98.098 120.492 96.5063Z" fill="#C7C7C7"/>
<path opacity="0.1" d="M120.492 96.5063C120.429 96.5973 120.379 96.6969 120.344 96.8021C119.085 98.2873 118.415 99.6739 119.624 99.7094C120.753 99.7409 122.112 101.766 122.43 102.278C122.419 102.317 122.406 102.356 122.39 102.393C122.39 102.393 120.805 99.7462 119.51 99.7094C118.216 99.6726 119.076 98.098 120.492 96.5063Z" fill="black"/>
<path d="M119.158 97.709C119.158 98.0415 119.196 98.311 119.242 98.311C119.288 98.311 119.324 98.0415 119.324 97.709C119.324 97.3765 119.279 97.5342 119.233 97.5342C119.187 97.5342 119.158 97.3804 119.158 97.709Z" fill="#FFD037"/>
<path d="M118.701 98.1059C118.991 98.2649 119.244 98.3609 119.266 98.3214C119.288 98.282 119.071 98.119 118.78 97.96C118.49 97.801 118.604 97.9166 118.581 97.96C118.559 98.0034 118.41 97.9469 118.701 98.1059Z" fill="#FFD037"/>
<path d="M119.387 102.27C119.387 102.27 121.398 102.208 122.005 101.774C122.613 101.34 125.099 100.824 125.25 101.519C125.4 102.214 128.271 104.975 126.001 104.993C123.731 105.011 120.726 104.638 120.122 104.267C119.517 103.897 119.387 102.27 119.387 102.27Z" fill="#A8A8A8"/>
<path opacity="0.2" d="M126.04 104.751C123.77 104.77 120.764 104.396 120.16 104.026C119.7 103.744 119.516 102.734 119.455 102.267H119.387C119.387 102.267 119.518 103.896 120.12 104.265C120.723 104.634 123.73 105.009 126 104.99C126.654 104.99 126.881 104.751 126.869 104.404C126.776 104.616 126.527 104.747 126.04 104.751Z" fill="black"/>
<defs>
<linearGradient id="paint0_linear_1304_24835" x1="60.2122" y1="111.8" x2="60.2122" y2="21.7449" gradientUnits="userSpaceOnUse">
<stop stop-color="#808080" stop-opacity="0.25"/>
<stop offset="0.54" stop-color="#808080" stop-opacity="0.12"/>
<stop offset="1" stop-color="#808080" stop-opacity="0.1"/>
</linearGradient>
</defs>
</svg>
