<svg width="159" height="124" viewBox="0 0 159 124" fill="none" xmlns="http://www.w3.org/2000/svg">
<path opacity="0.1" d="M145.04 36.9372C143.707 33.8346 141.906 30.9563 139.7 28.4033L65.6061 27.6712L126.61 19.0782C122.669 17.5042 118.474 16.6694 114.232 16.6151C108.396 11.9371 101.211 9.2733 93.7444 9.01991C86.278 8.76653 78.9294 10.9371 72.7918 15.2088C67.8869 12.68 62.4495 11.3658 56.9344 11.3762C40.4715 11.3762 26.7529 22.8109 23.6758 37.9755L145.04 36.9372Z" fill="#F9A826"/>
<path opacity="0.1" d="M147.645 49.6546C147.649 45.5425 146.865 41.4679 145.336 37.6522L16.9224 51.17C15.5982 53.572 14.5853 56.1338 13.9082 58.7931L53.6736 64.7391L13 69.0764C14.224 86.2428 28.898 99.7987 46.8234 99.7987C55.8464 99.7987 64.0464 96.3631 70.1207 90.7614C76.216 96.4696 84.4933 99.9788 93.6133 99.9788C107.146 99.9788 118.825 92.2519 124.264 81.0788C135.177 77.6064 143.653 68.8845 146.555 57.9743L96.2723 50.1462H147.645C147.642 49.9819 147.645 49.8189 147.645 49.6546Z" fill="#F9A826"/>
<path d="M50.5771 114C67.007 114 80.3261 111.81 80.3261 109.109C80.3261 106.408 67.007 104.219 50.5771 104.219C34.1472 104.219 20.8281 106.408 20.8281 109.109C20.8281 111.81 34.1472 114 50.5771 114Z" fill="#F9A826"/>
<path d="M81.3439 77.605C80.0059 77.9415 78.6324 77.287 78.6324 77.287C78.6324 77.287 77.4608 75.9267 76.4727 75.7426C75.4845 75.5586 75.1019 77.1687 74.5148 77.5827C74.1085 77.8732 71.1782 77.6655 69.4037 77.5104L69.0983 77.4828C69.0682 77.4605 69.0381 77.4368 69.0053 77.4158C69.0053 77.4158 67.3016 76.8901 66.9465 76.4248C66.5913 75.9595 64.2179 75.0986 63.4814 75.1486C62.7449 75.1985 60.5681 75.3168 60.5681 75.3168C60.5681 75.3168 59.715 74.3429 59.3297 74.4441C58.9444 74.5453 57.605 74.4362 57.605 74.4362C57.605 74.4362 57.2367 73.4873 56.8685 72.1269C56.6968 71.4921 56.1254 71.0466 55.5658 70.7535C56.0691 69.0448 55.1727 64.1713 52.3891 63.2184C51.7823 63.0108 51.4717 62.3208 50.9554 61.9422C50.4928 61.6045 49.7353 60.808 50.1062 59.3688C50.6304 57.3539 51.9304 54.1812 51.9304 54.1812L52.8989 52.2412C52.8086 52.3787 52.7059 52.5075 52.5922 52.6263C52.7233 52.4581 52.8543 52.2925 52.967 52.1532C53.9335 52.6427 54.9877 52.934 56.0678 53.0101C57.1607 53.453 58.2524 53.8434 58.677 53.8289C59.6481 53.7947 62.125 55.0381 62.125 55.0381C62.125 55.0381 68.084 56.7467 69.3224 56.8847C70.5609 57.0227 71.1637 55.4074 71.1637 55.4074C71.1637 55.4074 71.8072 52.2228 70.6644 51.379C69.5216 50.5352 68.8572 54.402 68.8572 54.402L61.0609 51.5841L60.5799 51.3304C60.9534 50.9341 61.2498 50.4714 61.454 49.9661C61.5746 49.6651 61.6847 49.3208 61.9717 49.171C62.0489 49.1325 62.1323 49.108 62.2181 49.0987C62.2892 49.0941 62.3606 49.0941 62.4317 49.0987C63.7841 49.1815 64.9466 50.2487 66.3017 50.254C66.3515 50.254 66.4013 50.254 66.4511 50.254C66.7094 50.2532 66.9617 50.1754 67.1758 50.0305C67.2967 49.9318 67.3961 49.8093 67.4678 49.6704C67.5394 49.5316 67.5819 49.3795 67.5925 49.2235C67.5728 49.2658 67.5509 49.307 67.527 49.3471C67.5624 49.1537 67.5624 48.9555 67.527 48.7622C67.4431 48.3009 67.2033 47.8869 66.9884 47.4702C66.9276 47.373 66.8933 47.2615 66.8888 47.1469C66.8949 47.087 66.913 47.0291 66.9421 46.9764C66.9711 46.9238 67.0105 46.8776 67.0579 46.8407C67.0598 46.853 67.0625 46.8653 67.0657 46.8775C67.1679 46.7811 67.2814 46.6977 67.4038 46.629C67.7351 46.4112 68.0181 46.1274 68.2354 45.7953C68.4528 45.4631 68.5997 45.0898 68.6672 44.6983C68.6344 44.7956 68.5951 44.8915 68.5532 44.9861C68.7547 44.3189 68.7058 43.6008 68.4156 42.9673C68.3404 42.7871 68.2204 42.6291 68.067 42.5086C67.5781 42.1643 66.9216 42.531 66.3253 42.5704C65.8011 42.6046 65.2926 42.3693 64.8195 42.1314C64.0122 41.7253 63.2088 41.2863 62.5365 40.6857C61.7725 39.9983 61.205 39.1216 60.5157 38.3606C59.8264 37.5996 58.9417 36.9215 57.9156 36.8452C56.0507 36.7006 54.292 38.5538 52.5188 37.9493C51.6539 37.6562 51.0851 36.8544 50.4836 36.1657C49.8821 35.477 49.0551 34.8159 48.1535 34.9644C47.527 35.0696 46.9845 35.5572 46.3502 35.5388C46.0186 35.5283 45.7106 35.3797 45.3961 35.2759C44.6347 35.0196 43.5915 35.1445 43.3202 35.9042C43.2669 36.0589 43.2481 36.2235 43.2651 36.3863C43.2821 36.5491 43.3345 36.7062 43.4185 36.8465C43.3784 36.903 43.3425 36.9623 43.3111 37.024C43.2459 37.1444 43.2233 37.2833 43.2469 37.4183C42.7079 37.9034 42.3085 38.5247 42.0904 39.2173C41.8722 39.9099 41.8433 40.6486 42.0066 41.3562C42.1699 42.0638 42.5194 42.7146 43.0187 43.2407C43.5181 43.7668 44.149 44.149 44.8457 44.3474C44.8706 44.4433 44.8955 44.5393 44.9191 44.6365C45.1733 45.7103 45.3057 46.9195 44.9296 47.7344C44.906 47.7843 44.8811 47.833 44.8536 47.8803L44.8208 47.8947L44.7736 47.8461L44.4879 47.5464C44.4722 47.2336 44.2966 46.3951 43.0752 44.8389C41.4672 42.7899 41.1657 39.399 41.1657 39.399C41.1657 39.399 40.7647 37.6535 41.1657 37.1501C41.5668 36.6468 42.2377 31.1042 42.2377 31.1042L43.3465 27.984C43.3465 27.984 48.7367 22.477 46.4917 21.8067C44.9676 21.3506 43.1499 23.7007 42.1408 25.2542C41.6451 26.017 41.3246 26.8807 41.2024 27.783L38.1554 36.1434C38.1554 36.1434 37.854 37.1515 38.1554 38.8969C38.4569 40.6423 39.1266 43.7323 39.1266 43.7323L40.8302 48.063C40.8302 48.063 41.458 49.9333 41.4029 50.7455C41.3282 50.7941 41.0661 51.3146 40.8394 51.7878L40.673 52.0506L40.6612 52.1571C40.5498 52.395 40.4725 52.5659 40.4725 52.5659C40.4725 52.5659 39.5236 55.3746 40.3165 57.0976C41.1094 58.8207 41.1408 59.6198 41.1408 59.6198L41.7319 62.1722L41.9783 64.4066L44.1039 69.6784L46.0619 72.4818C46.0619 72.4818 45.8784 74.5466 45.4761 74.8318C45.0737 75.117 45.2585 76.5943 45.2585 76.5943L45.0069 80.4716C45.0069 80.4716 44.2206 81.6308 44.1708 83.5103C44.121 85.3898 43.8353 85.9287 43.8353 85.9287C43.8353 85.9287 43.7042 87.5059 44.0699 88.2287C44.4355 88.9516 43.4841 89.706 43.4841 89.706L44.3005 92.5174L43.9821 96.0766C43.9821 96.0766 44.1301 96.1173 44.3752 96.1791L44.3254 96.4341L42.9939 103.177C42.9939 103.177 42.2744 105.024 42.2417 105.46L39.9142 109.675C39.9142 109.675 37.972 111.605 38.8933 111.789C39.8146 111.973 42.4933 110.312 42.4933 110.312C42.4933 110.312 44.7029 107.928 45.573 107.711C46.4432 107.494 47.4078 106.87 47.13 105.964C46.8521 105.059 46.2126 103.681 46.8285 102.22C47.2217 101.3 48.0578 98.8025 48.6318 97.0597C48.6633 96.9637 48.6934 96.8717 48.7236 96.7823C48.8754 96.7687 49.0255 96.74 49.1718 96.6969C50.578 96.2606 51.3145 96.5655 51.3145 96.5655L53.8254 86.3755L54.3772 81.2628L57.8933 84.2043C58.589 84.7862 59.4527 85.1285 60.3571 85.1808C61.7423 85.2623 63.9034 85.4634 65.4682 85.9484L66.1234 83.212C66.1234 83.212 67.9975 83.2803 68.3998 82.6415C68.5636 82.3787 68.7248 82.1552 68.8572 81.9844L69.1612 81.9371L77.4556 80.6503C78.9955 80.6503 81.1054 79.6081 81.1054 79.6081L82.395 79.357C82.395 79.357 84.3188 78.9706 84.4918 78.6512C84.6648 78.3319 82.6846 77.2712 81.3439 77.605Z" fill="url(#paint0_linear_1304_23785)"/>
<path d="M43.7076 36.5626C43.9697 35.8214 44.9945 35.6965 45.7402 35.9475C46.0469 36.05 46.3496 36.1959 46.6733 36.2104C47.2945 36.2288 47.8253 35.7504 48.4386 35.6492C49.3206 35.502 50.1292 36.1486 50.7176 36.8229C51.306 37.4971 51.8643 38.2818 52.7109 38.5696C54.4448 39.1558 56.1668 37.3473 57.9911 37.4879C58.9923 37.5655 59.8572 38.2266 60.5322 38.9718C61.2071 39.717 61.7628 40.574 62.5098 41.2469C63.165 41.8383 63.9513 42.2681 64.7442 42.6664C65.2068 42.899 65.7009 43.129 66.2172 43.0948C66.8017 43.0567 67.4439 42.7005 67.9209 43.0344C68.0711 43.1524 68.1884 43.3072 68.2617 43.4839C68.8488 44.7088 68.3757 46.3399 67.2264 47.0601C67.0258 47.185 66.7821 47.323 66.7703 47.5635C66.774 47.6759 66.8075 47.7852 66.8673 47.8803C67.077 48.2877 67.3128 48.6938 67.3915 49.1447C67.4701 49.5955 67.364 50.1146 66.9983 50.388C66.7596 50.5473 66.4761 50.6252 66.1897 50.6101C64.8635 50.6036 63.7259 49.5587 62.4023 49.4785C62.2329 49.4591 62.0614 49.4854 61.9056 49.5547C61.6252 49.7006 61.5124 50.0384 61.3984 50.3328C60.7851 51.8693 59.2623 52.9378 57.6372 53.2309C56.0122 53.524 54.315 53.1113 52.8603 52.328C52.754 52.2769 52.6563 52.2095 52.5707 52.1282C52.4493 51.9803 52.3636 51.8062 52.3204 51.6195C51.8748 50.2066 51.272 48.728 50.0375 47.9118C49.2367 47.3861 48.1503 47.0904 47.7873 46.2032C47.5592 45.642 47.7021 45.0045 47.6444 44.3999C47.5877 43.8816 47.3862 43.3898 47.0633 42.9811C46.7404 42.5724 46.3091 42.2633 45.8189 42.0894C45.6039 42.0171 45.368 41.9658 45.2108 41.8015C45.0831 41.6402 45.0016 41.4471 44.9749 41.2429C44.7796 40.3531 44.6499 39.4134 44.3773 38.5446C44.1689 37.8638 43.4285 37.342 43.7076 36.5626Z" fill="#663D5B"/>
<g opacity="0.1">
<path d="M67.1508 49.9793C66.9113 50.1364 66.6279 50.2124 66.3422 50.1962C65.0173 50.1962 63.8797 49.1447 62.5561 49.0659C62.3868 49.046 62.2153 49.0718 62.0594 49.1408C61.7776 49.2867 61.6662 49.6245 61.5522 49.9189C60.9389 51.4566 59.4147 52.5252 57.7897 52.8183C56.1646 53.1114 54.4675 52.6987 53.0141 51.9153C52.9079 51.8642 52.8101 51.7968 52.7245 51.7155C52.6033 51.5675 52.5177 51.3934 52.4742 51.2069C52.0286 49.7927 51.4258 48.3154 50.1912 47.4979C49.3892 46.9656 48.3028 46.6777 47.9411 45.7893C47.7117 45.2267 47.8546 44.5893 47.7982 43.986C47.7416 43.4674 47.5401 42.9753 47.2169 42.5666C46.8937 42.1578 46.4619 41.8489 45.9713 41.6754C45.7564 41.6031 45.5205 41.5506 45.3633 41.3876C45.2354 41.226 45.1543 41.0323 45.1287 40.8277C44.9321 39.9392 44.8037 38.9981 44.5311 38.1307C44.3476 37.5498 43.7697 37.0792 43.7985 36.4589C43.7815 36.4916 43.7666 36.5254 43.7539 36.5601C43.4735 37.3395 44.2152 37.8612 44.4262 38.5316C44.6988 39.399 44.8272 40.3401 45.0238 41.2285C45.0494 41.4332 45.1306 41.6269 45.2584 41.7884C45.4157 41.9514 45.6516 42.004 45.8665 42.0763C46.3573 42.2498 46.7892 42.5589 47.1124 42.968C47.4356 43.377 47.637 43.8693 47.6934 44.3882C47.7497 44.9915 47.6069 45.6289 47.8362 46.1914C48.1979 47.0839 49.2844 47.3743 50.0864 47.9001C51.3183 48.7189 51.9211 50.1949 52.3693 51.6091C52.4128 51.7956 52.4984 51.9697 52.6197 52.1177C52.7053 52.1989 52.803 52.2663 52.9093 52.3175C54.3627 53.1061 56.0545 53.5122 57.6848 53.2204C59.3151 52.9287 60.8301 51.8588 61.4474 50.321C61.5653 50.0266 61.6741 49.6889 61.9545 49.543C62.1105 49.474 62.282 49.4481 62.4512 49.468C63.7749 49.5482 64.9124 50.5931 66.2374 50.5984C66.5235 50.6134 66.8069 50.536 67.046 50.3776C67.1644 50.2813 67.2618 50.1616 67.3322 50.0259C67.4025 49.8902 67.4443 49.7415 67.4548 49.589C67.3886 49.7431 67.2839 49.8776 67.1508 49.9793Z" fill="black"/>
<path d="M67.3794 46.6475C67.1789 46.7789 66.9338 46.9104 66.922 47.1509C66.9208 47.1992 66.9284 47.2473 66.9443 47.2928C67.0439 47.1983 67.1548 47.1167 67.2745 47.0497C67.5987 46.8368 67.8757 46.5592 68.0883 46.2343C68.3009 45.9093 68.4446 45.544 68.5104 45.161C68.3166 45.773 67.9168 46.2985 67.3794 46.6475Z" fill="black"/>
</g>
<path d="M47.1365 101.455C46.5298 102.885 47.1536 104.231 47.4314 105.119C47.7093 106.008 46.7604 106.614 45.9086 106.828C45.0567 107.042 42.8944 109.374 42.8944 109.374C42.8944 109.374 40.2733 110.999 39.3717 110.819C38.47 110.639 40.3703 108.749 40.3703 108.749L42.648 104.625C42.6808 104.199 43.3845 102.391 43.3845 102.391L44.6872 95.7927L44.8602 94.9161L49.4785 94.6361C49.4785 94.6361 49.236 95.3879 48.9018 96.4039C48.3396 98.1125 47.5166 100.562 47.1365 101.455Z" fill="#CC818C"/>
<path d="M83.9959 78.3923C83.8321 78.7051 81.9489 79.0823 81.9489 79.0823L80.6868 79.3281C80.6868 79.3281 78.6228 80.348 77.1156 80.348L68.9982 81.6084L67.9092 81.778V77.1594C67.9092 77.1594 68.457 77.2173 69.2328 77.2909C70.9666 77.4433 73.8354 77.6457 74.2325 77.3618C74.8065 76.9518 75.1826 75.3746 76.1485 75.556C77.1143 75.7373 78.2624 77.0674 78.2624 77.0674C78.2624 77.0674 79.6056 77.7075 80.9162 77.3789C82.2267 77.0503 84.1597 78.0795 83.9959 78.3923Z" fill="#CC818C"/>
<path opacity="0.1" d="M69.2852 81.251C69.2852 81.251 69.1686 81.3825 68.9982 81.6072L67.9092 81.7768V77.1595C67.9092 77.1595 68.457 77.2174 69.2328 77.291C70.5355 78.3227 69.2852 81.251 69.2852 81.251Z" fill="black"/>
<path d="M53.6084 80.1838L57.9685 83.8324C58.6495 84.4017 59.4948 84.7366 60.3799 84.7879C61.735 84.8681 63.8502 85.0639 65.3861 85.5397L66.0257 82.8611C66.0257 82.8611 67.8604 82.9268 68.2536 82.3025C68.4845 81.9339 68.7416 81.5825 69.0228 81.251C69.0228 81.251 70.3504 78.1466 68.8433 77.1937C68.8433 77.1937 67.1724 76.6838 66.8277 76.2237C66.483 75.7637 64.1582 74.9265 63.4374 74.9751C62.7166 75.0238 60.587 75.1394 60.587 75.1394C60.587 75.1394 59.7508 74.1865 59.3747 74.2851C58.9986 74.3837 57.6868 74.2851 57.6868 74.2851C57.6868 74.2851 57.3264 73.3559 56.966 72.0245C56.6056 70.6931 54.4602 70.2173 54.4602 70.2173L53.6084 80.1838Z" fill="#565987"/>
<path opacity="0.1" d="M53.6084 80.1838L57.9685 83.8324C58.6495 84.4017 59.4948 84.7366 60.3799 84.7879C61.735 84.8681 63.8502 85.0639 65.3861 85.5397L66.0257 82.8611C66.0257 82.8611 67.8604 82.9268 68.2536 82.3025C68.4845 81.9339 68.7416 81.5825 69.0228 81.251C69.0228 81.251 70.3504 78.1466 68.8433 77.1937C68.8433 77.1937 67.1724 76.6838 66.8277 76.2237C66.483 75.7637 64.1582 74.9265 63.4374 74.9751C62.7166 75.0238 60.587 75.1394 60.587 75.1394C60.587 75.1394 59.7508 74.1865 59.3747 74.2851C58.9986 74.3837 57.6868 74.2851 57.6868 74.2851C57.6868 74.2851 57.3264 73.3559 56.966 72.0245C56.6056 70.6931 54.4602 70.2173 54.4602 70.2173L53.6084 80.1838Z" fill="black"/>
<path d="M51.658 47.4728L51.1757 47.5635H51.1455L51.0748 47.5766L50.2491 47.7304L49.9949 48.0327L49.9844 48.0432L49.168 49.0132L48.4799 49.6901L48.4734 49.698L47.8915 50.2657L46.9073 51.2475L46.7422 51.6563L46.3831 52.5619L46.29 52.7919L45.3071 53.8433L44.6794 55.1905L43.2116 56.0448L41.6324 55.2234L40.9116 54.1719L41.0754 52.6657L41.1082 52.3647L41.5892 51.5906L42.0256 50.8861L42.8774 49.6704L44.5156 48.5532L44.8091 48.4756L45.1381 48.3889C45.1632 48.3529 45.1864 48.3156 45.2075 48.2772C45.2353 48.231 45.2602 48.1831 45.2822 48.1339C45.6505 47.3374 45.5207 46.1532 45.2717 45.1031C45.0809 44.3175 44.828 43.5484 44.5156 42.803L48.8403 42.1787C48.8403 42.1787 48.7984 43.0199 48.7984 44.3316C48.7984 44.6602 48.7984 45.0163 48.8076 45.3975C48.8285 46.5804 49.9241 47.093 50.7511 47.3111C50.964 47.3681 51.1802 47.4119 51.3985 47.4426C51.5584 47.4676 51.658 47.4728 51.658 47.4728Z" fill="#CC818C"/>
<path d="M44.8428 48.0933C44.8428 48.0933 45.0394 47.3047 43.4668 45.3003C41.8941 43.296 41.5993 39.9773 41.5993 39.9773C41.5993 39.9773 41.2061 38.2687 41.5993 37.7758C41.9924 37.283 42.6477 31.8614 42.6477 31.8614L43.7289 28.8056C43.7289 28.8056 49.0038 23.4168 46.8086 22.7597C45.3172 22.3128 43.5323 24.6142 42.5507 26.1336C42.0659 26.8802 41.7525 27.7255 41.6333 28.6084L38.6506 36.7901C38.6506 36.7901 38.3557 37.7758 38.6506 39.4845C38.9455 41.1931 39.6007 44.216 39.6007 44.216L41.2716 48.4587C41.2716 48.4587 42.151 51.1005 41.6949 51.4225L42.7132 49.9123L44.8428 48.0933Z" fill="#CC818C"/>
<path d="M70.9565 55.6545C70.9565 55.6545 70.3667 57.2317 69.1545 57.1003C67.9423 56.9689 62.1104 55.2931 62.1104 55.2931C62.1104 55.2931 59.6859 54.0773 58.7358 54.1102C57.7857 54.1431 53.4282 52.1059 53.4282 52.1059C53.4282 52.1059 53.1215 52.5107 52.7794 52.9365C52.4073 53.4031 51.9931 53.896 51.8883 53.913C51.6917 53.9459 48.6447 54.3731 48.6447 54.3731L46.5806 53.4202L46.3841 52.5619L46.291 52.1676L46.7484 51.6563L47.3499 50.9847L48.4783 49.6941L48.4848 49.6862L49.9906 48.0446L50.0011 48.0341L50.9657 47.6398L51.1518 47.5635H51.1819C51.2972 47.5438 51.7402 47.5031 52.3339 47.8396C52.7473 48.0743 53.2064 48.2169 53.6798 48.2575C54.622 48.3249 55.5143 48.7082 56.213 49.3458L61.062 51.9048L68.6958 54.6648C68.6958 54.6648 69.3511 50.8862 70.465 51.7076C71.579 52.5291 70.9565 55.6545 70.9565 55.6545Z" fill="#CC818C"/>
<path opacity="0.1" d="M52.7785 52.9366C52.4063 53.4031 51.9921 53.896 51.8873 53.9131C51.6907 53.946 48.6437 54.3731 48.6437 54.3731L46.5797 53.4202L46.3831 52.562L46.29 52.792L45.3071 53.8434L44.6794 55.1906L43.2116 56.0449L41.6324 55.2235L40.9116 54.172L41.0754 52.6658C41.158 52.4871 41.3834 52.0008 41.5892 51.5907C41.6864 51.3648 41.8086 51.1505 41.9535 50.9519C42.0845 50.8652 42.2221 49.9333 42.2221 49.9333C42.8171 48.2129 44.8104 47.9487 44.8104 47.9487L45.1289 48.2484L45.2678 48.3929C45.2115 48.3837 45.2783 48.2615 45.2062 48.2812C45.0909 48.3141 45.0398 48.4889 44.8917 48.5848C44.0857 49.1106 42.8263 50.3368 42.3283 50.9191C42.2077 51.0597 42.0832 51.1977 41.9561 51.3318C41.2366 52.0954 41.369 53.1074 41.369 53.1074C41.1895 53.896 42.7778 54.4875 42.7778 54.4875C43.2208 53.7488 46.218 51.7116 46.218 51.7116L48.2362 49.4444C48.8547 48.364 50.0709 47.6503 50.7498 47.3165C51.0499 47.1693 51.2464 47.0957 51.2464 47.0957L52.0013 47.419C51.802 47.3655 51.5911 47.3747 51.3972 47.4453C51.2858 47.4799 51.1775 47.5238 51.0735 47.5767C51.0341 47.5965 50.9948 47.6175 50.9581 47.6398C50.7517 47.76 50.5577 47.9005 50.3789 48.0591L48.6831 49.9162C47.3869 51.3344 48.3633 53.6279 50.2806 53.6608H50.2976C51.4692 53.9315 52.3093 53.3874 52.7785 52.9366Z" fill="black"/>
<path opacity="0.1" d="M49.4778 94.64C49.4778 94.64 49.2354 95.3918 48.9012 96.4078C47.6195 96.5037 45.503 96.0069 44.6865 95.7966L44.8595 94.92L49.4778 94.64Z" fill="black"/>
<path d="M45.2691 48.3928L44.8497 47.9617C44.8497 47.9617 43.336 48.1694 42.3964 49.7913C42.3964 49.7913 41.9574 51.007 41.8224 51.0938C41.6874 51.1805 40.9116 52.88 40.9116 52.88C40.9116 52.88 39.9837 55.6282 40.7582 57.3158C41.5328 59.0034 41.5668 59.7802 41.5668 59.7802L42.1461 62.2774L42.3859 64.467L44.467 69.6258L46.383 72.3635C46.383 72.3635 46.2035 74.3836 45.8103 74.6636C45.4172 74.9435 45.5967 76.388 45.5967 76.388L45.3516 80.1837C45.3516 80.1837 44.5811 81.3167 44.5326 83.1567C44.4841 84.9968 44.2049 85.5225 44.2049 85.5225C44.2049 85.5225 44.0739 87.0668 44.4343 87.7739C44.7947 88.481 43.8603 89.2197 43.8603 89.2197L44.6636 91.9627L44.3517 95.4457C44.3517 95.4457 48.054 96.4813 49.43 96.0542C50.8061 95.627 51.5269 95.9228 51.5269 95.9228L53.9841 85.9457L54.8359 78.1097C54.8359 78.1097 54.8857 72.5567 55.6223 70.8638C56.2539 69.4181 55.4257 64.2673 52.5805 63.2947C51.9868 63.0922 51.6854 62.4167 51.1783 62.046C50.7248 61.7162 49.9844 60.9368 50.3474 59.5278C50.8559 57.5563 52.1336 54.4519 52.1336 54.4519L53.0798 52.5619C53.0798 52.5619 52.0511 54.2311 50.1678 53.8039H50.1508C48.2335 53.7697 47.2571 51.4763 48.5533 50.0594L50.2491 48.201C50.2491 48.201 51.1835 47.3374 51.8715 47.5556L51.118 47.2323C51.118 47.2323 48.9962 48.0209 48.1038 49.581L46.0855 51.8482C46.0855 51.8482 43.091 53.8762 42.648 54.6201C42.648 54.6201 41.0597 54.0287 41.2392 53.2401C41.2392 53.2401 41.1082 52.2267 41.8263 51.4631C41.9574 51.3317 42.0779 51.1924 42.1985 51.0517C42.8446 50.2947 44.6308 48.2864 45.2691 48.3928Z" fill="#565987"/>
<path opacity="0.1" d="M45.5154 61.9304C45.5154 61.9304 45.0397 65.3976 45.4001 66.1034L45.5154 61.9304Z" fill="black"/>
<path opacity="0.1" d="M45.8262 63.2776L46.3347 65.2662C46.3347 65.2662 46.5142 64.0504 45.8262 63.2776Z" fill="black"/>
<path opacity="0.1" d="M42.8115 62.8136C42.8115 62.8136 43.8272 67.8737 44.9411 69.4023L42.8115 62.8136Z" fill="black"/>
<path opacity="0.1" d="M49.9708 68.9135C49.9708 68.9135 48.2343 70.5564 47.562 70.4368C47.562 70.4368 50.2329 70.5524 51.0677 69.1395C51.0677 69.1435 50.5277 68.7492 49.9708 68.9135Z" fill="black"/>
<path opacity="0.1" d="M52.379 68.782C52.379 68.782 50.1511 70.4078 49.7095 70.5563C49.7095 70.5563 52.1169 69.8663 52.379 68.782Z" fill="black"/>
<path opacity="0.1" d="M44.8428 56.7059C44.8428 56.7059 43.7288 58.1359 43.1719 57.9716C43.1719 57.9716 44.5322 58.0203 44.8428 56.7059Z" fill="black"/>
<path opacity="0.1" d="M46.106 58.546C46.106 58.546 48.5304 55.2445 49.6771 55.3759C49.6771 55.3759 46.925 57.7745 46.106 58.546Z" fill="black"/>
<path opacity="0.1" d="M49.4635 57.3447C49.4635 57.3447 47.9236 58.1189 48.0874 58.3449C48.2512 58.571 49.4635 57.3447 49.4635 57.3447Z" fill="black"/>
<path opacity="0.1" d="M50.5767 82.6968C50.5767 82.6968 45.4329 85.704 44.9585 85.8512C44.9585 85.8512 45.8431 86.5254 46.6779 86.1968C47.5127 85.8682 50.5767 82.6968 50.5767 82.6968Z" fill="black"/>
<path opacity="0.1" d="M46.2693 88.9569C46.2693 88.9569 44.2053 88.7427 44.2865 89.4169C44.3678 90.0912 46.2693 88.9569 46.2693 88.9569Z" fill="black"/>
<path opacity="0.1" d="M48.8409 42.1787C48.8409 42.1787 48.7989 43.0199 48.7989 44.3316C48.3137 44.7304 47.741 45.0082 47.128 45.142C46.5149 45.2759 45.879 45.2621 45.2723 45.1018C45.0814 44.3162 44.8286 43.5471 44.5161 42.8017L48.8409 42.1787Z" fill="black"/>
<path d="M46.2852 44.9769C48.4746 44.9769 50.2495 43.1969 50.2495 41.0011C50.2495 38.8053 48.4746 37.0253 46.2852 37.0253C44.0957 37.0253 42.3208 38.8053 42.3208 41.0011C42.3208 43.1969 44.0957 44.9769 46.2852 44.9769Z" fill="#CC818C"/>
<path opacity="0.1" d="M47.3234 43.4273C47.4348 45.0532 47.7756 46.9129 49.1831 47.7304C50.2001 48.3206 51.4818 48.1655 52.6075 47.829C53.7332 47.4925 54.8354 46.9905 56.007 46.934C56.9073 46.8906 57.7972 47.1127 58.6949 47.1692C59.5926 47.2257 60.5755 47.0851 61.2164 46.4516C62.1337 45.55 61.966 43.911 61.0971 42.9634C60.2282 42.0158 58.8692 41.6714 57.5823 41.7069C56.0096 41.7503 54.2535 42.2326 53.0098 41.2758C52.175 40.6318 51.8592 39.5146 51.1567 38.7273C49.9838 37.413 44.7967 35.5151 43.6985 37.6575C43.1835 38.6603 45.5241 39.3766 46.0667 40.1021C46.9237 41.2469 47.2212 41.9264 47.3234 43.4273Z" fill="black"/>
<path d="M47.446 43.2867C47.5587 44.9138 47.8981 46.7736 49.3056 47.5898C50.3226 48.1799 51.6043 48.0248 52.7301 47.6897C53.8558 47.3545 54.958 46.8512 56.1309 46.7946C57.0299 46.7513 57.9198 46.9721 58.8188 47.0299C59.7178 47.0877 60.6981 46.9458 61.3389 46.3123C62.2563 45.4093 62.0885 43.7717 61.2197 42.8241C60.3508 41.8764 58.9918 41.5321 57.7061 41.5676C56.1335 41.6096 54.3761 42.0933 53.1324 41.1352C52.2976 40.4911 51.9817 39.3753 51.2793 38.5867C50.1064 37.2724 44.9193 35.3758 43.8211 37.5181C43.306 38.5197 45.6466 39.236 46.1905 39.9628C47.0463 41.1062 47.3438 41.7844 47.446 43.2867Z" fill="#663D5B"/>
<path opacity="0.1" d="M42.6782 54.4861C42.739 53.9674 42.9095 53.4676 43.1782 53.0202C43.4469 52.5728 43.8077 52.1881 44.2364 51.8916" fill="black"/>
<path opacity="0.1" d="M57.5417 75.0737C57.5295 75.2025 57.4982 75.3288 57.4486 75.4483C57.2769 75.9643 57.0702 76.468 56.8301 76.9558C57.18 76.9256 57.4683 76.6496 57.6164 76.3315C57.7458 76.0043 57.8172 75.6569 57.8274 75.305C57.8403 75.1951 57.8433 75.0843 57.8366 74.9738C57.8274 74.8713 57.7619 74.4796 57.5928 74.5493C57.4565 74.6071 57.5443 74.9699 57.5417 75.0737Z" fill="black"/>
<path opacity="0.1" d="M61.5748 45.9009C60.9327 46.5344 59.9524 46.6764 59.0534 46.6185C58.1543 46.5607 57.2606 46.3399 56.3655 46.3846C55.186 46.4411 54.093 46.9432 52.966 47.2796C51.8389 47.6161 50.5585 47.7712 49.5402 47.1811C48.134 46.3636 47.7933 44.5038 47.6819 42.878C47.5797 41.377 47.2809 40.6975 46.4251 39.5527C45.9074 38.8601 43.7582 38.1766 44.0046 37.2461C43.9333 37.33 43.8718 37.4217 43.8211 37.5195C43.306 38.521 45.6466 39.2373 46.1905 39.9641C47.0463 41.1076 47.3438 41.7884 47.446 43.288C47.5587 44.9152 47.8981 46.7749 49.3056 47.5911C50.3226 48.1813 51.6043 48.0262 52.7301 47.691C53.8558 47.3559 54.958 46.8525 56.1309 46.796C57.0299 46.7526 57.9198 46.9734 58.8188 47.0312C59.7178 47.0891 60.6981 46.9471 61.3389 46.3136C61.5209 46.1325 61.6657 45.9172 61.7648 45.6801C61.7073 45.7585 61.6437 45.8323 61.5748 45.9009Z" fill="black"/>
<path d="M42.3936 57.8521L41.9126 58.9035L43.442 58.5973L42.3936 57.8521Z" fill="#CC818C"/>
<path opacity="0.1" d="M42.3936 57.8521L41.9978 58.9035H41.9126L42.3936 57.8521Z" fill="black"/>
<path opacity="0.1" d="M80.2389 105.576C83.2064 105.576 85.6121 105.245 85.6121 104.837C85.6121 104.428 83.2064 104.097 80.2389 104.097C77.2714 104.097 74.8657 104.428 74.8657 104.837C74.8657 105.245 77.2714 105.576 80.2389 105.576Z" fill="#F9A826"/>
<path opacity="0.1" d="M100.821 107.669C103.788 107.669 106.194 107.338 106.194 106.929C106.194 106.52 103.788 106.189 100.821 106.189C97.8534 106.189 95.4478 106.52 95.4478 106.929C95.4478 107.338 97.8534 107.669 100.821 107.669Z" fill="#F9A826"/>
<path opacity="0.1" d="M125.065 104.837C128.032 104.837 130.438 104.505 130.438 104.097C130.438 103.688 128.032 103.357 125.065 103.357C122.097 103.357 119.691 103.688 119.691 104.097C119.691 104.505 122.097 104.837 125.065 104.837Z" fill="#F9A826"/>
<path opacity="0.1" d="M92.583 113.414C94.6922 113.414 96.4019 113.178 96.4019 112.888C96.4019 112.598 94.6922 112.362 92.583 112.362C90.4739 112.362 88.7642 112.598 88.7642 112.888C88.7642 113.178 90.4739 113.414 92.583 113.414Z" fill="#F9A826"/>
<path opacity="0.1" d="M113.944 112.888C116.053 112.888 117.763 112.653 117.763 112.362C117.763 112.072 116.053 111.837 113.944 111.837C111.835 111.837 110.125 112.072 110.125 112.362C110.125 112.653 111.835 112.888 113.944 112.888Z" fill="#F9A826"/>
<path d="M100.937 106.763C100.937 106.763 93.4018 81.9884 102.117 72.0652C108.635 64.6419 116.036 65.5304 119.35 66.4478C120.208 66.6768 121.006 67.0902 121.688 67.6591C122.371 68.2281 122.922 68.9391 123.303 69.7428C124.461 72.2505 124.253 76.3144 116.074 81.0683C102.379 89.02 101.527 99.9289 101.527 99.9289L100.937 106.763Z" fill="#F9A826"/>
<path d="M118.172 69.9623C118.172 69.9623 95.9581 76.9282 100.938 106.763" stroke="#565987" stroke-width="0.849016" stroke-miterlimit="10"/>
<path d="M105.196 72.4595C105.196 72.4595 108.254 74.5269 107.283 77.6327" stroke="#565987" stroke-width="0.849016" stroke-miterlimit="10"/>
<path d="M115.943 74.2995C115.943 74.2995 114.073 72.3911 111.797 73.4439" stroke="#565987" stroke-width="0.849016" stroke-miterlimit="10"/>
<path d="M107.163 83.8942C107.163 83.8942 103.879 82.2223 103.029 84.3161" stroke="#565987" stroke-width="0.849016" stroke-miterlimit="10"/>
<path d="M99.0381 87.3771C99.0381 87.3771 101.503 87.1799 101.548 88.3628" stroke="#565987" stroke-width="0.849016" stroke-miterlimit="10"/>
<path d="M100.639 106.96C100.639 106.96 109.464 88.9542 111.889 89.3485C113.041 89.5352 113.571 90.6721 113.811 91.8129C114.107 93.2897 113.937 94.8224 113.324 96.1975C112.072 99.0772 108.708 104.549 100.639 106.96Z" fill="#F9A826"/>
<path d="M111.817 92.7657C111.817 92.7657 102.554 106.238 100.764 106.829" stroke="#565987" stroke-width="0.849016" stroke-miterlimit="10"/>
<path d="M112.669 94.8688H110.506" stroke="#565987" stroke-width="0.849016" stroke-miterlimit="10"/>
<path d="M110.079 99.7974L106.69 99.9433" stroke="#565987" stroke-width="0.849016" stroke-miterlimit="10"/>
<path d="M108.016 95.8545L108.384 97.6249" stroke="#565987" stroke-width="0.849016" stroke-miterlimit="10"/>
<path d="M104.412 101.243L104.478 102.852" stroke="#565987" stroke-width="0.849016" stroke-miterlimit="10"/>
<path d="M100.901 106.96C100.901 106.96 92.0759 88.9542 89.6514 89.3485C88.4994 89.5352 87.9687 90.6721 87.7289 91.8129C87.4286 93.2884 87.5944 94.821 88.2033 96.1975C89.4548 99.0772 92.819 104.549 100.901 106.96Z" fill="#F9A826"/>
<path d="M89.7109 92.7657C89.7109 92.7657 98.9738 106.238 100.764 106.829" stroke="#565987" stroke-width="0.849016" stroke-miterlimit="10"/>
<path d="M88.8579 94.8688H91.0203" stroke="#565987" stroke-width="0.849016" stroke-miterlimit="10"/>
<path d="M91.4487 99.7974L94.8378 99.9433" stroke="#565987" stroke-width="0.849016" stroke-miterlimit="10"/>
<path d="M93.5095 95.8545L93.1426 97.6249" stroke="#565987" stroke-width="0.849016" stroke-miterlimit="10"/>
<path d="M97.1134 101.243L97.0479 102.852" stroke="#565987" stroke-width="0.849016" stroke-miterlimit="10"/>
<path d="M116.048 111.165C116.289 110.969 116.465 110.704 116.551 110.405C116.616 110.103 116.487 109.742 116.2 109.631C115.878 109.508 115.533 109.731 115.272 109.957C115.012 110.183 114.712 110.442 114.369 110.394C114.545 110.234 114.676 110.031 114.751 109.805C114.825 109.579 114.839 109.337 114.793 109.104C114.779 109.007 114.738 108.916 114.675 108.841C114.497 108.649 114.172 108.732 113.957 108.883C113.275 109.364 113.085 110.292 113.083 111.128C113.013 110.826 113.071 110.512 113.069 110.208C113.068 109.905 112.983 109.551 112.723 109.391C112.563 109.302 112.382 109.256 112.199 109.259C111.893 109.249 111.552 109.279 111.342 109.504C111.08 109.782 111.149 110.252 111.376 110.555C111.603 110.859 111.946 111.055 112.262 111.268C112.517 111.418 112.734 111.626 112.896 111.873C112.916 111.908 112.932 111.944 112.944 111.981H114.864C115.293 111.764 115.692 111.489 116.048 111.165Z" fill="#F9A826"/>
<path d="M82.423 103.914C82.6636 103.717 82.8387 103.452 82.925 103.153C82.9905 102.851 82.8621 102.496 82.5738 102.379C82.2514 102.255 81.908 102.479 81.6459 102.706C81.3838 102.933 81.085 103.19 80.7443 103.142C80.9198 102.982 81.0508 102.778 81.1245 102.551C81.1983 102.325 81.2122 102.083 81.1649 101.849C81.1503 101.752 81.1095 101.661 81.047 101.586C80.8675 101.394 80.5438 101.476 80.3288 101.627C79.6474 102.108 79.4573 103.036 79.4534 103.872C79.3852 103.571 79.4429 103.257 79.4416 102.952C79.4403 102.647 79.3551 102.295 79.0943 102.133C78.9335 102.046 78.7526 102.004 78.5701 102.009C78.2647 101.998 77.9227 102.028 77.7143 102.253C77.4522 102.533 77.5217 103 77.7471 103.304C77.9725 103.608 78.3172 103.803 78.6343 104.016C78.888 104.168 79.1044 104.375 79.2673 104.622C79.2869 104.657 79.3028 104.693 79.3145 104.731H81.2357C81.6662 104.513 82.0655 104.238 82.423 103.914Z" fill="#F9A826"/>
<path d="M93.6265 111.165C93.8674 110.969 94.043 110.704 94.1298 110.405C94.194 110.103 94.0656 109.742 93.7785 109.631C93.4562 109.508 93.1115 109.731 92.8507 109.957C92.5899 110.183 92.2898 110.442 91.9477 110.394C92.1236 110.234 92.2552 110.031 92.3297 109.805C92.4041 109.579 92.4188 109.338 92.3723 109.104C92.3582 109.007 92.3174 108.916 92.2544 108.841C92.0762 108.649 91.7511 108.732 91.5362 108.883C90.8547 109.364 90.6647 110.292 90.6621 111.128C90.5926 110.826 90.6503 110.512 90.649 110.208C90.6477 109.905 90.5625 109.551 90.303 109.391C90.1427 109.302 89.962 109.256 89.7788 109.259C89.4721 109.249 89.1314 109.279 88.9217 109.504C88.6596 109.782 88.7291 110.252 88.9558 110.555C89.1825 110.859 89.5259 111.055 89.8417 111.268C90.0964 111.418 90.3133 111.626 90.476 111.873C90.4953 111.908 90.5111 111.944 90.5232 111.981H92.4431C92.8724 111.764 93.2705 111.489 93.6265 111.165Z" fill="#F9A826"/>
<path d="M125.408 96.5063C125.408 96.5063 126.129 97.45 125.077 98.8721C124.024 100.294 123.157 101.501 123.504 102.389C123.504 102.389 125.092 99.7422 126.387 99.7054C127.682 99.6686 126.835 98.098 125.408 96.5063Z" fill="#F9A826"/>
<path opacity="0.1" d="M125.408 96.5063C125.471 96.5972 125.52 96.6968 125.555 96.8021C126.817 98.2873 127.488 99.6739 126.275 99.7094C125.147 99.7409 123.793 101.766 123.468 102.278C123.479 102.317 123.492 102.355 123.506 102.393C123.506 102.393 125.095 99.7462 126.389 99.7094C127.684 99.6726 126.835 98.098 125.408 96.5063Z" fill="black"/>
<path d="M126.752 97.7089C126.752 98.0414 126.715 98.3109 126.669 98.3109C126.623 98.3109 126.588 98.0375 126.588 97.7089C126.588 97.3803 126.634 97.5341 126.68 97.5341C126.725 97.5341 126.752 97.3803 126.752 97.7089Z" fill="#FFD037"/>
<path d="M127.211 98.1059C126.92 98.2649 126.666 98.3609 126.645 98.3214C126.624 98.282 126.84 98.119 127.131 97.96C127.422 97.801 127.308 97.9166 127.329 97.96C127.35 98.0034 127.505 97.9469 127.211 98.1059Z" fill="#FFD037"/>
<path d="M121.607 96.5063C121.607 96.5063 120.886 97.45 121.939 98.8721C122.991 100.294 123.859 101.501 123.511 102.389C123.511 102.389 121.924 99.7422 120.628 99.7054C119.332 99.6686 120.189 98.098 121.607 96.5063Z" fill="#F9A826"/>
<path opacity="0.1" d="M121.608 96.5063C121.545 96.5973 121.495 96.6969 121.46 96.8021C120.199 98.2873 119.528 99.6739 120.739 99.7094C121.869 99.7409 123.229 101.766 123.548 102.278C123.537 102.317 123.524 102.356 123.508 102.393C123.508 102.393 121.921 99.7462 120.625 99.7094C119.329 99.6726 120.19 98.098 121.608 96.5063Z" fill="black"/>
<path d="M120.272 97.709C120.272 98.0415 120.31 98.311 120.356 98.311C120.402 98.311 120.439 98.0415 120.439 97.709C120.439 97.3765 120.393 97.5342 120.347 97.5342C120.301 97.5342 120.272 97.3804 120.272 97.709Z" fill="#FFD037"/>
<path d="M119.813 98.1059C120.104 98.2649 120.357 98.3609 120.379 98.3214C120.402 98.282 120.184 98.119 119.893 97.96C119.602 97.801 119.716 97.9166 119.694 97.96C119.672 98.0034 119.522 97.9469 119.813 98.1059Z" fill="#FFD037"/>
<path d="M120.501 102.27C120.501 102.27 122.514 102.208 123.123 101.774C123.731 101.34 126.219 100.824 126.37 101.519C126.521 102.214 129.395 104.975 127.122 104.993C124.85 105.011 121.842 104.638 121.237 104.267C120.631 103.897 120.501 102.27 120.501 102.27Z" fill="#A8A8A8"/>
<path opacity="0.2" d="M127.162 104.751C124.889 104.77 121.88 104.396 121.275 104.026C120.815 103.744 120.63 102.734 120.57 102.267H120.501C120.501 102.267 120.633 103.896 121.235 104.265C121.838 104.634 124.848 105.009 127.121 104.99C127.776 104.99 128.003 104.751 127.991 104.404C127.898 104.616 127.649 104.747 127.162 104.751Z" fill="black"/>
<defs>
<linearGradient id="paint0_linear_1304_23785" x1="61.2627" y1="111.8" x2="61.2627" y2="21.7449" gradientUnits="userSpaceOnUse">
<stop stop-color="#808080" stop-opacity="0.25"/>
<stop offset="0.54" stop-color="#808080" stop-opacity="0.12"/>
<stop offset="1" stop-color="#808080" stop-opacity="0.1"/>
</linearGradient>
</defs>
</svg>
