<svg width="165" height="124" viewBox="0 0 165 124" fill="none" xmlns="http://www.w3.org/2000/svg">
<g clip-path="url(#clip0_1304_24368)">
<path d="M77.1088 104.095C77.1088 104.095 79.1971 100.669 81.8783 102.695C84.5596 104.721 89.525 108.139 89.525 108.139C89.525 108.139 90.542 110.325 87.9097 109.504C85.2775 108.683 76.6846 107.361 76.6846 107.361L77.1088 104.095Z" fill="#FEB8B8"/>
<path d="M18.7462 82.3358C19.4117 76.9843 22.7283 71.7116 27.832 69.9701C25.8192 75.4782 25.8196 81.5208 27.8332 87.0287C28.6174 89.15 29.7106 91.4278 28.9729 93.5658C28.5139 94.8961 27.3911 95.9139 26.136 96.5503C24.8808 97.1867 23.4879 97.49 22.1123 97.7873L21.8416 98.0112C19.658 93.0804 18.0807 87.6873 18.7462 82.3358Z" fill="#F0F0F0"/>
<path d="M27.8824 70.0713C24.9102 73.4014 23.063 77.5835 22.603 82.0233C22.487 82.9773 22.5221 83.9437 22.707 84.8868C22.9168 85.7997 23.3673 86.6397 24.0115 87.3197C24.5995 87.9657 25.2758 88.5584 25.6965 89.3361C25.9059 89.7374 26.0282 90.1784 26.0552 90.6303C26.0823 91.0821 26.0135 91.5346 25.8534 91.958C25.482 93.0234 24.7499 93.8917 24.0044 94.7161C23.1768 95.6313 22.3026 96.5688 21.9507 97.7822C21.9081 97.9292 21.6825 97.8545 21.725 97.7077C22.3372 95.5966 24.3864 94.3975 25.3637 92.4961C25.8197 91.6089 26.0112 90.5789 25.5836 89.6423C25.2098 88.8233 24.513 88.2115 23.9119 87.5625C23.2737 86.9085 22.8053 86.1081 22.5477 85.2313C22.3154 84.3006 22.2431 83.3372 22.334 82.3823C22.5043 80.2293 23.0121 78.1164 23.8388 76.1211C24.7696 73.8386 26.084 71.7322 27.7251 69.893C27.8267 69.7792 27.9833 69.9582 27.8824 70.0713Z" fill="white"/>
<path d="M22.6669 80.585C21.9325 80.4067 21.2853 79.9731 20.8411 79.3617C20.3968 78.7503 20.1843 78.0009 20.2416 77.2473C20.2537 77.0949 20.4911 77.1065 20.479 77.2592C20.4244 77.9608 20.6224 78.6589 21.0373 79.2274C21.4521 79.7959 22.0566 80.1973 22.7414 80.3593C22.8902 80.3947 22.8148 80.6202 22.6669 80.585Z" fill="white"/>
<path d="M23.6702 87.0313C24.9967 86.2393 25.9759 84.9764 26.4126 83.4944C26.4558 83.3476 26.6814 83.4223 26.6383 83.569C26.181 85.1102 25.1593 86.4224 23.7771 87.2436C23.6453 87.3218 23.5392 87.109 23.6702 87.0313Z" fill="white"/>
<path d="M24.9901 74.0637C25.2599 74.1919 25.5573 74.2511 25.8556 74.236C26.1539 74.2208 26.4438 74.1318 26.6992 73.977C26.83 73.8972 26.936 74.11 26.8061 74.1892C26.5231 74.359 26.2029 74.4569 25.8733 74.4744C25.5437 74.4918 25.2149 74.4283 24.9156 74.2894C24.8863 74.2787 24.8621 74.2572 24.8481 74.2293C24.834 74.2014 24.8311 74.1692 24.84 74.1393C24.85 74.1095 24.8714 74.0848 24.8995 74.0706C24.9276 74.0565 24.9602 74.054 24.9901 74.0637Z" fill="white"/>
<path d="M43.3887 79.5284C43.3085 79.5805 43.2283 79.6327 43.148 79.6868C42.0731 80.3936 41.0575 81.1866 40.111 82.0578C40.0368 82.124 39.9626 82.1922 39.8904 82.2604C37.6326 84.3838 35.7887 86.9079 34.4523 89.7045C33.9216 90.8178 33.4763 91.9698 33.1203 93.1507C32.6288 94.7815 32.2257 96.5888 31.2528 97.9228C31.1529 98.0631 31.0443 98.1971 30.9278 98.324H22.1358C22.1158 98.3139 22.0957 98.3059 22.0756 98.2959L21.7246 98.3119C21.7387 98.2498 21.7547 98.1856 21.7688 98.1234C21.7768 98.0873 21.7868 98.0512 21.7948 98.0151C21.8008 97.991 21.8069 97.9669 21.8109 97.9448C21.8129 97.9368 21.8149 97.9288 21.8169 97.9228C21.8209 97.9007 21.827 97.8807 21.831 97.8606C21.9192 97.5015 22.0102 97.1425 22.1038 96.7834C22.1038 96.7814 22.1038 96.7814 22.1057 96.7794C22.8259 94.0453 23.7807 91.3473 25.1146 88.88C25.1548 88.8058 25.1948 88.7296 25.239 88.6554C25.8465 87.5466 26.5435 86.4892 27.3232 85.494C27.7519 84.9504 28.2078 84.4289 28.6893 83.9314C29.9357 82.6483 31.3761 81.5693 32.9578 80.7339C36.1112 79.069 39.762 78.4311 43.132 79.4481C43.2182 79.4742 43.3025 79.5003 43.3887 79.5284Z" fill="#F0F0F0"/>
<path d="M43.3686 79.64C38.9905 80.5095 34.9977 82.7364 31.9573 86.0044C31.2903 86.6963 30.7365 87.4891 30.3164 88.3534C29.9343 89.2086 29.7882 90.1506 29.8932 91.0813C29.9738 91.9512 30.1569 92.8316 30.0245 93.7058C29.9502 94.1523 29.7822 94.5781 29.5318 94.9551C29.2813 95.3322 28.954 95.6521 28.5713 95.8937C27.6333 96.5207 26.5259 96.7733 25.4344 96.9827C24.2225 97.2151 22.9601 97.4374 21.9486 98.1943C21.8261 98.2861 21.6909 98.0905 21.8133 97.999C23.573 96.6819 25.9312 96.9583 27.8563 96.0286C28.7546 95.5947 29.5276 94.8875 29.7501 93.8823C29.9447 93.0034 29.7566 92.0953 29.6675 91.2153C29.5517 90.3088 29.6596 89.3877 29.9818 88.5326C30.3566 87.6496 30.879 86.8369 31.5264 86.1292C32.9587 84.5126 34.6362 83.1313 36.4976 82.0359C38.615 80.7739 40.9327 79.8834 43.3504 79.403C43.5 79.3733 43.5173 79.6105 43.3686 79.64Z" fill="white"/>
<path d="M32.8747 84.8946C32.3956 84.31 32.14 83.5743 32.1533 82.8186C32.1667 82.063 32.4483 81.3367 32.9477 80.7695C33.0491 80.655 33.2317 80.8073 33.1301 80.9219C32.6641 81.4492 32.4019 82.1258 32.3909 82.8295C32.3799 83.5331 32.6207 84.2176 33.0701 84.7592C33.1676 84.8771 32.9716 85.0117 32.8747 84.8946Z" fill="white"/>
<path d="M29.7946 90.6457C31.3306 90.8119 32.8728 90.3931 34.1137 89.4728C34.2365 89.3815 34.3717 89.577 34.249 89.6682C32.9559 90.6235 31.3501 91.056 29.7521 90.8795C29.5999 90.8626 29.6431 90.6288 29.7946 90.6457Z" fill="white"/>
<path d="M38.6555 81.0865C38.7937 81.3513 38.9955 81.5776 39.2428 81.7451C39.4902 81.9126 39.7752 82.0161 40.0724 82.0462C40.2248 82.0612 40.1814 82.2949 40.0299 82.2801C39.7017 82.2452 39.3871 82.1306 39.1134 81.9461C38.8398 81.7616 38.6155 81.513 38.4601 81.2218C38.4432 81.1956 38.4368 81.1639 38.4424 81.1332C38.448 81.1025 38.465 81.075 38.4901 81.0564C38.5161 81.0386 38.548 81.0318 38.579 81.0374C38.6099 81.0431 38.6374 81.0607 38.6555 81.0865Z" fill="white"/>
<path d="M89.6544 117.804C89.9123 115.73 91.1976 113.686 93.1756 113.011C92.3955 115.146 92.3957 117.488 93.1761 119.622C93.48 120.445 93.9037 121.327 93.6178 122.156C93.413 122.668 93.0195 123.082 92.5183 123.313C92.0211 123.538 91.4971 123.699 90.9589 123.792L90.854 123.879C90.0077 121.968 89.3965 119.878 89.6544 117.804Z" fill="#F0F0F0"/>
<path d="M93.195 113.05C92.0431 114.341 91.3272 115.962 91.1489 117.683C91.104 118.052 91.1176 118.427 91.1892 118.792C91.2706 119.146 91.4451 119.472 91.6948 119.735C91.9433 119.968 92.1626 120.231 92.3478 120.517C92.429 120.672 92.4764 120.843 92.4869 121.018C92.4973 121.193 92.4707 121.369 92.4087 121.533C92.2438 121.933 92.0001 122.297 91.6921 122.602C91.3713 122.956 91.0325 123.32 90.8962 123.79C90.8796 123.847 90.7922 123.818 90.8087 123.761C91.0459 122.943 91.8401 122.478 92.2189 121.741C92.3165 121.576 92.3749 121.39 92.3897 121.198C92.4045 121.006 92.3752 120.814 92.3041 120.635C92.1323 120.334 91.9136 120.062 91.6562 119.829C91.4089 119.576 91.2274 119.266 91.1275 118.926C91.0375 118.565 91.0095 118.192 91.0447 117.822C91.1107 116.987 91.3075 116.168 91.6279 115.395C91.9886 114.511 92.498 113.694 93.134 112.981C93.1734 112.937 93.2341 113.007 93.195 113.05Z" fill="white"/>
<path d="M91.174 117.125C90.8893 117.056 90.6385 116.888 90.4664 116.651C90.2942 116.414 90.2118 116.124 90.234 115.832C90.2387 115.773 90.3307 115.777 90.326 115.836C90.3049 116.108 90.3816 116.379 90.5424 116.599C90.7032 116.819 90.9374 116.975 91.2028 117.038C91.2605 117.051 91.2313 117.139 91.174 117.125Z" fill="white"/>
<path d="M91.5628 119.624C92.0768 119.317 92.4563 118.827 92.6256 118.253C92.6423 118.196 92.7298 118.225 92.7131 118.282C92.5358 118.879 92.1399 119.388 91.6042 119.706C91.5531 119.736 91.512 119.654 91.5628 119.624Z" fill="white"/>
<path d="M92.0743 114.598C92.1788 114.648 92.2941 114.67 92.4097 114.665C92.5253 114.659 92.6377 114.624 92.7367 114.564C92.7873 114.533 92.8284 114.616 92.7781 114.646C92.6684 114.712 92.5443 114.75 92.4166 114.757C92.2888 114.764 92.1614 114.739 92.0454 114.685C92.034 114.681 92.0247 114.673 92.0193 114.662C92.0138 114.651 92.0127 114.639 92.0161 114.627C92.02 114.616 92.0283 114.606 92.0392 114.601C92.0501 114.595 92.0627 114.594 92.0743 114.598Z" fill="white"/>
<path d="M99.2046 116.716C99.1735 116.736 99.1424 116.756 99.1113 116.777C98.6947 117.051 98.3011 117.358 97.9343 117.696C97.9055 117.722 97.8768 117.748 97.8488 117.774C96.9738 118.597 96.2592 119.576 95.7413 120.659C95.5356 121.091 95.363 121.537 95.225 121.995C95.0346 122.627 94.8783 123.327 94.5013 123.844C94.4626 123.899 94.4205 123.951 94.3753 124H90.968C90.9602 123.996 90.9524 123.993 90.9446 123.989L90.8086 123.995C90.8141 123.971 90.8202 123.946 90.8257 123.922C90.8288 123.908 90.8327 123.894 90.8358 123.88C90.8381 123.871 90.8405 123.862 90.842 123.853C90.8428 123.85 90.8436 123.847 90.8443 123.844C90.8459 123.836 90.8483 123.828 90.8498 123.82C90.884 123.681 90.9193 123.542 90.9555 123.403L90.9563 123.401C91.2226 122.338 91.614 121.311 92.1224 120.34C92.138 120.311 92.1535 120.282 92.1706 120.253C92.406 119.823 92.6762 119.413 92.9783 119.028C93.1445 118.817 93.3212 118.615 93.5078 118.422C93.9908 117.925 94.5491 117.507 95.1621 117.183C96.3841 116.538 97.799 116.29 99.1051 116.685C99.1385 116.695 99.1712 116.705 99.2046 116.716Z" fill="#F0F0F0"/>
<path d="M99.1967 116.759C97.5 117.096 95.9525 117.959 94.7742 119.226C94.5157 119.494 94.3011 119.801 94.1383 120.136C93.9902 120.467 93.9336 120.832 93.9743 121.193C94.0324 121.529 94.0495 121.87 94.0252 122.21C93.9963 122.383 93.9313 122.548 93.8342 122.694C93.7371 122.841 93.6103 122.965 93.462 123.058C93.0891 123.279 92.6757 123.422 92.2463 123.48C91.7766 123.57 91.2873 123.656 90.8953 123.95C90.8478 123.985 90.7955 123.91 90.8429 123.874C91.5249 123.364 92.4388 123.471 93.1849 123.11C93.3625 123.037 93.521 122.924 93.6482 122.78C93.7755 122.635 93.868 122.464 93.9188 122.279C93.9631 121.935 93.9523 121.586 93.8868 121.245C93.8419 120.894 93.8837 120.537 94.0086 120.205C94.1539 119.863 94.3563 119.548 94.6072 119.274C95.1623 118.647 95.8125 118.112 96.5338 117.688C97.3544 117.198 98.2526 116.853 99.1896 116.667C99.2476 116.656 99.2543 116.748 99.1967 116.759Z" fill="white"/>
<path d="M95.1299 118.795C94.9442 118.569 94.8451 118.284 94.8503 117.991C94.8555 117.698 94.9646 117.416 95.1581 117.197C95.1975 117.152 95.2682 117.211 95.2289 117.256C95.0482 117.46 94.9466 117.722 94.9424 117.995C94.9381 118.268 95.0314 118.533 95.2056 118.743C95.2434 118.789 95.1674 118.841 95.1299 118.795Z" fill="white"/>
<path d="M93.9361 121.024C94.5313 121.089 95.129 120.926 95.6099 120.57C95.6575 120.534 95.7099 120.61 95.6624 120.645C95.1612 121.016 94.5389 121.183 93.9196 121.115C93.8606 121.108 93.8774 121.018 93.9361 121.024Z" fill="white"/>
<path d="M97.3705 117.32C97.424 117.422 97.5022 117.51 97.5981 117.575C97.6939 117.64 97.8044 117.68 97.9196 117.692C97.9787 117.697 97.9618 117.788 97.9031 117.782C97.7759 117.769 97.654 117.724 97.5479 117.653C97.4419 117.581 97.355 117.485 97.2947 117.372C97.2882 117.362 97.2857 117.35 97.2879 117.338C97.29 117.326 97.2967 117.315 97.3064 117.308C97.3164 117.301 97.3288 117.298 97.3408 117.301C97.3528 117.303 97.3635 117.31 97.3705 117.32Z" fill="white"/>
<path d="M148.196 73.7494C147.173 65.5239 142.076 57.4195 134.231 54.7427C137.325 63.209 137.324 72.4967 134.229 80.9625C133.024 84.2231 131.344 87.7241 132.477 91.0103C133.183 93.0551 134.909 94.6195 136.838 95.5977C138.767 96.5759 140.908 97.0421 143.022 97.499L143.439 97.8432C146.795 90.2643 149.219 81.9748 148.196 73.7494Z" fill="#F0F0F0"/>
<path d="M134.153 54.8982C138.721 60.0169 141.561 66.4448 142.268 73.2691C142.41 74.732 142.428 76.2284 142.108 77.6704C141.785 79.0736 141.093 80.3647 140.103 81.4098C139.199 82.4028 138.16 83.3138 137.513 84.5092C136.831 85.7692 136.805 87.2008 137.272 88.5392C137.843 90.1767 138.968 91.5114 140.114 92.7784C141.386 94.1852 142.73 95.6262 143.27 97.4912C143.336 97.7172 143.683 97.6023 143.617 97.3767C142.676 94.1319 139.527 92.2888 138.024 89.3663C137.323 88.0026 137.029 86.4194 137.686 84.9798C138.261 83.721 139.332 82.7806 140.256 81.7831C141.226 80.7357 141.97 79.5866 142.353 78.1998C142.745 76.7813 142.786 75.2811 142.681 73.8209C142.419 70.5116 141.639 67.264 140.368 64.1971C138.938 60.6889 136.917 57.4512 134.395 54.6242C134.239 54.4493 133.998 54.7244 134.153 54.8982Z" fill="white"/>
<path d="M142.169 71.0582C143.298 70.7842 144.293 70.1178 144.976 69.178C145.659 68.2383 145.985 67.0864 145.897 65.9281C145.879 65.6938 145.514 65.7117 145.532 65.9463C145.616 67.0248 145.312 68.0977 144.674 68.9715C144.037 69.8453 143.108 70.4624 142.055 70.7113C141.826 70.7657 141.942 71.1123 142.169 71.0582Z" fill="white"/>
<path d="M140.628 80.9667C138.589 79.7493 137.084 77.8082 136.412 75.5304C136.346 75.3047 135.999 75.4195 136.065 75.6449C136.768 78.0139 138.339 80.0308 140.463 81.293C140.666 81.4131 140.829 81.0862 140.628 80.9667Z" fill="white"/>
<path d="M138.599 61.0348C138.184 61.2319 137.727 61.3228 137.268 61.2996C136.81 61.2763 136.364 61.1395 135.972 60.9015C135.771 60.7788 135.608 61.1059 135.807 61.2277C136.242 61.4887 136.734 61.6392 137.241 61.666C137.748 61.6929 138.253 61.5953 138.713 61.3817C138.758 61.3652 138.795 61.3322 138.817 61.2893C138.838 61.2465 138.843 61.197 138.829 61.151C138.814 61.1051 138.781 61.0672 138.738 61.0455C138.695 61.0237 138.645 61.0199 138.599 61.0348Z" fill="white"/>
<path d="M110.319 69.4343C110.443 69.5144 110.566 69.5946 110.689 69.6779C112.341 70.7642 113.903 71.983 115.357 73.3222C115.471 73.424 115.585 73.5288 115.696 73.6336C119.167 76.8974 122.001 80.777 124.055 85.0754C124.871 86.7866 125.555 88.5574 126.102 90.3724C126.858 92.8791 127.477 95.657 128.973 97.7074C129.126 97.923 129.293 98.129 129.472 98.324H142.986C143.017 98.3086 143.048 98.2963 143.079 98.2808L143.618 98.3055C143.596 98.2099 143.572 98.1113 143.55 98.0157C143.538 97.9602 143.522 97.9047 143.51 97.8492C143.501 97.8122 143.492 97.7752 143.485 97.7413C143.482 97.729 143.479 97.7166 143.476 97.7074C143.47 97.6735 143.461 97.6426 143.455 97.6118C143.319 97.0599 143.179 96.508 143.035 95.9561C143.035 95.953 143.035 95.953 143.032 95.9499C141.925 91.7475 140.458 87.6006 138.407 83.8082C138.346 83.6942 138.284 83.577 138.216 83.4629C137.283 81.7586 136.211 80.1335 135.013 78.6038C134.354 77.7682 133.653 76.9666 132.913 76.2019C130.997 74.2298 128.783 72.5714 126.352 71.2873C121.505 68.7282 115.894 67.7478 110.714 69.311C110.581 69.351 110.452 69.3911 110.319 69.4343Z" fill="#F0F0F0"/>
<path d="M110.35 69.6058C117.079 70.9423 123.216 74.3652 127.89 79.3883C128.884 80.4705 129.799 81.6549 130.412 82.9988C130.999 84.3133 131.224 85.7611 131.062 87.1917C130.938 88.5287 130.657 89.8819 130.86 91.2257C131.075 92.6421 131.916 93.8009 133.094 94.5886C134.536 95.5523 136.238 95.9405 137.916 96.2623C139.778 96.6196 141.719 96.9612 143.273 98.1247C143.462 98.2657 143.67 97.9652 143.481 97.8244C140.777 95.8001 137.152 96.2249 134.193 94.7958C132.812 94.129 131.624 93.042 131.282 91.497C130.983 90.146 131.272 88.7502 131.409 87.3976C131.553 85.9773 131.455 84.612 130.926 83.2741C130.385 81.9055 129.515 80.6829 128.552 79.58C126.35 77.0953 123.772 74.9722 120.911 73.2884C117.656 71.3487 114.094 69.98 110.378 69.2415C110.148 69.1959 110.121 69.5605 110.35 69.6058Z" fill="white"/>
<path d="M126.48 77.6823C127.216 76.7838 127.609 75.6529 127.589 74.4914C127.568 73.33 127.135 72.2136 126.368 71.3418C126.212 71.1659 125.931 71.3999 126.087 71.5761C126.804 72.3866 127.207 73.4265 127.224 74.5081C127.241 75.5897 126.87 76.6417 126.18 77.4743C126.03 77.6554 126.331 77.8624 126.48 77.6823Z" fill="white"/>
<path d="M131.214 86.522C128.854 86.7776 126.483 86.1339 124.576 84.7193C124.387 84.579 124.179 84.8795 124.368 85.0196C126.355 86.4879 128.824 87.1528 131.28 86.8815C131.514 86.8555 131.447 86.4962 131.214 86.522Z" fill="white"/>
<path d="M117.594 71.829C117.382 72.236 117.072 72.5839 116.692 72.8414C116.311 73.0989 115.873 73.2579 115.416 73.3042C115.182 73.3273 115.249 73.6865 115.482 73.6637C115.986 73.6101 116.47 73.4339 116.89 73.1504C117.311 72.8668 117.656 72.4846 117.895 72.037C117.921 71.9967 117.93 71.948 117.922 71.9008C117.913 71.8536 117.887 71.8114 117.848 71.7829C117.809 71.7555 117.76 71.745 117.712 71.7537C117.664 71.7623 117.622 71.7894 117.594 71.829Z" fill="white"/>
<path d="M163.95 98.5246H0.200594C0.147393 98.5246 0.0963709 98.5035 0.0587523 98.4659C0.0211337 98.4282 0 98.3772 0 98.324C0 98.2708 0.0211337 98.2198 0.0587523 98.1822C0.0963709 98.1445 0.147393 98.1234 0.200594 98.1234H163.885C163.938 98.1234 163.989 98.1445 164.027 98.1822C164.064 98.2198 164.086 98.2708 164.086 98.324C164.086 98.4348 164.061 98.5246 163.95 98.5246Z" fill="#CACACA"/>
<path d="M57.4355 116.177H21.2631C21.2099 116.177 21.1589 116.156 21.1213 116.118C21.0836 116.08 21.0625 116.029 21.0625 115.976C21.0625 115.923 21.0836 115.872 21.1213 115.834C21.1589 115.797 21.2099 115.776 21.2631 115.776H57.3699C57.4231 115.776 57.4741 115.797 57.5118 115.834C57.5494 115.872 57.5705 115.923 57.5705 115.976C57.5705 116.087 57.5463 116.177 57.4355 116.177Z" fill="#CACACA"/>
<path d="M114.203 124H78.0307C77.9775 124 77.9265 123.979 77.8888 123.941C77.8512 123.904 77.8301 123.853 77.8301 123.799C77.8301 123.746 77.8512 123.695 77.8888 123.658C77.9265 123.62 77.9775 123.599 78.0307 123.599H114.138C114.191 123.599 114.242 123.62 114.279 123.658C114.317 123.695 114.338 123.746 114.338 123.799C114.338 123.91 114.314 124 114.203 124Z" fill="#CACACA"/>
<path d="M148.304 115.976H112.132C112.079 115.976 112.028 115.955 111.99 115.918C111.952 115.88 111.931 115.829 111.931 115.776C111.931 115.722 111.952 115.671 111.99 115.634C112.028 115.596 112.079 115.575 112.132 115.575H148.239C148.292 115.575 148.343 115.596 148.38 115.634C148.418 115.671 148.439 115.722 148.439 115.776C148.439 115.886 148.415 115.976 148.304 115.976Z" fill="#CACACA"/>
<path d="M66.8494 108.354C64.6024 108.354 62.5452 108.138 60.9108 107.629C58.968 107.025 57.7482 106.046 57.2847 104.72C57.067 104.156 57.0019 103.546 57.0962 102.949C57.1905 102.353 57.4408 101.792 57.8218 101.323C60.6958 97.5782 70.669 96.522 72.0072 96.3972L74.7221 91.2565C74.8958 90.0299 74.0739 89.1014 75.4938 89.0782L92.2905 88.8501C93.685 88.8208 93.2892 89.6843 93.528 90.8802L96.0871 95.4486L85.0732 100.097L86.7384 104.155L86.6297 104.218C83.4063 106.088 74.1363 108.353 66.8494 108.354Z" fill="#2F2E41"/>
<path d="M94.5625 95.6436C94.5625 95.6436 109.944 93.8833 108.941 100.924C107.938 107.965 96.2344 112.953 78.5122 100.924L80.5185 97.4038C80.5185 97.4038 87.1226 97.0753 91.1352 95.3151L94.5625 95.6436Z" fill="#2F2E41"/>
<path d="M72.7859 63.7452C72.7859 63.7452 69.8624 63.2137 69.0651 67.7318C68.2678 72.2498 66.9906 82.9521 66.9906 82.9521L63.0251 96.6995C62.5574 96.9478 62.17 97.324 61.9081 97.7843C61.6462 98.2445 61.5207 98.7698 61.5462 99.2987C61.5717 99.8276 61.7472 100.338 62.0521 100.771C62.357 101.204 62.7788 101.541 63.2683 101.744C63.7577 101.946 64.2946 102.004 64.8161 101.913C65.3377 101.821 65.8224 101.583 66.2137 101.226C66.605 100.87 66.8867 100.409 67.0259 99.898C67.1652 99.3871 67.1561 98.8471 66.9999 98.3412L72.306 83.7504L73.3174 71.1878V64.6053C73.3174 64.4267 73.2677 64.2517 73.1738 64.0998C73.0799 63.9479 72.9456 63.8251 72.7859 63.7452Z" fill="#FEB8B8"/>
<path d="M93.364 63.7452C93.364 63.7452 96.2875 63.2137 97.0848 67.7318C97.8821 72.2498 99.1593 82.9521 99.1593 82.9521L103.125 96.6995C103.593 96.9478 103.98 97.324 104.242 97.7843C104.504 98.2445 104.629 98.7698 104.604 99.2987C104.578 99.8276 104.403 100.338 104.098 100.771C103.793 101.204 103.371 101.541 102.882 101.744C102.392 101.946 101.855 102.004 101.334 101.913C100.812 101.821 100.328 101.583 99.9363 101.226C99.545 100.87 99.2632 100.409 99.124 99.898C98.9848 99.3871 98.9938 98.8471 99.15 98.3412L93.8439 83.7504L92.8325 71.1878V64.6053C92.8325 64.4267 92.8822 64.2517 92.9761 64.0998C93.07 63.9479 93.2043 63.8251 93.364 63.7452Z" fill="#FEB8B8"/>
<path d="M93.141 60.0106L87.6112 57.9424L76.8929 57.8041L72.2793 60.0106L73.5751 67.4579C73.5751 67.4579 70.9588 71.8879 73.8394 76.3185L74.4858 92.1056C74.4858 92.1056 84.8196 98.098 93.5422 90.902L91.5708 76.2238C91.5708 76.2238 94.8683 69.4137 92.3124 66.8836L93.141 60.0106Z" fill="#F9A826"/>
<path d="M90.8887 62.3249L93.1409 60.0106C93.1409 60.0106 98.0565 62.5962 97.9552 71.2439L91.7546 69.3329L90.8887 62.3249Z" fill="#F9A826"/>
<path d="M74.7814 62.3249L72.3885 59.932C72.3885 59.932 68.1662 63.198 68.2674 71.8457L73.9156 69.333L74.7814 62.3249Z" fill="#F9A826"/>
<path d="M90.3802 102.385C90.3802 102.385 88.6578 98.7604 85.7812 100.498C82.9047 102.235 77.612 105.121 77.612 105.121C77.612 105.121 76.3741 107.19 79.0772 106.646C81.7804 106.101 90.4639 105.677 90.4639 105.677L90.3802 102.385Z" fill="#FEB8B8"/>
<path d="M85.5948 37.6011C85.6191 37.5777 85.6446 37.5567 85.6686 37.5327C87.2078 35.9935 87.5197 33.8099 86.3653 32.6555C85.2744 31.5645 83.2649 31.7847 81.7482 33.1111C80.4477 31.873 78.7039 31.5278 77.5752 32.3825C76.2737 33.3681 76.2838 35.5739 77.598 37.3093C77.6879 37.4281 77.7824 37.5405 77.8794 37.6486C76.1306 38.2887 74.6206 39.4506 73.5539 40.977C72.4871 42.5035 71.915 44.3208 71.915 46.1831V54.8327C71.915 55.0863 71.965 55.3375 72.0621 55.5718C72.1591 55.8062 72.3014 56.0191 72.4808 56.1984C72.6601 56.3778 72.873 56.52 73.1073 56.6171C73.3417 56.7141 73.5928 56.7641 73.8465 56.7641H89.8329C90.3279 56.7641 90.8027 56.5674 91.1528 56.2174C91.5028 55.8673 91.6995 55.3926 91.6995 54.8975V46.1831C91.6992 44.2958 91.1113 42.4554 90.0173 40.9175C88.9233 39.3795 87.3776 38.2204 85.5948 37.6011Z" fill="#2F2E41"/>
<path d="M87.4239 53.6792C90.3864 50.7167 90.3864 45.9135 87.4239 42.9509C84.4614 39.9884 79.6582 39.9884 76.6957 42.9509C73.7331 45.9135 73.7331 50.7167 76.6957 53.6792C79.6582 56.6417 84.4614 56.6417 87.4239 53.6792Z" fill="#FFB6B6"/>
<path d="M74.0889 43.5435C75.8224 44.7383 77.8799 45.3742 79.9853 45.3657C79.2343 45.8865 78.3793 46.2382 77.4793 46.3967C80.2785 46.9972 83.1715 47.0134 85.9774 46.4445C86.601 46.3445 87.2028 46.1378 87.7563 45.8335C88.0322 45.6794 88.2725 45.4691 88.4617 45.216C88.6509 44.963 88.7847 44.673 88.8544 44.3649C89.0409 43.2998 88.2109 42.3321 87.3484 41.6799C86.0278 40.6966 84.5052 40.0192 82.8907 39.6966C81.2762 39.3739 79.6102 39.4142 78.0131 39.8145C76.9703 40.084 75.9257 40.5395 75.2484 41.3769C74.571 42.2144 74.3704 43.5055 75.0157 44.3678L74.0889 43.5435Z" fill="#2F2E41"/>
<path d="M33.5129 28.4053L33.752 28.083L40.1207 32.807C39.7745 31.7522 38.5495 28.4082 36.5413 27.074C34.1422 25.48 32.4542 25.9759 31.5346 27.36C30.615 28.7441 30.8119 30.4923 33.2111 32.0863C35.2447 33.4375 38.8676 33.2497 39.9245 33.1611L33.5129 28.4053Z" fill="#F2F2F2"/>
<path d="M129.336 2.54194L129.632 2.81323L124.271 8.65601C125.356 8.42149 128.81 7.55089 130.345 5.69235C132.18 3.47201 131.863 1.74166 130.582 0.683072C129.301 -0.375512 127.542 -0.361493 125.707 1.85885C124.151 3.74094 123.961 7.36367 123.939 8.42411L129.336 2.54194Z" fill="#F2F2F2"/>
<path d="M42.8802 64.9266L43.1759 65.1979L37.8152 71.0407C38.9003 70.8061 42.3535 69.9355 43.8894 68.077C45.7242 65.8567 45.4066 64.1263 44.1256 63.0677C42.8447 62.0091 41.0855 62.0232 39.2506 64.2435C37.6952 66.1256 37.5052 69.7483 37.4834 70.8088L42.8802 64.9266Z" fill="#F2F2F2"/>
<path d="M88.2096 9.23734L88.5569 9.43832L84.5856 16.3016C85.5944 15.8381 88.7779 14.2418 89.8758 12.0952C91.1874 9.53078 90.5033 7.90996 89.0238 7.15324C87.5443 6.39652 85.8298 6.79041 84.5181 9.35486C83.4063 11.5286 84.0037 15.1068 84.2116 16.1469L88.2096 9.23734Z" fill="#F2F2F2"/>
<path d="M125.319 52.1643L125.667 52.3653L121.696 59.2286C122.704 58.7651 125.888 57.1688 126.986 55.0222C128.297 52.4578 127.613 50.837 126.134 50.0802C124.654 49.3235 122.94 49.7174 121.628 52.2819C120.516 54.4556 121.114 58.0338 121.321 59.0739L125.319 52.1643Z" fill="#F2F2F2"/>
</g>
<defs>
<clipPath id="clip0_1304_24368">
<rect width="164.086" height="124" fill="white"/>
</clipPath>
</defs>
</svg>
