<svg width="161" height="123" viewBox="0 0 161 123" fill="none" xmlns="http://www.w3.org/2000/svg">
<path opacity="0.1" d="M92.243 27.6519C84.0468 27.3158 76.2406 24.1932 68.7864 20.7761C61.3323 17.359 53.944 13.5729 45.9479 11.762C40.8024 10.5982 34.9187 10.4339 30.7686 13.6892C26.7794 16.8232 25.4902 22.2319 24.7975 27.2513C24.2757 31.0273 23.9692 35.0017 25.3977 38.5363C26.3894 40.9904 28.1509 43.054 29.3692 45.4045C33.6079 53.5845 30.6116 63.6702 26.0196 71.6581C23.8667 75.4037 21.3655 78.9788 19.7027 82.967C18.0399 86.9553 17.2712 91.5248 18.7263 95.5927C20.1674 99.6252 23.6032 102.654 27.3252 104.785C34.8845 109.112 43.7887 110.345 52.4775 111.052C71.7043 112.604 91.0349 111.936 110.314 111.259C117.447 111.006 124.614 110.753 131.632 109.454C135.53 108.732 139.554 107.584 142.383 104.813C145.976 101.296 146.866 95.3349 144.459 90.9296C140.421 83.5319 129.262 81.6945 126.436 73.7546C124.884 69.3847 126.478 64.5169 128.736 60.4641C133.578 51.7698 141.695 44.1421 142.122 34.2043C142.416 27.3802 138.514 20.5436 132.481 17.3148C126.158 13.9293 117.388 14.3552 112.725 19.9585C107.923 25.7286 99.4806 27.9489 92.243 27.6519Z" fill="#C7C7C7"/>
<path d="M67.9352 44.0511L61.1878 45.1063L57.7304 45.4348L56.8085 45.5233C56.8085 45.5233 55.1622 45.7836 55.0013 45.5233C54.8405 45.263 51.6681 45.5233 51.6681 45.5233C51.6681 45.5233 49.7406 43.2309 45.1613 44.4415C44.6989 44.7148 44.178 44.8742 43.6416 44.9066C43.6409 44.8973 43.6409 44.888 43.6416 44.8788C43.658 44.3518 43.5922 42.5346 41.9851 41.5401C41.528 41.5872 41.0845 41.7229 40.6794 41.9394L40.6427 41.9596L40.5338 42.0228L40.5199 42.038C40.5672 41.83 40.5994 41.6188 40.6161 41.4061C40.6161 41.3265 40.6161 41.2469 40.625 41.1673C40.8093 41.1163 40.9706 41.0039 41.0821 40.8488C41.128 40.7569 41.1477 40.6542 41.1391 40.5518C41.1391 40.5152 41.1391 40.4773 41.1391 40.4406C41.1385 40.4326 41.1385 40.4246 41.1391 40.4166C41.1391 40.4166 41.1391 40.4166 41.1391 40.4242C41.1126 40.0499 41.0575 39.6781 40.9745 39.3121L41.4709 39.6407C41.59 39.7191 41.7394 39.8025 41.8813 39.7582C41.9268 39.742 41.9679 39.7154 42.0014 39.6805C42.0348 39.6457 42.0596 39.6035 42.0737 39.5573C42.1624 39.3172 42.0978 39.0303 42.2852 38.8319C42.3296 38.7852 42.3853 38.7473 42.4233 38.698C42.475 38.6305 42.4998 38.5463 42.4929 38.4617C42.4934 38.4126 42.4896 38.3635 42.4815 38.3151V38.3252C42.4487 38.2015 42.4435 38.072 42.4663 37.9461C42.5325 37.9718 42.6053 37.9755 42.6738 37.9566C42.7422 37.9377 42.8027 37.8972 42.8463 37.8412C42.9144 37.7347 42.948 37.6098 42.9425 37.4836C42.9539 37.27 42.9628 37.0514 42.9577 36.834C42.9583 36.8298 42.9583 36.8256 42.9577 36.8214C42.945 36.307 42.8475 35.8003 42.4929 35.3896C42.5854 34.8007 41.9433 34.1587 41.2265 34.0779C41.0505 34.0589 40.8339 34.0488 40.7554 33.9161C40.7289 33.853 40.7172 33.7847 40.7212 33.7164C40.7035 33.4928 40.549 33.2944 40.4008 33.1061C40.3406 33.0238 40.2679 32.9514 40.1855 32.8912C39.95 32.7396 39.6156 32.78 39.3244 32.8318C38.7908 32.9254 38.2606 33.0298 37.7337 33.1452C37.6705 32.8908 37.6744 32.6243 37.7451 32.3719C37.7941 32.2455 37.824 32.1127 37.8338 31.9776C37.8362 31.935 37.8315 31.8923 37.8199 31.8512V31.8676C37.8125 31.8466 37.8041 31.8259 37.7945 31.8057C37.7693 31.7595 37.7329 31.7203 37.6887 31.6916C37.6445 31.6629 37.5938 31.6457 37.5412 31.6414C37.4725 31.6392 37.4046 31.6568 37.3457 31.6923C37.2868 31.7277 37.2395 31.7794 37.2094 31.8411C36.9081 32.279 36.6991 32.7734 36.5952 33.2944C36.3943 33.1545 36.1615 33.0669 35.918 33.0395C35.6745 33.0121 35.428 33.0459 35.2009 33.1377C35.0865 33.1992 34.9629 33.2418 34.8349 33.264C34.7284 33.2643 34.6236 33.2368 34.531 33.1843C34.4383 33.1318 34.3611 33.056 34.3068 32.9645C34.1612 32.7484 34.0966 32.4906 33.8154 32.3478C33.7527 32.3158 33.6833 32.2991 33.6128 32.2991C33.5424 32.2991 33.4729 32.3158 33.4102 32.3478C33.3773 32.365 33.3483 32.3887 33.3248 32.4173C33.3013 32.446 33.2838 32.4791 33.2734 32.5147C33.274 32.5083 33.274 32.502 33.2734 32.4957C33.2715 32.5142 33.2715 32.5328 33.2734 32.5513C33.2734 32.5589 33.2734 32.5665 33.2734 32.574C33.2734 32.5816 33.2734 32.593 33.2734 32.6018C33.2633 32.8457 33.4343 33.1617 33.2405 33.3538C33.1627 33.4186 33.0721 33.4664 32.9745 33.494L32.2856 33.7405C31.9177 33.8929 31.5287 33.9883 31.1319 34.0235C30.771 34.0362 30.4062 33.9565 30.0504 33.9654C30.0336 33.9569 30.0176 33.9472 30.0023 33.9363C29.9228 33.9405 29.8437 33.9498 29.7654 33.9641C29.7732 33.974 29.7817 33.9833 29.7908 33.9919H29.7654C29.9469 34.1931 30.1861 34.3335 30.4506 34.3938C30.6139 34.4342 30.7862 34.4469 30.9445 34.4974C31.1028 34.548 31.2535 34.6491 31.2813 34.7881C31.2842 34.9045 31.2563 35.0195 31.2003 35.1217L31.194 35.1116C31.1774 35.1565 31.1692 35.204 31.1699 35.2518C31.1668 35.2745 31.1668 35.2974 31.1699 35.3201C31.1976 35.3996 31.2534 35.4664 31.3268 35.508C31.4001 35.5496 31.4861 35.5632 31.5688 35.5463L30.7545 36.0581C30.6938 36.0944 30.637 36.1368 30.5848 36.1845L30.562 36.1781C30.5389 36.2008 30.5206 36.228 30.5084 36.258C30.4962 36.288 30.4903 36.3202 30.4911 36.3525C30.4885 36.3773 30.4915 36.4024 30.5 36.4258L30.7621 36.5004L30.0466 37.4886C30.003 37.546 29.9648 37.6074 29.9326 37.6719L29.925 37.6592C29.9087 37.6994 29.9002 37.7423 29.8997 37.7856C29.8972 37.807 29.8972 37.8286 29.8997 37.85C29.9058 37.8856 29.9194 37.9194 29.9397 37.9492C29.96 37.979 29.9865 38.0042 30.0173 38.023C30.0481 38.0418 30.0826 38.0538 30.1185 38.0581C30.1543 38.0625 30.1907 38.0592 30.2252 38.0484C30.0684 38.2054 29.9421 38.3901 29.8528 38.5931L29.8414 38.5855L29.83 38.6121C29.8122 38.6518 29.8031 38.6949 29.8034 38.7384C29.7981 38.7717 29.8049 38.8057 29.8224 38.8345C29.8546 38.8682 29.8944 38.8937 29.9384 38.9088C29.9825 38.924 30.0296 38.9284 30.0757 38.9217C30.4556 38.9217 30.809 38.6626 30.8685 38.353C30.985 38.4794 30.8596 38.6297 30.7494 38.7599C30.3011 39.2831 29.8452 39.8151 29.6097 40.4255C29.5269 40.6348 29.4765 40.8556 29.4602 41.0801C29.4602 41.0801 29.4602 41.07 29.4602 41.0649C29.4602 41.0813 29.4602 41.0978 29.4602 41.1142C29.4285 41.5333 29.5611 41.9483 29.83 42.2718C29.9296 42.3724 30.0187 42.483 30.096 42.6016C30.2378 42.8644 30.1568 43.2018 30.3771 43.4243C30.5549 42.9514 30.7701 42.4933 31.0205 42.0544C31.0165 42.1732 30.9987 42.2911 30.9673 42.4057V42.3956C30.9673 42.4259 30.9571 42.455 30.9546 42.4841C30.9533 42.5055 30.9533 42.527 30.9546 42.5485C30.9487 42.6247 30.9673 42.7008 31.0076 42.7657C31.0479 42.8307 31.1078 42.8812 31.1788 42.9099C31.4029 42.9895 31.6347 42.8278 31.7866 42.666C31.8082 42.7216 31.8297 42.776 31.8538 42.8303C32.3251 43.8767 33.177 44.7055 34.2372 45.1492L34.2574 45.1909C33.4026 45.6964 31.4156 46.926 31.2864 47.3974C31.1205 47.9989 31.18 49.581 32.3705 49.902C32.6281 49.9721 32.8954 50.0003 33.162 49.9854C33.1113 50.0651 33.0619 50.1459 33.0138 50.2243C32.6845 50.7576 32.4085 51.2517 32.3249 51.5171C32.0843 52.2917 29.8351 53.2294 29.8351 53.2294C29.8351 53.2294 27.786 54.8722 27.3453 58.0315C27.3453 58.0315 25.1759 60.8445 23.9716 61.4308C22.7672 62.0172 20.6789 65.6112 20.6789 65.6112C20.6789 65.6112 18.6108 67.0594 18.1714 68.471C17.732 69.8825 16.6517 70.2301 16.6517 70.2301C16.6517 70.2301 16.7505 70.2781 16.905 70.3741C16.8556 70.4007 16.8037 70.431 16.7454 70.4664C15.7627 71.0502 13.5933 72.6488 14.0733 75.1421C14.5393 77.5431 17.2596 75.2065 18.5817 73.8999L18.7008 73.7811C18.6805 73.9157 18.6526 74.049 18.6172 74.1804C18.9032 73.735 19.2579 73.3375 19.6683 73.0026C20.1099 72.6466 20.4726 72.2029 20.7334 71.6997C20.9335 71.3206 21.2539 70.9415 21.7465 70.8152C22.8305 70.5422 28.3319 66.3227 29.5388 64.1339C30.7456 61.9452 33.2734 61.101 33.2734 61.101L34.4335 64.7215C34.6104 65.2751 34.6414 65.8649 34.5234 66.4339C34.2701 67.6673 33.9522 70.0506 34.7197 71.9045C34.7197 71.9045 34.7551 71.8716 34.8197 71.8173C34.9248 72.2874 35.0591 72.9053 35.1806 73.5132C35.2098 73.6623 35.2376 73.8114 35.2642 73.958C35.3415 74.3712 35.4061 74.7592 35.4428 75.0688C35.6036 76.3982 36.0456 79.4463 36.4065 79.7584C36.7675 80.0706 38.8127 86.4005 38.8127 86.4005C38.8127 86.4005 40.6199 90.5429 40.34 92.3791C40.3145 92.604 40.3184 92.8313 40.3514 93.0552C40.4137 93.5119 40.5059 93.964 40.6275 94.4086C40.663 94.5426 40.6984 94.679 40.7389 94.8181C40.7719 94.9381 40.8073 95.0607 40.8428 95.1833C41.7179 98.1467 43.3921 102.108 43.3921 102.108C43.3921 102.108 43.5314 102.469 43.7125 102.95C43.772 103.112 43.8391 103.287 43.9037 103.468C44.2013 104.277 44.5154 105.184 44.5154 105.39C44.5154 105.437 44.5787 105.489 44.6889 105.542C44.4021 106.018 44.1482 106.513 43.929 107.023C43.577 107.852 42.5639 108.673 42.5639 108.673C42.5639 108.673 41.3582 109.015 41.3582 110.063V110.865C41.3582 110.865 43.9189 110.815 44.7623 111.05C45.6058 111.285 46.7304 110.884 46.7304 110.884L46.971 110.573C46.971 110.573 49.8926 110.699 50.0737 109.975C50.1269 109.763 50.1244 109.31 50.0813 108.771C50.0261 108.113 49.9288 107.459 49.79 106.813C49.9825 106.806 50.1142 106.793 50.1142 106.793C50.1142 106.793 51.4503 107.652 51.5896 108.503C51.6323 108.753 51.729 108.99 51.8728 109.2C52.0167 109.409 52.2044 109.584 52.4229 109.713C52.4229 109.713 53.8096 110.345 56.4691 110.056C57.8622 109.908 58.1243 109.2 57.9964 108.571C57.8799 107.995 57.4341 107.484 57.2226 107.526C56.7819 107.614 55.0039 105.064 55.0039 105.064L54.1009 103.169C54.182 102.158 53.9439 101.679 53.6095 101.475C53.8388 99.3434 53.8691 96.4861 53.8691 96.4861C53.8691 96.4861 54.0705 93.0476 53.8691 89.9604C53.6678 86.8731 53.6678 80.8174 52.9827 78.7854C52.6661 77.8401 52.2076 75.1926 51.81 72.6324C51.7796 72.4403 51.7492 72.2533 51.7213 72.0599C51.6251 71.4369 51.5351 70.8278 51.4516 70.2566C51.4908 70.2376 51.5313 70.2187 51.5668 70.1985L51.3515 68.3231L51.3211 68.0641C51.3287 68.0716 51.3388 68.0767 51.3464 68.083C52.0696 68.7465 51.1058 65.0741 51.1058 65.0741C51.1058 65.0741 50.6714 60.8508 50.7006 58.422C50.7033 57.5578 50.6572 56.6941 50.5625 55.8351C50.4891 55.1123 50.66 54.1734 51.7542 53.5124C52.0417 53.3314 52.3114 53.1236 52.5597 52.892C52.8649 52.6152 53.531 52.2601 54.9659 52.2184C57.3721 52.1413 59.7782 50.8902 59.7782 50.8902C59.7782 50.8902 62.5504 51.0469 63.8308 49.4054C65.1111 47.7638 68.3291 47.3746 68.3291 47.3746L67.9352 44.0511ZM18.317 71.7756L17.9612 71.2777C18.0934 71.4335 18.2124 71.6001 18.317 71.7756ZM48.6059 92.1023C48.5857 92.3551 48.5705 92.6521 48.5679 92.9869C48.5578 94.0333 48.6616 95.4284 49.134 96.7616L48.9327 102.012H48.9162C48.7465 101.995 48.5882 102.53 48.4653 103.237C48.3649 102.945 48.2403 102.663 48.093 102.391C47.8524 102.04 48.0538 100.088 48.0538 100.088C48.0538 100.088 47.0482 98.4853 46.9697 98.1328C46.8912 97.7802 45.683 92.0758 45.683 92.0758C45.683 92.0758 45.6032 87.6225 45.1613 86.4902C44.7193 85.3579 44.599 80.4333 44.599 80.4333C44.599 80.4333 46.8076 83.9881 46.9697 85.7863L48.6958 91.2961C48.6958 91.2961 48.6426 91.5969 48.6059 92.1023Z" fill="url(#paint0_linear_1304_24425)"/>
<path d="M53.437 96.3231C53.437 96.3231 53.3711 102.575 52.7113 103.425C52.0515 104.276 48.6006 103.464 48.6006 103.464L48.8538 96.5936C48.3967 95.2743 48.2954 93.8918 48.3067 92.8555C48.3067 92.5244 48.3232 92.2237 48.3422 91.9798C48.3789 91.4743 48.4296 91.1761 48.4296 91.1761L46.7617 85.7194C46.606 83.9375 44.4733 80.4118 44.4733 80.4118C44.4733 80.4118 44.5898 85.2884 45.0166 86.4106C45.4434 87.5328 45.5232 91.9444 45.5232 91.9444C45.5232 91.9444 46.687 97.5957 46.7643 97.9445C46.8415 98.2933 47.8116 99.8792 47.8116 99.8792C47.8116 99.8792 47.6178 101.814 47.8508 102.163C48.0839 102.512 49.0527 105.221 48.8196 105.724C48.5866 106.227 44.3986 105.529 44.3986 105.143C44.3986 104.939 44.0946 104.039 43.8072 103.238L43.6223 102.725C43.4475 102.249 43.312 101.892 43.312 101.892C43.312 101.892 41.6961 97.9672 40.8514 95.0316C40.8159 94.9053 40.783 94.789 40.75 94.6715C40.7121 94.5325 40.6766 94.3973 40.6437 94.2646C40.5265 93.8241 40.4373 93.3767 40.3764 92.925C40.3447 92.7031 40.3408 92.4781 40.3651 92.2553C40.6361 90.4355 38.8909 86.3335 38.8909 86.3335C38.8909 86.3335 36.9128 80.063 36.5633 79.7534C36.2137 79.4438 35.787 76.426 35.6325 75.1093C35.597 74.8009 35.5349 74.4167 35.4602 74.0086C35.4349 73.8632 35.407 73.7154 35.3792 73.5663C35.1423 72.3468 34.8511 71.0843 34.8511 71.0843L39.2012 68.2195L50.6433 66.9811C50.6433 66.9811 50.9624 69.4276 51.3639 72.1244C51.3917 72.3114 51.4209 72.5035 51.45 72.6918C51.8299 75.2268 52.277 77.8502 52.5822 78.7854C53.2407 80.7985 53.2407 86.7973 53.4357 89.8542C53.6308 92.9111 53.437 96.3231 53.437 96.3231Z" fill="#63667E"/>
<path opacity="0.1" d="M42.1826 70.556L43.6225 77.8919H44.3064L42.9387 70.3008L42.1826 70.556Z" fill="black"/>
<path opacity="0.1" d="M35.4653 74.0098C35.44 73.8645 35.4121 73.7167 35.3843 73.5675C36.0542 73.4311 37.5701 72.8738 37.3346 70.6395H37.7993C37.7993 70.6395 38.24 73.5827 35.4653 74.0098Z" fill="black"/>
<path opacity="0.1" d="M51.4556 72.6969C50.5869 72.8561 47.8717 73.3224 47.303 73.0141C46.6255 72.6463 45.9556 70.6535 45.9556 70.6535L46.5761 70.5562C46.5761 70.5562 46.029 73.4791 51.3695 72.1295C51.3974 72.3165 51.4265 72.5061 51.4556 72.6969Z" fill="black"/>
<path d="M51.2211 70.2857C50.4385 70.7394 48.6009 70.958 46.4619 71.0439C46.2669 71.0515 46.0706 71.0591 45.8705 71.0641C42.4031 71.1728 38.3543 70.977 36.7409 70.8847C36.2863 70.8594 36.0254 70.8417 36.0254 70.8417L37.4412 69.8649L39.7689 69.0131L44.6649 68.0553L50.9387 67.8809L51.002 68.4179L51.2211 70.2857Z" fill="#33363D"/>
<path d="M46.4622 71.049C46.2672 71.0566 46.0709 71.0641 45.8708 71.0692C45.6251 70.0304 44.8501 68.3699 44.8501 68.3699L45.5086 68.2827L46.4622 71.049Z" fill="#63667E"/>
<path d="M20.0456 73.2035C20.0456 73.2035 19.7721 73.5195 19.3516 73.9466C18.0751 75.2419 15.4473 77.5557 14.999 75.1774C14.5342 72.7119 16.6301 71.1336 17.5787 70.5497C17.8471 70.3842 18.0232 70.297 18.0232 70.297L20.0456 73.2035Z" fill="#FFA2A2"/>
<path d="M43.5507 45.3514C43.5507 45.3514 42.0677 44.4226 41.7916 44.5098C41.5156 44.597 41.7916 45.843 41.7916 45.843C41.434 46.5239 40.8685 47.0736 40.177 47.4125C39.3843 47.8261 38.6167 48.286 37.8784 48.79C37.3068 48.7343 36.7299 48.7986 36.1847 48.9786C35.6394 49.1585 35.138 49.4503 34.7124 49.8351C34.4148 50.0347 34.0782 50.169 33.7247 50.2292C33.3713 50.2893 33.0091 50.2738 32.662 50.1838C31.5121 49.8654 31.4551 48.2984 31.6147 47.7032C31.7414 47.2356 33.6587 46.0225 34.4844 45.517C34.7124 45.378 34.8567 45.2933 34.8567 45.2933C34.8567 45.2933 38.5825 45.1669 39.4234 43.581C39.6822 43.0908 40.0679 42.6788 40.5404 42.388L40.5619 42.3766L40.6683 42.3135L40.7025 42.2945C41.0939 42.0793 41.5245 41.9444 41.9689 41.8977C43.7888 43.0578 43.5507 45.3514 43.5507 45.3514Z" fill="#CED7E7"/>
<path opacity="0.1" d="M43.5507 45.3514C43.5507 45.3514 42.0677 44.4226 41.7916 44.5098C41.5156 44.597 41.7916 45.843 41.7916 45.843C41.434 46.5239 40.8685 47.0736 40.177 47.4125C39.3843 47.8261 38.6167 48.286 37.8784 48.79C37.3068 48.7343 36.7299 48.7986 36.1847 48.9786C35.6394 49.1585 35.138 49.4503 34.7124 49.8351C34.4148 50.0347 34.0782 50.169 33.7247 50.2292C33.3713 50.2893 33.0091 50.2738 32.662 50.1838C31.5121 49.8654 31.4551 48.2984 31.6147 47.7032C31.7414 47.2356 33.6587 46.0225 34.4844 45.517C34.7124 45.378 34.8567 45.2933 34.8567 45.2933C34.8567 45.2933 38.5825 45.1669 39.4234 43.581C39.6822 43.0908 40.0679 42.6788 40.5404 42.388L40.5619 42.3766L40.6683 42.3135L40.7025 42.2945C41.0939 42.0793 41.5245 41.9444 41.9689 41.8977C43.7888 43.0578 43.5507 45.3514 43.5507 45.3514Z" fill="black"/>
<path opacity="0.1" d="M51.0023 68.423C50.3045 67.7646 45.9607 68.9639 45.9607 68.9639C45.9607 68.9639 42.9695 69.8207 40.6874 69.9597C40.3767 69.9803 40.0651 69.9841 39.754 69.971C38.7954 69.9218 37.7961 70.3085 36.9578 70.7722L36.7463 70.8986C36.2916 70.8733 36.0308 70.8556 36.0308 70.8556L37.4466 69.8788L39.7743 69.0271L44.6703 68.0692L50.9441 67.8948L51.0023 68.423Z" fill="black"/>
<path opacity="0.1" d="M19.3516 73.9466C19.6416 72.0182 18.1422 70.8973 17.5786 70.5497C17.8471 70.3842 18.0231 70.297 18.0231 70.297L20.0494 73.2035C20.0494 73.2035 19.772 73.5195 19.3516 73.9466Z" fill="black"/>
<path d="M67.4044 47.6741C67.4044 47.6741 64.3004 48.0532 63.0606 49.6859C61.8208 51.3186 59.1423 51.1569 59.1423 51.1569C59.1423 51.1569 56.8146 52.3953 54.4882 52.4724C53.1065 52.5179 52.4619 52.8641 52.1681 53.1384C51.9292 53.3678 51.6688 53.5739 51.3905 53.7538C50.3344 54.4084 50.1685 55.3372 50.2406 56.0537C50.3311 56.905 50.3755 57.7605 50.3736 58.6165C50.3458 61.0176 50.7649 65.2055 50.7649 65.2055C50.7649 65.2055 51.6958 68.8437 50.9967 68.1866C50.2976 67.5295 45.9551 68.7275 45.9551 68.7275C45.9551 68.7275 42.9638 69.5843 40.6817 69.7245C40.371 69.7448 40.0594 69.7481 39.7484 69.7347C38.7897 69.6854 37.7905 70.0721 36.9521 70.5371C36.2307 70.9432 35.5559 71.4267 34.9398 71.979C34.1977 70.1428 34.5067 67.781 34.7498 66.5602C34.8634 65.9966 34.8338 65.4136 34.6637 64.8643L33.5429 61.2779C33.5429 61.2779 31.1 62.1094 29.9362 64.2767C28.7723 66.444 23.4585 70.6243 22.4099 70.896C21.9299 71.0224 21.6209 71.3952 21.4271 71.7667C21.178 72.2635 20.8283 72.7032 20.4001 73.0582C20.0032 73.3916 19.6613 73.7852 19.3869 74.2246C20.086 71.5923 17.4873 70.3147 17.4873 70.3147C17.4873 70.3147 18.5334 69.9659 18.9601 68.5758C19.3869 67.1858 21.3663 65.7514 21.3663 65.7514C21.3663 65.7514 23.3837 62.1903 24.5476 61.609C25.7114 61.0277 27.8061 58.2425 27.8061 58.2425C28.2316 55.1072 30.2123 53.4821 30.2123 53.4821C30.2123 53.4821 32.3854 52.5533 32.6185 51.7862C32.6995 51.5233 32.9655 51.0343 33.2833 50.5061C33.5797 50.0082 33.9165 49.4787 34.1888 49.0654C34.4611 48.6522 34.6751 48.3337 34.6751 48.3337L38.1578 48.3009L38.791 48.2946L40.6463 44.8092C40.6463 44.8092 41.3061 44.1521 42.4496 44.9255C42.7784 45.1446 43.1693 45.2518 43.5641 45.2313C44.0825 45.1979 44.5851 45.0401 45.0293 44.7713C49.4517 43.5708 51.3133 45.843 51.3133 45.843C51.3133 45.843 54.3768 45.5839 54.5313 45.843C54.6858 46.102 56.2764 45.843 56.2764 45.843L60.5049 45.4285L67.0219 44.3846L67.4044 47.6741Z" fill="#CED7E7"/>
<path d="M41.9602 46.5127L39.9821 49.763C39.9821 49.763 34.591 53.6729 35.3673 50.6147C35.4931 50.1003 35.5379 49.5695 35.5003 49.0414C35.4889 48.8354 35.4648 48.6294 35.4344 48.426C35.2938 47.5826 35.0453 46.7608 34.6948 45.9807C34.6556 45.8872 34.615 45.7974 34.5682 45.709C34.5074 45.5826 34.4479 45.4562 34.3883 45.3375C34.1387 44.833 33.8548 44.3462 33.5386 43.8804C33.5386 43.8804 39.3958 39.12 39.5895 42.0998C39.632 42.773 39.786 43.4345 40.0454 44.0573L40.091 44.1622C40.417 44.8968 40.8857 45.5595 41.4701 46.1121C41.623 46.258 41.7868 46.3919 41.9602 46.5127Z" fill="#FFA2A2"/>
<path d="M34.1255 49.5317L35.0373 52.2399L38.7466 52.8401L40.8742 50.5048C40.8742 50.5048 42.0963 48.7634 42.1736 48.7242C42.2508 48.6851 42.4446 47.022 42.4446 47.022L42.6725 46.0818L41.2377 45.6003L39.2203 47.7866L38.3958 48.292L37.4802 48.5145L34.4408 49.3991L34.1255 49.5317Z" fill="#CED7E7"/>
<path opacity="0.1" d="M43.5505 45.5839C43.5505 45.5839 42.5374 45.5738 42.2676 45.661C41.9979 45.7482 41.7915 46.0742 41.7915 46.0742C41.4341 46.7557 40.8685 47.3059 40.1768 47.645C39.3841 48.0586 38.6166 48.5185 37.8782 49.0225C37.3066 48.9665 36.7296 49.0306 36.1844 49.2106C35.6391 49.3906 35.1376 49.6825 34.7122 50.0676C34.2878 50.3518 33.7885 50.504 33.2773 50.5048C33.5737 50.0069 33.9106 49.4774 34.1828 49.0642C35.4341 48.9277 38.0821 48.4437 38.0821 48.4437L38.1518 48.2996C38.3975 47.7942 39.2295 46.0869 39.536 45.5713C39.8931 44.9698 41.0126 43.0906 41.0481 43.0312L39.9488 44.0346L40.5364 42.6218L40.558 42.6104L40.6644 42.5472L40.6985 42.5283C41.0899 42.313 41.5205 42.1781 41.965 42.1315C43.3517 43.0161 43.5493 44.5452 43.5644 45.2339C43.5664 45.3507 43.5618 45.4676 43.5505 45.5839Z" fill="black"/>
<path opacity="0.1" d="M34.4804 45.2857L34.7679 45.9176C34.7679 45.9176 34.7438 45.9378 34.6932 45.9757C34.6539 45.8822 34.6134 45.7924 34.5665 45.704C34.5058 45.5776 34.4462 45.4512 34.3867 45.3325C34.4171 45.3148 34.445 45.2958 34.4728 45.2806L34.4804 45.2857Z" fill="black"/>
<path opacity="0.1" d="M41.4749 46.1121C41.126 46.5588 40.6828 46.9234 40.1768 47.18C39.3839 47.5937 38.6164 48.0541 37.8783 48.5587C37.0549 48.4774 36.2261 48.6456 35.4999 49.0414C35.4885 48.8354 35.4645 48.6294 35.4341 48.426C36.6802 48.2339 38.0822 47.9774 38.0822 47.9774C38.0822 47.9774 39.1738 45.7141 39.536 45.105C39.6626 44.9002 39.8703 44.5426 40.0958 44.1622C40.4217 44.8968 40.8905 45.5596 41.4749 46.1121Z" fill="black"/>
<path d="M43.5507 45.3515C43.5507 45.3515 42.5376 45.3413 42.2666 45.4285C41.9955 45.5157 41.7916 45.843 41.7916 45.843C41.434 46.524 40.8685 47.0736 40.177 47.4126C39.3843 47.8261 38.6167 48.2861 37.8784 48.79C37.3068 48.7344 36.7299 48.7986 36.1847 48.9786C35.6394 49.1586 35.138 49.4503 34.7124 49.8351C34.4148 50.0347 34.0782 50.1691 33.7247 50.2292C33.3713 50.2893 33.0091 50.2739 32.662 50.1839C31.5121 49.8654 31.4551 48.2984 31.6147 47.7032C31.7414 47.2356 33.6587 46.0225 34.4844 45.517L34.7719 46.1552C34.173 46.6133 33.5457 47.0332 32.8938 47.4126C31.6565 48.1518 32.2821 48.9505 32.2821 48.9505C32.7273 48.8735 33.1794 48.8439 33.6309 48.862C34.2717 48.905 38.0823 48.2087 38.0823 48.2087C38.0823 48.2087 39.174 45.9441 39.5362 45.3363C39.8984 44.7284 41.0128 42.8556 41.0483 42.7962L39.949 43.8072L40.5366 42.3944L40.5582 42.383L40.6645 42.3198L40.6987 42.3009C41.0901 42.0856 41.5207 41.9507 41.9651 41.9041C43.7888 43.0578 43.5507 45.3515 43.5507 45.3515Z" fill="#CED7E7"/>
<path opacity="0.1" d="M40.0505 44.0598C39.4807 44.9384 38.6168 45.5865 37.6127 45.8886C36.6086 46.1906 35.5296 46.127 34.5682 45.709C34.2756 45.0724 33.9312 44.4609 33.5386 43.8804C33.5386 43.8804 39.3958 39.12 39.5895 42.0998C39.6333 42.7741 39.7891 43.4365 40.0505 44.0598Z" fill="black"/>
<path d="M40.6466 41.43C40.6466 41.5404 40.6429 41.6491 40.6353 41.7561C40.552 42.912 40.0174 43.9892 39.1464 44.7558C38.2755 45.5225 37.1378 45.9174 35.978 45.8557C34.8182 45.7939 33.7291 45.2804 32.9449 44.4256C32.1606 43.5708 31.7439 42.443 31.7844 41.2848C31.8249 40.1266 32.3194 39.0305 33.1614 38.2323C34.0034 37.4341 35.1258 36.9976 36.287 37.0166C37.4482 37.0356 38.5556 37.5087 39.3709 38.3341C40.1862 39.1594 40.6443 40.2711 40.6466 41.43Z" fill="#FFA2A2"/>
<path opacity="0.1" d="M29.1621 55.6469C29.1621 55.6469 30.136 57.4653 31.334 58.4662C32.532 59.467 33.2336 61.0214 33.2336 61.0214C33.2336 61.0214 32.8854 58.0075 29.1621 55.6469Z" fill="black"/>
<path opacity="0.1" d="M27.6479 60.2139C27.6479 60.2139 31.0673 59.3621 32.7883 60.2139H27.6479Z" fill="black"/>
<path opacity="0.1" d="M26.4072 65.2902L30.0862 64.0265C30.0862 64.0265 27.7294 65.7098 26.4072 65.2902Z" fill="black"/>
<path opacity="0.1" d="M20.0464 70.2376C20.0464 70.2376 21.637 70.1606 22.141 70.6635C22.141 70.6635 20.5897 70.7798 20.0464 70.2376Z" fill="black"/>
<path opacity="0.1" d="M57.1615 45.7545C57.1615 45.7545 53.5953 47.8674 53.437 51.2731L57.1615 45.7545Z" fill="black"/>
<path opacity="0.1" d="M61.4707 48.9504C61.4707 48.9504 57.0483 49.8414 56.3113 50.3051C55.5742 50.7689 53.9849 51.0014 53.9849 51.0014C53.9849 51.0014 60.3841 50.151 61.4707 48.9504Z" fill="black"/>
<path opacity="0.1" d="M48.4985 67.6293C48.1768 67.9629 44.2066 68.9031 40.6581 69.6892C40.336 69.7104 40.013 69.7142 39.6905 69.7005C38.6964 69.65 37.6643 70.0481 36.7904 70.5257C35.719 70.7532 35.0263 70.896 35.0263 70.896C35.0263 70.896 33.8599 69.9786 35.4683 67.9073C37.0766 65.8361 37.3591 62.5682 37.3591 62.5682L44.5194 60.7408C44.5194 60.7408 46.4507 63.3946 47.3751 63.8205C48.2996 64.2464 49.0937 67.0152 48.4985 67.6293Z" fill="black"/>
<path d="M48.2447 67.7216C47.9332 68.0477 44.1048 68.9601 40.6829 69.7246C40.3722 69.7448 40.0607 69.7482 39.7496 69.7347C38.7909 69.6854 37.7917 70.0721 36.9533 70.5372C35.92 70.7571 35.2513 70.8961 35.2513 70.8961C35.2513 70.8961 34.1267 70.0051 35.6781 67.9895C37.2294 65.9739 37.5004 62.802 37.5004 62.802L44.4049 61.0227C44.4049 61.0227 46.2666 63.6007 47.1581 64.0152C48.0497 64.4297 48.8146 67.1264 48.2447 67.7216Z" fill="#CED7E7"/>
<path opacity="0.1" d="M42.6399 93.0918L40.6466 94.2696C40.5295 93.8291 40.4402 93.3817 40.3794 92.9301C40.6694 93.1714 42.6399 93.0918 42.6399 93.0918Z" fill="black"/>
<path opacity="0.1" d="M40.7554 94.6765C41.4595 94.5425 43.1312 94.2089 44.0481 93.8955C43.2173 94.2999 41.7141 94.976 40.8605 95.0328C40.8212 94.9153 40.7883 94.794 40.7554 94.6765Z" fill="black"/>
<path opacity="0.1" d="M44.6362 93.5973C44.5627 93.687 44.3474 93.7881 44.0498 93.8905C44.4057 93.7237 44.6362 93.5973 44.6362 93.5973Z" fill="black"/>
<path opacity="0.1" d="M45.8391 103.328C45.2743 103.375 44.3561 103.299 43.8128 103.243L43.6279 102.73C44.2092 102.792 45.3629 102.889 45.8391 102.748C46.4888 102.556 46.6838 103.261 45.8391 103.328Z" fill="black"/>
<path opacity="0.1" d="M50.8858 93.0425C50.7921 93.0299 49.285 92.8605 48.3149 92.8555C48.3149 92.5244 48.3314 92.2236 48.3504 91.9797C49.0191 92.2615 50.7857 93.0084 50.8858 93.0425Z" fill="black"/>
<path d="M49.7762 109.686C49.6014 110.405 46.7798 110.278 46.7798 110.278L46.5468 110.587C46.5468 110.587 45.4615 110.983 44.6472 110.751C43.8329 110.518 41.3545 110.568 41.3545 110.568V109.773C41.3545 108.738 42.5183 108.399 42.5183 108.399C42.5183 108.399 43.4973 107.587 43.8367 106.764C44.0483 106.255 44.2941 105.76 44.5725 105.284C44.5725 105.284 43.6619 104.181 46.1048 103.894C48.511 103.616 47.5675 105.796 47.5409 105.857C47.5802 105.821 48.4832 105.011 48.9847 105.266C49.3468 105.452 49.6749 107.211 49.7774 108.485C49.8243 109.026 49.8268 109.475 49.7762 109.686Z" fill="#CED7E7"/>
<path opacity="0.1" d="M49.7762 109.686C49.6014 110.405 46.7798 110.278 46.7798 110.278L46.5468 110.587C46.5468 110.587 45.4615 110.983 44.6472 110.751C43.8329 110.518 41.3545 110.568 41.3545 110.568V109.809C42.8463 109.883 45.8325 109.981 46.5037 109.636C46.5037 109.636 47.3079 109.433 47.4928 109.298C47.6486 109.183 49.2873 108.648 49.7724 108.49C49.8243 109.026 49.8268 109.475 49.7762 109.686Z" fill="black"/>
<path d="M55.9524 109.765C53.3829 110.046 52.0443 109.425 52.0443 109.425C51.8315 109.295 51.6494 109.121 51.5106 108.914C51.3718 108.707 51.2795 108.472 51.2401 108.226C51.1046 107.384 49.8141 106.534 49.8141 106.534C49.8141 106.534 48.2248 106.688 48.0297 106.223C47.9829 106.026 47.965 105.823 47.9766 105.62C47.9766 104.373 48.2894 101.753 48.6503 101.791C49.0758 101.838 50.3916 103.577 50.5233 103.751C50.4081 103.564 49.2632 101.617 51.8024 101.386C51.8024 101.386 53.8768 100.215 53.664 102.944L54.5366 104.82C54.5366 104.82 56.2539 107.348 56.6794 107.259C56.8833 107.218 57.3126 107.723 57.4266 108.294C57.5494 108.917 57.2948 109.619 55.9524 109.765Z" fill="#CED7E7"/>
<path opacity="0.1" d="M40.6466 41.4301C40.6466 41.5404 40.6428 41.6491 40.6352 41.7561L40.5275 41.7965L40.1109 41.9482C40.0407 41.9782 39.9656 41.9954 39.8893 41.9987C39.8297 41.9963 39.7715 41.9803 39.7191 41.9521C39.6667 41.9238 39.6213 41.884 39.5866 41.8357C39.5266 41.7443 39.4837 41.6429 39.46 41.5362L39.1446 40.3269C39.0813 40.0868 38.9838 39.81 38.714 39.7203C38.6353 39.7031 38.5578 39.6803 38.4823 39.652C38.3139 39.5724 38.2784 39.3854 38.2214 39.2287C38.0948 38.8635 37.7566 38.5716 37.3906 38.3441C37.1432 38.1712 36.8492 38.077 36.5472 38.0737C36.3855 38.0762 36.2291 38.1322 36.1027 38.2329C35.838 38.4566 35.8747 38.7586 35.9064 39.077C35.9381 39.3955 36.0229 39.7354 35.9292 40.0539C35.8659 40.2611 35.7304 40.4545 35.7063 40.6693C35.686 40.8425 35.743 41.0181 35.7329 41.1912C35.7309 41.2847 35.6973 41.3748 35.6375 41.4469C35.5778 41.5189 35.4953 41.5687 35.4036 41.588C35.3872 41.4832 35.2339 41.449 35.1313 41.3922C34.8996 41.2658 34.8869 40.9903 34.8971 40.7603C34.9148 40.4166 34.9313 40.0716 34.9477 39.7279C34.8454 40.4967 34.6867 41.2569 34.4728 42.0025C34.4465 42.1322 34.3862 42.2525 34.298 42.3513C34.2461 42.4029 34.1799 42.4379 34.1079 42.4516C34.0359 42.4653 33.9614 42.4573 33.8941 42.4284C33.8157 42.3791 33.7577 42.3033 33.7307 42.2148C33.5689 41.8145 33.5131 41.3793 33.5686 40.9511C33.428 41.511 33.2874 42.0771 33.0164 42.6028C32.9088 42.8113 32.7454 43.0375 32.4807 43.0792C32.4 43.0818 32.3199 43.0949 32.2427 43.1184C32.2118 43.133 32.1839 43.1531 32.1603 43.1778C31.9023 42.5766 31.7814 41.9256 31.8065 41.2721C31.8315 40.6185 32.0019 39.9787 32.3053 39.3989C32.6087 38.8191 33.0374 38.3139 33.5605 37.9198C34.0836 37.5258 34.688 37.2527 35.3299 37.1204C35.9718 36.9881 36.6352 36.9998 37.2719 37.1548C37.9087 37.3098 38.503 37.6041 39.0117 38.0165C39.5205 38.4289 39.931 38.949 40.2135 39.5391C40.4961 40.1293 40.6435 40.7748 40.6453 41.4288L40.6466 41.4301Z" fill="black"/>
<path d="M36.1024 38.0068C36.2285 37.9054 36.3849 37.8489 36.5469 37.8463C36.8488 37.85 37.1427 37.9442 37.3903 38.1167C37.7563 38.3392 38.0894 38.6298 38.2211 39.0013C38.2781 39.158 38.3123 39.3463 38.4744 39.4259C38.5502 39.4528 38.6276 39.4752 38.7061 39.4929C38.9771 39.5826 39.0746 39.8594 39.1367 40.0995L39.4546 41.3089C39.4752 41.4154 39.5161 41.5171 39.5749 41.6084C39.6095 41.6569 39.6547 41.697 39.7072 41.7254C39.7596 41.7539 39.8179 41.77 39.8776 41.7727C39.9544 41.7693 40.03 41.7517 40.1004 41.7208L40.5171 41.5692C40.7362 41.4896 40.9743 41.3948 41.0743 41.2103C41.1268 41.0913 41.1444 40.9598 41.125 40.8312C41.1006 40.4451 41.0464 40.0615 40.9629 39.6837L41.4416 40.0085C41.5568 40.0856 41.7012 40.1677 41.838 40.1248C41.8824 40.1082 41.9224 40.0816 41.9547 40.0469C41.987 40.0122 42.0108 39.9705 42.0241 39.9251C42.1103 39.6875 42.0482 39.4032 42.228 39.2073C42.2711 39.1618 42.3243 39.1227 42.3623 39.0746C42.5256 38.8649 42.3319 38.5805 42.399 38.3354C42.4636 38.3608 42.5348 38.3643 42.6017 38.3453C42.6685 38.3264 42.7272 38.286 42.7688 38.2305C42.8346 38.1245 42.8668 38.0012 42.8612 37.8766C42.8992 37.1626 42.917 36.3893 42.4269 35.8079C42.5168 35.2241 41.8962 34.5885 41.2098 34.5089C41.0389 34.4886 40.8299 34.4785 40.7552 34.3484C40.7287 34.2857 40.717 34.2178 40.721 34.15C40.7033 33.9288 40.5551 33.7317 40.412 33.5459C40.3548 33.464 40.2847 33.3918 40.2043 33.3323C39.9776 33.1832 39.6547 33.2237 39.3735 33.2742C38.8577 33.366 38.3452 33.4692 37.8361 33.5838C37.7764 33.3341 37.7803 33.0734 37.8475 32.8256C37.8994 32.6386 37.9881 32.4465 37.8918 32.2594C37.8673 32.2127 37.8311 32.1731 37.7867 32.1446C37.7424 32.116 37.6913 32.0994 37.6385 32.0964C37.5715 32.0947 37.5055 32.1125 37.4486 32.1478C37.3916 32.183 37.3463 32.2342 37.3181 32.2948C37.0265 32.73 36.825 33.2189 36.7254 33.7329C36.5341 33.5979 36.3117 33.5131 36.0788 33.4866C35.8459 33.4601 35.6101 33.4927 35.3932 33.5813C35.2837 33.6427 35.1647 33.6854 35.0411 33.7077C34.9381 33.7062 34.8373 33.6781 34.7485 33.6261C34.6596 33.574 34.5859 33.4998 34.5345 33.4107C34.3952 33.1959 34.3319 32.9406 34.0609 32.8003C34.0006 32.7686 33.9334 32.752 33.8652 32.752C33.7971 32.752 33.7299 32.7686 33.6696 32.8003C33.3112 33.0088 33.7582 33.5257 33.4923 33.7974C33.4185 33.8608 33.3322 33.9081 33.239 33.9364L32.5741 34.1803C32.2197 34.3314 31.8436 34.4256 31.4597 34.4596C31.019 34.4773 30.5732 34.342 30.1401 34.433C30.3143 34.6309 30.5457 34.77 30.8024 34.8311C30.9595 34.8703 31.1254 34.8829 31.2786 34.9335C31.3529 34.95 31.4218 34.9851 31.4787 35.0355C31.5356 35.0859 31.5788 35.1499 31.6041 35.2216C31.6383 35.3998 31.466 35.5716 31.5002 35.7498C31.5262 35.8263 31.5789 35.8909 31.6486 35.932C31.7183 35.973 31.8005 35.9878 31.8801 35.9735L31.0937 36.479C30.9519 36.57 30.7935 36.7027 30.8467 36.8467L31.1 36.92L30.4174 37.8969C30.3288 37.9959 30.2781 38.123 30.2743 38.2558C30.281 38.2898 30.2945 38.3221 30.3142 38.3506C30.3339 38.3792 30.3592 38.4034 30.3887 38.4218C30.4182 38.4402 30.4511 38.4523 30.4854 38.4574C30.5198 38.4626 30.5548 38.4606 30.5884 38.4516C30.4248 38.6216 30.2958 38.8216 30.2085 39.0405C30.1926 39.0692 30.1837 39.1012 30.1826 39.1339C30.1815 39.1666 30.1882 39.1992 30.2021 39.2288C30.2322 39.2613 30.2696 39.2861 30.3112 39.3013C30.3529 39.3165 30.3975 39.3215 30.4415 39.316C30.8087 39.316 31.1494 39.0633 31.2013 38.7511C31.314 38.8775 31.1937 39.0266 31.0861 39.1542C30.6542 39.6724 30.2135 40.2006 29.9843 40.8047C29.7551 41.4087 29.7652 42.1139 30.1945 42.6332C30.2896 42.7337 30.3744 42.8434 30.4478 42.9605C30.5846 43.2209 30.5061 43.5545 30.7188 43.7756C30.8899 43.3078 31.0974 42.854 31.3394 42.4184C31.3257 42.5716 31.3033 42.7239 31.2723 42.8746C31.262 42.9544 31.2775 43.0353 31.3164 43.1058C31.3554 43.1762 31.4157 43.2324 31.4888 43.2664C31.7117 43.3472 31.9435 43.1741 32.0891 43.0136C32.1253 42.9659 32.1716 42.9266 32.2246 42.8986C32.3016 42.8757 32.3811 42.8625 32.4614 42.8594C32.7261 42.8177 32.8882 42.5928 32.9971 42.383C33.2681 41.8586 33.41 41.2924 33.5493 40.7301C33.4934 41.1583 33.5496 41.5937 33.7126 41.9938C33.7388 42.0823 33.7965 42.1582 33.8747 42.2074C33.9423 42.2357 34.0167 42.2434 34.0887 42.2295C34.1606 42.2155 34.2267 42.1805 34.2787 42.129C34.3671 42.0304 34.4275 41.91 34.4535 41.7802C34.6669 41.0345 34.8256 40.2743 34.9284 39.5056L34.8777 40.538C34.8663 40.7705 34.8777 41.0435 35.1108 41.1699C35.2159 41.2267 35.364 41.2609 35.3843 41.3645C35.4761 41.346 35.5587 41.2966 35.6184 41.2246C35.6781 41.1526 35.7113 41.0624 35.7123 40.9689C35.7237 40.7945 35.6667 40.6202 35.687 40.4458C35.711 40.2322 35.8478 40.0388 35.9099 39.8303C36.0036 39.5131 35.9213 39.1808 35.8871 38.8547C35.8529 38.5287 35.8339 38.2292 36.1024 38.0068Z" fill="#896363"/>
<path opacity="0.1" d="M55.9524 109.765C53.3829 110.046 52.0443 109.425 52.0443 109.425C51.8315 109.295 51.6494 109.121 51.5106 108.914C51.3718 108.706 51.2795 108.472 51.2401 108.226C51.1046 107.384 49.8141 106.534 49.8141 106.534C49.8141 106.534 48.2248 106.688 48.0297 106.223C47.9829 106.026 47.965 105.823 47.9766 105.62C48.5642 105.761 49.918 106.083 50.3372 106.203C50.8817 106.357 52.4723 108.931 52.4723 108.931C54.0034 109.735 56.5375 108.704 57.4266 108.299C57.5494 108.917 57.2948 109.619 55.9524 109.765Z" fill="black"/>
<path opacity="0.1" d="M44.5727 105.284C44.5727 105.284 43.7901 106.482 47.5412 105.863L44.5727 105.284Z" fill="black"/>
<path opacity="0.1" d="M50.5249 103.751C50.5249 103.751 54.4812 104.609 53.6656 102.944L50.5249 103.751Z" fill="black"/>
<g opacity="0.1">
<path d="M31.5281 35.5349C31.5064 35.5908 31.4994 35.6513 31.5079 35.7106C31.5244 35.7788 31.5672 35.8378 31.6269 35.8749L31.8941 35.703C31.8232 35.7155 31.7502 35.7061 31.6848 35.6761C31.6194 35.6461 31.5647 35.5968 31.5281 35.5349Z" fill="black"/>
<path d="M30.8036 34.7931C30.9619 34.8322 31.1279 34.8449 31.2811 34.8954C31.409 34.9293 31.5186 35.0119 31.5863 35.1254C31.6081 35.07 31.615 35.0099 31.6066 34.951C31.5813 34.8794 31.5381 34.8153 31.4812 34.7649C31.4243 34.7145 31.3554 34.6794 31.2811 34.6629C31.1279 34.6123 30.9619 34.5997 30.8036 34.5605C30.6494 34.522 30.5032 34.4566 30.3718 34.3672C30.2948 34.3701 30.2181 34.3794 30.1426 34.395C30.3165 34.5926 30.5474 34.7316 30.8036 34.7931Z" fill="black"/>
<path d="M31.3583 42.1478C31.1159 42.5833 30.908 43.0371 30.7365 43.505C30.525 43.2839 30.6022 42.9503 30.4654 42.6899C30.3925 42.5724 30.3076 42.4628 30.2122 42.3626C29.9964 42.0984 29.8716 41.7718 29.8563 41.4313C29.8212 41.8504 29.9486 42.2669 30.2122 42.5951C30.3076 42.6953 30.3925 42.805 30.4654 42.9224C30.6022 43.1828 30.525 43.5151 30.7365 43.7375C30.8974 43.3 31.09 42.8747 31.3127 42.465C31.3404 42.3614 31.3557 42.255 31.3583 42.1478Z" fill="black"/>
<path d="M30.3107 38.0585C30.2882 38.1084 30.279 38.1632 30.2841 38.2177C30.2913 38.2565 30.3076 38.293 30.3316 38.3244C30.3556 38.3558 30.3866 38.3811 30.4221 38.3984C30.475 38.3215 30.5339 38.2488 30.5981 38.1811C30.5434 38.1976 30.4846 38.1944 30.432 38.172C30.3795 38.1496 30.3365 38.1094 30.3107 38.0585Z" fill="black"/>
<path d="M37.8068 33.0807C37.8124 32.9817 37.8281 32.8834 37.8537 32.7876C37.8993 32.6258 37.9702 32.4615 37.9259 32.2972C37.9082 32.3832 37.8778 32.4704 37.8537 32.55C37.8067 32.7227 37.7908 32.9024 37.8068 33.0807Z" fill="black"/>
<path d="M33.542 32.9392C33.5278 33.0863 33.5394 33.2346 33.5762 33.3777C33.5908 33.2307 33.5792 33.0822 33.542 32.9392Z" fill="black"/>
<path d="M31.2154 38.4806C31.1584 38.7877 30.8164 39.0392 30.4555 39.0455C30.3756 39.0518 30.2963 39.0274 30.2339 38.9772L30.2225 39.0025C30.2067 39.0312 30.1978 39.0631 30.1965 39.0958C30.1951 39.1284 30.2015 39.161 30.2149 39.1908C30.2453 39.2231 30.283 39.2477 30.3249 39.2626C30.3667 39.2776 30.4115 39.2824 30.4555 39.2767C30.605 39.2742 30.7512 39.2328 30.8798 39.1567C30.9545 39.0644 31.0305 38.9734 31.1052 38.8837C31.1448 38.8383 31.1812 38.7901 31.2141 38.7396C31.2168 38.731 31.2189 38.7221 31.2204 38.7131V38.7194C31.2472 38.6851 31.2613 38.6426 31.2603 38.5991C31.2594 38.5556 31.2435 38.5138 31.2154 38.4806Z" fill="black"/>
<path d="M30.917 36.5939C30.8876 36.6203 30.8663 36.6545 30.8556 36.6925C30.8448 36.7306 30.845 36.7708 30.8562 36.8087L30.9752 36.8428L31.1095 36.6495L30.917 36.5939Z" fill="black"/>
<path d="M42.3691 38.8117C42.3311 38.8597 42.2779 38.8989 42.2349 38.938C42.0538 39.1339 42.1171 39.4182 42.031 39.6558C42.0175 39.7012 41.9936 39.7428 41.9613 39.7774C41.929 39.812 41.8892 39.8388 41.8448 39.8555C41.708 39.8985 41.5637 39.8163 41.4484 39.7392L40.9697 39.4145C40.9887 39.5029 41.0065 39.5926 41.0229 39.6824L41.4484 39.9705C41.5637 40.0488 41.708 40.131 41.8448 40.088C41.8891 40.0711 41.9289 40.0443 41.9611 40.0097C41.9934 39.9751 42.0173 39.9336 42.031 39.8883C42.1171 39.6508 42.0538 39.3664 42.2349 39.1706C42.2779 39.1238 42.3311 39.0859 42.3691 39.0379C42.4024 38.9869 42.4244 38.9294 42.4338 38.8693C42.4432 38.8092 42.4397 38.7478 42.4236 38.6891C42.4151 38.7336 42.3964 38.7755 42.3691 38.8117Z" fill="black"/>
<path d="M41.1285 40.7741C41.1232 40.8319 41.1069 40.8881 41.0804 40.9397C40.9803 41.1242 40.7422 41.219 40.5219 41.2986L40.1065 41.4502C40.0358 41.4805 39.9604 41.498 39.8836 41.502C39.8239 41.4994 39.7657 41.4833 39.7132 41.4548C39.6608 41.4263 39.6155 41.3863 39.5809 41.3377C39.5205 41.2466 39.4776 41.145 39.4543 41.0382L39.1377 39.8289C39.0744 39.5888 38.9781 39.312 38.7071 39.2223C38.6286 39.2046 38.5512 39.1822 38.4753 39.1553C38.3069 39.0744 38.2714 38.8874 38.2221 38.7307C38.0954 38.3642 37.7573 38.0736 37.3913 37.8461C37.1436 37.6738 36.8498 37.5796 36.5479 37.5757C36.3859 37.5781 36.2294 37.6346 36.1033 37.7362C35.8918 37.9144 35.8729 38.1431 35.8893 38.3908C35.8942 38.3094 35.9157 38.2298 35.9525 38.157C35.9893 38.0842 36.0406 38.0197 36.1033 37.9674C36.2299 37.8669 36.3861 37.8105 36.5479 37.8069C36.8496 37.812 37.1431 37.9061 37.3913 38.0774C37.7573 38.3011 38.0903 38.5917 38.2221 38.962C38.2778 39.1187 38.3132 39.3057 38.4753 39.3866C38.5512 39.4135 38.6286 39.4358 38.7071 39.4536C38.9781 39.5433 39.0744 39.82 39.1377 40.0601L39.4543 41.2682C39.4772 41.3751 39.5202 41.4767 39.5809 41.5677C39.6153 41.6167 39.6604 41.657 39.7129 41.6857C39.7654 41.7144 39.8238 41.7307 39.8836 41.7333C39.9603 41.7287 40.0356 41.7112 40.1065 41.6815L40.5193 41.5324C40.7397 41.4527 40.9778 41.358 41.0778 41.1735C41.1303 41.0544 41.1479 40.923 41.1285 40.7944C41.1297 40.7918 41.1297 40.7842 41.1285 40.7741Z" fill="black"/>
<path d="M42.8679 37.6149C42.8735 37.7394 42.8413 37.8627 42.7755 37.9687C42.7339 38.0242 42.6752 38.0646 42.6084 38.0836C42.5415 38.1025 42.4703 38.099 42.4057 38.0736C42.3876 38.1569 42.3876 38.243 42.4057 38.3263V38.3086C42.4703 38.3341 42.5415 38.3376 42.6084 38.3186C42.6752 38.2996 42.7339 38.2593 42.7755 38.2037C42.8411 38.0977 42.8734 37.9744 42.8679 37.8499C42.8793 37.6439 42.8882 37.4329 42.8831 37.2244C42.8806 37.352 42.8743 37.4885 42.8679 37.6149Z" fill="black"/>
<path d="M33.5683 40.4557C33.4496 41.0263 33.2643 41.5811 33.0162 42.1086C32.9072 42.3184 32.7451 42.5433 32.4792 42.585C32.3989 42.5883 32.3194 42.6015 32.2424 42.6242C32.1899 42.6526 32.1442 42.6918 32.1081 42.7392C31.9625 42.9035 31.7282 43.0766 31.5079 42.992C31.4556 42.9717 31.4094 42.9384 31.3737 42.8953C31.338 42.8521 31.314 42.8006 31.304 42.7455C31.304 42.7759 31.2938 42.8049 31.2913 42.834C31.2799 42.9137 31.2949 42.995 31.334 43.0654C31.3731 43.1359 31.4341 43.1917 31.5079 43.2245C31.7307 43.3066 31.9625 43.1322 32.1081 42.9717C32.1446 42.925 32.1903 42.8863 32.2424 42.858C32.3191 42.834 32.3988 42.8209 32.4792 42.8188C32.7451 42.7771 32.9072 42.5522 33.0162 42.3424C33.2533 41.8419 33.4314 41.3156 33.5468 40.7741C33.547 40.6676 33.5542 40.5613 33.5683 40.4557Z" fill="black"/>
<path d="M34.9469 39.235C34.8441 40.0037 34.6854 40.7639 34.472 41.5097C34.446 41.6397 34.3852 41.7602 34.296 41.8584C34.2441 41.9101 34.1779 41.9452 34.106 41.9591C34.034 41.9731 33.9595 41.9653 33.892 41.9368C33.8146 41.887 33.7576 41.8113 33.7312 41.7232C33.6264 41.4608 33.5665 41.1827 33.5539 40.9006C33.5374 41.2612 33.5992 41.6211 33.735 41.9558C33.7613 42.0442 33.8183 42.1203 33.8958 42.1706C33.9634 42.1988 34.0378 42.2064 34.1097 42.1924C34.1816 42.1785 34.2477 42.1436 34.2998 42.0922C34.3888 41.9939 34.4496 41.8734 34.4758 41.7434C34.6786 41.0342 34.8318 40.3117 34.9343 39.5812L34.9469 39.235Z" fill="black"/>
<path d="M35.9275 39.5636C35.8655 39.7721 35.7299 39.9642 35.7059 40.179C35.6976 40.2483 35.6976 40.3183 35.7059 40.3875C35.7363 40.1828 35.8642 39.997 35.9237 39.7961C35.9639 39.6493 35.9772 39.4965 35.963 39.345C35.9586 39.4189 35.9467 39.4921 35.9275 39.5636Z" fill="black"/>
<path d="M35.4037 41.0977C35.386 40.9941 35.234 40.96 35.1302 40.9031C35.058 40.8566 34.9988 40.7926 34.9583 40.7169C34.9178 40.6413 34.8971 40.5567 34.8984 40.4709V40.5C34.887 40.7325 34.8984 41.0055 35.1314 41.1319C35.2353 41.1887 35.3847 41.2216 35.405 41.3265C35.4967 41.3073 35.5791 41.2575 35.6387 41.1854C35.6983 41.1133 35.7315 41.0231 35.733 40.9297C35.7359 40.8698 35.7338 40.8098 35.7267 40.7502C35.7173 40.835 35.6808 40.9146 35.6227 40.9772C35.5645 41.0397 35.4878 41.082 35.4037 41.0977Z" fill="black"/>
</g>
<path d="M74.8775 111.998H60.125C59.9508 111.998 59.7785 111.962 59.6196 111.891C59.4606 111.82 59.3185 111.716 59.2026 111.586C59.0868 111.456 58.9998 111.304 58.9475 111.138C58.8952 110.972 58.8787 110.797 58.8991 110.625L62.4907 80.1691L62.5654 79.5259C62.6007 79.2265 62.745 78.9505 62.9707 78.7502C63.1964 78.5499 63.4879 78.4392 63.79 78.4391H71.5354C71.8397 78.4392 72.1331 78.5516 72.3594 78.7545C72.5857 78.9574 72.7288 79.2367 72.7613 79.5385L72.8259 80.1489L76.1059 110.636C76.1244 110.808 76.1064 110.982 76.0531 111.146C75.9998 111.311 75.9123 111.462 75.7964 111.591C75.6805 111.719 75.5388 111.822 75.3805 111.892C75.2221 111.962 75.0508 111.998 74.8775 111.998Z" fill="#ADADAD"/>
<path opacity="0.1" d="M63.5094 82.0811C63.5094 82.0811 64.0514 95.8973 61.958 101.163C61.958 101.163 62.1758 102.285 62.7647 101.163C63.3536 100.041 65.371 88.3516 64.4009 82.2757C64.4009 82.2745 64.2021 81.6161 63.5094 82.0811Z" fill="black"/>
<path opacity="0.1" d="M66.108 82.0811C66.108 82.0811 66.65 95.8973 64.5566 101.163C64.5566 101.163 64.7745 102.285 65.3634 101.163C65.9522 100.041 67.9696 88.3516 66.9996 82.2757C66.9996 82.2745 66.8058 81.6161 66.108 82.0811Z" fill="black"/>
<path opacity="0.1" d="M72.4338 82.0811C72.4338 82.0811 71.8905 95.8973 73.9852 101.163C73.9852 101.163 73.7661 102.285 73.1772 101.163C72.5883 100.041 70.5684 88.3504 71.5372 82.2745C71.5372 82.2745 71.7322 81.6161 72.4338 82.0811Z" fill="black"/>
<path opacity="0.1" d="M69.8312 82.0811C69.8312 82.0811 69.288 95.8973 71.3826 101.163C71.3826 101.163 71.1635 102.285 70.5746 101.163C69.9858 100.041 67.9696 88.3504 68.9384 82.2745C68.9384 82.2745 69.1335 81.6161 69.8312 82.0811Z" fill="black"/>
<path d="M71.1154 13.4541H64.1045V74.4951H71.1154V13.4541Z" fill="#ADADAD"/>
<path opacity="0.1" d="M72.8264 80.1527C72.7475 80.1736 72.6662 80.1842 72.5846 80.1843H62.6369C62.5881 80.1843 62.5394 80.1805 62.4912 80.1729L62.5659 79.5297C62.6013 79.2303 62.7455 78.9543 62.9712 78.754C63.1969 78.5537 63.4885 78.443 63.7906 78.4429H71.536C71.8402 78.443 72.1337 78.5553 72.3599 78.7583C72.5862 78.9612 72.7294 79.2404 72.7619 79.5423L72.8264 80.1527Z" fill="black"/>
<path opacity="0.1" d="M71.1876 73.2756H64.1045V74.4951H71.1876V73.2756Z" fill="black"/>
<path d="M72.5021 73.5082H62.7177C62.1582 73.5082 61.7046 73.9608 61.7046 74.5191V78.9409C61.7046 79.4992 62.1582 79.9518 62.7177 79.9518H72.5021C73.0616 79.9518 73.5152 79.4992 73.5152 78.9409V74.5191C73.5152 73.9608 73.0616 73.5082 72.5021 73.5082Z" fill="#ADADAD"/>
<path opacity="0.1" d="M65.5833 13.4541H64.5752V71.5923H65.5833V13.4541Z" fill="black"/>
<path opacity="0.1" d="M67.2703 13.4541H66.2622V71.5923H67.2703V13.4541Z" fill="black"/>
<path opacity="0.1" d="M68.9578 13.4541H67.9497V71.5923H68.9578V13.4541Z" fill="black"/>
<path opacity="0.1" d="M70.6458 13.4541H69.6377V71.5923H70.6458V13.4541Z" fill="black"/>
<path d="M71.5535 42.5991C71.5535 42.5991 69.2461 41.8825 69.5956 44.4175C69.9451 46.9525 70.8367 47.108 70.8367 47.108C70.8367 47.108 71.6118 46.9336 71.7093 45.9277C71.8068 44.9218 71.5535 42.5991 71.5535 42.5991Z" fill="#FFA2A2"/>
<g opacity="0.1">
<path d="M124.164 96.5999C126.106 99.4597 125.485 109.698 125.485 109.698C125.485 109.698 115.734 106.476 113.786 103.616C113.325 102.936 113.002 102.171 112.836 101.366C112.671 100.561 112.665 99.7317 112.821 98.9249C113.136 97.2953 114.086 95.8571 115.463 94.9268C116.84 93.9964 118.531 93.6499 120.164 93.9637C121.797 94.2775 123.238 95.2258 124.171 96.5999H124.164Z" fill="#C7C7C7"/>
<path opacity="0.1" d="M124.164 96.5999C126.106 99.4597 125.485 109.698 125.485 109.698C125.485 109.698 115.734 106.476 113.786 103.616C113.325 102.936 113.002 102.171 112.836 101.366C112.671 100.561 112.665 99.7317 112.821 98.9249C113.136 97.2953 114.086 95.8571 115.463 94.9268C116.84 93.9964 118.531 93.6499 120.164 93.9637C121.797 94.2775 123.238 95.2258 124.171 96.5999H124.164Z" fill="black"/>
<path d="M115.499 94.9369C115.499 94.9369 122.811 100.571 125.523 109.706" stroke="#535461" stroke-miterlimit="10"/>
<path d="M127.365 101.945C127.365 101.945 122.173 101.061 125.719 109.643C125.719 109.643 129.327 108.272 129.608 104.857C129.664 104.193 129.474 103.531 129.073 102.997C128.673 102.463 128.09 102.094 127.436 101.961L127.365 101.945Z" fill="#C7C7C7"/>
<path d="M127.442 101.938C127.442 101.938 128.431 106.684 125.725 109.646" stroke="#535461" stroke-miterlimit="10"/>
</g>
<g opacity="0.1">
<path d="M70.5405 88.0369C70.5405 88.0369 78.3391 68.1967 93.2486 60.6915C99.5073 57.5423 104.654 52.5532 107.768 46.2852C109.241 43.3104 110.437 40.2072 111.342 37.0146" stroke="#535461" stroke-width="2" stroke-miterlimit="10"/>
<path d="M120.709 32.229C119.169 34.2092 111.112 37.1663 111.112 37.1663C111.112 37.1663 111.986 28.6439 113.526 26.6649C113.887 26.1808 114.341 25.7733 114.862 25.4665C115.383 25.1597 115.96 24.9596 116.559 24.878C117.158 24.7964 117.767 24.8349 118.351 24.9912C118.936 25.1475 119.483 25.4185 119.96 25.7884C120.438 26.1583 120.837 26.6196 121.134 27.1452C121.431 27.6709 121.62 28.2504 121.69 28.8498C121.759 29.4493 121.709 30.0565 121.54 30.6361C121.372 31.2157 121.089 31.7559 120.709 32.2252V32.229Z" fill="#C7C7C7"/>
<path d="M118.116 47.7929C115.745 48.6194 107.37 46.7314 107.37 46.7314C107.37 46.7314 112.746 40.0527 115.117 39.2262C115.68 39.0297 116.277 38.946 116.874 38.9797C117.47 39.0134 118.053 39.164 118.591 39.4228C119.129 39.6816 119.611 40.0436 120.008 40.4881C120.406 40.9325 120.712 41.4508 120.909 42.0133C121.106 42.5758 121.19 43.1715 121.156 43.7664C121.122 44.3613 120.971 44.9437 120.712 45.4803C120.452 46.017 120.09 46.4975 119.644 46.8943C119.199 47.2911 118.679 47.5964 118.116 47.7929Z" fill="#C7C7C7"/>
<path d="M103.28 66.3276C100.814 65.8474 94.5415 59.999 94.5415 59.999C94.5415 59.999 102.562 56.9408 105.026 57.4223C105.612 57.5366 106.17 57.765 106.667 58.0944C107.165 58.4238 107.593 58.8478 107.926 59.3421C108.259 59.8364 108.492 60.3914 108.61 60.9754C108.728 61.5594 108.73 62.1609 108.616 62.7456C108.501 63.3304 108.272 63.8869 107.942 64.3833C107.612 64.8798 107.187 65.3065 106.692 65.6391C106.196 65.9718 105.64 66.2038 105.055 66.3219C104.47 66.44 103.867 66.442 103.281 66.3276H103.28Z" fill="#C7C7C7"/>
<path d="M88.8884 77.8299C86.3783 77.7718 79.2041 73.0658 79.2041 73.0658C79.2041 73.0658 86.5898 68.6996 89.1011 68.7578C89.6981 68.7717 90.2865 68.9029 90.8327 69.1437C91.3788 69.3845 91.8721 69.7304 92.2844 70.1614C92.6966 70.5925 93.0197 71.1004 93.2352 71.656C93.4508 72.2117 93.5545 72.8043 93.5406 73.4C93.5266 73.9957 93.3952 74.5828 93.1538 75.1278C92.9125 75.6728 92.5659 76.1651 92.1339 76.5764C91.7019 76.9878 91.193 77.3102 90.6361 77.5253C90.0792 77.7404 89.4854 77.8439 88.8884 77.8299Z" fill="#C7C7C7"/>
<path d="M99.5355 41.2796C99.885 43.7603 105.402 50.324 105.402 50.324C105.402 50.324 108.89 42.4966 108.541 40.0146C108.356 38.8379 107.715 37.7809 106.756 37.0717C105.796 36.3626 104.596 36.0582 103.414 36.2243C102.232 36.3903 101.163 37.0135 100.437 37.9592C99.7116 38.905 99.3877 40.0976 99.5355 41.2796Z" fill="#C7C7C7"/>
<path d="M82.8725 54.9366C83.9502 57.2024 91.1764 61.8162 91.1764 61.8162C91.1764 61.8162 92.1591 53.3051 91.0801 51.0418C90.8238 50.5037 90.4638 50.0212 90.0207 49.622C89.5776 49.2227 89.06 48.9144 88.4974 48.7147C87.9349 48.5151 87.3385 48.4279 86.7422 48.4583C86.1459 48.4886 85.5615 48.6359 85.0222 48.8916C84.483 49.1473 83.9995 49.5065 83.5993 49.9487C83.1992 50.3909 82.8903 50.9074 82.6902 51.4688C82.4901 52.0301 82.4027 52.6252 82.4331 53.2202C82.4636 53.8152 82.6111 54.3985 82.8674 54.9366H82.8725Z" fill="#C7C7C7"/>
<path d="M68.5079 70.4348C69.1867 72.8472 75.5339 78.6173 75.5339 78.6173C75.5339 78.6173 77.9401 70.3943 77.2639 67.9819C76.9247 66.8385 76.1481 65.8742 75.102 65.2977C74.056 64.7211 72.8245 64.5785 71.674 64.9008C70.5235 65.2232 69.5463 65.9844 68.9538 67.02C68.3613 68.0556 68.2011 69.2823 68.5079 70.4348Z" fill="#C7C7C7"/>
</g>
<g opacity="0.1">
<path d="M69.2505 52.3018C69.2505 52.3018 72.0683 45.1328 77.4543 42.4234C79.7209 41.3006 81.5615 39.4746 82.6998 37.2194C83.232 36.1449 83.6644 35.0239 83.9916 33.8706" stroke="#535461" stroke-width="2" stroke-miterlimit="10"/>
<path d="M87.3776 32.1431C86.8204 32.8584 83.9102 33.9262 83.9102 33.9262C83.9102 33.9262 84.2255 30.8478 84.7827 30.1351C84.9079 29.9468 85.0707 29.7864 85.2608 29.6637C85.451 29.5411 85.6645 29.4589 85.8879 29.4223C86.1113 29.3857 86.3399 29.3955 86.5594 29.4511C86.7788 29.5067 86.9845 29.6068 87.1634 29.7453C87.3423 29.8837 87.4907 30.0575 87.5992 30.2558C87.7078 30.4541 87.7742 30.6725 87.7943 30.8976C87.8144 31.1226 87.7878 31.3494 87.7161 31.5637C87.6444 31.778 87.5292 31.9752 87.3776 32.1431Z" fill="#C7C7C7"/>
<path d="M86.4377 37.7653C85.5816 38.0636 82.5562 37.3862 82.5562 37.3862C82.5562 37.3862 84.4976 34.9725 85.3537 34.6743C85.561 34.5862 85.7843 34.5415 86.0097 34.543C86.2351 34.5445 86.4578 34.5922 86.6639 34.6831C86.8701 34.774 87.0554 34.9061 87.2083 35.0714C87.3612 35.2366 87.4784 35.4314 87.5528 35.6437C87.6272 35.856 87.657 36.0813 87.6406 36.3056C87.6242 36.5299 87.5617 36.7485 87.4572 36.9477C87.3527 37.147 87.2082 37.3227 87.0329 37.464C86.8575 37.6053 86.6549 37.7091 86.4377 37.7691V37.7653Z" fill="#C7C7C7"/>
<path d="M81.0768 44.4618C80.1903 44.2874 77.9209 42.1745 77.9209 42.1745C77.9209 42.1745 80.8172 41.07 81.7075 41.2444C81.9307 41.2734 82.1456 41.3478 82.3388 41.463C82.5321 41.5782 82.6996 41.7317 82.8311 41.9141C82.9625 42.0964 83.0551 42.3037 83.1031 42.5232C83.1511 42.7426 83.1535 42.9696 83.1101 43.19C83.0667 43.4104 82.9785 43.6196 82.8509 43.8047C82.7233 43.9897 82.559 44.1467 82.3682 44.2659C82.1774 44.3851 81.9642 44.464 81.7416 44.4977C81.519 44.5313 81.2919 44.5191 81.0743 44.4618H81.0768Z" fill="#C7C7C7"/>
<path d="M75.8787 48.6168C74.9719 48.5953 72.3809 46.8956 72.3809 46.8956C72.3809 46.8956 75.0492 45.3172 75.956 45.3387C76.3728 45.3751 76.7602 45.5686 77.0393 45.8797C77.3183 46.1909 77.4682 46.5964 77.4583 47.0139C77.4485 47.4314 77.2797 47.8294 76.9863 48.1272C76.6929 48.4249 76.2968 48.6 75.8787 48.6168Z" fill="#C7C7C7"/>
<path d="M79.7234 35.4098C79.85 36.3058 81.8433 38.6778 81.8433 38.6778C81.8433 38.6778 83.1098 35.8496 82.9831 34.9536C82.9667 34.7293 82.9042 34.5107 82.7997 34.3114C82.6951 34.1121 82.5506 33.9364 82.3752 33.7951C82.1998 33.6538 81.9972 33.55 81.7799 33.4901C81.5626 33.4301 81.3353 33.4153 81.1121 33.4466C80.8888 33.478 80.6744 33.5547 80.4821 33.672C80.2898 33.7894 80.1237 33.9449 79.9941 34.129C79.8645 34.3131 79.7742 34.5217 79.7287 34.742C79.6832 34.9623 79.6835 35.1896 79.7297 35.4098H79.7234Z" fill="#C7C7C7"/>
<path d="M73.7004 40.3458C74.0904 41.1635 76.7031 42.8316 76.7031 42.8316C76.7031 42.8316 77.0577 39.757 76.6676 38.9393C76.4633 38.5764 76.1285 38.3044 75.7309 38.1784C75.3334 38.0523 74.9027 38.0815 74.5259 38.2601C74.1491 38.4387 73.8543 38.7534 73.701 39.1406C73.5478 39.5277 73.5476 39.9585 73.7004 40.3458Z" fill="#C7C7C7"/>
<path d="M68.5155 45.9453C68.7612 46.816 71.0483 48.9011 71.0483 48.9011C71.0483 48.9011 71.9272 45.9301 71.6739 45.0582C71.6254 44.8402 71.5329 44.6344 71.402 44.4534C71.2711 44.2723 71.1046 44.1197 70.9126 44.005C70.7207 43.8903 70.5073 43.8159 70.2856 43.7862C70.0638 43.7565 69.8383 43.7723 69.6228 43.8325C69.4074 43.8926 69.2065 43.996 69.0324 44.1363C68.8583 44.2766 68.7148 44.4508 68.6104 44.6483C68.5061 44.8458 68.4432 45.0624 68.4255 45.285C68.4079 45.5076 68.4359 45.7314 68.5079 45.9428L68.5155 45.9453Z" fill="#C7C7C7"/>
</g>
<g opacity="0.1">
<path d="M92.981 111.764C92.981 111.764 93.1 104.066 97.1918 99.6429C98.9209 97.7993 100.004 95.4454 100.277 92.9351C100.397 91.7423 100.408 90.541 100.308 89.3462" stroke="#535461" stroke-width="2" stroke-miterlimit="10"/>
<path d="M102.87 86.5445C102.601 87.4051 100.25 89.427 100.25 89.427C100.25 89.427 99.4649 86.4321 99.7346 85.5677C99.8863 85.1805 100.179 84.8651 100.555 84.685C100.93 84.505 101.36 84.4737 101.758 84.5974C102.156 84.7212 102.492 84.9907 102.698 85.3518C102.904 85.7129 102.966 86.1387 102.87 86.5433V86.5445Z" fill="#C7C7C7"/>
<path d="M103.967 92.1378C103.269 92.7165 100.197 93.1374 100.197 93.1374C100.197 93.1374 101.167 90.198 101.865 89.6179C102.203 89.3723 102.622 89.2642 103.037 89.3156C103.452 89.3671 103.832 89.5741 104.099 89.8948C104.367 90.2155 104.502 90.6258 104.477 91.0424C104.453 91.4589 104.27 91.8506 103.967 92.1378Z" fill="#C7C7C7"/>
<path d="M101.307 100.284C100.412 100.433 97.5474 99.2474 97.5474 99.2474C97.5474 99.2474 99.8725 97.1989 100.767 97.0498C101.182 97.0083 101.599 97.1262 101.93 97.3796C102.262 97.6329 102.485 98.0027 102.554 98.4141C102.623 98.8254 102.532 99.2474 102.301 99.5946C102.069 99.9418 101.714 100.188 101.307 100.284Z" fill="#C7C7C7"/>
<path d="M97.8879 105.994C97.0306 106.291 94.0063 105.606 94.0063 105.606C94.0063 105.606 95.9566 103.201 96.8127 102.898C97.0206 102.809 97.2448 102.763 97.4712 102.764C97.6976 102.765 97.9214 102.812 98.1286 102.903C98.3358 102.994 98.522 103.127 98.6755 103.293C98.8289 103.459 98.9464 103.655 99.0205 103.869C99.0947 104.082 99.1239 104.309 99.1063 104.534C99.0888 104.759 99.0249 104.978 98.9186 105.178C98.8123 105.377 98.6659 105.553 98.4885 105.693C98.3112 105.834 98.1067 105.936 97.8879 105.994Z" fill="#C7C7C7"/>
<path d="M96.8541 92.2805C97.2872 93.0767 99.9872 94.5994 99.9872 94.5994C99.9872 94.5994 100.173 91.5109 99.7339 90.7148C99.5102 90.3633 99.161 90.1096 98.757 90.0052C98.3531 89.9007 97.9244 89.9532 97.5577 90.1522C97.1911 90.3511 96.9138 90.6815 96.782 91.0766C96.6502 91.4717 96.6737 91.902 96.8477 92.2805H96.8541Z" fill="#C7C7C7"/>
<path d="M92.9489 99.0098C93.6011 99.6416 96.6342 100.286 96.6342 100.286C96.6342 100.286 95.8857 97.2835 95.2335 96.6529C94.9138 96.3901 94.5065 96.2573 94.0929 96.2809C93.6794 96.3045 93.2899 96.4827 93.0023 96.7802C92.7146 97.0776 92.5499 97.4723 92.5409 97.8855C92.532 98.2988 92.6794 98.7002 92.954 99.0098H92.9489Z" fill="#C7C7C7"/>
<path d="M90.0592 106.069C90.5949 106.799 93.4785 107.949 93.4785 107.949C93.4785 107.949 93.2493 104.862 92.7187 104.132C92.4501 103.812 92.0698 103.606 91.655 103.556C91.2401 103.506 90.8217 103.616 90.4846 103.862C90.1474 104.108 89.9168 104.474 89.8395 104.883C89.7621 105.293 89.8439 105.717 90.0681 106.069H90.0592Z" fill="#C7C7C7"/>
</g>
<g opacity="0.1">
<path d="M73.9917 110.554C73.9917 110.554 74.1107 102.854 78.2025 98.4309C79.9317 96.5874 81.0143 94.2334 81.2875 91.7232C81.4078 90.5307 81.4184 89.3298 81.3192 88.1355" stroke="#535461" stroke-width="2" stroke-miterlimit="10"/>
<path d="M83.881 85.3327C83.6113 86.197 81.2608 88.2164 81.2608 88.2164C81.2608 88.2164 80.4756 85.2227 80.7454 84.3583C80.7969 84.1386 80.8933 83.9318 81.0285 83.7508C81.1636 83.5699 81.3347 83.4187 81.5311 83.3066C81.7274 83.1946 81.9448 83.1241 82.1696 83.0996C82.3944 83.075 82.6219 83.097 82.8379 83.1641C83.0538 83.2312 83.2536 83.342 83.4248 83.4896C83.5959 83.6371 83.7348 83.8183 83.8326 84.0218C83.9305 84.2252 83.9853 84.4466 83.9936 84.6722C84.002 84.8977 83.9636 85.1226 83.881 85.3327Z" fill="#C7C7C7"/>
<path d="M84.9806 90.9258C84.2828 91.5059 81.2104 91.9254 81.2104 91.9254C81.2104 91.9254 82.1805 88.986 82.8783 88.4072C83.2164 88.1637 83.6344 88.0573 84.048 88.1094C84.4617 88.1615 84.8401 88.3682 85.107 88.6879C85.3738 89.0075 85.5091 89.4163 85.4857 89.8317C85.4622 90.2471 85.2817 90.6381 84.9806 90.9258Z" fill="#C7C7C7"/>
<path d="M82.3122 99.0729C81.4169 99.2208 78.5522 98.0354 78.5522 98.0354C78.5522 98.0354 80.8774 95.9869 81.7715 95.8391C81.9908 95.7876 82.2184 95.7816 82.4401 95.8214C82.6619 95.8612 82.8731 95.946 83.0607 96.0706C83.2482 96.1951 83.4082 96.3568 83.5306 96.5455C83.6531 96.7343 83.7354 96.9461 83.7725 97.1678C83.8095 97.3896 83.8006 97.6166 83.7462 97.8348C83.6918 98.053 83.5931 98.2577 83.4563 98.4363C83.3194 98.6149 83.1472 98.7635 82.9504 98.873C82.7536 98.9825 82.5364 99.0506 82.3122 99.0729Z" fill="#C7C7C7"/>
<path d="M78.9035 104.782C78.0462 105.081 75.022 104.394 75.022 104.394C75.022 104.394 76.9672 101.985 77.8233 101.685C78.0308 101.597 78.2542 101.553 78.4796 101.554C78.705 101.556 78.9276 101.604 79.1337 101.695C79.3398 101.786 79.525 101.919 79.6777 102.084C79.8304 102.25 79.9475 102.445 80.0216 102.657C80.0957 102.869 80.1253 103.095 80.1086 103.319C80.0919 103.543 80.0292 103.762 79.9243 103.961C79.8195 104.16 79.6748 104.336 79.4992 104.477C79.3236 104.618 79.1209 104.721 78.9035 104.781V104.782Z" fill="#C7C7C7"/>
<path d="M77.8641 91.0699C78.2972 91.866 80.9972 93.3888 80.9972 93.3888C80.9972 93.3888 81.1834 90.3003 80.7439 89.5042C80.6529 89.2949 80.5192 89.1069 80.3514 88.9521C80.1835 88.7972 79.9852 88.6789 79.7691 88.6048C79.5529 88.5306 79.3236 88.5022 79.0959 88.5213C78.8681 88.5404 78.6468 88.6066 78.4461 88.7157C78.2453 88.8249 78.0696 88.9745 77.93 89.1551C77.7904 89.3358 77.6901 89.5434 77.6353 89.7649C77.5806 89.9863 77.5726 90.2167 77.612 90.4414C77.6514 90.6661 77.7373 90.8801 77.8641 91.0699Z" fill="#C7C7C7"/>
<path d="M73.9624 97.7979C74.6146 98.4297 77.6477 99.0755 77.6477 99.0755C77.6477 99.0755 76.8993 96.0717 76.2471 95.4423C76.0969 95.2717 75.9129 95.134 75.7066 95.0379C75.5004 94.9419 75.2765 94.8895 75.049 94.8841C74.8215 94.8788 74.5953 94.9205 74.3848 95.0068C74.1742 95.0931 73.9839 95.2219 73.8258 95.3853C73.6677 95.5487 73.5453 95.743 73.4663 95.9559C73.3872 96.1689 73.3533 96.3959 73.3666 96.6226C73.3799 96.8493 73.4402 97.0708 73.5436 97.2731C73.647 97.4754 73.7914 97.6541 73.9675 97.7979H73.9624Z" fill="#C7C7C7"/>
<path d="M71.0695 104.857C71.6052 105.587 74.4889 106.737 74.4889 106.737C74.4889 106.737 74.2596 103.65 73.729 102.92C73.6081 102.73 73.4495 102.567 73.2629 102.441C73.0763 102.315 72.8658 102.228 72.6444 102.187C72.423 102.145 72.1953 102.149 71.9756 102.199C71.7558 102.249 71.5487 102.343 71.3669 102.476C71.1851 102.609 71.0326 102.777 70.9188 102.971C70.805 103.165 70.7323 103.381 70.7053 103.604C70.6782 103.827 70.6974 104.054 70.7616 104.269C70.8257 104.485 70.9336 104.685 71.0784 104.857H71.0695Z" fill="#C7C7C7"/>
</g>
<path d="M65.3419 20.7899C65.5952 21.5684 64.9088 24.2778 64.9088 24.2778C64.9088 24.2778 62.7711 22.4744 62.5204 21.6922C62.4506 21.5047 62.4197 21.3051 62.4295 21.1054C62.4392 20.9057 62.4895 20.71 62.5771 20.5302C62.6648 20.3504 62.788 20.1902 62.9394 20.0592C63.0909 19.9282 63.2673 19.8292 63.4581 19.7682C63.649 19.7072 63.8502 19.6854 64.0497 19.7041C64.2492 19.7229 64.4428 19.7818 64.6189 19.8773C64.795 19.9728 64.9498 20.1029 65.0741 20.2597C65.1983 20.4166 65.2895 20.5969 65.3419 20.7899Z" fill="#C7C7C7"/>
<path d="M54.8304 38.1204C55.0836 38.8989 54.3972 41.6083 54.3972 41.6083C54.3972 41.6083 52.257 39.8049 52.0063 39.0265C51.9466 38.8415 51.9241 38.6465 51.94 38.4528C51.9559 38.2591 52.0098 38.0704 52.0988 37.8975C52.1878 37.7246 52.31 37.5708 52.4585 37.4451C52.607 37.3193 52.7789 37.2239 52.9643 37.1644C53.1497 37.1049 53.3451 37.0825 53.5392 37.0983C53.7334 37.1142 53.9225 37.168 54.0957 37.2568C54.269 37.3455 54.4231 37.4675 54.5491 37.6157C54.6752 37.7639 54.7707 37.9354 54.8304 38.1204Z" fill="#C7C7C7"/>
<path d="M76.9756 30.4813C77.2289 31.2598 76.5412 33.9691 76.5412 33.9691C76.5412 33.9691 74.4022 32.1671 74.1515 31.3887C74.0309 31.015 74.064 30.6088 74.2436 30.2594C74.4231 29.9101 74.7344 29.6463 75.1089 29.5259C75.4834 29.4056 75.8904 29.4387 76.2405 29.6178C76.5906 29.797 76.855 30.1076 76.9756 30.4813Z" fill="#C7C7C7"/>
<path d="M88.4312 43.5772C88.6845 44.3544 87.9981 47.0638 87.9981 47.0638C87.9981 47.0638 85.8578 45.2617 85.6046 44.4833C85.5402 44.2971 85.5137 44.1 85.5266 43.9034C85.5396 43.7069 85.5917 43.5149 85.68 43.3388C85.7683 43.1626 85.8909 43.0058 86.0407 42.8775C86.1905 42.7493 86.3644 42.6521 86.5523 42.5918C86.7402 42.5315 86.9383 42.5093 87.1349 42.5263C87.3315 42.5434 87.5228 42.5994 87.6974 42.6912C87.8721 42.783 88.0266 42.9086 88.1519 43.0608C88.2773 43.2129 88.3709 43.3885 88.4274 43.5772H88.4312Z" fill="#C7C7C7"/>
<path d="M80.7007 22.0713C80.284 22.7752 77.7993 24.0629 77.7993 24.0629C77.7993 24.0629 77.7296 21.2701 78.1463 20.5663C78.3463 20.2283 78.6727 19.9834 79.0536 19.8855C79.4346 19.7876 79.8389 19.8448 80.1776 20.0443C80.5164 20.2439 80.7618 20.5696 80.8598 20.9497C80.9579 21.3299 80.9007 21.7333 80.7007 22.0713Z" fill="#C7C7C7"/>
<path d="M108.72 19.9622C108.304 20.6661 105.819 21.9538 105.819 21.9538C105.819 21.9538 105.751 19.1598 106.167 18.4572C106.264 18.2857 106.394 18.1353 106.55 18.0146C106.706 17.894 106.885 17.8056 107.075 17.7547C107.266 17.7037 107.465 17.6912 107.66 17.7179C107.855 17.7445 108.044 17.8098 108.213 17.91C108.383 18.0101 108.531 18.143 108.649 18.3009C108.767 18.4589 108.852 18.6387 108.899 18.8298C108.946 19.0209 108.955 19.2195 108.924 19.414C108.893 19.6084 108.824 19.7948 108.72 19.9622Z" fill="#C7C7C7"/>
<path d="M52.2979 25.386C51.5051 25.592 48.833 24.7542 48.833 24.7542C48.833 24.7542 50.7592 22.7259 51.552 22.5199C51.7406 22.4711 51.937 22.4597 52.13 22.4866C52.3229 22.5135 52.5087 22.578 52.6767 22.6765C52.8447 22.775 52.9916 22.9056 53.109 23.0608C53.2265 23.2159 53.3121 23.3926 53.3611 23.5808C53.4101 23.769 53.4214 23.965 53.3945 24.1576C53.3676 24.3501 53.3029 24.5355 53.2042 24.7032C53.1054 24.8708 52.9746 25.0174 52.8191 25.1345C52.6636 25.2517 52.4865 25.3372 52.2979 25.386Z" fill="#C7C7C7"/>
<path d="M77.9702 57.3667C77.5535 58.0706 75.0688 59.3583 75.0688 59.3583C75.0688 59.3583 74.9992 56.5655 75.4158 55.8617C75.5149 55.6943 75.646 55.548 75.8016 55.4312C75.9573 55.3144 76.1345 55.2294 76.3232 55.1809C76.5118 55.1324 76.7081 55.1215 76.901 55.1488C77.0938 55.176 77.2794 55.2409 77.4472 55.3398C77.6149 55.4386 77.7615 55.5694 77.8785 55.7247C77.9956 55.8801 78.0808 56.0569 78.1294 56.2452C78.1779 56.4334 78.1889 56.6293 78.1616 56.8217C78.1343 57.0142 78.0692 57.1994 77.9702 57.3667Z" fill="#C7C7C7"/>
<defs>
<linearGradient id="paint0_linear_1304_24425" x1="41.1683" y1="111.125" x2="41.1683" y2="31.6376" gradientUnits="userSpaceOnUse">
<stop stop-color="#808080" stop-opacity="0.25"/>
<stop offset="0.54" stop-color="#808080" stop-opacity="0.12"/>
<stop offset="1" stop-color="#808080" stop-opacity="0.1"/>
</linearGradient>
</defs>
</svg>
