<svg width="128" height="124" viewBox="0 0 128 124" fill="none" xmlns="http://www.w3.org/2000/svg">
<path d="M67.579 91.9006C66.0491 92.1352 64.9299 93.1147 65.0793 94.0883C65.2287 95.062 66.5899 95.6609 68.1204 95.4261C68.7331 95.3407 69.3164 95.1098 69.8215 94.7528L76.2915 93.6773L75.8597 91.1199L69.4043 92.0333C68.8152 91.844 68.1893 91.7985 67.579 91.9006Z" fill="#FFB6B6"/>
<path d="M95.4598 83.9288L92.951 89.2523L80.3392 93.4979L69.8739 94.0562L69.6118 91.5426L80.9537 89.1711L92.592 83.6714L95.4598 83.9288Z" fill="#E6E6E6"/>
<path d="M66.8439 72.7917L66.5 72.7993L67.1575 102.676L67.5014 102.669L66.8439 72.7917Z" fill="#3F3D56"/>
<path d="M66.8519 86.0202C66.8207 85.9143 66.1077 83.3945 67.6517 80.9177L67.9435 81.0998C66.4836 83.4417 67.1748 85.899 67.1819 85.9237L66.8519 86.0202Z" fill="#3F3D56"/>
<path d="M67.7718 81.1089C67.7718 81.1089 67.3024 77.9008 71.6263 77.0204C72.5272 76.8369 73.374 76.7116 74.1503 76.6281C75.0667 76.5295 75.4241 77.7838 74.5963 78.189C73.3975 78.7757 72.2698 79.515 71.682 80.3905C70.0608 82.805 67.7718 81.1089 67.7718 81.1089Z" fill="#C7C7C7"/>
<path d="M67.2963 95.2976L66.9662 95.201C66.9733 95.1763 67.6646 92.719 66.2046 90.3771L66.4965 90.1951C68.0404 92.6718 67.3274 95.1916 67.2963 95.2976Z" fill="#3F3D56"/>
<path d="M66.3763 90.3863C66.3763 90.3863 66.8457 87.1782 62.5217 86.2977C61.6209 86.1143 60.7741 85.9889 59.9978 85.9054C59.0814 85.8068 58.724 87.0612 59.5518 87.4663C60.7506 88.0531 61.8783 88.7924 62.4661 89.6678C64.0873 92.0823 66.3763 90.3863 66.3763 90.3863Z" fill="#C7C7C7"/>
<path d="M72.3945 68.6433C73.2649 68.4138 74.0787 68.0139 74.0517 67.6184C74.0197 67.1485 72.8113 66.8336 71.7689 66.7857C72.5552 66.1706 73.2776 65.3202 73.0567 64.9356C72.8536 64.5821 71.9087 64.719 71.0369 65.0304C71.5528 64.2929 71.9155 63.4617 71.6393 63.1773C71.2952 62.823 70.074 63.4345 69.2406 64.1105C69.4028 63.0574 69.3208 61.7281 68.8485 61.6079C68.4533 61.5073 67.8933 62.2805 67.5093 63.1228C67.3396 62.2389 66.9961 61.3997 66.5996 61.3997C66.0348 61.3997 65.5769 63.1026 65.5769 64.212C65.5769 64.2748 65.5786 64.3338 65.5815 64.3902C65.5248 64.3245 65.4598 64.2558 65.3857 64.1839C64.5898 63.4109 63.0492 62.553 62.6557 62.9582C62.3794 63.2426 62.7421 64.0737 63.258 64.8113C62.3863 64.4999 61.4414 64.3629 61.2383 64.7165C60.9654 65.1916 62.1319 66.3775 63.0802 66.9526C63.0232 66.9457 62.9633 66.94 62.8996 66.9356C61.7927 66.8601 60.0625 67.201 60.0241 67.7645C59.9971 68.16 60.811 68.5599 61.6813 68.7894C60.8148 69.1151 60.0052 69.6212 60.0787 70.0223C60.1679 70.5091 61.5282 70.6795 62.5977 70.5797C61.7987 71.3464 60.9323 72.7197 61.2939 73.1222C61.5588 73.4171 62.4127 73.1118 63.1837 72.6474C62.8137 73.4959 62.6127 74.4293 62.9516 74.656C63.3995 74.9556 64.6279 73.9128 65.2755 73.0155C65.2096 74.1133 65.4722 75.6213 65.9934 75.6808C66.3873 75.7258 66.8238 74.931 67.0927 74.072C67.3786 74.9524 67.8473 75.7842 68.2513 75.7291C68.7767 75.6574 69.0057 74.1116 68.9077 73.0131C69.5758 73.8735 70.7001 74.7936 71.1242 74.5099C71.4631 74.2832 71.2622 73.3498 70.8921 72.5013C71.6631 72.9657 72.517 73.271 72.782 72.9761C73.1436 72.5736 72.2771 71.2003 71.4781 70.4336C72.5477 70.5334 73.9079 70.363 73.9971 69.8762C74.0706 69.4751 73.261 68.969 72.3945 68.6433ZM67.7081 71.7483C67.4844 71.7788 67.2798 71.8224 67.1243 71.9337C66.959 71.7696 66.7176 71.7197 66.4492 71.689C66.1487 71.6547 65.8756 71.6514 65.6673 71.8248C65.5911 71.613 65.4038 71.4626 65.1855 71.3165C64.9978 71.191 64.8158 71.0879 64.6255 71.0681C64.6107 70.8357 64.4632 70.6382 64.2827 70.4372C64.1675 70.3091 64.0524 70.1945 63.9246 70.1179C64.109 69.8934 64.0877 69.6097 64.0307 69.2983C63.99 69.0762 63.9371 68.8738 63.8188 68.7235C63.9752 68.5509 64.0141 68.3075 64.0325 68.038C64.0526 67.7437 64.0442 67.4769 63.8744 67.2782C64.3133 67.334 64.5251 67.0606 64.722 66.7178C64.8345 66.5221 64.9249 66.3335 64.9318 66.1423C65.1627 66.1116 65.3497 65.951 65.5379 65.7572C65.6986 65.5917 65.8354 65.4278 65.8868 65.2391C66.071 65.3939 66.3223 65.4174 66.5996 65.4174C66.8698 65.4174 67.1153 65.3951 67.2981 65.2508C67.44 65.3791 67.6383 65.4456 67.8571 65.5013C68.066 65.5545 68.2632 65.5901 68.4424 65.5543C68.5079 65.7038 68.6242 65.8395 68.7571 65.9764C68.9453 66.1702 69.1323 66.3308 69.3632 66.3614C69.37 66.5526 69.4605 66.7412 69.5729 66.937C69.7053 67.1675 69.8444 67.3667 70.0547 67.4556C70.0302 67.5895 70.0328 67.7369 70.0434 67.8919C70.0618 68.1614 70.1007 68.4048 70.257 68.5774C70.1387 68.7277 70.0859 68.9301 70.0452 69.1522C69.9881 69.4636 69.9669 69.7473 70.1512 69.9718C70.0235 70.0484 69.9083 70.163 69.7932 70.2911C69.6127 70.4921 69.4652 70.6896 69.4503 70.922C69.26 70.9418 69.078 71.0449 68.8903 71.1704C68.634 71.3419 68.4205 71.5196 68.3795 71.7956C68.1871 71.7023 67.9569 71.7143 67.7081 71.7483Z" fill="#C7C7C7"/>
<path d="M67.111 72.2842C69.1281 72.2842 70.7634 70.6489 70.7634 68.6317C70.7634 66.6145 69.1281 64.9792 67.111 64.9792C65.0938 64.9792 63.4585 66.6145 63.4585 68.6317C63.4585 70.6489 65.0938 72.2842 67.111 72.2842Z" fill="#3F3D56"/>
<path d="M23.0615 112.921C23.0615 113.035 23.1527 113.126 23.2662 113.126H113.084C113.198 113.126 113.289 113.035 113.289 112.921C113.289 112.808 113.198 112.717 113.084 112.717H23.2662C23.1527 112.717 23.0615 112.808 23.0615 112.921Z" fill="#3F3D56"/>
<path d="M72.1989 104.142L69.9465 109.839L67.0317 107.852L68.7541 101.89L72.1989 104.142Z" fill="#FFB6B6"/>
<path d="M62.7917 102.022L56.8296 107.72L59.2144 110.237L65.309 105.467L62.7917 102.022Z" fill="#FFB6B6"/>
<path d="M96.5772 83.4738L96.5109 83.0101L94.9873 80.0291L89.9526 81.354L90.8801 85.4612L96.5772 83.4738Z" fill="#FFB6B6"/>
<path d="M94.4571 103.347L94.612 105.337C94.612 105.337 95.2521 113.682 90.0849 114.344C84.9178 115.007 82.6655 115.669 79.6182 110.502L74.8485 102.023L72.0625 105.337L68.3564 102.42C68.3564 102.42 71.0063 92.0857 73.1261 91.6883C73.3911 91.6386 73.6561 91.6137 73.9169 91.6083C75.6719 91.5717 77.3262 92.4301 78.3763 93.8368L84.3878 101.89L86.5739 100.896L94.4571 103.347Z" fill="#2F2E41"/>
<path d="M65.8392 109.574L67.0316 107.322L70.4764 109.707C70.4764 109.707 71.2713 112.622 70.0789 113.019C68.8865 113.417 65.5742 112.887 65.5742 112.887C65.5742 112.887 59.4796 114.212 59.3472 113.019C59.2147 111.827 62.1295 111.562 62.1295 111.562L65.8392 109.574Z" fill="#2F2E41"/>
<path d="M78.8233 107.984L69.6151 102.182L64.9117 106.395L61.7319 102.685C61.7319 102.685 67.5615 94.0729 69.2839 93.6754C71.0063 93.2779 73.7886 93.0129 73.7886 93.0129L82.268 100.83L78.8233 107.984Z" fill="#2F2E41"/>
<path d="M56.6972 107.189L59.7444 110.502L59.3426 110.845C59.3426 110.845 58.552 114.289 56.6972 113.124C54.8423 111.959 54.7098 111.694 54.7098 111.694C54.7098 111.694 49.4102 112.887 48.8802 110.767C48.3502 108.647 49.8076 109.044 49.8076 109.044L51.131 109.839L56.6972 107.189Z" fill="#2F2E41"/>
<path d="M91.542 82.8112C93.8835 82.8112 95.7817 80.913 95.7817 78.5715C95.7817 76.23 93.8835 74.3318 91.542 74.3318C89.2004 74.3318 87.3022 76.23 87.3022 78.5715C87.3022 80.913 89.2004 82.8112 91.542 82.8112Z" fill="#FFB6B6"/>
<path d="M90.5481 84.5997L96.6427 82.7449C96.6427 82.7449 99.0275 88.3095 98.63 90.8268C98.2326 93.3441 94.6114 105.337 94.6114 105.337L86.5734 100.896C86.5734 100.896 86.4409 98.2463 86.0434 97.0539C85.6459 95.8615 84.3873 92.218 87.1696 89.1707C89.9519 86.1234 90.5481 84.5997 90.5481 84.5997Z" fill="#E6E6E6"/>
<path d="M31.0298 42.8235L30.686 42.8311L32.2338 113.167L32.5775 113.159L31.0298 42.8235Z" fill="#3F3D56"/>
<path d="M31.5031 73.8955C31.4855 73.8353 29.7804 67.8149 33.3603 62.0723L33.6522 62.2542C30.1529 67.8676 31.8159 73.7399 31.8331 73.7987L31.5031 73.8955Z" fill="#3F3D56"/>
<path d="M33.4468 62.3989C33.4468 62.3989 32.3418 54.8464 42.5211 52.7737C44.6418 52.3419 46.6355 52.0467 48.463 51.8501C50.6202 51.618 51.4617 54.571 49.5129 55.5248C46.6906 56.9061 44.0358 58.6465 42.652 60.7075C38.8356 66.3916 33.4468 62.3989 33.4468 62.3989Z" fill="#C7C7C7"/>
<path d="M32.1041 95.7356L31.7741 95.6389C31.7912 95.5803 33.4511 89.7024 29.9551 84.0944L30.247 83.9124C33.8268 89.655 32.1218 95.6755 32.1041 95.7356Z" fill="#3F3D56"/>
<path d="M30.1605 84.2392C30.1605 84.2392 31.2655 76.6868 21.0862 74.614C18.9655 74.1822 16.9718 73.8871 15.1443 73.6904C12.987 73.4583 12.1456 76.4113 14.0943 77.3651C16.9166 78.7465 19.5715 80.4868 20.9552 82.5478C24.7717 88.2319 30.1605 84.2392 30.1605 84.2392Z" fill="#C7C7C7"/>
<path d="M44.3281 33.0527C46.3771 32.5125 48.2931 31.5711 48.2296 30.6399C48.1541 29.5337 45.3095 28.7924 42.8554 28.6796C44.7064 27.2315 46.4072 25.2297 45.8871 24.3243C45.4089 23.492 43.1845 23.8144 41.1322 24.5475C42.3467 22.8111 43.2006 20.8545 42.5503 20.1849C41.7403 19.3508 38.8653 20.7904 36.9033 22.3818C37.2853 19.9026 37.0922 16.7733 35.9802 16.4902C35.05 16.2533 33.7316 18.0737 32.8277 20.0567C32.4282 17.9757 31.6194 16 30.686 16C29.3564 16 28.2785 20.009 28.2785 22.6208C28.2785 22.7685 28.2824 22.9075 28.2891 23.0403C28.1557 22.8855 28.0027 22.7239 27.8283 22.5545C25.9546 20.7348 22.3277 18.7151 21.4013 19.669C20.751 20.3386 21.6049 22.2952 22.8194 24.0315C20.7671 23.2985 18.5427 22.9761 18.0646 23.8084C17.4221 24.9268 20.1684 27.7187 22.4007 29.0726C22.2665 29.0564 22.1255 29.0428 21.9755 29.0326C19.3697 28.8548 15.2966 29.6573 15.2061 30.9838C15.1426 31.9151 17.0586 32.8564 19.1076 33.3967C17.0676 34.1635 15.1618 35.3549 15.3348 36.2991C15.5447 37.4451 18.747 37.8462 21.2649 37.6114C19.3839 39.4162 17.3442 42.6493 18.1954 43.5968C18.8192 44.2911 20.8294 43.5724 22.6444 42.479C21.7733 44.4766 21.3002 46.6739 22.0981 47.2076C23.1525 47.9129 26.0443 45.4581 27.5689 43.3458C27.4136 45.9299 28.0319 49.4801 29.2588 49.6202C30.1862 49.7261 31.2139 47.8549 31.8469 45.8327C32.52 47.9055 33.6233 49.8637 34.5744 49.7339C35.8112 49.5651 36.3504 45.9261 36.1197 43.3401C37.6924 45.3654 40.3392 47.5316 41.3377 46.8637C42.1355 46.3299 41.6624 44.1326 40.7913 42.135C42.6064 43.2285 44.6165 43.9472 45.2403 43.2528C46.0915 42.3053 44.0519 39.0723 42.1708 37.2675C44.6887 37.5023 47.891 37.1011 48.101 35.9552C48.2739 35.011 46.3681 33.8196 44.3281 33.0527ZM33.2956 40.3624C32.7689 40.4342 32.2873 40.5369 31.9211 40.7989C31.532 40.4127 30.9638 40.2951 30.3319 40.2229C29.6245 40.1421 28.9816 40.1343 28.4913 40.5426C28.3119 40.044 27.8708 39.6897 27.357 39.346C26.9151 39.0505 26.4866 38.8079 26.0387 38.7611C26.0037 38.214 25.6565 37.749 25.2315 37.2759C24.9605 36.9743 24.6894 36.7046 24.3886 36.5242C24.8226 35.9957 24.7726 35.3277 24.6383 34.5947C24.5425 34.0718 24.418 33.5954 24.1395 33.2415C24.5076 32.8352 24.5992 32.2622 24.6425 31.6277C24.6898 30.935 24.6702 30.3068 24.2703 29.8391C25.3037 29.9706 25.8024 29.3268 26.2659 28.5199C26.5307 28.059 26.7436 27.615 26.7597 27.1649C27.3032 27.0928 27.7435 26.7147 28.1865 26.2585C28.565 25.8688 28.8869 25.4829 29.0078 25.0387C29.4415 25.4032 30.0332 25.4584 30.686 25.4584C31.322 25.4584 31.8999 25.406 32.3303 25.0663C32.6644 25.3683 33.1313 25.5249 33.6464 25.6561C34.1381 25.7813 34.6023 25.865 35.0243 25.7807C35.1784 26.1327 35.4523 26.4523 35.7651 26.7744C36.2082 27.2306 36.6484 27.6087 37.1919 27.6809C37.2081 28.1309 37.4209 28.5749 37.6857 29.0358C37.9974 29.5784 38.3248 30.0475 38.8199 30.2568C38.7621 30.572 38.7683 30.9188 38.7932 31.2838C38.8365 31.9182 38.9281 32.4913 39.2962 32.8976C39.0177 33.2515 38.8932 33.7279 38.7974 34.2507C38.6631 34.9838 38.6131 35.6518 39.0472 36.1802C38.7463 36.3606 38.4752 36.6303 38.2042 36.932C37.7792 37.4051 37.432 37.87 37.397 38.4171C36.9491 38.4639 36.5206 38.7065 36.0788 39.0021C35.4753 39.4057 34.9726 39.8242 34.8761 40.4738C34.4233 40.2541 33.8812 40.2825 33.2956 40.3624Z" fill="#C7C7C7"/>
<path d="M31.8895 41.6235C36.6383 41.6235 40.488 37.7738 40.488 33.025C40.488 28.2762 36.6383 24.4265 31.8895 24.4265C27.1407 24.4265 23.291 28.2762 23.291 33.025C23.291 37.7738 27.1407 41.6235 31.8895 41.6235Z" fill="#3F3D56"/>
<path d="M111.335 96.1814L110.991 96.189L111.361 112.995L111.705 112.987L111.335 96.1814Z" fill="#3F3D56"/>
<path d="M111.192 103.646C111.174 103.585 110.764 102.136 111.65 100.714L111.942 100.896C111.14 102.183 111.518 103.536 111.522 103.549L111.192 103.646Z" fill="#3F3D56"/>
<path d="M111.782 100.862C111.782 100.862 111.518 99.0572 113.95 98.5619C114.457 98.4587 114.933 98.3882 115.37 98.3412C115.885 98.2858 116.086 98.9914 115.621 99.2193C114.946 99.5493 114.312 99.9652 113.981 100.458C113.069 101.816 111.782 100.862 111.782 100.862Z" fill="#C7C7C7"/>
<path d="M111.586 108.864L111.256 108.767C111.26 108.754 111.638 107.402 110.836 106.115L111.128 105.933C112.014 107.354 111.604 108.803 111.586 108.864Z" fill="#3F3D56"/>
<path d="M110.996 106.08C110.996 106.08 111.26 104.275 108.828 103.78C108.321 103.677 107.845 103.606 107.408 103.559C106.893 103.504 106.692 104.21 107.157 104.438C107.832 104.768 108.466 105.183 108.797 105.676C109.709 107.034 110.996 106.08 110.996 106.08Z" fill="#C7C7C7"/>
<path d="M114.382 93.8497C114.871 93.7206 115.329 93.4957 115.314 93.2732C115.296 93.0089 114.616 92.8317 114.03 92.8048C114.472 92.4588 114.878 91.9805 114.754 91.7641C114.64 91.5653 114.108 91.6423 113.618 91.8175C113.908 91.4026 114.112 90.9351 113.957 90.7751C113.763 90.5758 113.076 90.9198 112.607 91.3C112.699 90.7076 112.653 89.9599 112.387 89.8923C112.165 89.8357 111.85 90.2706 111.634 90.7444C111.538 90.2472 111.345 89.7751 111.122 89.7751C110.804 89.7751 110.547 90.733 110.547 91.3571C110.547 91.3924 110.548 91.4256 110.549 91.4573C110.517 91.4204 110.481 91.3817 110.439 91.3413C109.991 90.9065 109.125 90.4239 108.903 90.6518C108.748 90.8118 108.952 91.2793 109.242 91.6942C108.752 91.519 108.22 91.442 108.106 91.6409C107.953 91.9081 108.609 92.5752 109.142 92.8987C109.11 92.8948 109.077 92.8916 109.041 92.8891C108.418 92.8466 107.445 93.0384 107.423 93.3554C107.408 93.5779 107.866 93.8028 108.355 93.9319C107.868 94.1151 107.413 94.3998 107.454 94.6254C107.504 94.8992 108.269 94.995 108.871 94.9389C108.421 95.3702 107.934 96.1427 108.137 96.3691C108.287 96.535 108.767 96.3633 109.201 96.102C108.992 96.5793 108.879 97.1043 109.07 97.2318C109.322 97.4004 110.013 96.8138 110.377 96.3091C110.34 96.9265 110.488 97.7748 110.781 97.8083C111.003 97.8336 111.248 97.3865 111.399 96.9033C111.56 97.3986 111.824 97.8665 112.051 97.8355C112.347 97.7951 112.475 96.9256 112.42 96.3077C112.796 96.7917 113.428 97.3092 113.667 97.1496C113.858 97.0221 113.745 96.4971 113.536 96.0198C113.97 96.2811 114.45 96.4528 114.6 96.2869C114.803 96.0605 114.316 95.288 113.866 94.8568C114.468 94.9129 115.233 94.817 115.283 94.5432C115.324 94.3176 114.869 94.0329 114.382 93.8497ZM111.745 95.5962C111.62 95.6134 111.505 95.6379 111.417 95.7006C111.324 95.6083 111.188 95.5802 111.037 95.5629C110.868 95.5436 110.715 95.5418 110.598 95.6393C110.555 95.5202 110.449 95.4355 110.327 95.3534C110.221 95.2828 110.119 95.2248 110.012 95.2136C110.003 95.0829 109.92 94.9718 109.819 94.8588C109.754 94.7867 109.689 94.7223 109.617 94.6792C109.721 94.5529 109.709 94.3933 109.677 94.2181C109.654 94.0932 109.624 93.9794 109.558 93.8948C109.646 93.7977 109.668 93.6608 109.678 93.5092C109.689 93.3437 109.685 93.1936 109.589 93.0818C109.836 93.1132 109.955 92.9594 110.066 92.7666C110.129 92.6565 110.18 92.5504 110.184 92.4429C110.314 92.4256 110.419 92.3353 110.525 92.2263C110.615 92.1332 110.692 92.041 110.721 91.9348C110.825 92.0219 110.966 92.0351 111.122 92.0351C111.274 92.0351 111.412 92.0226 111.515 91.9414C111.595 92.0136 111.706 92.051 111.829 92.0823C111.947 92.1123 112.058 92.1323 112.159 92.1121C112.195 92.1962 112.261 92.2726 112.336 92.3496C112.441 92.4586 112.547 92.5489 112.676 92.5661C112.68 92.6737 112.731 92.7798 112.794 92.8899C112.869 93.0195 112.947 93.1316 113.065 93.1816C113.052 93.2569 113.053 93.3398 113.059 93.427C113.069 93.5786 113.091 93.7155 113.179 93.8126C113.113 93.8972 113.083 94.011 113.06 94.1359C113.028 94.3111 113.016 94.4707 113.12 94.597C113.048 94.6401 112.983 94.7045 112.918 94.7766C112.817 94.8896 112.734 95.0007 112.725 95.1315C112.618 95.1426 112.516 95.2006 112.41 95.2712C112.266 95.3677 112.146 95.4676 112.123 95.6229C112.015 95.5704 111.885 95.5772 111.745 95.5962Z" fill="#C7C7C7"/>
<path d="M111.41 95.8976C112.545 95.8976 113.464 94.9778 113.464 93.8431C113.464 92.7084 112.545 91.7886 111.41 91.7886C110.275 91.7886 109.355 92.7084 109.355 93.8431C109.355 94.9778 110.275 95.8976 111.41 95.8976Z" fill="#3F3D56"/>
<path d="M77.1352 112.421C76.1433 113.609 75.9525 115.084 76.7088 115.715C77.4651 116.346 78.882 115.894 79.8741 114.705C80.2769 114.236 80.5614 113.677 80.7038 113.075L84.8428 107.987L82.8266 106.355L78.5914 111.312C78.0244 111.56 77.5251 111.94 77.1352 112.421Z" fill="#FFB6B6"/>
<path d="M95.2233 87.2729L96.6639 92.979L89.6134 104.265L82.4159 111.499L80.083 109.563L87.3418 100.531L92.844 88.8943L95.2233 87.2729Z" fill="#E6E6E6"/>
<path d="M87.6339 77.8428C88.7212 77.8402 88.7829 77.8474 88.9588 77.8428C90.3074 77.8072 90.6601 77.2766 91.3436 77.3128C92.5637 77.3774 90.9534 83.4943 90.2837 86.3222C89.6269 89.0956 91.8466 91.5809 92.0061 91.7543C94.2591 94.2046 98.2165 94.6527 98.8956 93.6092C99.4453 92.7646 97.4973 91.4804 97.9682 89.6345C98.4285 87.83 100.554 88.0221 101.148 86.3222C101.77 84.5419 99.6793 83.6441 98.3656 79.3002C97.6112 76.8055 97.7447 76.3407 97.0407 74.7955C95.1591 70.6654 85.936 72.4239 86.9714 76.2529C87.1717 76.9936 86.6387 77.8452 87.6339 77.8428Z" fill="#2F2E41"/>
</svg>
